<svg xmlns="http://www.w3.org/2000/svg" viewBox="0 0 7696 3483"><g transform="translate(-2346 -15789)"><g><path d="M7827.5 16283.4C7827.5 16118.3 7961.32 15984.5 8126.39 15984.5L9732.62 15984.5C9897.68 15984.5 10031.5 16118.3 10031.5 16283.4L10031.5 18959.6C10031.5 19124.7 9897.68 19258.5 9732.62 19258.5L8126.39 19258.5C7961.32 19258.5 7827.5 19124.7 7827.5 18959.6Z" stroke="#3FB0C4" stroke-width="20.625" stroke-linecap="butt" stroke-linejoin="round" stroke-miterlimit="10" stroke-opacity="1" fill="#14181D" fill-rule="evenodd" fill-opacity="1"/><path d="M8207 15903C8207 15844.5 8254.46 15797 8313.01 15797L9544.99 15797C9603.54 15797 9651 15844.5 9651 15903L9651 16075C9651 16133.5 9603.54 16181 9544.99 16181L8313.01 16181C8254.46 16181 8207 16133.5 8207 16075Z" fill="#3FB0C4" fill-rule="evenodd" fill-opacity="1"/><text fill="#14181D" fill-opacity="1" font-family="Arial,Arial_MSFontService,sans-serif" font-style="normal" font-variant="normal" font-weight="400" font-stretch="normal" font-size="220" text-anchor="start" direction="ltr" writing-mode="lr-tb" unicode-bidi="normal" text-decoration="none" transform="matrix(1 0 0 1 8347.98 16071)">time</text><text fill="#14181D" fill-opacity="1" font-family="Arial,Arial_MSFontService,sans-serif" font-style="normal" font-variant="normal" font-weight="400" font-stretch="normal" font-size="220" text-anchor="start" direction="ltr" writing-mode="lr-tb" unicode-bidi="normal" text-decoration="none" transform="matrix(1 0 0 1 8763.92 16071)">-</text><text fill="#14181D" fill-opacity="1" font-family="Arial,Arial_MSFontService,sans-serif" font-style="normal" font-variant="normal" font-weight="400" font-stretch="normal" font-size="220" text-anchor="start" direction="ltr" writing-mode="lr-tb" unicode-bidi="normal" text-decoration="none" transform="matrix(1 0 0 1 8837.25 16071)">explicit</text><path d="M5092.5 16283.4C5092.5 16118.3 5226.32 15984.5 5391.39 15984.5L6997.61 15984.5C7162.68 15984.5 7296.5 16118.3 7296.5 16283.4L7296.5 18959.6C7296.5 19124.7 7162.68 19258.5 6997.61 19258.5L5391.39 19258.5C5226.32 19258.5 5092.5 19124.7 5092.5 18959.6Z" stroke="#3FB0C4" stroke-width="20.625" stroke-linecap="butt" stroke-linejoin="round" stroke-miterlimit="10" stroke-opacity="1" fill="#14181D" fill-rule="evenodd" fill-opacity="1"/><path d="M5472 15903C5472 15844.5 5519.46 15797 5578.01 15797L6809.99 15797C6868.54 15797 6916 15844.5 6916 15903L6916 16075C6916 16133.5 6868.54 16181 6809.99 16181L5578.01 16181C5519.46 16181 5472 16133.5 5472 16075Z" fill="#3FB0C4" fill-rule="evenodd" fill-opacity="1"/><text fill="#14181D" fill-opacity="1" font-family="Arial,Arial_MSFontService,sans-serif" font-style="normal" font-variant="normal" font-weight="400" font-stretch="normal" font-size="220" text-anchor="start" direction="ltr" writing-mode="lr-tb" unicode-bidi="normal" text-decoration="none" transform="matrix(1 0 0 1 5784.09 16071)">dynamic</text><path d="M2357.5 16283.4C2357.5 16118.3 2491.32 15984.5 2656.39 15984.5L4262.61 15984.5C4427.68 15984.5 4561.5 16118.3 4561.5 16283.4L4561.5 18959.6C4561.5 19124.7 4427.68 19258.5 4262.61 19258.5L2656.39 19258.5C2491.32 19258.5 2357.5 19124.7 2357.5 18959.6Z" stroke="#3FB0C4" stroke-width="20.625" stroke-linecap="butt" stroke-linejoin="round" stroke-miterlimit="10" stroke-opacity="1" fill="#14181D" fill-rule="evenodd" fill-opacity="1"/><path d="M2737 15903C2737 15844.5 2784.46 15797 2843.01 15797L4074.99 15797C4133.54 15797 4181 15844.5 4181 15903L4181 16075C4181 16133.5 4133.54 16181 4074.99 16181L2843.01 16181C2784.46 16181 2737 16133.5 2737 16075Z" fill="#3FB0C4" fill-rule="evenodd" fill-opacity="1"/><text fill="#14181D" fill-opacity="1" font-family="Arial,Arial_MSFontService,sans-serif" font-style="normal" font-variant="normal" font-weight="400" font-stretch="normal" font-size="220" text-anchor="start" direction="ltr" writing-mode="lr-tb" unicode-bidi="normal" text-decoration="none" transform="matrix(1 0 0 1 2895.98 16071)">prospective</text><path d="M6039 18038 6202.74 18038" stroke="#7F7F7F" stroke-width="10.0833" stroke-linecap="butt" stroke-linejoin="round" stroke-miterlimit="10" stroke-dasharray="40.3333 30.25" stroke-opacity="1" fill="none" fill-rule="evenodd"/><path d="M6370 17685 6533.74 17685" stroke="#7F7F7F" stroke-width="10.0833" stroke-linecap="butt" stroke-linejoin="round" stroke-miterlimit="10" stroke-dasharray="40.3333 30.25" stroke-opacity="1" fill="none" fill-rule="evenodd"/><path d="M6685 17332 6848.74 17332" stroke="#7F7F7F" stroke-width="10.0833" stroke-linecap="butt" stroke-linejoin="round" stroke-miterlimit="10" stroke-dasharray="40.3333 30.25" stroke-opacity="1" fill="none" fill-rule="evenodd"/><path d="M5707 18391 5870.74 18391" stroke="#7F7F7F" stroke-width="10.0833" stroke-linecap="butt" stroke-linejoin="round" stroke-miterlimit="10" stroke-dasharray="40.3333 30.25" stroke-opacity="1" fill="none" fill-rule="evenodd"/><rect x="5825" y="18038" width="209" height="353" stroke="#F6A800" stroke-width="10.0833" stroke-linecap="butt" stroke-linejoin="round" stroke-miterlimit="10" stroke-opacity="1" fill="#F6A800" fill-opacity="1"/><text fill="#14181D" fill-opacity="1" font-family="Arial,Arial_MSFontService,sans-serif" font-style="normal" font-variant="normal" font-weight="400" font-stretch="normal" font-size="110" text-anchor="start" direction="ltr" writing-mode="lr-tb" unicode-bidi="normal" text-decoration="none" transform="matrix(6.12323e-17 -1 1 6.12323e-17 5970.43 18312)">Use</text><rect x="6158" y="17685" width="210" height="353" stroke="#F6A800" stroke-width="10.0833" stroke-linecap="butt" stroke-linejoin="round" stroke-miterlimit="10" stroke-opacity="1" fill="#F6A800" fill-opacity="1"/><text fill="#14181D" fill-opacity="1" font-family="Arial,Arial_MSFontService,sans-serif" font-style="normal" font-variant="normal" font-weight="400" font-stretch="normal" font-size="110" text-anchor="start" direction="ltr" writing-mode="lr-tb" unicode-bidi="normal" text-decoration="none" transform="matrix(6.12323e-17 -1 1 6.12323e-17 6304.29 17959)">Use</text><rect x="6491" y="17332" width="209" height="353" stroke="#F6A800" stroke-width="10.0833" stroke-linecap="butt" stroke-linejoin="round" stroke-miterlimit="10" stroke-opacity="1" fill="#F6A800" fill-opacity="1"/><text fill="#14181D" fill-opacity="1" font-family="Arial,Arial_MSFontService,sans-serif" font-style="normal" font-variant="normal" font-weight="400" font-stretch="normal" font-size="110" text-anchor="start" direction="ltr" writing-mode="lr-tb" unicode-bidi="normal" text-decoration="none" transform="matrix(6.12323e-17 -1 1 6.12323e-17 6636.31 17606)">Use</text><rect x="6823" y="17071" width="209" height="261" stroke="#7A6FAC" stroke-width="10.0833" stroke-linecap="butt" stroke-linejoin="round" stroke-miterlimit="10" stroke-opacity="1" fill="#7A6FAC" fill-opacity="1"/><text fill="#14181D" fill-opacity="1" font-family="Arial,Arial_MSFontService,sans-serif" font-style="normal" font-variant="normal" font-weight="400" font-stretch="normal" font-size="110" text-anchor="start" direction="ltr" writing-mode="lr-tb" unicode-bidi="normal" text-decoration="none" transform="matrix(6.12323e-17 -1 1 6.12323e-17 6968.34 17299)">EoL</text><path d="M5478.56 18317.4C5465.42 18304.4 5469.13 18279.3 5486.86 18261.4L6073.5 17669C6091.23 17651.1 6094.95 17626.1 6081.81 17613.1 6094.95 17626.1 6119.97 17622.1 6137.7 17604.2L6724.34 17011.8C6742.07 16993.9 6767.1 16990 6780.24 17003" stroke="#CED7DD" stroke-width="10.0833" stroke-linecap="round" stroke-linejoin="round" stroke-miterlimit="10" stroke-opacity="1" fill="none" fill-rule="evenodd"/><path d="M5598.5 18859.5 5598.5 18898.5" stroke="#CED7DD" stroke-width="11.3436" stroke-linecap="round" stroke-linejoin="round" stroke-miterlimit="10" stroke-opacity="1" fill="none" fill-rule="evenodd"/><path d="M6927.5 18859.5 6927.5 18898.5" stroke="#CED7DD" stroke-width="11.3436" stroke-linecap="round" stroke-linejoin="round" stroke-miterlimit="10" stroke-opacity="1" fill="none" fill-rule="evenodd"/><rect x="5494" y="18391" width="209" height="467" stroke="#58AB27" stroke-width="10.0833" stroke-linecap="butt" stroke-linejoin="round" stroke-miterlimit="10" stroke-opacity="1" fill="#58AB27" fill-opacity="1"/><text fill="#14181D" fill-opacity="1" font-family="Arial,Arial_MSFontService,sans-serif" font-style="normal" font-variant="normal" font-weight="400" font-stretch="normal" font-size="110" text-anchor="start" direction="ltr" writing-mode="lr-tb" unicode-bidi="normal" text-decoration="none" transform="matrix(6.12323e-17 -1 1 6.12323e-17 5639.39 18798)">Constr.</text><path d="M5362 18853 7162.04 18853 7162.04 18863 5362 18863ZM7134.33 18836 7172.05 18858 7134.33 18880C7131.93 18881.4 7128.84 18880.6 7127.44 18878.2 7126.03 18875.8 7126.85 18872.7 7129.25 18871.3L7159.5 18853.6 7159.5 18862.4 7129.25 18844.7C7126.85 18843.3 7126.03 18840.2 7127.44 18837.8 7128.84 18835.4 7131.93 18834.6 7134.33 18836Z" fill="#CED7DD" fill-rule="nonzero" fill-opacity="1"/><path d="M5.04167-9.00545e-07 5.04203 2010.46-5.04131 2010.46-5.04167 9.00545e-07ZM22.0011 1982.75 0.00036049 2020.46-22.0004 1982.75-22.0004 1982.75C-23.4034 1980.34-22.591 1977.26-20.1858 1975.85-17.7807 1974.45-14.6936 1975.26-13.2906 1977.67L-13.2906 1977.67 4.35524 2007.92-4.35453 2007.92 13.2913 1977.67C14.6943 1975.26 17.7814 1974.45 20.1865 1975.85 22.5917 1977.26 23.4041 1980.34 22.0011 1982.75Z" fill="#CED7DD" fill-rule="nonzero" fill-opacity="1" transform="matrix(1 0 0 -1 5362 18861.4)"/><text fill="#CED7DD" fill-opacity="1" font-family="Arial,Arial_MSFontService,sans-serif" font-style="normal" font-variant="normal" font-weight="400" font-stretch="normal" font-size="110" text-anchor="start" direction="ltr" writing-mode="lr-tb" unicode-bidi="normal" text-decoration="none" transform="matrix(-1.83697e-16 -1 1 -1.83697e-16 5318.09 18402)">e</text><text fill="#CED7DD" fill-opacity="1" font-family="Arial,Arial_MSFontService,sans-serif" font-style="normal" font-variant="normal" font-weight="400" font-stretch="normal" font-size="110" text-anchor="start" direction="ltr" writing-mode="lr-tb" unicode-bidi="normal" text-decoration="none" transform="matrix(-1.83697e-16 -1 1 -1.83697e-16 5318.09 18341)">nvironmental impacts</text><path d="M5929.5 18859.5 5929.5 18898.5" stroke="#CED7DD" stroke-width="11.3436" stroke-linecap="round" stroke-linejoin="round" stroke-miterlimit="10" stroke-opacity="1" fill="none" fill-rule="evenodd"/><path d="M6263.5 18859.5 6263.5 18898.5" stroke="#CED7DD" stroke-width="11.3436" stroke-linecap="round" stroke-linejoin="round" stroke-miterlimit="10" stroke-opacity="1" fill="none" fill-rule="evenodd"/><path d="M6595.5 18859.5 6595.5 18898.5" stroke="#CED7DD" stroke-width="11.3436" stroke-linecap="round" stroke-linejoin="round" stroke-miterlimit="10" stroke-opacity="1" fill="none" fill-rule="evenodd"/><text fill="#CED7DD" fill-opacity="1" font-family="Arial,Arial_MSFontService,sans-serif" font-style="italic" font-variant="normal" font-weight="400" font-stretch="normal" font-size="101" text-anchor="start" direction="ltr" writing-mode="lr-tb" unicode-bidi="normal" text-decoration="none" transform="matrix(0.707107 -0.707107 0.707107 0.707107 5475.95 19152)">2025</text><text fill="#CED7DD" fill-opacity="1" font-family="Arial,Arial_MSFontService,sans-serif" font-style="italic" font-variant="normal" font-weight="400" font-stretch="normal" font-size="101" text-anchor="start" direction="ltr" writing-mode="lr-tb" unicode-bidi="normal" text-decoration="none" transform="matrix(0.707107 -0.707107 0.707107 0.707107 5809.93 19152)">2030</text><text fill="#CED7DD" fill-opacity="1" font-family="Arial,Arial_MSFontService,sans-serif" font-style="italic" font-variant="normal" font-weight="400" font-stretch="normal" font-size="101" text-anchor="start" direction="ltr" writing-mode="lr-tb" unicode-bidi="normal" text-decoration="none" transform="matrix(0.707107 -0.707107 0.707107 0.707107 6143.91 19152)">2035</text><text fill="#CED7DD" fill-opacity="1" font-family="Arial,Arial_MSFontService,sans-serif" font-style="italic" font-variant="normal" font-weight="400" font-stretch="normal" font-size="101" text-anchor="start" direction="ltr" writing-mode="lr-tb" unicode-bidi="normal" text-decoration="none" transform="matrix(0.707107 -0.707107 0.707107 0.707107 6477.88 19152)">2040</text><text fill="#CED7DD" fill-opacity="1" font-family="Arial,Arial_MSFontService,sans-serif" font-style="italic" font-variant="normal" font-weight="400" font-stretch="normal" font-size="101" text-anchor="start" direction="ltr" writing-mode="lr-tb" unicode-bidi="normal" text-decoration="none" transform="matrix(0.707107 -0.707107 0.707107 0.707107 6811.86 19152)">2045</text><path d="M5668.5 16494.5C5668.5 16506.1 5635.15 16515.5 5594 16515.5 5552.85 16515.5 5519.5 16506.1 5519.5 16494.5 5519.5 16482.9 5552.85 16473.5 5594 16473.5 5635.15 16473.5 5668.5 16482.9 5668.5 16494.5Z" stroke="#000000" stroke-width="5.04167" stroke-linecap="butt" stroke-linejoin="miter" stroke-miterlimit="8" stroke-opacity="1" fill="#7A6FAC" fill-rule="evenodd" fill-opacity="1"/><path d="M5647.21 16547.5C5644.02 16547.5 5641.89 16545.4 5641.89 16542.2 5641.89 16539.1 5644.02 16537 5647.21 16537 5650.41 16537 5652.54 16539.1 5652.54 16542.2 5652.54 16545.4 5650.41 16547.5 5647.21 16547.5ZM5594 16526.5C5553.02 16526.5 5519.5 16517.1 5519.5 16505.5L5519.5 16547.5C5519.5 16559.1 5553.02 16568.5 5594 16568.5 5634.98 16568.5 5668.5 16559.1 5668.5 16547.5L5668.5 16505.5C5668.5 16517.1 5634.98 16526.5 5594 16526.5Z" stroke="#000000" stroke-width="5.04167" stroke-linecap="butt" stroke-linejoin="miter" stroke-miterlimit="8" stroke-opacity="1" fill="#7A6FAC" fill-rule="evenodd" fill-opacity="1"/><path d="M5647.21 16600.5C5644.02 16600.5 5641.89 16598.4 5641.89 16595.2 5641.89 16592.1 5644.02 16590 5647.21 16590 5650.41 16590 5652.54 16592.1 5652.54 16595.2 5652.54 16598.4 5650.41 16600.5 5647.21 16600.5ZM5594 16579.5C5553.02 16579.5 5519.5 16570.1 5519.5 16558.5L5519.5 16600.5C5519.5 16612.1 5553.02 16621.5 5594 16621.5 5634.98 16621.5 5668.5 16612.1 5668.5 16600.5L5668.5 16558.5C5668.5 16570.1 5634.98 16579.5 5594 16579.5Z" stroke="#000000" stroke-width="5.04167" stroke-linecap="butt" stroke-linejoin="miter" stroke-miterlimit="8" stroke-opacity="1" fill="#F7A800" fill-rule="evenodd" fill-opacity="1"/><path d="M5647.21 16652.5C5644.02 16652.5 5641.89 16650.4 5641.89 16647.2 5641.89 16644.1 5644.02 16642 5647.21 16642 5650.41 16642 5652.54 16644.1 5652.54 16647.2 5652.54 16650.4 5650.41 16652.5 5647.21 16652.5ZM5594 16631.5C5553.02 16631.5 5519.5 16622.1 5519.5 16610.5L5519.5 16652.5C5519.5 16664.1 5553.02 16673.5 5594 16673.5 5634.98 16673.5 5668.5 16664.1 5668.5 16652.5L5668.5 16610.5C5668.5 16622.1 5634.98 16631.5 5594 16631.5Z" stroke="#000000" stroke-width="5.04167" stroke-linecap="butt" stroke-linejoin="miter" stroke-miterlimit="8" stroke-opacity="1" fill="#58AB27" fill-rule="evenodd" fill-opacity="1"/><path d="M6004.5 16494.5C6004.5 16506.1 5970.92 16515.5 5929.5 16515.5 5888.08 16515.5 5854.5 16506.1 5854.5 16494.5 5854.5 16482.9 5888.08 16473.5 5929.5 16473.5 5970.92 16473.5 6004.5 16482.9 6004.5 16494.5Z" stroke="#000000" stroke-width="5.04167" stroke-linecap="butt" stroke-linejoin="miter" stroke-miterlimit="8" stroke-opacity="1" fill="#8478BE" fill-rule="evenodd" fill-opacity="1"/><path d="M5983.07 16547.5C5979.86 16547.5 5977.71 16545.4 5977.71 16542.2 5977.71 16539.1 5979.86 16537 5983.07 16537 5986.29 16537 5988.43 16539.1 5988.43 16542.2 5988.43 16545.4 5986.29 16547.5 5983.07 16547.5ZM5929.5 16526.5C5888.25 16526.5 5854.5 16517.1 5854.5 16505.5L5854.5 16547.5C5854.5 16559.1 5888.25 16568.5 5929.5 16568.5 5970.75 16568.5 6004.5 16559.1 6004.5 16547.5L6004.5 16505.5C6004.5 16517.1 5970.75 16526.5 5929.5 16526.5Z" stroke="#000000" stroke-width="5.04167" stroke-linecap="butt" stroke-linejoin="miter" stroke-miterlimit="8" stroke-opacity="1" fill="#8478BE" fill-rule="evenodd" fill-opacity="1"/><path d="M5983.07 16600.5C5979.86 16600.5 5977.71 16598.4 5977.71 16595.2 5977.71 16592.1 5979.86 16590 5983.07 16590 5986.29 16590 5988.43 16592.1 5988.43 16595.2 5988.43 16598.4 5986.29 16600.5 5983.07 16600.5ZM5929.5 16579.5C5888.25 16579.5 5854.5 16570.1 5854.5 16558.5L5854.5 16600.5C5854.5 16612.1 5888.25 16621.5 5929.5 16621.5 5970.75 16621.5 6004.5 16612.1 6004.5 16600.5L6004.5 16558.5C6004.5 16570.1 5970.75 16579.5 5929.5 16579.5Z" stroke="#000000" stroke-width="5.04167" stroke-linecap="butt" stroke-linejoin="miter" stroke-miterlimit="8" stroke-opacity="1" fill="#FABE4F" fill-rule="evenodd" fill-opacity="1"/><path d="M5983.07 16652.5C5979.86 16652.5 5977.71 16650.4 5977.71 16647.2 5977.71 16644.1 5979.86 16642 5983.07 16642 5986.29 16642 5988.43 16644.1 5988.43 16647.2 5988.43 16650.4 5986.29 16652.5 5983.07 16652.5ZM5929.5 16631.5C5888.25 16631.5 5854.5 16622.1 5854.5 16610.5L5854.5 16652.5C5854.5 16664.1 5888.25 16673.5 5929.5 16673.5 5970.75 16673.5 6004.5 16664.1 6004.5 16652.5L6004.5 16610.5C6004.5 16622.1 5970.75 16631.5 5929.5 16631.5Z" stroke="#000000" stroke-width="5.04167" stroke-linecap="butt" stroke-linejoin="miter" stroke-miterlimit="8" stroke-opacity="1" fill="#88BA5E" fill-rule="evenodd" fill-opacity="1"/><path d="M6340.5 16494.5C6340.5 16506.1 6306.92 16515.5 6265.5 16515.5 6224.08 16515.5 6190.5 16506.1 6190.5 16494.5 6190.5 16482.9 6224.08 16473.5 6265.5 16473.5 6306.92 16473.5 6340.5 16482.9 6340.5 16494.5Z" stroke="#000000" stroke-width="5.04167" stroke-linecap="butt" stroke-linejoin="miter" stroke-miterlimit="8" stroke-opacity="1" fill="#938BBB" fill-rule="evenodd" fill-opacity="1"/><path d="M6319.07 16547.5C6315.86 16547.5 6313.71 16545.4 6313.71 16542.2 6313.71 16539.1 6315.86 16537 6319.07 16537 6322.29 16537 6324.43 16539.1 6324.43 16542.2 6324.43 16545.4 6322.29 16547.5 6319.07 16547.5ZM6265.5 16526.5C6224.25 16526.5 6190.5 16517.1 6190.5 16505.5L6190.5 16547.5C6190.5 16559.1 6224.25 16568.5 6265.5 16568.5 6306.75 16568.5 6340.5 16559.1 6340.5 16547.5L6340.5 16505.5C6340.5 16517.1 6306.75 16526.5 6265.5 16526.5Z" stroke="#000000" stroke-width="5.04167" stroke-linecap="butt" stroke-linejoin="miter" stroke-miterlimit="8" stroke-opacity="1" fill="#938BBB" fill-rule="evenodd" fill-opacity="1"/><path d="M6319.07 16600.5C6315.86 16600.5 6313.71 16598.4 6313.71 16595.2 6313.71 16592.1 6315.86 16590 6319.07 16590 6322.29 16590 6324.43 16592.1 6324.43 16595.2 6324.43 16598.4 6322.29 16600.5 6319.07 16600.5ZM6265.5 16579.5C6224.25 16579.5 6190.5 16570.1 6190.5 16558.5L6190.5 16600.5C6190.5 16612.1 6224.25 16621.5 6265.5 16621.5 6306.75 16621.5 6340.5 16612.1 6340.5 16600.5L6340.5 16558.5C6340.5 16570.1 6306.75 16579.5 6265.5 16579.5Z" stroke="#000000" stroke-width="5.04167" stroke-linecap="butt" stroke-linejoin="miter" stroke-miterlimit="8" stroke-opacity="1" fill="#FFC553" fill-rule="evenodd" fill-opacity="1"/><path d="M6319.07 16652.5C6315.86 16652.5 6313.71 16650.4 6313.71 16647.2 6313.71 16644.1 6315.86 16642 6319.07 16642 6322.29 16642 6324.43 16644.1 6324.43 16647.2 6324.43 16650.4 6322.29 16652.5 6319.07 16652.5ZM6265.5 16631.5C6224.25 16631.5 6190.5 16622.1 6190.5 16610.5L6190.5 16652.5C6190.5 16664.1 6224.25 16673.5 6265.5 16673.5 6306.75 16673.5 6340.5 16664.1 6340.5 16652.5L6340.5 16610.5C6340.5 16622.1 6306.75 16631.5 6265.5 16631.5Z" stroke="#000000" stroke-width="5.04167" stroke-linecap="butt" stroke-linejoin="miter" stroke-miterlimit="8" stroke-opacity="1" fill="#8DC05F" fill-rule="evenodd" fill-opacity="1"/><path d="M6675.5 16494.5C6675.5 16506.1 6642.15 16515.5 6601 16515.5 6559.85 16515.5 6526.5 16506.1 6526.5 16494.5 6526.5 16482.9 6559.85 16473.5 6601 16473.5 6642.15 16473.5 6675.5 16482.9 6675.5 16494.5Z" stroke="#000000" stroke-width="5.04167" stroke-linecap="butt" stroke-linejoin="miter" stroke-miterlimit="8" stroke-opacity="1" fill="#9B91C2" fill-rule="evenodd" fill-opacity="1"/><path d="M6654.21 16547.5C6651.02 16547.5 6648.89 16545.4 6648.89 16542.2 6648.89 16539.1 6651.02 16537 6654.21 16537 6657.41 16537 6659.54 16539.1 6659.54 16542.2 6659.54 16545.4 6657.41 16547.5 6654.21 16547.5ZM6601 16526.5C6560.03 16526.5 6526.5 16517.1 6526.5 16505.5L6526.5 16547.5C6526.5 16559.1 6560.03 16568.5 6601 16568.5 6641.98 16568.5 6675.5 16559.1 6675.5 16547.5L6675.5 16505.5C6675.5 16517.1 6641.98 16526.5 6601 16526.5Z" stroke="#000000" stroke-width="5.04167" stroke-linecap="butt" stroke-linejoin="miter" stroke-miterlimit="8" stroke-opacity="1" fill="#9B91C2" fill-rule="evenodd" fill-opacity="1"/><path d="M6654.21 16600.5C6651.02 16600.5 6648.89 16598.4 6648.89 16595.2 6648.89 16592.1 6651.02 16590 6654.21 16590 6657.41 16590 6659.54 16592.1 6659.54 16595.2 6659.54 16598.4 6657.41 16600.5 6654.21 16600.5ZM6601 16579.5C6560.03 16579.5 6526.5 16570.1 6526.5 16558.5L6526.5 16600.5C6526.5 16612.1 6560.03 16621.5 6601 16621.5 6641.98 16621.5 6675.5 16612.1 6675.5 16600.5L6675.5 16558.5C6675.5 16570.1 6641.98 16579.5 6601 16579.5Z" stroke="#000000" stroke-width="5.04167" stroke-linecap="butt" stroke-linejoin="miter" stroke-miterlimit="8" stroke-opacity="1" fill="#F4CC8B" fill-rule="evenodd" fill-opacity="1"/><path d="M6654.21 16652.5C6651.02 16652.5 6648.89 16650.4 6648.89 16647.2 6648.89 16644.1 6651.02 16642 6654.21 16642 6657.41 16642 6659.54 16644.1 6659.54 16647.2 6659.54 16650.4 6657.41 16652.5 6654.21 16652.5ZM6601 16631.5C6560.03 16631.5 6526.5 16622.1 6526.5 16610.5L6526.5 16652.5C6526.5 16664.1 6560.03 16673.5 6601 16673.5 6641.98 16673.5 6675.5 16664.1 6675.5 16652.5L6675.5 16610.5C6675.5 16622.1 6641.98 16631.5 6601 16631.5Z" stroke="#000000" stroke-width="5.04167" stroke-linecap="butt" stroke-linejoin="miter" stroke-miterlimit="8" stroke-opacity="1" fill="#A5CB82" fill-rule="evenodd" fill-opacity="1"/><path d="M7011.5 16494.5C7011.5 16506.1 6977.92 16515.5 6936.5 16515.5 6895.08 16515.5 6861.5 16506.1 6861.5 16494.5 6861.5 16482.9 6895.08 16473.5 6936.5 16473.5 6977.92 16473.5 7011.5 16482.9 7011.5 16494.5Z" stroke="#000000" stroke-width="5.04167" stroke-linecap="butt" stroke-linejoin="miter" stroke-miterlimit="8" stroke-opacity="1" fill="#B4A8E1" fill-rule="evenodd" fill-opacity="1"/><path d="M6990.07 16547.5C6986.86 16547.5 6984.71 16545.4 6984.71 16542.2 6984.71 16539.1 6986.86 16537 6990.07 16537 6993.29 16537 6995.43 16539.1 6995.43 16542.2 6995.43 16545.4 6993.29 16547.5 6990.07 16547.5ZM6936.5 16526.5C6895.25 16526.5 6861.5 16517.1 6861.5 16505.5L6861.5 16547.5C6861.5 16559.1 6895.25 16568.5 6936.5 16568.5 6977.75 16568.5 7011.5 16559.1 7011.5 16547.5L7011.5 16505.5C7011.5 16517.1 6977.75 16526.5 6936.5 16526.5Z" stroke="#000000" stroke-width="5.04167" stroke-linecap="butt" stroke-linejoin="miter" stroke-miterlimit="8" stroke-opacity="1" fill="#B4A8E1" fill-rule="evenodd" fill-opacity="1"/><path d="M6990.07 16600.5C6986.86 16600.5 6984.71 16598.4 6984.71 16595.2 6984.71 16592.1 6986.86 16590 6990.07 16590 6993.29 16590 6995.43 16592.1 6995.43 16595.2 6995.43 16598.4 6993.29 16600.5 6990.07 16600.5ZM6936.5 16579.5C6895.25 16579.5 6861.5 16570.1 6861.5 16558.5L6861.5 16600.5C6861.5 16612.1 6895.25 16621.5 6936.5 16621.5 6977.75 16621.5 7011.5 16612.1 7011.5 16600.5L7011.5 16558.5C7011.5 16570.1 6977.75 16579.5 6936.5 16579.5Z" stroke="#000000" stroke-width="5.04167" stroke-linecap="butt" stroke-linejoin="miter" stroke-miterlimit="8" stroke-opacity="1" fill="#FED48F" fill-rule="evenodd" fill-opacity="1"/><path d="M6990.07 16652.5C6986.86 16652.5 6984.71 16650.4 6984.71 16647.2 6984.71 16644.1 6986.86 16642 6990.07 16642 6993.29 16642 6995.43 16644.1 6995.43 16647.2 6995.43 16650.4 6993.29 16652.5 6990.07 16652.5ZM6936.5 16631.5C6895.25 16631.5 6861.5 16622.1 6861.5 16610.5L6861.5 16652.5C6861.5 16664.1 6895.25 16673.5 6936.5 16673.5 6977.75 16673.5 7011.5 16664.1 7011.5 16652.5L7011.5 16610.5C7011.5 16622.1 6977.75 16631.5 6936.5 16631.5Z" stroke="#000000" stroke-width="5.04167" stroke-linecap="butt" stroke-linejoin="miter" stroke-miterlimit="8" stroke-opacity="1" fill="#C4E3A6" fill-rule="evenodd" fill-opacity="1"/><text fill="#CED7DD" fill-opacity="1" font-family="Arial,Arial_MSFontService,sans-serif" font-style="italic" font-variant="normal" font-weight="400" font-stretch="normal" font-size="101" text-anchor="start" direction="ltr" writing-mode="lr-tb" unicode-bidi="normal" text-decoration="none" transform="matrix(1 0 0 1 5498.91 16796)">2025</text><text fill="#CED7DD" fill-opacity="1" font-family="Arial,Arial_MSFontService,sans-serif" font-style="italic" font-variant="normal" font-weight="400" font-stretch="normal" font-size="101" text-anchor="start" direction="ltr" writing-mode="lr-tb" unicode-bidi="normal" text-decoration="none" transform="matrix(1 0 0 1 5835.7 16796)">2030</text><text fill="#CED7DD" fill-opacity="1" font-family="Arial,Arial_MSFontService,sans-serif" font-style="italic" font-variant="normal" font-weight="400" font-stretch="normal" font-size="101" text-anchor="start" direction="ltr" writing-mode="lr-tb" unicode-bidi="normal" text-decoration="none" transform="matrix(1 0 0 1 6172.48 16796)">2035</text><text fill="#CED7DD" fill-opacity="1" font-family="Arial,Arial_MSFontService,sans-serif" font-style="italic" font-variant="normal" font-weight="400" font-stretch="normal" font-size="101" text-anchor="start" direction="ltr" writing-mode="lr-tb" unicode-bidi="normal" text-decoration="none" transform="matrix(1 0 0 1 6509.26 16796)">2040</text><text fill="#CED7DD" fill-opacity="1" font-family="Arial,Arial_MSFontService,sans-serif" font-style="italic" font-variant="normal" font-weight="400" font-stretch="normal" font-size="101" text-anchor="start" direction="ltr" writing-mode="lr-tb" unicode-bidi="normal" text-decoration="none" transform="matrix(1 0 0 1 6846.05 16796)">2045</text><text fill="#CED7DD" fill-opacity="1" font-family="Arial,Arial_MSFontService,sans-serif" font-style="italic" font-variant="normal" font-weight="400" font-stretch="normal" font-size="110" text-anchor="start" direction="ltr" writing-mode="lr-tb" unicode-bidi="normal" text-decoration="none" transform="matrix(1 0 0 1 5505.47 16418)">databases:</text><rect x="5796" y="16438" width="1322" height="418" fill="#14181D" fill-opacity="0.819608"/><path d="M2970.5 17086.5 4082.94 17981.3" stroke="#CED7DD" stroke-width="6.875" stroke-linecap="butt" stroke-linejoin="round" stroke-miterlimit="10" stroke-dasharray="6.875 6.875" stroke-opacity="1" fill="none" fill-rule="evenodd"/><path d="M2969.5 17343.5 4082.86 18150.6" stroke="#CED7DD" stroke-width="6.875" stroke-linecap="butt" stroke-linejoin="round" stroke-miterlimit="10" stroke-dasharray="6.875 6.875" stroke-opacity="1" fill="none" fill-rule="evenodd"/><path d="M2964.5 18393.5 4072.93 18589.1" stroke="#CED7DD" stroke-width="6.875" stroke-linecap="butt" stroke-linejoin="round" stroke-miterlimit="10" stroke-dasharray="6.875 6.875" stroke-opacity="1" fill="none" fill-rule="evenodd"/><path d="M2860.5 18859.5 2860.5 18898.5" stroke="#CED7DD" stroke-width="11.3436" stroke-linecap="round" stroke-linejoin="round" stroke-miterlimit="10" stroke-opacity="1" fill="none" fill-rule="evenodd"/><path d="M4188.5 18859.5 4188.5 18898.5" stroke="#CED7DD" stroke-width="11.3436" stroke-linecap="round" stroke-linejoin="round" stroke-miterlimit="10" stroke-opacity="1" fill="none" fill-rule="evenodd"/><rect x="2755" y="18391" width="209" height="467" stroke="#58AB27" stroke-width="10.0833" stroke-linecap="butt" stroke-linejoin="round" stroke-miterlimit="10" stroke-opacity="1" fill="#58AB27" fill-opacity="1"/><text fill="#14181D" fill-opacity="1" font-family="Arial,Arial_MSFontService,sans-serif" font-style="normal" font-variant="normal" font-weight="400" font-stretch="normal" font-size="110" text-anchor="start" direction="ltr" writing-mode="lr-tb" unicode-bidi="normal" text-decoration="none" transform="matrix(6.12323e-17 -1 1 6.12323e-17 2900.53 18798)">Constr.</text><rect x="4084" y="18590" width="209" height="266" stroke="#DEEBCE" stroke-width="10.0833" stroke-linecap="butt" stroke-linejoin="round" stroke-miterlimit="10" stroke-opacity="1" fill="#DEEBCE" fill-opacity="1"/><text fill="#14181D" fill-opacity="1" font-family="Arial,Arial_MSFontService,sans-serif" font-style="normal" font-variant="normal" font-weight="400" font-stretch="normal" font-size="73" text-anchor="start" direction="ltr" writing-mode="lr-tb" unicode-bidi="normal" text-decoration="none" transform="matrix(6.12323e-17 -1 1 6.12323e-17 4215.48 18831)">Constr</text><rect x="4084" y="18152" width="209" height="438" stroke="#FEEBC9" stroke-width="10.0833" stroke-linecap="butt" stroke-linejoin="round" stroke-miterlimit="10" stroke-opacity="1" fill="#FEEBC9" fill-opacity="1"/><text fill="#14181D" fill-opacity="1" font-family="Arial,Arial_MSFontService,sans-serif" font-style="normal" font-variant="normal" font-weight="400" font-stretch="normal" font-size="73" text-anchor="start" direction="ltr" writing-mode="lr-tb" unicode-bidi="normal" text-decoration="none" transform="matrix(6.12323e-17 -1 1 6.12323e-17 4215.48 18436)">U</text><text fill="#14181D" fill-opacity="1" font-family="Arial,Arial_MSFontService,sans-serif" font-style="normal" font-variant="normal" font-weight="400" font-stretch="normal" font-size="73" text-anchor="start" direction="ltr" writing-mode="lr-tb" unicode-bidi="normal" text-decoration="none" transform="matrix(6.12323e-17 -1 1 6.12323e-17 4215.48 18383)">se</text><rect x="4084" y="17980" width="209" height="172" stroke="#BCB5D7" stroke-width="10.0833" stroke-linecap="butt" stroke-linejoin="round" stroke-miterlimit="10" stroke-opacity="1" fill="#BCB5D7" fill-opacity="1"/><text fill="#14181D" fill-opacity="1" font-family="Arial,Arial_MSFontService,sans-serif" font-style="normal" font-variant="normal" font-weight="400" font-stretch="normal" font-size="73" text-anchor="start" direction="ltr" writing-mode="lr-tb" unicode-bidi="normal" text-decoration="none" transform="matrix(6.12323e-17 -1 1 6.12323e-17 4215.48 18131)">EoL</text><path d="M2623 18853 4423.04 18853 4423.04 18863 2623 18863ZM4395.33 18836 4433.05 18858 4395.33 18880C4392.93 18881.4 4389.84 18880.6 4388.44 18878.2 4387.03 18875.8 4387.85 18872.7 4390.25 18871.3L4420.5 18853.6 4420.5 18862.4 4390.25 18844.7C4387.85 18843.3 4387.03 18840.2 4388.44 18837.8 4389.84 18835.4 4392.93 18834.6 4395.33 18836Z" fill="#CED7DD" fill-rule="nonzero" fill-opacity="1"/><path d="M5.04167-9.00545e-07 5.04203 2010.46-5.04131 2010.46-5.04167 9.00545e-07ZM22.0011 1982.75 0.00036049 2020.46-22.0004 1982.75-22.0004 1982.75C-23.4034 1980.34-22.591 1977.26-20.1858 1975.85-17.7807 1974.45-14.6936 1975.26-13.2906 1977.67L-13.2906 1977.67 4.35524 2007.92-4.35453 2007.92 13.2913 1977.67C14.6943 1975.26 17.7814 1974.45 20.1865 1975.85 22.5917 1977.26 23.4041 1980.34 22.0011 1982.75Z" fill="#CED7DD" fill-rule="nonzero" fill-opacity="1" transform="matrix(1 0 0 -1 2623 18861.4)"/><text fill="#CED7DD" fill-opacity="1" font-family="Arial,Arial_MSFontService,sans-serif" font-style="normal" font-variant="normal" font-weight="400" font-stretch="normal" font-size="110" text-anchor="start" direction="ltr" writing-mode="lr-tb" unicode-bidi="normal" text-decoration="none" transform="matrix(-1.83697e-16 -1 1 -1.83697e-16 2579.24 18402)">e</text><text fill="#CED7DD" fill-opacity="1" font-family="Arial,Arial_MSFontService,sans-serif" font-style="normal" font-variant="normal" font-weight="400" font-stretch="normal" font-size="110" text-anchor="start" direction="ltr" writing-mode="lr-tb" unicode-bidi="normal" text-decoration="none" transform="matrix(-1.83697e-16 -1 1 -1.83697e-16 2579.24 18341)">nvironmental impacts</text><path d="M3191.5 18859.5 3191.5 18898.5" stroke="#CED7DD" stroke-width="11.3436" stroke-linecap="round" stroke-linejoin="round" stroke-miterlimit="10" stroke-opacity="1" fill="none" fill-rule="evenodd"/><path d="M3524.5 18859.5 3524.5 18898.5" stroke="#CED7DD" stroke-width="11.3436" stroke-linecap="round" stroke-linejoin="round" stroke-miterlimit="10" stroke-opacity="1" fill="none" fill-rule="evenodd"/><path d="M3856.5 18859.5 3856.5 18898.5" stroke="#CED7DD" stroke-width="11.3436" stroke-linecap="round" stroke-linejoin="round" stroke-miterlimit="10" stroke-opacity="1" fill="none" fill-rule="evenodd"/><text fill="#CED7DD" fill-opacity="1" font-family="Arial,Arial_MSFontService,sans-serif" font-style="italic" font-variant="normal" font-weight="400" font-stretch="normal" font-size="101" text-anchor="start" direction="ltr" writing-mode="lr-tb" unicode-bidi="normal" text-decoration="none" transform="matrix(0.707107 -0.707107 0.707107 0.707107 2737.09 19152)">2025</text><text fill="#CED7DD" fill-opacity="1" font-family="Arial,Arial_MSFontService,sans-serif" font-style="italic" font-variant="normal" font-weight="400" font-stretch="normal" font-size="101" text-anchor="start" direction="ltr" writing-mode="lr-tb" unicode-bidi="normal" text-decoration="none" transform="matrix(0.707107 -0.707107 0.707107 0.707107 3071.07 19152)">2030</text><text fill="#CED7DD" fill-opacity="1" font-family="Arial,Arial_MSFontService,sans-serif" font-style="italic" font-variant="normal" font-weight="400" font-stretch="normal" font-size="101" text-anchor="start" direction="ltr" writing-mode="lr-tb" unicode-bidi="normal" text-decoration="none" transform="matrix(0.707107 -0.707107 0.707107 0.707107 3405.05 19152)">2035</text><text fill="#CED7DD" fill-opacity="1" font-family="Arial,Arial_MSFontService,sans-serif" font-style="italic" font-variant="normal" font-weight="400" font-stretch="normal" font-size="101" text-anchor="start" direction="ltr" writing-mode="lr-tb" unicode-bidi="normal" text-decoration="none" transform="matrix(0.707107 -0.707107 0.707107 0.707107 3739.03 19152)">2040</text><text fill="#CED7DD" fill-opacity="1" font-family="Arial,Arial_MSFontService,sans-serif" font-style="italic" font-variant="normal" font-weight="400" font-stretch="normal" font-size="101" text-anchor="start" direction="ltr" writing-mode="lr-tb" unicode-bidi="normal" text-decoration="none" transform="matrix(0.707107 -0.707107 0.707107 0.707107 4073 19152)">2045</text><path d="M2930.5 16494.5C2930.5 16506.1 2896.92 16515.5 2855.5 16515.5 2814.08 16515.5 2780.5 16506.1 2780.5 16494.5 2780.5 16482.9 2814.08 16473.5 2855.5 16473.5 2896.92 16473.5 2930.5 16482.9 2930.5 16494.5Z" stroke="#000000" stroke-width="5.04167" stroke-linecap="butt" stroke-linejoin="miter" stroke-miterlimit="8" stroke-opacity="1" fill="#7A6FAC" fill-rule="evenodd" fill-opacity="1"/><path d="M2909.07 16547.5C2905.86 16547.5 2903.71 16545.4 2903.71 16542.2 2903.71 16539.1 2905.86 16537 2909.07 16537 2912.29 16537 2914.43 16539.1 2914.43 16542.2 2914.43 16545.4 2912.29 16547.5 2909.07 16547.5ZM2855.5 16526.5C2814.25 16526.5 2780.5 16517.1 2780.5 16505.5L2780.5 16547.5C2780.5 16559.1 2814.25 16568.5 2855.5 16568.5 2896.75 16568.5 2930.5 16559.1 2930.5 16547.5L2930.5 16505.5C2930.5 16517.1 2896.75 16526.5 2855.5 16526.5Z" stroke="#000000" stroke-width="5.04167" stroke-linecap="butt" stroke-linejoin="miter" stroke-miterlimit="8" stroke-opacity="1" fill="#7A6FAC" fill-rule="evenodd" fill-opacity="1"/><path d="M2909.07 16600.5C2905.86 16600.5 2903.71 16598.4 2903.71 16595.2 2903.71 16592.1 2905.86 16590 2909.07 16590 2912.29 16590 2914.43 16592.1 2914.43 16595.2 2914.43 16598.4 2912.29 16600.5 2909.07 16600.5ZM2855.5 16579.5C2814.25 16579.5 2780.5 16570.1 2780.5 16558.5L2780.5 16600.5C2780.5 16612.1 2814.25 16621.5 2855.5 16621.5 2896.75 16621.5 2930.5 16612.1 2930.5 16600.5L2930.5 16558.5C2930.5 16570.1 2896.75 16579.5 2855.5 16579.5Z" stroke="#000000" stroke-width="5.04167" stroke-linecap="butt" stroke-linejoin="miter" stroke-miterlimit="8" stroke-opacity="1" fill="#F7A800" fill-rule="evenodd" fill-opacity="1"/><path d="M2909.07 16652.5C2905.86 16652.5 2903.71 16650.4 2903.71 16647.2 2903.71 16644.1 2905.86 16642 2909.07 16642 2912.29 16642 2914.43 16644.1 2914.43 16647.2 2914.43 16650.4 2912.29 16652.5 2909.07 16652.5ZM2855.5 16631.5C2814.25 16631.5 2780.5 16622.1 2780.5 16610.5L2780.5 16652.5C2780.5 16664.1 2814.25 16673.5 2855.5 16673.5 2896.75 16673.5 2930.5 16664.1 2930.5 16652.5L2930.5 16610.5C2930.5 16622.1 2896.75 16631.5 2855.5 16631.5Z" stroke="#000000" stroke-width="5.04167" stroke-linecap="butt" stroke-linejoin="miter" stroke-miterlimit="8" stroke-opacity="1" fill="#58AB27" fill-rule="evenodd" fill-opacity="1"/><path d="M3263.5 16494.5C3263.5 16506.1 3229.92 16515.5 3188.5 16515.5 3147.08 16515.5 3113.5 16506.1 3113.5 16494.5 3113.5 16482.9 3147.08 16473.5 3188.5 16473.5 3229.92 16473.5 3263.5 16482.9 3263.5 16494.5Z" stroke="#000000" stroke-width="5.04167" stroke-linecap="butt" stroke-linejoin="miter" stroke-miterlimit="8" stroke-opacity="1" fill="#8478BE" fill-rule="evenodd" fill-opacity="1"/><path d="M3242.07 16547.5C3238.86 16547.5 3236.71 16545.4 3236.71 16542.2 3236.71 16539.1 3238.86 16537 3242.07 16537 3245.29 16537 3247.43 16539.1 3247.43 16542.2 3247.43 16545.4 3245.29 16547.5 3242.07 16547.5ZM3188.5 16526.5C3147.25 16526.5 3113.5 16517.1 3113.5 16505.5L3113.5 16547.5C3113.5 16559.1 3147.25 16568.5 3188.5 16568.5 3229.75 16568.5 3263.5 16559.1 3263.5 16547.5L3263.5 16505.5C3263.5 16517.1 3229.75 16526.5 3188.5 16526.5Z" stroke="#000000" stroke-width="5.04167" stroke-linecap="butt" stroke-linejoin="miter" stroke-miterlimit="8" stroke-opacity="1" fill="#8478BE" fill-rule="evenodd" fill-opacity="1"/><path d="M3242.07 16600.5C3238.86 16600.5 3236.71 16598.4 3236.71 16595.2 3236.71 16592.1 3238.86 16590 3242.07 16590 3245.29 16590 3247.43 16592.1 3247.43 16595.2 3247.43 16598.4 3245.29 16600.5 3242.07 16600.5ZM3188.5 16579.5C3147.25 16579.5 3113.5 16570.1 3113.5 16558.5L3113.5 16600.5C3113.5 16612.1 3147.25 16621.5 3188.5 16621.5 3229.75 16621.5 3263.5 16612.1 3263.5 16600.5L3263.5 16558.5C3263.5 16570.1 3229.75 16579.5 3188.5 16579.5Z" stroke="#000000" stroke-width="5.04167" stroke-linecap="butt" stroke-linejoin="miter" stroke-miterlimit="8" stroke-opacity="1" fill="#FABE4F" fill-rule="evenodd" fill-opacity="1"/><path d="M3242.07 16652.5C3238.86 16652.5 3236.71 16650.4 3236.71 16647.2 3236.71 16644.1 3238.86 16642 3242.07 16642 3245.29 16642 3247.43 16644.1 3247.43 16647.2 3247.43 16650.4 3245.29 16652.5 3242.07 16652.5ZM3188.5 16631.5C3147.25 16631.5 3113.5 16622.1 3113.5 16610.5L3113.5 16652.5C3113.5 16664.1 3147.25 16673.5 3188.5 16673.5 3229.75 16673.5 3263.5 16664.1 3263.5 16652.5L3263.5 16610.5C3263.5 16622.1 3229.75 16631.5 3188.5 16631.5Z" stroke="#000000" stroke-width="5.04167" stroke-linecap="butt" stroke-linejoin="miter" stroke-miterlimit="8" stroke-opacity="1" fill="#88BA5E" fill-rule="evenodd" fill-opacity="1"/><path d="M3596.5 16494.5C3596.5 16506.1 3562.92 16515.5 3521.5 16515.5 3480.08 16515.5 3446.5 16506.1 3446.5 16494.5 3446.5 16482.9 3480.08 16473.5 3521.5 16473.5 3562.92 16473.5 3596.5 16482.9 3596.5 16494.5Z" stroke="#000000" stroke-width="5.04167" stroke-linecap="butt" stroke-linejoin="miter" stroke-miterlimit="8" stroke-opacity="1" fill="#938BBB" fill-rule="evenodd" fill-opacity="1"/><path d="M3575.07 16547.5C3571.86 16547.5 3569.71 16545.4 3569.71 16542.2 3569.71 16539.1 3571.86 16537 3575.07 16537 3578.29 16537 3580.43 16539.1 3580.43 16542.2 3580.43 16545.4 3578.29 16547.5 3575.07 16547.5ZM3521.5 16526.5C3480.25 16526.5 3446.5 16517.1 3446.5 16505.5L3446.5 16547.5C3446.5 16559.1 3480.25 16568.5 3521.5 16568.5 3562.75 16568.5 3596.5 16559.1 3596.5 16547.5L3596.5 16505.5C3596.5 16517.1 3562.75 16526.5 3521.5 16526.5Z" stroke="#000000" stroke-width="5.04167" stroke-linecap="butt" stroke-linejoin="miter" stroke-miterlimit="8" stroke-opacity="1" fill="#938BBB" fill-rule="evenodd" fill-opacity="1"/><path d="M3575.07 16600.5C3571.86 16600.5 3569.71 16598.4 3569.71 16595.2 3569.71 16592.1 3571.86 16590 3575.07 16590 3578.29 16590 3580.43 16592.1 3580.43 16595.2 3580.43 16598.4 3578.29 16600.5 3575.07 16600.5ZM3521.5 16579.5C3480.25 16579.5 3446.5 16570.1 3446.5 16558.5L3446.5 16600.5C3446.5 16612.1 3480.25 16621.5 3521.5 16621.5 3562.75 16621.5 3596.5 16612.1 3596.5 16600.5L3596.5 16558.5C3596.5 16570.1 3562.75 16579.5 3521.5 16579.5Z" stroke="#000000" stroke-width="5.04167" stroke-linecap="butt" stroke-linejoin="miter" stroke-miterlimit="8" stroke-opacity="1" fill="#FFC553" fill-rule="evenodd" fill-opacity="1"/><path d="M3575.07 16652.5C3571.86 16652.5 3569.71 16650.4 3569.71 16647.2 3569.71 16644.1 3571.86 16642 3575.07 16642 3578.29 16642 3580.43 16644.1 3580.43 16647.2 3580.43 16650.4 3578.29 16652.5 3575.07 16652.5ZM3521.5 16631.5C3480.25 16631.5 3446.5 16622.1 3446.5 16610.5L3446.5 16652.5C3446.5 16664.1 3480.25 16673.5 3521.5 16673.5 3562.75 16673.5 3596.5 16664.1 3596.5 16652.5L3596.5 16610.5C3596.5 16622.1 3562.75 16631.5 3521.5 16631.5Z" stroke="#000000" stroke-width="5.04167" stroke-linecap="butt" stroke-linejoin="miter" stroke-miterlimit="8" stroke-opacity="1" fill="#8DC05F" fill-rule="evenodd" fill-opacity="1"/><path d="M3929.5 16494.5C3929.5 16506.1 3895.92 16515.5 3854.5 16515.5 3813.08 16515.5 3779.5 16506.1 3779.5 16494.5 3779.5 16482.9 3813.08 16473.5 3854.5 16473.5 3895.92 16473.5 3929.5 16482.9 3929.5 16494.5Z" stroke="#000000" stroke-width="5.04167" stroke-linecap="butt" stroke-linejoin="miter" stroke-miterlimit="8" stroke-opacity="1" fill="#9B91C2" fill-rule="evenodd" fill-opacity="1"/><path d="M3908.07 16547.5C3904.86 16547.5 3902.71 16545.4 3902.71 16542.2 3902.71 16539.1 3904.86 16537 3908.07 16537 3911.29 16537 3913.43 16539.1 3913.43 16542.2 3913.43 16545.4 3911.29 16547.5 3908.07 16547.5ZM3854.5 16526.5C3813.25 16526.5 3779.5 16517.1 3779.5 16505.5L3779.5 16547.5C3779.5 16559.1 3813.25 16568.5 3854.5 16568.5 3895.75 16568.5 3929.5 16559.1 3929.5 16547.5L3929.5 16505.5C3929.5 16517.1 3895.75 16526.5 3854.5 16526.5Z" stroke="#000000" stroke-width="5.04167" stroke-linecap="butt" stroke-linejoin="miter" stroke-miterlimit="8" stroke-opacity="1" fill="#9B91C2" fill-rule="evenodd" fill-opacity="1"/><path d="M3908.07 16600.5C3904.86 16600.5 3902.71 16598.4 3902.71 16595.2 3902.71 16592.1 3904.86 16590 3908.07 16590 3911.29 16590 3913.43 16592.1 3913.43 16595.2 3913.43 16598.4 3911.29 16600.5 3908.07 16600.5ZM3854.5 16579.5C3813.25 16579.5 3779.5 16570.1 3779.5 16558.5L3779.5 16600.5C3779.5 16612.1 3813.25 16621.5 3854.5 16621.5 3895.75 16621.5 3929.5 16612.1 3929.5 16600.5L3929.5 16558.5C3929.5 16570.1 3895.75 16579.5 3854.5 16579.5Z" stroke="#000000" stroke-width="5.04167" stroke-linecap="butt" stroke-linejoin="miter" stroke-miterlimit="8" stroke-opacity="1" fill="#F4CC8B" fill-rule="evenodd" fill-opacity="1"/><path d="M3908.07 16652.5C3904.86 16652.5 3902.71 16650.4 3902.71 16647.2 3902.71 16644.1 3904.86 16642 3908.07 16642 3911.29 16642 3913.43 16644.1 3913.43 16647.2 3913.43 16650.4 3911.29 16652.5 3908.07 16652.5ZM3854.5 16631.5C3813.25 16631.5 3779.5 16622.1 3779.5 16610.5L3779.5 16652.5C3779.5 16664.1 3813.25 16673.5 3854.5 16673.5 3895.75 16673.5 3929.5 16664.1 3929.5 16652.5L3929.5 16610.5C3929.5 16622.1 3895.75 16631.5 3854.5 16631.5Z" stroke="#000000" stroke-width="5.04167" stroke-linecap="butt" stroke-linejoin="miter" stroke-miterlimit="8" stroke-opacity="1" fill="#A5CB82" fill-rule="evenodd" fill-opacity="1"/><path d="M4262.5 16494.5C4262.5 16506.1 4228.92 16515.5 4187.5 16515.5 4146.08 16515.5 4112.5 16506.1 4112.5 16494.5 4112.5 16482.9 4146.08 16473.5 4187.5 16473.5 4228.92 16473.5 4262.5 16482.9 4262.5 16494.5Z" stroke="#000000" stroke-width="5.04167" stroke-linecap="butt" stroke-linejoin="miter" stroke-miterlimit="8" stroke-opacity="1" fill="#BDB5D7" fill-rule="evenodd" fill-opacity="1"/><path d="M4241.07 16547.5C4237.86 16547.5 4235.71 16545.4 4235.71 16542.2 4235.71 16539.1 4237.86 16537 4241.07 16537 4244.29 16537 4246.43 16539.1 4246.43 16542.2 4246.43 16545.4 4244.29 16547.5 4241.07 16547.5ZM4187.5 16526.5C4146.25 16526.5 4112.5 16517.1 4112.5 16505.5L4112.5 16547.5C4112.5 16559.1 4146.25 16568.5 4187.5 16568.5 4228.75 16568.5 4262.5 16559.1 4262.5 16547.5L4262.5 16505.5C4262.5 16517.1 4228.75 16526.5 4187.5 16526.5Z" stroke="#000000" stroke-width="5.04167" stroke-linecap="butt" stroke-linejoin="miter" stroke-miterlimit="8" stroke-opacity="1" fill="#BDB5D7" fill-rule="evenodd" fill-opacity="1"/><path d="M4241.07 16600.5C4237.86 16600.5 4235.71 16598.4 4235.71 16595.2 4235.71 16592.1 4237.86 16590 4241.07 16590 4244.29 16590 4246.43 16592.1 4246.43 16595.2 4246.43 16598.4 4244.29 16600.5 4241.07 16600.5ZM4187.5 16579.5C4146.25 16579.5 4112.5 16570.1 4112.5 16558.5L4112.5 16600.5C4112.5 16612.1 4146.25 16621.5 4187.5 16621.5 4228.75 16621.5 4262.5 16612.1 4262.5 16600.5L4262.5 16558.5C4262.5 16570.1 4228.75 16579.5 4187.5 16579.5Z" stroke="#000000" stroke-width="5.04167" stroke-linecap="butt" stroke-linejoin="miter" stroke-miterlimit="8" stroke-opacity="1" fill="#FFEBC9" fill-rule="evenodd" fill-opacity="1"/><path d="M4241.07 16652.5C4237.86 16652.5 4235.71 16650.4 4235.71 16647.2 4235.71 16644.1 4237.86 16642 4241.07 16642 4244.29 16642 4246.43 16644.1 4246.43 16647.2 4246.43 16650.4 4244.29 16652.5 4241.07 16652.5ZM4187.5 16631.5C4146.25 16631.5 4112.5 16622.1 4112.5 16610.5L4112.5 16652.5C4112.5 16664.1 4146.25 16673.5 4187.5 16673.5 4228.75 16673.5 4262.5 16664.1 4262.5 16652.5L4262.5 16610.5C4262.5 16622.1 4228.75 16631.5 4187.5 16631.5Z" stroke="#000000" stroke-width="5.04167" stroke-linecap="butt" stroke-linejoin="miter" stroke-miterlimit="8" stroke-opacity="1" fill="#DEEBCE" fill-rule="evenodd" fill-opacity="1"/><text fill="#CED7DD" fill-opacity="1" font-family="Arial,Arial_MSFontService,sans-serif" font-style="italic" font-variant="normal" font-weight="400" font-stretch="normal" font-size="101" text-anchor="start" direction="ltr" writing-mode="lr-tb" unicode-bidi="normal" text-decoration="none" transform="matrix(1 0 0 1 2724.51 16796)">2025</text><text fill="#CED7DD" fill-opacity="1" font-family="Arial,Arial_MSFontService,sans-serif" font-style="italic" font-variant="normal" font-weight="400" font-stretch="normal" font-size="101" text-anchor="start" direction="ltr" writing-mode="lr-tb" unicode-bidi="normal" text-decoration="none" transform="matrix(1 0 0 1 3061.3 16796)">2030</text><text fill="#CED7DD" fill-opacity="1" font-family="Arial,Arial_MSFontService,sans-serif" font-style="italic" font-variant="normal" font-weight="400" font-stretch="normal" font-size="101" text-anchor="start" direction="ltr" writing-mode="lr-tb" unicode-bidi="normal" text-decoration="none" transform="matrix(1 0 0 1 3398.08 16796)">2035</text><text fill="#CED7DD" fill-opacity="1" font-family="Arial,Arial_MSFontService,sans-serif" font-style="italic" font-variant="normal" font-weight="400" font-stretch="normal" font-size="101" text-anchor="start" direction="ltr" writing-mode="lr-tb" unicode-bidi="normal" text-decoration="none" transform="matrix(1 0 0 1 3734.87 16796)">2040</text><text fill="#CED7DD" fill-opacity="1" font-family="Arial,Arial_MSFontService,sans-serif" font-style="italic" font-variant="normal" font-weight="400" font-stretch="normal" font-size="101" text-anchor="start" direction="ltr" writing-mode="lr-tb" unicode-bidi="normal" text-decoration="none" transform="matrix(1 0 0 1 4071.65 16796)">2045</text><text fill="#CED7DD" fill-opacity="1" font-family="Arial,Arial_MSFontService,sans-serif" font-style="italic" font-variant="normal" font-weight="400" font-stretch="normal" font-size="110" text-anchor="start" direction="ltr" writing-mode="lr-tb" unicode-bidi="normal" text-decoration="none" transform="matrix(1 0 0 1 2768.96 16418)">databases:</text><rect x="3034" y="16425" width="971" height="418" fill="#14181D" fill-opacity="0.819608"/><rect x="2755" y="17335" width="209" height="1058" stroke="#F6A800" stroke-width="10.0833" stroke-linecap="butt" stroke-linejoin="round" stroke-miterlimit="10" stroke-opacity="1" fill="#F6A800" fill-opacity="1"/><text fill="#14181D" fill-opacity="1" font-family="Arial,Arial_MSFontService,sans-serif" font-style="normal" font-variant="normal" font-weight="400" font-stretch="normal" font-size="110" text-anchor="start" direction="ltr" writing-mode="lr-tb" unicode-bidi="normal" text-decoration="none" transform="matrix(6.12323e-17 -1 1 6.12323e-17 2900.53 17962)">Use</text><rect x="2755" y="17080" width="209" height="257" stroke="#7A6FAC" stroke-width="10.0833" stroke-linecap="butt" stroke-linejoin="round" stroke-miterlimit="10" stroke-opacity="1" fill="#7A6FAC" fill-opacity="1"/><text fill="#14181D" fill-opacity="1" font-family="Arial,Arial_MSFontService,sans-serif" font-style="normal" font-variant="normal" font-weight="400" font-stretch="normal" font-size="110" text-anchor="start" direction="ltr" writing-mode="lr-tb" unicode-bidi="normal" text-decoration="none" transform="matrix(6.12323e-17 -1 1 6.12323e-17 2900.53 17306)">EoL</text><path d="M0.748362 206.991 2.06721 201.969 5.42967 187.261 8.28533 172.398 10.5804 157.394 12.2613 142.262 13.2747 127.016 13.5672 111.67 13.0858 96.2377 12.0864 82.3083 10.2649 68.2814 7.84789 54.3974 5.07062 41.0676 2.17109 28.6962 0.755443 23.0162-0.60777 17.6977-1.88269 12.8151-3.04 8.41521-4.05089 4.54258-4.88759 1.23687C-5.5707-1.46247-3.93621-4.20449-1.23687-4.88759 1.46247-5.5707 4.20449-3.93621 4.88759-1.23687L5.70552 1.99582 6.71165 5.85023 7.87356 10.2677 9.15987 15.1943 10.5397 20.5785 11.9887 26.3965 14.9424 39.0129 17.7824 52.6714 20.2651 66.9888 22.1441 81.5896 23.1644 95.9274 23.6487 111.866 23.3356 127.688 22.2827 143.378 20.5475 158.921 18.1872 174.303 15.259 189.51 11.8199 204.53 10.501 209.552 10.501 209.552C9.79381 212.245 7.03729 213.855 4.34416 213.148 1.65104 212.441 0.0411438 209.684 0.748362 206.991ZM33.9419 187.059 3.0833 217.949-8.61656 175.883C-9.36266 173.2-7.79282 170.42-5.1102 169.674-2.42759 168.928 0.351934 170.498 1.09804 173.181L10.482 206.921 2.05785 204.708 26.8082 179.932 26.8082 179.932C28.7761 177.962 31.9683 177.961 33.9382 179.929 35.9081 181.896 35.9098 185.089 33.9419 187.059Z" fill="#CED7DD" fill-rule="nonzero" fill-opacity="1" transform="matrix(-0.984438 0.175732 0.175732 0.984438 2825.48 16832.7)"/><text fill="#CED7DD" fill-opacity="1" font-family="Arial,Arial_MSFontService,sans-serif" font-style="italic" font-variant="normal" font-weight="700" font-stretch="normal" font-size="110" text-anchor="start" direction="ltr" writing-mode="lr-tb" unicode-bidi="normal" text-decoration="none" transform="matrix(1 0 0 1 2862.65 16970)">static</text><text fill="#CED7DD" fill-opacity="1" font-family="Arial,Arial_MSFontService,sans-serif" font-style="italic" font-variant="normal" font-weight="700" font-stretch="normal" font-size="110" text-anchor="start" direction="ltr" writing-mode="lr-tb" unicode-bidi="normal" text-decoration="none" transform="matrix(1 0 0 1 3534.29 17057)">prospective</text><text fill="#CED7DD" fill-opacity="1" font-family="Arial,Arial_MSFontService,sans-serif" font-style="italic" font-variant="normal" font-weight="400" font-stretch="normal" font-size="83" text-anchor="start" direction="ltr" writing-mode="lr-tb" unicode-bidi="normal" text-decoration="none" transform="matrix(0.776881 0.629648 -0.629648 0.776881 3168.84 17196)">evolving production system</text><text fill="#CED7DD" fill-opacity="1" font-family="Arial,Arial_MSFontService,sans-serif" font-style="italic" font-variant="normal" font-weight="400" font-stretch="normal" font-size="110" text-anchor="start" direction="ltr" writing-mode="lr-tb" unicode-bidi="normal" text-decoration="none" transform="matrix(1 0 0 1 8238.39 16418)">databases:</text><rect x="9222" y="17723" width="210" height="133" stroke="#FFE5B2" stroke-width="10.0833" stroke-linecap="butt" stroke-linejoin="round" stroke-miterlimit="10" stroke-opacity="1" fill="#FFE5B2" fill-opacity="1"/><text fill="#14181D" fill-opacity="1" font-family="Arial,Arial_MSFontService,sans-serif" font-style="normal" font-variant="normal" font-weight="400" font-stretch="normal" font-size="50" text-anchor="start" direction="ltr" writing-mode="lr-tb" unicode-bidi="normal" text-decoration="none" transform="matrix(6.12323e-17 -1 1 6.12323e-17 9345.74 17834)">Use</text><path d="M9449 17723 9566.2 17723" stroke="#7F7F7F" stroke-width="10.0833" stroke-linecap="butt" stroke-linejoin="round" stroke-miterlimit="10" stroke-dasharray="40.3333 30.25" stroke-opacity="1" fill="none" fill-rule="evenodd"/><path d="M9094 17856 9211.2 17856" stroke="#7F7F7F" stroke-width="10.0833" stroke-linecap="butt" stroke-linejoin="round" stroke-miterlimit="10" stroke-dasharray="40.3333 30.25" stroke-opacity="1" fill="none" fill-rule="evenodd"/><path d="M8757 18076 8920.74 18076" stroke="#7F7F7F" stroke-width="10.0833" stroke-linecap="butt" stroke-linejoin="round" stroke-miterlimit="10" stroke-dasharray="40.3333 30.25" stroke-opacity="1" fill="none" fill-rule="evenodd"/><path d="M8420 18390 8583.74 18390" stroke="#7F7F7F" stroke-width="10.0833" stroke-linecap="butt" stroke-linejoin="round" stroke-miterlimit="10" stroke-dasharray="40.3333 30.25" stroke-opacity="1" fill="none" fill-rule="evenodd"/><rect x="8556" y="18076" width="210" height="315" stroke="#FABE4F" stroke-width="10.0833" stroke-linecap="butt" stroke-linejoin="round" stroke-miterlimit="10" stroke-opacity="1" fill="#FABE4F" fill-opacity="1"/><text fill="#14181D" fill-opacity="1" font-family="Arial,Arial_MSFontService,sans-serif" font-style="normal" font-variant="normal" font-weight="400" font-stretch="normal" font-size="110" text-anchor="start" direction="ltr" writing-mode="lr-tb" unicode-bidi="normal" text-decoration="none" transform="matrix(6.12323e-17 -1 1 6.12323e-17 8702.11 18331)">Use</text><rect x="8890" y="17856" width="210" height="220" stroke="#FFD48F" stroke-width="10.0833" stroke-linecap="butt" stroke-linejoin="round" stroke-miterlimit="10" stroke-opacity="1" fill="#FFD48F" fill-opacity="1"/><text fill="#14181D" fill-opacity="1" font-family="Arial,Arial_MSFontService,sans-serif" font-style="normal" font-variant="normal" font-weight="400" font-stretch="normal" font-size="73" text-anchor="start" direction="ltr" writing-mode="lr-tb" unicode-bidi="normal" text-decoration="none" transform="matrix(6.12323e-17 -1 1 6.12323e-17 9021.96 18031)">Use</text><path d="M8330.5 18860.5 8330.5 18899.5" stroke="#CED7DD" stroke-width="11.3436" stroke-linecap="round" stroke-linejoin="round" stroke-miterlimit="10" stroke-opacity="1" fill="none" fill-rule="evenodd"/><path d="M9659.5 18860.5 9659.5 18899.5" stroke="#CED7DD" stroke-width="11.3436" stroke-linecap="round" stroke-linejoin="round" stroke-miterlimit="10" stroke-opacity="1" fill="none" fill-rule="evenodd"/><rect x="8225" y="18391" width="210" height="467" stroke="#58AB27" stroke-width="10.0833" stroke-linecap="butt" stroke-linejoin="round" stroke-miterlimit="10" stroke-opacity="1" fill="#58AB27" fill-opacity="1"/><text fill="#14181D" fill-opacity="1" font-family="Arial,Arial_MSFontService,sans-serif" font-style="normal" font-variant="normal" font-weight="400" font-stretch="normal" font-size="110" text-anchor="start" direction="ltr" writing-mode="lr-tb" unicode-bidi="normal" text-decoration="none" transform="matrix(6.12323e-17 -1 1 6.12323e-17 8371.07 18798)">Constr.</text><path d="M8093 18853 9893.04 18853 9893.04 18863 8093 18863ZM9865.33 18836 9903.05 18858 9865.33 18880C9862.93 18881.4 9859.84 18880.6 9858.44 18878.2 9857.03 18875.8 9857.85 18872.7 9860.25 18871.3L9890.5 18853.6 9890.5 18862.4 9860.25 18844.7C9857.85 18843.3 9857.03 18840.2 9858.44 18837.8 9859.84 18835.4 9862.93 18834.6 9865.33 18836Z" fill="#CED7DD" fill-rule="nonzero" fill-opacity="1"/><path d="M5.04167-9.00545e-07 5.04203 2010.46-5.04131 2010.46-5.04167 9.00545e-07ZM22.0011 1982.75 0.00036049 2020.46-22.0004 1982.75-22.0004 1982.75C-23.4034 1980.34-22.591 1977.26-20.1858 1975.85-17.7807 1974.45-14.6936 1975.26-13.2906 1977.67L-13.2906 1977.67 4.35524 2007.92-4.35453 2007.92 13.2913 1977.67C14.6943 1975.26 17.7814 1974.45 20.1865 1975.85 22.5917 1977.26 23.4041 1980.34 22.0011 1982.75Z" fill="#CED7DD" fill-rule="nonzero" fill-opacity="1" transform="matrix(1 0 0 -1 8093 18861.4)"/><text fill="#CED7DD" fill-opacity="1" font-family="Arial,Arial_MSFontService,sans-serif" font-style="normal" font-variant="normal" font-weight="400" font-stretch="normal" font-size="110" text-anchor="start" direction="ltr" writing-mode="lr-tb" unicode-bidi="normal" text-decoration="none" transform="matrix(-1.83697e-16 -1 1 -1.83697e-16 8049.77 18402)">e</text><text fill="#CED7DD" fill-opacity="1" font-family="Arial,Arial_MSFontService,sans-serif" font-style="normal" font-variant="normal" font-weight="400" font-stretch="normal" font-size="110" text-anchor="start" direction="ltr" writing-mode="lr-tb" unicode-bidi="normal" text-decoration="none" transform="matrix(-1.83697e-16 -1 1 -1.83697e-16 8049.77 18341)">nvironmental impacts</text><path d="M8661.5 18860.5 8661.5 18899.5" stroke="#CED7DD" stroke-width="11.3436" stroke-linecap="round" stroke-linejoin="round" stroke-miterlimit="10" stroke-opacity="1" fill="none" fill-rule="evenodd"/><path d="M8995.5 18860.5 8995.5 18899.5" stroke="#CED7DD" stroke-width="11.3436" stroke-linecap="round" stroke-linejoin="round" stroke-miterlimit="10" stroke-opacity="1" fill="none" fill-rule="evenodd"/><path d="M9327.5 18860.5 9327.5 18899.5" stroke="#CED7DD" stroke-width="11.3436" stroke-linecap="round" stroke-linejoin="round" stroke-miterlimit="10" stroke-opacity="1" fill="none" fill-rule="evenodd"/><text fill="#CED7DD" fill-opacity="1" font-family="Arial,Arial_MSFontService,sans-serif" font-style="italic" font-variant="normal" font-weight="400" font-stretch="normal" font-size="101" text-anchor="start" direction="ltr" writing-mode="lr-tb" unicode-bidi="normal" text-decoration="none" transform="matrix(0.707107 -0.707107 0.707107 0.707107 8207.63 19152)">2025</text><text fill="#CED7DD" fill-opacity="1" font-family="Arial,Arial_MSFontService,sans-serif" font-style="italic" font-variant="normal" font-weight="400" font-stretch="normal" font-size="101" text-anchor="start" direction="ltr" writing-mode="lr-tb" unicode-bidi="normal" text-decoration="none" transform="matrix(0.707107 -0.707107 0.707107 0.707107 8541.61 19152)">2030</text><text fill="#CED7DD" fill-opacity="1" font-family="Arial,Arial_MSFontService,sans-serif" font-style="italic" font-variant="normal" font-weight="400" font-stretch="normal" font-size="101" text-anchor="start" direction="ltr" writing-mode="lr-tb" unicode-bidi="normal" text-decoration="none" transform="matrix(0.707107 -0.707107 0.707107 0.707107 8875.59 19152)">2035</text><text fill="#CED7DD" fill-opacity="1" font-family="Arial,Arial_MSFontService,sans-serif" font-style="italic" font-variant="normal" font-weight="400" font-stretch="normal" font-size="101" text-anchor="start" direction="ltr" writing-mode="lr-tb" unicode-bidi="normal" text-decoration="none" transform="matrix(0.707107 -0.707107 0.707107 0.707107 9209.56 19152)">2040</text><text fill="#CED7DD" fill-opacity="1" font-family="Arial,Arial_MSFontService,sans-serif" font-style="italic" font-variant="normal" font-weight="400" font-stretch="normal" font-size="101" text-anchor="start" direction="ltr" writing-mode="lr-tb" unicode-bidi="normal" text-decoration="none" transform="matrix(0.707107 -0.707107 0.707107 0.707107 9543.54 19152)">2045</text><path d="M8400.5 16494.5C8400.5 16506.1 8366.92 16515.5 8325.5 16515.5 8284.08 16515.5 8250.5 16506.1 8250.5 16494.5 8250.5 16482.9 8284.08 16473.5 8325.5 16473.5 8366.92 16473.5 8400.5 16482.9 8400.5 16494.5Z" stroke="#000000" stroke-width="5.04167" stroke-linecap="butt" stroke-linejoin="miter" stroke-miterlimit="8" stroke-opacity="1" fill="#7A6FAC" fill-rule="evenodd" fill-opacity="1"/><path d="M8379.07 16547.5C8375.86 16547.5 8373.71 16545.4 8373.71 16542.2 8373.71 16539.1 8375.86 16537 8379.07 16537 8382.29 16537 8384.43 16539.1 8384.43 16542.2 8384.43 16545.4 8382.29 16547.5 8379.07 16547.5ZM8325.5 16526.5C8284.25 16526.5 8250.5 16517.1 8250.5 16505.5L8250.5 16547.5C8250.5 16559.1 8284.25 16568.5 8325.5 16568.5 8366.75 16568.5 8400.5 16559.1 8400.5 16547.5L8400.5 16505.5C8400.5 16517.1 8366.75 16526.5 8325.5 16526.5Z" stroke="#000000" stroke-width="5.04167" stroke-linecap="butt" stroke-linejoin="miter" stroke-miterlimit="8" stroke-opacity="1" fill="#7A6FAC" fill-rule="evenodd" fill-opacity="1"/><path d="M8379.07 16600.5C8375.86 16600.5 8373.71 16598.4 8373.71 16595.2 8373.71 16592.1 8375.86 16590 8379.07 16590 8382.29 16590 8384.43 16592.1 8384.43 16595.2 8384.43 16598.4 8382.29 16600.5 8379.07 16600.5ZM8325.5 16579.5C8284.25 16579.5 8250.5 16570.1 8250.5 16558.5L8250.5 16600.5C8250.5 16612.1 8284.25 16621.5 8325.5 16621.5 8366.75 16621.5 8400.5 16612.1 8400.5 16600.5L8400.5 16558.5C8400.5 16570.1 8366.75 16579.5 8325.5 16579.5Z" stroke="#000000" stroke-width="5.04167" stroke-linecap="butt" stroke-linejoin="miter" stroke-miterlimit="8" stroke-opacity="1" fill="#F7A800" fill-rule="evenodd" fill-opacity="1"/><path d="M8379.07 16652.5C8375.86 16652.5 8373.71 16650.4 8373.71 16647.2 8373.71 16644.1 8375.86 16642 8379.07 16642 8382.29 16642 8384.43 16644.1 8384.43 16647.2 8384.43 16650.4 8382.29 16652.5 8379.07 16652.5ZM8325.5 16631.5C8284.25 16631.5 8250.5 16622.1 8250.5 16610.5L8250.5 16652.5C8250.5 16664.1 8284.25 16673.5 8325.5 16673.5 8366.75 16673.5 8400.5 16664.1 8400.5 16652.5L8400.5 16610.5C8400.5 16622.1 8366.75 16631.5 8325.5 16631.5Z" stroke="#000000" stroke-width="5.04167" stroke-linecap="butt" stroke-linejoin="miter" stroke-miterlimit="8" stroke-opacity="1" fill="#58AB27" fill-rule="evenodd" fill-opacity="1"/><path d="M8736.5 16494.5C8736.5 16506.1 8702.92 16515.5 8661.5 16515.5 8620.08 16515.5 8586.5 16506.1 8586.5 16494.5 8586.5 16482.9 8620.08 16473.5 8661.5 16473.5 8702.92 16473.5 8736.5 16482.9 8736.5 16494.5Z" stroke="#000000" stroke-width="5.04167" stroke-linecap="butt" stroke-linejoin="miter" stroke-miterlimit="8" stroke-opacity="1" fill="#8478BE" fill-rule="evenodd" fill-opacity="1"/><path d="M8715.07 16547.5C8711.86 16547.5 8709.71 16545.4 8709.71 16542.2 8709.71 16539.1 8711.86 16537 8715.07 16537 8718.29 16537 8720.43 16539.1 8720.43 16542.2 8720.43 16545.4 8718.29 16547.5 8715.07 16547.5ZM8661.5 16526.5C8620.25 16526.5 8586.5 16517.1 8586.5 16505.5L8586.5 16547.5C8586.5 16559.1 8620.25 16568.5 8661.5 16568.5 8702.75 16568.5 8736.5 16559.1 8736.5 16547.5L8736.5 16505.5C8736.5 16517.1 8702.75 16526.5 8661.5 16526.5Z" stroke="#000000" stroke-width="5.04167" stroke-linecap="butt" stroke-linejoin="miter" stroke-miterlimit="8" stroke-opacity="1" fill="#8478BE" fill-rule="evenodd" fill-opacity="1"/><path d="M8715.07 16600.5C8711.86 16600.5 8709.71 16598.4 8709.71 16595.2 8709.71 16592.1 8711.86 16590 8715.07 16590 8718.29 16590 8720.43 16592.1 8720.43 16595.2 8720.43 16598.4 8718.29 16600.5 8715.07 16600.5ZM8661.5 16579.5C8620.25 16579.5 8586.5 16570.1 8586.5 16558.5L8586.5 16600.5C8586.5 16612.1 8620.25 16621.5 8661.5 16621.5 8702.75 16621.5 8736.5 16612.1 8736.5 16600.5L8736.5 16558.5C8736.5 16570.1 8702.75 16579.5 8661.5 16579.5Z" stroke="#000000" stroke-width="5.04167" stroke-linecap="butt" stroke-linejoin="miter" stroke-miterlimit="8" stroke-opacity="1" fill="#FABE4F" fill-rule="evenodd" fill-opacity="1"/><path d="M8715.07 16652.5C8711.86 16652.5 8709.71 16650.4 8709.71 16647.2 8709.71 16644.1 8711.86 16642 8715.07 16642 8718.29 16642 8720.43 16644.1 8720.43 16647.2 8720.43 16650.4 8718.29 16652.5 8715.07 16652.5ZM8661.5 16631.5C8620.25 16631.5 8586.5 16622.1 8586.5 16610.5L8586.5 16652.5C8586.5 16664.1 8620.25 16673.5 8661.5 16673.5 8702.75 16673.5 8736.5 16664.1 8736.5 16652.5L8736.5 16610.5C8736.5 16622.1 8702.75 16631.5 8661.5 16631.5Z" stroke="#000000" stroke-width="5.04167" stroke-linecap="butt" stroke-linejoin="miter" stroke-miterlimit="8" stroke-opacity="1" fill="#88BA5E" fill-rule="evenodd" fill-opacity="1"/><path d="M9071.5 16494.5C9071.5 16506.1 9038.15 16515.5 8997 16515.5 8955.85 16515.5 8922.5 16506.1 8922.5 16494.5 8922.5 16482.9 8955.85 16473.5 8997 16473.5 9038.15 16473.5 9071.5 16482.9 9071.5 16494.5Z" stroke="#000000" stroke-width="5.04167" stroke-linecap="butt" stroke-linejoin="miter" stroke-miterlimit="8" stroke-opacity="1" fill="#938BBB" fill-rule="evenodd" fill-opacity="1"/><path d="M9050.21 16547.5C9047.02 16547.5 9044.89 16545.4 9044.89 16542.2 9044.89 16539.1 9047.02 16537 9050.21 16537 9053.41 16537 9055.54 16539.1 9055.54 16542.2 9055.54 16545.4 9053.41 16547.5 9050.21 16547.5ZM8997 16526.5C8956.03 16526.5 8922.5 16517.1 8922.5 16505.5L8922.5 16547.5C8922.5 16559.1 8956.03 16568.5 8997 16568.5 9037.98 16568.5 9071.5 16559.1 9071.5 16547.5L9071.5 16505.5C9071.5 16517.1 9037.98 16526.5 8997 16526.5Z" stroke="#000000" stroke-width="5.04167" stroke-linecap="butt" stroke-linejoin="miter" stroke-miterlimit="8" stroke-opacity="1" fill="#938BBB" fill-rule="evenodd" fill-opacity="1"/><path d="M9050.21 16600.5C9047.02 16600.5 9044.89 16598.4 9044.89 16595.2 9044.89 16592.1 9047.02 16590 9050.21 16590 9053.41 16590 9055.54 16592.1 9055.54 16595.2 9055.54 16598.4 9053.41 16600.5 9050.21 16600.5ZM8997 16579.5C8956.03 16579.5 8922.5 16570.1 8922.5 16558.5L8922.5 16600.5C8922.5 16612.1 8956.03 16621.5 8997 16621.5 9037.98 16621.5 9071.5 16612.1 9071.5 16600.5L9071.5 16558.5C9071.5 16570.1 9037.98 16579.5 8997 16579.5Z" stroke="#000000" stroke-width="5.04167" stroke-linecap="butt" stroke-linejoin="miter" stroke-miterlimit="8" stroke-opacity="1" fill="#FFC553" fill-rule="evenodd" fill-opacity="1"/><path d="M9050.21 16652.5C9047.02 16652.5 9044.89 16650.4 9044.89 16647.2 9044.89 16644.1 9047.02 16642 9050.21 16642 9053.41 16642 9055.54 16644.1 9055.54 16647.2 9055.54 16650.4 9053.41 16652.5 9050.21 16652.5ZM8997 16631.5C8956.03 16631.5 8922.5 16622.1 8922.5 16610.5L8922.5 16652.5C8922.5 16664.1 8956.03 16673.5 8997 16673.5 9037.98 16673.5 9071.5 16664.1 9071.5 16652.5L9071.5 16610.5C9071.5 16622.1 9037.98 16631.5 8997 16631.5Z" stroke="#000000" stroke-width="5.04167" stroke-linecap="butt" stroke-linejoin="miter" stroke-miterlimit="8" stroke-opacity="1" fill="#8DC05F" fill-rule="evenodd" fill-opacity="1"/><path d="M9407.5 16494.5C9407.5 16506.1 9373.92 16515.5 9332.5 16515.5 9291.08 16515.5 9257.5 16506.1 9257.5 16494.5 9257.5 16482.9 9291.08 16473.5 9332.5 16473.5 9373.92 16473.5 9407.5 16482.9 9407.5 16494.5Z" stroke="#000000" stroke-width="5.04167" stroke-linecap="butt" stroke-linejoin="miter" stroke-miterlimit="8" stroke-opacity="1" fill="#9B91C2" fill-rule="evenodd" fill-opacity="1"/><path d="M9386.07 16547.5C9382.86 16547.5 9380.71 16545.4 9380.71 16542.2 9380.71 16539.1 9382.86 16537 9386.07 16537 9389.29 16537 9391.43 16539.1 9391.43 16542.2 9391.43 16545.4 9389.29 16547.5 9386.07 16547.5ZM9332.5 16526.5C9291.25 16526.5 9257.5 16517.1 9257.5 16505.5L9257.5 16547.5C9257.5 16559.1 9291.25 16568.5 9332.5 16568.5 9373.75 16568.5 9407.5 16559.1 9407.5 16547.5L9407.5 16505.5C9407.5 16517.1 9373.75 16526.5 9332.5 16526.5Z" stroke="#000000" stroke-width="5.04167" stroke-linecap="butt" stroke-linejoin="miter" stroke-miterlimit="8" stroke-opacity="1" fill="#9B91C2" fill-rule="evenodd" fill-opacity="1"/><path d="M9386.07 16600.5C9382.86 16600.5 9380.71 16598.4 9380.71 16595.2 9380.71 16592.1 9382.86 16590 9386.07 16590 9389.29 16590 9391.43 16592.1 9391.43 16595.2 9391.43 16598.4 9389.29 16600.5 9386.07 16600.5ZM9332.5 16579.5C9291.25 16579.5 9257.5 16570.1 9257.5 16558.5L9257.5 16600.5C9257.5 16612.1 9291.25 16621.5 9332.5 16621.5 9373.75 16621.5 9407.5 16612.1 9407.5 16600.5L9407.5 16558.5C9407.5 16570.1 9373.75 16579.5 9332.5 16579.5Z" stroke="#000000" stroke-width="5.04167" stroke-linecap="butt" stroke-linejoin="miter" stroke-miterlimit="8" stroke-opacity="1" fill="#F4CC8B" fill-rule="evenodd" fill-opacity="1"/><path d="M9386.07 16652.5C9382.86 16652.5 9380.71 16650.4 9380.71 16647.2 9380.71 16644.1 9382.86 16642 9386.07 16642 9389.29 16642 9391.43 16644.1 9391.43 16647.2 9391.43 16650.4 9389.29 16652.5 9386.07 16652.5ZM9332.5 16631.5C9291.25 16631.5 9257.5 16622.1 9257.5 16610.5L9257.5 16652.5C9257.5 16664.1 9291.25 16673.5 9332.5 16673.5 9373.75 16673.5 9407.5 16664.1 9407.5 16652.5L9407.5 16610.5C9407.5 16622.1 9373.75 16631.5 9332.5 16631.5Z" stroke="#000000" stroke-width="5.04167" stroke-linecap="butt" stroke-linejoin="miter" stroke-miterlimit="8" stroke-opacity="1" fill="#A5CB82" fill-rule="evenodd" fill-opacity="1"/><path d="M9743.5 16494.5C9743.5 16506.1 9709.92 16515.5 9668.5 16515.5 9627.08 16515.5 9593.5 16506.1 9593.5 16494.5 9593.5 16482.9 9627.08 16473.5 9668.5 16473.5 9709.92 16473.5 9743.5 16482.9 9743.5 16494.5Z" stroke="#000000" stroke-width="5.04167" stroke-linecap="butt" stroke-linejoin="miter" stroke-miterlimit="8" stroke-opacity="1" fill="#B4A8E1" fill-rule="evenodd" fill-opacity="1"/><path d="M9722.07 16547.5C9718.86 16547.5 9716.71 16545.4 9716.71 16542.2 9716.71 16539.1 9718.86 16537 9722.07 16537 9725.29 16537 9727.43 16539.1 9727.43 16542.2 9727.43 16545.4 9725.29 16547.5 9722.07 16547.5ZM9668.5 16526.5C9627.25 16526.5 9593.5 16517.1 9593.5 16505.5L9593.5 16547.5C9593.5 16559.1 9627.25 16568.5 9668.5 16568.5 9709.75 16568.5 9743.5 16559.1 9743.5 16547.5L9743.5 16505.5C9743.5 16517.1 9709.75 16526.5 9668.5 16526.5Z" stroke="#000000" stroke-width="5.04167" stroke-linecap="butt" stroke-linejoin="miter" stroke-miterlimit="8" stroke-opacity="1" fill="#B4A8E1" fill-rule="evenodd" fill-opacity="1"/><path d="M9722.07 16600.5C9718.86 16600.5 9716.71 16598.4 9716.71 16595.2 9716.71 16592.1 9718.86 16590 9722.07 16590 9725.29 16590 9727.43 16592.1 9727.43 16595.2 9727.43 16598.4 9725.29 16600.5 9722.07 16600.5ZM9668.5 16579.5C9627.25 16579.5 9593.5 16570.1 9593.5 16558.5L9593.5 16600.5C9593.5 16612.1 9627.25 16621.5 9668.5 16621.5 9709.75 16621.5 9743.5 16612.1 9743.5 16600.5L9743.5 16558.5C9743.5 16570.1 9709.75 16579.5 9668.5 16579.5Z" stroke="#000000" stroke-width="5.04167" stroke-linecap="butt" stroke-linejoin="miter" stroke-miterlimit="8" stroke-opacity="1" fill="#FED48F" fill-rule="evenodd" fill-opacity="1"/><path d="M9722.07 16652.5C9718.86 16652.5 9716.71 16650.4 9716.71 16647.2 9716.71 16644.1 9718.86 16642 9722.07 16642 9725.29 16642 9727.43 16644.1 9727.43 16647.2 9727.43 16650.4 9725.29 16652.5 9722.07 16652.5ZM9668.5 16631.5C9627.25 16631.5 9593.5 16622.1 9593.5 16610.5L9593.5 16652.5C9593.5 16664.1 9627.25 16673.5 9668.5 16673.5 9709.75 16673.5 9743.5 16664.1 9743.5 16652.5L9743.5 16610.5C9743.5 16622.1 9709.75 16631.5 9668.5 16631.5Z" stroke="#000000" stroke-width="5.04167" stroke-linecap="butt" stroke-linejoin="miter" stroke-miterlimit="8" stroke-opacity="1" fill="#C4E3A6" fill-rule="evenodd" fill-opacity="1"/><text fill="#CED7DD" fill-opacity="1" font-family="Arial,Arial_MSFontService,sans-serif" font-style="italic" font-variant="normal" font-weight="400" font-stretch="normal" font-size="101" text-anchor="start" direction="ltr" writing-mode="lr-tb" unicode-bidi="normal" text-decoration="none" transform="matrix(1 0 0 1 8230.59 16796)">2025</text><text fill="#CED7DD" fill-opacity="1" font-family="Arial,Arial_MSFontService,sans-serif" font-style="italic" font-variant="normal" font-weight="400" font-stretch="normal" font-size="101" text-anchor="start" direction="ltr" writing-mode="lr-tb" unicode-bidi="normal" text-decoration="none" transform="matrix(1 0 0 1 8567.38 16796)">2030</text><text fill="#CED7DD" fill-opacity="1" font-family="Arial,Arial_MSFontService,sans-serif" font-style="italic" font-variant="normal" font-weight="400" font-stretch="normal" font-size="101" text-anchor="start" direction="ltr" writing-mode="lr-tb" unicode-bidi="normal" text-decoration="none" transform="matrix(1 0 0 1 8904.16 16796)">2035</text><text fill="#CED7DD" fill-opacity="1" font-family="Arial,Arial_MSFontService,sans-serif" font-style="italic" font-variant="normal" font-weight="400" font-stretch="normal" font-size="101" text-anchor="start" direction="ltr" writing-mode="lr-tb" unicode-bidi="normal" text-decoration="none" transform="matrix(1 0 0 1 9240.94 16796)">2040</text><text fill="#CED7DD" fill-opacity="1" font-family="Arial,Arial_MSFontService,sans-serif" font-style="italic" font-variant="normal" font-weight="400" font-stretch="normal" font-size="101" text-anchor="start" direction="ltr" writing-mode="lr-tb" unicode-bidi="normal" text-decoration="none" transform="matrix(1 0 0 1 9577.73 16796)">2045</text><rect x="9554" y="17551" width="210" height="172" stroke="#BCB5D7" stroke-width="10.0833" stroke-linecap="butt" stroke-linejoin="round" stroke-miterlimit="10" stroke-opacity="1" fill="#BCB5D7" fill-opacity="1"/><text fill="#14181D" fill-opacity="1" font-family="Arial,Arial_MSFontService,sans-serif" font-style="normal" font-variant="normal" font-weight="400" font-stretch="normal" font-size="73" text-anchor="start" direction="ltr" writing-mode="lr-tb" unicode-bidi="normal" text-decoration="none" transform="matrix(6.12323e-17 -1 1 6.12323e-17 9686.02 17702)">EoL</text><path d="M8334.04 16870 8334.04 18356.1C8334.04 18358.9 8331.79 18361.1 8329 18361.1 8326.22 18361.1 8323.96 18358.9 8323.96 18356.1L8323.96 16870C8323.96 16867.2 8326.22 16865 8329 16865 8331.78 16865 8334.04 16867.2 8334.04 16870ZM8351 18328.4 8329 18366.1 8307 18328.4C8305.6 18326 8306.41 18322.9 8308.81 18321.5 8311.22 18320.1 8314.31 18320.9 8315.71 18323.3L8333.36 18353.5 8324.65 18353.5 8342.29 18323.3C8343.69 18320.9 8346.78 18320.1 8349.19 18321.5 8351.59 18322.9 8352.4 18326 8351 18328.4Z" fill="#CED7DD" fill-rule="nonzero" fill-opacity="1"/><path d="M8665.04 16870 8665.04 18039.8C8665.04 18042.6 8662.79 18044.9 8660 18044.9 8657.22 18044.9 8654.96 18042.6 8654.96 18039.8L8654.96 16870C8654.96 16867.2 8657.22 16865 8660 16865 8662.78 16865 8665.04 16867.2 8665.04 16870ZM8682 18012.1 8660 18049.8 8638 18012.1C8636.6 18009.7 8637.41 18006.6 8639.81 18005.2 8642.22 18003.8 8645.31 18004.6 8646.71 18007L8664.36 18037.3 8655.65 18037.3 8673.29 18007C8674.69 18004.6 8677.78 18003.8 8680.19 18005.2 8682.59 18006.6 8683.4 18009.7 8682 18012.1Z" fill="#CED7DD" fill-rule="nonzero" fill-opacity="1"/><path d="M8998.04 16870 8998.04 17815.2C8998.04 17818 8995.79 17820.3 8993 17820.3 8990.22 17820.3 8987.96 17818 8987.96 17815.2L8987.96 16870C8987.96 16867.2 8990.22 16865 8993 16865 8995.78 16865 8998.04 16867.2 8998.04 16870ZM9015 17787.5 8993 17825.2 8971 17787.5C8969.6 17785.1 8970.41 17782 8972.81 17780.6 8975.22 17779.2 8978.31 17780 8979.71 17782.5L8997.36 17812.7 8988.65 17812.7 9006.29 17782.5C9007.69 17780 9010.78 17779.2 9013.19 17780.6 9015.59 17782 9016.4 17785.1 9015 17787.5Z" fill="#CED7DD" fill-rule="nonzero" fill-opacity="1"/><path d="M9330.04 16870 9330.04 17683C9330.04 17685.8 9327.79 17688 9325 17688 9322.22 17688 9319.96 17685.8 9319.96 17683L9319.96 16870C9319.96 16867.2 9322.22 16865 9325 16865 9327.78 16865 9330.04 16867.2 9330.04 16870ZM9347 17655.3 9325 17693 9303 17655.3C9301.6 17652.9 9302.41 17649.8 9304.81 17648.4 9307.22 17647 9310.31 17647.8 9311.71 17650.2L9329.36 17680.4 9320.65 17680.4 9338.29 17650.2C9339.69 17647.8 9342.78 17647 9345.19 17648.4 9347.59 17649.8 9348.4 17652.9 9347 17655.3Z" fill="#CED7DD" fill-rule="nonzero" fill-opacity="1"/><path d="M9662.04 16870 9662.04 17511.2C9662.04 17514 9659.79 17516.3 9657 17516.3 9654.22 17516.3 9651.96 17514 9651.96 17511.2L9651.96 16870C9651.96 16867.2 9654.22 16865 9657 16865 9659.78 16865 9662.04 16867.2 9662.04 16870ZM9679 17483.5 9657 17521.2 9635 17483.5C9633.6 17481.1 9634.41 17478 9636.81 17476.6 9639.22 17475.2 9642.31 17476 9643.71 17478.4L9661.36 17508.7 9652.65 17508.7 9670.29 17478.4C9671.69 17476 9674.78 17475.2 9677.19 17476.6 9679.59 17478 9680.4 17481.1 9679 17483.5Z" fill="#CED7DD" fill-rule="nonzero" fill-opacity="1"/><path d="M4618 17560C4618 17444.6 4711.57 17351 4827 17351 4942.43 17351 5036 17444.6 5036 17560 5036 17675.4 4942.43 17769 4827 17769 4711.57 17769 4618 17675.4 4618 17560Z" fill="#3FB0C4" fill-rule="evenodd" fill-opacity="1"/><text fill="#000000" fill-opacity="1" font-family="Arial,Arial_MSFontService,sans-serif" font-style="normal" font-variant="normal" font-weight="400" font-stretch="normal" font-size="376" text-anchor="start" direction="ltr" writing-mode="lr-tb" unicode-bidi="normal" text-decoration="none" transform="matrix(1 0 0 1 4716.85 17700)">+</text><path d="M7361 17464 7564 17464 7564 17368 7756 17560 7564 17752 7564 17656 7361 17656Z" fill="#3FB0C4" fill-rule="evenodd" fill-opacity="1"/><path d="M4193.04 16841 4193.04 17920.9C4193.04 17923.7 4190.78 17926 4188 17926 4185.22 17926 4182.96 17923.7 4182.96 17920.9L4182.96 16841C4182.96 16838.2 4185.22 16836 4188 16836 4190.78 16836 4193.04 16838.2 4193.04 16841ZM4210 17893.2 4188 17930.9 4166 17893.2C4164.6 17890.8 4165.41 17887.7 4167.81 17886.3 4170.22 17884.9 4173.31 17885.7 4174.71 17888.1L4192.36 17918.4 4183.65 17918.4 4201.29 17888.1C4202.69 17885.7 4205.78 17884.9 4208.19 17886.3 4210.59 17887.7 4211.4 17890.8 4210 17893.2Z" fill="#CED7DD" fill-rule="nonzero" fill-opacity="1"/><path d="M561.09 194.355 569.59 213.103 577.914 232.638 586.007 252.831 593.868 273.665 601.494 295.123 608.881 317.185 616.028 339.835 622.931 363.054 629.587 386.825 635.995 411.13 642.15 435.951 648.05 461.271 653.692 487.07 659.073 513.332 664.19 540.039 669.04 567.172 673.62 594.714 677.926 622.646 685.704 679.583 692.358 737.895 697.857 797.41 702.177 857.983 705.295 919.472 707.184 981.73 707.74 1036.75C707.768 1039.53 705.534 1041.81 702.75 1041.84 699.965 1041.87 697.685 1039.64 697.657 1036.85L697.105 982.036 695.224 919.982 692.12 858.701 687.816 798.337 682.339 739.038 675.714 680.947 667.961 624.182 663.673 596.368 659.114 568.946 654.287 541.936 649.195 515.356 643.842 489.224 638.23 463.559 632.363 438.378 626.245 413.7 619.878 389.544 613.265 365.927 606.412 342.868 599.319 320.386 591.992 298.499 584.434 277.225 576.647 256.582 568.637 236.59 560.406 217.266 551.906 198.519C550.757 195.983 551.88 192.995 554.417 191.845 556.952 190.695 559.94 191.819 561.09 194.355ZM731.506 1009.49 702.778 1044.68 673.346 1010.07C671.542 1007.95 671.799 1004.77 673.92 1002.97 676.041 1001.16 679.223 1001.42 681.027 1003.54L706.539 1033.53 698.793 1033.61 723.695 1003.11C725.456 1000.95 728.632 1000.63 730.789 1002.39 732.946 1004.15 733.267 1007.33 731.506 1009.49Z" fill="#CED7DD" fill-rule="nonzero" fill-opacity="1" transform="matrix(-0.767886 0.640586 0.640586 0.767886 5926.95 16332.2)"/></g></g></svg>