<svg xmlns="http://www.w3.org/2000/svg" viewBox="0 0 7696 3483"><g transform="translate(-2383 -19584)"><g><path d="M7867.5 20078.2C7867.5 19913.3 8001.25 19779.5 8166.25 19779.5L9771.75 19779.5C9936.75 19779.5 10070.5 19913.3 10070.5 20078.2L10070.5 22753.8C10070.5 22918.7 9936.75 23052.5 9771.75 23052.5L8166.25 23052.5C8001.25 23052.5 7867.5 22918.7 7867.5 22753.8Z" stroke="#3FB0C4" stroke-width="20.625" stroke-linecap="butt" stroke-linejoin="round" stroke-miterlimit="10" stroke-opacity="1" fill="#FFFFFF" fill-rule="evenodd" fill-opacity="1"/><path d="M8246 19697.7C8246 19639.3 8293.34 19592 8351.73 19592L9585.27 19592C9643.66 19592 9691 19639.3 9691 19697.7L9691 19869.3C9691 19927.7 9643.66 19975 9585.27 19975L8351.73 19975C8293.34 19975 8246 19927.7 8246 19869.3Z" fill="#3FB0C4" fill-rule="evenodd" fill-opacity="1"/><text fill="#FFFFFF" fill-opacity="1" font-family="Arial,Arial_MSFontService,sans-serif" font-style="normal" font-variant="normal" font-weight="400" font-stretch="normal" font-size="220" text-anchor="start" direction="ltr" writing-mode="lr-tb" unicode-bidi="normal" text-decoration="none" transform="matrix(1 0 0 1 8387.54 19865)">time</text><text fill="#FFFFFF" fill-opacity="1" font-family="Arial,Arial_MSFontService,sans-serif" font-style="normal" font-variant="normal" font-weight="400" font-stretch="normal" font-size="220" text-anchor="start" direction="ltr" writing-mode="lr-tb" unicode-bidi="normal" text-decoration="none" transform="matrix(1 0 0 1 8803.48 19865)">-</text><text fill="#FFFFFF" fill-opacity="1" font-family="Arial,Arial_MSFontService,sans-serif" font-style="normal" font-variant="normal" font-weight="400" font-stretch="normal" font-size="220" text-anchor="start" direction="ltr" writing-mode="lr-tb" unicode-bidi="normal" text-decoration="none" transform="matrix(1 0 0 1 8876.81 19865)">explicit</text><path d="M5131.5 20078.2C5131.5 19913.3 5265.25 19779.5 5430.25 19779.5L7035.75 19779.5C7200.75 19779.5 7334.5 19913.3 7334.5 20078.2L7334.5 22753.8C7334.5 22918.7 7200.75 23052.5 7035.75 23052.5L5430.25 23052.5C5265.25 23052.5 5131.5 22918.7 5131.5 22753.8Z" stroke="#3FB0C4" stroke-width="20.625" stroke-linecap="butt" stroke-linejoin="round" stroke-miterlimit="10" stroke-opacity="1" fill="#FFFFFF" fill-rule="evenodd" fill-opacity="1"/><path d="M5510 19697.7C5510 19639.3 5557.34 19592 5615.73 19592L6849.27 19592C6907.66 19592 6955 19639.3 6955 19697.7L6955 19869.3C6955 19927.7 6907.66 19975 6849.27 19975L5615.73 19975C5557.34 19975 5510 19927.7 5510 19869.3Z" fill="#3FB0C4" fill-rule="evenodd" fill-opacity="1"/><text fill="#FFFFFF" fill-opacity="1" font-family="Arial,Arial_MSFontService,sans-serif" font-style="normal" font-variant="normal" font-weight="400" font-stretch="normal" font-size="220" text-anchor="start" direction="ltr" writing-mode="lr-tb" unicode-bidi="normal" text-decoration="none" transform="matrix(1 0 0 1 5822.53 19865)">dynamic</text><path d="M2396.5 20078.2C2396.5 19913.3 2530.25 19779.5 2695.25 19779.5L4300.75 19779.5C4465.75 19779.5 4599.5 19913.3 4599.5 20078.2L4599.5 22753.8C4599.5 22918.7 4465.75 23052.5 4300.75 23052.5L2695.25 23052.5C2530.25 23052.5 2396.5 22918.7 2396.5 22753.8Z" stroke="#3FB0C4" stroke-width="20.625" stroke-linecap="butt" stroke-linejoin="round" stroke-miterlimit="10" stroke-opacity="1" fill="#FFFFFF" fill-rule="evenodd" fill-opacity="1"/><path d="M2775 19697.7C2775 19639.3 2822.34 19592 2880.73 19592L4114.27 19592C4172.66 19592 4220 19639.3 4220 19697.7L4220 19869.3C4220 19927.7 4172.66 19975 4114.27 19975L2880.73 19975C2822.34 19975 2775 19927.7 2775 19869.3Z" fill="#3FB0C4" fill-rule="evenodd" fill-opacity="1"/><text fill="#FFFFFF" fill-opacity="1" font-family="Arial,Arial_MSFontService,sans-serif" font-style="normal" font-variant="normal" font-weight="400" font-stretch="normal" font-size="220" text-anchor="start" direction="ltr" writing-mode="lr-tb" unicode-bidi="normal" text-decoration="none" transform="matrix(1 0 0 1 2934.42 19865)">prospective</text><path d="M6078 21832 6241.74 21832" stroke="#7F7F7F" stroke-width="10.0833" stroke-linecap="butt" stroke-linejoin="round" stroke-miterlimit="10" stroke-dasharray="40.3333 30.25" stroke-opacity="1" fill="none" fill-rule="evenodd"/><path d="M6408 21479 6571.74 21479" stroke="#7F7F7F" stroke-width="10.0833" stroke-linecap="butt" stroke-linejoin="round" stroke-miterlimit="10" stroke-dasharray="40.3333 30.25" stroke-opacity="1" fill="none" fill-rule="evenodd"/><path d="M6724 21126 6887.74 21126" stroke="#7F7F7F" stroke-width="10.0833" stroke-linecap="butt" stroke-linejoin="round" stroke-miterlimit="10" stroke-dasharray="40.3333 30.25" stroke-opacity="1" fill="none" fill-rule="evenodd"/><path d="M5745 22186 5908.74 22186" stroke="#7F7F7F" stroke-width="10.0833" stroke-linecap="butt" stroke-linejoin="round" stroke-miterlimit="10" stroke-dasharray="40.3333 30.25" stroke-opacity="1" fill="none" fill-rule="evenodd"/><rect x="5863" y="21832" width="210" height="353" stroke="#14181D" stroke-width="10.0833" stroke-linecap="butt" stroke-linejoin="round" stroke-miterlimit="10" stroke-opacity="1" fill="#F6A800" fill-opacity="1"/><text fill="#14181D" fill-opacity="1" font-family="Arial,Arial_MSFontService,sans-serif" font-style="normal" font-variant="normal" font-weight="400" font-stretch="normal" font-size="110" text-anchor="start" direction="ltr" writing-mode="lr-tb" unicode-bidi="normal" text-decoration="none" transform="matrix(6.12323e-17 -1 1 6.12323e-17 6008.86 22106)">Use</text><rect x="6197" y="21479" width="210" height="353" stroke="#14181D" stroke-width="10.0833" stroke-linecap="butt" stroke-linejoin="round" stroke-miterlimit="10" stroke-opacity="1" fill="#F6A800" fill-opacity="1"/><text fill="#14181D" fill-opacity="1" font-family="Arial,Arial_MSFontService,sans-serif" font-style="normal" font-variant="normal" font-weight="400" font-stretch="normal" font-size="110" text-anchor="start" direction="ltr" writing-mode="lr-tb" unicode-bidi="normal" text-decoration="none" transform="matrix(6.12323e-17 -1 1 6.12323e-17 6342.72 21753)">Use</text><rect x="6529" y="21126" width="210" height="353" stroke="#14181D" stroke-width="10.0833" stroke-linecap="butt" stroke-linejoin="round" stroke-miterlimit="10" stroke-opacity="1" fill="#F6A800" fill-opacity="1"/><text fill="#14181D" fill-opacity="1" font-family="Arial,Arial_MSFontService,sans-serif" font-style="normal" font-variant="normal" font-weight="400" font-stretch="normal" font-size="110" text-anchor="start" direction="ltr" writing-mode="lr-tb" unicode-bidi="normal" text-decoration="none" transform="matrix(6.12323e-17 -1 1 6.12323e-17 6674.75 21400)">Use</text><rect x="6861" y="20865" width="210" height="261" stroke="#14181D" stroke-width="10.0833" stroke-linecap="butt" stroke-linejoin="round" stroke-miterlimit="10" stroke-opacity="1" fill="#7A6FAC" fill-opacity="1"/><text fill="#14181D" fill-opacity="1" font-family="Arial,Arial_MSFontService,sans-serif" font-style="normal" font-variant="normal" font-weight="400" font-stretch="normal" font-size="110" text-anchor="start" direction="ltr" writing-mode="lr-tb" unicode-bidi="normal" text-decoration="none" transform="matrix(6.12323e-17 -1 1 6.12323e-17 7006.77 21094)">EoL</text><path d="M5516.99 22111.6C5503.85 22098.6 5507.57 22073.5 5525.29 22055.6L6111.94 21463.2C6129.67 21445.3 6133.38 21420.3 6120.24 21407.2 6133.38 21420.3 6158.41 21416.3 6176.13 21398.4L6762.78 20806C6780.5 20788.1 6805.53 20784.2 6818.67 20797.2" stroke="#14181D" stroke-width="10.0833" stroke-linecap="round" stroke-linejoin="round" stroke-miterlimit="10" stroke-opacity="1" fill="none" fill-rule="evenodd"/><path d="M5637.5 22653.5 5637.5 22692.5" stroke="#14181D" stroke-width="11.3436" stroke-linecap="round" stroke-linejoin="round" stroke-miterlimit="10" stroke-opacity="1" fill="none" fill-rule="evenodd"/><path d="M6966.5 22653.5 6966.5 22692.5" stroke="#14181D" stroke-width="11.3436" stroke-linecap="round" stroke-linejoin="round" stroke-miterlimit="10" stroke-opacity="1" fill="none" fill-rule="evenodd"/><rect x="5532" y="22185" width="210" height="467" stroke="#14181D" stroke-width="10.0833" stroke-linecap="butt" stroke-linejoin="round" stroke-miterlimit="10" stroke-opacity="1" fill="#58AB27" fill-opacity="1"/><text fill="#14181D" fill-opacity="1" font-family="Arial,Arial_MSFontService,sans-serif" font-style="normal" font-variant="normal" font-weight="400" font-stretch="normal" font-size="110" text-anchor="start" direction="ltr" writing-mode="lr-tb" unicode-bidi="normal" text-decoration="none" transform="matrix(6.12323e-17 -1 1 6.12323e-17 5677.82 22593)">Constr.</text><path d="M5400 22647 7200.04 22647 7200.04 22657 5400 22657ZM7172.33 22630 7210.05 22652 7172.33 22674C7169.93 22675.4 7166.84 22674.6 7165.44 22672.2 7164.03 22669.8 7164.85 22666.7 7167.25 22665.3L7197.5 22647.6 7197.5 22656.4 7167.25 22638.7C7164.85 22637.3 7164.03 22634.2 7165.44 22631.8 7166.84 22629.4 7169.93 22628.6 7172.33 22630Z" fill="#14181D" fill-rule="nonzero" fill-opacity="1"/><path d="M5.04167-9.00545e-07 5.04203 2010.46-5.04131 2010.46-5.04167 9.00545e-07ZM22.0011 1982.75 0.00036049 2020.46-22.0004 1982.75-22.0004 1982.75C-23.4034 1980.34-22.591 1977.26-20.1858 1975.85-17.7807 1974.45-14.6936 1975.26-13.2906 1977.67L-13.2906 1977.67 4.35524 2007.92-4.35453 2007.92 13.2913 1977.67C14.6943 1975.26 17.7814 1974.45 20.1865 1975.85 22.5917 1977.26 23.4041 1980.34 22.0011 1982.75Z" fill="#14181D" fill-rule="nonzero" fill-opacity="1" transform="matrix(1 0 0 -1 5400 22656.4)"/><text fill="#14181D" fill-opacity="1" font-family="Arial,Arial_MSFontService,sans-serif" font-style="normal" font-variant="normal" font-weight="400" font-stretch="normal" font-size="110" text-anchor="start" direction="ltr" writing-mode="lr-tb" unicode-bidi="normal" text-decoration="none" transform="matrix(-1.83697e-16 -1 1 -1.83697e-16 5356.53 22196)">e</text><text fill="#14181D" fill-opacity="1" font-family="Arial,Arial_MSFontService,sans-serif" font-style="normal" font-variant="normal" font-weight="400" font-stretch="normal" font-size="110" text-anchor="start" direction="ltr" writing-mode="lr-tb" unicode-bidi="normal" text-decoration="none" transform="matrix(-1.83697e-16 -1 1 -1.83697e-16 5356.53 22135)">nvironmental impacts</text><path d="M5968.5 22653.5 5968.5 22692.5" stroke="#14181D" stroke-width="11.3436" stroke-linecap="round" stroke-linejoin="round" stroke-miterlimit="10" stroke-opacity="1" fill="none" fill-rule="evenodd"/><path d="M6302.5 22653.5 6302.5 22692.5" stroke="#14181D" stroke-width="11.3436" stroke-linecap="round" stroke-linejoin="round" stroke-miterlimit="10" stroke-opacity="1" fill="none" fill-rule="evenodd"/><path d="M6634.5 22653.5 6634.5 22692.5" stroke="#14181D" stroke-width="11.3436" stroke-linecap="round" stroke-linejoin="round" stroke-miterlimit="10" stroke-opacity="1" fill="none" fill-rule="evenodd"/><text fill="#14181D" fill-opacity="1" font-family="Arial,Arial_MSFontService,sans-serif" font-style="italic" font-variant="normal" font-weight="400" font-stretch="normal" font-size="101" text-anchor="start" direction="ltr" writing-mode="lr-tb" unicode-bidi="normal" text-decoration="none" transform="matrix(0.707107 -0.707107 0.707107 0.707107 5514.39 22947)">2025</text><text fill="#14181D" fill-opacity="1" font-family="Arial,Arial_MSFontService,sans-serif" font-style="italic" font-variant="normal" font-weight="400" font-stretch="normal" font-size="101" text-anchor="start" direction="ltr" writing-mode="lr-tb" unicode-bidi="normal" text-decoration="none" transform="matrix(0.707107 -0.707107 0.707107 0.707107 5848.36 22947)">2030</text><text fill="#14181D" fill-opacity="1" font-family="Arial,Arial_MSFontService,sans-serif" font-style="italic" font-variant="normal" font-weight="400" font-stretch="normal" font-size="101" text-anchor="start" direction="ltr" writing-mode="lr-tb" unicode-bidi="normal" text-decoration="none" transform="matrix(0.707107 -0.707107 0.707107 0.707107 6182.34 22947)">2035</text><text fill="#14181D" fill-opacity="1" font-family="Arial,Arial_MSFontService,sans-serif" font-style="italic" font-variant="normal" font-weight="400" font-stretch="normal" font-size="101" text-anchor="start" direction="ltr" writing-mode="lr-tb" unicode-bidi="normal" text-decoration="none" transform="matrix(0.707107 -0.707107 0.707107 0.707107 6516.32 22947)">2040</text><text fill="#14181D" fill-opacity="1" font-family="Arial,Arial_MSFontService,sans-serif" font-style="italic" font-variant="normal" font-weight="400" font-stretch="normal" font-size="101" text-anchor="start" direction="ltr" writing-mode="lr-tb" unicode-bidi="normal" text-decoration="none" transform="matrix(0.707107 -0.707107 0.707107 0.707107 6850.3 22947)">2045</text><path d="M5707.5 20289.5C5707.5 20301.1 5673.92 20310.5 5632.5 20310.5 5591.08 20310.5 5557.5 20301.1 5557.5 20289.5 5557.5 20277.9 5591.08 20268.5 5632.5 20268.5 5673.92 20268.5 5707.5 20277.9 5707.5 20289.5Z" stroke="#000000" stroke-width="5.04167" stroke-linecap="butt" stroke-linejoin="miter" stroke-miterlimit="8" stroke-opacity="1" fill="#7A6FAC" fill-rule="evenodd" fill-opacity="1"/><path d="M5686.07 20341.5C5682.86 20341.5 5680.71 20339.4 5680.71 20336.2 5680.71 20333.1 5682.86 20331 5686.07 20331 5689.29 20331 5691.43 20333.1 5691.43 20336.2 5691.43 20339.4 5689.29 20341.5 5686.07 20341.5ZM5632.5 20320.5C5591.25 20320.5 5557.5 20311.1 5557.5 20299.5L5557.5 20341.5C5557.5 20353.1 5591.25 20362.5 5632.5 20362.5 5673.75 20362.5 5707.5 20353.1 5707.5 20341.5L5707.5 20299.5C5707.5 20311.1 5673.75 20320.5 5632.5 20320.5Z" stroke="#000000" stroke-width="5.04167" stroke-linecap="butt" stroke-linejoin="miter" stroke-miterlimit="8" stroke-opacity="1" fill="#7A6FAC" fill-rule="evenodd" fill-opacity="1"/><path d="M5686.07 20394.5C5682.86 20394.5 5680.71 20392.4 5680.71 20389.2 5680.71 20386.1 5682.86 20384 5686.07 20384 5689.29 20384 5691.43 20386.1 5691.43 20389.2 5691.43 20392.4 5689.29 20394.5 5686.07 20394.5ZM5632.5 20373.5C5591.25 20373.5 5557.5 20364.1 5557.5 20352.5L5557.5 20394.5C5557.5 20406.1 5591.25 20415.5 5632.5 20415.5 5673.75 20415.5 5707.5 20406.1 5707.5 20394.5L5707.5 20352.5C5707.5 20364.1 5673.75 20373.5 5632.5 20373.5Z" stroke="#000000" stroke-width="5.04167" stroke-linecap="butt" stroke-linejoin="miter" stroke-miterlimit="8" stroke-opacity="1" fill="#F7A800" fill-rule="evenodd" fill-opacity="1"/><path d="M5686.07 20446.5C5682.86 20446.5 5680.71 20444.4 5680.71 20441.2 5680.71 20438.1 5682.86 20436 5686.07 20436 5689.29 20436 5691.43 20438.1 5691.43 20441.2 5691.43 20444.4 5689.29 20446.5 5686.07 20446.5ZM5632.5 20425.5C5591.25 20425.5 5557.5 20416.1 5557.5 20404.5L5557.5 20446.5C5557.5 20458.1 5591.25 20467.5 5632.5 20467.5 5673.75 20467.5 5707.5 20458.1 5707.5 20446.5L5707.5 20404.5C5707.5 20416.1 5673.75 20425.5 5632.5 20425.5Z" stroke="#000000" stroke-width="5.04167" stroke-linecap="butt" stroke-linejoin="miter" stroke-miterlimit="8" stroke-opacity="1" fill="#58AB27" fill-rule="evenodd" fill-opacity="1"/><path d="M6043.5 20289.5C6043.5 20301.1 6009.92 20310.5 5968.5 20310.5 5927.08 20310.5 5893.5 20301.1 5893.5 20289.5 5893.5 20277.9 5927.08 20268.5 5968.5 20268.5 6009.92 20268.5 6043.5 20277.9 6043.5 20289.5Z" stroke="#000000" stroke-width="5.04167" stroke-linecap="butt" stroke-linejoin="miter" stroke-miterlimit="8" stroke-opacity="1" fill="#8478BE" fill-rule="evenodd" fill-opacity="1"/><path d="M6022.07 20341.5C6018.86 20341.5 6016.71 20339.4 6016.71 20336.2 6016.71 20333.1 6018.86 20331 6022.07 20331 6025.29 20331 6027.43 20333.1 6027.43 20336.2 6027.43 20339.4 6025.29 20341.5 6022.07 20341.5ZM5968.5 20320.5C5927.25 20320.5 5893.5 20311.1 5893.5 20299.5L5893.5 20341.5C5893.5 20353.1 5927.25 20362.5 5968.5 20362.5 6009.75 20362.5 6043.5 20353.1 6043.5 20341.5L6043.5 20299.5C6043.5 20311.1 6009.75 20320.5 5968.5 20320.5Z" stroke="#000000" stroke-width="5.04167" stroke-linecap="butt" stroke-linejoin="miter" stroke-miterlimit="8" stroke-opacity="1" fill="#8478BE" fill-rule="evenodd" fill-opacity="1"/><path d="M6022.07 20394.5C6018.86 20394.5 6016.71 20392.4 6016.71 20389.2 6016.71 20386.1 6018.86 20384 6022.07 20384 6025.29 20384 6027.43 20386.1 6027.43 20389.2 6027.43 20392.4 6025.29 20394.5 6022.07 20394.5ZM5968.5 20373.5C5927.25 20373.5 5893.5 20364.1 5893.5 20352.5L5893.5 20394.5C5893.5 20406.1 5927.25 20415.5 5968.5 20415.5 6009.75 20415.5 6043.5 20406.1 6043.5 20394.5L6043.5 20352.5C6043.5 20364.1 6009.75 20373.5 5968.5 20373.5Z" stroke="#000000" stroke-width="5.04167" stroke-linecap="butt" stroke-linejoin="miter" stroke-miterlimit="8" stroke-opacity="1" fill="#FABE4F" fill-rule="evenodd" fill-opacity="1"/><path d="M6022.07 20446.5C6018.86 20446.5 6016.71 20444.4 6016.71 20441.2 6016.71 20438.1 6018.86 20436 6022.07 20436 6025.29 20436 6027.43 20438.1 6027.43 20441.2 6027.43 20444.4 6025.29 20446.5 6022.07 20446.5ZM5968.5 20425.5C5927.25 20425.5 5893.5 20416.1 5893.5 20404.5L5893.5 20446.5C5893.5 20458.1 5927.25 20467.5 5968.5 20467.5 6009.75 20467.5 6043.5 20458.1 6043.5 20446.5L6043.5 20404.5C6043.5 20416.1 6009.75 20425.5 5968.5 20425.5Z" stroke="#000000" stroke-width="5.04167" stroke-linecap="butt" stroke-linejoin="miter" stroke-miterlimit="8" stroke-opacity="1" fill="#88BA5E" fill-rule="evenodd" fill-opacity="1"/><path d="M6378.5 20289.5C6378.5 20301.1 6345.15 20310.5 6304 20310.5 6262.85 20310.5 6229.5 20301.1 6229.5 20289.5 6229.5 20277.9 6262.85 20268.5 6304 20268.5 6345.15 20268.5 6378.5 20277.9 6378.5 20289.5Z" stroke="#000000" stroke-width="5.04167" stroke-linecap="butt" stroke-linejoin="miter" stroke-miterlimit="8" stroke-opacity="1" fill="#938BBB" fill-rule="evenodd" fill-opacity="1"/><path d="M6357.21 20341.5C6354.02 20341.5 6351.89 20339.4 6351.89 20336.2 6351.89 20333.1 6354.02 20331 6357.21 20331 6360.41 20331 6362.54 20333.1 6362.54 20336.2 6362.54 20339.4 6360.41 20341.5 6357.21 20341.5ZM6304 20320.5C6263.03 20320.5 6229.5 20311.1 6229.5 20299.5L6229.5 20341.5C6229.5 20353.1 6263.03 20362.5 6304 20362.5 6344.98 20362.5 6378.5 20353.1 6378.5 20341.5L6378.5 20299.5C6378.5 20311.1 6344.98 20320.5 6304 20320.5Z" stroke="#000000" stroke-width="5.04167" stroke-linecap="butt" stroke-linejoin="miter" stroke-miterlimit="8" stroke-opacity="1" fill="#938BBB" fill-rule="evenodd" fill-opacity="1"/><path d="M6357.21 20394.5C6354.02 20394.5 6351.89 20392.4 6351.89 20389.2 6351.89 20386.1 6354.02 20384 6357.21 20384 6360.41 20384 6362.54 20386.1 6362.54 20389.2 6362.54 20392.4 6360.41 20394.5 6357.21 20394.5ZM6304 20373.5C6263.03 20373.5 6229.5 20364.1 6229.5 20352.5L6229.5 20394.5C6229.5 20406.1 6263.03 20415.5 6304 20415.5 6344.98 20415.5 6378.5 20406.1 6378.5 20394.5L6378.5 20352.5C6378.5 20364.1 6344.98 20373.5 6304 20373.5Z" stroke="#000000" stroke-width="5.04167" stroke-linecap="butt" stroke-linejoin="miter" stroke-miterlimit="8" stroke-opacity="1" fill="#FFC553" fill-rule="evenodd" fill-opacity="1"/><path d="M6357.21 20446.5C6354.02 20446.5 6351.89 20444.4 6351.89 20441.2 6351.89 20438.1 6354.02 20436 6357.21 20436 6360.41 20436 6362.54 20438.1 6362.54 20441.2 6362.54 20444.4 6360.41 20446.5 6357.21 20446.5ZM6304 20425.5C6263.03 20425.5 6229.5 20416.1 6229.5 20404.5L6229.5 20446.5C6229.5 20458.1 6263.03 20467.5 6304 20467.5 6344.98 20467.5 6378.5 20458.1 6378.5 20446.5L6378.5 20404.5C6378.5 20416.1 6344.98 20425.5 6304 20425.5Z" stroke="#000000" stroke-width="5.04167" stroke-linecap="butt" stroke-linejoin="miter" stroke-miterlimit="8" stroke-opacity="1" fill="#8DC05F" fill-rule="evenodd" fill-opacity="1"/><path d="M6714.5 20289.5C6714.5 20301.1 6680.92 20310.5 6639.5 20310.5 6598.08 20310.5 6564.5 20301.1 6564.5 20289.5 6564.5 20277.9 6598.08 20268.5 6639.5 20268.5 6680.92 20268.5 6714.5 20277.9 6714.5 20289.5Z" stroke="#000000" stroke-width="5.04167" stroke-linecap="butt" stroke-linejoin="miter" stroke-miterlimit="8" stroke-opacity="1" fill="#9B91C2" fill-rule="evenodd" fill-opacity="1"/><path d="M6693.07 20341.5C6689.86 20341.5 6687.71 20339.4 6687.71 20336.2 6687.71 20333.1 6689.86 20331 6693.07 20331 6696.29 20331 6698.43 20333.1 6698.43 20336.2 6698.43 20339.4 6696.29 20341.5 6693.07 20341.5ZM6639.5 20320.5C6598.25 20320.5 6564.5 20311.1 6564.5 20299.5L6564.5 20341.5C6564.5 20353.1 6598.25 20362.5 6639.5 20362.5 6680.75 20362.5 6714.5 20353.1 6714.5 20341.5L6714.5 20299.5C6714.5 20311.1 6680.75 20320.5 6639.5 20320.5Z" stroke="#000000" stroke-width="5.04167" stroke-linecap="butt" stroke-linejoin="miter" stroke-miterlimit="8" stroke-opacity="1" fill="#9B91C2" fill-rule="evenodd" fill-opacity="1"/><path d="M6693.07 20394.5C6689.86 20394.5 6687.71 20392.4 6687.71 20389.2 6687.71 20386.1 6689.86 20384 6693.07 20384 6696.29 20384 6698.43 20386.1 6698.43 20389.2 6698.43 20392.4 6696.29 20394.5 6693.07 20394.5ZM6639.5 20373.5C6598.25 20373.5 6564.5 20364.1 6564.5 20352.5L6564.5 20394.5C6564.5 20406.1 6598.25 20415.5 6639.5 20415.5 6680.75 20415.5 6714.5 20406.1 6714.5 20394.5L6714.5 20352.5C6714.5 20364.1 6680.75 20373.5 6639.5 20373.5Z" stroke="#000000" stroke-width="5.04167" stroke-linecap="butt" stroke-linejoin="miter" stroke-miterlimit="8" stroke-opacity="1" fill="#F4CC8B" fill-rule="evenodd" fill-opacity="1"/><path d="M6693.07 20446.5C6689.86 20446.5 6687.71 20444.4 6687.71 20441.2 6687.71 20438.1 6689.86 20436 6693.07 20436 6696.29 20436 6698.43 20438.1 6698.43 20441.2 6698.43 20444.4 6696.29 20446.5 6693.07 20446.5ZM6639.5 20425.5C6598.25 20425.5 6564.5 20416.1 6564.5 20404.5L6564.5 20446.5C6564.5 20458.1 6598.25 20467.5 6639.5 20467.5 6680.75 20467.5 6714.5 20458.1 6714.5 20446.5L6714.5 20404.5C6714.5 20416.1 6680.75 20425.5 6639.5 20425.5Z" stroke="#000000" stroke-width="5.04167" stroke-linecap="butt" stroke-linejoin="miter" stroke-miterlimit="8" stroke-opacity="1" fill="#A5CB82" fill-rule="evenodd" fill-opacity="1"/><path d="M7049.5 20289.5C7049.5 20301.1 7016.15 20310.5 6975 20310.5 6933.85 20310.5 6900.5 20301.1 6900.5 20289.5 6900.5 20277.9 6933.85 20268.5 6975 20268.5 7016.15 20268.5 7049.5 20277.9 7049.5 20289.5Z" stroke="#000000" stroke-width="5.04167" stroke-linecap="butt" stroke-linejoin="miter" stroke-miterlimit="8" stroke-opacity="1" fill="#B4A8E1" fill-rule="evenodd" fill-opacity="1"/><path d="M7028.21 20341.5C7025.02 20341.5 7022.89 20339.4 7022.89 20336.2 7022.89 20333.1 7025.02 20331 7028.21 20331 7031.41 20331 7033.54 20333.1 7033.54 20336.2 7033.54 20339.4 7031.41 20341.5 7028.21 20341.5ZM6975 20320.5C6934.03 20320.5 6900.5 20311.1 6900.5 20299.5L6900.5 20341.5C6900.5 20353.1 6934.03 20362.5 6975 20362.5 7015.98 20362.5 7049.5 20353.1 7049.5 20341.5L7049.5 20299.5C7049.5 20311.1 7015.98 20320.5 6975 20320.5Z" stroke="#000000" stroke-width="5.04167" stroke-linecap="butt" stroke-linejoin="miter" stroke-miterlimit="8" stroke-opacity="1" fill="#B4A8E1" fill-rule="evenodd" fill-opacity="1"/><path d="M7028.21 20394.5C7025.02 20394.5 7022.89 20392.4 7022.89 20389.2 7022.89 20386.1 7025.02 20384 7028.21 20384 7031.41 20384 7033.54 20386.1 7033.54 20389.2 7033.54 20392.4 7031.41 20394.5 7028.21 20394.5ZM6975 20373.5C6934.03 20373.5 6900.5 20364.1 6900.5 20352.5L6900.5 20394.5C6900.5 20406.1 6934.03 20415.5 6975 20415.5 7015.98 20415.5 7049.5 20406.1 7049.5 20394.5L7049.5 20352.5C7049.5 20364.1 7015.98 20373.5 6975 20373.5Z" stroke="#000000" stroke-width="5.04167" stroke-linecap="butt" stroke-linejoin="miter" stroke-miterlimit="8" stroke-opacity="1" fill="#FED48F" fill-rule="evenodd" fill-opacity="1"/><path d="M7028.21 20446.5C7025.02 20446.5 7022.89 20444.4 7022.89 20441.2 7022.89 20438.1 7025.02 20436 7028.21 20436 7031.41 20436 7033.54 20438.1 7033.54 20441.2 7033.54 20444.4 7031.41 20446.5 7028.21 20446.5ZM6975 20425.5C6934.03 20425.5 6900.5 20416.1 6900.5 20404.5L6900.5 20446.5C6900.5 20458.1 6934.03 20467.5 6975 20467.5 7015.98 20467.5 7049.5 20458.1 7049.5 20446.5L7049.5 20404.5C7049.5 20416.1 7015.98 20425.5 6975 20425.5Z" stroke="#000000" stroke-width="5.04167" stroke-linecap="butt" stroke-linejoin="miter" stroke-miterlimit="8" stroke-opacity="1" fill="#C4E3A6" fill-rule="evenodd" fill-opacity="1"/><text fill="#14181D" fill-opacity="1" font-family="Arial,Arial_MSFontService,sans-serif" font-style="italic" font-variant="normal" font-weight="400" font-stretch="normal" font-size="101" text-anchor="start" direction="ltr" writing-mode="lr-tb" unicode-bidi="normal" text-decoration="none" transform="matrix(1 0 0 1 5537.35 20590)">2025</text><text fill="#14181D" fill-opacity="1" font-family="Arial,Arial_MSFontService,sans-serif" font-style="italic" font-variant="normal" font-weight="400" font-stretch="normal" font-size="101" text-anchor="start" direction="ltr" writing-mode="lr-tb" unicode-bidi="normal" text-decoration="none" transform="matrix(1 0 0 1 5874.13 20590)">2030</text><text fill="#14181D" fill-opacity="1" font-family="Arial,Arial_MSFontService,sans-serif" font-style="italic" font-variant="normal" font-weight="400" font-stretch="normal" font-size="101" text-anchor="start" direction="ltr" writing-mode="lr-tb" unicode-bidi="normal" text-decoration="none" transform="matrix(1 0 0 1 6210.91 20590)">2035</text><text fill="#14181D" fill-opacity="1" font-family="Arial,Arial_MSFontService,sans-serif" font-style="italic" font-variant="normal" font-weight="400" font-stretch="normal" font-size="101" text-anchor="start" direction="ltr" writing-mode="lr-tb" unicode-bidi="normal" text-decoration="none" transform="matrix(1 0 0 1 6547.7 20590)">2040</text><text fill="#14181D" fill-opacity="1" font-family="Arial,Arial_MSFontService,sans-serif" font-style="italic" font-variant="normal" font-weight="400" font-stretch="normal" font-size="101" text-anchor="start" direction="ltr" writing-mode="lr-tb" unicode-bidi="normal" text-decoration="none" transform="matrix(1 0 0 1 6884.48 20590)">2045</text><text fill="#14181D" fill-opacity="1" font-family="Arial,Arial_MSFontService,sans-serif" font-style="italic" font-variant="normal" font-weight="400" font-stretch="normal" font-size="110" text-anchor="start" direction="ltr" writing-mode="lr-tb" unicode-bidi="normal" text-decoration="none" transform="matrix(1 0 0 1 5543.9 20212)">databases:</text><rect x="5834" y="20232" width="1322" height="418" fill="#FFFFFF" fill-opacity="0.819608"/><path d="M3008.5 20881.5 4120.94 21776.3" stroke="#14181D" stroke-width="6.875" stroke-linecap="butt" stroke-linejoin="round" stroke-miterlimit="10" stroke-dasharray="6.875 6.875" stroke-opacity="1" fill="none" fill-rule="evenodd"/><path d="M3007.5 21137.5 4120.86 21944.6" stroke="#14181D" stroke-width="6.875" stroke-linecap="butt" stroke-linejoin="round" stroke-miterlimit="10" stroke-dasharray="6.875 6.875" stroke-opacity="1" fill="none" fill-rule="evenodd"/><path d="M3003.5 22187.5 4111.93 22383.1" stroke="#14181D" stroke-width="6.875" stroke-linecap="butt" stroke-linejoin="round" stroke-miterlimit="10" stroke-dasharray="6.875 6.875" stroke-opacity="1" fill="none" fill-rule="evenodd"/><path d="M2898.5 22653.5 2898.5 22692.5" stroke="#14181D" stroke-width="11.3436" stroke-linecap="round" stroke-linejoin="round" stroke-miterlimit="10" stroke-opacity="1" fill="none" fill-rule="evenodd"/><path d="M4227.5 22653.5 4227.5 22692.5" stroke="#14181D" stroke-width="11.3436" stroke-linecap="round" stroke-linejoin="round" stroke-miterlimit="10" stroke-opacity="1" fill="none" fill-rule="evenodd"/><rect x="2793" y="22185" width="210" height="467" stroke="#14181D" stroke-width="10.0833" stroke-linecap="butt" stroke-linejoin="round" stroke-miterlimit="10" stroke-opacity="1" fill="#58AB27" fill-opacity="1"/><text fill="#14181D" fill-opacity="1" font-family="Arial,Arial_MSFontService,sans-serif" font-style="normal" font-variant="normal" font-weight="400" font-stretch="normal" font-size="110" text-anchor="start" direction="ltr" writing-mode="lr-tb" unicode-bidi="normal" text-decoration="none" transform="matrix(6.12323e-17 -1 1 6.12323e-17 2938.96 22593)">Constr.</text><rect x="4122" y="22384" width="210" height="267" stroke="#14181D" stroke-width="10.0833" stroke-linecap="butt" stroke-linejoin="round" stroke-miterlimit="10" stroke-opacity="1" fill="#DEEBCE" fill-opacity="1"/><text fill="#14181D" fill-opacity="1" font-family="Arial,Arial_MSFontService,sans-serif" font-style="normal" font-variant="normal" font-weight="400" font-stretch="normal" font-size="73" text-anchor="start" direction="ltr" writing-mode="lr-tb" unicode-bidi="normal" text-decoration="none" transform="matrix(6.12323e-17 -1 1 6.12323e-17 4253.91 22625)">Constr</text><rect x="4122" y="21946" width="210" height="438" stroke="#14181D" stroke-width="10.0833" stroke-linecap="butt" stroke-linejoin="round" stroke-miterlimit="10" stroke-opacity="1" fill="#FEEBC9" fill-opacity="1"/><text fill="#14181D" fill-opacity="1" font-family="Arial,Arial_MSFontService,sans-serif" font-style="normal" font-variant="normal" font-weight="400" font-stretch="normal" font-size="73" text-anchor="start" direction="ltr" writing-mode="lr-tb" unicode-bidi="normal" text-decoration="none" transform="matrix(6.12323e-17 -1 1 6.12323e-17 4253.91 22230)">U</text><text fill="#14181D" fill-opacity="1" font-family="Arial,Arial_MSFontService,sans-serif" font-style="normal" font-variant="normal" font-weight="400" font-stretch="normal" font-size="73" text-anchor="start" direction="ltr" writing-mode="lr-tb" unicode-bidi="normal" text-decoration="none" transform="matrix(6.12323e-17 -1 1 6.12323e-17 4253.91 22177)">se</text><rect x="4122" y="21774" width="210" height="172" stroke="#14181D" stroke-width="10.0833" stroke-linecap="butt" stroke-linejoin="round" stroke-miterlimit="10" stroke-opacity="1" fill="#BCB5D7" fill-opacity="1"/><text fill="#14181D" fill-opacity="1" font-family="Arial,Arial_MSFontService,sans-serif" font-style="normal" font-variant="normal" font-weight="400" font-stretch="normal" font-size="73" text-anchor="start" direction="ltr" writing-mode="lr-tb" unicode-bidi="normal" text-decoration="none" transform="matrix(6.12323e-17 -1 1 6.12323e-17 4253.91 21925)">EoL</text><path d="M2661 22647 4461.04 22647 4461.04 22657 2661 22657ZM4433.33 22630 4471.05 22652 4433.33 22674C4430.93 22675.4 4427.84 22674.6 4426.44 22672.2 4425.03 22669.8 4425.85 22666.7 4428.25 22665.3L4458.5 22647.6 4458.5 22656.4 4428.25 22638.7C4425.85 22637.3 4425.03 22634.2 4426.44 22631.8 4427.84 22629.4 4430.93 22628.6 4433.33 22630Z" fill="#14181D" fill-rule="nonzero" fill-opacity="1"/><path d="M5.04167-9.00545e-07 5.04203 2010.46-5.04131 2010.46-5.04167 9.00545e-07ZM22.0011 1982.75 0.00036049 2020.46-22.0004 1982.75-22.0004 1982.75C-23.4034 1980.34-22.591 1977.26-20.1858 1975.85-17.7807 1974.45-14.6936 1975.26-13.2906 1977.67L-13.2906 1977.67 4.35524 2007.92-4.35453 2007.92 13.2913 1977.67C14.6943 1975.26 17.7814 1974.45 20.1865 1975.85 22.5917 1977.26 23.4041 1980.34 22.0011 1982.75Z" fill="#14181D" fill-rule="nonzero" fill-opacity="1" transform="matrix(1 0 0 -1 2661 22656.4)"/><text fill="#14181D" fill-opacity="1" font-family="Arial,Arial_MSFontService,sans-serif" font-style="normal" font-variant="normal" font-weight="400" font-stretch="normal" font-size="110" text-anchor="start" direction="ltr" writing-mode="lr-tb" unicode-bidi="normal" text-decoration="none" transform="matrix(-1.83697e-16 -1 1 -1.83697e-16 2617.67 22196)">e</text><text fill="#14181D" fill-opacity="1" font-family="Arial,Arial_MSFontService,sans-serif" font-style="normal" font-variant="normal" font-weight="400" font-stretch="normal" font-size="110" text-anchor="start" direction="ltr" writing-mode="lr-tb" unicode-bidi="normal" text-decoration="none" transform="matrix(-1.83697e-16 -1 1 -1.83697e-16 2617.67 22135)">nvironmental impacts</text><path d="M3229.5 22653.5 3229.5 22692.5" stroke="#14181D" stroke-width="11.3436" stroke-linecap="round" stroke-linejoin="round" stroke-miterlimit="10" stroke-opacity="1" fill="none" fill-rule="evenodd"/><path d="M3563.5 22653.5 3563.5 22692.5" stroke="#14181D" stroke-width="11.3436" stroke-linecap="round" stroke-linejoin="round" stroke-miterlimit="10" stroke-opacity="1" fill="none" fill-rule="evenodd"/><path d="M3895.5 22653.5 3895.5 22692.5" stroke="#14181D" stroke-width="11.3436" stroke-linecap="round" stroke-linejoin="round" stroke-miterlimit="10" stroke-opacity="1" fill="none" fill-rule="evenodd"/><text fill="#14181D" fill-opacity="1" font-family="Arial,Arial_MSFontService,sans-serif" font-style="italic" font-variant="normal" font-weight="400" font-stretch="normal" font-size="101" text-anchor="start" direction="ltr" writing-mode="lr-tb" unicode-bidi="normal" text-decoration="none" transform="matrix(0.707107 -0.707107 0.707107 0.707107 2775.53 22947)">2025</text><text fill="#14181D" fill-opacity="1" font-family="Arial,Arial_MSFontService,sans-serif" font-style="italic" font-variant="normal" font-weight="400" font-stretch="normal" font-size="101" text-anchor="start" direction="ltr" writing-mode="lr-tb" unicode-bidi="normal" text-decoration="none" transform="matrix(0.707107 -0.707107 0.707107 0.707107 3109.5 22947)">2030</text><text fill="#14181D" fill-opacity="1" font-family="Arial,Arial_MSFontService,sans-serif" font-style="italic" font-variant="normal" font-weight="400" font-stretch="normal" font-size="101" text-anchor="start" direction="ltr" writing-mode="lr-tb" unicode-bidi="normal" text-decoration="none" transform="matrix(0.707107 -0.707107 0.707107 0.707107 3443.48 22947)">2035</text><text fill="#14181D" fill-opacity="1" font-family="Arial,Arial_MSFontService,sans-serif" font-style="italic" font-variant="normal" font-weight="400" font-stretch="normal" font-size="101" text-anchor="start" direction="ltr" writing-mode="lr-tb" unicode-bidi="normal" text-decoration="none" transform="matrix(0.707107 -0.707107 0.707107 0.707107 3777.46 22947)">2040</text><text fill="#14181D" fill-opacity="1" font-family="Arial,Arial_MSFontService,sans-serif" font-style="italic" font-variant="normal" font-weight="400" font-stretch="normal" font-size="101" text-anchor="start" direction="ltr" writing-mode="lr-tb" unicode-bidi="normal" text-decoration="none" transform="matrix(0.707107 -0.707107 0.707107 0.707107 4111.44 22947)">2045</text><path d="M2968.5 20289.5C2968.5 20301.1 2934.92 20310.5 2893.5 20310.5 2852.08 20310.5 2818.5 20301.1 2818.5 20289.5 2818.5 20277.9 2852.08 20268.5 2893.5 20268.5 2934.92 20268.5 2968.5 20277.9 2968.5 20289.5Z" stroke="#000000" stroke-width="5.04167" stroke-linecap="butt" stroke-linejoin="miter" stroke-miterlimit="8" stroke-opacity="1" fill="#7A6FAC" fill-rule="evenodd" fill-opacity="1"/><path d="M2947.07 20341.5C2943.86 20341.5 2941.71 20339.4 2941.71 20336.2 2941.71 20333.1 2943.86 20331 2947.07 20331 2950.29 20331 2952.43 20333.1 2952.43 20336.2 2952.43 20339.4 2950.29 20341.5 2947.07 20341.5ZM2893.5 20320.5C2852.25 20320.5 2818.5 20311.1 2818.5 20299.5L2818.5 20341.5C2818.5 20353.1 2852.25 20362.5 2893.5 20362.5 2934.75 20362.5 2968.5 20353.1 2968.5 20341.5L2968.5 20299.5C2968.5 20311.1 2934.75 20320.5 2893.5 20320.5Z" stroke="#000000" stroke-width="5.04167" stroke-linecap="butt" stroke-linejoin="miter" stroke-miterlimit="8" stroke-opacity="1" fill="#7A6FAC" fill-rule="evenodd" fill-opacity="1"/><path d="M2947.07 20394.5C2943.86 20394.5 2941.71 20392.4 2941.71 20389.2 2941.71 20386.1 2943.86 20384 2947.07 20384 2950.29 20384 2952.43 20386.1 2952.43 20389.2 2952.43 20392.4 2950.29 20394.5 2947.07 20394.5ZM2893.5 20373.5C2852.25 20373.5 2818.5 20364.1 2818.5 20352.5L2818.5 20394.5C2818.5 20406.1 2852.25 20415.5 2893.5 20415.5 2934.75 20415.5 2968.5 20406.1 2968.5 20394.5L2968.5 20352.5C2968.5 20364.1 2934.75 20373.5 2893.5 20373.5Z" stroke="#000000" stroke-width="5.04167" stroke-linecap="butt" stroke-linejoin="miter" stroke-miterlimit="8" stroke-opacity="1" fill="#F7A800" fill-rule="evenodd" fill-opacity="1"/><path d="M2947.07 20446.5C2943.86 20446.5 2941.71 20444.4 2941.71 20441.2 2941.71 20438.1 2943.86 20436 2947.07 20436 2950.29 20436 2952.43 20438.1 2952.43 20441.2 2952.43 20444.4 2950.29 20446.5 2947.07 20446.5ZM2893.5 20425.5C2852.25 20425.5 2818.5 20416.1 2818.5 20404.5L2818.5 20446.5C2818.5 20458.1 2852.25 20467.5 2893.5 20467.5 2934.75 20467.5 2968.5 20458.1 2968.5 20446.5L2968.5 20404.5C2968.5 20416.1 2934.75 20425.5 2893.5 20425.5Z" stroke="#000000" stroke-width="5.04167" stroke-linecap="butt" stroke-linejoin="miter" stroke-miterlimit="8" stroke-opacity="1" fill="#58AB27" fill-rule="evenodd" fill-opacity="1"/><path d="M3301.5 20289.5C3301.5 20301.1 3267.92 20310.5 3226.5 20310.5 3185.08 20310.5 3151.5 20301.1 3151.5 20289.5 3151.5 20277.9 3185.08 20268.5 3226.5 20268.5 3267.92 20268.5 3301.5 20277.9 3301.5 20289.5Z" stroke="#000000" stroke-width="5.04167" stroke-linecap="butt" stroke-linejoin="miter" stroke-miterlimit="8" stroke-opacity="1" fill="#8478BE" fill-rule="evenodd" fill-opacity="1"/><path d="M3280.07 20341.5C3276.86 20341.5 3274.71 20339.4 3274.71 20336.2 3274.71 20333.1 3276.86 20331 3280.07 20331 3283.29 20331 3285.43 20333.1 3285.43 20336.2 3285.43 20339.4 3283.29 20341.5 3280.07 20341.5ZM3226.5 20320.5C3185.25 20320.5 3151.5 20311.1 3151.5 20299.5L3151.5 20341.5C3151.5 20353.1 3185.25 20362.5 3226.5 20362.5 3267.75 20362.5 3301.5 20353.1 3301.5 20341.5L3301.5 20299.5C3301.5 20311.1 3267.75 20320.5 3226.5 20320.5Z" stroke="#000000" stroke-width="5.04167" stroke-linecap="butt" stroke-linejoin="miter" stroke-miterlimit="8" stroke-opacity="1" fill="#8478BE" fill-rule="evenodd" fill-opacity="1"/><path d="M3280.07 20394.5C3276.86 20394.5 3274.71 20392.4 3274.71 20389.2 3274.71 20386.1 3276.86 20384 3280.07 20384 3283.29 20384 3285.43 20386.1 3285.43 20389.2 3285.43 20392.4 3283.29 20394.5 3280.07 20394.5ZM3226.5 20373.5C3185.25 20373.5 3151.5 20364.1 3151.5 20352.5L3151.5 20394.5C3151.5 20406.1 3185.25 20415.5 3226.5 20415.5 3267.75 20415.5 3301.5 20406.1 3301.5 20394.5L3301.5 20352.5C3301.5 20364.1 3267.75 20373.5 3226.5 20373.5Z" stroke="#000000" stroke-width="5.04167" stroke-linecap="butt" stroke-linejoin="miter" stroke-miterlimit="8" stroke-opacity="1" fill="#FABE4F" fill-rule="evenodd" fill-opacity="1"/><path d="M3280.07 20446.5C3276.86 20446.5 3274.71 20444.4 3274.71 20441.2 3274.71 20438.1 3276.86 20436 3280.07 20436 3283.29 20436 3285.43 20438.1 3285.43 20441.2 3285.43 20444.4 3283.29 20446.5 3280.07 20446.5ZM3226.5 20425.5C3185.25 20425.5 3151.5 20416.1 3151.5 20404.5L3151.5 20446.5C3151.5 20458.1 3185.25 20467.5 3226.5 20467.5 3267.75 20467.5 3301.5 20458.1 3301.5 20446.5L3301.5 20404.5C3301.5 20416.1 3267.75 20425.5 3226.5 20425.5Z" stroke="#000000" stroke-width="5.04167" stroke-linecap="butt" stroke-linejoin="miter" stroke-miterlimit="8" stroke-opacity="1" fill="#88BA5E" fill-rule="evenodd" fill-opacity="1"/><path d="M3634.5 20289.5C3634.5 20301.1 3601.15 20310.5 3560 20310.5 3518.85 20310.5 3485.5 20301.1 3485.5 20289.5 3485.5 20277.9 3518.85 20268.5 3560 20268.5 3601.15 20268.5 3634.5 20277.9 3634.5 20289.5Z" stroke="#000000" stroke-width="5.04167" stroke-linecap="butt" stroke-linejoin="miter" stroke-miterlimit="8" stroke-opacity="1" fill="#938BBB" fill-rule="evenodd" fill-opacity="1"/><path d="M3613.21 20341.5C3610.02 20341.5 3607.89 20339.4 3607.89 20336.2 3607.89 20333.1 3610.02 20331 3613.21 20331 3616.41 20331 3618.54 20333.1 3618.54 20336.2 3618.54 20339.4 3616.41 20341.5 3613.21 20341.5ZM3560 20320.5C3519.03 20320.5 3485.5 20311.1 3485.5 20299.5L3485.5 20341.5C3485.5 20353.1 3519.03 20362.5 3560 20362.5 3600.98 20362.5 3634.5 20353.1 3634.5 20341.5L3634.5 20299.5C3634.5 20311.1 3600.98 20320.5 3560 20320.5Z" stroke="#000000" stroke-width="5.04167" stroke-linecap="butt" stroke-linejoin="miter" stroke-miterlimit="8" stroke-opacity="1" fill="#938BBB" fill-rule="evenodd" fill-opacity="1"/><path d="M3613.21 20394.5C3610.02 20394.5 3607.89 20392.4 3607.89 20389.2 3607.89 20386.1 3610.02 20384 3613.21 20384 3616.41 20384 3618.54 20386.1 3618.54 20389.2 3618.54 20392.4 3616.41 20394.5 3613.21 20394.5ZM3560 20373.5C3519.03 20373.5 3485.5 20364.1 3485.5 20352.5L3485.5 20394.5C3485.5 20406.1 3519.03 20415.5 3560 20415.5 3600.98 20415.5 3634.5 20406.1 3634.5 20394.5L3634.5 20352.5C3634.5 20364.1 3600.98 20373.5 3560 20373.5Z" stroke="#000000" stroke-width="5.04167" stroke-linecap="butt" stroke-linejoin="miter" stroke-miterlimit="8" stroke-opacity="1" fill="#FFC553" fill-rule="evenodd" fill-opacity="1"/><path d="M3613.21 20446.5C3610.02 20446.5 3607.89 20444.4 3607.89 20441.2 3607.89 20438.1 3610.02 20436 3613.21 20436 3616.41 20436 3618.54 20438.1 3618.54 20441.2 3618.54 20444.4 3616.41 20446.5 3613.21 20446.5ZM3560 20425.5C3519.03 20425.5 3485.5 20416.1 3485.5 20404.5L3485.5 20446.5C3485.5 20458.1 3519.03 20467.5 3560 20467.5 3600.98 20467.5 3634.5 20458.1 3634.5 20446.5L3634.5 20404.5C3634.5 20416.1 3600.98 20425.5 3560 20425.5Z" stroke="#000000" stroke-width="5.04167" stroke-linecap="butt" stroke-linejoin="miter" stroke-miterlimit="8" stroke-opacity="1" fill="#8DC05F" fill-rule="evenodd" fill-opacity="1"/><path d="M3967.5 20289.5C3967.5 20301.1 3934.15 20310.5 3893 20310.5 3851.85 20310.5 3818.5 20301.1 3818.5 20289.5 3818.5 20277.9 3851.85 20268.5 3893 20268.5 3934.15 20268.5 3967.5 20277.9 3967.5 20289.5Z" stroke="#000000" stroke-width="5.04167" stroke-linecap="butt" stroke-linejoin="miter" stroke-miterlimit="8" stroke-opacity="1" fill="#9B91C2" fill-rule="evenodd" fill-opacity="1"/><path d="M3946.21 20341.5C3943.02 20341.5 3940.89 20339.4 3940.89 20336.2 3940.89 20333.1 3943.02 20331 3946.21 20331 3949.41 20331 3951.54 20333.1 3951.54 20336.2 3951.54 20339.4 3949.41 20341.5 3946.21 20341.5ZM3893 20320.5C3852.02 20320.5 3818.5 20311.1 3818.5 20299.5L3818.5 20341.5C3818.5 20353.1 3852.02 20362.5 3893 20362.5 3933.98 20362.5 3967.5 20353.1 3967.5 20341.5L3967.5 20299.5C3967.5 20311.1 3933.98 20320.5 3893 20320.5Z" stroke="#000000" stroke-width="5.04167" stroke-linecap="butt" stroke-linejoin="miter" stroke-miterlimit="8" stroke-opacity="1" fill="#9B91C2" fill-rule="evenodd" fill-opacity="1"/><path d="M3946.21 20394.5C3943.02 20394.5 3940.89 20392.4 3940.89 20389.2 3940.89 20386.1 3943.02 20384 3946.21 20384 3949.41 20384 3951.54 20386.1 3951.54 20389.2 3951.54 20392.4 3949.41 20394.5 3946.21 20394.5ZM3893 20373.5C3852.02 20373.5 3818.5 20364.1 3818.5 20352.5L3818.5 20394.5C3818.5 20406.1 3852.02 20415.5 3893 20415.5 3933.98 20415.5 3967.5 20406.1 3967.5 20394.5L3967.5 20352.5C3967.5 20364.1 3933.98 20373.5 3893 20373.5Z" stroke="#000000" stroke-width="5.04167" stroke-linecap="butt" stroke-linejoin="miter" stroke-miterlimit="8" stroke-opacity="1" fill="#F4CC8B" fill-rule="evenodd" fill-opacity="1"/><path d="M3946.21 20446.5C3943.02 20446.5 3940.89 20444.4 3940.89 20441.2 3940.89 20438.1 3943.02 20436 3946.21 20436 3949.41 20436 3951.54 20438.1 3951.54 20441.2 3951.54 20444.4 3949.41 20446.5 3946.21 20446.5ZM3893 20425.5C3852.02 20425.5 3818.5 20416.1 3818.5 20404.5L3818.5 20446.5C3818.5 20458.1 3852.02 20467.5 3893 20467.5 3933.98 20467.5 3967.5 20458.1 3967.5 20446.5L3967.5 20404.5C3967.5 20416.1 3933.98 20425.5 3893 20425.5Z" stroke="#000000" stroke-width="5.04167" stroke-linecap="butt" stroke-linejoin="miter" stroke-miterlimit="8" stroke-opacity="1" fill="#A5CB82" fill-rule="evenodd" fill-opacity="1"/><path d="M4300.5 20289.5C4300.5 20301.1 4267.15 20310.5 4226 20310.5 4184.85 20310.5 4151.5 20301.1 4151.5 20289.5 4151.5 20277.9 4184.85 20268.5 4226 20268.5 4267.15 20268.5 4300.5 20277.9 4300.5 20289.5Z" stroke="#000000" stroke-width="5.04167" stroke-linecap="butt" stroke-linejoin="miter" stroke-miterlimit="8" stroke-opacity="1" fill="#BDB5D7" fill-rule="evenodd" fill-opacity="1"/><path d="M4279.21 20341.5C4276.02 20341.5 4273.89 20339.4 4273.89 20336.2 4273.89 20333.1 4276.02 20331 4279.21 20331 4282.41 20331 4284.54 20333.1 4284.54 20336.2 4284.54 20339.4 4282.41 20341.5 4279.21 20341.5ZM4226 20320.5C4185.03 20320.5 4151.5 20311.1 4151.5 20299.5L4151.5 20341.5C4151.5 20353.1 4185.03 20362.5 4226 20362.5 4266.98 20362.5 4300.5 20353.1 4300.5 20341.5L4300.5 20299.5C4300.5 20311.1 4266.98 20320.5 4226 20320.5Z" stroke="#000000" stroke-width="5.04167" stroke-linecap="butt" stroke-linejoin="miter" stroke-miterlimit="8" stroke-opacity="1" fill="#BDB5D7" fill-rule="evenodd" fill-opacity="1"/><path d="M4279.21 20394.5C4276.02 20394.5 4273.89 20392.4 4273.89 20389.2 4273.89 20386.1 4276.02 20384 4279.21 20384 4282.41 20384 4284.54 20386.1 4284.54 20389.2 4284.54 20392.4 4282.41 20394.5 4279.21 20394.5ZM4226 20373.5C4185.03 20373.5 4151.5 20364.1 4151.5 20352.5L4151.5 20394.5C4151.5 20406.1 4185.03 20415.5 4226 20415.5 4266.98 20415.5 4300.5 20406.1 4300.5 20394.5L4300.5 20352.5C4300.5 20364.1 4266.98 20373.5 4226 20373.5Z" stroke="#000000" stroke-width="5.04167" stroke-linecap="butt" stroke-linejoin="miter" stroke-miterlimit="8" stroke-opacity="1" fill="#FFEBC9" fill-rule="evenodd" fill-opacity="1"/><path d="M4279.21 20446.5C4276.02 20446.5 4273.89 20444.4 4273.89 20441.2 4273.89 20438.1 4276.02 20436 4279.21 20436 4282.41 20436 4284.54 20438.1 4284.54 20441.2 4284.54 20444.4 4282.41 20446.5 4279.21 20446.5ZM4226 20425.5C4185.03 20425.5 4151.5 20416.1 4151.5 20404.5L4151.5 20446.5C4151.5 20458.1 4185.03 20467.5 4226 20467.5 4266.98 20467.5 4300.5 20458.1 4300.5 20446.5L4300.5 20404.5C4300.5 20416.1 4266.98 20425.5 4226 20425.5Z" stroke="#000000" stroke-width="5.04167" stroke-linecap="butt" stroke-linejoin="miter" stroke-miterlimit="8" stroke-opacity="1" fill="#DEEBCE" fill-rule="evenodd" fill-opacity="1"/><text fill="#14181D" fill-opacity="1" font-family="Arial,Arial_MSFontService,sans-serif" font-style="italic" font-variant="normal" font-weight="400" font-stretch="normal" font-size="101" text-anchor="start" direction="ltr" writing-mode="lr-tb" unicode-bidi="normal" text-decoration="none" transform="matrix(1 0 0 1 2762.95 20590)">2025</text><text fill="#14181D" fill-opacity="1" font-family="Arial,Arial_MSFontService,sans-serif" font-style="italic" font-variant="normal" font-weight="400" font-stretch="normal" font-size="101" text-anchor="start" direction="ltr" writing-mode="lr-tb" unicode-bidi="normal" text-decoration="none" transform="matrix(1 0 0 1 3099.73 20590)">2030</text><text fill="#14181D" fill-opacity="1" font-family="Arial,Arial_MSFontService,sans-serif" font-style="italic" font-variant="normal" font-weight="400" font-stretch="normal" font-size="101" text-anchor="start" direction="ltr" writing-mode="lr-tb" unicode-bidi="normal" text-decoration="none" transform="matrix(1 0 0 1 3436.52 20590)">2035</text><text fill="#14181D" fill-opacity="1" font-family="Arial,Arial_MSFontService,sans-serif" font-style="italic" font-variant="normal" font-weight="400" font-stretch="normal" font-size="101" text-anchor="start" direction="ltr" writing-mode="lr-tb" unicode-bidi="normal" text-decoration="none" transform="matrix(1 0 0 1 3773.3 20590)">2040</text><text fill="#14181D" fill-opacity="1" font-family="Arial,Arial_MSFontService,sans-serif" font-style="italic" font-variant="normal" font-weight="400" font-stretch="normal" font-size="101" text-anchor="start" direction="ltr" writing-mode="lr-tb" unicode-bidi="normal" text-decoration="none" transform="matrix(1 0 0 1 4110.08 20590)">2045</text><text fill="#14181D" fill-opacity="1" font-family="Arial,Arial_MSFontService,sans-serif" font-style="italic" font-variant="normal" font-weight="400" font-stretch="normal" font-size="110" text-anchor="start" direction="ltr" writing-mode="lr-tb" unicode-bidi="normal" text-decoration="none" transform="matrix(1 0 0 1 2807.39 20212)">databases:</text><rect x="3073" y="20219" width="971" height="418" fill="#FFFFFF" fill-opacity="0.819608"/><rect x="2793" y="21129" width="210" height="1058" stroke="#14181D" stroke-width="10.0833" stroke-linecap="butt" stroke-linejoin="round" stroke-miterlimit="10" stroke-opacity="1" fill="#F6A800" fill-opacity="1"/><text fill="#14181D" fill-opacity="1" font-family="Arial,Arial_MSFontService,sans-serif" font-style="normal" font-variant="normal" font-weight="400" font-stretch="normal" font-size="110" text-anchor="start" direction="ltr" writing-mode="lr-tb" unicode-bidi="normal" text-decoration="none" transform="matrix(6.12323e-17 -1 1 6.12323e-17 2938.96 21756)">Use</text><rect x="2793" y="20874" width="210" height="258" stroke="#14181D" stroke-width="10.0833" stroke-linecap="butt" stroke-linejoin="round" stroke-miterlimit="10" stroke-opacity="1" fill="#7A6FAC" fill-opacity="1"/><text fill="#14181D" fill-opacity="1" font-family="Arial,Arial_MSFontService,sans-serif" font-style="normal" font-variant="normal" font-weight="400" font-stretch="normal" font-size="110" text-anchor="start" direction="ltr" writing-mode="lr-tb" unicode-bidi="normal" text-decoration="none" transform="matrix(6.12323e-17 -1 1 6.12323e-17 2938.96 21101)">EoL</text><path d="M0.748362 206.991 2.06721 201.969 5.42967 187.261 8.28533 172.398 10.5804 157.394 12.2613 142.262 13.2747 127.016 13.5672 111.67 13.0858 96.2377 12.0864 82.3083 10.2649 68.2814 7.84789 54.3974 5.07062 41.0676 2.17109 28.6962 0.755443 23.0162-0.60777 17.6977-1.88269 12.8151-3.04 8.41521-4.05089 4.54258-4.88759 1.23687C-5.5707-1.46247-3.93621-4.20449-1.23687-4.88759 1.46247-5.5707 4.20449-3.93621 4.88759-1.23687L5.70552 1.99582 6.71165 5.85023 7.87356 10.2677 9.15987 15.1943 10.5397 20.5785 11.9887 26.3965 14.9424 39.0129 17.7824 52.6714 20.2651 66.9888 22.1441 81.5896 23.1644 95.9274 23.6487 111.866 23.3356 127.688 22.2827 143.378 20.5475 158.921 18.1872 174.303 15.259 189.51 11.8199 204.53 10.501 209.552 10.501 209.552C9.79381 212.245 7.03729 213.855 4.34416 213.148 1.65104 212.441 0.0411438 209.684 0.748362 206.991ZM33.9419 187.059 3.0833 217.949-8.61656 175.883C-9.36266 173.2-7.79282 170.42-5.1102 169.674-2.42759 168.928 0.351934 170.498 1.09804 173.181L10.482 206.921 2.05785 204.708 26.8082 179.932 26.8082 179.932C28.7761 177.962 31.9683 177.961 33.9382 179.929 35.9081 181.896 35.9098 185.089 33.9419 187.059Z" fill="#14181D" fill-rule="nonzero" fill-opacity="1" transform="matrix(-0.984438 0.175732 0.175732 0.984438 2863.91 20626.9)"/><text fill="#14181D" fill-opacity="1" font-family="Arial,Arial_MSFontService,sans-serif" font-style="italic" font-variant="normal" font-weight="700" font-stretch="normal" font-size="110" text-anchor="start" direction="ltr" writing-mode="lr-tb" unicode-bidi="normal" text-decoration="none" transform="matrix(1 0 0 1 2901.09 20764)">static</text><text fill="#14181D" fill-opacity="1" font-family="Arial,Arial_MSFontService,sans-serif" font-style="italic" font-variant="normal" font-weight="700" font-stretch="normal" font-size="110" text-anchor="start" direction="ltr" writing-mode="lr-tb" unicode-bidi="normal" text-decoration="none" transform="matrix(1 0 0 1 3577.43 20851)">prospective</text><text fill="#14181D" fill-opacity="1" font-family="Arial,Arial_MSFontService,sans-serif" font-style="italic" font-variant="normal" font-weight="400" font-stretch="normal" font-size="83" text-anchor="start" direction="ltr" writing-mode="lr-tb" unicode-bidi="normal" text-decoration="none" transform="matrix(0.776881 0.629648 -0.629648 0.776881 3207.27 20990)">evolving production system</text><text fill="#14181D" fill-opacity="1" font-family="Arial,Arial_MSFontService,sans-serif" font-style="italic" font-variant="normal" font-weight="400" font-stretch="normal" font-size="110" text-anchor="start" direction="ltr" writing-mode="lr-tb" unicode-bidi="normal" text-decoration="none" transform="matrix(1 0 0 1 8276.82 20212)">databases:</text><rect x="9260" y="21517" width="210" height="133" stroke="#14181D" stroke-width="10.0833" stroke-linecap="butt" stroke-linejoin="round" stroke-miterlimit="10" stroke-opacity="1" fill="#FFE5B2" fill-opacity="1"/><text fill="#14181D" fill-opacity="1" font-family="Arial,Arial_MSFontService,sans-serif" font-style="normal" font-variant="normal" font-weight="400" font-stretch="normal" font-size="50" text-anchor="start" direction="ltr" writing-mode="lr-tb" unicode-bidi="normal" text-decoration="none" transform="matrix(6.12323e-17 -1 1 6.12323e-17 9384.17 21628)">Use</text><path d="M9488 21517 9605.2 21517" stroke="#7F7F7F" stroke-width="10.0833" stroke-linecap="butt" stroke-linejoin="round" stroke-miterlimit="10" stroke-dasharray="40.3333 30.25" stroke-opacity="1" fill="none" fill-rule="evenodd"/><path d="M9132 21650 9249.2 21650" stroke="#7F7F7F" stroke-width="10.0833" stroke-linecap="butt" stroke-linejoin="round" stroke-miterlimit="10" stroke-dasharray="40.3333 30.25" stroke-opacity="1" fill="none" fill-rule="evenodd"/><path d="M8796 21870 8959.74 21870" stroke="#7F7F7F" stroke-width="10.0833" stroke-linecap="butt" stroke-linejoin="round" stroke-miterlimit="10" stroke-dasharray="40.3333 30.25" stroke-opacity="1" fill="none" fill-rule="evenodd"/><path d="M8459 22184 8622.74 22184" stroke="#7F7F7F" stroke-width="10.0833" stroke-linecap="butt" stroke-linejoin="round" stroke-miterlimit="10" stroke-dasharray="40.3333 30.25" stroke-opacity="1" fill="none" fill-rule="evenodd"/><rect x="8595" y="21870" width="210" height="315" stroke="#14181D" stroke-width="10.0833" stroke-linecap="butt" stroke-linejoin="round" stroke-miterlimit="10" stroke-opacity="1" fill="#FABE4F" fill-opacity="1"/><text fill="#14181D" fill-opacity="1" font-family="Arial,Arial_MSFontService,sans-serif" font-style="normal" font-variant="normal" font-weight="400" font-stretch="normal" font-size="110" text-anchor="start" direction="ltr" writing-mode="lr-tb" unicode-bidi="normal" text-decoration="none" transform="matrix(6.12323e-17 -1 1 6.12323e-17 8740.54 22125)">Use</text><rect x="8928" y="21650" width="210" height="220" stroke="#14181D" stroke-width="10.0833" stroke-linecap="butt" stroke-linejoin="round" stroke-miterlimit="10" stroke-opacity="1" fill="#FFD48F" fill-opacity="1"/><text fill="#14181D" fill-opacity="1" font-family="Arial,Arial_MSFontService,sans-serif" font-style="normal" font-variant="normal" font-weight="400" font-stretch="normal" font-size="73" text-anchor="start" direction="ltr" writing-mode="lr-tb" unicode-bidi="normal" text-decoration="none" transform="matrix(6.12323e-17 -1 1 6.12323e-17 9060.4 21825)">Use</text><path d="M8369.5 22654.5 8369.5 22693.5" stroke="#14181D" stroke-width="11.3436" stroke-linecap="round" stroke-linejoin="round" stroke-miterlimit="10" stroke-opacity="1" fill="none" fill-rule="evenodd"/><path d="M9697.5 22654.5 9697.5 22693.5" stroke="#14181D" stroke-width="11.3436" stroke-linecap="round" stroke-linejoin="round" stroke-miterlimit="10" stroke-opacity="1" fill="none" fill-rule="evenodd"/><rect x="8264" y="22185" width="209" height="467" stroke="#14181D" stroke-width="10.0833" stroke-linecap="butt" stroke-linejoin="round" stroke-miterlimit="10" stroke-opacity="1" fill="#58AB27" fill-opacity="1"/><text fill="#14181D" fill-opacity="1" font-family="Arial,Arial_MSFontService,sans-serif" font-style="normal" font-variant="normal" font-weight="400" font-stretch="normal" font-size="110" text-anchor="start" direction="ltr" writing-mode="lr-tb" unicode-bidi="normal" text-decoration="none" transform="matrix(6.12323e-17 -1 1 6.12323e-17 8409.5 22593)">Constr.</text><path d="M8132 22647 9932.04 22647 9932.04 22657 8132 22657ZM9904.33 22630 9942.05 22652 9904.33 22674C9901.93 22675.4 9898.84 22674.6 9897.44 22672.2 9896.03 22669.8 9896.85 22666.7 9899.25 22665.3L9929.5 22647.6 9929.5 22656.4 9899.25 22638.7C9896.85 22637.3 9896.03 22634.2 9897.44 22631.8 9898.84 22629.4 9901.93 22628.6 9904.33 22630Z" fill="#14181D" fill-rule="nonzero" fill-opacity="1"/><path d="M5.04167-9.00545e-07 5.04203 2010.46-5.04131 2010.46-5.04167 9.00545e-07ZM22.0011 1982.75 0.00036049 2020.46-22.0004 1982.75-22.0004 1982.75C-23.4034 1980.34-22.591 1977.26-20.1858 1975.85-17.7807 1974.45-14.6936 1975.26-13.2906 1977.67L-13.2906 1977.67 4.35524 2007.92-4.35453 2007.92 13.2913 1977.67C14.6943 1975.26 17.7814 1974.45 20.1865 1975.85 22.5917 1977.26 23.4041 1980.34 22.0011 1982.75Z" fill="#14181D" fill-rule="nonzero" fill-opacity="1" transform="matrix(1 0 0 -1 8132 22656.4)"/><text fill="#14181D" fill-opacity="1" font-family="Arial,Arial_MSFontService,sans-serif" font-style="normal" font-variant="normal" font-weight="400" font-stretch="normal" font-size="110" text-anchor="start" direction="ltr" writing-mode="lr-tb" unicode-bidi="normal" text-decoration="none" transform="matrix(-1.83697e-16 -1 1 -1.83697e-16 8088.21 22196)">e</text><text fill="#14181D" fill-opacity="1" font-family="Arial,Arial_MSFontService,sans-serif" font-style="normal" font-variant="normal" font-weight="400" font-stretch="normal" font-size="110" text-anchor="start" direction="ltr" writing-mode="lr-tb" unicode-bidi="normal" text-decoration="none" transform="matrix(-1.83697e-16 -1 1 -1.83697e-16 8088.21 22135)">nvironmental impacts</text><path d="M8700.5 22654.5 8700.5 22693.5" stroke="#14181D" stroke-width="11.3436" stroke-linecap="round" stroke-linejoin="round" stroke-miterlimit="10" stroke-opacity="1" fill="none" fill-rule="evenodd"/><path d="M9033.5 22654.5 9033.5 22693.5" stroke="#14181D" stroke-width="11.3436" stroke-linecap="round" stroke-linejoin="round" stroke-miterlimit="10" stroke-opacity="1" fill="none" fill-rule="evenodd"/><path d="M9365.5 22654.5 9365.5 22693.5" stroke="#14181D" stroke-width="11.3436" stroke-linecap="round" stroke-linejoin="round" stroke-miterlimit="10" stroke-opacity="1" fill="none" fill-rule="evenodd"/><text fill="#14181D" fill-opacity="1" font-family="Arial,Arial_MSFontService,sans-serif" font-style="italic" font-variant="normal" font-weight="400" font-stretch="normal" font-size="101" text-anchor="start" direction="ltr" writing-mode="lr-tb" unicode-bidi="normal" text-decoration="none" transform="matrix(0.707107 -0.707107 0.707107 0.707107 8246.07 22947)">2025</text><text fill="#14181D" fill-opacity="1" font-family="Arial,Arial_MSFontService,sans-serif" font-style="italic" font-variant="normal" font-weight="400" font-stretch="normal" font-size="101" text-anchor="start" direction="ltr" writing-mode="lr-tb" unicode-bidi="normal" text-decoration="none" transform="matrix(0.707107 -0.707107 0.707107 0.707107 8580.04 22947)">2030</text><text fill="#14181D" fill-opacity="1" font-family="Arial,Arial_MSFontService,sans-serif" font-style="italic" font-variant="normal" font-weight="400" font-stretch="normal" font-size="101" text-anchor="start" direction="ltr" writing-mode="lr-tb" unicode-bidi="normal" text-decoration="none" transform="matrix(0.707107 -0.707107 0.707107 0.707107 8914.02 22947)">2035</text><text fill="#14181D" fill-opacity="1" font-family="Arial,Arial_MSFontService,sans-serif" font-style="italic" font-variant="normal" font-weight="400" font-stretch="normal" font-size="101" text-anchor="start" direction="ltr" writing-mode="lr-tb" unicode-bidi="normal" text-decoration="none" transform="matrix(0.707107 -0.707107 0.707107 0.707107 9248 22947)">2040</text><text fill="#14181D" fill-opacity="1" font-family="Arial,Arial_MSFontService,sans-serif" font-style="italic" font-variant="normal" font-weight="400" font-stretch="normal" font-size="101" text-anchor="start" direction="ltr" writing-mode="lr-tb" unicode-bidi="normal" text-decoration="none" transform="matrix(0.707107 -0.707107 0.707107 0.707107 9581.98 22947)">2045</text><path d="M8439.5 20289.5C8439.5 20301.1 8405.92 20310.5 8364.5 20310.5 8323.08 20310.5 8289.5 20301.1 8289.5 20289.5 8289.5 20277.9 8323.08 20268.5 8364.5 20268.5 8405.92 20268.5 8439.5 20277.9 8439.5 20289.5Z" stroke="#000000" stroke-width="5.04167" stroke-linecap="butt" stroke-linejoin="miter" stroke-miterlimit="8" stroke-opacity="1" fill="#7A6FAC" fill-rule="evenodd" fill-opacity="1"/><path d="M8418.07 20341.5C8414.86 20341.5 8412.71 20339.4 8412.71 20336.2 8412.71 20333.1 8414.86 20331 8418.07 20331 8421.29 20331 8423.43 20333.1 8423.43 20336.2 8423.43 20339.4 8421.29 20341.5 8418.07 20341.5ZM8364.5 20320.5C8323.25 20320.5 8289.5 20311.1 8289.5 20299.5L8289.5 20341.5C8289.5 20353.1 8323.25 20362.5 8364.5 20362.5 8405.75 20362.5 8439.5 20353.1 8439.5 20341.5L8439.5 20299.5C8439.5 20311.1 8405.75 20320.5 8364.5 20320.5Z" stroke="#000000" stroke-width="5.04167" stroke-linecap="butt" stroke-linejoin="miter" stroke-miterlimit="8" stroke-opacity="1" fill="#7A6FAC" fill-rule="evenodd" fill-opacity="1"/><path d="M8418.07 20394.5C8414.86 20394.5 8412.71 20392.4 8412.71 20389.2 8412.71 20386.1 8414.86 20384 8418.07 20384 8421.29 20384 8423.43 20386.1 8423.43 20389.2 8423.43 20392.4 8421.29 20394.5 8418.07 20394.5ZM8364.5 20373.5C8323.25 20373.5 8289.5 20364.1 8289.5 20352.5L8289.5 20394.5C8289.5 20406.1 8323.25 20415.5 8364.5 20415.5 8405.75 20415.5 8439.5 20406.1 8439.5 20394.5L8439.5 20352.5C8439.5 20364.1 8405.75 20373.5 8364.5 20373.5Z" stroke="#000000" stroke-width="5.04167" stroke-linecap="butt" stroke-linejoin="miter" stroke-miterlimit="8" stroke-opacity="1" fill="#F7A800" fill-rule="evenodd" fill-opacity="1"/><path d="M8418.07 20446.5C8414.86 20446.5 8412.71 20444.4 8412.71 20441.2 8412.71 20438.1 8414.86 20436 8418.07 20436 8421.29 20436 8423.43 20438.1 8423.43 20441.2 8423.43 20444.4 8421.29 20446.5 8418.07 20446.5ZM8364.5 20425.5C8323.25 20425.5 8289.5 20416.1 8289.5 20404.5L8289.5 20446.5C8289.5 20458.1 8323.25 20467.5 8364.5 20467.5 8405.75 20467.5 8439.5 20458.1 8439.5 20446.5L8439.5 20404.5C8439.5 20416.1 8405.75 20425.5 8364.5 20425.5Z" stroke="#000000" stroke-width="5.04167" stroke-linecap="butt" stroke-linejoin="miter" stroke-miterlimit="8" stroke-opacity="1" fill="#58AB27" fill-rule="evenodd" fill-opacity="1"/><path d="M8774.5 20289.5C8774.5 20301.1 8741.15 20310.5 8700 20310.5 8658.85 20310.5 8625.5 20301.1 8625.5 20289.5 8625.5 20277.9 8658.85 20268.5 8700 20268.5 8741.15 20268.5 8774.5 20277.9 8774.5 20289.5Z" stroke="#000000" stroke-width="5.04167" stroke-linecap="butt" stroke-linejoin="miter" stroke-miterlimit="8" stroke-opacity="1" fill="#8478BE" fill-rule="evenodd" fill-opacity="1"/><path d="M8753.21 20341.5C8750.02 20341.5 8747.89 20339.4 8747.89 20336.2 8747.89 20333.1 8750.02 20331 8753.21 20331 8756.41 20331 8758.54 20333.1 8758.54 20336.2 8758.54 20339.4 8756.41 20341.5 8753.21 20341.5ZM8700 20320.5C8659.03 20320.5 8625.5 20311.1 8625.5 20299.5L8625.5 20341.5C8625.5 20353.1 8659.03 20362.5 8700 20362.5 8740.98 20362.5 8774.5 20353.1 8774.5 20341.5L8774.5 20299.5C8774.5 20311.1 8740.98 20320.5 8700 20320.5Z" stroke="#000000" stroke-width="5.04167" stroke-linecap="butt" stroke-linejoin="miter" stroke-miterlimit="8" stroke-opacity="1" fill="#8478BE" fill-rule="evenodd" fill-opacity="1"/><path d="M8753.21 20394.5C8750.02 20394.5 8747.89 20392.4 8747.89 20389.2 8747.89 20386.1 8750.02 20384 8753.21 20384 8756.41 20384 8758.54 20386.1 8758.54 20389.2 8758.54 20392.4 8756.41 20394.5 8753.21 20394.5ZM8700 20373.5C8659.03 20373.5 8625.5 20364.1 8625.5 20352.5L8625.5 20394.5C8625.5 20406.1 8659.03 20415.5 8700 20415.5 8740.98 20415.5 8774.5 20406.1 8774.5 20394.5L8774.5 20352.5C8774.5 20364.1 8740.98 20373.5 8700 20373.5Z" stroke="#000000" stroke-width="5.04167" stroke-linecap="butt" stroke-linejoin="miter" stroke-miterlimit="8" stroke-opacity="1" fill="#FABE4F" fill-rule="evenodd" fill-opacity="1"/><path d="M8753.21 20446.5C8750.02 20446.5 8747.89 20444.4 8747.89 20441.2 8747.89 20438.1 8750.02 20436 8753.21 20436 8756.41 20436 8758.54 20438.1 8758.54 20441.2 8758.54 20444.4 8756.41 20446.5 8753.21 20446.5ZM8700 20425.5C8659.03 20425.5 8625.5 20416.1 8625.5 20404.5L8625.5 20446.5C8625.5 20458.1 8659.03 20467.5 8700 20467.5 8740.98 20467.5 8774.5 20458.1 8774.5 20446.5L8774.5 20404.5C8774.5 20416.1 8740.98 20425.5 8700 20425.5Z" stroke="#000000" stroke-width="5.04167" stroke-linecap="butt" stroke-linejoin="miter" stroke-miterlimit="8" stroke-opacity="1" fill="#88BA5E" fill-rule="evenodd" fill-opacity="1"/><path d="M9110.5 20289.5C9110.5 20301.1 9076.92 20310.5 9035.5 20310.5 8994.08 20310.5 8960.5 20301.1 8960.5 20289.5 8960.5 20277.9 8994.08 20268.5 9035.5 20268.5 9076.92 20268.5 9110.5 20277.9 9110.5 20289.5Z" stroke="#000000" stroke-width="5.04167" stroke-linecap="butt" stroke-linejoin="miter" stroke-miterlimit="8" stroke-opacity="1" fill="#938BBB" fill-rule="evenodd" fill-opacity="1"/><path d="M9089.07 20341.5C9085.86 20341.5 9083.71 20339.4 9083.71 20336.2 9083.71 20333.1 9085.86 20331 9089.07 20331 9092.29 20331 9094.43 20333.1 9094.43 20336.2 9094.43 20339.4 9092.29 20341.5 9089.07 20341.5ZM9035.5 20320.5C8994.25 20320.5 8960.5 20311.1 8960.5 20299.5L8960.5 20341.5C8960.5 20353.1 8994.25 20362.5 9035.5 20362.5 9076.75 20362.5 9110.5 20353.1 9110.5 20341.5L9110.5 20299.5C9110.5 20311.1 9076.75 20320.5 9035.5 20320.5Z" stroke="#000000" stroke-width="5.04167" stroke-linecap="butt" stroke-linejoin="miter" stroke-miterlimit="8" stroke-opacity="1" fill="#938BBB" fill-rule="evenodd" fill-opacity="1"/><path d="M9089.07 20394.5C9085.86 20394.5 9083.71 20392.4 9083.71 20389.2 9083.71 20386.1 9085.86 20384 9089.07 20384 9092.29 20384 9094.43 20386.1 9094.43 20389.2 9094.43 20392.4 9092.29 20394.5 9089.07 20394.5ZM9035.5 20373.5C8994.25 20373.5 8960.5 20364.1 8960.5 20352.5L8960.5 20394.5C8960.5 20406.1 8994.25 20415.5 9035.5 20415.5 9076.75 20415.5 9110.5 20406.1 9110.5 20394.5L9110.5 20352.5C9110.5 20364.1 9076.75 20373.5 9035.5 20373.5Z" stroke="#000000" stroke-width="5.04167" stroke-linecap="butt" stroke-linejoin="miter" stroke-miterlimit="8" stroke-opacity="1" fill="#FFC553" fill-rule="evenodd" fill-opacity="1"/><path d="M9089.07 20446.5C9085.86 20446.5 9083.71 20444.4 9083.71 20441.2 9083.71 20438.1 9085.86 20436 9089.07 20436 9092.29 20436 9094.43 20438.1 9094.43 20441.2 9094.43 20444.4 9092.29 20446.5 9089.07 20446.5ZM9035.5 20425.5C8994.25 20425.5 8960.5 20416.1 8960.5 20404.5L8960.5 20446.5C8960.5 20458.1 8994.25 20467.5 9035.5 20467.5 9076.75 20467.5 9110.5 20458.1 9110.5 20446.5L9110.5 20404.5C9110.5 20416.1 9076.75 20425.5 9035.5 20425.5Z" stroke="#000000" stroke-width="5.04167" stroke-linecap="butt" stroke-linejoin="miter" stroke-miterlimit="8" stroke-opacity="1" fill="#8DC05F" fill-rule="evenodd" fill-opacity="1"/><path d="M9446.5 20289.5C9446.5 20301.1 9412.92 20310.5 9371.5 20310.5 9330.08 20310.5 9296.5 20301.1 9296.5 20289.5 9296.5 20277.9 9330.08 20268.5 9371.5 20268.5 9412.92 20268.5 9446.5 20277.9 9446.5 20289.5Z" stroke="#000000" stroke-width="5.04167" stroke-linecap="butt" stroke-linejoin="miter" stroke-miterlimit="8" stroke-opacity="1" fill="#9B91C2" fill-rule="evenodd" fill-opacity="1"/><path d="M9425.07 20341.5C9421.86 20341.5 9419.71 20339.4 9419.71 20336.2 9419.71 20333.1 9421.86 20331 9425.07 20331 9428.29 20331 9430.43 20333.1 9430.43 20336.2 9430.43 20339.4 9428.29 20341.5 9425.07 20341.5ZM9371.5 20320.5C9330.25 20320.5 9296.5 20311.1 9296.5 20299.5L9296.5 20341.5C9296.5 20353.1 9330.25 20362.5 9371.5 20362.5 9412.75 20362.5 9446.5 20353.1 9446.5 20341.5L9446.5 20299.5C9446.5 20311.1 9412.75 20320.5 9371.5 20320.5Z" stroke="#000000" stroke-width="5.04167" stroke-linecap="butt" stroke-linejoin="miter" stroke-miterlimit="8" stroke-opacity="1" fill="#9B91C2" fill-rule="evenodd" fill-opacity="1"/><path d="M9425.07 20394.5C9421.86 20394.5 9419.71 20392.4 9419.71 20389.2 9419.71 20386.1 9421.86 20384 9425.07 20384 9428.29 20384 9430.43 20386.1 9430.43 20389.2 9430.43 20392.4 9428.29 20394.5 9425.07 20394.5ZM9371.5 20373.5C9330.25 20373.5 9296.5 20364.1 9296.5 20352.5L9296.5 20394.5C9296.5 20406.1 9330.25 20415.5 9371.5 20415.5 9412.75 20415.5 9446.5 20406.1 9446.5 20394.5L9446.5 20352.5C9446.5 20364.1 9412.75 20373.5 9371.5 20373.5Z" stroke="#000000" stroke-width="5.04167" stroke-linecap="butt" stroke-linejoin="miter" stroke-miterlimit="8" stroke-opacity="1" fill="#F4CC8B" fill-rule="evenodd" fill-opacity="1"/><path d="M9425.07 20446.5C9421.86 20446.5 9419.71 20444.4 9419.71 20441.2 9419.71 20438.1 9421.86 20436 9425.07 20436 9428.29 20436 9430.43 20438.1 9430.43 20441.2 9430.43 20444.4 9428.29 20446.5 9425.07 20446.5ZM9371.5 20425.5C9330.25 20425.5 9296.5 20416.1 9296.5 20404.5L9296.5 20446.5C9296.5 20458.1 9330.25 20467.5 9371.5 20467.5 9412.75 20467.5 9446.5 20458.1 9446.5 20446.5L9446.5 20404.5C9446.5 20416.1 9412.75 20425.5 9371.5 20425.5Z" stroke="#000000" stroke-width="5.04167" stroke-linecap="butt" stroke-linejoin="miter" stroke-miterlimit="8" stroke-opacity="1" fill="#A5CB82" fill-rule="evenodd" fill-opacity="1"/><path d="M9781.5 20289.5C9781.5 20301.1 9747.92 20310.5 9706.5 20310.5 9665.08 20310.5 9631.5 20301.1 9631.5 20289.5 9631.5 20277.9 9665.08 20268.5 9706.5 20268.5 9747.92 20268.5 9781.5 20277.9 9781.5 20289.5Z" stroke="#000000" stroke-width="5.04167" stroke-linecap="butt" stroke-linejoin="miter" stroke-miterlimit="8" stroke-opacity="1" fill="#B4A8E1" fill-rule="evenodd" fill-opacity="1"/><path d="M9760.07 20341.5C9756.86 20341.5 9754.71 20339.4 9754.71 20336.2 9754.71 20333.1 9756.86 20331 9760.07 20331 9763.29 20331 9765.43 20333.1 9765.43 20336.2 9765.43 20339.4 9763.29 20341.5 9760.07 20341.5ZM9706.5 20320.5C9665.25 20320.5 9631.5 20311.1 9631.5 20299.5L9631.5 20341.5C9631.5 20353.1 9665.25 20362.5 9706.5 20362.5 9747.75 20362.5 9781.5 20353.1 9781.5 20341.5L9781.5 20299.5C9781.5 20311.1 9747.75 20320.5 9706.5 20320.5Z" stroke="#000000" stroke-width="5.04167" stroke-linecap="butt" stroke-linejoin="miter" stroke-miterlimit="8" stroke-opacity="1" fill="#B4A8E1" fill-rule="evenodd" fill-opacity="1"/><path d="M9760.07 20394.5C9756.86 20394.5 9754.71 20392.4 9754.71 20389.2 9754.71 20386.1 9756.86 20384 9760.07 20384 9763.29 20384 9765.43 20386.1 9765.43 20389.2 9765.43 20392.4 9763.29 20394.5 9760.07 20394.5ZM9706.5 20373.5C9665.25 20373.5 9631.5 20364.1 9631.5 20352.5L9631.5 20394.5C9631.5 20406.1 9665.25 20415.5 9706.5 20415.5 9747.75 20415.5 9781.5 20406.1 9781.5 20394.5L9781.5 20352.5C9781.5 20364.1 9747.75 20373.5 9706.5 20373.5Z" stroke="#000000" stroke-width="5.04167" stroke-linecap="butt" stroke-linejoin="miter" stroke-miterlimit="8" stroke-opacity="1" fill="#FED48F" fill-rule="evenodd" fill-opacity="1"/><path d="M9760.07 20446.5C9756.86 20446.5 9754.71 20444.4 9754.71 20441.2 9754.71 20438.1 9756.86 20436 9760.07 20436 9763.29 20436 9765.43 20438.1 9765.43 20441.2 9765.43 20444.4 9763.29 20446.5 9760.07 20446.5ZM9706.5 20425.5C9665.25 20425.5 9631.5 20416.1 9631.5 20404.5L9631.5 20446.5C9631.5 20458.1 9665.25 20467.5 9706.5 20467.5 9747.75 20467.5 9781.5 20458.1 9781.5 20446.5L9781.5 20404.5C9781.5 20416.1 9747.75 20425.5 9706.5 20425.5Z" stroke="#000000" stroke-width="5.04167" stroke-linecap="butt" stroke-linejoin="miter" stroke-miterlimit="8" stroke-opacity="1" fill="#C4E3A6" fill-rule="evenodd" fill-opacity="1"/><text fill="#14181D" fill-opacity="1" font-family="Arial,Arial_MSFontService,sans-serif" font-style="italic" font-variant="normal" font-weight="400" font-stretch="normal" font-size="101" text-anchor="start" direction="ltr" writing-mode="lr-tb" unicode-bidi="normal" text-decoration="none" transform="matrix(1 0 0 1 8269.03 20590)">2025</text><text fill="#14181D" fill-opacity="1" font-family="Arial,Arial_MSFontService,sans-serif" font-style="italic" font-variant="normal" font-weight="400" font-stretch="normal" font-size="101" text-anchor="start" direction="ltr" writing-mode="lr-tb" unicode-bidi="normal" text-decoration="none" transform="matrix(1 0 0 1 8605.81 20590)">2030</text><text fill="#14181D" fill-opacity="1" font-family="Arial,Arial_MSFontService,sans-serif" font-style="italic" font-variant="normal" font-weight="400" font-stretch="normal" font-size="101" text-anchor="start" direction="ltr" writing-mode="lr-tb" unicode-bidi="normal" text-decoration="none" transform="matrix(1 0 0 1 8942.59 20590)">2035</text><text fill="#14181D" fill-opacity="1" font-family="Arial,Arial_MSFontService,sans-serif" font-style="italic" font-variant="normal" font-weight="400" font-stretch="normal" font-size="101" text-anchor="start" direction="ltr" writing-mode="lr-tb" unicode-bidi="normal" text-decoration="none" transform="matrix(1 0 0 1 9279.38 20590)">2040</text><text fill="#14181D" fill-opacity="1" font-family="Arial,Arial_MSFontService,sans-serif" font-style="italic" font-variant="normal" font-weight="400" font-stretch="normal" font-size="101" text-anchor="start" direction="ltr" writing-mode="lr-tb" unicode-bidi="normal" text-decoration="none" transform="matrix(1 0 0 1 9616.16 20590)">2045</text><rect x="9592" y="21345" width="210" height="172" stroke="#14181D" stroke-width="10.0833" stroke-linecap="butt" stroke-linejoin="round" stroke-miterlimit="10" stroke-opacity="1" fill="#BCB5D7" fill-opacity="1"/><text fill="#14181D" fill-opacity="1" font-family="Arial,Arial_MSFontService,sans-serif" font-style="normal" font-variant="normal" font-weight="400" font-stretch="normal" font-size="73" text-anchor="start" direction="ltr" writing-mode="lr-tb" unicode-bidi="normal" text-decoration="none" transform="matrix(6.12323e-17 -1 1 6.12323e-17 9724.45 21496)">EoL</text><path d="M8372.04 20664 8372.04 22150.1C8372.04 22152.9 8369.79 22155.1 8367 22155.1 8364.22 22155.1 8361.96 22152.9 8361.96 22150.1L8361.96 20664C8361.96 20661.2 8364.22 20659 8367 20659 8369.78 20659 8372.04 20661.2 8372.04 20664ZM8389 22122.4 8367 22160.1 8345 22122.4C8343.6 22120 8344.41 22116.9 8346.81 22115.5 8349.22 22114.1 8352.31 22114.9 8353.71 22117.3L8371.36 22147.5 8362.65 22147.5 8380.29 22117.3C8381.69 22114.9 8384.78 22114.1 8387.19 22115.5 8389.59 22116.9 8390.4 22120 8389 22122.4Z" fill="#14181D" fill-rule="nonzero" fill-opacity="1"/><path d="M8703.04 20664 8703.04 21833.8C8703.04 21836.6 8700.79 21838.9 8698 21838.9 8695.22 21838.9 8692.96 21836.6 8692.96 21833.8L8692.96 20664C8692.96 20661.2 8695.22 20659 8698 20659 8700.78 20659 8703.04 20661.2 8703.04 20664ZM8720 21806.1 8698 21843.8 8676 21806.1C8674.6 21803.7 8675.41 21800.6 8677.81 21799.2 8680.22 21797.8 8683.31 21798.6 8684.71 21801L8702.36 21831.3 8693.65 21831.3 8711.29 21801C8712.69 21798.6 8715.78 21797.8 8718.19 21799.2 8720.59 21800.6 8721.4 21803.7 8720 21806.1Z" fill="#14181D" fill-rule="nonzero" fill-opacity="1"/><path d="M9037.04 20664 9037.04 21609.2C9037.04 21612 9034.79 21614.3 9032 21614.3 9029.22 21614.3 9026.96 21612 9026.96 21609.2L9026.96 20664C9026.96 20661.2 9029.22 20659 9032 20659 9034.78 20659 9037.04 20661.2 9037.04 20664ZM9054 21581.5 9032 21619.2 9010 21581.5C9008.6 21579.1 9009.41 21576 9011.81 21574.6 9014.22 21573.2 9017.31 21574 9018.71 21576.5L9036.36 21606.7 9027.65 21606.7 9045.29 21576.5C9046.69 21574 9049.78 21573.2 9052.19 21574.6 9054.59 21576 9055.4 21579.1 9054 21581.5Z" fill="#14181D" fill-rule="nonzero" fill-opacity="1"/><path d="M9369.04 20664 9369.04 21477C9369.04 21479.8 9366.79 21482 9364 21482 9361.22 21482 9358.96 21479.8 9358.96 21477L9358.96 20664C9358.96 20661.2 9361.22 20659 9364 20659 9366.78 20659 9369.04 20661.2 9369.04 20664ZM9386 21449.3 9364 21487 9342 21449.3C9340.6 21446.9 9341.41 21443.8 9343.81 21442.4 9346.22 21441 9349.31 21441.8 9350.71 21444.2L9368.36 21474.4 9359.65 21474.4 9377.29 21444.2C9378.69 21441.8 9381.78 21441 9384.19 21442.4 9386.59 21443.8 9387.4 21446.9 9386 21449.3Z" fill="#14181D" fill-rule="nonzero" fill-opacity="1"/><path d="M9701.04 20664 9701.04 21305.2C9701.04 21308 9698.79 21310.3 9696 21310.3 9693.22 21310.3 9690.96 21308 9690.96 21305.2L9690.96 20664C9690.96 20661.2 9693.22 20659 9696 20659 9698.78 20659 9701.04 20661.2 9701.04 20664ZM9718 21277.5 9696 21315.2 9674 21277.5C9672.6 21275.1 9673.41 21272 9675.81 21270.6 9678.22 21269.2 9681.31 21270 9682.71 21272.4L9700.36 21302.7 9691.65 21302.7 9709.29 21272.4C9710.69 21270 9713.78 21269.2 9716.19 21270.6 9718.59 21272 9719.4 21275.1 9718 21277.5Z" fill="#14181D" fill-rule="nonzero" fill-opacity="1"/><path d="M4656 21354C4656 21238.6 4749.57 21145 4865 21145 4980.43 21145 5074 21238.6 5074 21354 5074 21469.4 4980.43 21563 4865 21563 4749.57 21563 4656 21469.4 4656 21354Z" fill="#3FB0C4" fill-rule="evenodd" fill-opacity="1"/><text fill="#FFFFFF" fill-opacity="1" font-family="Arial,Arial_MSFontService,sans-serif" font-style="normal" font-variant="normal" font-weight="400" font-stretch="normal" font-size="376" text-anchor="start" direction="ltr" writing-mode="lr-tb" unicode-bidi="normal" text-decoration="none" transform="matrix(1 0 0 1 4755.28 21494)">+</text><path d="M7399 21258 7603 21258 7603 21162 7795 21354 7603 21546 7603 21450 7399 21450Z" fill="#3FB0C4" fill-rule="evenodd" fill-opacity="1"/><path d="M4232.04 20636 4232.04 21715.9C4232.04 21718.7 4229.78 21721 4227 21721 4224.22 21721 4221.96 21718.7 4221.96 21715.9L4221.96 20636C4221.96 20633.2 4224.22 20631 4227 20631 4229.78 20631 4232.04 20633.2 4232.04 20636ZM4249 21688.2 4227 21725.9 4205 21688.2C4203.6 21685.8 4204.41 21682.7 4206.81 21681.3 4209.22 21679.9 4212.31 21680.7 4213.71 21683.1L4231.36 21713.4 4222.65 21713.4 4240.29 21683.1C4241.69 21680.7 4244.78 21679.9 4247.19 21681.3 4249.59 21682.7 4250.4 21685.8 4249 21688.2Z" fill="#14181D" fill-rule="nonzero" fill-opacity="1"/><path d="M561.09 194.355 569.59 213.103 577.914 232.638 586.007 252.831 593.868 273.665 601.494 295.123 608.881 317.185 616.028 339.835 622.931 363.054 629.587 386.825 635.995 411.13 642.15 435.951 648.05 461.271 653.692 487.07 659.073 513.332 664.19 540.039 669.04 567.172 673.62 594.714 677.926 622.646 685.704 679.583 692.358 737.895 697.857 797.41 702.177 857.983 705.295 919.472 707.184 981.73 707.74 1036.75C707.768 1039.53 705.534 1041.81 702.75 1041.84 699.965 1041.87 697.685 1039.64 697.657 1036.85L697.105 982.036 695.224 919.982 692.12 858.701 687.816 798.337 682.339 739.038 675.714 680.947 667.961 624.182 663.673 596.368 659.114 568.946 654.287 541.936 649.195 515.356 643.842 489.224 638.23 463.559 632.363 438.378 626.245 413.7 619.878 389.544 613.265 365.927 606.412 342.868 599.319 320.386 591.992 298.499 584.434 277.225 576.647 256.582 568.637 236.59 560.406 217.266 551.906 198.519C550.757 195.983 551.88 192.995 554.417 191.845 556.952 190.695 559.94 191.819 561.09 194.355ZM731.506 1009.49 702.778 1044.68 673.346 1010.07C671.542 1007.95 671.799 1004.77 673.92 1002.97 676.041 1001.16 679.223 1001.42 681.027 1003.54L706.539 1033.53 698.793 1033.61 723.695 1003.11C725.456 1000.95 728.632 1000.63 730.789 1002.39 732.946 1004.15 733.267 1007.33 731.506 1009.49Z" fill="#14181D" fill-rule="nonzero" fill-opacity="1" transform="matrix(-0.767886 0.640586 0.640586 0.767886 5965.39 20126.4)"/></g></g></svg>
