<?xml version="1.0" encoding="UTF-8"?>
<svg id="Layer_1" data-name="Layer 1" xmlns="http://www.w3.org/2000/svg" version="1.1" viewBox="0 0 2008 1659">
  <defs>
    <style>
      .cls-1, .cls-2, .cls-3, .cls-4, .cls-5, .cls-6, .cls-7 {
        isolation: isolate;
      }

      .cls-1, .cls-2, .cls-4, .cls-6 {
        font-size: 83px;
      }

      .cls-1, .cls-2, .cls-7 {
        font-family: ArialMT, Arial;
      }

      .cls-1, .cls-7 {
        fill: #000;
      }

      .cls-8 {
        fill: #e8f2fa;
        fill-rule: evenodd;
      }

      .cls-8, .cls-9 {
        stroke-width: 0px;
      }

      .cls-2, .cls-3, .cls-4, .cls-5, .cls-9, .cls-6 {
        fill: #fff;
      }

      .cls-3 {
        font-family: Arial-BoldMT, Arial;
        font-size: 110px;
        font-weight: 700;
      }

      .cls-4 {
        font-family: MyriadPro-Regular, 'Myriad Pro';
      }

      .cls-5, .cls-6 {
        font-family: Arial-ItalicMT, Arial;
        font-style: italic;
      }

      .cls-5, .cls-7 {
        font-size: 55px;
      }

      .cls-10 {
        stroke-linecap: round;
      }

      .cls-10, .cls-11 {
        fill: none;
        stroke: #fff;
        stroke-linejoin: round;
        stroke-width: 9.2px;
      }
    </style>
  </defs>
  <path class="cls-11" d="M458.5,617.3c0-26.9,21.9-48.8,48.8-48.8h310.3c27,0,48.8,21.9,48.8,48.8v195.4c0,26.9-21.9,48.8-48.8,48.8h-310.3c-27,0-48.8-21.9-48.8-48.8v-195.4Z"/>
  <text class="cls-3" transform="translate(622.3 756)"><tspan x="0" y="0">B</tspan></text>
  <path class="cls-9" d="M1312.5,714.9h274.1c2.5,0,4.6,2.1,4.6,4.6s-2,4.6-4.6,4.6h-274.1c-2.5,0-4.6-2.1-4.6-4.6s2.1-4.6,4.6-4.6ZM1562,693.1l31.7,26.4-31.7,26.4c-1.9,1.7-4.8,1.4-6.5-.5-1.6-2-1.4-4.9.6-6.5h0l27.5-22.9v7l-27.5-22.9c-1.9-1.6-2.2-4.5-.6-6.5,1.6-1.9,4.5-2.2,6.5-.5Z"/>
  <path class="cls-11" d="M1594.5,621.3c0-26.9,21.9-48.8,48.8-48.8h310.3c27,0,48.8,21.9,48.8,48.8v195.4c0,26.9-21.9,48.8-48.8,48.8h-310.3c-27,0-48.8-21.9-48.8-48.8v-195.4Z"/>
  <text class="cls-3" transform="translate(1757.7 760)"><tspan x="0" y="0">A</tspan></text>
  <text class="cls-6" transform="translate(741.3 108)"><tspan x="0" y="0">„A </tspan></text>
  <text class="cls-6" transform="translate(843.6 108)"><tspan x="0" y="0">consumes</tspan></text>
  <text class="cls-6" transform="translate(1242.4 108)"><tspan x="0" y="0">2 </tspan></text>
  <text class="cls-4" transform="translate(1313.1 108)"><tspan x="0" y="0">x</tspan></text>
  <text class="cls-2" transform="translate(1351.2 108)"><tspan x="0" y="0"> </tspan></text>
  <text class="cls-6" transform="translate(1369.6 108)"><tspan x="0" y="0">20% </tspan></text>
  <text class="cls-6" transform="translate(1557.5 108)"><tspan x="0" y="0">of</tspan></text>
  <text class="cls-6" transform="translate(1649.1 108)"><tspan x="0" y="0">B </tspan></text>
  <text class="cls-6" transform="translate(741.3 207)"><tspan x="0" y="0">at </tspan></text>
  <text class="cls-6" transform="translate(832.9 207)"><tspan x="0" y="0">t</tspan></text>
  <text class="cls-5" transform="translate(855.9 227)"><tspan x="0" y="0">A</tspan></text>
  <text class="cls-6" transform="translate(913.4 207)"><tspan x="0" y="0">and 2 </tspan></text>
  <text class="cls-4" transform="translate(1144.6 207)"><tspan x="0" y="0">x</tspan></text>
  <text class="cls-2" transform="translate(1182.7 207)"><tspan x="0" y="0"> </tspan></text>
  <text class="cls-6" transform="translate(1201 207)"><tspan x="0" y="0">80% at </tspan></text>
  <text class="cls-6" transform="translate(1480.6 207)"><tspan x="0" y="0">t</tspan></text>
  <text class="cls-5" transform="translate(1503.5 227)"><tspan x="0" y="0">A</tspan></text>
  <text class="cls-6" transform="translate(1540.2 207)"><tspan x="0" y="0">+1”</tspan></text>
  <text class="cls-3" transform="translate(1199.5 760)"><tspan x="0" y="0">2</tspan></text>
  <text class="cls-3" transform="translate(1088 1093)"><tspan x="0" y="0">e</tspan></text>
  <text class="cls-3" transform="translate(1149.4 1093)"><tspan x="0" y="0">mission X</tspan></text>
  <text class="cls-3" transform="translate(768.8 1037)"><tspan x="0" y="0">5</tspan></text>
  <path class="cls-8" d="M928,321.2c0-21.7,17.5-39.2,39.2-39.2h532.7c21.6,0,39.2,17.5,39.2,39.2v156.6c0,21.7-17.5,39.2-39.2,39.2h-532.7c-21.6,0-39.2-17.5-39.2-39.2v-156.6Z"/>
  <text class="cls-1" transform="translate(979.4 380)"><tspan x="0" y="0">t = </tspan></text>
  <text class="cls-1" transform="translate(1096.3 380)"><tspan x="0" y="0">t</tspan></text>
  <text class="cls-7" transform="translate(1119.2 400)"><tspan x="0" y="0">A</tspan></text>
  <text class="cls-1" transform="translate(1155.9 380)"><tspan x="0" y="0" xml:space="preserve">:     20%</tspan></text>
  <text class="cls-1" transform="translate(979.4 479)"><tspan x="0" y="0">t = t</tspan></text>
  <text class="cls-7" transform="translate(1119.2 499)"><tspan x="0" y="0">A</tspan></text>
  <text class="cls-1" transform="translate(1155.9 479)"><tspan x="0" y="0">+1: 80%</tspan></text>
  <path class="cls-8" d="M265,1175.2c0-21.7,17.5-39.2,39.2-39.2h531.7c21.6,0,39.2,17.5,39.2,39.2v156.6c0,21.7-17.5,39.2-39.2,39.2H304.2c-21.6,0-39.2-17.5-39.2-39.2v-156.6Z"/>
  <text class="cls-1" transform="translate(315.8 1234)"><tspan x="0" y="0">t = </tspan></text>
  <text class="cls-1" transform="translate(432.7 1234)"><tspan x="0" y="0">t</tspan></text>
  <text class="cls-7" transform="translate(455.6 1254)"><tspan x="0" y="0">B</tspan></text>
  <text class="cls-1" transform="translate(492.3 1234)"><tspan x="0" y="0" xml:space="preserve">:     60%</tspan></text>
  <text class="cls-1" transform="translate(315.8 1333)"><tspan x="0" y="0">t = t</tspan></text>
  <text class="cls-7" transform="translate(455.6 1353)"><tspan x="0" y="0">B</tspan></text>
  <text class="cls-1" transform="translate(492.3 1333)"><tspan x="0" y="0">+1: 40%</tspan></text>
  <text class="cls-6" transform="translate(54.2 1491)"><tspan x="0" y="0">„B </tspan></text>
  <text class="cls-6" transform="translate(159.6 1491)"><tspan x="0" y="0">emits</tspan></text>
  <text class="cls-6" transform="translate(379.6 1491)"><tspan x="0" y="0">5 </tspan></text>
  <text class="cls-4" transform="translate(450.4 1491)"><tspan x="0" y="0">x</tspan></text>
  <text class="cls-2" transform="translate(488.5 1491)"><tspan x="0" y="0"> </tspan></text>
  <text class="cls-6" transform="translate(506.8 1491)"><tspan x="0" y="0">60% </tspan></text>
  <text class="cls-6" transform="translate(694.7 1491)"><tspan x="0" y="0">of</tspan></text>
  <text class="cls-6" transform="translate(786.4 1491)"><tspan x="0" y="0">X at </tspan></text>
  <text class="cls-6" transform="translate(956 1491)"><tspan x="0" y="0">t</tspan></text>
  <text class="cls-5" transform="translate(978.9 1511)"><tspan x="0" y="0">B</tspan></text>
  <text class="cls-6" transform="translate(54.2 1590)"><tspan x="0" y="0">and 5 </tspan></text>
  <text class="cls-4" transform="translate(285.4 1590)"><tspan x="0" y="0">x</tspan></text>
  <text class="cls-2" transform="translate(323.5 1590)"><tspan x="0" y="0"> </tspan></text>
  <text class="cls-6" transform="translate(341.8 1590)"><tspan x="0" y="0">40% at </tspan></text>
  <text class="cls-6" transform="translate(621.4 1590)"><tspan x="0" y="0">t</tspan></text>
  <text class="cls-5" transform="translate(644.3 1610)"><tspan x="0" y="0">B</tspan></text>
  <text class="cls-6" transform="translate(681 1590)"><tspan x="0" y="0">+1”</tspan></text>
  <path class="cls-10" d="M866.5,715.5l282,3.9"/>
  <path class="cls-10" d="M734.7,968.3c-46-32.2-72.4-68.9-75.7-105.1"/>
  <path class="cls-9" d="M1043.4,1066.2l-15.9-1.1-23-2.3-22.9-3-22.7-3.5-22.4-4.2-22.1-4.8-21.7-5.4-21.2-6c-2.4-.7-3.9-3.3-3.2-5.7.7-2.4,3.2-3.8,5.7-3.2l20.9,6,21.4,5.3,21.8,4.8,22.1,4.1,22.4,3.5,22.6,2.9,22.8,2.3,15.9,1.2c2.5.1,4.4,2.3,4.2,4.9-.2,2.5-2.4,4.4-4.9,4.2ZM1021.1,1033.5l29.8,28.6-33.5,24.1c-2.1,1.5-4.9,1.1-6.4-1-1.5-2.1-1-4.9,1-6.4l29.1-20.9-.5,7-25.8-24.8c-1.8-1.7-1.9-4.6-.1-6.5,1.8-1.8,4.6-1.8,6.5,0Z"/>
</svg>