<?xml version="1.0" encoding="UTF-8"?>
<svg id="Layer_1" data-name="Layer 1" xmlns="http://www.w3.org/2000/svg" viewBox="0 0 3934.98 1616.68">
  <defs>
    <style>
      .cls-1, .cls-2, .cls-3, .cls-4, .cls-5, .cls-6, .cls-7, .cls-8, .cls-9 {
        isolation: isolate;
      }

      .cls-1, .cls-2, .cls-3, .cls-9 {
        font-family: ArialMT, Arial;
      }

      .cls-1, .cls-3, .cls-9 {
        fill: #000;
      }

      .cls-1, .cls-6 {
        font-size: 83px;
      }

      .cls-10, .cls-11, .cls-12, .cls-13, .cls-14, .cls-15 {
        stroke-width: 0px;
      }

      .cls-10, .cls-11, .cls-12, .cls-14 {
        fill-rule: evenodd;
      }

      .cls-10, .cls-4, .cls-13, .cls-5, .cls-6 {
        fill: #3fb1c4;
      }

      .cls-11 {
        fill: #e9f3fa;
      }

      .cls-12 {
        fill: #ffecc9;
      }

      .cls-16 {
        letter-spacing: 0em;
      }

      .cls-2, .cls-3, .cls-5, .cls-8 {
        font-size: 73px;
      }

      .cls-2, .cls-7 {
        fill: #7f7f7f;
      }

      .cls-17 {
        letter-spacing: -.06em;
      }

      .cls-18 {
        letter-spacing: -.06em;
      }

      .cls-4, .cls-5, .cls-6, .cls-8 {
        font-family: Arial-BoldMT, Arial;
        font-weight: 700;
      }

      .cls-4, .cls-9 {
        font-size: 55px;
      }

      .cls-19 {
        letter-spacing: 0em;
      }

      .cls-7 {
        font-family: Arial-ItalicMT, Arial;
        font-size: 64px;
        font-style: italic;
      }

      .cls-8, .cls-15 {
        fill: #58ab27;
      }

      .cls-14 {
        fill: #4b9224;
      }
    </style>
  </defs>
  <path class="cls-10" d="M2140.02,1286.2l-9.1,12.1,6.23,4.7-5.44,7.3-6.23-4.7-10.39,13.9c-2.1,2.8-3.27,4.5-3.49,5.1-.23.5-.25,1.1-.06,1.7.2.6.6,1.2,1.21,1.6.84.7,2.28,1.3,4.32,1.9l-4.51,7.6c-2.8-.6-5.54-2-8.23-4-1.64-1.2-2.92-2.6-3.82-4.1-.91-1.6-1.35-3-1.31-4.3.04-1.4.5-2.9,1.38-4.6.6-1.2,2.1-3.4,4.51-6.6l11.24-15-4.19-3.2,5.44-7.2,4.19,3.1,5.12-6.8,13.13,1.5Z"/>
  <path class="cls-10" d="M2151.95,1321.5c-2.12-1.3-4.35-1.6-6.67-.9-2.33.7-4.29,2.4-5.87,5.1l14.55,8.8c1.64-2.9,2.21-5.4,1.72-7.7-.5-2.4-1.74-4.1-3.73-5.3ZM2155.88,1313.7c5.48,3.3,8.7,7.7,9.67,13.3.97,5.5-.88,12-5.54,19.3l-24.39-14.8c-1.69,3-2.26,5.7-1.74,8.2.53,2.5,1.91,4.5,4.16,5.8,1.52.9,3.05,1.3,4.6,1.1,1.54-.2,3.14-1.1,4.79-2.6l8.72,7.5c-3.41,2.8-7.02,4.3-10.84,4.6-3.82.2-7.75-.9-11.79-3.4-6.4-3.9-9.87-8.8-10.4-14.9-.4-4.8.96-9.7,4.05-14.9,3.7-6.1,8.19-9.9,13.48-11.4,5.28-1.5,10.36-.8,15.23,2.2Z"/>
  <path class="cls-10" d="M2199.32,1337.2c2.5,1.2,4.42,2.7,5.78,4.6,1.35,1.9,2.13,4.1,2.33,6.8,2.68-1.3,5.26-2,7.72-2.1,2.46-.1,4.82.4,7.07,1.4,2.87,1.4,5.02,3.1,6.45,5.2,1.44,2.1,2.12,4.5,2.05,7.2-.07,2-.98,4.8-2.72,8.6l-11.67,24.9-10.32-4.8,10.44-22.3c1.81-3.9,2.62-6.6,2.44-8-.27-1.9-1.39-3.3-3.37-4.3-1.45-.7-3.01-.8-4.7-.6-1.68.3-3.2,1.2-4.56,2.6-1.36,1.5-2.9,4-4.62,7.7l-8.77,18.7-10.31-4.8,10.01-21.4c1.77-3.8,2.73-6.3,2.88-7.6.15-1.3-.03-2.3-.55-3.2-.52-.9-1.44-1.7-2.76-2.3-1.59-.8-3.22-1-4.9-.8-1.67.3-3.16,1.1-4.47,2.5-1.3,1.3-2.83,3.9-4.59,7.6l-8.87,19-10.31-4.9,18.25-38.9,9.51,4.4-2.49,5.3c5.34-2.5,10.35-2.7,15.05-.5Z"/>
  <path class="cls-10" d="M2259.3,1372.2c-2.61-.9-5.15-.7-7.62.6-2.47,1.4-4.43,4.1-5.89,8-1.68,4.6-2.02,8.3-1.02,11.1s2.8,4.7,5.38,5.7c2.48.9,4.92.7,7.3-.7,2.38-1.4,4.41-4.4,6.09-8.9,1.56-4.2,1.87-7.7.93-10.4-.94-2.6-2.66-4.4-5.17-5.4ZM2265.3,1364.9c4.69,1.7,7.99,5,9.91,9.9,1.91,4.9,1.65,10.6-.77,17.1-2.49,6.8-6.08,11.4-10.75,13.9-4.68,2.6-9.36,3-14.05,1.2-2.23-.8-4.09-2-5.57-3.5-1.48-1.6-2.83-3.8-4.04-6.7l-7.51,20.3-10.68-3.9,20.58-55.8,9.96,3.7-2.19,5.9c2.04-1.5,4.4-2.5,7.08-3,2.67-.4,5.35-.1,8.03.9Z"/>
  <path class="cls-10" d="M2304.9,1387.7c-2.85-.8-5.57-.5-8.17,1.1-2.59,1.6-4.51,4.5-5.74,8.5-1.23,4.1-1.21,7.6.07,10.3,1.29,2.8,3.35,4.6,6.2,5.4,2.84.9,5.56.5,8.14-1.1,2.58-1.5,4.5-4.4,5.75-8.6,1.22-4,1.19-7.4-.08-10.1-1.27-2.8-3.33-4.6-6.17-5.5ZM2307.54,1378.8c6.23,1.9,10.73,5.5,13.49,10.7,2.76,5.3,3.21,11,1.34,17.2-1.88,6.2-5.45,10.8-10.71,13.7-5.26,2.9-10.94,3.4-17.05,1.5-3.77-1.1-7.12-3-10.03-5.8-2.91-2.7-4.76-6-5.55-9.9-.79-3.8-.47-8.1.96-12.8,1.1-3.6,3.05-6.9,5.85-9.7,2.81-2.9,6.12-4.7,9.93-5.5s7.74-.6,11.77.6Z"/>
  <path class="cls-10" d="M2355.22,1391.8c2.52.6,4.77,1.9,6.75,3.9l-5.83,8.7c-1.56-1.6-3.14-2.7-4.74-3.1-1.55-.4-2.96-.3-4.25.3-1.29.6-2.52,1.9-3.69,4-1.18,2.1-2.65,6.7-4.43,13.8l-3.23,12.9-11.05-2.8,10.46-41.8,10.26,2.6-1.49,6c2.46-2.4,4.5-3.9,6.13-4.4,1.62-.5,3.33-.6,5.11-.1Z"/>
  <path class="cls-10" d="M2383.81,1421.8c-1.52.2-3.9.3-7.13.3-3.24.1-5.39.3-6.48.7-1.66.8-2.66,1.9-2.98,3.5-.32,1.6-.01,3.1.93,4.4.93,1.4,2.3,2.3,4.1,2.6,2.01.4,4.06.2,6.16-.8,1.55-.7,2.69-1.8,3.41-3.1.49-.9,1-2.7,1.54-5.4l.45-2.2ZM2381.67,1397.5c4.97,1,8.56,2.4,10.76,4.1,2.2,1.6,3.61,3.5,4.23,5.5.63,2,.45,5.4-.54,10.3l-2.76,13c-.75,3.7-1.13,6.5-1.13,8.3s.28,3.9.86,6.1l-11.05-2.3c-.14-.8-.27-1.9-.4-3.5-.05-.7-.09-1.2-.13-1.4-2.28,1.5-4.6,2.5-6.96,2.9-2.36.5-4.77.5-7.24,0-4.34-.9-7.52-2.7-9.54-5.6-2.03-2.9-2.67-6.1-1.94-9.7.48-2.4,1.48-4.4,3-6,1.52-1.7,3.4-2.8,5.66-3.3,2.25-.6,5.38-.9,9.4-.8,5.42,0,9.21-.1,11.4-.6l.23-1.1c.43-2.1.21-3.8-.66-4.9-.88-1.1-2.78-2-5.72-2.6-1.99-.4-3.62-.3-4.89.2-1.27.6-2.45,1.8-3.53,3.6l-9.76-3.9c1.97-3.8,4.54-6.4,7.72-7.8,3.18-1.4,7.51-1.6,12.99-.5Z"/>
  <path class="cls-10" d="M2411.39,1387.4l11.25,1.8-9.26,58.7-11.24-1.8,9.25-58.7Z"/>
  <path class="cls-10" d="M2430.69,1406.8l11.3,1.4-5.34,42.8-11.3-1.5,5.34-42.7ZM2432.72,1390.6l11.3,1.4-1.3,10.5-11.3-1.5,1.3-10.4Z"/>
  <path class="cls-10" d="M2449.13,1409.3l35.49,2.6-.6,8.1-17.81,17.7-6.24,5.8c3.16,0,5.12.1,5.88.1l17.58,1.3-.74,10-38.32-2.8.66-8.9,17.45-17.2c2.87-2.9,4.98-4.9,6.34-6-1.33-.1-3.07-.1-5.22-.3l-15.17-1,.7-9.4Z"/>
  <path class="cls-10" d="M2508.2,1419.7c-2.49,0-4.53,1-6.13,2.8-1.6,1.8-2.36,4.3-2.3,7.4l17.02-.2c-.12-3.3-1-5.8-2.64-7.5-1.65-1.7-3.63-2.5-5.95-2.5ZM2507.41,1411c6.4-.1,11.48,2,15.23,6.2,3.75,4.1,5.6,10.6,5.54,19.3l-28.53.4c.12,3.3,1.07,6,2.85,7.8,1.78,1.9,3.98,2.8,6.6,2.8,1.78-.1,3.27-.6,4.48-1.6,1.2-.9,2.1-2.5,2.7-4.7l11.37,1.8c-1.41,4.2-3.68,7.3-6.8,9.6-3.12,2.2-7.04,3.3-11.77,3.4-7.49.1-13.05-2.3-16.7-7.2-2.89-3.9-4.37-8.8-4.44-14.8-.08-7.1,1.72-12.7,5.4-16.8,3.68-4.1,8.37-6.1,14.07-6.2Z"/>
  <path class="cls-10" d="M2136.63,1422.3c-2.36-1.4-4.86-1.6-7.49-.6-2.62.9-5,3.2-7.15,7-2.21,3.9-3.24,7.1-3.08,9.6.21,3.6,1.74,6.3,4.57,7.9,2.19,1.2,4.58,1.4,7.18.4s5.05-3.5,7.34-7.5c2.44-4.3,3.43-7.8,2.96-10.6-.47-2.8-1.91-4.8-4.33-6.2ZM2130.52,1391l9.89,5.7-10.63,18.5c5.04-1.7,9.64-1.4,13.82,1,4.55,2.6,7.37,6.4,8.47,11.4,1.09,5-.13,10.6-3.65,16.8-3.65,6.4-7.98,10.4-12.99,12.1-5.01,1.7-9.68,1.3-14.02-1.1-2.13-1.3-3.93-3-5.4-5.3-1.47-2.2-2.35-4.8-2.66-7.8l-3.14,5.5-9.18-5.2,29.49-51.6Z"/>
  <path class="cls-10" d="M2164.92,1428.8l10.18,5.1-19.25,38.5-10.18-5.1,19.25-38.5ZM2172.24,1414.1l10.19,5.1-4.72,9.4-10.18-5.1,4.71-9.4Z"/>
  <path class="cls-10" d="M2198.04,1453.6c-2.72-1.2-5.47-1.2-8.23.1-2.77,1.3-5.01,3.9-6.72,7.8-1.71,3.9-2.09,7.3-1.14,10.2.95,2.9,2.78,4.9,5.51,6.1,2.72,1.2,5.46,1.1,8.21-.1,2.75-1.3,5-3.9,6.73-7.9,1.69-3.8,2.06-7.2,1.13-10.1-.94-2.9-2.77-4.9-5.49-6.1ZM2201.72,1445.1c5.97,2.6,10.01,6.6,12.13,12.2,2.12,5.5,1.88,11.3-.7,17.2-2.61,5.9-6.7,10-12.26,12.3-5.57,2.2-11.27,2.1-17.11-.5-3.62-1.6-6.71-3.9-9.27-7-2.57-3-4.02-6.5-4.35-10.4-.32-3.9.5-8.1,2.48-12.7,1.52-3.4,3.84-6.4,6.96-8.9,3.13-2.5,6.63-3.9,10.51-4.3,3.88-.3,7.75.4,11.61,2.1Z"/>
  <path class="cls-10" d="M2242.34,1461.3c5.53,2,9.32,4.4,11.36,7.2,2.04,2.8,2.92,6.1,2.66,10l-10.78-1.8c.14-1.7-.24-3.2-1.14-4.5s-2.47-2.3-4.71-3.1c-2.81-1-4.98-1.4-6.48-1-1.02.2-1.69.8-2.01,1.7-.28.8-.15,1.5.36,2.3.71,1.1,3.68,3.3,8.91,6.7,5.23,3.3,8.64,6.4,10.21,9.1,1.55,2.7,1.7,5.7.47,9.1-1.35,3.7-4.06,6.4-8.12,7.9-4.07,1.6-9.14,1.2-15.21-1-5.51-2-9.46-4.7-11.87-8.1-2.4-3.4-3.4-7.2-3-11.4l11.34,2.3c-.3,2.2.06,4.2,1.06,5.7,1.01,1.6,2.77,2.9,5.28,3.8,2.77,1,5.03,1.2,6.8.7,1.2-.3,2.01-1.1,2.45-2.3.29-.8.28-1.6-.03-2.3-.35-.7-1.37-1.6-3.07-2.7-7.94-5.1-12.79-8.8-14.52-11.2-2.41-3.3-2.91-7-1.5-10.8,1.27-3.5,3.73-6,7.36-7.4,3.64-1.4,8.36-1,14.18,1.1Z"/>
  <path class="cls-10" d="M2285.43,1484.9c-2.67-.7-5.19-.4-7.56,1.2-2.37,1.5-4.15,4.3-5.34,8.3-1.37,4.7-1.46,8.4-.28,11.1,1.19,2.8,3.1,4.6,5.75,5.3,2.54.8,4.95.4,7.23-1.1,2.29-1.6,4.11-4.7,5.48-9.3,1.28-4.3,1.36-7.8.24-10.4-1.12-2.6-2.96-4.3-5.52-5.1ZM2290.93,1477.2c4.79,1.4,8.31,4.5,10.54,9.2,2.24,4.8,2.36,10.5.38,17.2-2.03,6.9-5.3,11.8-9.79,14.6-4.5,2.8-9.14,3.5-13.94,2.1-2.28-.7-4.21-1.7-5.8-3.2-1.58-1.4-3.07-3.6-4.47-6.4l-6.14,20.8-10.92-3.2,16.81-57,10.19,3-1.79,6.1c1.93-1.7,4.22-2.9,6.85-3.5,2.64-.6,5.33-.5,8.08.3Z"/>
  <path class="cls-10" d="M2317.27,1468.6l11.1,2.6-4.83,21.3c4.53-3.4,9.29-4.5,14.27-3.4,2.55.6,4.75,1.6,6.59,3,1.84,1.4,3.11,3,3.82,4.7.7,1.7,1.04,3.5,1.02,5.4-.03,1.8-.47,4.7-1.32,8.4l-5.6,24.6-11.1-2.5,5.03-22.1c1-4.4,1.43-7.3,1.28-8.6-.16-1.2-.69-2.4-1.6-3.3-.9-.9-2.16-1.6-3.77-2-1.84-.4-3.59-.3-5.24.3-1.66.5-3.02,1.6-4.11,3.3-1.08,1.6-2.02,4.2-2.82,7.8l-4.78,21-11.1-2.5,13.16-58Z"/>
  <path class="cls-10" d="M2375.76,1505.2c-2.45-.4-4.63.2-6.52,1.7-1.89,1.5-3.07,3.8-3.55,6.9l16.8,2.7c.45-3.2.02-5.8-1.31-7.8-1.32-1.9-3.13-3.1-5.42-3.5ZM2376.49,1496.5c6.32,1,10.96,3.9,13.93,8.7,2.97,4.8,3.67,11.5,2.1,20l-28.15-4.6c-.47,3.4,0,6.1,1.44,8.3,1.43,2.1,3.44,3.4,6.03,3.8,1.76.3,3.32.1,4.67-.7,1.36-.8,2.52-2.2,3.48-4.2l10.89,3.7c-2.11,3.9-4.89,6.6-8.35,8.3-3.46,1.6-7.52,2-12.19,1.3-7.38-1.2-12.45-4.5-15.21-9.9-2.17-4.4-2.77-9.5-1.8-15.4,1.15-7,3.89-12.2,8.22-15.6,4.33-3.4,9.31-4.6,14.94-3.7Z"/>
  <path class="cls-10" d="M2423.15,1502.6c2.57.3,4.98,1.3,7.21,3l-4.58,9.5c-1.77-1.5-3.48-2.3-5.12-2.5-1.58-.1-2.97.2-4.17.9-1.2.8-2.24,2.2-3.12,4.5-.88,2.2-1.72,6.9-2.52,14.2l-1.44,13.2-11.33-1.2,4.7-42.8,10.51,1.1-.67,6.1c2.12-2.7,3.94-4.4,5.48-5.1,1.54-.8,3.22-1.1,5.05-.9Z"/>
  <path class="cls-10" d="M2449.54,1513.2c-2.48-.1-4.58.7-6.29,2.4-1.71,1.8-2.64,4.2-2.77,7.3l17,.9c.09-3.3-.63-5.9-2.16-7.7-1.53-1.8-3.46-2.7-5.78-2.9ZM2449.31,1504.5c6.39.3,11.33,2.7,14.81,7.1,3.47,4.4,4.9,11,4.29,19.7l-28.5-1.5c-.09,3.4.69,6.1,2.34,8,1.66,2,3.8,3.1,6.41,3.2,1.78.1,3.31-.3,4.57-1.2,1.27-.9,2.27-2.4,3-4.6l11.23,2.5c-1.67,4.1-4.14,7.1-7.39,9.1-3.26,2.1-7.25,2.9-11.97,2.7-7.48-.4-12.88-3.1-16.21-8.2-2.63-4.1-3.79-9.1-3.48-15,.37-7.2,2.53-12.6,6.46-16.5,3.93-3.8,8.75-5.6,14.44-5.3Z"/>
  <path class="cls-10" d="M1117.85,22.4l3.52,14.8,7.57-1.8,2.1,8.8-7.56,1.8,4.02,16.9c.81,3.4,1.36,5.4,1.63,5.9.28.5.72.9,1.32,1.2.6.2,1.27.2,2.01.1,1.02-.3,2.42-1,4.2-2.2l2.99,8.4c-2.31,1.7-5.1,3-8.36,3.8-1.99.4-3.87.5-5.64.2-1.76-.3-3.14-.8-4.14-1.7-1.01-.9-1.87-2.2-2.59-4-.54-1.2-1.28-3.8-2.21-7.7l-4.35-18.2-5.09,1.2-2.1-8.9,5.08-1.2-1.98-8.3,9.58-9.1Z"/>
  <path class="cls-10" d="M1155.93,37.8c-2.44.4-4.29,1.7-5.54,3.8-1.25,2.1-1.56,4.6-.95,7.7l16.71-3.2c-.7-3.3-2.01-5.6-3.93-6.9-1.91-1.4-4.01-1.9-6.29-1.4ZM1153.6,29.3c6.29-1.2,11.65-.1,16.08,3.4,4.44,3.4,7.4,9.5,8.9,18.1l-28.02,5.4c.72,3.3,2.12,5.7,4.2,7.2,2.08,1.5,4.41,2,6.98,1.5,1.75-.3,3.13-1.1,4.14-2.3,1.01-1.2,1.62-2.9,1.82-5.1l11.5-.3c-.64,4.4-2.31,7.9-4.98,10.6-2.68,2.8-6.34,4.6-10.99,5.5-7.35,1.4-13.25.1-17.7-4.1-3.53-3.3-5.86-7.9-6.99-13.7-1.35-7-.58-12.9,2.32-17.5,2.9-4.7,7.14-7.6,12.74-8.7Z"/>
  <path class="cls-10" d="M1207.13,20.5c2.73-.3,5.18,0,7.33.8,2.15.9,4.02,2.4,5.59,4.5,1.59-2.5,3.4-4.5,5.42-5.9,2.03-1.4,4.28-2.2,6.75-2.5,3.13-.4,5.87-.1,8.2.9s4.19,2.6,5.58,4.9c1,1.8,1.77,4.7,2.28,8.7l3.47,27.3-11.3,1.5-3.1-24.4c-.53-4.3-1.27-6.9-2.2-8.1-1.25-1.5-2.96-2.1-5.13-1.8-1.58.2-3.01.9-4.28,2-1.27,1.2-2.1,2.7-2.48,4.7-.38,1.9-.31,4.9.2,8.9l2.6,20.5-11.3,1.4-2.97-23.4c-.53-4.1-1.07-6.8-1.62-7.9-.56-1.2-1.3-2-2.21-2.5-.92-.5-2.11-.6-3.55-.4-1.75.2-3.25.9-4.53,2-1.27,1.1-2.1,2.6-2.48,4.4-.38,1.9-.31,4.8.21,8.9l2.64,20.8-11.3,1.4-5.42-42.7,10.41-1.3.74,5.8c3.15-5,7.3-7.8,12.45-8.5Z"/>
  <path class="cls-10" d="M1279.97,22.4c-2.77.2-5.01,1.4-6.71,3.7-1.69,2.3-2.4,5.5-2.13,9.7.31,4.8,1.5,8.3,3.56,10.5,2.07,2.2,4.47,3.2,7.22,3,2.65-.2,4.78-1.4,6.39-3.6,1.62-2.2,2.27-5.8,1.96-10.6-.3-4.5-1.41-7.8-3.36-9.8-1.95-2.1-4.26-3-6.93-2.9ZM1282.47,13.3c4.98-.4,9.34,1.3,13.07,5,3.73,3.7,5.83,9,6.28,16,.46,7.2-.93,12.9-4.18,17.1s-7.36,6.4-12.35,6.7c-2.37.2-4.56-.1-6.54-1-1.99-.8-4.13-2.3-6.4-4.4l1.39,21.6-11.36.8-3.83-59.3,10.59-.7.41,6.3c1.24-2.3,2.98-4.1,5.24-5.6,2.26-1.5,4.82-2.4,7.68-2.5Z"/>
  <path class="cls-10" d="M1330.21,20.7c-2.97.1-5.45,1.2-7.44,3.5-1.99,2.4-2.95,5.6-2.88,9.9.07,4.3,1.14,7.5,3.2,9.8,2.06,2.2,4.58,3.3,7.55,3.2,2.97,0,5.45-1.2,7.42-3.5,1.98-2.3,2.93-5.6,2.86-9.9-.07-4.2-1.13-7.5-3.18-9.7-2.05-2.2-4.56-3.3-7.53-3.3ZM1330.02,11.4c6.51-.1,11.88,2,16.11,6.1,4.23,4.2,6.4,9.5,6.5,15.9.11,6.6-1.9,12-6.04,16.3-4.13,4.4-9.38,6.6-15.76,6.7-3.94.1-7.72-.7-11.32-2.5-3.61-1.7-6.38-4.3-8.3-7.7-1.92-3.4-2.92-7.6-3-12.5-.06-3.8.81-7.5,2.62-11,1.8-3.6,4.4-6.4,7.79-8.3,3.38-1.9,7.18-2.9,11.4-3Z"/>
  <path class="cls-10" d="M1381.88,11.8c2.6.1,5.08.8,7.45,2.3l-3.75,9.9c-1.89-1.3-3.66-2-5.31-2-1.59-.1-2.95.4-4.08,1.2-1.12.9-2.03,2.4-2.72,4.7-.68,2.3-1.11,7.1-1.28,14.4l-.3,13.3-11.38-.3.97-43,10.57.3-.13,6.1c1.87-2.9,3.54-4.7,5.01-5.6,1.46-.9,3.11-1.3,4.95-1.3Z"/>
  <path class="cls-10" d="M1417.42,36.9c-1.49.4-3.83.9-7.02,1.4-3.2.4-5.3,1-6.31,1.6-1.54.9-2.37,2.2-2.46,3.8-.1,1.6.42,3,1.53,4.3,1.12,1.2,2.6,1.9,4.43,2,2.05.1,4.05-.5,5.99-1.7,1.43-.9,2.41-2.1,2.93-3.6.36-1,.61-2.8.78-5.5l.13-2.3ZM1411.89,13.2c5.07.3,8.81,1.1,11.22,2.5,2.41,1.3,4.06,3,4.96,4.9.91,1.9,1.21,5.3.92,10.2l-.91,13.3c-.23,3.8-.21,6.6.05,8.4.26,1.8.82,3.8,1.7,5.9l-11.25-.7c-.25-.8-.55-1.9-.89-3.4-.15-.7-.26-1.2-.33-1.4-2.05,1.8-4.21,3.1-6.48,3.9-2.27.8-4.65,1.1-7.16,1-4.43-.3-7.84-1.7-10.25-4.2-2.4-2.6-3.5-5.7-3.28-9.4.14-2.4.85-4.5,2.13-6.4,1.27-1.8,2.98-3.1,5.13-4,2.15-.9,5.22-1.6,9.2-2.1,5.37-.7,9.11-1.4,11.21-2.2l.07-1.1c.13-2.2-.32-3.8-1.34-4.8-1.03-1-3.04-1.6-6.03-1.7-2.02-.2-3.62.1-4.8.9-1.18.7-2.18,2-3,4l-10.21-2.5c1.41-4.1,3.59-7,6.54-8.8,2.95-1.9,7.21-2.6,12.8-2.3Z"/>
  <path class="cls-10" d="M1442.9,0l11.34,1.1-5.46,59.1-11.34-1,5.46-59.2Z"/>
  <path class="cls-10" d="M1464.68,18.6l11.31,1.3-4.92,42.8-11.32-1.3,4.93-42.8ZM1466.55,2.3l11.32,1.4-1.21,10.4-11.31-1.3,1.2-10.5Z"/>
  <path class="cls-10" d="M1485.44,21l35.2,5.2-1.19,8-19.07,16.3-6.66,5.4c3.15.3,5.11.4,5.85.6l17.44,2.6-1.47,9.9-38-5.7,1.3-8.8,18.69-15.9c3.06-2.6,5.32-4.5,6.76-5.5-1.32-.1-3.05-.3-5.2-.6l-15.04-2.2,1.39-9.3Z"/>
  <path class="cls-10" d="M1545.79,38.9c-2.43-.5-4.62,0-6.57,1.4-1.94,1.5-3.2,3.7-3.78,6.8l16.7,3.3c.56-3.2.21-5.9-1.04-7.9-1.26-2-3.03-3.2-5.31-3.6ZM1546.82,30.2c6.28,1.2,10.82,4.3,13.63,9.1,2.8,4.9,3.28,11.6,1.42,20.1l-27.99-5.5c-.57,3.3-.18,6.1,1.17,8.3,1.36,2.1,3.32,3.5,5.89,4,1.75.3,3.32.2,4.7-.6,1.38-.7,2.59-2,3.62-4l10.76,4c-2.24,3.8-5.12,6.5-8.63,8-3.51,1.5-7.59,1.8-12.22.9-7.34-1.4-12.3-4.9-14.87-10.4-2.02-4.4-2.45-9.5-1.29-15.4,1.39-7,4.31-12.1,8.75-15.3,4.45-3.3,9.46-4.3,15.06-3.2Z"/>
  <path class="cls-10" d="M1087.79,126.6l4.03,14.6,7.5-2,2.41,8.7-7.5,2.1,4.59,16.7c.93,3.4,1.55,5.4,1.85,5.9.29.5.75.9,1.35,1.1.61.2,1.28.2,2.01,0,1.02-.3,2.39-1,4.13-2.2l3.28,8.2c-2.26,1.8-5,3.2-8.23,4-1.98.6-3.85.7-5.63.5-1.77-.2-3.17-.7-4.2-1.6-1.03-.8-1.94-2.1-2.72-3.9-.59-1.2-1.41-3.7-2.48-7.6l-4.97-18.1-5.04,1.4-2.41-8.8,5.04-1.3-2.27-8.3,9.26-9.4Z"/>
  <path class="cls-10" d="M1126.63,140.8c-2.43.5-4.25,1.9-5.45,4-1.2,2.1-1.46,4.7-.78,7.7l16.64-3.6c-.78-3.2-2.14-5.5-4.09-6.8-1.94-1.4-4.05-1.8-6.32-1.3ZM1124.11,132.4c6.26-1.3,11.64-.3,16.15,3,4.52,3.4,7.62,9.3,9.31,17.9l-27.89,6c.8,3.3,2.25,5.7,4.37,7.2,2.11,1.4,4.45,1.9,7.01,1.3,1.74-.4,3.1-1.1,4.09-2.4.98-1.2,1.54-2.9,1.69-5.1l11.5-.6c-.55,4.4-2.13,8-4.74,10.8-2.62,2.8-6.24,4.7-10.86,5.7-7.31,1.6-13.24.3-17.79-3.7-3.6-3.2-6.04-7.7-7.3-13.6-1.51-7-.87-12.8,1.92-17.5,2.79-4.8,6.97-7.8,12.54-9Z"/>
  <path class="cls-10" d="M1172.63,123.4c5.18-.8,9.47-.4,12.88,1.4,3.41,1.7,6.14,4.8,8.2,9.1l-10.77,3.8c-.72-2.2-1.83-3.7-3.33-4.6-1.5-.9-3.31-1.2-5.41-.9-2.8.5-4.89,1.8-6.25,4-1.36,2.2-1.67,5.6-.95,10.1.8,5,2.21,8.5,4.24,10.3,2.02,1.8,4.46,2.5,7.32,2,2.13-.3,3.79-1.2,4.95-2.6,1.17-1.5,1.8-3.7,1.89-6.8l11.34.2c-.34,5.2-1.93,9.4-4.77,12.5-2.85,3.1-7,5.1-12.47,6-6.22.9-11.49-.2-15.81-3.6-4.32-3.3-7.03-8.4-8.13-15.4-1.12-7-.13-12.7,2.95-17.2,3.09-4.5,7.8-7.3,14.12-8.3Z"/>
  <path class="cls-10" d="M1199.45,103.9l11.32-1.3,2.36,21.7c3.19-4.6,7.32-7.2,12.4-7.8,2.6-.3,5.01-.1,7.21.7,2.2.7,3.91,1.8,5.14,3.2,1.22,1.4,2.13,3,2.72,4.7.58,1.8,1.09,4.6,1.51,8.5l2.73,25.1-11.32,1.2-2.46-22.6c-.49-4.5-1.02-7.3-1.58-8.5-.56-1.1-1.42-2-2.59-2.6-1.16-.6-2.57-.8-4.2-.6-1.88.2-3.51.8-4.89,1.9-1.38,1.1-2.31,2.6-2.79,4.5-.49,1.9-.53,4.7-.14,8.3l2.33,21.4-11.32,1.2-6.43-59Z"/>
  <path class="cls-10" d="M1277.2,112.3c2.51-.1,4.83.2,6.96,1,2.14.7,3.78,1.8,4.93,3.1,1.16,1.4,2,2.9,2.53,4.7.53,1.7.9,4.2,1.1,7.6l1.68,26.7-11.37.7-1.37-22c-.29-4.6-.72-7.6-1.3-8.9-.57-1.3-1.42-2.3-2.56-3-1.14-.7-2.48-1-4.02-.9-1.96.1-3.7.8-5.19,1.9-1.5,1.2-2.48,2.7-2.95,4.5-.47,1.8-.55,5.1-.25,9.9l1.22,19.5-11.37.7-2.69-42.9,10.56-.7.39,6.3c3.45-5.1,8.01-7.8,13.7-8.2Z"/>
  <path class="cls-10" d="M1323.85,119.8c-2.98.1-5.45,1.3-7.43,3.6s-2.93,5.6-2.85,9.8c.09,4.3,1.16,7.6,3.23,9.8,2.07,2.2,4.6,3.3,7.57,3.2,2.97,0,5.44-1.2,7.41-3.5,1.96-2.3,2.9-5.6,2.82-9.9-.08-4.3-1.15-7.5-3.21-9.7s-4.57-3.3-7.54-3.3ZM1323.62,110.6c6.51-.2,11.89,1.8,16.13,6,4.25,4.1,6.43,9.4,6.56,15.9s-1.87,11.9-5.98,16.3c-4.12,4.4-9.36,6.6-15.74,6.7-3.94.1-7.72-.7-11.34-2.4-3.61-1.7-6.38-4.3-8.32-7.7-1.93-3.4-2.94-7.6-3.04-12.5-.08-3.8.78-7.5,2.58-11.1,1.79-3.5,4.38-6.3,7.76-8.2,3.38-2,7.18-3,11.39-3Z"/>
  <path class="cls-10" d="M1371.29,110.5c5.89.2,10.24,1.2,13.07,3.2,2.82,2,4.74,4.8,5.74,8.6l-10.78,1.8c-.42-1.7-1.27-3-2.53-3.9-1.27-.9-3.09-1.4-5.46-1.5-3,0-5.16.3-6.47,1.2-.88.5-1.33,1.3-1.35,2.2-.01.9.35,1.6,1.1,2.1,1.01.8,4.53,1.9,10.57,3.4s10.24,3.3,12.6,5.4c2.34,2,3.47,4.9,3.39,8.5-.08,4-1.79,7.3-5.14,10.1-3.36,2.8-8.26,4.1-14.72,3.9-5.86-.1-10.47-1.4-13.84-3.8-3.37-2.5-5.54-5.7-6.51-9.8l11.46-1.5c.44,2.2,1.39,3.9,2.85,5.1,1.47,1.1,3.53,1.8,6.21,1.8,2.94.1,5.17-.4,6.68-1.5,1.01-.7,1.53-1.7,1.56-3,0-.8-.24-1.6-.77-2.1-.56-.6-1.82-1.1-3.78-1.6-9.14-2.2-14.93-4.2-17.35-5.9-3.36-2.4-4.99-5.7-4.91-9.8.07-3.7,1.61-6.8,4.61-9.3,2.99-2.5,7.58-3.7,13.77-3.6Z"/>
  <path class="cls-10" d="M1422.12,121.6c-2.78-.2-5.15.7-7.11,2.8-1.96,2-3.07,5.1-3.32,9.3-.29,4.9.45,8.5,2.23,10.9,1.77,2.4,4.04,3.7,6.79,3.9,2.64.2,4.9-.8,6.78-2.8,1.88-2,2.97-5.4,3.26-10.2.27-4.5-.44-7.9-2.11-10.2-1.68-2.3-3.85-3.6-6.52-3.7ZM1425.73,112.8c4.99.3,9.11,2.5,12.35,6.6,3.25,4.1,4.66,9.7,4.24,16.7-.43,7.1-2.52,12.6-6.26,16.4-3.75,3.8-8.11,5.5-13.1,5.2-2.38-.2-4.5-.8-6.37-1.8-1.87-1.1-3.8-2.8-5.8-5.2l-1.3,21.6-11.36-.7,3.56-59.3,10.6.7-.38,6.3c1.5-2.1,3.47-3.8,5.89-5,2.43-1.2,5.07-1.7,7.93-1.5Z"/>
  <path class="cls-10" d="M1454.77,99.4l11.33,1.2-2.29,21.7c4.1-3.9,8.69-5.6,13.77-5,2.61.2,4.91,1,6.9,2.2,2,1.2,3.45,2.6,4.35,4.2.9,1.6,1.45,3.3,1.65,5.2s.09,4.7-.31,8.6l-2.65,25.1-11.32-1.2,2.38-22.6c.47-4.5.56-7.4.25-8.6-.3-1.3-.96-2.3-1.97-3.2-1.01-.8-2.34-1.3-3.98-1.5-1.88-.2-3.61.1-5.18.9-1.57.7-2.8,2-3.68,3.8-.88,1.7-1.51,4.4-1.89,8l-2.25,21.5-11.33-1.2,6.22-59.1Z"/>
  <path class="cls-10" d="M1520.33,131.7c-2.46-.4-4.62.2-6.5,1.8-1.88,1.5-3.05,3.8-3.5,6.9l16.83,2.6c.42-3.3-.04-5.9-1.38-7.8-1.33-2-3.15-3.1-5.45-3.5ZM1520.99,123c6.32,1,10.99,3.8,14,8.6,3.01,4.7,3.77,11.4,2.27,20l-28.19-4.4c-.44,3.4.06,6.1,1.51,8.2,1.45,2.2,3.47,3.4,6.06,3.8,1.76.3,3.32.1,4.67-.7,1.35-.8,2.5-2.2,3.44-4.2l10.92,3.6c-2.08,3.9-4.84,6.7-8.28,8.3-3.45,1.7-7.5,2.2-12.18,1.4-7.39-1.1-12.49-4.4-15.29-9.8-2.21-4.3-2.85-9.4-1.93-15.3,1.09-7,3.79-12.3,8.09-15.7,4.3-3.4,9.27-4.7,14.91-3.8Z"/>
  <path class="cls-10" d="M1570.79,132.1c2.54.5,4.85,1.7,6.92,3.6l-5.42,9c-1.64-1.6-3.26-2.5-4.88-2.9-1.56-.3-2.97-.1-4.23.5-1.26.7-2.43,2-3.51,4.2-1.08,2.1-2.34,6.7-3.8,13.9l-2.64,13-11.16-2.2,8.55-42.2,10.37,2.1-1.22,6c2.35-2.5,4.32-4,5.92-4.6,1.6-.6,3.3-.8,5.1-.4Z"/>
  <path class="cls-10" d="M1598.72,147.8c-2.41-.7-4.62-.3-6.65,1-2.03,1.4-3.42,3.5-4.18,6.6l16.47,4.3c.75-3.2.56-5.9-.57-8-1.13-2-2.83-3.4-5.07-3.9ZM1600.25,139.2c6.2,1.6,10.55,4.9,13.06,9.9,2.51,5.1,2.59,11.8.22,20.2l-27.6-7.2c-.78,3.2-.55,6,.67,8.3,1.22,2.2,3.1,3.7,5.64,4.4,1.72.4,3.3.3,4.72-.3,1.42-.6,2.71-1.9,3.86-3.9l10.49,4.8c-2.46,3.6-5.49,6.1-9.09,7.4-3.59,1.3-7.68,1.4-12.25.2-7.24-1.9-11.98-5.7-14.22-11.3-1.75-4.5-1.88-9.7-.36-15.5,1.8-6.9,5.02-11.8,9.65-14.8,4.63-2.9,9.7-3.7,15.21-2.2Z"/>
  <text class="cls-1" transform="translate(552.04 683.9) rotate(-50)"><tspan x="0" y="0">process</tspan><tspan class="cls-18" x="290.62" y="0" xml:space="preserve"> A</tspan></text>
  <text class="cls-1" transform="translate(712.26 685.9) rotate(-50)"><tspan x="0" y="0">process B</tspan></text>
  <text class="cls-1" transform="translate(70.88 837.9)"><tspan x="0" y="0">p</tspan></text>
  <text class="cls-1" transform="translate(116.71 837.9)"><tspan x="0" y="0">roduct</tspan><tspan class="cls-17" x="230.68" y="0" xml:space="preserve"> A</tspan></text>
  <text class="cls-1" transform="translate(66.3 968.9)"><tspan x="0" y="0">p</tspan></text>
  <text class="cls-1" transform="translate(112.13 968.9)"><tspan x="0" y="0">roduct B</tspan></text>
  <path class="cls-11" d="M465.02,768.9c0-28.7,23.28-52,52-52h208c28.72,0,52,23.3,52,52v208c0,28.7-23.28,52-52,52h-208c-28.72,0-52-23.3-52-52v-208Z"/>
  <text class="cls-3" transform="translate(535.67 834.9)"><tspan x="0" y="0">1</tspan></text>
  <text class="cls-3" transform="translate(666.4 834.9)"><tspan x="0" y="0">0</tspan></text>
  <text class="cls-3" transform="translate(523.35 964.9)"><tspan x="0" y="0">-</tspan></text>
  <text class="cls-3" transform="translate(547.99 964.9)"><tspan x="0" y="0">2</tspan></text>
  <text class="cls-3" transform="translate(666.4 964.9)"><tspan x="0" y="0">1</tspan></text>
  <path class="cls-12" d="M465.02,1120.9c0-28.7,23.28-52,52-52h208c28.72,0,52,23.3,52,52v52c0,28.7-23.28,52-52,52h-208c-28.72,0-52-23.3-52-52v-52Z"/>
  <text class="cls-3" transform="translate(535.67 1173.9)"><tspan x="0" y="0">0</tspan></text>
  <text class="cls-3" transform="translate(666.4 1173.9)"><tspan x="0" y="0">5</tspan></text>
  <text class="cls-1" transform="translate(15.96 1176.9)"><tspan x="0" y="0">emission X</tspan></text>
  <text class="cls-1" transform="translate(3292.28 528.9) rotate(-50)"><tspan x="0" y="0">process</tspan><tspan class="cls-18" x="290.62" y="0" xml:space="preserve"> A</tspan><tspan class="cls-19" x="359.88" y="0"> </tspan></text>
  <text class="cls-1" transform="translate(3536.83 236.9) rotate(-50)"><tspan x="0" y="0">@ </tspan></text>
  <text class="cls-1" transform="translate(3596.49 165.9) rotate(-50)"><tspan x="0" y="0">t</tspan></text>
  <text class="cls-9" transform="translate(3626.55 160.9) rotate(-50)"><tspan x="0" y="0">0</tspan></text>
  <text class="cls-1" transform="translate(3425.41 531.9) rotate(-50)"><tspan x="0" y="0">process B </tspan></text>
  <text class="cls-1" transform="translate(3675.83 233.9) rotate(-50)"><tspan x="0" y="0">@ </tspan></text>
  <text class="cls-1" transform="translate(3735.49 162.9) rotate(-50)"><tspan x="0" y="0">t</tspan></text>
  <text class="cls-9" transform="translate(3765.55 157.9) rotate(-50)"><tspan x="0" y="0">0</tspan></text>
  <text class="cls-1" transform="translate(3561.51 531.9) rotate(-50)"><tspan x="0" y="0">process B </tspan></text>
  <text class="cls-1" transform="translate(3811.93 233.9) rotate(-50)"><tspan x="0" y="0">@ </tspan></text>
  <text class="cls-1" transform="translate(3871.58 162.9) rotate(-50)"><tspan x="0" y="0">t</tspan></text>
  <text class="cls-9" transform="translate(3901.64 157.9) rotate(-50)"><tspan x="0" y="0">1</tspan></text>
  <text class="cls-1" transform="translate(2649.95 692.9)"><tspan x="0" y="0">p</tspan></text>
  <text class="cls-1" transform="translate(2695.79 692.9)"><tspan x="0" y="0">roduct</tspan><tspan class="cls-17" x="230.68" y="0" xml:space="preserve"> A</tspan><tspan class="cls-16" x="299.94" y="0"> </tspan></text>
  <text class="cls-1" transform="translate(3016.66 692.9)"><tspan x="0" y="0">@ </tspan></text>
  <text class="cls-1" transform="translate(3109.48 692.9)"><tspan x="0" y="0">t</tspan></text>
  <text class="cls-9" transform="translate(3132.39 712.9)"><tspan x="0" y="0">0</tspan></text>
  <text class="cls-1" transform="translate(2640.79 823.9)"><tspan x="0" y="0">p</tspan></text>
  <text class="cls-1" transform="translate(2686.62 823.9)"><tspan x="0" y="0">roduct B </tspan></text>
  <text class="cls-1" transform="translate(3016.62 823.9)"><tspan x="0" y="0">@ </tspan></text>
  <text class="cls-1" transform="translate(3109.43 823.9)"><tspan x="0" y="0">t</tspan></text>
  <text class="cls-9" transform="translate(3132.35 843.9)"><tspan x="0" y="0">0</tspan></text>
  <path class="cls-11" d="M3206.02,612.9c0-28.7,23.28-52,52-52h364c28.72,0,52,23.3,52,52v364c0,28.7-23.28,52-52,52h-364c-28.72,0-52-23.3-52-52v-364Z"/>
  <text class="cls-3" transform="translate(3419.54 690.9)"><tspan x="0" y="0">0</tspan></text>
  <text class="cls-3" transform="translate(3245.84 821.9)"><tspan x="0" y="0">-</tspan></text>
  <text class="cls-3" transform="translate(3270.48 821.9)"><tspan x="0" y="0">0.4</tspan></text>
  <text class="cls-3" transform="translate(3419.54 821.9)"><tspan x="0" y="0">1</tspan></text>
  <text class="cls-3" transform="translate(3550.28 690.9)"><tspan x="0" y="0">0</tspan></text>
  <text class="cls-3" transform="translate(3245.84 952.9)"><tspan x="0" y="0">-</tspan></text>
  <text class="cls-3" transform="translate(3270.48 952.9)"><tspan x="0" y="0">1.6</tspan></text>
  <text class="cls-3" transform="translate(3288.81 690.9)"><tspan x="0" y="0">1</tspan></text>
  <text class="cls-3" transform="translate(3550.28 952.9)"><tspan x="0" y="0">1</tspan></text>
  <text class="cls-3" transform="translate(3550.28 821.9)"><tspan x="0" y="0">0</tspan></text>
  <text class="cls-3" transform="translate(3419.54 952.9)"><tspan x="0" y="0">0</tspan></text>
  <text class="cls-1" transform="translate(2640.79 953.9)"><tspan x="0" y="0">p</tspan></text>
  <text class="cls-1" transform="translate(2686.62 953.9)"><tspan x="0" y="0">roduct B </tspan></text>
  <text class="cls-1" transform="translate(3016.62 953.9)"><tspan x="0" y="0">@ </tspan></text>
  <text class="cls-1" transform="translate(3109.43 953.9)"><tspan x="0" y="0">t</tspan></text>
  <text class="cls-9" transform="translate(3132.35 973.9)"><tspan x="0" y="0">1</tspan></text>
  <text class="cls-1" transform="translate(2585.82 1200.9)"><tspan x="0" y="0">emission X </tspan></text>
  <text class="cls-6" transform="translate(3012.07 1200.9)"><tspan x="0" y="0">@ </tspan></text>
  <text class="cls-6" transform="translate(3104.89 1200.9)"><tspan x="0" y="0">t</tspan></text>
  <text class="cls-4" transform="translate(3132.39 1220.9)"><tspan x="0" y="0">0</tspan></text>
  <text class="cls-1" transform="translate(2585.82 1330.9)"><tspan x="0" y="0">emission X </tspan></text>
  <text class="cls-6" transform="translate(3012.07 1330.9)"><tspan x="0" y="0">@ </tspan></text>
  <text class="cls-6" transform="translate(3104.89 1330.9)"><tspan x="0" y="0">t</tspan></text>
  <text class="cls-4" transform="translate(3132.39 1350.9)"><tspan x="0" y="0">1</tspan></text>
  <text class="cls-1" transform="translate(2585.82 1461.9)"><tspan x="0" y="0">emission X </tspan></text>
  <text class="cls-6" transform="translate(3012.07 1461.9)"><tspan x="0" y="0">@ </tspan></text>
  <text class="cls-6" transform="translate(3104.89 1461.9)"><tspan x="0" y="0">t</tspan></text>
  <text class="cls-4" transform="translate(3132.39 1481.9)"><tspan x="0" y="0">2</tspan></text>
  <path class="cls-12" d="M3206.02,1120.9c0-28.7,23.28-52,52-52h364c28.72,0,52,23.3,52,52v364c0,28.7-23.28,52-52,52h-364c-28.72,0-52-23.3-52-52v-364Z"/>
  <text class="cls-5" transform="translate(3419.54 1198.9)"><tspan x="0" y="0">3</tspan></text>
  <text class="cls-3" transform="translate(3288.81 1329.9)"><tspan x="0" y="0">0</tspan></text>
  <text class="cls-5" transform="translate(3419.54 1329.9)"><tspan x="0" y="0">2</tspan></text>
  <text class="cls-3" transform="translate(3550.28 1198.9)"><tspan x="0" y="0">0</tspan></text>
  <text class="cls-3" transform="translate(3288.81 1460.9)"><tspan x="0" y="0">0</tspan></text>
  <text class="cls-3" transform="translate(3288.81 1198.9)"><tspan x="0" y="0">0</tspan></text>
  <text class="cls-5" transform="translate(3519.62 1460.9)"><tspan x="0" y="0">1.2</tspan></text>
  <text class="cls-5" transform="translate(3519.62 1329.9)"><tspan x="0" y="0">1.8</tspan></text>
  <text class="cls-3" transform="translate(3419.54 1460.9)"><tspan x="0" y="0">0</tspan></text>
  <path class="cls-13" d="M970.23,297.9l14.05-11.9,15.12-11.4,15.91-10.7,16.65-10,17.34-9.4,18-8.7,18.62-8,19.19-7.3,19.72-6.7,20.21-5.9,20.66-5.3,21.07-4.6,21.44-3.9,21.77-3.3,22.05-2.5,22.3-1.9,22.51-1.1,22.67-.5,22.8.3,22.88.9,22.93,1.7,22.92,2.3,22.89,3.1,22.81,3.8,22.69,4.5,22.53,5.2,22.33,5.9,22.09,6.7,21.8,7.4,21.48,8.1,21.12,8.9,20.71,9.6,17.3,8.8,16.71,9.2,16.12,9.7,15.51,10,14.86,10.5,14.2,10.8,13.52,11.2,6.18,5.6c2.35,2.1,2.53,5.7.41,8.1-2.12,2.3-5.74,2.5-8.09.4l-5.81-5.3-13.16-10.9-13.84-10.5-14.51-10.3-15.15-9.8-15.77-9.4-16.37-9.1-16.94-8.6-20.32-9.4-20.74-8.7-21.1-8-21.43-7.3-21.73-6.6-21.96-5.8-22.18-5.2-22.33-4.4-22.46-3.8-22.54-3-22.58-2.3-22.57-1.6-22.53-1-22.45-.2-22.31.4-22.15,1.2-21.94,1.8-21.68,2.5-21.39,3.1-21.05,3.9-20.68,4.5-20.26,5.2-19.79,5.8-19.29,6.5-18.75,7.2-18.17,7.8-17.54,8.4-16.87,9.1-16.16,9.7-15.42,10.4-14.63,11-14.05,11.8c-2.42,2.1-6.03,1.8-8.07-.7-2.04-2.4-1.73-6,.69-8ZM1741.4,288.1l7.29,51.1-51.58-2c-3.16-.1-5.62-2.8-5.5-6,.13-3.1,2.79-5.6,5.95-5.5l44.72,1.8-5.9,6.5-6.33-44.2c-.44-3.2,1.73-6.1,4.87-6.5,3.13-.5,6.03,1.7,6.48,4.8Z"/>
  <path class="cls-13" d="M2179.23,1257.2l15.65,11.75,17.46,11.25,18.75,10.43,19.87,9.59,20.82,8.71,21.62,7.8,22.26,6.86,22.73,5.88,23.04,4.86,23.18,3.8,23.17,2.71,23,1.58,22.66.41,22.16-.81,21.51-2.07,11.87-1.93c3.12-.51,5.24-3.46,4.73-6.58-.51-3.12-3.46-5.24-6.58-4.73l-11.12,1.83-20.83,2.02-21.54.8-22.08-.38-22.45-1.53-22.65-2.64-22.68-3.71-22.53-4.74-22.22-5.73-21.74-6.68-21.09-7.59-20.27-8.46-19.28-9.28-18.12-10.06-16.78-10.78-15.65-11.75c-2.53-1.9-6.12-1.39-8.02,1.14-1.9,2.53-1.39,6.12,1.14,8.02ZM2483.08,1369.93l33.81-39.01-44.47-26.22c-2.73-1.61-6.24-.7-7.85,2.02s-.7,6.24,2.02,7.85l38.54,22.73-1.42-8.69-29.31,33.81c-2.07,2.39-1.81,6.01.58,8.08,2.39,2.07,6.01,1.81,8.08-.58Z"/>
  <text class="cls-7" transform="translate(46.76 1531.9)"><tspan x="0" y="0">for</tspan></text>
  <text class="cls-7" transform="translate(142.23 1531.9)"><tspan x="0" y="0">both</tspan></text>
  <text class="cls-7" transform="translate(287.57 1531.9)"><tspan x="0" y="0">technosphere</tspan></text>
  <text class="cls-7" transform="translate(695.87 1531.9)"><tspan x="0" y="0">&amp;</tspan></text>
  <text class="cls-7" transform="translate(46.76 1595.9)"><tspan x="0" y="0">bi</tspan></text>
  <text class="cls-7" transform="translate(96.6 1595.9)"><tspan x="0" y="0">o</tspan></text>
  <text class="cls-7" transform="translate(132.12 1595.9)"><tspan x="0" y="0">sphere</tspan></text>
  <text class="cls-7" transform="translate(345.25 1595.9)"><tspan x="0" y="0">exchanges</tspan></text>
  <text class="cls-2" transform="translate(0 1529.9)"><tspan x="0" y="0">*</tspan></text>
  <path class="cls-14" d="M936.45,1270.5c5.03,3,8.27,6.1,9.72,9.3,1.44,3.1,1.65,6.5.62,10.3l-10.21-3.9c.48-1.7.41-3.2-.22-4.6-.63-1.5-1.97-2.8-4-4-2.56-1.6-4.61-2.4-6.15-2.3-1.05,0-1.82.5-2.31,1.3-.42.7-.46,1.4-.11,2.3.48,1.2,2.96,4,7.42,8.3s7.19,8,8.21,10.9c.97,3,.52,6-1.37,9.1-2.05,3.4-5.23,5.4-9.52,6.1-4.29.7-9.19-.6-14.7-4-5.01-3-8.35-6.4-10.03-10.2-1.68-3.9-1.91-7.8-.68-11.8l10.66,4.5c-.74,2.1-.77,4.1-.1,5.8.67,1.8,2.15,3.3,4.43,4.7,2.51,1.6,4.69,2.3,6.52,2.1,1.25-.1,2.2-.7,2.86-1.8.45-.8.59-1.5.43-2.3-.2-.7-1.03-1.8-2.47-3.2-6.79-6.5-10.8-11.2-12.03-13.9-1.69-3.7-1.46-7.4.69-10.9,1.94-3.2,4.83-5.1,8.67-5.7,3.83-.7,8.39.6,13.67,3.9Z"/>
  <path class="cls-14" d="M973.78,1302.1c-2.64-1.3-5.38-1.5-8.22-.4-2.85,1.1-5.25,3.5-7.21,7.3-1.96,3.8-2.56,7.2-1.81,10.1.76,3,2.46,5.1,5.1,6.5,2.64,1.4,5.37,1.5,8.2.4,2.84-1.1,5.24-3.6,7.23-7.4,1.94-3.7,2.53-7.1,1.79-10-.75-3-2.44-5.1-5.08-6.5ZM978.01,1293.9c5.78,2.9,9.55,7.3,11.3,12.9,1.76,5.7,1.15,11.4-1.82,17.1-2.99,5.8-7.34,9.7-13.03,11.5-5.7,1.9-11.39,1.4-17.05-1.6-3.5-1.8-6.43-4.3-8.79-7.5-2.37-3.2-3.58-6.8-3.65-10.7-.08-3.9,1.02-8.1,3.29-12.5,1.74-3.4,4.25-6.2,7.53-8.5,3.28-2.2,6.87-3.4,10.76-3.5,3.9-.1,7.71.8,11.46,2.8Z"/>
  <path class="cls-14" d="M1003.29,1307.6l10.45,4.6-7.86,18.1c-2.41,5.6-3.69,9.1-3.85,10.5-.16,1.4.11,2.7.81,3.9.7,1.1,1.83,2.1,3.4,2.7,1.78.8,3.59,1,5.43.6,1.84-.3,3.33-1.1,4.48-2.4,1.15-1.2,2.95-4.6,5.4-10.3l7.21-16.6,10.45,4.5-17.11,39.5-9.7-4.2,2.56-5.9c-2.35,1.5-4.96,2.3-7.83,2.5-2.87.2-5.61-.3-8.21-1.4-2.65-1.1-4.78-2.8-6.38-4.8-1.6-2.1-2.42-4.4-2.45-6.9-.03-2.5.76-5.7,2.37-9.4l10.83-25Z"/>
  <path class="cls-14" d="M1067.61,1332.7c2.43.9,4.53,2.5,6.28,4.7l-6.76,8c-1.37-1.8-2.82-3-4.37-3.6-1.49-.5-2.91-.6-4.25-.2-1.35.5-2.72,1.7-4.11,3.6-1.4,1.9-3.37,6.3-5.92,13.2l-4.64,12.4-10.67-3.9,15-40.4,9.91,3.7-2.13,5.8c2.7-2.1,4.89-3.3,6.57-3.7,1.67-.4,3.37-.2,5.09.4Z"/>
  <path class="cls-14" d="M1095.28,1342c5,1.6,8.63,3.9,10.89,7,2.26,3.1,3.34,7,3.23,11.8l-11.32-1.4c.32-2.3.02-4.2-.91-5.6-.93-1.5-2.42-2.6-4.45-3.2-2.7-.9-5.16-.7-7.36.7-2.2,1.4-4,4.2-5.39,8.6-1.55,4.9-1.83,8.6-.83,11.1.99,2.5,2.87,4.2,5.62,5.1,2.06.7,3.94.6,5.62-.1,1.69-.8,3.26-2.5,4.71-5.2l10.08,5.2c-2.67,4.5-5.97,7.6-9.9,9.1-3.94,1.5-8.54,1.4-13.82-.3-6-1.9-10.18-5.3-12.54-10.3-2.36-4.9-2.48-10.7-.35-17.4,2.16-6.8,5.62-11.5,10.4-14.1,4.78-2.6,10.22-3,16.32-1Z"/>
  <path class="cls-14" d="M1134.46,1362.3c-2.4-.6-4.62-.3-6.64,1.1-2.03,1.3-3.41,3.5-4.17,6.5l16.48,4.3c.75-3.2.55-5.9-.59-7.9-1.13-2.1-2.83-3.4-5.08-4ZM1135.98,1353.7c6.2,1.6,10.56,4.9,13.08,9.9,2.52,5.1,2.61,11.8.26,20.2l-27.62-7.2c-.77,3.3-.54,6.1.69,8.3,1.23,2.3,3.11,3.8,5.65,4.4,1.73.5,3.3.4,4.72-.3,1.42-.6,2.7-1.9,3.85-3.8l10.5,4.7c-2.45,3.6-5.48,6.1-9.07,7.4-3.6,1.3-7.68,1.4-12.26.2-7.24-1.9-11.99-5.6-14.24-11.3-1.76-4.5-1.89-9.6-.39-15.4,1.79-6.9,5-11.8,9.62-14.8,4.63-3,9.7-3.7,15.21-2.3Z"/>
  <path class="cls-14" d="M1209.03,1369.3c2.48.5,4.66,1.3,6.55,2.5,1.9,1.3,3.25,2.7,4.05,4.3.81,1.5,1.27,3.2,1.37,5.1.11,1.8-.13,4.4-.7,7.6l-4.62,26.4-11.21-2,3.79-21.6c.8-4.6,1.08-7.6.84-9-.25-1.5-.84-2.6-1.79-3.6-.95-.9-2.18-1.5-3.7-1.8-1.94-.3-3.78-.1-5.51.7s-3.03,2-3.91,3.7c-.88,1.6-1.74,4.8-2.57,9.6l-3.36,19.2-11.22-2,7.43-42.4,10.42,1.8-1.09,6.3c4.54-4.2,9.62-5.8,15.23-4.8Z"/>
  <path class="cls-14" d="M1248.88,1383.9c-2.47-.3-4.62.3-6.44,1.9-1.83,1.6-2.92,4-3.27,7.1l16.9,2c.32-3.3-.23-5.8-1.63-7.7-1.4-1.9-3.26-3-5.56-3.3ZM1249.24,1375.1c6.36.8,11.12,3.5,14.29,8.2,3.16,4.6,4.14,11.3,2.92,19.9l-28.32-3.4c-.33,3.3.27,6,1.79,8.1,1.51,2.1,3.57,3.3,6.17,3.6,1.77.2,3.32-.1,4.64-.9,1.33-.8,2.43-2.3,3.31-4.3l11.03,3.2c-1.95,4-4.62,6.9-8,8.6-3.39,1.8-7.43,2.4-12.12,1.8-7.43-.9-12.64-4-15.61-9.2-2.35-4.3-3.16-9.4-2.44-15.3.86-7.1,3.38-12.4,7.57-15.9,4.19-3.6,9.12-5,14.77-4.4Z"/>
  <path class="cls-14" d="M1271.15,1379.1l11.04.7,6.3,28.6,9.15-27.7,10.96.7,5.42,28.6,9.96-27.6,11.2.7-16.46,42.1-10.92-.7-5.69-28.1-9,27.2-11.04-.7-10.92-43.8Z"/>
  <path class="cls-14" d="M1355.97,1383.1l11.96-.3,8.53,21.9,2.5,7.2c.58-1.8.95-3.1,1.1-3.7.36-1.2.74-2.4,1.14-3.6l7.76-22.2,11.71-.2-16.25,43.4-10.25.2-18.2-42.7Z"/>
  <path class="cls-14" d="M1432.16,1402.5c-1.42.6-3.69,1.3-6.8,2.2-3.1.9-5.12,1.7-6.05,2.4-1.41,1.2-2.06,2.6-1.95,4.2.11,1.6.8,2.9,2.07,4,1.26,1,2.81,1.5,4.64,1.4,2.05-.1,3.96-.9,5.73-2.4,1.3-1.1,2.12-2.5,2.45-4,.23-1,.25-2.8.06-5.5l-.15-2.3ZM1423.65,1379.7c5.07-.4,8.89,0,11.45,1s4.41,2.4,5.55,4.2c1.13,1.8,1.87,5.1,2.21,10.1l.78,13.3c.26,3.7.63,6.5,1.12,8.3.49,1.7,1.3,3.6,2.44,5.6l-11.24.8c-.35-.8-.79-1.9-1.33-3.3-.23-.7-.4-1.1-.49-1.3-1.81,2-3.79,3.5-5.94,4.6-2.14,1.1-4.47,1.8-6.98,1.9-4.42.3-7.98-.6-10.69-2.8-2.72-2.3-4.2-5.2-4.45-8.9-.16-2.4.27-4.6,1.3-6.6,1.03-2,2.55-3.5,4.57-4.7,2.02-1.1,4.97-2.2,8.86-3.3,5.24-1.3,8.85-2.5,10.84-3.5l-.07-1.1c-.15-2.2-.8-3.7-1.94-4.6-1.14-.8-3.21-1.2-6.2-1-2.02.2-3.57.7-4.65,1.5-1.08.9-1.9,2.4-2.46,4.4l-10.44-1.1c.87-4.3,2.66-7.5,5.35-9.7,2.7-2.2,6.83-3.4,12.41-3.8Z"/>
  <path class="cls-14" d="M1449.27,1362.1l11.33-1.2,6.15,59.1-11.33,1.2-6.15-59.1Z"/>
  <path class="cls-14" d="M1472.49,1376.2l11.27-1.6,2.82,19.6c.86,6,1.6,9.6,2.21,10.9s1.52,2.3,2.73,2.9c1.21.6,2.65.8,4.34.6,1.92-.3,3.57-1.1,4.94-2.4,1.38-1.2,2.23-2.7,2.57-4.3.33-1.7.06-5.6-.82-11.7l-2.58-17.9,11.27-1.6,6.13,42.6-10.47,1.5-.92-6.4c-1.22,2.5-3,4.6-5.34,6.2-2.34,1.7-4.91,2.8-7.72,3.2-2.86.4-5.52.1-7.97-.8-2.46-.9-4.35-2.5-5.7-4.6-1.34-2.1-2.3-5.2-2.88-9.2l-3.88-27Z"/>
  <path class="cls-14" d="M1539.45,1373.2c-2.44.4-4.28,1.7-5.52,3.8-1.23,2.1-1.54,4.7-.91,7.7l16.7-3.3c-.72-3.2-2.04-5.5-3.97-6.9-1.92-1.3-4.02-1.8-6.3-1.3ZM1537.08,1364.7c6.28-1.2,11.64-.1,16.1,3.3,4.45,3.4,7.45,9.4,8.99,18l-27.99,5.6c.74,3.3,2.15,5.7,4.24,7.2,2.09,1.5,4.42,2,6.99,1.5,1.75-.4,3.12-1.1,4.13-2.3,1-1.2,1.6-2.9,1.78-5.2l11.51-.3c-.62,4.3-2.27,7.9-4.93,10.6-2.67,2.8-6.32,4.6-10.95,5.5-7.35,1.5-13.25.2-17.73-3.9-3.55-3.3-5.9-7.9-7.06-13.7-1.39-7-.65-12.9,2.22-17.6,2.87-4.7,7.1-7.5,12.7-8.7Z"/>
  <path class="cls-14" d="M1579.64,1355.2c5.71-1.5,10.19-1.6,13.44-.4,3.24,1.1,5.85,3.4,7.82,6.8l-9.92,4.5c-.86-1.5-2.02-2.5-3.48-3.1-1.46-.5-3.35-.5-5.65.1-2.91.7-4.89,1.6-5.94,2.8-.69.8-.92,1.6-.69,2.5.2.8.73,1.4,1.6,1.8,1.19.4,4.89.6,11.1.5,6.22-.2,10.74.4,13.56,1.7,2.81,1.4,4.65,3.9,5.54,7.4.97,3.8.2,7.5-2.3,11.1-2.5,3.5-6.88,6.1-13.14,7.7-5.68,1.4-10.47,1.4-14.37-.1-3.89-1.4-6.85-4-8.88-7.7l10.66-4.5c1.01,2,2.38,3.4,4.1,4.2,1.72.7,3.88.8,6.48.1,2.85-.7,4.87-1.8,6.04-3.2.78-1,1.02-2.1.71-3.3-.21-.9-.65-1.5-1.31-1.9-.69-.4-2.04-.6-4.07-.5-9.4.3-15.5-.1-18.29-1.1-3.87-1.4-6.31-4.1-7.33-8.2-.91-3.6-.26-7,1.98-10.2,2.23-3.1,6.34-5.5,12.34-7Z"/>
  <path class="cls-14" d="M1637.51,1321.1c3.08-1,6.25-1.6,9.5-1.6l1.03,8c-1.85.2-3.58.5-5.17,1-1.56.5-2.56,1.3-3,2.2-.44,1-.32,2.5.37,4.6l.95,2.9,8.08-2.7,2.81,8.5-8.08,2.7,10.68,32.3-10.82,3.6-10.68-32.4-6,2-2.81-8.5,6-2-1.01-3c-1.13-3.5-1.62-6.2-1.44-8.1.17-1.9,1.06-3.8,2.67-5.5,1.61-1.7,3.92-3,6.92-4Z"/>
  <path class="cls-14" d="M1672.56,1325.9c2.43-.9,5.02-1.1,7.77-.6l.15,10.5c-2.23-.5-4.11-.5-5.66.1-1.49.6-2.61,1.4-3.34,2.7-.73,1.2-1,3-.79,5.3.2,2.4,1.58,7,4.13,13.9l4.63,12.4-10.68,4-14.98-40.3,9.91-3.7,2.13,5.7c.69-3.3,1.56-5.7,2.59-7,1.04-1.4,2.41-2.4,4.14-3Z"/>
  <path class="cls-14" d="M1704.21,1322.9c-2.73,1.1-4.57,3.2-5.53,6.1-.96,2.8-.59,6.2,1.11,10.2,1.7,3.9,3.92,6.5,6.69,7.8,2.76,1.2,5.5,1.3,8.23.1s4.56-3.2,5.51-6.1c.94-2.9.56-6.3-1.16-10.3-1.68-3.8-3.89-6.4-6.64-7.7-2.75-1.3-5.49-1.3-8.21-.1ZM1700.48,1314.4c5.97-2.6,11.71-2.8,17.21-.6,5.5,2.2,9.53,6.3,12.1,12.2,2.59,6,2.8,11.8.65,17.4s-6.15,9.7-12,12.2c-3.62,1.6-7.43,2.2-11.42,2-4-.2-7.54-1.5-10.62-3.9-3.08-2.4-5.6-5.9-7.56-10.5-1.51-3.4-2.11-7.2-1.8-11.1.3-4,1.65-7.6,4.05-10.6,2.39-3.1,5.52-5.5,9.39-7.1Z"/>
  <path class="cls-14" d="M1747.03,1292.2c2.43-1.3,4.8-2,7.13-1.9,2.32,0,4.6.7,6.83,2.1.57-2.9,1.55-5.4,2.94-7.4,1.39-2,3.18-3.6,5.37-4.8,2.78-1.5,5.44-2.2,7.98-2.1,2.53.1,4.87,1,7,2.6,1.56,1.3,3.31,3.7,5.26,7.3l13.05,24.3-10.03,5.4-11.66-21.7c-2.03-3.8-3.68-6-4.96-6.7-1.7-1-3.51-.9-5.43.1-1.41.8-2.5,1.9-3.27,3.5-.78,1.5-1,3.2-.65,5.2.34,1.9,1.47,4.7,3.39,8.2l9.81,18.2-10.03,5.4-11.19-20.7c-1.98-3.7-3.44-6-4.37-6.9-.94-.9-1.92-1.4-2.95-1.5-1.03-.1-2.19.2-3.47.9-1.55.8-2.72,2-3.51,3.5s-1.02,3.2-.71,5c.31,1.9,1.44,4.6,3.4,8.3l9.92,18.4-10.03,5.4-20.41-37.9,9.24-5,2.79,5.2c1.14-5.8,4-10,8.56-12.4Z"/>
  <path class="cls-14" d="M944.07,1370.6l-7.01,13.5,6.91,3.5-4.19,8.1-6.9-3.6-8,15.4c-1.61,3.1-2.49,5-2.63,5.6-.13.5-.06,1.1.24,1.7.29.6.77,1,1.44,1.4.94.5,2.46.9,4.57,1.1l-3.21,8.3c-2.87-.2-5.79-1.1-8.76-2.6-1.83-1-3.31-2.1-4.46-3.5-1.14-1.4-1.8-2.7-1.98-4-.18-1.4.03-2.9.62-4.7.4-1.3,1.52-3.7,3.38-7.3l8.65-16.7-4.64-2.4,4.18-8,4.64,2.4,3.94-7.6,13.21-.6Z"/>
  <path class="cls-14" d="M950.24,1390.7l10.27,4.9-18.66,38.8-10.27-4.9,18.66-38.8ZM957.34,1375.9l10.27,5-4.57,9.4-10.27-4.9,4.57-9.5Z"/>
  <path class="cls-14" d="M991.02,1408.2c2.55,1.1,4.54,2.5,5.98,4.3,1.44,1.9,2.32,4.1,2.64,6.7,2.63-1.4,5.17-2.2,7.62-2.4,2.46-.2,4.84.1,7.13,1.1,2.92,1.2,5.15,2.8,6.68,4.8,1.53,2.1,2.32,4.4,2.37,7.1.02,2-.75,4.9-2.32,8.7l-10.52,25.5-10.52-4.4,9.4-22.7c1.63-4,2.33-6.7,2.08-8.1-.36-1.9-1.55-3.3-3.57-4.1-1.47-.6-3.04-.8-4.71-.4-1.67.4-3.15,1.3-4.45,2.8-1.29,1.5-2.71,4.1-4.26,7.9l-7.9,19.1-10.52-4.4,9.01-21.8c1.61-3.9,2.45-6.4,2.54-7.7.09-1.3-.14-2.4-.7-3.2-.56-.9-1.52-1.6-2.86-2.2-1.63-.7-3.27-.8-4.93-.5-1.66.3-3.11,1.2-4.35,2.6-1.25,1.5-2.66,4.1-4.24,7.9l-7.99,19.3-10.52-4.3,16.45-39.8,9.7,4-2.25,5.4c5.22-2.8,10.22-3.2,15.01-1.2Z"/>
  <path class="cls-14" d="M1049.41,1439.7c-2.36-.8-4.59-.6-6.71.6-2.11,1.2-3.65,3.3-4.62,6.2l16.12,5.5c.98-3.2.98-5.8-.01-8-.99-2.1-2.58-3.6-4.78-4.3ZM1051.54,1431.2c6.07,2.1,10.18,5.7,12.33,10.9,2.16,5.2,1.76,11.9-1.18,20.1l-27.04-9.1c-1,3.2-.97,6,.09,8.3,1.07,2.3,2.84,3.9,5.32,4.8,1.69.5,3.27.6,4.73,0,1.46-.5,2.84-1.7,4.12-3.5l10.14,5.4c-2.72,3.5-5.91,5.7-9.59,6.8-3.68,1-7.76.8-12.24-.7-7.09-2.4-11.55-6.5-13.39-12.3-1.44-4.6-1.2-9.7.71-15.4,2.29-6.7,5.84-11.4,10.66-14.1,4.83-2.6,9.94-3,15.34-1.2Z"/>
  <path class="cls-14" d="M1072.49,1455.6l21.46,6.3-3.21,11-21.46-6.4,3.21-10.9Z"/>
  <path class="cls-14" d="M1118.26,1459.9c-2.41-.6-4.62-.2-6.64,1.2-2.01,1.3-3.39,3.5-4.12,6.5l16.5,4.2c.73-3.2.52-5.8-.64-7.9-1.15-2.1-2.85-3.4-5.1-4ZM1119.73,1451.3c6.2,1.6,10.58,4.9,13.14,9.9,2.55,5,2.68,11.7.38,20.1l-27.66-7c-.75,3.3-.5,6.1.74,8.4,1.24,2.2,3.14,3.7,5.68,4.3,1.73.4,3.3.3,4.72-.3,1.41-.7,2.69-2,3.82-3.9l10.53,4.6c-2.43,3.7-5.44,6.2-9.02,7.6-3.59,1.3-7.67,1.4-12.26.2-7.25-1.8-12.02-5.5-14.31-11.2-1.79-4.5-1.95-9.6-.49-15.4,1.75-6.9,4.92-11.9,9.53-14.9,4.6-3,9.67-3.8,15.2-2.4Z"/>
  <path class="cls-14" d="M1142.08,1458l13.62,2.7,5.11,13.1,10.22-10,13.11,2.7-18.35,17.1,11.1,25.3-13.7-2.7-5.93-14.9-11.31,11.4-13.07-2.7,19.62-18.6-10.42-23.4Z"/>
  <path class="cls-14" d="M1209.64,1478.6c-2.75-.4-5.2.3-7.34,2.2-2.14,1.8-3.53,4.8-4.17,9-.73,4.8-.32,8.4,1.23,11,1.55,2.6,3.68,4.1,6.41,4.5,2.61.4,4.95-.3,7.01-2.2,2.05-1.8,3.45-5.1,4.18-9.9.68-4.4.29-7.9-1.17-10.3-1.46-2.5-3.51-3.9-6.15-4.3ZM1214.04,1470.2c4.94.7,8.84,3.3,11.69,7.7,2.86,4.4,3.75,10.1,2.7,17-1.09,7.1-3.67,12.4-7.74,15.8-4.08,3.4-8.58,4.7-13.53,3.9-2.35-.3-4.4-1.1-6.17-2.3-1.77-1.3-3.53-3.2-5.3-5.8l-3.27,21.5-11.26-1.8,8.98-58.7,10.49,1.6-.95,6.3c1.69-2,3.8-3.4,6.32-4.4,2.53-1,5.21-1.2,8.04-.8Z"/>
  <path class="cls-14" d="M1241.24,1458.3l11.31,1.3-6.83,59.1-11.31-1.4,6.83-59Z"/>
  <path class="cls-14" d="M1261.54,1477l11.34,1.1-3.98,42.8-11.34-1,3.98-42.9ZM1263.06,1460.7l11.34,1.1-.98,10.5-11.34-1.1.98-10.5Z"/>
  <path class="cls-14" d="M1301.84,1479.2c5.24.3,9.33,1.7,12.28,4.1,2.96,2.4,4.97,6,6.05,10.7l-11.33,1.4c-.24-2.3-1-4-2.27-5.3-1.26-1.2-2.96-1.8-5.09-2-2.84-.1-5.15.7-6.95,2.6-1.81,1.8-2.84,5-3.11,9.6-.3,5.1.34,8.8,1.93,11,1.58,2.2,3.82,3.4,6.71,3.5,2.16.2,3.96-.3,5.41-1.5,1.44-1.1,2.54-3.2,3.28-6.1l11.06,2.5c-1.47,5.1-3.92,8.8-7.37,11.2-3.44,2.5-7.93,3.5-13.46,3.2-6.28-.4-11.17-2.7-14.67-6.9-3.5-4.1-5.05-9.7-4.63-16.8.42-7,2.62-12.5,6.6-16.2,3.98-3.7,9.17-5.4,15.56-5Z"/>
  <path class="cls-14" d="M1328.28,1481.3l11.39.3-1.11,43.1-11.39-.3,1.11-43.1ZM1328.71,1465l11.38.3-.27,10.5-11.39-.3.28-10.5Z"/>
  <path class="cls-14" d="M1362.48,1466.6l-.02,15.2h7.78l-.02,9.1h-7.78l-.03,17.4c0,3.5.07,5.5.22,6.1.14.6.48,1.1,1.01,1.4.52.4,1.17.6,1.92.6,1.06,0,2.58-.4,4.58-1.1l.96,8.9c-2.65,1.1-5.65,1.7-9,1.6-2.05,0-3.9-.3-5.55-1-1.65-.7-2.85-1.6-3.62-2.7-.77-1.1-1.3-2.6-1.6-4.4-.24-1.3-.35-4-.35-8l.03-18.8h-5.22v-9.1h5.24v-8.5s11.45-6.7,11.45-6.7Z"/>
  <path class="cls-14" d="M1418.33,1487.9c-2.69.2-4.89,1.4-6.59,3.6-1.7,2.3-2.42,5.5-2.18,9.8.27,4.6,1.09,7.8,2.48,9.8,2,2.9,4.65,4.2,7.94,4,2.62-.1,4.78-1.4,6.49-3.7,1.7-2.3,2.43-5.7,2.17-10.1-.28-5-1.38-8.5-3.28-10.5-1.91-2.1-4.25-3.1-7.03-2.9ZM1426.42,1463.3l11.36-.7,3.42,59.3-10.56.7-.36-6.4c-1.62,2.6-3.58,4.5-5.9,5.9-2.32,1.3-4.69,2.1-7.12,2.2-4.93.3-9.28-1.5-13.03-5.2-3.74-3.8-5.82-9.3-6.23-16.4-.42-7.3.97-12.9,4.18-16.9s7.43-6.1,12.66-6.4c4.8-.3,9.07,1.5,12.81,5.3l-1.23-21.4Z"/>
  <path class="cls-14" d="M1474.64,1497.9c-1.4.6-3.64,1.4-6.71,2.4-3.08,1-5.06,1.9-5.96,2.7-1.37,1.2-1.97,2.6-1.8,4.2.16,1.6.9,2.9,2.2,3.9,1.3,1,2.87,1.5,4.69,1.3,2.05-.2,3.92-1.1,5.64-2.7,1.26-1.1,2.03-2.5,2.31-4,.19-1,.15-2.8-.14-5.6l-.23-2.2ZM1465.32,1475.4c5.05-.5,8.88-.3,11.47.6,2.6.9,4.5,2.3,5.7,4,1.2,1.7,2.06,5.1,2.57,10l1.26,13.2c.39,3.8.87,6.5,1.41,8.3.55,1.7,1.43,3.6,2.64,5.5l-11.21,1.2c-.37-.7-.85-1.8-1.43-3.2-.26-.7-.44-1.1-.55-1.3-1.73,2.1-3.66,3.7-5.76,4.9-2.11,1.1-4.41,1.8-6.91,2.1-4.4.5-8-.4-10.79-2.5-2.79-2.1-4.38-5-4.76-8.7-.25-2.4.1-4.6,1.06-6.6s2.42-3.7,4.4-4.9c1.98-1.2,4.89-2.4,8.73-3.6,5.19-1.5,8.77-2.8,10.72-3.9l-.12-1.1c-.23-2.2-.93-3.7-2.1-4.5s-3.25-1.1-6.23-.8c-2.02.2-3.55.8-4.59,1.7-1.05.9-1.82,2.4-2.31,4.5l-10.47-.8c.72-4.3,2.39-7.5,5.01-9.8,2.61-2.3,6.7-3.7,12.26-4.3Z"/>
  <path class="cls-14" d="M1502.98,1456.4l2.12,15,7.7-1.1,1.27,9-7.7,1.1,2.41,17.2c.49,3.5.85,5.5,1.08,6,.23.6.63,1,1.21,1.3.57.3,1.23.4,1.98.3,1.04-.1,2.51-.7,4.38-1.7l2.2,8.6c-2.46,1.5-5.36,2.5-8.67,2.9-2.04.3-3.92.2-5.64-.2-1.73-.5-3.05-1.2-3.97-2.1-.91-1-1.65-2.4-2.2-4.2-.43-1.3-.92-3.9-1.48-7.9l-2.62-18.6-5.18.7-1.26-9,5.17-.7-1.19-8.5,10.39-8.1Z"/>
  <path class="cls-14" d="M1546.83,1487.2c-1.35.7-3.53,1.7-6.52,2.9-2.99,1.3-4.91,2.3-5.75,3.1-1.28,1.3-1.78,2.7-1.5,4.3.28,1.6,1.11,2.9,2.49,3.8,1.37.9,2.96,1.2,4.77.9,2.02-.4,3.83-1.4,5.43-3,1.18-1.3,1.85-2.7,2.01-4.2.12-1-.05-2.9-.53-5.6l-.4-2.2ZM1535.91,1465.4c5-.8,8.83-.9,11.49-.2,2.65.8,4.64,2,5.97,3.6,1.32,1.7,2.41,4.9,3.28,9.8l2.22,13.1c.66,3.7,1.33,6.4,2,8.1.68,1.7,1.69,3.5,3.03,5.4l-11.09,1.9c-.43-.7-.98-1.7-1.67-3.1-.3-.6-.51-1-.63-1.2-1.59,2.2-3.38,3.9-5.4,5.3-2.01,1.3-4.26,2.2-6.73,2.6-4.36.8-8.01.2-10.95-1.7-2.93-1.9-4.73-4.7-5.37-8.3-.43-2.4-.24-4.6.57-6.7.81-2.1,2.16-3.8,4.04-5.2,1.89-1.4,4.7-2.8,8.45-4.2,5.07-1.9,8.54-3.5,10.41-4.7l-.2-1.1c-.39-2.2-1.19-3.6-2.42-4.3-1.23-.8-3.32-.9-6.27-.3-2,.3-3.48,1-4.46,2s-1.64,2.5-1.98,4.6h-10.5c.42-4.3,1.84-7.7,4.29-10.2,2.44-2.4,6.41-4.2,11.92-5.2Z"/>
  <path class="cls-14" d="M1584.89,1464.3c-2.66.7-4.63,2.2-5.92,4.7-1.3,2.4-1.46,5.8-.49,10,1,4.3,2.42,7.4,4.26,9.2,2.6,2.5,5.49,3.4,8.68,2.6,2.45-.5,4.3-2.1,5.54-4.5,1.25-2.5,1.35-6,.32-10.5-1.1-4.8-2.76-8.1-4.98-9.8-2.23-1.7-4.7-2.3-7.41-1.7ZM1559.2,1445.5l11.1-2.6,4.78,20.9c2.53-4.7,6.14-7.6,10.83-8.6,5.1-1.2,9.76-.3,13.95,2.6,4.19,2.9,7.08,7.9,8.67,14.8,1.64,7.2,1.2,13.1-1.32,17.7-2.52,4.7-6.22,7.6-11.09,8.7-2.4.5-4.9.5-7.5-.2-2.61-.7-5.02-2-7.25-3.9l1.42,6.1-10.31,2.4-13.28-57.9Z"/>
  <path class="cls-14" d="M1640.05,1465.1c-1.27.9-3.34,2.1-6.19,3.6-2.86,1.5-4.67,2.7-5.43,3.6-1.14,1.4-1.49,2.9-1.05,4.5.43,1.5,1.38,2.7,2.84,3.4,1.46.8,3.07,1,4.84.5,1.98-.6,3.68-1.8,5.1-3.6,1.05-1.3,1.58-2.8,1.59-4.3.02-1-.34-2.9-1.08-5.5l-.62-2.2ZM1627.03,1444.5c4.88-1.3,8.69-1.8,11.41-1.3,2.72.5,4.81,1.5,6.29,3s2.89,4.6,4.24,9.4l3.5,12.8c1.03,3.6,1.97,6.3,2.81,7.9.84,1.6,2.02,3.3,3.54,5l-10.84,3.1c-.49-.7-1.15-1.7-1.97-3-.37-.6-.62-1-.75-1.2-1.36,2.4-2.98,4.3-4.85,5.8-1.88,1.6-4.02,2.7-6.44,3.3-4.26,1.2-7.95,1-11.06-.6-3.11-1.6-5.17-4.2-6.17-7.7-.66-2.4-.69-4.6-.09-6.7.6-2.2,1.76-4,3.5-5.6,1.74-1.5,4.41-3.2,8-5,4.85-2.4,8.14-4.3,9.88-5.7l-.31-1.1c-.59-2.1-1.54-3.5-2.83-4.1-1.3-.6-3.39-.5-6.27.4-1.95.5-3.36,1.3-4.24,2.4-.87,1.1-1.38,2.7-1.51,4.8l-10.45,1c0-4.3,1.07-7.8,3.26-10.5,2.18-2.7,5.97-4.8,11.35-6.4Z"/>
  <path class="cls-14" d="M1668.42,1431.8c5.58-1.9,10.04-2.4,13.36-1.5,3.33.9,6.1,3,8.33,6.2l-9.55,5.3c-.97-1.5-2.2-2.4-3.7-2.8-1.5-.5-3.38-.3-5.63.5-2.84.9-4.75,2-5.71,3.2-.63.8-.79,1.7-.49,2.6.26.8.84,1.3,1.74,1.6,1.21.4,4.91.3,11.1-.4,6.19-.6,10.74-.3,13.66.8,2.9,1.1,4.93,3.4,6.08,6.9,1.26,3.7.79,7.5-1.43,11.2-2.22,3.7-6.39,6.6-12.51,8.7-5.55,1.9-10.33,2.2-14.33,1.1-4-1.2-7.15-3.5-9.45-7.1l10.28-5.3c1.16,2,2.64,3.3,4.41,3.9,1.78.6,3.93.5,6.47-.4,2.79-.9,4.71-2.2,5.78-3.7.7-1,.85-2.1.45-3.3-.28-.8-.77-1.4-1.46-1.8-.71-.3-2.07-.4-4.09-.2-9.35,1-15.46,1.1-18.32.3-3.97-1.1-6.62-3.6-7.94-7.5-1.19-3.6-.79-7,1.19-10.3,1.98-3.4,5.9-6.1,11.76-8Z"/>
  <path class="cls-14" d="M1714.66,1424.2c-2.31.9-3.89,2.5-4.73,4.8-.84,2.2-.68,4.8.48,7.7l15.84-6.3c-1.29-3-3-5-5.14-6-2.14-1-4.29-1.1-6.45-.2ZM1710.82,1416.3c5.95-2.3,11.43-2.2,16.43.3,4.99,2.6,9.02,8,12.07,16.2l-26.53,10.5c1.31,3.1,3.13,5.2,5.46,6.3,2.32,1.1,4.7,1.1,7.14.2,1.66-.7,2.87-1.7,3.65-3,.77-1.4,1.05-3.2.83-5.4l11.25-2.4c.18,4.4-.8,8.2-2.93,11.4-2.13,3.1-5.39,5.6-9.79,7.3-6.96,2.8-13.01,2.5-18.15-.7-4.08-2.6-7.21-6.7-9.41-12.2-2.62-6.6-2.93-12.5-.95-17.7,1.98-5.1,5.63-8.7,10.93-10.8Z"/>
  <path class="cls-14" d="M1750.95,1399.3c5.35-2.5,9.73-3.4,13.14-2.9,3.4.6,6.37,2.3,8.92,5.3l-8.94,6.3c-1.11-1.3-2.44-2.2-3.98-2.4-1.54-.3-3.39.1-5.55,1-2.73,1.3-4.5,2.6-5.34,3.9-.53.9-.61,1.7-.21,2.6.33.7.96,1.2,1.89,1.4,1.25.3,4.92-.2,11-1.5,6.09-1.3,10.65-1.5,13.67-.7,3,.9,5.26,2.9,6.76,6.2,1.65,3.6,1.56,7.4-.26,11.3-1.81,4-5.66,7.3-11.53,10-5.33,2.4-10.04,3.3-14.14,2.5-4.1-.7-7.48-2.7-10.13-6l9.66-6.3c1.37,1.8,2.97,2.9,4.79,3.3,1.83.5,3.96.1,6.4-1,2.67-1.2,4.46-2.6,5.37-4.2.59-1.1.62-2.3.09-3.4-.36-.8-.9-1.3-1.63-1.6-.74-.3-2.1-.2-4.09.2-9.19,2-15.26,2.7-18.19,2.2-4.06-.7-6.95-2.9-8.67-6.7-1.56-3.4-1.52-6.8.1-10.4,1.62-3.5,5.24-6.5,10.87-9.1Z"/>
  <path class="cls-14" d="M1775.74,1369.1l5.22-2.7c1.15,2.4,2.41,5.5,3.78,9.4,1.83-2.6,4.07-5.2,6.72-7.9l4.29,4.3c-2.53,2.6-5.17,4.8-7.93,6.6,2.12.5,5.36,1.7,9.71,3.6l-2.74,5.3c-2.38-1.2-5.35-2.9-8.93-5.2-.03,4.3-.26,7.7-.69,10.2l-5.83-.9c1.01-4.9,1.84-8.2,2.47-9.9-3.41,1-6.7,1.9-9.87,2.6l-.98-6c4.51-.6,7.89-.9,10.12-.8-2.69-4.1-4.48-7-5.34-8.6Z"/>
  <path class="cls-15" d="M693.2,1273.66l8.34,12.01,8.81,11.93,18.67,23.11,20.14,22.25,21.49,21.31,22.78,20.35,24.01,19.38,25.18,18.4,26.28,17.4,27.32,16.39,28.3,15.36,29.22,14.32,30.08,13.27,30.88,12.2,31.61,11.11,32.29,10.01,32.9,8.9,33.46,7.77,33.95,6.63,34.38,5.47,34.75,4.3,35.06,3.11,35.31,1.91,35.5.69,35.63-.55,35.7-1.8,35.7-3.06,35.65-4.34,35.53-5.64,35.36-6.95,35.12-8.28,34.82-9.62,34.46-10.98,29.49-10.62,28.67-11.51,27.85-12.38,26.98-13.23,26.08-14.05,25.15-14.84,24.18-15.61,23.18-16.36,22.15-17.08,21.08-17.78,19.98-18.45,18.84-19.1,17.66-19.73,16.46-20.33,15.22-20.91,9.08-13.97c1.72-2.65.97-6.2-1.69-7.92-2.65-1.72-6.2-.97-7.92,1.69l-8.73,13.46-14.86,20.44-16.09,19.9-17.29,19.33-18.46,18.73-19.59,18.11-20.69,17.46-21.75,16.79-22.8,16.09-23.79,15.37-24.76,14.62-25.69,13.85-26.59,13.05-27.46,12.22-28.29,11.37-29.08,10.49-34.03,10.85-34.4,9.51-34.7,8.19-34.94,6.88-35.12,5.58-35.24,4.3-35.3,3.03-35.3,1.78-35.23.55-35.1-.67-34.92-1.88-34.67-3.07-34.36-4.24-33.98-5.4-33.55-6.55-33.06-7.67-32.5-8.78-31.88-9.88-31.2-10.96-30.46-12.02-29.66-13.07-28.8-14.1-27.87-15.12-26.89-16.12-25.85-17.1-24.74-18.06-23.57-19.01-22.35-19.95-21.06-20.86-19.72-21.76-18.37-22.71-8.61-11.65-8.34-12.01c-1.8-2.6-5.37-3.24-7.97-1.44-2.6,1.8-3.24,5.37-1.44,7.97ZM2030.12,1304.71l-6.13-51.26-49.31,15.27c-3.02.94-4.71,4.14-3.77,7.17.93,3.02,4.14,4.71,7.16,3.78l42.75-13.24-7.39-4.79,5.32,44.43c.37,3.14,3.22,5.38,6.36,5.01,3.15-.38,5.39-3.23,5.01-6.37Z"/>
  <path class="cls-12" d="M1702.02,1120.9c0-28.7,23.28-52,52-52h364c28.72,0,52,23.3,52,52v52c0,28.7-23.28,52-52,52h-364c-28.72,0-52-23.3-52-52v-52Z"/>
  <text class="cls-1" transform="translate(1255.65 1176.9)"><tspan x="0" y="0">emission X</tspan></text>
  <text class="cls-3" transform="translate(1785.06 1173.9)"><tspan x="0" y="0">0</tspan></text>
  <text class="cls-3" transform="translate(1915.79 1173.9)"><tspan x="0" y="0">5</tspan></text>
  <text class="cls-8" transform="translate(2046.53 1173.9)"><tspan x="0" y="0">3</tspan></text>
  <text class="cls-1" transform="translate(1787.04 529.9) rotate(-50)"><tspan x="0" y="0">process</tspan><tspan class="cls-18" x="290.62" y="0" xml:space="preserve"> A</tspan><tspan class="cls-19" x="359.88" y="0"> </tspan></text>
  <text class="cls-6" transform="translate(2031.6 238.9) rotate(-50)"><tspan x="0" y="0">@ </tspan></text>
  <text class="cls-6" transform="translate(2091.26 167.9) rotate(-50)"><tspan x="0" y="0">t</tspan></text>
  <text class="cls-4" transform="translate(2124.26 159.9) rotate(-50)"><tspan x="0" y="0">0</tspan></text>
  <text class="cls-1" transform="translate(1920.18 533.9) rotate(-50)"><tspan x="0" y="0">process B </tspan></text>
  <text class="cls-6" transform="translate(2170.6 235.9) rotate(-50)"><tspan x="0" y="0">@ </tspan></text>
  <text class="cls-6" transform="translate(2230.25 163.9) rotate(-50)"><tspan x="0" y="0">t</tspan></text>
  <text class="cls-4" transform="translate(2263.26 155.9) rotate(-50)"><tspan x="0" y="0">0</tspan></text>
  <text class="cls-1" transform="translate(2056.27 533.9) rotate(-50)"><tspan x="0" y="0">process B </tspan></text>
  <text class="cls-6" transform="translate(2306.69 235.9) rotate(-50)"><tspan x="0" y="0">@ </tspan></text>
  <text class="cls-6" transform="translate(2366.35 163.9) rotate(-50)"><tspan x="0" y="0">t</tspan></text>
  <text class="cls-4" transform="translate(2399.35 155.9) rotate(-50)"><tspan x="0" y="0">1</tspan></text>
  <text class="cls-1" transform="translate(1141.58 692.9)"><tspan x="0" y="0">p</tspan></text>
  <text class="cls-1" transform="translate(1187.41 692.9)"><tspan x="0" y="0">roduct</tspan><tspan class="cls-17" x="230.68" y="0" xml:space="preserve"> A</tspan><tspan class="cls-16" x="299.94" y="0"> </tspan></text>
  <text class="cls-6" transform="translate(1508.29 692.9)"><tspan x="0" y="0">@ </tspan></text>
  <text class="cls-6" transform="translate(1601.1 692.9)"><tspan x="0" y="0">t</tspan></text>
  <text class="cls-4" transform="translate(1628.6 712.9)"><tspan x="0" y="0">0</tspan></text>
  <text class="cls-1" transform="translate(1132.41 823.9)"><tspan x="0" y="0">p</tspan></text>
  <text class="cls-1" transform="translate(1178.24 823.9)"><tspan x="0" y="0">roduct B </tspan></text>
  <text class="cls-6" transform="translate(1508.24 823.9)"><tspan x="0" y="0">@ </tspan></text>
  <text class="cls-6" transform="translate(1601.06 823.9)"><tspan x="0" y="0">t</tspan></text>
  <text class="cls-4" transform="translate(1628.56 843.9)"><tspan x="0" y="0">0</tspan></text>
  <path class="cls-11" d="M1702.02,612.9c0-28.7,23.28-52,52-52h364c28.72,0,52,23.3,52,52v364c0,28.7-23.28,52-52,52h-364c-28.72,0-52-23.3-52-52v-364Z"/>
  <text class="cls-3" transform="translate(1915.79 690.9)"><tspan x="0" y="0">0</tspan></text>
  <text class="cls-5" transform="translate(1742.09 821.9)"><tspan x="0" y="0">-</tspan></text>
  <text class="cls-5" transform="translate(1766.73 821.9)"><tspan x="0" y="0">0.4</tspan></text>
  <text class="cls-3" transform="translate(1915.79 821.9)"><tspan x="0" y="0">1</tspan></text>
  <text class="cls-3" transform="translate(2046.53 690.9)"><tspan x="0" y="0">0</tspan></text>
  <text class="cls-5" transform="translate(1742.09 952.9)"><tspan x="0" y="0">-</tspan></text>
  <text class="cls-5" transform="translate(1766.73 952.9)"><tspan x="0" y="0">1.6</tspan></text>
  <text class="cls-3" transform="translate(1785.06 690.9)"><tspan x="0" y="0">1</tspan></text>
  <text class="cls-3" transform="translate(2046.53 952.9)"><tspan x="0" y="0">1</tspan></text>
  <text class="cls-3" transform="translate(2046.53 821.9)"><tspan x="0" y="0">0</tspan></text>
  <text class="cls-3" transform="translate(1915.79 952.9)"><tspan x="0" y="0">0</tspan></text>
  <text class="cls-1" transform="translate(1132.41 953.9)"><tspan x="0" y="0">p</tspan></text>
  <text class="cls-1" transform="translate(1178.24 953.9)"><tspan x="0" y="0">roduct B </tspan></text>
  <text class="cls-6" transform="translate(1508.24 953.9)"><tspan x="0" y="0">@ </tspan></text>
  <text class="cls-6" transform="translate(1601.06 953.9)"><tspan x="0" y="0">t</tspan></text>
  <text class="cls-4" transform="translate(1628.56 973.9)"><tspan x="0" y="0">1</tspan></text>
</svg>