<?xml version="1.0" encoding="UTF-8"?>
<svg id="Layer_1" data-name="Layer 1" xmlns="http://www.w3.org/2000/svg" viewBox="0 0 3935.04 1616.78">
  <defs>
    <style>
      .cls-1, .cls-2, .cls-3, .cls-4, .cls-5, .cls-6 {
        stroke-width: 0px;
      }

      .cls-1, .cls-2, .cls-3, .cls-5 {
        fill-rule: evenodd;
      }

      .cls-1, .cls-7, .cls-4, .cls-8, .cls-9 {
        fill: #3fb1c4;
      }

      .cls-10, .cls-11, .cls-12, .cls-13, .cls-7, .cls-14, .cls-8, .cls-9, .cls-15 {
        isolation: isolate;
      }

      .cls-10, .cls-11, .cls-13, .cls-14 {
        font-family: ArialMT, Arial;
      }

      .cls-10, .cls-12 {
        fill: #a6a6a6;
      }

      .cls-10, .cls-13, .cls-8, .cls-15 {
        font-size: 73px;
      }

      .cls-2 {
        fill: #e9f3fa;
      }

      .cls-3 {
        fill: #ffecc9;
      }

      .cls-16 {
        letter-spacing: 0em;
      }

      .cls-11, .cls-7 {
        font-size: 55px;
      }

      .cls-11, .cls-14 {
        fill: #cdd6dd;
      }

      .cls-12 {
        font-family: Arial-ItalicMT, Arial;
        font-size: 64px;
        font-style: italic;
      }

      .cls-13 {
        fill: #000;
      }

      .cls-17 {
        letter-spacing: -.06em;
      }

      .cls-18 {
        letter-spacing: -.06em;
      }

      .cls-7, .cls-8, .cls-9, .cls-15 {
        font-family: Arial-BoldMT, Arial;
        font-weight: 700;
      }

      .cls-14, .cls-9 {
        font-size: 83px;
      }

      .cls-19 {
        letter-spacing: 0em;
      }

      .cls-15, .cls-6 {
        fill: #58ab27;
      }

      .cls-5 {
        fill: #4b9224;
      }
    </style>
  </defs>
  <path class="cls-1" d="M2140.1,1286.2l-9.1,12.2,6.2,4.6-5.5,7.3-6.2-4.7-10.4,13.9c-2.1,2.8-3.2,4.5-3.5,5.1-.2.5-.2,1.1,0,1.7.2.6.6,1.2,1.2,1.6.8.7,2.3,1.3,4.3,1.9l-4.5,7.7c-2.8-.7-5.6-2.1-8.2-4.1-1.7-1.2-3-2.6-3.9-4.1-.9-1.6-1.3-3-1.3-4.3.1-1.4.5-2.9,1.4-4.5.6-1.2,2.1-3.5,4.5-6.7l11.3-15-4.2-3.1,5.4-7.3,4.2,3.1,5.1-6.8,13.2,1.5Z"/>
  <path class="cls-1" d="M2152,1321.5c-2.1-1.3-4.4-1.6-6.7-.9-2.3.7-4.3,2.4-5.9,5.1l14.6,8.8c1.6-2.8,2.2-5.4,1.7-7.7s-1.7-4.1-3.7-5.3ZM2155.9,1313.7c5.5,3.3,8.7,7.7,9.7,13.3,1,5.5-.9,12-5.6,19.3l-24.3-14.8c-1.7,3-2.3,5.7-1.8,8.2s1.9,4.5,4.2,5.8c1.5,1,3,1.3,4.6,1.1,1.5-.2,3.1-1,4.8-2.6l8.7,7.5c-3.4,2.8-7,4.4-10.9,4.6-3.8.2-7.7-.9-11.7-3.4-6.4-3.8-9.9-8.8-10.4-14.8-.4-4.9.9-9.8,4-14.9,3.7-6.1,8.2-9.9,13.5-11.5,5.3-1.5,10.3-.8,15.2,2.2Z"/>
  <path class="cls-1" d="M2199.4,1337.2c2.5,1.2,4.4,2.7,5.7,4.6,1.4,1.9,2.2,4.2,2.4,6.8,2.6-1.3,5.2-2,7.7-2.1,2.4-.1,4.8.4,7.1,1.5,2.8,1.3,5,3,6.4,5.1,1.4,2.1,2.1,4.5,2,7.2,0,2-.9,4.9-2.7,8.6l-11.6,24.9-10.4-4.8,10.5-22.3c1.8-3.9,2.6-6.5,2.4-8-.2-1.9-1.4-3.3-3.3-4.3-1.5-.6-3.1-.8-4.7-.5-1.7.2-3.2,1.1-4.6,2.5-1.4,1.5-2.9,4-4.6,7.7l-8.8,18.7-10.3-4.8,10-21.4c1.8-3.8,2.7-6.3,2.9-7.6.1-1.2,0-2.3-.6-3.2-.5-.9-1.4-1.7-2.7-2.3-1.6-.8-3.2-1-4.9-.7-1.7.2-3.2,1-4.5,2.4-1.3,1.4-2.8,3.9-4.6,7.6l-8.9,19-10.3-4.8,18.3-39,9.5,4.4-2.5,5.3c5.3-2.5,10.4-2.7,15.1-.5Z"/>
  <path class="cls-1" d="M2259.3,1372.2c-2.6-.9-5.1-.7-7.6.7-2.5,1.3-4.4,4-5.9,8-1.7,4.5-2,8.2-1,11,1,2.8,2.8,4.7,5.4,5.7,2.5.9,4.9.7,7.3-.7,2.4-1.4,4.4-4.3,6.1-8.9,1.5-4.2,1.8-7.7.9-10.3-.9-2.7-2.7-4.5-5.2-5.5ZM2265.3,1364.9c4.7,1.7,8,5,9.9,9.9,2,4.9,1.7,10.6-.7,17.2-2.5,6.7-6.1,11.3-10.8,13.9-4.7,2.5-9.3,2.9-14,1.1-2.3-.8-4.1-2-5.6-3.5-1.5-1.6-2.8-3.8-4-6.7l-7.5,20.3-10.7-3.9,20.6-55.7,9.9,3.6-2.2,6c2.1-1.6,4.4-2.6,7.1-3,2.7-.5,5.4-.2,8,.8Z"/>
  <path class="cls-1" d="M2304.9,1387.8c-2.8-.9-5.5-.5-8.1,1.1-2.6,1.5-4.5,4.4-5.8,8.5-1.2,4-1.2,7.5.1,10.2,1.3,2.8,3.3,4.6,6.2,5.5,2.8.8,5.6.5,8.1-1.1,2.6-1.6,4.5-4.5,5.8-8.6,1.2-4.1,1.2-7.5-.1-10.2-1.3-2.8-3.3-4.6-6.2-5.4ZM2307.6,1378.9c6.2,1.8,10.7,5.4,13.5,10.7,2.7,5.2,3.2,10.9,1.3,17.1-1.9,6.2-5.4,10.8-10.7,13.7-5.3,2.9-10.9,3.4-17.1,1.6-3.7-1.2-7.1-3.1-10-5.9-2.9-2.7-4.7-6-5.5-9.8-.8-3.9-.5-8.2.9-12.9,1.1-3.6,3.1-6.8,5.9-9.7,2.8-2.8,6.1-4.7,9.9-5.5,3.8-.8,7.7-.6,11.8.7Z"/>
  <path class="cls-1" d="M2355.3,1391.8c2.5.6,4.7,1.9,6.7,3.9l-5.8,8.8c-1.6-1.7-3.2-2.8-4.8-3.2-1.5-.3-2.9-.2-4.2.3-1.3.6-2.5,2-3.7,4-1.2,2.1-2.7,6.7-4.4,13.8l-3.3,12.9-11-2.8,10.4-41.7,10.3,2.5-1.5,6c2.5-2.4,4.5-3.8,6.1-4.4,1.7-.5,3.4-.6,5.2-.1Z"/>
  <path class="cls-1" d="M2383.8,1421.8c-1.5.2-3.9.3-7.1.3-3.2.1-5.4.3-6.5.8-1.6.7-2.6,1.9-2.9,3.4-.4,1.6-.1,3.1.9,4.4.9,1.4,2.3,2.3,4.1,2.7,2,.4,4,.1,6.1-.9,1.6-.7,2.7-1.7,3.5-3.1.4-.9,1-2.7,1.5-5.4l.4-2.2ZM2381.7,1397.6c5,1,8.6,2.3,10.8,4,2.2,1.7,3.6,3.5,4.2,5.5s.4,5.5-.5,10.3l-2.8,13c-.8,3.7-1.1,6.5-1.1,8.3s.2,3.9.8,6.1l-11-2.3c-.2-.8-.3-1.9-.4-3.5-.1-.7-.1-1.1-.2-1.4-2.2,1.5-4.6,2.5-6.9,3-2.4.4-4.8.4-7.3-.1-4.3-.8-7.5-2.7-9.5-5.6-2-2.8-2.7-6.1-1.9-9.7.4-2.4,1.4-4.4,3-6,1.5-1.6,3.4-2.7,5.6-3.3,2.3-.6,5.4-.9,9.4-.8,5.4.1,9.2-.1,11.4-.6l.2-1.1c.5-2.1.3-3.8-.6-4.9-.9-1.1-2.8-2-5.7-2.6-2-.4-3.6-.3-4.9.3-1.3.5-2.5,1.7-3.5,3.5l-9.8-3.9c2-3.8,4.5-6.4,7.7-7.8s7.5-1.6,13-.4Z"/>
  <path class="cls-1" d="M2411.4,1387.4l11.3,1.8-9.3,58.7-11.2-1.8,9.2-58.7Z"/>
  <path class="cls-1" d="M2430.7,1406.9l11.3,1.4-5.3,42.7-11.3-1.4,5.3-42.7ZM2432.8,1390.6l11.3,1.4-1.4,10.5-11.3-1.4,1.4-10.5Z"/>
  <path class="cls-1" d="M2449.2,1409.3l35.5,2.6-.6,8.1-17.9,17.7-6.2,5.8c3.2,0,5.1.1,5.9.2l17.6,1.3-.8,9.9-38.3-2.8.7-8.9,17.4-17.2c2.9-2.8,5-4.8,6.4-6-1.4,0-3.1-.1-5.3-.2l-15.1-1.1.7-9.4Z"/>
  <path class="cls-1" d="M2508.2,1419.7c-2.5,0-4.5,1-6.1,2.8-1.6,1.8-2.4,4.3-2.3,7.4l17-.2c-.1-3.3-1-5.8-2.6-7.5-1.7-1.7-3.6-2.5-6-2.5ZM2507.4,1411c6.4-.1,11.5,2,15.3,6.2,3.7,4.2,5.6,10.6,5.5,19.3l-28.5.4c.1,3.4,1.1,6,2.8,7.8,1.8,1.9,4,2.8,6.6,2.8,1.8-.1,3.3-.6,4.5-1.5,1.2-1,2.1-2.6,2.7-4.8l11.4,1.8c-1.4,4.2-3.7,7.4-6.8,9.6-3.1,2.2-7.1,3.3-11.8,3.4-7.5.1-13-2.3-16.7-7.2-2.9-3.8-4.4-8.8-4.4-14.7-.1-7.2,1.7-12.8,5.4-16.9,3.6-4,8.3-6.1,14-6.2Z"/>
  <path class="cls-1" d="M2136.7,1422.3c-2.4-1.4-4.9-1.6-7.5-.6-2.6.9-5,3.3-7.2,7-2.2,3.9-3.2,7.1-3.1,9.7.3,3.6,1.8,6.2,4.6,7.8,2.2,1.2,4.6,1.4,7.2.4s5-3.5,7.3-7.5c2.5-4.3,3.5-7.8,3-10.6-.5-2.7-1.9-4.8-4.3-6.2ZM2130.6,1391l9.8,5.7-10.6,18.5c5.1-1.7,9.7-1.3,13.8,1,4.6,2.6,7.4,6.4,8.5,11.4,1.1,5-.1,10.6-3.6,16.8-3.7,6.4-8,10.4-13,12.1s-9.7,1.4-14.1-1.1c-2.1-1.2-3.9-3-5.4-5.2-1.4-2.3-2.3-4.9-2.6-7.8l-3.2,5.4-9.1-5.2,29.5-51.6Z"/>
  <path class="cls-1" d="M2165,1428.8l10.1,5.1-19.2,38.5-10.2-5.1,19.3-38.5ZM2172.3,1414.1l10.2,5.1-4.8,9.5-10.1-5.1,4.7-9.5Z"/>
  <path class="cls-1" d="M2198.1,1453.6c-2.7-1.2-5.5-1.1-8.3.1-2.7,1.3-5,3.9-6.7,7.8-1.7,3.9-2.1,7.3-1.1,10.2.9,2.9,2.8,4.9,5.5,6.1s5.5,1.2,8.2-.1c2.8-1.3,5-3.9,6.7-7.9,1.7-3.8,2.1-7.2,1.2-10.1-1-2.9-2.8-4.9-5.5-6.1ZM2201.8,1445.1c5.9,2.6,10,6.7,12.1,12.2,2.1,5.5,1.9,11.3-.7,17.2-2.6,6-6.7,10.1-12.3,12.3-5.5,2.2-11.2,2.1-17.1-.5-3.6-1.5-6.7-3.9-9.3-6.9-2.5-3.1-4-6.6-4.3-10.5-.3-3.9.5-8.1,2.5-12.6,1.5-3.5,3.8-6.5,6.9-9,3.2-2.5,6.7-3.9,10.5-4.2,3.9-.4,7.8.3,11.7,2Z"/>
  <path class="cls-1" d="M2242.4,1461.3c5.5,2,9.3,4.4,11.3,7.2,2.1,2.8,3,6.1,2.7,10l-10.8-1.8c.2-1.7-.2-3.2-1.1-4.5-.9-1.2-2.5-2.3-4.7-3.1-2.8-1-5-1.4-6.5-1-1,.2-1.7.8-2,1.7-.3.8-.2,1.6.3,2.3.7,1.1,3.7,3.3,8.9,6.7,5.3,3.3,8.7,6.4,10.3,9.1,1.5,2.7,1.7,5.8.4,9.2-1.3,3.7-4,6.3-8.1,7.8-4.1,1.6-9.1,1.2-15.2-1-5.5-2-9.5-4.7-11.9-8.1-2.4-3.4-3.4-7.2-3-11.4l11.4,2.3c-.3,2.3,0,4.2,1,5.8,1,1.5,2.8,2.8,5.3,3.7,2.8,1,5,1.3,6.8.8,1.2-.4,2-1.2,2.5-2.4.2-.8.2-1.6-.1-2.3s-1.3-1.6-3-2.7c-8-5-12.8-8.8-14.6-11.2-2.4-3.3-2.9-6.9-1.5-10.8,1.3-3.5,3.8-6,7.4-7.4,3.6-1.3,8.4-1,14.2,1.1Z"/>
  <path class="cls-1" d="M2285.5,1485c-2.7-.8-5.2-.5-7.6,1.1-2.4,1.5-4.1,4.3-5.3,8.4-1.4,4.6-1.5,8.3-.3,11.1,1.2,2.7,3.1,4.5,5.7,5.3,2.6.7,5,.3,7.3-1.2,2.3-1.6,4.1-4.6,5.4-9.3,1.3-4.3,1.4-7.8.3-10.4-1.1-2.6-3-4.3-5.5-5ZM2291,1477.2c4.8,1.4,8.3,4.5,10.5,9.2,2.2,4.8,2.4,10.5.4,17.2-2,6.9-5.3,11.8-9.8,14.6s-9.1,3.5-13.9,2.1c-2.3-.6-4.3-1.7-5.8-3.2-1.6-1.4-3.1-3.5-4.5-6.4l-6.2,20.8-10.9-3.2,16.8-57,10.2,3-1.8,6.1c2-1.7,4.2-2.8,6.9-3.5,2.6-.6,5.3-.5,8.1.3Z"/>
  <path class="cls-1" d="M2317.3,1468.6l11.1,2.6-4.8,21.3c4.5-3.4,9.3-4.5,14.2-3.4,2.6.6,4.8,1.6,6.6,3,1.9,1.4,3.1,3,3.9,4.7.7,1.7,1,3.5,1,5.4-.1,1.9-.5,4.7-1.3,8.4l-5.6,24.7-11.1-2.6,5-22.1c1-4.4,1.4-7.3,1.3-8.5-.2-1.3-.7-2.4-1.6-3.4-.9-.9-2.2-1.6-3.8-1.9-1.8-.5-3.6-.4-5.2.2-1.7.5-3.1,1.7-4.2,3.3-1,1.7-2,4.3-2.8,7.8l-4.8,21-11.1-2.5,13.2-58Z"/>
  <path class="cls-1" d="M2375.8,1505.2c-2.5-.4-4.6.2-6.5,1.7-1.9,1.5-3.1,3.8-3.6,6.9l16.8,2.8c.5-3.3,0-5.9-1.3-7.9-1.3-1.9-3.1-3.1-5.4-3.5ZM2376.5,1496.5c6.3,1.1,11,4,14,8.7,2.9,4.8,3.6,11.5,2.1,20.1l-28.2-4.6c-.5,3.3,0,6,1.4,8.2,1.5,2.1,3.5,3.4,6.1,3.8,1.7.3,3.3.1,4.6-.7,1.4-.8,2.6-2.2,3.5-4.2l10.9,3.7c-2.1,3.9-4.9,6.7-8.3,8.3-3.5,1.6-7.6,2.1-12.2,1.3-7.4-1.2-12.5-4.5-15.2-9.9-2.2-4.3-2.8-9.5-1.8-15.3,1.1-7.1,3.9-12.3,8.2-15.7,4.3-3.4,9.3-4.6,14.9-3.7Z"/>
  <path class="cls-1" d="M2423.2,1502.7c2.6.2,5,1.2,7.2,2.9l-4.6,9.5c-1.8-1.4-3.5-2.3-5.1-2.4-1.6-.2-3,.1-4.2.8-1.2.8-2.2,2.3-3.1,4.5-.9,2.2-1.7,6.9-2.5,14.2l-1.5,13.2-11.3-1.2,4.7-42.8,10.5,1.2-.6,6c2.1-2.6,3.9-4.4,5.4-5.1,1.6-.8,3.3-1,5.1-.8Z"/>
  <path class="cls-1" d="M2449.6,1513.3c-2.5-.2-4.6.6-6.3,2.4-1.7,1.7-2.7,4.1-2.8,7.2l17,.9c.1-3.3-.6-5.9-2.1-7.7-1.6-1.8-3.5-2.7-5.8-2.8ZM2449.3,1504.5c6.4.4,11.4,2.7,14.9,7.2,3.4,4.4,4.9,10.9,4.2,19.6l-28.5-1.5c0,3.4.7,6.1,2.4,8.1,1.6,1.9,3.8,3,6.4,3.1,1.8.1,3.3-.3,4.6-1.2,1.2-.9,2.2-2.4,3-4.6l11.2,2.5c-1.7,4.1-4.1,7.2-7.4,9.2-3.3,2-7.2,2.9-12,2.6-7.4-.4-12.8-3.1-16.2-8.2-2.6-4-3.8-9.1-3.5-15,.4-7.1,2.6-12.6,6.5-16.5,3.9-3.8,8.8-5.6,14.4-5.3Z"/>
  <path class="cls-1" d="M1117.9,22.4l3.5,14.8,7.6-1.8,2.1,8.8-7.6,1.8,4,16.9c.8,3.4,1.4,5.4,1.7,5.9.2.5.7.9,1.3,1.2.6.2,1.3.3,2,.1,1-.3,2.4-1,4.2-2.1l3,8.3c-2.3,1.7-5.1,3-8.4,3.8-2,.4-3.8.5-5.6.3-1.8-.3-3.2-.9-4.2-1.8-1-.9-1.8-2.2-2.5-4-.6-1.2-1.3-3.8-2.3-7.7l-4.3-18.2-5.1,1.2-2.1-8.8,5.1-1.3-2-8.3,9.6-9.1Z"/>
  <path class="cls-1" d="M1156,37.8c-2.5.4-4.3,1.7-5.6,3.8-1.2,2.1-1.5,4.7-.9,7.7l16.7-3.2c-.7-3.2-2-5.5-3.9-6.9-2-1.4-4.1-1.9-6.3-1.4ZM1153.6,29.3c6.3-1.2,11.7,0,16.1,3.4,4.5,3.5,7.4,9.5,8.9,18.1l-28,5.4c.7,3.3,2.1,5.7,4.2,7.2,2.1,1.5,4.4,2,7,1.5,1.7-.3,3.1-1.1,4.1-2.3,1-1.1,1.6-2.9,1.8-5.1l11.5-.3c-.6,4.4-2.3,7.9-5,10.7-2.6,2.7-6.3,4.5-10.9,5.4-7.4,1.4-13.3.1-17.7-4.1-3.6-3.3-5.9-7.9-7-13.7-1.4-7-.6-12.9,2.3-17.5,2.9-4.7,7.1-7.6,12.7-8.7Z"/>
  <path class="cls-1" d="M1207.2,20.6c2.7-.4,5.1-.1,7.3.7,2.1.9,4,2.4,5.6,4.5,1.6-2.5,3.4-4.5,5.4-5.9,2-1.4,4.3-2.2,6.7-2.5,3.2-.4,5.9-.1,8.3.9,2.3,1,4.1,2.6,5.5,5,1,1.7,1.8,4.6,2.3,8.7l3.5,27.3-11.3,1.4-3.1-24.4c-.5-4.2-1.3-6.9-2.2-8.1-1.3-1.4-3-2-5.1-1.8-1.6.2-3.1.9-4.3,2.1-1.3,1.1-2.1,2.6-2.5,4.6-.4,1.9-.3,4.9.2,8.9l2.6,20.5-11.3,1.5-3-23.4c-.5-4.2-1-6.9-1.6-8-.6-1.2-1.3-2-2.2-2.5-.9-.4-2.1-.6-3.6-.4-1.7.2-3.2.9-4.5,2-1.3,1.1-2.1,2.6-2.5,4.4-.3,1.9-.3,4.9.2,9l2.7,20.7-11.3,1.4-5.4-42.7,10.4-1.3.7,5.8c3.2-5,7.3-7.8,12.5-8.4Z"/>
  <path class="cls-1" d="M1280,22.4c-2.8.2-5,1.4-6.7,3.7-1.7,2.3-2.4,5.5-2.1,9.7.3,4.8,1.5,8.3,3.5,10.5,2.1,2.2,4.5,3.2,7.2,3,2.7-.1,4.8-1.3,6.4-3.6,1.7-2.2,2.3-5.7,2-10.6-.3-4.5-1.4-7.7-3.4-9.8-1.9-2.1-4.2-3-6.9-2.9ZM1282.5,13.3c5-.4,9.3,1.3,13.1,5,3.7,3.7,5.8,9,6.3,16,.4,7.2-1,12.9-4.2,17.1-3.3,4.2-7.4,6.4-12.4,6.8-2.4.1-4.5-.2-6.5-1-2-.9-4.1-2.3-6.4-4.5l1.4,21.6-11.4.8-3.8-59.3,10.6-.7.4,6.3c1.2-2.2,3-4.1,5.2-5.6,2.3-1.5,4.8-2.3,7.7-2.5Z"/>
  <path class="cls-1" d="M1330.2,20.7c-2.9.1-5.4,1.3-7.4,3.6s-2.9,5.6-2.9,9.8c.1,4.3,1.2,7.5,3.2,9.8,2.1,2.2,4.6,3.3,7.6,3.3,2.9-.1,5.4-1.3,7.4-3.6,2-2.3,2.9-5.6,2.9-9.9-.1-4.2-1.2-7.4-3.2-9.7-2.1-2.2-4.6-3.3-7.6-3.3ZM1330.1,11.5c6.5-.1,11.8,1.9,16.1,6,4.2,4.2,6.4,9.5,6.5,16s-1.9,11.9-6.1,16.3c-4.1,4.3-9.4,6.5-15.7,6.6-4,.1-7.8-.7-11.4-2.5-3.6-1.7-6.3-4.2-8.3-7.7-1.9-3.4-2.9-7.6-3-12.5,0-3.8.9-7.5,2.7-11,1.8-3.6,4.4-6.3,7.8-8.3,3.3-1.9,7.1-2.9,11.4-2.9Z"/>
  <path class="cls-1" d="M1381.9,11.8c2.6.1,5.1.8,7.5,2.3l-3.8,9.9c-1.9-1.3-3.6-2-5.3-2-1.6,0-2.9.4-4.1,1.2-1.1.9-2,2.4-2.7,4.7-.7,2.3-1.1,7.1-1.3,14.4l-.3,13.3-11.4-.2,1-43.1,10.6.3-.1,6.1c1.8-2.9,3.5-4.7,5-5.6,1.4-.9,3.1-1.3,4.9-1.3Z"/>
  <path class="cls-1" d="M1417.5,36.9c-1.5.4-3.9.9-7.1,1.4s-5.3,1-6.3,1.6c-1.5.9-2.3,2.2-2.4,3.9-.1,1.5.4,3,1.5,4.2s2.6,1.9,4.4,2c2.1.1,4.1-.4,6-1.7,1.4-.9,2.4-2.1,2.9-3.6.4-.9.7-2.8.8-5.5l.2-2.3ZM1411.9,13.2c5.1.3,8.8,1.2,11.2,2.5,2.5,1.3,4.1,3,5,4.9.9,1.9,1.2,5.3.9,10.2l-.9,13.3c-.2,3.8-.2,6.6.1,8.4.2,1.8.8,3.8,1.7,5.9l-11.3-.7c-.2-.8-.5-1.9-.9-3.4-.1-.7-.2-1.1-.3-1.4-2.1,1.8-4.2,3.1-6.5,3.9s-4.6,1.2-7.1,1c-4.5-.3-7.9-1.7-10.3-4.2-2.4-2.6-3.5-5.7-3.3-9.3.2-2.5.9-4.6,2.1-6.4,1.3-1.9,3-3.2,5.2-4.1,2.1-.9,5.2-1.6,9.2-2.1,5.4-.7,9.1-1.4,11.2-2.2l.1-1.1c.1-2.2-.4-3.8-1.4-4.8s-3-1.5-6-1.7c-2-.1-3.6.2-4.8.9-1.2.7-2.2,2.1-3,4l-10.2-2.5c1.4-4,3.6-7,6.5-8.8,3-1.9,7.2-2.6,12.8-2.3Z"/>
  <path class="cls-1" d="M1442.9,0l11.4,1.1-5.5,59.1-11.3-1,5.4-59.2Z"/>
  <path class="cls-1" d="M1464.7,18.6l11.3,1.3-4.9,42.8-11.3-1.3,4.9-42.8ZM1466.6,2.4l11.3,1.3-1.2,10.4-11.3-1.3,1.2-10.4Z"/>
  <path class="cls-1" d="M1485.5,21l35.2,5.2-1.2,8-19.1,16.3-6.6,5.4c3.1.3,5.1.5,5.8.6l17.4,2.6-1.4,9.9-38-5.7,1.3-8.8,18.7-15.9c3-2.6,5.3-4.4,6.7-5.5-1.3-.1-3-.3-5.2-.6l-15-2.2,1.4-9.3Z"/>
  <path class="cls-1" d="M1545.8,38.9c-2.4-.5-4.6,0-6.5,1.4-2,1.5-3.2,3.8-3.8,6.8l16.7,3.3c.5-3.2.2-5.9-1.1-7.9-1.2-2-3-3.2-5.3-3.6ZM1546.8,30.2c6.3,1.2,10.9,4.3,13.7,9.2,2.8,4.8,3.3,11.5,1.4,20.1l-28-5.6c-.6,3.3-.2,6.1,1.2,8.3,1.3,2.2,3.3,3.5,5.9,4,1.7.4,3.3.2,4.7-.5,1.4-.8,2.6-2.1,3.6-4.1l10.8,4.1c-2.3,3.8-5.2,6.4-8.7,7.9-3.5,1.6-7.6,1.9-12.2.9-7.3-1.4-12.3-4.9-14.9-10.4-2-4.4-2.4-9.5-1.3-15.4,1.4-7,4.4-12.1,8.8-15.3,4.4-3.3,9.5-4.3,15-3.2Z"/>
  <path class="cls-1" d="M1087.8,126.6l4.1,14.6,7.5-2,2.4,8.7-7.5,2.1,4.6,16.7c.9,3.4,1.5,5.4,1.8,5.9s.7.9,1.4,1.1c.6.2,1.2.2,2,0,1-.2,2.4-1,4.1-2.2l3.3,8.2c-2.3,1.8-5,3.2-8.3,4.1-1.9.5-3.8.7-5.6.4-1.8-.2-3.2-.7-4.2-1.6-1-.8-1.9-2.1-2.7-3.8-.6-1.2-1.4-3.8-2.5-7.7l-5-18.1-5,1.4-2.4-8.7,5-1.4-2.2-8.3,9.2-9.4Z"/>
  <path class="cls-1" d="M1126.7,140.8c-2.5.6-4.3,1.9-5.5,4-1.2,2.1-1.4,4.7-.8,7.7l16.7-3.6c-.8-3.2-2.2-5.5-4.1-6.8-2-1.3-4.1-1.8-6.3-1.3ZM1124.1,132.5c6.3-1.4,11.7-.4,16.2,2.9,4.5,3.4,7.6,9.4,9.3,17.9l-27.9,6.1c.8,3.2,2.3,5.6,4.4,7.1,2.1,1.4,4.4,1.9,7,1.3,1.7-.3,3.1-1.1,4.1-2.3s1.5-3,1.7-5.2l11.5-.6c-.6,4.4-2.2,8-4.8,10.8-2.6,2.8-6.2,4.7-10.8,5.7-7.3,1.6-13.3.4-17.8-3.7-3.6-3.2-6.1-7.7-7.3-13.6-1.5-6.9-.9-12.8,1.9-17.5,2.8-4.8,7-7.7,12.5-8.9Z"/>
  <path class="cls-1" d="M1172.7,123.4c5.1-.8,9.4-.3,12.8,1.4,3.5,1.7,6.2,4.8,8.2,9.1l-10.7,3.8c-.7-2.2-1.9-3.7-3.4-4.6-1.5-.9-3.3-1.2-5.4-.9-2.8.5-4.9,1.8-6.2,4-1.4,2.2-1.7,5.6-1,10.1.8,5.1,2.2,8.5,4.3,10.3,2,1.8,4.4,2.5,7.3,2,2.1-.3,3.8-1.2,4.9-2.6,1.2-1.5,1.8-3.7,1.9-6.8l11.4.2c-.4,5.2-2,9.4-4.8,12.5-2.8,3.1-7,5.1-12.5,6-6.2,1-11.5-.2-15.8-3.5-4.3-3.4-7-8.5-8.1-15.5-1.1-7-.1-12.7,2.9-17.2,3.1-4.5,7.8-7.3,14.2-8.3Z"/>
  <path class="cls-1" d="M1199.5,103.9l11.3-1.3,2.4,21.8c3.2-4.7,7.3-7.3,12.4-7.9,2.6-.3,5,0,7.2.7,2.2.7,3.9,1.8,5.1,3.2,1.2,1.4,2.1,3,2.7,4.8.6,1.7,1.1,4.6,1.5,8.4l2.8,25.1-11.3,1.2-2.5-22.6c-.5-4.5-1-7.3-1.6-8.4-.5-1.2-1.4-2.1-2.6-2.7-1.1-.6-2.5-.8-4.2-.6-1.9.2-3.5.8-4.9,1.9-1.3,1.1-2.3,2.6-2.8,4.5-.4,1.9-.5,4.7-.1,8.3l2.3,21.4-11.3,1.2-6.4-59Z"/>
  <path class="cls-1" d="M1277.2,112.4c2.5-.2,4.9.1,7,.9,2.1.7,3.8,1.8,4.9,3.1,1.2,1.4,2,2.9,2.6,4.7.5,1.7.8,4.3,1.1,7.6l1.6,26.7-11.3.7-1.4-21.9c-.3-4.7-.7-7.7-1.3-9-.6-1.3-1.4-2.3-2.6-3-1.1-.7-2.4-1-4-.9-1.9.1-3.7.8-5.2,1.9-1.5,1.2-2.5,2.7-2.9,4.5-.5,1.9-.6,5.2-.3,10l1.2,19.4-11.3.7-2.7-42.9,10.5-.7.4,6.3c3.5-5.1,8-7.8,13.7-8.1Z"/>
  <path class="cls-1" d="M1323.9,119.8c-3,.1-5.5,1.3-7.4,3.6-2,2.3-3,5.6-2.9,9.9.1,4.2,1.2,7.5,3.2,9.7,2.1,2.2,4.6,3.3,7.6,3.3,3-.1,5.4-1.3,7.4-3.6s2.9-5.6,2.8-9.9c0-4.2-1.1-7.5-3.2-9.7-2-2.2-4.5-3.3-7.5-3.3ZM1323.7,110.6c6.5-.2,11.8,1.9,16.1,6,4.2,4.1,6.4,9.4,6.5,15.9.2,6.5-1.8,11.9-5.9,16.3-4.2,4.4-9.4,6.6-15.8,6.7-3.9.1-7.7-.7-11.3-2.4-3.6-1.7-6.4-4.3-8.3-7.7-2-3.4-3-7.6-3.1-12.5-.1-3.8.8-7.5,2.6-11,1.8-3.6,4.4-6.4,7.8-8.3,3.3-1.9,7.1-2.9,11.4-3Z"/>
  <path class="cls-1" d="M1371.3,110.6c5.9.1,10.3,1.1,13.1,3.1s4.7,4.9,5.7,8.6l-10.7,1.8c-.5-1.7-1.3-3-2.6-3.9-1.2-.9-3.1-1.4-5.4-1.4-3-.1-5.2.3-6.5,1.1-.9.6-1.3,1.3-1.4,2.3,0,.8.4,1.5,1.1,2,1.1.8,4.6,2,10.6,3.5s10.2,3.2,12.6,5.3c2.4,2.1,3.5,4.9,3.4,8.5-.1,4-1.8,7.3-5.1,10.1-3.4,2.8-8.3,4.1-14.8,4-5.8-.2-10.4-1.4-13.8-3.9-3.4-2.4-5.5-5.7-6.5-9.8l11.5-1.5c.4,2.2,1.3,3.9,2.8,5.1s3.5,1.8,6.2,1.8c3,.1,5.2-.4,6.7-1.5,1-.7,1.5-1.7,1.6-3,0-.8-.3-1.5-.8-2.1-.6-.6-1.8-1.1-3.8-1.6-9.1-2.2-14.9-4.2-17.3-5.9-3.4-2.4-5-5.7-5-9.8.1-3.7,1.7-6.8,4.6-9.3,3-2.5,7.6-3.7,13.8-3.5Z"/>
  <path class="cls-1" d="M1422.2,121.6c-2.8-.2-5.2.8-7.2,2.8-1.9,2-3,5.2-3.3,9.4-.3,4.8.5,8.4,2.3,10.8,1.7,2.5,4,3.7,6.7,3.9s4.9-.8,6.8-2.8c1.9-2,3-5.4,3.3-10.2.3-4.5-.5-7.9-2.1-10.2-1.7-2.3-3.9-3.5-6.5-3.7ZM1425.8,112.8c5,.3,9.1,2.5,12.3,6.6,3.3,4.1,4.7,9.7,4.3,16.7-.5,7.2-2.6,12.6-6.3,16.4-3.8,3.8-8.1,5.5-13.1,5.2-2.4-.1-4.5-.7-6.4-1.8-1.8-1.1-3.8-2.8-5.8-5.2l-1.3,21.6-11.3-.7,3.5-59.3,10.6.7-.4,6.3c1.5-2.1,3.5-3.7,5.9-4.9,2.5-1.3,5.1-1.8,8-1.6Z"/>
  <path class="cls-1" d="M1454.8,99.4l11.3,1.2-2.3,21.7c4.1-3.9,8.7-5.5,13.8-5,2.6.3,4.9,1,6.9,2.2s3.5,2.6,4.4,4.2c.9,1.6,1.4,3.3,1.6,5.2.2,1.9.1,4.7-.3,8.6l-2.6,25.1-11.4-1.2,2.4-22.6c.5-4.5.6-7.4.3-8.6-.3-1.3-1-2.3-2-3.1-1-.9-2.3-1.4-4-1.5-1.9-.2-3.6,0-5.2.8-1.5.8-2.8,2-3.6,3.8-.9,1.8-1.6,4.4-1.9,8l-2.3,21.5-11.3-1.2,6.2-59.1Z"/>
  <path class="cls-1" d="M1520.4,131.7c-2.5-.3-4.7.2-6.5,1.8-1.9,1.5-3.1,3.8-3.5,6.9l16.8,2.6c.4-3.3,0-5.9-1.4-7.8-1.3-2-3.1-3.1-5.4-3.5ZM1521,123c6.3,1,11,3.9,14,8.6,3,4.8,3.8,11.4,2.3,20l-28.2-4.3c-.4,3.3.1,6,1.5,8.2,1.5,2.1,3.5,3.4,6.1,3.8,1.7.2,3.3,0,4.6-.8,1.4-.8,2.5-2.2,3.5-4.2l10.9,3.6c-2.1,3.9-4.8,6.7-8.3,8.3-3.4,1.7-7.5,2.2-12.2,1.4-7.3-1.1-12.4-4.4-15.2-9.7-2.3-4.4-2.9-9.5-2-15.4,1.1-7,3.8-12.2,8.1-15.7,4.3-3.4,9.3-4.7,14.9-3.8Z"/>
  <path class="cls-1" d="M1570.8,132.1c2.6.5,4.9,1.7,6.9,3.6l-5.4,9c-1.6-1.6-3.2-2.5-4.9-2.8-1.5-.4-2.9-.2-4.2.4-1.2.7-2.4,2.1-3.5,4.2s-2.3,6.8-3.8,13.9l-2.6,13.1-11.2-2.3,8.6-42.2,10.3,2.1-1.2,6c2.4-2.5,4.3-4,5.9-4.6s3.3-.7,5.1-.4Z"/>
  <path class="cls-1" d="M1598.7,147.8c-2.4-.7-4.6-.3-6.6,1-2,1.4-3.4,3.6-4.2,6.6l16.5,4.3c.7-3.2.6-5.9-.6-7.9-1.1-2.1-2.8-3.4-5.1-4ZM1600.3,139.2c6.2,1.6,10.5,4.9,13,9.9,2.6,5.1,2.6,11.8.3,20.2l-27.6-7.2c-.8,3.3-.6,6,.6,8.3,1.3,2.3,3.1,3.7,5.7,4.4,1.7.4,3.3.3,4.7-.3,1.4-.6,2.7-1.9,3.9-3.8l10.4,4.7c-2.4,3.6-5.4,6.1-9,7.4-3.6,1.3-7.7,1.4-12.3.2-7.2-1.9-12-5.7-14.2-11.3-1.8-4.5-1.9-9.7-.4-15.4,1.8-6.9,5-11.9,9.7-14.8,4.6-3,9.7-3.8,15.2-2.3Z"/>
  <text class="cls-14" transform="translate(552.1 684) rotate(-50)"><tspan x="0" y="0">process</tspan><tspan class="cls-18" x="290.62" y="0" xml:space="preserve"> A</tspan></text>
  <text class="cls-14" transform="translate(712.3 686) rotate(-50)"><tspan x="0" y="0">process B</tspan></text>
  <text class="cls-14" transform="translate(70.9 838)"><tspan x="0" y="0">p</tspan></text>
  <text class="cls-14" transform="translate(116.7 838)"><tspan x="0" y="0">roduct</tspan><tspan class="cls-17" x="230.68" y="0" xml:space="preserve"> A</tspan></text>
  <text class="cls-14" transform="translate(66.3 969)"><tspan x="0" y="0">p</tspan></text>
  <text class="cls-14" transform="translate(112.2 969)"><tspan x="0" y="0">roduct B</tspan></text>
  <path class="cls-2" d="M465.2,769c0-28.7,23.3-52,52-52h208c28.7,0,52,23.3,52,52v208c0,28.7-23.3,52-52,52h-208c-28.7,0-52-23.3-52-52v-208Z"/>
  <text class="cls-13" transform="translate(535.7 835)"><tspan x="0" y="0">1</tspan></text>
  <text class="cls-13" transform="translate(666.4 835)"><tspan x="0" y="0">0</tspan></text>
  <text class="cls-13" transform="translate(523.4 965)"><tspan x="0" y="0">-</tspan></text>
  <text class="cls-13" transform="translate(548 965)"><tspan x="0" y="0">2</tspan></text>
  <text class="cls-13" transform="translate(666.4 965)"><tspan x="0" y="0">1</tspan></text>
  <path class="cls-3" d="M465.2,1121c0-28.7,23.3-52,52-52h208c28.7,0,52,23.3,52,52v52c0,28.7-23.3,52-52,52h-208c-28.7,0-52-23.3-52-52v-52Z"/>
  <text class="cls-13" transform="translate(535.7 1174)"><tspan x="0" y="0">0</tspan></text>
  <text class="cls-13" transform="translate(666.4 1174)"><tspan x="0" y="0">5</tspan></text>
  <text class="cls-14" transform="translate(16 1177)"><tspan x="0" y="0">emission X</tspan></text>
  <text class="cls-14" transform="translate(3292.3 529) rotate(-50)"><tspan x="0" y="0">process</tspan><tspan class="cls-18" x="290.62" y="0" xml:space="preserve"> A</tspan><tspan class="cls-19" x="359.88" y="0"> </tspan></text>
  <text class="cls-14" transform="translate(3536.9 237) rotate(-50)"><tspan x="0" y="0">@ </tspan></text>
  <text class="cls-14" transform="translate(3596.5 166) rotate(-50)"><tspan x="0" y="0">t</tspan></text>
  <text class="cls-11" transform="translate(3626.6 161) rotate(-50)"><tspan x="0" y="0">0</tspan></text>
  <text class="cls-14" transform="translate(3425.4 532) rotate(-50)"><tspan x="0" y="0">process B </tspan></text>
  <text class="cls-14" transform="translate(3675.9 234) rotate(-50)"><tspan x="0" y="0">@ </tspan></text>
  <text class="cls-14" transform="translate(3735.5 163) rotate(-50)"><tspan x="0" y="0">t</tspan></text>
  <text class="cls-11" transform="translate(3765.6 158) rotate(-50)"><tspan x="0" y="0">0</tspan></text>
  <text class="cls-14" transform="translate(3561.5 532) rotate(-50)"><tspan x="0" y="0">process B </tspan></text>
  <text class="cls-14" transform="translate(3812 234) rotate(-50)"><tspan x="0" y="0">@ </tspan></text>
  <text class="cls-14" transform="translate(3871.6 163) rotate(-50)"><tspan x="0" y="0">t</tspan></text>
  <text class="cls-11" transform="translate(3901.7 158) rotate(-50)"><tspan x="0" y="0">1</tspan></text>
  <text class="cls-14" transform="translate(2650 693)"><tspan x="0" y="0">p</tspan></text>
  <text class="cls-14" transform="translate(2695.8 693)"><tspan x="0" y="0">roduct</tspan><tspan class="cls-17" x="230.68" y="0" xml:space="preserve"> A</tspan><tspan class="cls-16" x="299.94" y="0"> </tspan></text>
  <text class="cls-14" transform="translate(3016.7 693)"><tspan x="0" y="0">@ </tspan></text>
  <text class="cls-14" transform="translate(3109.5 693)"><tspan x="0" y="0">t</tspan></text>
  <text class="cls-11" transform="translate(3132.4 713)"><tspan x="0" y="0">0</tspan></text>
  <text class="cls-14" transform="translate(2640.8 824)"><tspan x="0" y="0">p</tspan></text>
  <text class="cls-14" transform="translate(2686.7 824)"><tspan x="0" y="0">roduct B </tspan></text>
  <text class="cls-14" transform="translate(3016.7 824)"><tspan x="0" y="0">@ </tspan></text>
  <text class="cls-14" transform="translate(3109.5 824)"><tspan x="0" y="0">t</tspan></text>
  <text class="cls-11" transform="translate(3132.4 844)"><tspan x="0" y="0">0</tspan></text>
  <path class="cls-2" d="M3206.2,613c0-28.7,23.3-52,52-52h364c28.7,0,52,23.3,52,52v364c0,28.7-23.3,52-52,52h-364c-28.7,0-52-23.3-52-52v-364Z"/>
  <text class="cls-13" transform="translate(3419.6 691)"><tspan x="0" y="0">0</tspan></text>
  <text class="cls-13" transform="translate(3245.9 822)"><tspan x="0" y="0">-</tspan></text>
  <text class="cls-13" transform="translate(3270.5 822)"><tspan x="0" y="0">0.4</tspan></text>
  <text class="cls-13" transform="translate(3419.6 822)"><tspan x="0" y="0">1</tspan></text>
  <text class="cls-13" transform="translate(3550.3 691)"><tspan x="0" y="0">0</tspan></text>
  <text class="cls-13" transform="translate(3245.9 953)"><tspan x="0" y="0">-</tspan></text>
  <text class="cls-13" transform="translate(3270.5 953)"><tspan x="0" y="0">1.6</tspan></text>
  <text class="cls-13" transform="translate(3288.8 691)"><tspan x="0" y="0">1</tspan></text>
  <text class="cls-13" transform="translate(3550.3 953)"><tspan x="0" y="0">1</tspan></text>
  <text class="cls-13" transform="translate(3550.3 822)"><tspan x="0" y="0">0</tspan></text>
  <text class="cls-13" transform="translate(3419.6 953)"><tspan x="0" y="0">0</tspan></text>
  <text class="cls-14" transform="translate(2640.8 954)"><tspan x="0" y="0">p</tspan></text>
  <text class="cls-14" transform="translate(2686.7 954)"><tspan x="0" y="0">roduct B </tspan></text>
  <text class="cls-14" transform="translate(3016.7 954)"><tspan x="0" y="0">@ </tspan></text>
  <text class="cls-14" transform="translate(3109.5 954)"><tspan x="0" y="0">t</tspan></text>
  <text class="cls-11" transform="translate(3132.4 974)"><tspan x="0" y="0">1</tspan></text>
  <text class="cls-14" transform="translate(2585.9 1201)"><tspan x="0" y="0">emission X </tspan></text>
  <text class="cls-9" transform="translate(3012.1 1201)"><tspan x="0" y="0">@ </tspan></text>
  <text class="cls-9" transform="translate(3104.9 1201)"><tspan x="0" y="0">t</tspan></text>
  <text class="cls-7" transform="translate(3132.4 1221)"><tspan x="0" y="0">0</tspan></text>
  <text class="cls-14" transform="translate(2585.9 1331)"><tspan x="0" y="0">emission X </tspan></text>
  <text class="cls-9" transform="translate(3012.1 1331)"><tspan x="0" y="0">@ </tspan></text>
  <text class="cls-9" transform="translate(3104.9 1331)"><tspan x="0" y="0">t</tspan></text>
  <text class="cls-7" transform="translate(3132.4 1351)"><tspan x="0" y="0">1</tspan></text>
  <text class="cls-14" transform="translate(2585.9 1462)"><tspan x="0" y="0">emission X </tspan></text>
  <text class="cls-9" transform="translate(3012.1 1462)"><tspan x="0" y="0">@ </tspan></text>
  <text class="cls-9" transform="translate(3104.9 1462)"><tspan x="0" y="0">t</tspan></text>
  <text class="cls-7" transform="translate(3132.4 1482)"><tspan x="0" y="0">2</tspan></text>
  <path class="cls-3" d="M3206.2,1121c0-28.7,23.3-52,52-52h364c28.7,0,52,23.3,52,52v364c0,28.7-23.3,52-52,52h-364c-28.7,0-52-23.3-52-52v-364Z"/>
  <text class="cls-8" transform="translate(3419.6 1199)"><tspan x="0" y="0">3</tspan></text>
  <text class="cls-13" transform="translate(3288.8 1330)"><tspan x="0" y="0">0</tspan></text>
  <text class="cls-8" transform="translate(3419.6 1330)"><tspan x="0" y="0">2</tspan></text>
  <text class="cls-13" transform="translate(3550.3 1199)"><tspan x="0" y="0">0</tspan></text>
  <text class="cls-13" transform="translate(3288.8 1461)"><tspan x="0" y="0">0</tspan></text>
  <text class="cls-13" transform="translate(3288.8 1199)"><tspan x="0" y="0">0</tspan></text>
  <text class="cls-8" transform="translate(3519.7 1461)"><tspan x="0" y="0">1.2</tspan></text>
  <text class="cls-8" transform="translate(3519.7 1330)"><tspan x="0" y="0">1.8</tspan></text>
  <text class="cls-13" transform="translate(3419.6 1461)"><tspan x="0" y="0">0</tspan></text>
  <path class="cls-4" d="M970.3,297.9l14-11.9,15.1-11.3,15.9-10.8,16.7-10,17.3-9.4,18-8.6,18.7-8.1,19.1-7.3,19.8-6.6,20.2-6,20.6-5.3,21.1-4.6,21.4-3.9,21.8-3.3,22.1-2.5,22.3-1.9,22.5-1.1,22.6-.5,22.8.3,22.9.9,23,1.7,22.9,2.3,22.9,3.1,22.8,3.8,22.7,4.5,22.5,5.2,22.3,6,22.1,6.6,21.8,7.4,21.5,8.2,21.1,8.8,20.7,9.6,17.3,8.8,16.7,9.2,16.2,9.7,15.5,10,14.8,10.5,14.2,10.8,13.5,11.2,6.2,5.6c2.4,2.1,2.6,5.7.4,8.1-2.1,2.3-5.7,2.5-8.1.4l-5.8-5.2-13.1-11-13.9-10.5-14.5-10.2-15.1-9.9-15.8-9.4-16.4-9.1-16.9-8.6-20.3-9.4-20.8-8.7-21.1-8-21.4-7.3-21.7-6.6-22-5.8-22.2-5.2-22.3-4.4-22.5-3.7-22.5-3.1-22.6-2.3-22.5-1.6-22.6-1-22.4-.2-22.3.4-22.2,1.2-21.9,1.8-21.7,2.5-21.4,3.1-21,3.9-20.7,4.5-20.3,5.2-19.8,5.8-19.3,6.5-18.7,7.2-18.2,7.8-17.5,8.4-16.9,9.1-16.2,9.8-15.4,10.3-14.6,11-14.1,11.8c-2.4,2.1-6,1.8-8-.6-2.1-2.5-1.8-6.1.7-8.1ZM1741.4,288.1l7.3,51.2-51.6-2.1c-3.1-.1-5.6-2.8-5.5-5.9.2-3.2,2.8-5.7,6-5.5l44.7,1.7-5.9,6.6-6.3-44.3c-.5-3.2,1.7-6.1,4.9-6.5,3.1-.5,6,1.7,6.4,4.8Z"/>
  <path class="cls-4" d="M2179.21,1257.3l15.65,11.75,17.46,11.25,18.75,10.43,19.87,9.59,20.82,8.71,21.62,7.8,22.26,6.86,22.73,5.88,23.04,4.86,23.18,3.8,23.17,2.71,23,1.58,22.66.41,22.16-.81,21.51-2.07,11.87-1.93c3.12-.51,5.24-3.46,4.73-6.58-.51-3.12-3.46-5.24-6.58-4.73l-11.12,1.83-20.83,2.02-21.54.8-22.08-.38-22.45-1.53-22.65-2.64-22.68-3.71-22.53-4.74-22.22-5.73-21.74-6.68-21.09-7.59-20.27-8.46-19.28-9.28-18.12-10.06-16.78-10.78-15.65-11.75c-2.53-1.9-6.12-1.39-8.02,1.14-1.9,2.53-1.39,6.12,1.14,8.02ZM2483.06,1370.03l33.81-39.01-44.47-26.22c-2.73-1.61-6.24-.7-7.85,2.02s-.7,6.24,2.02,7.85l38.54,22.73-1.42-8.69-29.31,33.81c-2.07,2.39-1.81,6.01.58,8.08,2.39,2.07,6.01,1.81,8.08-.58Z"/>
  <text class="cls-12" transform="translate(46.8 1532)"><tspan x="0" y="0">for</tspan></text>
  <text class="cls-12" transform="translate(142.3 1532)"><tspan x="0" y="0">both</tspan></text>
  <text class="cls-12" transform="translate(287.6 1532)"><tspan x="0" y="0">technosphere</tspan></text>
  <text class="cls-12" transform="translate(695.9 1532)"><tspan x="0" y="0">&amp;</tspan></text>
  <text class="cls-12" transform="translate(46.8 1596)"><tspan x="0" y="0">bi</tspan></text>
  <text class="cls-12" transform="translate(96.6 1596)"><tspan x="0" y="0">o</tspan></text>
  <text class="cls-12" transform="translate(132.2 1596)"><tspan x="0" y="0">sphere</tspan></text>
  <text class="cls-12" transform="translate(345.3 1596)"><tspan x="0" y="0">exchanges</tspan></text>
  <text class="cls-10" transform="translate(0 1530)"><tspan x="0" y="0">*</tspan></text>
  <path class="cls-5" d="M936.5,1270.5c5,3,8.3,6.1,9.7,9.3,1.4,3.1,1.7,6.5.6,10.3l-10.2-3.9c.5-1.7.4-3.2-.2-4.6-.6-1.5-2-2.8-4-4-2.6-1.6-4.6-2.4-6.2-2.3-1,0-1.8.5-2.3,1.3-.4.7-.4,1.5-.1,2.3.5,1.2,3,4,7.4,8.3,4.5,4.3,7.2,8,8.3,11,.9,2.9.5,6-1.4,9-2.1,3.4-5.2,5.4-9.5,6.2-4.3.7-9.2-.7-14.7-4-5-3.1-8.4-6.5-10.1-10.3-1.6-3.8-1.9-7.8-.6-11.8l10.6,4.5c-.7,2.1-.8,4.1-.1,5.8.7,1.8,2.2,3.4,4.4,4.7,2.6,1.6,4.7,2.3,6.6,2.1,1.2-.1,2.2-.7,2.8-1.8.5-.7.6-1.5.5-2.3-.2-.7-1.1-1.8-2.5-3.2-6.8-6.5-10.8-11.1-12-13.8-1.7-3.8-1.5-7.4.6-11,2-3.2,4.9-5.1,8.7-5.7,3.8-.6,8.4.7,13.7,3.9Z"/>
  <path class="cls-5" d="M973.8,1302.1c-2.6-1.3-5.4-1.5-8.2-.4-2.9,1.1-5.3,3.5-7.2,7.3-2,3.8-2.6,7.2-1.8,10.1.7,3,2.4,5.1,5.1,6.5,2.6,1.4,5.3,1.5,8.2.4,2.8-1.1,5.2-3.5,7.2-7.4,1.9-3.7,2.5-7.1,1.8-10-.8-2.9-2.4-5.1-5.1-6.5ZM978,1293.9c5.8,3,9.6,7.3,11.3,13,1.8,5.6,1.2,11.3-1.8,17.1-3,5.7-7.3,9.6-13,11.5-5.7,1.8-11.4,1.3-17.1-1.6-3.5-1.8-6.4-4.4-8.7-7.6-2.4-3.2-3.6-6.8-3.7-10.7-.1-3.9,1-8.1,3.3-12.5,1.7-3.3,4.2-6.2,7.5-8.4,3.3-2.3,6.9-3.5,10.8-3.6,3.9-.1,7.7.8,11.4,2.8Z"/>
  <path class="cls-5" d="M1003.3,1307.7l10.5,4.5-7.9,18.1c-2.4,5.6-3.7,9.1-3.8,10.5-.2,1.4.1,2.7.8,3.9.7,1.1,1.8,2.1,3.4,2.7,1.8.8,3.6,1,5.4.7,1.8-.4,3.3-1.2,4.5-2.4,1.1-1.3,2.9-4.7,5.4-10.3l7.2-16.7,10.4,4.5-17.1,39.5-9.7-4.2,2.6-5.9c-2.4,1.5-5,2.3-7.8,2.5-2.9.2-5.6-.2-8.2-1.4-2.7-1.1-4.8-2.7-6.4-4.8-1.6-2.1-2.4-4.4-2.5-6.9,0-2.5.8-5.6,2.4-9.4l10.8-24.9Z"/>
  <path class="cls-5" d="M1067.6,1332.7c2.5.9,4.6,2.5,6.3,4.7l-6.7,8c-1.4-1.8-2.9-3-4.4-3.6-1.5-.5-2.9-.6-4.3-.1-1.3.4-2.7,1.6-4.1,3.5-1.4,1.9-3.3,6.3-5.9,13.2l-4.6,12.5-10.7-4,15-40.3,9.9,3.6-2.1,5.8c2.7-2.1,4.9-3.3,6.6-3.7,1.6-.3,3.3-.2,5,.4Z"/>
  <path class="cls-5" d="M1095.3,1342c5,1.6,8.6,3.9,10.9,7s3.3,7,3.2,11.9l-11.3-1.5c.3-2.3,0-4.1-.9-5.6s-2.4-2.6-4.4-3.2c-2.7-.9-5.2-.6-7.4.7-2.2,1.4-4,4.2-5.4,8.6-1.5,4.9-1.8,8.6-.8,11.1s2.8,4.2,5.6,5.1c2.1.7,3.9.6,5.6-.1,1.7-.8,3.3-2.5,4.7-5.2l10.1,5.2c-2.7,4.6-6,7.6-9.9,9.1-3.9,1.5-8.5,1.4-13.8-.3-6-1.9-10.2-5.3-12.6-10.2-2.3-5-2.4-10.8-.3-17.5,2.1-6.7,5.6-11.4,10.4-14.1,4.8-2.6,10.2-2.9,16.3-1Z"/>
  <path class="cls-5" d="M1134.5,1362.3c-2.4-.6-4.6-.2-6.6,1.1-2.1,1.3-3.5,3.5-4.2,6.5l16.5,4.3c.7-3.2.5-5.8-.6-7.9-1.2-2.1-2.9-3.4-5.1-4ZM1136,1353.7c6.2,1.6,10.6,4.9,13.1,10,2.5,5,2.6,11.7.3,20.1l-27.7-7.2c-.7,3.3-.5,6.1.7,8.4,1.3,2.2,3.1,3.7,5.7,4.3,1.7.5,3.3.4,4.7-.3,1.4-.6,2.7-1.9,3.8-3.8l10.5,4.7c-2.4,3.6-5.4,6.1-9,7.4-3.6,1.4-7.7,1.4-12.3.2-7.2-1.8-12-5.6-14.2-11.2-1.8-4.5-1.9-9.7-.4-15.5,1.8-6.9,5-11.8,9.6-14.8,4.6-3,9.7-3.7,15.2-2.3Z"/>
  <path class="cls-5" d="M1209.1,1369.3c2.4.5,4.6,1.3,6.5,2.6,1.9,1.2,3.3,2.6,4.1,4.2.8,1.6,1.2,3.3,1.3,5.1.1,1.8-.1,4.4-.7,7.6l-4.6,26.4-11.2-2,3.8-21.6c.8-4.6,1.1-7.6.8-9-.2-1.4-.8-2.6-1.8-3.6-.9-.9-2.1-1.5-3.7-1.8-1.9-.3-3.7-.1-5.5.7-1.7.8-3,2-3.9,3.7-.9,1.6-1.7,4.8-2.5,9.6l-3.4,19.2-11.2-2,7.4-42.4,10.4,1.8-1.1,6.3c4.6-4.2,9.6-5.7,15.3-4.8Z"/>
  <path class="cls-5" d="M1248.9,1383.9c-2.5-.3-4.6.4-6.4,2-1.9,1.6-2.9,3.9-3.3,7l16.9,2c.3-3.2-.2-5.8-1.6-7.7-1.4-1.9-3.3-3-5.6-3.3ZM1249.3,1375.2c6.3.7,11.1,3.4,14.3,8.1,3.1,4.6,4.1,11.3,2.9,19.9l-28.3-3.4c-.4,3.3.2,6.1,1.8,8.1,1.5,2.1,3.5,3.3,6.1,3.6,1.8.2,3.3-.1,4.7-.9,1.3-.8,2.4-2.2,3.3-4.3l11,3.2c-1.9,4-4.6,6.9-8,8.6-3.4,1.8-7.4,2.4-12.1,1.9-7.4-.9-12.7-4-15.6-9.3-2.4-4.3-3.2-9.3-2.5-15.3.9-7,3.4-12.4,7.6-15.9,4.2-3.6,9.1-5,14.8-4.3Z"/>
  <path class="cls-5" d="M1271.2,1379.1l11,.7,6.3,28.6,9.2-27.7,10.9.7,5.5,28.6,9.9-27.6,11.2.7-16.4,42.1-11-.7-5.7-28.1-9,27.2-11-.7-10.9-43.8Z"/>
  <path class="cls-5" d="M1356,1383.1l12-.2,8.5,21.8,2.5,7.3c.6-1.9.9-3.2,1.1-3.8.3-1.2.7-2.4,1.1-3.6l7.8-22.1,11.7-.3-16.2,43.4-10.3.2-18.2-42.7Z"/>
  <path class="cls-5" d="M1432.2,1402.5c-1.4.6-3.7,1.3-6.8,2.2-3.1.9-5.1,1.7-6.1,2.4-1.4,1.2-2,2.6-1.9,4.2.1,1.6.8,2.9,2.1,4,1.2,1.1,2.8,1.5,4.6,1.4,2.1-.1,4-.9,5.7-2.4,1.3-1.1,2.2-2.4,2.5-4,.2-.9.2-2.8,0-5.5l-.1-2.3ZM1423.7,1379.7c5.1-.3,8.9,0,11.4,1,2.6,1.1,4.4,2.5,5.6,4.2,1.1,1.8,1.9,5.2,2.2,10.1l.8,13.3c.2,3.7.6,6.5,1.1,8.3.5,1.7,1.3,3.6,2.4,5.6l-11.2.8c-.4-.8-.8-1.9-1.3-3.3-.3-.7-.4-1.1-.5-1.3-1.8,2-3.8,3.6-6,4.7-2.1,1.1-4.4,1.7-6.9,1.9-4.5.3-8-.7-10.7-2.9-2.8-2.3-4.2-5.2-4.5-8.9-.1-2.4.3-4.6,1.3-6.6s2.6-3.5,4.6-4.7c2-1.1,5-2.2,8.8-3.2,5.3-1.4,8.9-2.6,10.9-3.6l-.1-1.1c-.1-2.2-.8-3.7-1.9-4.6-1.2-.8-3.2-1.2-6.2-1-2,.2-3.6.7-4.7,1.6-1.1.8-1.9,2.3-2.4,4.3l-10.5-1.1c.9-4.2,2.7-7.5,5.4-9.6,2.7-2.2,6.8-3.5,12.4-3.9Z"/>
  <path class="cls-5" d="M1449.3,1362.1l11.3-1.1,6.2,59.1-11.3,1.1-6.2-59.1Z"/>
  <path class="cls-5" d="M1472.5,1376.3l11.3-1.7,2.8,19.6c.9,6,1.6,9.6,2.2,10.9.6,1.3,1.5,2.3,2.7,2.9,1.3.6,2.7.8,4.4.6,1.9-.3,3.6-1.1,4.9-2.3,1.4-1.3,2.3-2.8,2.6-4.4.3-1.7.1-5.5-.8-11.6l-2.6-18,11.3-1.6,6.1,42.6-10.5,1.5-.9-6.4c-1.2,2.5-3,4.6-5.3,6.3-2.4,1.6-4.9,2.7-7.7,3.1-2.9.4-5.6.1-8-.8-2.5-.9-4.4-2.5-5.7-4.6-1.4-2.1-2.3-5.2-2.9-9.2l-3.9-26.9Z"/>
  <path class="cls-5" d="M1539.5,1373.2c-2.5.5-4.3,1.7-5.5,3.8-1.3,2.1-1.6,4.7-.9,7.7l16.7-3.3c-.8-3.2-2.1-5.5-4-6.9-1.9-1.3-4-1.8-6.3-1.3ZM1537.1,1364.8c6.3-1.3,11.7-.2,16.1,3.2,4.5,3.5,7.5,9.5,9,18.1l-28,5.5c.8,3.3,2.2,5.7,4.3,7.2,2,1.5,4.4,2,6.9,1.5,1.8-.4,3.2-1.1,4.2-2.3s1.6-2.9,1.8-5.2l11.5-.3c-.7,4.4-2.3,7.9-5,10.7-2.6,2.7-6.3,4.5-10.9,5.5-7.4,1.4-13.3.1-17.7-4-3.6-3.3-5.9-7.9-7.1-13.7-1.4-7-.7-12.9,2.2-17.5,2.9-4.7,7.1-7.6,12.7-8.7Z"/>
  <path class="cls-5" d="M1579.7,1355.2c5.7-1.4,10.2-1.6,13.4-.4,3.3,1.1,5.9,3.4,7.8,6.8l-9.9,4.5c-.8-1.5-2-2.5-3.5-3.1-1.4-.5-3.3-.5-5.6.1-2.9.7-4.9,1.7-6,2.8-.6.8-.9,1.6-.6,2.6.2.7.7,1.3,1.6,1.7,1.1.5,4.8.6,11.1.5,6.2-.2,10.7.4,13.5,1.8,2.8,1.3,4.7,3.8,5.6,7.3.9,3.8.2,7.5-2.3,11.1-2.5,3.5-6.9,6.1-13.2,7.7-5.7,1.4-10.5,1.4-14.4-.1-3.8-1.4-6.8-4-8.8-7.7l10.6-4.5c1,2,2.4,3.4,4.1,4.2,1.8.7,3.9.8,6.5.1,2.9-.7,4.9-1.8,6-3.2.8-1,1.1-2.1.8-3.3-.3-.8-.7-1.5-1.4-1.9-.6-.4-2-.5-4-.5-9.4.3-15.5-.1-18.3-1.1-3.9-1.4-6.3-4.1-7.3-8.1-1-3.7-.3-7.1,1.9-10.2,2.3-3.2,6.4-5.6,12.4-7.1Z"/>
  <path class="cls-5" d="M1637.5,1321.1c3.1-1,6.3-1.6,9.5-1.6l1.1,8c-1.9.2-3.6.5-5.2,1-1.6.6-2.6,1.3-3,2.3-.4.9-.3,2.4.4,4.5l.9,2.9,8.1-2.7,2.8,8.5-8.1,2.7,10.7,32.4-10.8,3.5-10.7-32.3-6,1.9-2.8-8.5,6-1.9-1-3.1c-1.1-3.5-1.6-6.1-1.4-8.1.1-1.9,1-3.7,2.6-5.5,1.6-1.7,3.9-3,6.9-4Z"/>
  <path class="cls-5" d="M1672.6,1325.9c2.4-.9,5-1.1,7.8-.6l.1,10.5c-2.2-.5-4.1-.4-5.6.1-1.5.6-2.7,1.5-3.4,2.7-.7,1.2-1,3-.8,5.4.2,2.3,1.6,6.9,4.2,13.8l4.6,12.5-10.7,3.9-15-40.3,9.9-3.7,2.2,5.7c.7-3.3,1.5-5.7,2.6-7,1-1.4,2.4-2.4,4.1-3Z"/>
  <path class="cls-5" d="M1704.2,1322.9c-2.7,1.2-4.5,3.2-5.5,6.1-.9,2.9-.6,6.3,1.1,10.2,1.7,3.9,3.9,6.5,6.7,7.8s5.5,1.3,8.2.1c2.8-1.2,4.6-3.2,5.6-6.1.9-2.9.5-6.3-1.2-10.2-1.7-3.9-3.9-6.5-6.6-7.8-2.8-1.3-5.5-1.3-8.3-.1ZM1700.5,1314.4c6-2.6,11.7-2.8,17.2-.6,5.5,2.3,9.6,6.3,12.1,12.3,2.6,5.9,2.8,11.7.7,17.3-2.2,5.6-6.2,9.7-12,12.2-3.6,1.6-7.5,2.3-11.5,2.1-3.9-.3-7.5-1.6-10.6-4-3-2.4-5.6-5.9-7.5-10.4-1.5-3.5-2.1-7.2-1.8-11.2.3-4,1.6-7.5,4-10.6,2.4-3.1,5.5-5.5,9.4-7.1Z"/>
  <path class="cls-5" d="M1747.1,1292.2c2.4-1.3,4.8-1.9,7.1-1.9s4.6.8,6.8,2.2c.6-3,1.6-5.4,3-7.5,1.4-2,3.1-3.6,5.3-4.8,2.8-1.5,5.5-2.2,8-2.1,2.5.1,4.9,1,7,2.6,1.6,1.3,3.3,3.7,5.3,7.3l13,24.3-10,5.4-11.7-21.7c-2-3.7-3.6-6-4.9-6.7-1.7-.9-3.5-.9-5.5.2-1.4.7-2.5,1.8-3.2,3.4-.8,1.5-1,3.2-.7,5.2.4,1.9,1.5,4.7,3.4,8.3l9.8,18.1-10,5.4-11.2-20.7c-2-3.7-3.4-6-4.4-6.9-.9-.8-1.9-1.3-2.9-1.5-1-.1-2.2.2-3.5.9-1.5.8-2.7,2-3.5,3.5-.8,1.5-1,3.2-.7,5,.3,1.9,1.4,4.6,3.4,8.3l9.9,18.4-10,5.4-20.4-37.9,9.2-5,2.8,5.2c1.1-5.8,4-9.9,8.6-12.4Z"/>
  <path class="cls-5" d="M944.1,1370.6l-7,13.5,6.9,3.6-4.2,8-6.9-3.6-8,15.4c-1.6,3.1-2.5,5-2.6,5.6-.1.6-.1,1.1.2,1.7.3.6.8,1.1,1.5,1.4.9.5,2.4.9,4.5,1.2l-3.2,8.2c-2.8-.2-5.8-1.1-8.7-2.6-1.9-.9-3.3-2.1-4.5-3.5-1.1-1.3-1.8-2.7-2-4-.2-1.3.1-2.9.6-4.7.4-1.3,1.6-3.7,3.4-7.3l8.7-16.6-4.7-2.4,4.2-8.1,4.7,2.4,3.9-7.6,13.2-.6Z"/>
  <path class="cls-5" d="M950.3,1390.7l10.2,4.9-18.6,38.8-10.3-4.9,18.7-38.8ZM957.4,1375.9l10.2,5-4.5,9.5-10.3-5,4.6-9.5Z"/>
  <path class="cls-5" d="M991.1,1408.2c2.5,1.1,4.5,2.5,5.9,4.4,1.5,1.8,2.4,4,2.7,6.6,2.6-1.4,5.1-2.2,7.6-2.4s4.8.2,7.1,1.1c2.9,1.2,5.2,2.8,6.7,4.9,1.5,2,2.3,4.3,2.4,7.1,0,2-.8,4.9-2.3,8.6l-10.6,25.5-10.5-4.4,9.4-22.7c1.6-4,2.3-6.7,2.1-8.1-.4-1.9-1.6-3.3-3.6-4.1-1.4-.6-3-.7-4.7-.4-1.7.4-3.1,1.3-4.4,2.8s-2.7,4.1-4.3,7.9l-7.9,19.1-10.5-4.4,9-21.8c1.6-3.8,2.4-6.4,2.5-7.7s-.1-2.4-.7-3.2c-.5-.9-1.5-1.6-2.8-2.2-1.7-.6-3.3-.8-5-.5-1.6.4-3.1,1.2-4.3,2.7-1.2,1.4-2.7,4-4.2,7.8l-8,19.3-10.6-4.3,16.5-39.8,9.7,4-2.3,5.4c5.3-2.7,10.3-3.1,15.1-1.2Z"/>
  <path class="cls-5" d="M1049.4,1439.7c-2.3-.8-4.5-.6-6.7.6-2.1,1.2-3.6,3.3-4.6,6.2l16.1,5.5c1-3.2,1-5.8,0-8-1-2.1-2.6-3.6-4.8-4.3ZM1051.6,1431.2c6,2.1,10.2,5.7,12.3,10.9,2.2,5.2,1.8,11.9-1.2,20.1l-27-9.1c-1,3.2-1,6,.1,8.3,1,2.4,2.8,3.9,5.3,4.8,1.7.6,3.3.6,4.7,0,1.5-.5,2.9-1.7,4.1-3.5l10.2,5.4c-2.7,3.5-5.9,5.7-9.6,6.8-3.7,1.1-7.8.8-12.2-.7-7.1-2.4-11.6-6.5-13.4-12.3-1.5-4.6-1.2-9.7.7-15.4,2.3-6.7,5.8-11.4,10.6-14.1,4.9-2.6,10-3,15.4-1.2Z"/>
  <path class="cls-5" d="M1072.5,1455.6l21.5,6.4-3.2,10.9-21.5-6.3,3.2-11Z"/>
  <path class="cls-5" d="M1118.3,1460c-2.4-.6-4.6-.3-6.6,1.1-2.1,1.3-3.4,3.5-4.2,6.6l16.5,4.1c.8-3.2.6-5.8-.6-7.9-1.2-2.1-2.9-3.4-5.1-3.9ZM1119.8,1451.3c6.2,1.6,10.5,4.9,13.1,9.9,2.6,5,2.7,11.7.4,20.2l-27.7-7c-.7,3.3-.5,6,.8,8.3,1.2,2.2,3.1,3.7,5.6,4.3,1.8.5,3.3.4,4.8-.3,1.4-.6,2.7-1.9,3.8-3.9l10.5,4.7c-2.4,3.6-5.4,6.1-9,7.5-3.6,1.3-7.7,1.4-12.3.2-7.2-1.8-12-5.5-14.3-11.1-1.8-4.5-1.9-9.7-.5-15.5,1.8-6.9,5-11.8,9.6-14.8,4.6-3,9.6-3.8,15.2-2.5Z"/>
  <path class="cls-5" d="M1142.1,1458l13.6,2.7,5.2,13.2,10.2-10,13.1,2.6-18.4,17.1,11.1,25.4-13.7-2.8-5.9-14.8-11.3,11.3-13.1-2.7,19.6-18.6-10.4-23.4Z"/>
  <path class="cls-5" d="M1209.7,1478.6c-2.8-.4-5.2.3-7.4,2.2-2.1,1.8-3.5,4.8-4.1,9-.8,4.8-.4,8.4,1.2,11,1.5,2.6,3.7,4.1,6.4,4.5,2.6.4,5-.3,7-2.1,2.1-1.9,3.5-5.2,4.2-10,.7-4.4.3-7.9-1.2-10.3-1.4-2.4-3.5-3.9-6.1-4.3ZM1214.1,1470.2c4.9.8,8.8,3.3,11.7,7.7,2.8,4.4,3.7,10.1,2.7,17-1.1,7.1-3.7,12.4-7.8,15.8-4.1,3.4-8.6,4.7-13.5,4-2.4-.4-4.4-1.2-6.2-2.4-1.7-1.2-3.5-3.2-5.3-5.7l-3.2,21.4-11.3-1.7,9-58.8,10.5,1.6-1,6.3c1.7-1.9,3.8-3.4,6.3-4.4,2.6-1,5.2-1.2,8.1-.8Z"/>
  <path class="cls-5" d="M1241.3,1458.3l11.3,1.4-6.8,59-11.4-1.3,6.9-59.1Z"/>
  <path class="cls-5" d="M1261.6,1477l11.3,1.1-4,42.9-11.3-1.1,4-42.9ZM1263.1,1460.7l11.3,1.1-.9,10.5-11.4-1.1,1-10.5Z"/>
  <path class="cls-5" d="M1301.9,1479.2c5.2.3,9.3,1.7,12.3,4.1,2.9,2.5,4.9,6,6,10.7l-11.3,1.4c-.3-2.3-1-4-2.3-5.2-1.3-1.3-3-1.9-5.1-2-2.8-.2-5.1.6-6.9,2.5-1.8,1.8-2.9,5.1-3.1,9.6-.3,5.1.3,8.8,1.9,11,1.6,2.2,3.8,3.4,6.7,3.6,2.2.1,4-.4,5.4-1.6,1.5-1.1,2.5-3.2,3.3-6.1l11,2.5c-1.4,5.1-3.9,8.8-7.3,11.3-3.5,2.4-8,3.4-13.5,3.1-6.3-.4-11.2-2.7-14.7-6.8-3.5-4.2-5-9.8-4.6-16.8.4-7.1,2.6-12.5,6.6-16.3,4-3.7,9.2-5.4,15.6-5Z"/>
  <path class="cls-5" d="M1328.3,1481.4l11.4.3-1.1,43-11.4-.3,1.1-43ZM1328.7,1465l11.4.3-.2,10.5-11.4-.3.2-10.5Z"/>
  <path class="cls-5" d="M1362.5,1466.7v15.2h7.8v9h-7.8l-.1,17.4c0,3.5.1,5.5.3,6.1.1.6.4,1.1,1,1.5.5.3,1.1.5,1.9.5,1.1,0,2.6-.3,4.6-1.1l.9,8.9c-2.6,1.1-5.6,1.7-9,1.7-2,0-3.9-.4-5.5-1.1-1.7-.7-2.9-1.6-3.6-2.7-.8-1.1-1.3-2.5-1.6-4.4-.3-1.3-.4-4-.4-8v-18.8h-5.2v-9.1h5.3v-8.5l11.4-6.6Z"/>
  <path class="cls-5" d="M1418.4,1487.9c-2.7.2-4.9,1.4-6.6,3.6-1.7,2.3-2.4,5.5-2.2,9.8.3,4.6,1.1,7.9,2.5,9.8,2,2.9,4.6,4.2,7.9,4.1,2.6-.2,4.8-1.4,6.5-3.8,1.7-2.3,2.4-5.7,2.2-10.1-.3-4.9-1.4-8.4-3.3-10.5-1.9-2.1-4.3-3-7-2.9ZM1426.4,1463.3l11.4-.6,3.4,59.3-10.5.6-.4-6.3c-1.6,2.5-3.6,4.5-5.9,5.8-2.3,1.3-4.7,2.1-7.1,2.2-4.9.3-9.3-1.4-13-5.2-3.8-3.8-5.9-9.2-6.3-16.4-.4-7.2,1-12.9,4.2-16.9s7.4-6.1,12.7-6.4c4.8-.3,9,1.5,12.8,5.3l-1.3-21.4Z"/>
  <path class="cls-5" d="M1474.7,1497.9c-1.4.6-3.7,1.5-6.7,2.5-3.1,1-5.1,1.8-6,2.6-1.4,1.2-2,2.6-1.8,4.2.2,1.6.9,2.9,2.2,3.9,1.3,1.1,2.9,1.5,4.7,1.3,2-.2,3.9-1.1,5.6-2.6,1.3-1.2,2.1-2.5,2.3-4.1.2-1,.2-2.8-.1-5.5l-.2-2.3ZM1465.4,1475.4c5-.5,8.8-.3,11.4.6,2.6,1,4.5,2.3,5.7,4,1.2,1.8,2.1,5.1,2.6,10l1.3,13.2c.3,3.8.8,6.6,1.4,8.3.5,1.8,1.4,3.6,2.6,5.5l-11.2,1.2c-.4-.7-.9-1.8-1.4-3.2-.3-.7-.5-1.1-.6-1.3-1.7,2.1-3.6,3.7-5.7,4.9-2.2,1.1-4.5,1.9-7,2.1-4.4.5-8-.4-10.7-2.5-2.8-2.1-4.4-5-4.8-8.7-.3-2.4.1-4.6,1.1-6.6.9-2,2.4-3.6,4.4-4.9,1.9-1.2,4.8-2.4,8.7-3.5,5.2-1.6,8.8-2.9,10.7-4l-.1-1.1c-.2-2.2-.9-3.7-2.1-4.5-1.2-.8-3.3-1.1-6.2-.7-2.1.2-3.6.7-4.6,1.6-1.1.9-1.9,2.4-2.3,4.5l-10.5-.8c.7-4.2,2.4-7.5,5-9.8,2.6-2.3,6.7-3.7,12.3-4.3Z"/>
  <path class="cls-5" d="M1503,1456.4l2.1,15,7.7-1,1.3,8.9-7.7,1.1,2.4,17.2c.5,3.5.9,5.5,1.1,6.1.2.5.6.9,1.2,1.2.6.3,1.2.4,2,.3,1-.1,2.5-.7,4.4-1.7l2.2,8.6c-2.5,1.5-5.4,2.5-8.7,3-2,.2-3.9.2-5.6-.3-1.8-.4-3.1-1.2-4-2.1-.9-1-1.7-2.4-2.2-4.2-.4-1.3-.9-3.9-1.5-7.9l-2.6-18.6-5.2.8-1.3-9,5.2-.8-1.2-8.4,10.4-8.2Z"/>
  <path class="cls-5" d="M1546.9,1487.2c-1.4.8-3.6,1.7-6.6,3-2.9,1.2-4.9,2.2-5.7,3-1.3,1.3-1.8,2.8-1.5,4.3.3,1.6,1.1,2.9,2.5,3.8,1.4.9,2.9,1.2,4.8.9,2-.3,3.8-1.3,5.4-3,1.2-1.3,1.8-2.7,2-4.2.1-1-.1-2.8-.5-5.5l-.4-2.3ZM1535.9,1465.5c5-.9,8.9-1,11.5-.3,2.7.8,4.7,2,6,3.6,1.3,1.7,2.4,4.9,3.3,9.8l2.2,13.1c.7,3.7,1.3,6.5,2,8.2.7,1.7,1.7,3.4,3,5.3l-11.1,2c-.4-.7-.9-1.8-1.6-3.2-.3-.6-.5-1-.7-1.2-1.5,2.2-3.3,4-5.4,5.3-2,1.3-4.2,2.2-6.7,2.6-4.3.8-8,.2-10.9-1.7-3-1.9-4.8-4.7-5.4-8.3-.4-2.4-.2-4.6.6-6.7s2.1-3.8,4-5.2c1.9-1.3,4.7-2.7,8.5-4.2,5-1.9,8.5-3.5,10.4-4.7l-.2-1.1c-.4-2.1-1.2-3.6-2.5-4.3-1.2-.7-3.3-.8-6.2-.3-2,.3-3.5,1-4.5,2s-1.6,2.5-2,4.6h-10.5c.5-4.3,1.9-7.7,4.3-10.2,2.5-2.4,6.4-4.2,11.9-5.1Z"/>
  <path class="cls-5" d="M1584.9,1464.4c-2.6.6-4.6,2.1-5.9,4.6s-1.5,5.8-.5,10c1,4.4,2.4,7.4,4.3,9.2,2.6,2.5,5.5,3.4,8.7,2.6,2.4-.5,4.3-2,5.5-4.5s1.3-6,.3-10.5c-1.1-4.8-2.7-8.1-5-9.8-2.2-1.7-4.7-2.3-7.4-1.6ZM1559.2,1445.5l11.1-2.5,4.8,20.8c2.5-4.7,6.2-7.5,10.8-8.6,5.1-1.2,9.8-.3,14,2.6,4.2,3,7.1,7.9,8.7,14.8,1.6,7.2,1.2,13.1-1.4,17.7-2.5,4.7-6.2,7.6-11,8.7-2.4.5-4.9.5-7.5-.2-2.7-.6-5.1-1.9-7.3-3.9l1.4,6.2-10.3,2.3-13.3-57.9Z"/>
  <path class="cls-5" d="M1640.1,1465.1c-1.3.9-3.4,2.1-6.2,3.6-2.9,1.5-4.7,2.7-5.4,3.6-1.2,1.4-1.5,2.9-1.1,4.5.4,1.5,1.4,2.7,2.9,3.5,1.4.8,3,.9,4.8.4,2-.6,3.7-1.7,5.1-3.5,1-1.4,1.6-2.9,1.6-4.4,0-1-.4-2.8-1.1-5.5l-.6-2.2ZM1627.1,1444.6c4.8-1.4,8.7-1.9,11.4-1.4s4.8,1.5,6.3,3c1.4,1.5,2.9,4.6,4.2,9.4l3.5,12.8c1,3.6,2,6.3,2.8,7.9.9,1.6,2,3.3,3.6,5l-10.9,3.1c-.5-.7-1.1-1.6-2-3-.3-.6-.6-.9-.7-1.1-1.4,2.3-3,4.2-4.9,5.8-1.8,1.5-4,2.6-6.4,3.3-4.3,1.2-7.9,1-11.1-.7-3.1-1.6-5.1-4.2-6.1-7.7-.7-2.3-.7-4.6-.1-6.7.6-2.2,1.7-4,3.5-5.6,1.7-1.5,4.4-3.2,8-5,4.8-2.4,8.1-4.3,9.9-5.7l-.3-1.1c-.6-2.1-1.6-3.4-2.9-4-1.3-.7-3.4-.5-6.2.3-2,.5-3.4,1.3-4.3,2.4-.9,1.1-1.4,2.7-1.5,4.8l-10.4,1c-.1-4.3,1-7.8,3.2-10.5,2.2-2.7,6-4.8,11.4-6.3Z"/>
  <path class="cls-5" d="M1668.5,1431.8c5.5-1.9,10-2.4,13.3-1.5,3.3.9,6.1,3,8.3,6.2l-9.5,5.3c-1-1.4-2.2-2.4-3.7-2.8s-3.4-.3-5.6.5c-2.9.9-4.8,2-5.7,3.2-.7.9-.8,1.7-.5,2.6.2.8.8,1.3,1.7,1.6,1.2.4,4.9.3,11.1-.3,6.2-.7,10.7-.4,13.7.7,2.9,1.2,4.9,3.5,6,6.9,1.3,3.7.8,7.5-1.4,11.2-2.2,3.8-6.4,6.7-12.5,8.7-5.5,1.9-10.3,2.2-14.3,1.1-4-1.2-7.2-3.5-9.5-7.1l10.3-5.3c1.2,2,2.6,3.3,4.4,3.9,1.8.6,3.9.5,6.5-.4,2.8-.9,4.7-2.1,5.8-3.6.7-1.1.8-2.2.4-3.4-.3-.8-.8-1.4-1.4-1.8-.8-.3-2.1-.4-4.1-.2-9.4,1-15.5,1.1-18.4.3-3.9-1.1-6.6-3.6-7.9-7.5-1.2-3.5-.8-7,1.2-10.3,2-3.4,5.9-6,11.8-8Z"/>
  <path class="cls-5" d="M1714.7,1424.2c-2.3.9-3.9,2.5-4.7,4.8-.9,2.3-.7,4.8.4,7.7l15.9-6.2c-1.3-3.1-3-5.1-5.2-6.1-2.1-1-4.2-1.1-6.4-.2ZM1710.9,1416.3c5.9-2.3,11.4-2.2,16.4.4,5,2.5,9,7.9,12.1,16.1l-26.6,10.5c1.3,3.1,3.2,5.2,5.5,6.3,2.3,1.1,4.7,1.2,7.1.2,1.7-.7,2.9-1.7,3.7-3,.7-1.4,1-3.2.8-5.4l11.3-2.4c.1,4.4-.8,8.2-3,11.4-2.1,3.2-5.4,5.6-9.8,7.4-6.9,2.7-13,2.5-18.1-.8-4.1-2.6-7.2-6.6-9.4-12.2-2.6-6.6-3-12.5-1-17.6,2-5.2,5.7-8.8,11-10.9Z"/>
  <path class="cls-5" d="M1751,1399.3c5.3-2.5,9.7-3.4,13.1-2.9,3.4.6,6.4,2.4,8.9,5.3l-8.9,6.3c-1.1-1.3-2.4-2.1-4-2.4-1.5-.3-3.4.1-5.5,1.1-2.8,1.2-4.5,2.5-5.4,3.8-.5.9-.6,1.8-.2,2.6.4.8,1,1.2,1.9,1.4,1.3.3,4.9-.2,11-1.5,6.1-1.3,10.7-1.5,13.7-.7,3,.9,5.2,3,6.7,6.2,1.7,3.6,1.6,7.4-.2,11.4-1.8,3.9-5.7,7.2-11.5,9.9-5.4,2.5-10.1,3.3-14.2,2.6-4.1-.8-7.5-2.8-10.1-6l9.6-6.4c1.4,1.8,3,2.9,4.8,3.4,1.9.4,4,0,6.4-1.1,2.7-1.2,4.5-2.6,5.4-4.2.6-1.1.6-2.2.1-3.4-.4-.8-.9-1.3-1.6-1.6-.8-.3-2.1-.2-4.1.2-9.2,2-15.3,2.7-18.2,2.2-4.1-.7-7-2.9-8.7-6.6-1.5-3.4-1.5-6.9.1-10.4,1.6-3.6,5.3-6.6,10.9-9.2Z"/>
  <path class="cls-5" d="M1775.8,1369.1l5.2-2.7c1.1,2.4,2.4,5.6,3.8,9.4,1.8-2.5,4-5.2,6.7-7.9l4.3,4.3c-2.5,2.6-5.2,4.8-7.9,6.6,2.1.6,5.3,1.8,9.7,3.6l-2.8,5.3c-2.4-1.1-5.3-2.9-8.9-5.2,0,4.3-.3,7.7-.7,10.2l-5.8-.9c1-4.8,1.8-8.1,2.4-9.9-3.4,1-6.7,1.9-9.8,2.6l-1-6c4.5-.6,7.9-.9,10.1-.8-2.7-4.1-4.5-7-5.3-8.6Z"/>
  <path class="cls-6" d="M693.25,1273.63l8.33,12.01,8.8,11.93,18.65,23.11,20.11,22.25,21.47,21.31,22.76,20.36,23.99,19.39,25.15,18.4,26.25,17.41,27.3,16.4,28.28,15.37,29.2,14.33,30.05,13.27,30.85,12.2,31.59,11.12,32.26,10.02,32.88,8.91,33.43,7.78,33.92,6.64,34.35,5.48,34.73,4.31,35.04,3.12,35.29,1.91,35.48.7,35.61-.54,35.67-1.79,35.68-3.05,35.63-4.33,35.51-5.63,35.34-6.94,35.1-8.27,34.81-9.61,34.44-10.97,29.49-10.63,28.68-11.52,27.85-12.39,26.98-13.23,26.09-14.05,25.15-14.85,24.19-15.62,23.18-16.37,22.15-17.09,21.08-17.79,19.97-18.47,18.84-19.12,17.67-19.75,16.45-20.35,15.22-20.93,9.07-13.98c1.72-2.65.96-6.2-1.69-7.92-2.66-1.72-6.21-.96-7.93,1.69l-8.72,13.48-14.86,20.46-16.09,19.91-17.28,19.34-18.46,18.75-19.58,18.12-20.69,17.48-21.76,16.8-22.79,16.11-23.8,15.38-24.76,14.63-25.69,13.85-26.6,13.05-27.46,12.22-28.3,11.37-29.08,10.49-34.02,10.85-34.38,9.51-34.68,8.18-34.92,6.87-35.1,5.57-35.22,4.29-35.28,3.03-35.27,1.78-35.21.54-35.08-.68-34.89-1.89-34.64-3.08-34.33-4.25-33.96-5.41-33.53-6.55-33.03-7.68-32.47-8.79-31.86-9.89-31.18-10.97-30.44-12.03-29.64-13.08-28.77-14.11-27.85-15.12-26.86-16.12-25.82-17.1-24.71-18.07-23.55-19.02-22.32-19.95-21.04-20.87-19.7-21.76-18.34-22.72-8.6-11.65-8.33-12.01c-1.8-2.6-5.37-3.25-7.97-1.45-2.6,1.8-3.25,5.37-1.45,7.97ZM2029.45,1304.69l-6.16-51.25-49.3,15.3c-3.03.94-4.71,4.15-3.78,7.17.94,3.02,4.15,4.71,7.17,3.77l42.74-13.26-7.39-4.79,5.34,44.43c.38,3.14,3.23,5.38,6.37,5,3.14-.38,5.38-3.23,5.01-6.37Z"/>
  <path class="cls-3" d="M1702.2,1121c0-28.7,23.3-52,52-52h364c28.7,0,52,23.3,52,52v52c0,28.7-23.3,52-52,52h-364c-28.7,0-52-23.3-52-52v-52Z"/>
  <text class="cls-14" transform="translate(1255.7 1177)"><tspan x="0" y="0">emission X</tspan></text>
  <text class="cls-13" transform="translate(1785.1 1174)"><tspan x="0" y="0">0</tspan></text>
  <text class="cls-13" transform="translate(1915.8 1174)"><tspan x="0" y="0">5</tspan></text>
  <text class="cls-15" transform="translate(2046.6 1174)"><tspan x="0" y="0">3</tspan></text>
  <text class="cls-14" transform="translate(1787.1 530) rotate(-50)"><tspan x="0" y="0">process</tspan><tspan class="cls-18" x="290.62" y="0" xml:space="preserve"> A</tspan><tspan class="cls-19" x="359.88" y="0"> </tspan></text>
  <text class="cls-9" transform="translate(2031.6 239) rotate(-50)"><tspan x="0" y="0">@ </tspan></text>
  <text class="cls-9" transform="translate(2091.3 168) rotate(-50)"><tspan x="0" y="0">t</tspan></text>
  <text class="cls-7" transform="translate(2124.3 160) rotate(-50)"><tspan x="0" y="0">0</tspan></text>
  <text class="cls-14" transform="translate(1920.2 534) rotate(-50)"><tspan x="0" y="0">process B </tspan></text>
  <text class="cls-9" transform="translate(2170.6 235) rotate(-50)"><tspan x="0" y="0">@ </tspan></text>
  <text class="cls-9" transform="translate(2230.3 164) rotate(-50)"><tspan x="0" y="0">t</tspan></text>
  <text class="cls-7" transform="translate(2263.3 156) rotate(-50)"><tspan x="0" y="0">0</tspan></text>
  <text class="cls-14" transform="translate(2056.3 534) rotate(-50)"><tspan x="0" y="0">process B </tspan></text>
  <text class="cls-9" transform="translate(2306.7 235) rotate(-50)"><tspan x="0" y="0">@ </tspan></text>
  <text class="cls-9" transform="translate(2366.4 164) rotate(-50)"><tspan x="0" y="0">t</tspan></text>
  <text class="cls-7" transform="translate(2399.4 156) rotate(-50)"><tspan x="0" y="0">1</tspan></text>
  <text class="cls-14" transform="translate(1141.6 693)"><tspan x="0" y="0">p</tspan></text>
  <text class="cls-14" transform="translate(1187.4 693)"><tspan x="0" y="0">roduct</tspan><tspan class="cls-17" x="230.68" y="0" xml:space="preserve"> A</tspan><tspan class="cls-16" x="299.94" y="0"> </tspan></text>
  <text class="cls-9" transform="translate(1508.3 693)"><tspan x="0" y="0">@ </tspan></text>
  <text class="cls-9" transform="translate(1601.1 693)"><tspan x="0" y="0">t</tspan></text>
  <text class="cls-7" transform="translate(1628.6 713)"><tspan x="0" y="0">0</tspan></text>
  <text class="cls-14" transform="translate(1132.4 824)"><tspan x="0" y="0">p</tspan></text>
  <text class="cls-14" transform="translate(1178.3 824)"><tspan x="0" y="0">roduct B </tspan></text>
  <text class="cls-9" transform="translate(1508.3 824)"><tspan x="0" y="0">@ </tspan></text>
  <text class="cls-9" transform="translate(1601.1 824)"><tspan x="0" y="0">t</tspan></text>
  <text class="cls-7" transform="translate(1628.6 844)"><tspan x="0" y="0">0</tspan></text>
  <path class="cls-2" d="M1702.2,613c0-28.7,23.3-52,52-52h364c28.7,0,52,23.3,52,52v364c0,28.7-23.3,52-52,52h-364c-28.7,0-52-23.3-52-52v-364Z"/>
  <text class="cls-13" transform="translate(1915.8 691)"><tspan x="0" y="0">0</tspan></text>
  <text class="cls-8" transform="translate(1742.1 822)"><tspan x="0" y="0">-</tspan></text>
  <text class="cls-8" transform="translate(1766.8 822)"><tspan x="0" y="0">0.4</tspan></text>
  <text class="cls-13" transform="translate(1915.8 822)"><tspan x="0" y="0">1</tspan></text>
  <text class="cls-13" transform="translate(2046.6 691)"><tspan x="0" y="0">0</tspan></text>
  <text class="cls-8" transform="translate(1742.1 953)"><tspan x="0" y="0">-</tspan></text>
  <text class="cls-8" transform="translate(1766.8 953)"><tspan x="0" y="0">1.6</tspan></text>
  <text class="cls-13" transform="translate(1785.1 691)"><tspan x="0" y="0">1</tspan></text>
  <text class="cls-13" transform="translate(2046.6 953)"><tspan x="0" y="0">1</tspan></text>
  <text class="cls-13" transform="translate(2046.6 822)"><tspan x="0" y="0">0</tspan></text>
  <text class="cls-13" transform="translate(1915.8 953)"><tspan x="0" y="0">0</tspan></text>
  <text class="cls-14" transform="translate(1132.4 954)"><tspan x="0" y="0">p</tspan></text>
  <text class="cls-14" transform="translate(1178.3 954)"><tspan x="0" y="0">roduct B </tspan></text>
  <text class="cls-9" transform="translate(1508.3 954)"><tspan x="0" y="0">@ </tspan></text>
  <text class="cls-9" transform="translate(1601.1 954)"><tspan x="0" y="0">t</tspan></text>
  <text class="cls-7" transform="translate(1628.6 974)"><tspan x="0" y="0">1</tspan></text>
</svg>
