<?xml version="1.0" encoding="UTF-8"?>
<svg id="Layer_1" data-name="Layer 1" xmlns="http://www.w3.org/2000/svg" viewBox="0 0 3164.5 3238">
  <defs>
    <style>
      .cls-1, .cls-2 {
        font-family: ArialMT, Arial;
        font-size: 110px;
      }

      .cls-1, .cls-2, .cls-3 {
        isolation: isolate;
      }

      .cls-1, .cls-3, .cls-4 {
        fill: #000;
      }

      .cls-5 {
        fill: #3fb0c4;
      }

      .cls-5, .cls-4, .cls-6 {
        stroke-width: 0px;
      }

      .cls-5, .cls-6 {
        fill-rule: evenodd;
      }

      .cls-2 {
        fill: #fff;
      }

      .cls-3 {
        font-family: Arial-BoldItalicMT, Arial;
        font-size: 83px;
        font-style: italic;
        font-weight: 700;
      }

      .cls-7, .cls-8 {
        fill: none;
        stroke: #000;
        stroke-linejoin: round;
        stroke-width: 13.75px;
      }

      .cls-6 {
        fill: #d9d9d9;
      }

      .cls-8 {
        stroke-linecap: round;
      }
    </style>
  </defs>
  <path class="cls-4" d="M831.4,333v233.46c0,3.79-3.1,6.87-6.9,6.87s-6.9-3.08-6.9-6.87v-233.46c0-3.8,3.1-6.88,6.9-6.88s6.9,3.08,6.9,6.88ZM864.2,529.61l-39.7,47.59-39.7-47.59c-2.4-2.92-2-7.25.9-9.68,2.9-2.43,7.3-2.04,9.7.88l34.4,41.25h-10.6l34.4-41.25c2.4-2.92,6.8-3.31,9.7-.88,2.9,2.43,3.3,6.76.9,9.68Z"/>
  <path class="cls-4" d="M831.4,910v224.46c0,3.79-3.1,6.87-6.9,6.87s-6.9-3.08-6.9-6.87v-224.46c0-3.8,3.1-6.88,6.9-6.88s6.9,3.08,6.9,6.88ZM864.2,1097.61l-39.7,47.59-39.7-47.59h0c-2.4-2.92-2-7.25.9-9.68,2.9-2.43,7.3-2.04,9.7.88h0l34.4,41.25h-10.6l34.4-41.25c2.4-2.92,6.8-3.31,9.7-.88,2.9,2.43,3.3,6.76.9,9.68Z"/>
  <path class="cls-4" d="M831.4,2615v279.46c0,3.79-3.1,6.87-6.9,6.87s-6.9-3.07-6.9-6.87v-279.46c0-3.8,3.1-6.88,6.9-6.88s6.9,3.08,6.9,6.88ZM864.2,2857.61l-39.7,47.59-39.7-47.59c-2.4-2.92-2-7.25.9-9.68,2.9-2.43,7.3-2.04,9.7.88l34.4,41.25h-10.6l34.4-41.25c2.4-2.92,6.8-3.31,9.7-.88,2.9,2.43,3.3,6.76.9,9.68Z"/>
  <text class="cls-3" transform="translate(77.8 2191)"><tspan x="0" y="0">solving inventory</tspan></text>
  <text class="cls-3" transform="translate(82.5 2738)"><tspan x="0" y="0">static or dynamic </tspan></text>
  <text class="cls-3" transform="translate(0 2837)"><tspan x="0" y="0">impact assessment</tspan></text>
  <path class="cls-4" d="M831.4,1478v224.46c0,3.79-3.1,6.87-6.9,6.87s-6.9-3.08-6.9-6.87v-224.46c0-3.8,3.1-6.88,6.9-6.88s6.9,3.08,6.9,6.88ZM864.2,1665.61l-39.7,47.59-39.7-47.59h0c-2.4-2.92-2-7.25.9-9.68,2.9-2.43,7.3-2.04,9.7.88h0l34.4,41.25h-10.6l34.4-41.25c2.4-2.92,6.8-3.31,9.7-.88,2.9,2.43,3.3,6.76.9,9.68Z"/>
  <path class="cls-4" d="M831.4,2046v224.46c0,3.79-3.1,6.87-6.9,6.87s-6.9-3.08-6.9-6.87v-224.46c0-3.8,3.1-6.88,6.9-6.88s6.9,3.08,6.9,6.88ZM864.2,2233.61l-39.7,47.59-39.7-47.59h0c-2.4-2.92-2-7.25.9-9.68,2.9-2.43,7.3-2.04,9.7.88h0l34.4,41.25h-10.6l34.4-41.25c2.4-2.92,6.8-3.31,9.7-.88,2.9,2.43,3.3,6.76.9,9.68Z"/>
  <path class="cls-8" d="M1779.7,328l-.21,1411.2"/>
  <path class="cls-4" d="M1261.2,1825.14l422.3.49c3.8,0,6.8,3.08,6.8,6.88s-3,6.87-6.8,6.87l-422.3-.49c-3.8-.01-6.9-3.09-6.9-6.89.1-3.79,3.1-6.87,6.9-6.86ZM1298,1871.71l-47.5-39.71,47.6-39.6c2.9-2.43,7.3-2.03,9.7.89,2.4,2.92,2,7.25-.9,9.68l-41.3,34.33v-10.56l41.2,34.42c3,2.43,3.3,6.77.9,9.68-2.4,2.92-6.8,3.31-9.7.87Z"/>
  <path class="cls-4" d="M1262.2,737.12h422.9v13.76h-422.9v-13.76ZM1299.1,783.66l-47.6-39.66,47.6-39.66c2.9-2.43,7.2-2.03,9.7.88,2.4,2.92,2,7.26-.9,9.69l-41.3,34.37v-10.56l41.3,34.37c2.9,2.43,3.3,6.77.9,9.69-2.5,2.91-6.8,3.31-9.7.88Z"/>
  <path class="cls-8" d="M1779.5,647.5c0,53.29-43,96.5-96,96.5"/>
  <path class="cls-8" d="M1779.5,1736.5c0,53.29-43,96.5-96,96.5"/>
  <path class="cls-4" d="M1261.2,1919.12h1382.5c3.8,0,6.9,3.08,6.9,6.88s-3.1,6.88-6.9,6.88h-1382.5c-3.8,0-6.9-3.08-6.9-6.88s3.1-6.88,6.9-6.88ZM1298.1,1965.66l-47.6-39.66,47.6-39.66c2.9-2.43,7.2-2.03,9.7.88,2.4,2.92,2,7.26-.9,9.69l-41.3,34.37v-10.56l41.3,34.37c2.9,2.43,3.3,6.77.9,9.69-2.5,2.91-6.8,3.31-9.7.88Z"/>
  <path class="cls-7" d="M2740.5,1830c0,53.02-43.2,96-96.5,96"/>
  <path class="cls-8" d="M2737.5,325l2.6,1506.93"/>
  <path class="cls-6" d="M397.5,55.5c0-30.65,24.8-55.5,55.5-55.5h743c30.7,0,55.5,24.85,55.5,55.5v222c0,30.65-24.8,55.5-55.5,55.5H453c-30.7,0-55.5-24.85-55.5-55.5V55.5Z"/>
  <text class="cls-1" transform="translate(610.4 141)"><tspan x="0" y="0">temporal</tspan></text>
  <text class="cls-1" transform="translate(530.8 273)"><tspan x="0" y="0">distributions</tspan></text>
  <path class="cls-5" d="M397.5,632.5c0-30.65,24.8-55.5,55.5-55.5h743c30.7,0,55.5,24.85,55.5,55.5v222c0,30.65-24.8,55.5-55.5,55.5H453c-30.7,0-55.5-24.85-55.5-55.5v-222Z"/>
  <text class="cls-2" transform="translate(509.3 719)"><tspan x="0" y="0">temporalized </tspan></text>
  <text class="cls-2" transform="translate(485.2 851)"><tspan x="0" y="0">sys</tspan></text>
  <text class="cls-2" transform="translate(650.2 851)"><tspan x="0" y="0">tem</tspan></text>
  <text class="cls-2" transform="translate(863.9 851)"><tspan x="0" y="0">model</tspan></text>
  <path class="cls-5" d="M397.5,2960.5c0-30.65,24.8-55.5,55.5-55.5h743c30.7,0,55.5,24.85,55.5,55.5v222c0,30.65-24.8,55.5-55.5,55.5H453c-30.7,0-55.5-24.85-55.5-55.5v-222Z"/>
  <text class="cls-2" transform="translate(478.6 3046)"><tspan x="0" y="0">environmental </tspan></text>
  <text class="cls-2" transform="translate(635 3178)"><tspan x="0" y="0">impacts</tspan></text>
  <path class="cls-5" d="M397.5,1768.5c0-30.65,24.8-55.5,55.5-55.5h743c30.7,0,55.5,24.85,55.5,55.5v222c0,30.65-24.8,55.5-55.5,55.5H453c-30.7,0-55.5-24.85-55.5-55.5v-222Z"/>
  <text class="cls-2" transform="translate(616.4 1855)"><tspan x="0" y="0">modified </tspan></text>
  <text class="cls-2" transform="translate(616.7 1987)"><tspan x="0" y="0">matrices</tspan></text>
  <path class="cls-5" d="M397.5,1200.5c0-30.65,24.8-55.5,55.5-55.5h743c30.7,0,55.5,24.85,55.5,55.5v222c0,30.65-24.8,55.5-55.5,55.5H453c-30.7,0-55.5-24.85-55.5-55.5v-222Z"/>
  <text class="cls-2" transform="translate(631.9 1287)"><tspan x="0" y="0">process </tspan></text>
  <text class="cls-2" transform="translate(634.8 1419)"><tspan x="0" y="0">timeline</tspan></text>
  <path class="cls-5" d="M397.5,2337.5c0-30.65,24.8-55.5,55.5-55.5h743c30.7,0,55.5,24.85,55.5,55.5v222c0,30.65-24.8,55.5-55.5,55.5H453c-30.7,0-55.5-24.85-55.5-55.5v-222Z"/>
  <text class="cls-2" transform="translate(533.9 2423)"><tspan x="0" y="0">time</tspan></text>
  <text class="cls-2" transform="translate(741.9 2423)"><tspan x="0" y="0">-</tspan></text>
  <text class="cls-2" transform="translate(778.6 2423)"><tspan x="0" y="0">explicit</tspan></text>
  <text class="cls-2" transform="translate(601.2 2555)"><tspan x="0" y="0">inventory</tspan></text>
  <path class="cls-6" d="M1354.5,55.5c0-30.65,24.8-55.5,55.5-55.5h743c30.7,0,55.5,24.85,55.5,55.5v222c0,30.65-24.8,55.5-55.5,55.5h-743c-30.7,0-55.5-24.85-55.5-55.5V55.5Z"/>
  <text class="cls-1" transform="translate(1463.5 141)"><tspan x="0" y="0">static system </tspan></text>
  <text class="cls-1" transform="translate(1631.1 273)"><tspan x="0" y="0">model</tspan></text>
  <path class="cls-6" d="M2310.5,55.5c0-30.65,24.8-55.5,55.5-55.5h743c30.7,0,55.5,24.85,55.5,55.5v222c0,30.65-24.8,55.5-55.5,55.5h-743c-30.7,0-55.5-24.85-55.5-55.5V55.5Z"/>
  <text class="cls-1" transform="translate(2446.9 141)"><tspan x="0" y="0">time</tspan></text>
  <text class="cls-1" transform="translate(2654.9 141)"><tspan x="0" y="0">-</tspan></text>
  <text class="cls-1" transform="translate(2691.6 141)"><tspan x="0" y="0">explicit </tspan></text>
  <text class="cls-1" transform="translate(2483.6 273)"><tspan x="0" y="0">databases</tspan></text>
  <text class="cls-3" transform="translate(164.9 1056)"><tspan x="0" y="0">g</tspan></text>
  <text class="cls-3" transform="translate(215.3 1056)"><tspan x="0" y="0">raph traversal</tspan></text>
  <text class="cls-3" transform="translate(224.4 1629)"><tspan x="0" y="0">time mapping</tspan></text>
</svg>