<svg xmlns="http://www.w3.org/2000/svg" viewBox="0 0 3437 2654"><g transform="translate(-15377 -12127)"><g><path d="M16474.9 12462 16474.9 12695.5C16474.9 12699.3 16471.8 12702.3 16468 12702.3 16464.2 12702.3 16461.1 12699.3 16461.1 12695.5L16461.1 12462C16461.1 12458.2 16464.2 12455.1 16468 12455.1 16471.8 12455.1 16474.9 12458.2 16474.9 12462ZM16507.7 12658.6 16468 12706.2 16428.3 12658.6C16425.9 12655.7 16426.3 12651.4 16429.2 12648.9 16432.1 12646.5 16436.5 12646.9 16438.9 12649.8L16473.3 12691.1 16462.7 12691.1 16497.1 12649.8C16499.5 12646.9 16503.9 12646.5 16506.8 12648.9 16509.7 12651.4 16510.1 12655.7 16507.7 12658.6Z" fill="#CDD6DD" fill-rule="nonzero" fill-opacity="1"/><path d="M16474.9 13039 16474.9 13263.5C16474.9 13267.3 16471.8 13270.3 16468 13270.3 16464.2 13270.3 16461.1 13267.3 16461.1 13263.5L16461.1 13039C16461.1 13035.2 16464.2 13032.1 16468 13032.1 16471.8 13032.1 16474.9 13035.2 16474.9 13039ZM16507.7 13226.6 16468 13274.2 16428.3 13226.6 16428.3 13226.6C16425.9 13223.7 16426.3 13219.4 16429.2 13216.9 16432.1 13214.5 16436.5 13214.9 16438.9 13217.8L16438.9 13217.8 16473.3 13259.1 16462.7 13259.1 16497.1 13217.8C16499.5 13214.9 16503.9 13214.5 16506.8 13216.9 16509.7 13219.4 16510.1 13223.7 16507.7 13226.6Z" fill="#CDD6DD" fill-rule="nonzero" fill-opacity="1"/><path d="M6.87498-0.0165114 7.41618 225.328 7.41618 225.328C7.4253 229.125 4.35466 232.211 0.557715 232.22-3.23923 232.229-6.32466 229.158-6.33378 225.361L-6.87498 0.0165114C-6.8841-3.78044-3.81346-6.86586-0.0165114-6.87498 3.78044-6.8841 6.86586-3.81346 6.87498-0.0165114ZM40.1091 188.401 0.566997 236.084-39.2037 188.591C-41.6415 185.68-41.2578 181.344-38.3467 178.907-35.4356 176.469-31.0996 176.853-28.6618 179.764L5.81214 220.931-4.75087 220.956 29.525 179.624C31.9487 176.701 36.2829 176.297 39.2056 178.72 42.1283 181.144 42.5329 185.478 40.1091 188.401Z" fill="#CDD6DD" fill-rule="nonzero" fill-opacity="1" transform="matrix(-1 0 0 1 16468.6 14175)"/><path d="M16474.9 13607 16474.9 13831.2C16474.9 13835 16471.8 13838.1 16468 13838.1 16464.2 13838.1 16461.1 13835 16461.1 13831.2L16461.1 13607C16461.1 13603.2 16464.2 13600.1 16468 13600.1 16471.8 13600.1 16474.9 13603.2 16474.9 13607ZM16507.7 13794.4 16468 13841.9 16428.3 13794.4 16428.3 13794.4C16425.9 13791.4 16426.3 13787.1 16429.2 13784.7 16432.1 13782.2 16436.5 13782.6 16438.9 13785.6L16438.9 13785.6 16473.3 13826.8 16462.7 13826.8 16497.1 13785.6C16499.5 13782.6 16503.9 13782.2 16506.8 13784.7 16509.7 13787.1 16510.1 13791.4 16507.7 13794.4Z" fill="#CDD6DD" fill-rule="nonzero" fill-opacity="1"/><path d="M0 0 0.205709 1411.2" stroke="#CDD6DD" stroke-width="13.75" stroke-linecap="round" stroke-linejoin="round" stroke-miterlimit="10" stroke-opacity="1" fill="none" fill-rule="evenodd" transform="matrix(-1 0 0 1 17423.2 12457)"/><path d="M16904.7 13955.1 17327 13955.6C17330.8 13955.6 17333.8 13958.7 17333.8 13962.5 17333.8 13966.3 17330.8 13969.4 17327 13969.4L16904.7 13968.9C16900.9 13968.9 16897.8 13965.8 16897.8 13962 16897.9 13958.2 16900.9 13955.1 16904.7 13955.1ZM16941.5 14001.7 16894 13962 16941.6 13922.4C16944.5 13920 16948.9 13920.4 16951.3 13923.3 16953.7 13926.2 16953.3 13930.5 16950.4 13933L16909.1 13967.3 16909.1 13956.7 16950.3 13991.2C16953.3 13993.6 16953.6 13997.9 16951.2 14000.8 16948.8 14003.8 16944.4 14004.1 16941.5 14001.7Z" fill="#CDD6DD" fill-rule="nonzero" fill-opacity="1"/><path d="M16905.7 12866.1 17328.6 12866.1 17328.6 12879.9 16905.7 12879.9ZM16942.6 12912.7 16895 12873 16942.6 12833.3C16945.5 12830.9 16949.8 12831.3 16952.3 12834.2 16954.7 12837.1 16954.3 12841.5 16951.4 12843.9L16910.1 12878.3 16910.1 12867.7 16951.4 12902.1C16954.3 12904.5 16954.7 12908.9 16952.3 12911.8 16949.8 12914.7 16945.5 12915.1 16942.6 12912.7Z" fill="#CDD6DD" fill-rule="nonzero" fill-opacity="1"/><path d="M17423 12776.5C17423 12829.8 17380 12873 17327 12873" stroke="#CDD6DD" stroke-width="13.75" stroke-linecap="round" stroke-linejoin="round" stroke-miterlimit="10" stroke-opacity="1" fill="none" fill-rule="evenodd"/><path d="M17423 13866C17423 13919 17380 13962 17327 13962" stroke="#CDD6DD" stroke-width="13.75" stroke-linecap="round" stroke-linejoin="round" stroke-miterlimit="10" stroke-opacity="1" fill="none" fill-rule="evenodd"/><path d="M16904.7 14049.1 18287.2 14049.1C18291 14049.1 18294.1 14052.2 18294.1 14056 18294.1 14059.8 18291 14062.9 18287.2 14062.9L16904.7 14062.9C16900.9 14062.9 16897.8 14059.8 16897.8 14056 16897.8 14052.2 16900.9 14049.1 16904.7 14049.1ZM16941.6 14095.7 16894 14056 16941.6 14016.3C16944.5 14013.9 16948.8 14014.3 16951.3 14017.2 16953.7 14020.1 16953.3 14024.5 16950.4 14026.9L16909.1 14061.3 16909.1 14050.7 16950.4 14085.1C16953.3 14087.5 16953.7 14091.9 16951.3 14094.8 16948.8 14097.7 16944.5 14098.1 16941.6 14095.7Z" fill="#CDD6DD" fill-rule="nonzero" fill-opacity="1"/><path d="M18383 13959.5C18383 14012.8 18340 14056 18287 14056" stroke="#CDD6DD" stroke-width="13.75" stroke-linecap="butt" stroke-linejoin="round" stroke-miterlimit="10" stroke-opacity="1" fill="none" fill-rule="evenodd"/><path d="M18381 12455 18383.6 13961.9" stroke="#CDD6DD" stroke-width="13.75" stroke-linecap="round" stroke-linejoin="round" stroke-miterlimit="10" stroke-opacity="1" fill="none" fill-rule="evenodd"/><path d="M16041 12184.5C16041 12153.8 16065.8 12129 16096.5 12129L16839.5 12129C16870.2 12129 16895 12153.8 16895 12184.5L16895 12406.5C16895 12437.2 16870.2 12462 16839.5 12462L16096.5 12462C16065.8 12462 16041 12437.2 16041 12406.5Z" fill="#BFBFBF" fill-rule="evenodd" fill-opacity="1"/><text fill="#000000" fill-opacity="1" font-family="Arial,Arial_MSFontService,sans-serif" font-style="normal" font-variant="normal" font-weight="400" font-stretch="normal" font-size="110" text-anchor="start" direction="ltr" writing-mode="lr-tb" unicode-bidi="normal" text-decoration="none" transform="matrix(1 0 0 1 16253.6 12271)">temporal</text><text fill="#000000" fill-opacity="1" font-family="Arial,Arial_MSFontService,sans-serif" font-style="normal" font-variant="normal" font-weight="400" font-stretch="normal" font-size="110" text-anchor="start" direction="ltr" writing-mode="lr-tb" unicode-bidi="normal" text-decoration="none" transform="matrix(1 0 0 1 16195.4 12403)">information</text><path d="M16041 12761.5C16041 12730.8 16065.8 12706 16096.5 12706L16839.5 12706C16870.2 12706 16895 12730.8 16895 12761.5L16895 12983.5C16895 13014.2 16870.2 13039 16839.5 13039L16096.5 13039C16065.8 13039 16041 13014.2 16041 12983.5Z" fill="#3FB0C4" fill-rule="evenodd" fill-opacity="1"/><text fill="#000000" fill-opacity="1" font-family="Arial,Arial_MSFontService,sans-serif" font-style="normal" font-variant="normal" font-weight="400" font-stretch="normal" font-size="110" text-anchor="start" direction="ltr" writing-mode="lr-tb" unicode-bidi="normal" text-decoration="none" transform="matrix(1 0 0 1 16152.5 12848)">temporalized </text><text fill="#000000" fill-opacity="1" font-family="Arial,Arial_MSFontService,sans-serif" font-style="normal" font-variant="normal" font-weight="400" font-stretch="normal" font-size="110" text-anchor="start" direction="ltr" writing-mode="lr-tb" unicode-bidi="normal" text-decoration="none" transform="matrix(1 0 0 1 16128.4 12980)">system model</text><path d="M16041 14466.5C16041 14435.8 16065.8 14411 16096.5 14411L16839.5 14411C16870.2 14411 16895 14435.8 16895 14466.5L16895 14688.5C16895 14719.2 16870.2 14744 16839.5 14744L16096.5 14744C16065.8 14744 16041 14719.2 16041 14688.5Z" fill="#3FB0C4" fill-rule="evenodd" fill-opacity="1"/><text fill="#000000" fill-opacity="1" font-family="Arial,Arial_MSFontService,sans-serif" font-style="normal" font-variant="normal" font-weight="400" font-stretch="normal" font-size="110" text-anchor="start" direction="ltr" writing-mode="lr-tb" unicode-bidi="normal" text-decoration="none" transform="matrix(1 0 0 1 16121.8 14553)">environmental </text><text fill="#000000" fill-opacity="1" font-family="Arial,Arial_MSFontService,sans-serif" font-style="normal" font-variant="normal" font-weight="400" font-stretch="normal" font-size="110" text-anchor="start" direction="ltr" writing-mode="lr-tb" unicode-bidi="normal" text-decoration="none" transform="matrix(1 0 0 1 16278.2 14685)">impacts</text><path d="M16041 13329.5C16041 13298.8 16065.8 13274 16096.5 13274L16839.5 13274C16870.2 13274 16895 13298.8 16895 13329.5L16895 13551.5C16895 13582.2 16870.2 13607 16839.5 13607L16096.5 13607C16065.8 13607 16041 13582.2 16041 13551.5Z" fill="#3FB0C4" fill-rule="evenodd" fill-opacity="1"/><text fill="#000000" fill-opacity="1" font-family="Arial,Arial_MSFontService,sans-serif" font-style="normal" font-variant="normal" font-weight="400" font-stretch="normal" font-size="110" text-anchor="start" direction="ltr" writing-mode="lr-tb" unicode-bidi="normal" text-decoration="none" transform="matrix(1 0 0 1 16275.1 13416)">process </text><text fill="#000000" fill-opacity="1" font-family="Arial,Arial_MSFontService,sans-serif" font-style="normal" font-variant="normal" font-weight="400" font-stretch="normal" font-size="110" text-anchor="start" direction="ltr" writing-mode="lr-tb" unicode-bidi="normal" text-decoration="none" transform="matrix(1 0 0 1 16277.9 13548)">timeline</text><path d="M16041 13897.5C16041 13866.8 16065.8 13842 16096.5 13842L16840.5 13842C16871.2 13842 16896 13866.8 16896 13897.5L16896 14119.5C16896 14150.2 16871.2 14175 16840.5 14175L16096.5 14175C16065.8 14175 16041 14150.2 16041 14119.5Z" fill="#3FB0C4" fill-rule="evenodd" fill-opacity="1"/><text fill="#000000" fill-opacity="1" font-family="Arial,Arial_MSFontService,sans-serif" font-style="normal" font-variant="normal" font-weight="400" font-stretch="normal" font-size="110" text-anchor="start" direction="ltr" writing-mode="lr-tb" unicode-bidi="normal" text-decoration="none" transform="matrix(1 0 0 1 16177.7 13984)">time</text><text fill="#000000" fill-opacity="1" font-family="Arial,Arial_MSFontService,sans-serif" font-style="normal" font-variant="normal" font-weight="400" font-stretch="normal" font-size="110" text-anchor="start" direction="ltr" writing-mode="lr-tb" unicode-bidi="normal" text-decoration="none" transform="matrix(1 0 0 1 16385.6 13984)">-</text><text fill="#000000" fill-opacity="1" font-family="Arial,Arial_MSFontService,sans-serif" font-style="normal" font-variant="normal" font-weight="400" font-stretch="normal" font-size="110" text-anchor="start" direction="ltr" writing-mode="lr-tb" unicode-bidi="normal" text-decoration="none" transform="matrix(1 0 0 1 16422.3 13984)">explicit</text><text fill="#000000" fill-opacity="1" font-family="Arial,Arial_MSFontService,sans-serif" font-style="normal" font-variant="normal" font-weight="400" font-stretch="normal" font-size="110" text-anchor="start" direction="ltr" writing-mode="lr-tb" unicode-bidi="normal" text-decoration="none" transform="matrix(1 0 0 1 16245 14116)">inventory</text><path d="M16997 12184.5C16997 12153.8 17021.8 12129 17052.5 12129L17796.5 12129C17827.2 12129 17852 12153.8 17852 12184.5L17852 12406.5C17852 12437.2 17827.2 12462 17796.5 12462L17052.5 12462C17021.8 12462 16997 12437.2 16997 12406.5Z" fill="#BFBFBF" fill-rule="evenodd" fill-opacity="1"/><text fill="#000000" fill-opacity="1" font-family="Arial,Arial_MSFontService,sans-serif" font-style="normal" font-variant="normal" font-weight="400" font-stretch="normal" font-size="110" text-anchor="start" direction="ltr" writing-mode="lr-tb" unicode-bidi="normal" text-decoration="none" transform="matrix(1 0 0 1 17106.7 12271)">static system </text><text fill="#000000" fill-opacity="1" font-family="Arial,Arial_MSFontService,sans-serif" font-style="normal" font-variant="normal" font-weight="400" font-stretch="normal" font-size="110" text-anchor="start" direction="ltr" writing-mode="lr-tb" unicode-bidi="normal" text-decoration="none" transform="matrix(1 0 0 1 17274.3 12403)">model</text><path d="M17954 12184.5C17954 12153.8 17978.8 12129 18009.5 12129L18752.5 12129C18783.2 12129 18808 12153.8 18808 12184.5L18808 12406.5C18808 12437.2 18783.2 12462 18752.5 12462L18009.5 12462C17978.8 12462 17954 12437.2 17954 12406.5Z" fill="#BFBFBF" fill-rule="evenodd" fill-opacity="1"/><text fill="#000000" fill-opacity="1" font-family="Arial,Arial_MSFontService,sans-serif" font-style="normal" font-variant="normal" font-weight="400" font-stretch="normal" font-size="110" text-anchor="start" direction="ltr" writing-mode="lr-tb" unicode-bidi="normal" text-decoration="none" transform="matrix(1 0 0 1 18090.1 12271)">time</text><text fill="#000000" fill-opacity="1" font-family="Arial,Arial_MSFontService,sans-serif" font-style="normal" font-variant="normal" font-weight="400" font-stretch="normal" font-size="110" text-anchor="start" direction="ltr" writing-mode="lr-tb" unicode-bidi="normal" text-decoration="none" transform="matrix(1 0 0 1 18298.1 12271)">-</text><text fill="#000000" fill-opacity="1" font-family="Arial,Arial_MSFontService,sans-serif" font-style="normal" font-variant="normal" font-weight="400" font-stretch="normal" font-size="110" text-anchor="start" direction="ltr" writing-mode="lr-tb" unicode-bidi="normal" text-decoration="none" transform="matrix(1 0 0 1 18334.8 12271)">explicit </text><text fill="#000000" fill-opacity="1" font-family="Arial,Arial_MSFontService,sans-serif" font-style="normal" font-variant="normal" font-weight="400" font-stretch="normal" font-size="110" text-anchor="start" direction="ltr" writing-mode="lr-tb" unicode-bidi="normal" text-decoration="none" transform="matrix(1 0 0 1 18126.8 12403)">databases</text><text fill="#CDD6DD" fill-opacity="1" font-family="Courier New,Courier New_MSFontService,sans-serif" font-style="normal" font-variant="normal" font-weight="400" font-stretch="normal" font-size="83" text-anchor="start" direction="ltr" writing-mode="lr-tb" unicode-bidi="normal" text-decoration="none" transform="matrix(1 0 0 1 16506.3 13178)">build_timeline()</text><text fill="#CDD6DD" fill-opacity="1" font-family="Courier New,Courier New_MSFontService,sans-serif" font-style="normal" font-variant="normal" font-weight="400" font-stretch="normal" font-size="83" text-anchor="start" direction="ltr" writing-mode="lr-tb" unicode-bidi="normal" text-decoration="none" transform="matrix(1 0 0 1 16505.9 13746)">lci()</text><text fill="#CDD6DD" fill-opacity="1" font-family="Courier New,Courier New_MSFontService,sans-serif" font-style="normal" font-variant="normal" font-weight="400" font-stretch="normal" font-size="83" text-anchor="start" direction="ltr" writing-mode="lr-tb" unicode-bidi="normal" text-decoration="none" transform="matrix(1 0 0 1 16508 14314)">dynamic_lcia</text><text fill="#CDD6DD" fill-opacity="1" font-family="Courier New,Courier New_MSFontService,sans-serif" font-style="normal" font-variant="normal" font-weight="400" font-stretch="normal" font-size="83" text-anchor="start" direction="ltr" writing-mode="lr-tb" unicode-bidi="normal" text-decoration="none" transform="matrix(1 0 0 1 17099.2 14314)">()</text><text fill="#CDD6DD" fill-opacity="1" font-family="Arial,Arial_MSFontService,sans-serif" font-style="normal" font-variant="normal" font-weight="400" font-stretch="normal" font-size="147" text-anchor="start" direction="ltr" writing-mode="lr-tb" unicode-bidi="normal" text-decoration="none" transform="matrix(1 0 0 1 15466.8 12927)">Step 1</text><text fill="#CDD6DD" fill-opacity="1" font-family="Arial,Arial_MSFontService,sans-serif" font-style="normal" font-variant="normal" font-weight="400" font-stretch="normal" font-size="147" text-anchor="start" direction="ltr" writing-mode="lr-tb" unicode-bidi="normal" text-decoration="none" transform="matrix(1 0 0 1 15469.7 13495)">Step 2</text><text fill="#CDD6DD" fill-opacity="1" font-family="Arial,Arial_MSFontService,sans-serif" font-style="normal" font-variant="normal" font-weight="400" font-stretch="normal" font-size="147" text-anchor="start" direction="ltr" writing-mode="lr-tb" unicode-bidi="normal" text-decoration="none" transform="matrix(1 0 0 1 15466.8 14063)">Step 3</text><text fill="#CDD6DD" fill-opacity="1" font-family="Arial,Arial_MSFontService,sans-serif" font-style="normal" font-variant="normal" font-weight="400" font-stretch="normal" font-size="147" text-anchor="start" direction="ltr" writing-mode="lr-tb" unicode-bidi="normal" text-decoration="none" transform="matrix(1 0 0 1 15469.7 14632)">Step 4</text></g></g></svg>
