<?xml version="1.0" encoding="UTF-8" standalone="no"?>
<!-- Created with Inkscape (http://www.inkscape.org/) -->

<svg
   version="1.1"
   id="svg1"
   width="2962.6667"
   height="1045.3333"
   viewBox="0 0 2962.6667 1045.3333"
   xmlns="http://www.w3.org/2000/svg"
   xmlns:svg="http://www.w3.org/2000/svg">
  <defs
     id="defs1" />
  <g
     id="g1">
    <path
       id="path1"
       d="m 1604.703,412.219 c 0,-25.215 20.418,-45.657 45.606,-45.657 25.187,0 45.605,20.442 45.605,45.657 0,25.215 -20.418,45.656 -45.605,45.656 -25.188,0 -45.606,-20.441 -45.606,-45.656 z"
       style="fill:#01539e;fill-opacity:1;fill-rule:evenodd;stroke:none"
       transform="scale(1.3333333)" />
    <text
       id="text1"
       xml:space="preserve"
       transform="matrix(1.3333333,0,0,1.3347867,2163.0707,597.17327)"><tspan
         style="font-variant:normal;font-weight:normal;font-size:96.0139px;font-family:Arial;writing-mode:lr-tb;fill:#ffffff;fill-opacity:1;fill-rule:nonzero;stroke:none"
         x="0"
         y="0"
         id="tspan1">+</tspan></text>
    <path
       id="path2"
       d="m 976.465,413.09 c 0,-25.215 20.418,-45.656 45.605,-45.656 25.188,0 45.606,20.441 45.606,45.656 0,25.219 -20.418,45.656 -45.606,45.656 -25.187,0 -45.605,-20.437 -45.605,-45.656 z"
       style="fill:#01539e;fill-opacity:1;fill-rule:evenodd;stroke:none"
       transform="scale(1.3333333)" />
    <text
       id="text2"
       xml:space="preserve"
       transform="matrix(1.3333333,0,0,1.3347867,1325.2932,598.6296)"><tspan
         style="font-variant:normal;font-weight:normal;font-size:96.0139px;font-family:Arial;writing-mode:lr-tb;fill:#ffffff;fill-opacity:1;fill-rule:nonzero;stroke:none"
         x="0"
         y="0"
         id="tspan2">=</tspan></text>
    <path
       id="path3"
       d="m 1081.098,113.094 c 0,-38.27 30.992,-69.293 69.218,-69.293 h 371.993 c 38.23,0 69.222,31.023 69.222,69.293 v 599.34 c 0,38.269 -30.992,69.293 -69.222,69.293 h -371.993 c -38.226,0 -69.218,-31.024 -69.218,-69.293 z"
       style="fill:#ffffff;fill-opacity:1;fill-rule:evenodd;stroke:none"
       transform="scale(1.3333333)" />
    <path
       id="path4"
       d="m 1082.276,113.094 c 0,-38.27 31.026,-69.293 69.298,-69.293 h 372.398 c 38.268,0 69.294,31.023 69.294,69.293 v 599.34 c 0,38.269 -31.026,69.293 -69.294,69.293 h -372.398 c -38.272,0 -69.298,-31.024 -69.298,-69.293 z"
       style="fill:none;stroke:#01539e;stroke-width:4.50556;stroke-linecap:butt;stroke-linejoin:round;stroke-miterlimit:10;stroke-dasharray:none;stroke-opacity:1"
       transform="scale(1.3318813,1.3333333)" />
    <path
       id="path5"
       d="M 1116.559,23.461 C 1116.559,10.504 1127.051,0 1139.992,0 h 389.778 c 12.941,0 23.433,10.504 23.433,23.461 V 61.52 c 0,12.953 -10.492,23.457 -23.433,23.457 h -389.778 c -12.941,0 -23.433,-10.504 -23.433,-23.457 z"
       style="fill:#01539e;fill-opacity:1;fill-rule:evenodd;stroke:none"
       transform="scale(1.3333333)" />
    <text
       id="text5"
       xml:space="preserve"
       transform="matrix(1.3333333,0,0,1.3347867,1508.9623,78.424101)"><tspan
         style="font-variant:normal;font-weight:normal;font-size:44.0791px;font-family:Arial;writing-mode:lr-tb;fill:#ffffff;fill-opacity:1;fill-rule:nonzero;stroke:none"
         x="0 21.988424 46.503136 83.22139 107.7361 132.25081 146.9295 171.44421 181.10495 193.35155 217.86626 227.65923 249.69879 261.94537 276.62408 286.28479 310.7995 335.31421 347.56082 357.35379 381.8685"
         y="0"
         id="tspan5">Temporal distribution</tspan></text>
    <path
       id="path6"
       d="m 1300.619,513.141 h 35.77"
       style="fill:none;stroke:#7f7f7f;stroke-width:2.20272;stroke-linecap:butt;stroke-linejoin:round;stroke-miterlimit:10;stroke-dasharray:8.81087, 6.60815;stroke-dashoffset:0;stroke-opacity:1"
       transform="scale(1.3318813,1.3333333)" />
    <path
       id="path7"
       d="m 1372.706,436.027 h 35.773"
       style="fill:none;stroke:#7f7f7f;stroke-width:2.20272;stroke-linecap:butt;stroke-linejoin:round;stroke-miterlimit:10;stroke-dasharray:8.81087, 6.60815;stroke-dashoffset:0;stroke-opacity:1"
       transform="scale(1.3318813,1.3333333)" />
    <path
       id="path8"
       d="m 1441.519,358.914 h 35.769"
       style="fill:none;stroke:#7f7f7f;stroke-width:2.20272;stroke-linecap:butt;stroke-linejoin:round;stroke-miterlimit:10;stroke-dasharray:8.81087, 6.60815;stroke-dashoffset:0;stroke-opacity:1"
       transform="scale(1.3318813,1.3333333)" />
    <path
       id="path9"
       d="m 1227.876,590.254 h 35.769"
       style="fill:none;stroke:#7f7f7f;stroke-width:2.20272;stroke-linecap:butt;stroke-linejoin:round;stroke-miterlimit:10;stroke-dasharray:8.81087, 6.60815;stroke-dashoffset:0;stroke-opacity:1"
       transform="scale(1.3318813,1.3333333)" />
    <path
       id="path10"
       d="m 1253.65,513.141 h 45.659 v 77.113 h -45.659 z"
       style="fill:#f6a800;fill-opacity:1;fill-rule:nonzero;stroke:#14181d;stroke-width:2.20272;stroke-linecap:butt;stroke-linejoin:round;stroke-miterlimit:10;stroke-dasharray:none;stroke-opacity:1"
       transform="scale(1.3318813,1.3333333)" />
    <text
       id="text10"
       xml:space="preserve"
       transform="matrix(0,-1.3333333,1.3318815,0,1714.0959,768.73044)"><tspan
         style="font-variant:normal;font-weight:normal;font-size:27.9618px;font-family:Arial;writing-mode:lr-tb;fill:#14181d;fill-opacity:1;fill-rule:nonzero;stroke:none"
         x="0 20.276983 34.25787"
         y="0"
         id="tspan10">Use</tspan></text>
    <path
       id="path11"
       d="m 1326.612,436.027 h 45.659 v 77.113 h -45.659 z"
       style="fill:#f6a800;fill-opacity:1;fill-rule:nonzero;stroke:#14181d;stroke-width:2.20272;stroke-linecap:butt;stroke-linejoin:round;stroke-miterlimit:10;stroke-dasharray:none;stroke-opacity:1"
       transform="scale(1.3318813,1.3333333)" />
    <text
       id="text11"
       xml:space="preserve"
       transform="matrix(0,-1.3333333,1.3318815,0,1811.2313,665.91263)"><tspan
         style="font-variant:normal;font-weight:normal;font-size:27.9618px;font-family:Arial;writing-mode:lr-tb;fill:#14181d;fill-opacity:1;fill-rule:nonzero;stroke:none"
         x="0 20.276983 34.25787"
         y="0"
         id="tspan11">Use</tspan></text>
    <path
       id="path12"
       d="m 1399.141,358.914 h 45.655 v 77.113 h -45.655 z"
       style="fill:#f6a800;fill-opacity:1;fill-rule:nonzero;stroke:#14181d;stroke-width:2.20272;stroke-linecap:butt;stroke-linejoin:round;stroke-miterlimit:10;stroke-dasharray:none;stroke-opacity:1"
       transform="scale(1.3318813,1.3333333)" />
    <text
       id="text12"
       xml:space="preserve"
       transform="matrix(0,-1.3333333,1.3318815,0,1907.8361,563.09483)"><tspan
         style="font-variant:normal;font-weight:normal;font-size:27.9618px;font-family:Arial;writing-mode:lr-tb;fill:#14181d;fill-opacity:1;fill-rule:nonzero;stroke:none"
         x="0 20.276983 34.25787"
         y="0"
         id="tspan12">Use</tspan></text>
    <path
       id="path13"
       d="m 1471.665,301.898 h 45.659 v 57.016 h -45.659 z"
       style="fill:#7a6fac;fill-opacity:1;fill-rule:nonzero;stroke:#14181d;stroke-width:2.20272;stroke-linecap:butt;stroke-linejoin:round;stroke-miterlimit:10;stroke-dasharray:none;stroke-opacity:1"
       transform="scale(1.3318813,1.3333333)" />
    <text
       id="text13"
       xml:space="preserve"
       transform="matrix(0,-1.3333333,1.3318815,0,2004.4394,478.04442)"><tspan
         style="font-variant:normal;font-weight:normal;font-size:27.9618px;font-family:Arial;writing-mode:lr-tb;fill:#14181d;fill-opacity:1;fill-rule:nonzero;stroke:none"
         x="0 18.650286 40.399849"
         y="0"
         id="tspan13">EOL</tspan></text>
    <path
       id="path14"
       d="m 881.797,-299.086 c -2.871,-10e-4 -5.199,-3.173 -5.199,-7.082 l 0.002,-129.405 c -0.002,-3.912 -2.33,-7.079 -5.201,-7.08 2.871,0.001 5.198,-3.17 5.199,-7.082 v -129.403 c 0,-3.909 2.326,-7.081 5.199,-7.082"
       style="fill:none;stroke:#14181d;stroke-width:2.6678;stroke-linecap:round;stroke-linejoin:round;stroke-miterlimit:10;stroke-dasharray:none;stroke-opacity:1"
       transform="matrix(1.3318813,1.3204347,-1.3189973,1.3333333,0,0)" />
    <path
       id="path15"
       d="m 1204.171,692.602 v 8.511"
       style="fill:none;stroke:#14181d;stroke-width:3.75463;stroke-linecap:round;stroke-linejoin:round;stroke-miterlimit:10;stroke-dasharray:none;stroke-opacity:1"
       transform="scale(1.3318813,1.3333333)" />
    <path
       id="path16"
       d="m 1494.494,692.602 v 8.511"
       style="fill:none;stroke:#14181d;stroke-width:3.75463;stroke-linecap:round;stroke-linejoin:round;stroke-miterlimit:10;stroke-dasharray:none;stroke-opacity:1"
       transform="scale(1.3318813,1.3333333)" />
    <path
       id="path17"
       d="M 1181.345,590.254 H 1227 v 102.02 h -45.655 z"
       style="fill:#58ab27;fill-opacity:1;fill-rule:nonzero;stroke:#14181d;stroke-width:2.20272;stroke-linecap:butt;stroke-linejoin:round;stroke-miterlimit:10;stroke-dasharray:none;stroke-opacity:1"
       transform="scale(1.3318813,1.3333333)" />
    <text
       id="text17"
       xml:space="preserve"
       transform="matrix(0,-1.3333333,1.3318815,0,1617.7779,899.50995)"><tspan
         style="font-variant:normal;font-weight:normal;font-size:27.9618px;font-family:Arial;writing-mode:lr-tb;fill:#14181d;fill-opacity:1;fill-rule:nonzero;stroke:none"
         x="0 18.650286 28.04566 43.708511 59.343403"
         y="0"
         id="tspan17">Prod.</tspan></text>
    <path
       id="path18"
       d="m 1151.363,690.504 h 391.258 v 3.754 h -391.258 z m 380.953,-6.316 14.028,8.195 -14.028,8.191 c -0.898,0.524 -2.043,0.219 -2.566,-0.676 -0.523,-0.894 -0.219,-2.046 0.676,-2.566 l 11.25,-6.57 v 3.242 l -11.25,-6.57 c -0.895,-0.524 -1.199,-1.672 -0.676,-2.571 0.523,-0.894 1.668,-1.195 2.566,-0.675 z"
       style="fill:#14181d;fill-opacity:1;fill-rule:nonzero;stroke:none"
       transform="scale(1.3333333)" />
    <path
       id="path19"
       d="M 1153.238,693.133 V 255.48 h -3.75 v 437.653 z m 6.309,-427.332 -8.184,-14.043 -8.183,14.043 c -0.524,0.894 -0.219,2.043 0.675,2.566 0.895,0.524 2.043,0.219 2.563,-0.676 l 6.566,-11.261 h -3.242 l 6.563,11.261 c 0.523,0.895 1.672,1.2 2.566,0.676 0.895,-0.523 1.195,-1.672 0.676,-2.566 z"
       style="fill:#14181d;fill-opacity:1;fill-rule:nonzero;stroke:none"
       transform="scale(1.3333333)" />
    <text
       id="text19"
       xml:space="preserve"
       transform="matrix(0,-1.3333333,1.3318815,0,1517.798,726.49646)"><tspan
         style="font-variant:normal;font-weight:normal;font-size:32.1124px;font-family:Arial;writing-mode:lr-tb;fill:#14181d;fill-opacity:1;fill-rule:nonzero;stroke:none"
         x="0 21.418686 48.072189 55.206524 71.262695 87.222534 94.356873 112.21623 129.91502"
         y="0"
         id="tspan19">Emissions</tspan></text>
    <path
       id="path20"
       d="m 1276.699,692.602 v 8.511"
       style="fill:none;stroke:#14181d;stroke-width:3.75463;stroke-linecap:round;stroke-linejoin:round;stroke-miterlimit:10;stroke-dasharray:none;stroke-opacity:1"
       transform="scale(1.3318813,1.3333333)" />
    <path
       id="path21"
       d="m 1349.442,692.602 v 8.511"
       style="fill:none;stroke:#14181d;stroke-width:3.75463;stroke-linecap:round;stroke-linejoin:round;stroke-miterlimit:10;stroke-dasharray:none;stroke-opacity:1"
       transform="scale(1.3318813,1.3333333)" />
    <path
       id="path22"
       d="m 1421.966,692.602 v 8.511"
       style="fill:none;stroke:#14181d;stroke-width:3.75463;stroke-linecap:round;stroke-linejoin:round;stroke-miterlimit:10;stroke-dasharray:none;stroke-opacity:1"
       transform="scale(1.3318813,1.3333333)" />
    <text
       id="text22"
       xml:space="preserve"
       transform="matrix(0.94229535,-0.94332245,0.94229535,0.94332245,1562.1762,1023.5905)"><tspan
         style="font-style:italic;font-variant:normal;font-weight:normal;font-size:27.9465px;font-family:Arial;writing-mode:lr-tb;fill:#14181d;fill-opacity:1;fill-rule:nonzero;stroke:none"
         x="0 15.626378 31.280703 46.907082"
         y="0"
         id="tspan22">2025</tspan><tspan
         style="font-style:italic;font-variant:normal;font-weight:normal;font-size:27.9465px;font-family:Arial;writing-mode:lr-tb;fill:#14181d;fill-opacity:1;fill-rule:nonzero;stroke:none"
         x="51.561073 67.187454 82.841774 98.468155"
         y="51.561073"
         id="tspan23">2030</tspan><tspan
         style="font-style:italic;font-variant:normal;font-weight:normal;font-size:27.9465px;font-family:Arial;writing-mode:lr-tb;fill:#14181d;fill-opacity:1;fill-rule:nonzero;stroke:none"
         x="103.12139 118.74777 134.4021 150.02847"
         y="103.12139"
         id="tspan24">2035</tspan><tspan
         style="font-style:italic;font-variant:normal;font-weight:normal;font-size:27.9465px;font-family:Arial;writing-mode:lr-tb;fill:#14181d;fill-opacity:1;fill-rule:nonzero;stroke:none"
         x="154.68242 170.30879 185.96312 201.58949"
         y="154.6824"
         id="tspan25">2040</tspan><tspan
         style="font-style:italic;font-variant:normal;font-weight:normal;font-size:27.9465px;font-family:Arial;writing-mode:lr-tb;fill:#14181d;fill-opacity:1;fill-rule:nonzero;stroke:none"
         x="206.24344 221.86981 237.52414 253.15051"
         y="206.24342"
         id="tspan26">2045</tspan></text>
    <path
       id="path26"
       d="m 1219.684,142.977 c 0,2.535 -7.337,4.585 -16.386,4.585 -9.048,0 -16.385,-2.05 -16.385,-4.585 0,-2.536 7.337,-4.586 16.385,-4.586 9.049,0 16.386,2.05 16.386,4.586 z"
       style="fill:#7a6fac;fill-opacity:1;fill-rule:evenodd;stroke:#000000;stroke-width:1.10136;stroke-linecap:butt;stroke-linejoin:miter;stroke-miterlimit:8;stroke-dasharray:none;stroke-opacity:1"
       transform="scale(1.3318813,1.3333333)" />
    <path
       id="path27"
       d="m 1215.003,154.336 c -0.704,0 -1.174,-0.457 -1.174,-1.148 0,-0.688 0.47,-1.145 1.174,-1.145 0.7,0 1.169,0.457 1.169,1.145 0,0.691 -0.469,1.148 -1.169,1.148 z m -11.705,-4.586 c -9.009,0 -16.385,-2.066 -16.385,-4.59 v 9.176 c 0,2.523 7.376,4.586 16.385,4.586 9.01,0 16.386,-2.063 16.386,-4.586 v -9.176 c 0,2.524 -7.376,4.59 -16.386,4.59 z"
       style="fill:#7a6fac;fill-opacity:1;fill-rule:evenodd;stroke:#000000;stroke-width:1.10136;stroke-linecap:butt;stroke-linejoin:miter;stroke-miterlimit:8;stroke-dasharray:none;stroke-opacity:1"
       transform="scale(1.3318813,1.3333333)" />
    <path
       id="path28"
       d="m 1215.003,165.914 c -0.704,0 -1.174,-0.457 -1.174,-1.148 0,-0.688 0.47,-1.145 1.174,-1.145 0.7,0 1.169,0.457 1.169,1.145 0,0.691 -0.469,1.148 -1.169,1.148 z m -11.705,-4.586 c -9.009,0 -16.385,-2.066 -16.385,-4.59 v 9.176 c 0,2.524 7.376,4.586 16.385,4.586 9.01,0 16.386,-2.062 16.386,-4.586 v -9.176 c 0,2.524 -7.376,4.59 -16.386,4.59 z"
       style="fill:#f7a800;fill-opacity:1;fill-rule:evenodd;stroke:#000000;stroke-width:1.10136;stroke-linecap:butt;stroke-linejoin:miter;stroke-miterlimit:8;stroke-dasharray:none;stroke-opacity:1"
       transform="scale(1.3318813,1.3333333)" />
    <path
       id="path29"
       d="m 1215.003,177.273 c -0.704,0 -1.174,-0.457 -1.174,-1.148 0,-0.687 0.47,-1.145 1.174,-1.145 0.7,0 1.169,0.458 1.169,1.145 0,0.691 -0.469,1.148 -1.169,1.148 z m -11.705,-4.585 c -9.009,0 -16.385,-2.067 -16.385,-4.59 v 9.175 c 0,2.524 7.376,4.586 16.385,4.586 9.01,0 16.386,-2.062 16.386,-4.586 v -9.175 c 0,2.523 -7.376,4.59 -16.386,4.59 z"
       style="fill:#58ab27;fill-opacity:1;fill-rule:evenodd;stroke:#000000;stroke-width:1.10136;stroke-linecap:butt;stroke-linejoin:miter;stroke-miterlimit:8;stroke-dasharray:none;stroke-opacity:1"
       transform="scale(1.3318813,1.3333333)" />
    <path
       id="path30"
       d="m 1291.457,142.977 c 0,2.535 -7.281,4.585 -16.258,4.585 -8.98,0 -16.258,-2.05 -16.258,-4.585 0,-2.536 7.278,-4.586 16.258,-4.586 8.977,0 16.258,2.05 16.258,4.586 z"
       style="fill:#8478be;fill-opacity:1;fill-rule:evenodd;stroke:none"
       transform="scale(1.3333333)" />
    <path
       id="path31"
       d="m 1292.865,142.977 c 0,2.535 -7.289,4.585 -16.276,4.585 -8.986,0 -16.275,-2.05 -16.275,-4.585 0,-2.536 7.289,-4.586 16.275,-4.586 8.987,0 16.276,2.05 16.276,4.586 z"
       style="fill:none;stroke:#000000;stroke-width:1.10136;stroke-linecap:butt;stroke-linejoin:miter;stroke-miterlimit:8;stroke-dasharray:none;stroke-opacity:1"
       transform="scale(1.3318813,1.3333333)" />
    <path
       id="path32"
       d="m 1288.215,154.336 c -0.7,0 -1.165,-0.457 -1.165,-1.148 0,-0.688 0.465,-1.145 1.165,-1.145 0.696,0 1.162,0.457 1.162,1.145 0,0.691 -0.466,1.148 -1.162,1.148 z m -11.626,-4.586 c -8.951,0 -16.275,-2.066 -16.275,-4.59 v 9.176 c 0,2.523 7.324,4.586 16.275,4.586 8.951,0 16.276,-2.063 16.276,-4.586 v -9.176 c 0,2.524 -7.325,4.59 -16.276,4.59 z"
       style="fill:#8478be;fill-opacity:1;fill-rule:evenodd;stroke:#000000;stroke-width:1.10136;stroke-linecap:butt;stroke-linejoin:miter;stroke-miterlimit:8;stroke-dasharray:none;stroke-opacity:1"
       transform="scale(1.3318813,1.3333333)" />
    <path
       id="path33"
       d="m 1288.215,165.914 c -0.7,0 -1.165,-0.457 -1.165,-1.148 0,-0.688 0.465,-1.145 1.165,-1.145 0.696,0 1.162,0.457 1.162,1.145 0,0.691 -0.466,1.148 -1.162,1.148 z m -11.626,-4.586 c -8.951,0 -16.275,-2.066 -16.275,-4.59 v 9.176 c 0,2.524 7.324,4.586 16.275,4.586 8.951,0 16.276,-2.062 16.276,-4.586 v -9.176 c 0,2.524 -7.325,4.59 -16.276,4.59 z"
       style="fill:#fabe4f;fill-opacity:1;fill-rule:evenodd;stroke:#000000;stroke-width:1.10136;stroke-linecap:butt;stroke-linejoin:miter;stroke-miterlimit:8;stroke-dasharray:none;stroke-opacity:1"
       transform="scale(1.3318813,1.3333333)" />
    <path
       id="path34"
       d="m 1288.215,177.273 c -0.7,0 -1.165,-0.457 -1.165,-1.148 0,-0.687 0.465,-1.145 1.165,-1.145 0.696,0 1.162,0.458 1.162,1.145 0,0.691 -0.466,1.148 -1.162,1.148 z m -11.626,-4.585 c -8.951,0 -16.275,-2.067 -16.275,-4.59 v 9.175 c 0,2.524 7.324,4.586 16.275,4.586 8.951,0 16.276,-2.062 16.276,-4.586 v -9.175 c 0,2.523 -7.325,4.59 -16.276,4.59 z"
       style="fill:#88ba5e;fill-opacity:1;fill-rule:evenodd;stroke:#000000;stroke-width:1.10136;stroke-linecap:butt;stroke-linejoin:miter;stroke-miterlimit:8;stroke-dasharray:none;stroke-opacity:1"
       transform="scale(1.3318813,1.3333333)" />
    <path
       id="path35"
       d="m 1366.265,142.977 c 0,2.535 -7.336,4.585 -16.385,4.585 -9.049,0 -16.385,-2.05 -16.385,-4.585 0,-2.536 7.336,-4.586 16.385,-4.586 9.049,0 16.385,2.05 16.385,4.586 z"
       style="fill:#938bbb;fill-opacity:1;fill-rule:evenodd;stroke:#000000;stroke-width:1.10136;stroke-linecap:butt;stroke-linejoin:miter;stroke-miterlimit:8;stroke-dasharray:none;stroke-opacity:1"
       transform="scale(1.3318813,1.3333333)" />
    <path
       id="path36"
       d="m 1360.102,154.336 c -0.704,0 -1.172,-0.457 -1.172,-1.148 0,-0.688 0.468,-1.145 1.172,-1.145 0.699,0 1.168,0.457 1.168,1.145 0,0.691 -0.469,1.148 -1.168,1.148 z m -11.692,-4.586 c -9.004,0 -16.367,-2.066 -16.367,-4.59 v 9.176 c 0,2.523 7.363,4.586 16.367,4.586 9,0 16.367,-2.063 16.367,-4.586 v -9.176 c 0,2.524 -7.367,4.59 -16.367,4.59 z"
       style="fill:#938bbb;fill-opacity:1;fill-rule:evenodd;stroke:none"
       transform="scale(1.3333333)" />
    <path
       id="path37"
       d="m 1361.584,154.336 c -0.704,0 -1.173,-0.457 -1.173,-1.148 0,-0.688 0.469,-1.145 1.173,-1.145 0.7,0 1.169,0.457 1.169,1.145 0,0.691 -0.469,1.148 -1.169,1.148 z m -11.704,-4.586 c -9.01,0 -16.385,-2.066 -16.385,-4.59 v 9.176 c 0,2.523 7.375,4.586 16.385,4.586 9.01,0 16.385,-2.063 16.385,-4.586 v -9.176 c 0,2.524 -7.375,4.59 -16.385,4.59 z"
       style="fill:none;stroke:#000000;stroke-width:1.10136;stroke-linecap:butt;stroke-linejoin:miter;stroke-miterlimit:8;stroke-dasharray:none;stroke-opacity:1"
       transform="scale(1.3318813,1.3333333)" />
    <path
       id="path38"
       d="m 1360.102,165.914 c -0.704,0 -1.172,-0.457 -1.172,-1.148 0,-0.688 0.468,-1.145 1.172,-1.145 0.699,0 1.168,0.457 1.168,1.145 0,0.691 -0.469,1.148 -1.168,1.148 z m -11.692,-4.586 c -9.004,0 -16.367,-2.066 -16.367,-4.59 v 9.176 c 0,2.524 7.363,4.586 16.367,4.586 9,0 16.367,-2.062 16.367,-4.586 v -9.176 c 0,2.524 -7.367,4.59 -16.367,4.59 z"
       style="fill:#ffc553;fill-opacity:1;fill-rule:evenodd;stroke:none"
       transform="scale(1.3333333)" />
    <path
       id="path39"
       d="m 1361.584,165.914 c -0.704,0 -1.173,-0.457 -1.173,-1.148 0,-0.688 0.469,-1.145 1.173,-1.145 0.7,0 1.169,0.457 1.169,1.145 0,0.691 -0.469,1.148 -1.169,1.148 z m -11.704,-4.586 c -9.01,0 -16.385,-2.066 -16.385,-4.59 v 9.176 c 0,2.524 7.375,4.586 16.385,4.586 9.01,0 16.385,-2.062 16.385,-4.586 v -9.176 c 0,2.524 -7.375,4.59 -16.385,4.59 z"
       style="fill:none;stroke:#000000;stroke-width:1.10136;stroke-linecap:butt;stroke-linejoin:miter;stroke-miterlimit:8;stroke-dasharray:none;stroke-opacity:1"
       transform="scale(1.3318813,1.3333333)" />
    <path
       id="path40"
       d="m 1360.102,177.273 c -0.704,0 -1.172,-0.457 -1.172,-1.148 0,-0.687 0.468,-1.145 1.172,-1.145 0.699,0 1.168,0.458 1.168,1.145 0,0.691 -0.469,1.148 -1.168,1.148 z m -11.692,-4.585 c -9.004,0 -16.367,-2.067 -16.367,-4.59 v 9.175 c 0,2.524 7.363,4.586 16.367,4.586 9,0 16.367,-2.062 16.367,-4.586 v -9.175 c 0,2.523 -7.367,4.59 -16.367,4.59 z"
       style="fill:#8dc05f;fill-opacity:1;fill-rule:evenodd;stroke:none"
       transform="scale(1.3333333)" />
    <path
       id="path41"
       d="m 1361.584,177.273 c -0.704,0 -1.173,-0.457 -1.173,-1.148 0,-0.687 0.469,-1.145 1.173,-1.145 0.7,0 1.169,0.458 1.169,1.145 0,0.691 -0.469,1.148 -1.169,1.148 z m -11.704,-4.585 c -9.01,0 -16.385,-2.067 -16.385,-4.59 v 9.175 c 0,2.524 7.375,4.586 16.385,4.586 9.01,0 16.385,-2.062 16.385,-4.586 v -9.175 c 0,2.523 -7.375,4.59 -16.385,4.59 z"
       style="fill:none;stroke:#000000;stroke-width:1.10136;stroke-linecap:butt;stroke-linejoin:miter;stroke-miterlimit:8;stroke-dasharray:none;stroke-opacity:1"
       transform="scale(1.3318813,1.3333333)" />
    <path
       id="path42"
       d="m 1439.446,142.977 c 0,2.535 -7.289,4.585 -16.275,4.585 -8.991,0 -16.276,-2.05 -16.276,-4.585 0,-2.536 7.285,-4.586 16.276,-4.586 8.986,0 16.275,2.05 16.275,4.586 z"
       style="fill:#9b91c2;fill-opacity:1;fill-rule:evenodd;stroke:#000000;stroke-width:1.10136;stroke-linecap:butt;stroke-linejoin:miter;stroke-miterlimit:8;stroke-dasharray:none;stroke-opacity:1"
       transform="scale(1.3318813,1.3333333)" />
    <path
       id="path43"
       d="m 1434.797,154.336 c -0.7,0 -1.166,-0.457 -1.166,-1.148 0,-0.688 0.466,-1.145 1.166,-1.145 0.696,0 1.161,0.457 1.161,1.145 0,0.691 -0.465,1.148 -1.161,1.148 z m -11.626,-4.586 c -8.951,0 -16.276,-2.066 -16.276,-4.59 v 9.176 c 0,2.523 7.325,4.586 16.276,4.586 8.951,0 16.275,-2.063 16.275,-4.586 v -9.176 c 0,2.524 -7.324,4.59 -16.275,4.59 z"
       style="fill:#9b91c2;fill-opacity:1;fill-rule:evenodd;stroke:#000000;stroke-width:1.10136;stroke-linecap:butt;stroke-linejoin:miter;stroke-miterlimit:8;stroke-dasharray:none;stroke-opacity:1"
       transform="scale(1.3318813,1.3333333)" />
    <path
       id="path44"
       d="m 1434.797,165.914 c -0.7,0 -1.166,-0.457 -1.166,-1.148 0,-0.688 0.466,-1.145 1.166,-1.145 0.696,0 1.161,0.457 1.161,1.145 0,0.691 -0.465,1.148 -1.161,1.148 z m -11.626,-4.586 c -8.951,0 -16.276,-2.066 -16.276,-4.59 v 9.176 c 0,2.524 7.325,4.586 16.276,4.586 8.951,0 16.275,-2.062 16.275,-4.586 v -9.176 c 0,2.524 -7.324,4.59 -16.275,4.59 z"
       style="fill:#f4cc8b;fill-opacity:1;fill-rule:evenodd;stroke:#000000;stroke-width:1.10136;stroke-linecap:butt;stroke-linejoin:miter;stroke-miterlimit:8;stroke-dasharray:none;stroke-opacity:1"
       transform="scale(1.3318813,1.3333333)" />
    <path
       id="path45"
       d="m 1434.797,177.273 c -0.7,0 -1.166,-0.457 -1.166,-1.148 0,-0.687 0.466,-1.145 1.166,-1.145 0.696,0 1.161,0.458 1.161,1.145 0,0.691 -0.465,1.148 -1.161,1.148 z m -11.626,-4.585 c -8.951,0 -16.276,-2.067 -16.276,-4.59 v 9.175 c 0,2.524 7.325,4.586 16.276,4.586 8.951,0 16.275,-2.062 16.275,-4.586 v -9.175 c 0,2.523 -7.324,4.59 -16.275,4.59 z"
       style="fill:#a5cb82;fill-opacity:1;fill-rule:evenodd;stroke:#000000;stroke-width:1.10136;stroke-linecap:butt;stroke-linejoin:miter;stroke-miterlimit:8;stroke-dasharray:none;stroke-opacity:1"
       transform="scale(1.3318813,1.3333333)" />
    <path
       id="path46"
       d="m 1512.843,142.977 c 0,2.535 -7.333,4.585 -16.382,4.585 -9.048,0 -16.385,-2.05 -16.385,-4.585 0,-2.536 7.337,-4.586 16.385,-4.586 9.049,0 16.382,2.05 16.382,4.586 z"
       style="fill:#b4a8e1;fill-opacity:1;fill-rule:evenodd;stroke:#000000;stroke-width:1.10136;stroke-linecap:butt;stroke-linejoin:miter;stroke-miterlimit:8;stroke-dasharray:none;stroke-opacity:1"
       transform="scale(1.3318813,1.3333333)" />
    <path
       id="path47"
       d="m 1506.52,154.336 c -0.7,0 -1.168,-0.457 -1.168,-1.148 0,-0.688 0.468,-1.145 1.168,-1.145 0.703,0 1.168,0.457 1.168,1.145 0,0.691 -0.465,1.148 -1.168,1.148 z m -11.688,-4.586 c -9.004,0 -16.367,-2.066 -16.367,-4.59 v 9.176 c 0,2.523 7.363,4.586 16.367,4.586 9,0 16.363,-2.063 16.363,-4.586 v -9.176 c 0,2.524 -7.363,4.59 -16.363,4.59 z"
       style="fill:#b4a8e1;fill-opacity:1;fill-rule:evenodd;stroke:none"
       transform="scale(1.3333333)" />
    <path
       id="path48"
       d="m 1508.162,154.336 c -0.7,0 -1.17,-0.457 -1.17,-1.148 0,-0.688 0.47,-1.145 1.17,-1.145 0.704,0 1.173,0.457 1.173,1.145 0,0.691 -0.469,1.148 -1.173,1.148 z m -11.701,-4.586 c -9.013,0 -16.385,-2.066 -16.385,-4.59 v 9.176 c 0,2.523 7.372,4.586 16.385,4.586 9.01,0 16.382,-2.063 16.382,-4.586 v -9.176 c 0,2.524 -7.372,4.59 -16.382,4.59 z"
       style="fill:none;stroke:#000000;stroke-width:1.10136;stroke-linecap:butt;stroke-linejoin:miter;stroke-miterlimit:8;stroke-dasharray:none;stroke-opacity:1"
       transform="scale(1.3318813,1.3333333)" />
    <path
       id="path49"
       d="m 1506.52,165.914 c -0.7,0 -1.168,-0.457 -1.168,-1.148 0,-0.688 0.468,-1.145 1.168,-1.145 0.703,0 1.168,0.457 1.168,1.145 0,0.691 -0.465,1.148 -1.168,1.148 z m -11.688,-4.586 c -9.004,0 -16.367,-2.066 -16.367,-4.59 v 9.176 c 0,2.524 7.363,4.586 16.367,4.586 9,0 16.363,-2.062 16.363,-4.586 v -9.176 c 0,2.524 -7.363,4.59 -16.363,4.59 z"
       style="fill:#fed48f;fill-opacity:1;fill-rule:evenodd;stroke:none"
       transform="scale(1.3333333)" />
    <path
       id="path50"
       d="m 1508.162,165.914 c -0.7,0 -1.17,-0.457 -1.17,-1.148 0,-0.688 0.47,-1.145 1.17,-1.145 0.704,0 1.173,0.457 1.173,1.145 0,0.691 -0.469,1.148 -1.173,1.148 z m -11.701,-4.586 c -9.013,0 -16.385,-2.066 -16.385,-4.59 v 9.176 c 0,2.524 7.372,4.586 16.385,4.586 9.01,0 16.382,-2.062 16.382,-4.586 v -9.176 c 0,2.524 -7.372,4.59 -16.382,4.59 z"
       style="fill:none;stroke:#000000;stroke-width:1.10136;stroke-linecap:butt;stroke-linejoin:miter;stroke-miterlimit:8;stroke-dasharray:none;stroke-opacity:1"
       transform="scale(1.3318813,1.3333333)" />
    <path
       id="path51"
       d="m 1506.52,177.273 c -0.7,0 -1.168,-0.457 -1.168,-1.148 0,-0.687 0.468,-1.145 1.168,-1.145 0.703,0 1.168,0.458 1.168,1.145 0,0.691 -0.465,1.148 -1.168,1.148 z m -11.688,-4.585 c -9.004,0 -16.367,-2.067 -16.367,-4.59 v 9.175 c 0,2.524 7.363,4.586 16.367,4.586 9,0 16.363,-2.062 16.363,-4.586 v -9.175 c 0,2.523 -7.363,4.59 -16.363,4.59 z"
       style="fill:#c4e3a6;fill-opacity:1;fill-rule:evenodd;stroke:none"
       transform="scale(1.3333333)" />
    <path
       id="path52"
       d="m 1508.162,177.273 c -0.7,0 -1.17,-0.457 -1.17,-1.148 0,-0.687 0.47,-1.145 1.17,-1.145 0.704,0 1.173,0.458 1.173,1.145 0,0.691 -0.469,1.148 -1.173,1.148 z m -11.701,-4.585 c -9.013,0 -16.385,-2.067 -16.385,-4.59 v 9.175 c 0,2.524 7.372,4.586 16.385,4.586 9.01,0 16.382,-2.062 16.382,-4.586 v -9.175 c 0,2.523 -7.372,4.59 -16.382,4.59 z"
       style="fill:none;stroke:#000000;stroke-width:1.10136;stroke-linecap:butt;stroke-linejoin:miter;stroke-miterlimit:8;stroke-dasharray:none;stroke-opacity:1"
       transform="scale(1.3318813,1.3333333)" />
    <text
       id="text52"
       xml:space="preserve"
       transform="matrix(1.3333333,0,0,1.3347867,1562.8649,286.09849)"><tspan
         style="font-style:italic;font-variant:normal;font-weight:normal;font-size:27.9313px;font-family:Arial;writing-mode:lr-tb;fill:#14181d;fill-opacity:1;fill-rule:nonzero;stroke:none"
         x="0 15.617867 31.263666 46.881535 73.504341 89.122215 104.74008 120.38588 146.98076 162.59863 178.24443 193.86229 220.48511 236.10297 251.72084 267.36664 293.96152 309.57938 325.22519 340.84305"
         y="0"
         id="tspan52">20252030203520402045</tspan></text>
    <text
       id="text53"
       xml:space="preserve"
       transform="matrix(1.3333333,0,0,1.3347867,1576.7736,166.38717)"><tspan
         style="font-style:italic;font-variant:normal;font-weight:normal;font-size:32.0774px;font-family:Arial;writing-mode:lr-tb;fill:#14181d;fill-opacity:1;fill-rule:nonzero;stroke:none"
         x="0 17.743681 40.908939 49.821064 58.636955 76.380638 94.124313 103.03644 120.74805"
         y="0"
         id="tspan53">LCI data:</tspan></text>
    <path
       id="path53"
       d="m 1245.957,130.414 h 307.027 v 91.312 h -307.027 z"
       style="fill:#ffffff;fill-opacity:0.8196;fill-rule:nonzero;stroke:none"
       transform="scale(1.3333333)" />
    <path
       id="path54"
       d="m 1205.355,228.219 1.043,5.226 1.192,5.344 1.332,5.414 1.465,5.481 1.601,5.543 1.735,5.605 1.863,5.66 1.992,5.715 2.117,5.766 2.246,5.808 2.368,5.856 2.488,5.89 2.609,5.934 2.727,5.961 2.844,5.992 2.957,6.016 3.07,6.039 3.184,6.062 6.683,12.149 7.109,12.191 7.52,12.199 3.914,6.102 4.008,6.086 4.101,6.07 4.192,6.055 4.289,6.035 4.375,6.012 4.461,5.984 2.773,3.629 c 0.629,0.824 1.809,0.98 2.629,0.352 0.824,-0.629 0.981,-1.809 0.352,-2.633 l -2.746,-3.594 -4.438,-5.949 -4.351,-5.977 -4.262,-6 -4.168,-6.015 -4.074,-6.036 -3.985,-6.046 -3.879,-6.043 -7.472,-12.122 -7.063,-12.113 -6.648,-12.086 -3.16,-6.011 -3.047,-5.997 -2.938,-5.972 -2.82,-5.942 -2.703,-5.914 -2.586,-5.879 -2.469,-5.839 -2.347,-5.801 -2.219,-5.75 -2.102,-5.707 -1.969,-5.653 -1.843,-5.597 -1.711,-5.535 -1.582,-5.473 -1.45,-5.406 -1.312,-5.336 -1.176,-5.258 -1.043,-5.227 c -0.203,-1.015 -1.191,-1.675 -2.207,-1.472 -1.015,0.203 -1.672,1.191 -1.469,2.207 z m 79.051,183.273 16.477,3.742 0.707,-16.902 c 0.043,-1.035 -0.762,-1.91 -1.797,-1.953 -1.035,-0.043 -1.906,0.762 -1.949,1.797 l -0.614,14.648 2.29,-1.75 -14.286,-3.246 c -1.007,-0.23 -2.011,0.406 -2.242,1.418 -0.23,1.008 0.403,2.016 1.414,2.246 z"
       style="fill:#14181d;fill-opacity:1;fill-rule:nonzero;stroke:none"
       transform="scale(1.3333333)" />
    <text
       id="text54"
       xml:space="preserve"
       transform="matrix(1.3333333,0,0,1.3347867,1666.2399,397.07182)"><tspan
         style="font-style:italic;font-variant:normal;font-weight:700;font-size:27.9313px;font-family:Arial;writing-mode:lr-tb;fill:#14181d;fill-opacity:1;fill-rule:nonzero;stroke:none"
         x="0 20.254904 35.872772 52.934341 68.60807 93.443497 101.20371"
         y="0"
         id="tspan54">Dynamic</tspan><tspan
         style="font-style:italic;font-variant:normal;font-weight:700;font-size:27.9313px;font-family:Arial;writing-mode:lr-tb;fill:#14181d;fill-opacity:1;fill-rule:nonzero;stroke:none"
         x="7.751111 24.812679 45.123447"
         y="33.604877"
         id="tspan55">LCA</tspan></text>
    <path
       id="path55"
       d="m 2.252,111.152 c 0,-37.199 30.154,-67.351 67.351,-67.351 h 827.139 c 37.197,0 67.351,30.152 67.351,67.351 v 603.243 c 0,37.199 -30.154,67.351 -67.351,67.351 H 69.603 c -37.197,0 -67.351,-30.152 -67.351,-67.351 z"
       style="fill:#ffffff;fill-opacity:1;fill-rule:evenodd;stroke:#01539e;stroke-width:4.50556;stroke-linecap:butt;stroke-linejoin:round;stroke-miterlimit:10;stroke-dasharray:none;stroke-opacity:1"
       transform="scale(1.3318813,1.3333333)" />
    <text
       id="text55"
       xml:space="preserve"
       transform="matrix(0.94229535,-0.94332245,0.94229535,0.94332245,743.61596,1021.5516)"><tspan
         style="font-style:italic;font-variant:normal;font-weight:normal;font-size:27.9465px;font-family:Arial;writing-mode:lr-tb;fill:#14181d;fill-opacity:1;fill-rule:nonzero;stroke:none"
         x="0 15.626378 31.280703 46.907082"
         y="0"
         id="tspan56">2025</tspan><tspan
         style="font-style:italic;font-variant:normal;font-weight:normal;font-size:27.9465px;font-family:Arial;writing-mode:lr-tb;fill:#14181d;fill-opacity:1;fill-rule:nonzero;stroke:none"
         x="51.561047 67.187424 82.841751 98.468124"
         y="51.561047"
         id="tspan57">2030</tspan><tspan
         style="font-style:italic;font-variant:normal;font-weight:normal;font-size:27.9465px;font-family:Arial;writing-mode:lr-tb;fill:#14181d;fill-opacity:1;fill-rule:nonzero;stroke:none"
         x="103.12209 118.74847 134.4028 150.02917"
         y="103.12209"
         id="tspan58">2035</tspan><tspan
         style="font-style:italic;font-variant:normal;font-weight:normal;font-size:27.9465px;font-family:Arial;writing-mode:lr-tb;fill:#14181d;fill-opacity:1;fill-rule:nonzero;stroke:none"
         x="154.68311 170.30949 185.96382 201.59019"
         y="154.68311"
         id="tspan59">2040</tspan><tspan
         style="font-style:italic;font-variant:normal;font-weight:normal;font-size:27.9465px;font-family:Arial;writing-mode:lr-tb;fill:#14181d;fill-opacity:1;fill-rule:nonzero;stroke:none"
         x="206.24413 221.87051 237.52483 253.15121"
         y="206.24413"
         id="tspan60">2045</tspan></text>
    <path
       id="path60"
       d="M 256.359,23.461 C 256.359,10.504 266.852,0 279.793,0 H 669.57 c 12.946,0 23.434,10.504 23.434,23.461 V 61.52 c 0,12.953 -10.488,23.457 -23.434,23.457 H 279.793 c -12.941,0 -23.434,-10.504 -23.434,-23.457 z"
       style="fill:#01539e;fill-opacity:1;fill-rule:evenodd;stroke:none"
       transform="scale(1.3333333)" />
    <text
       id="text60"
       xml:space="preserve"
       transform="matrix(1.3333333,0,0,1.3347867,404.17628,78.424101)"><tspan
         style="font-variant:normal;font-weight:normal;font-size:44.0791px;font-family:Arial;writing-mode:lr-tb;fill:#ffffff;fill-opacity:1;fill-rule:nonzero;stroke:none"
         x="0 25.25028 35.043251 71.629272 96.143982 110.82267 135.33739 157.24471 181.75941 191.55238 201.21312 223.25269 233.04565 245.29225 257.53885 282.05356 313.70978"
         y="0"
         id="tspan61">Time-explicit LCA</tspan></text>
    <text
       id="text61"
       xml:space="preserve"
       transform="matrix(1.3333333,0,0,1.3347867,758.57536,164.34826)"><tspan
         style="font-style:italic;font-variant:normal;font-weight:normal;font-size:32.0774px;font-family:Arial;writing-mode:lr-tb;fill:#14181d;fill-opacity:1;fill-rule:nonzero;stroke:none"
         x="0 17.743681 40.908939 49.821064 58.636955 76.380638 94.124313 103.03644 120.74805"
         y="0"
         id="tspan62">LCI data:</tspan></text>
    <path
       id="path62"
       d="m 784.417,441.273 h 45.874 v 31.238 h -45.874 z"
       style="fill:#ffe5b2;fill-opacity:1;fill-rule:nonzero;stroke:#14181d;stroke-width:2.20272;stroke-linecap:butt;stroke-linejoin:round;stroke-miterlimit:10;stroke-dasharray:none;stroke-opacity:1"
       transform="scale(1.3318813,1.3333333)" />
    <text
       id="text62"
       xml:space="preserve"
       transform="matrix(0,-1.3333333,1.3318815,0,1084.1817,627.46519)"><tspan
         style="font-variant:normal;font-weight:normal;font-size:18.1315px;font-family:Arial;writing-mode:lr-tb;fill:#14181d;fill-opacity:1;fill-rule:nonzero;stroke:none"
         x="0 11.516524 19.022951"
         y="0"
         id="tspan63">Use</tspan></text>
    <path
       id="path63"
       d="m 834.006,441.488 25.602,0.004"
       style="fill:none;stroke:#7f7f7f;stroke-width:2.20272;stroke-linecap:butt;stroke-linejoin:round;stroke-miterlimit:10;stroke-dasharray:8.81087, 6.60815;stroke-dashoffset:0;stroke-opacity:1"
       transform="scale(1.3318813,1.3333333)" />
    <path
       id="path64"
       d="m 756.456,471.855 h 25.603"
       style="fill:none;stroke:#7f7f7f;stroke-width:2.20272;stroke-linecap:butt;stroke-linejoin:round;stroke-miterlimit:10;stroke-dasharray:8.81087, 6.60815;stroke-dashoffset:0;stroke-opacity:1"
       transform="scale(1.3318813,1.3333333)" />
    <path
       id="path65"
       d="m 682.837,519.914 h 35.77"
       style="fill:none;stroke:#7f7f7f;stroke-width:2.20272;stroke-linecap:butt;stroke-linejoin:round;stroke-miterlimit:10;stroke-dasharray:8.81087, 6.60815;stroke-dashoffset:0;stroke-opacity:1"
       transform="scale(1.3318813,1.3333333)" />
    <path
       id="path66"
       d="m 609.218,588.508 h 35.773"
       style="fill:none;stroke:#7f7f7f;stroke-width:2.20272;stroke-linecap:butt;stroke-linejoin:round;stroke-miterlimit:10;stroke-dasharray:8.81087, 6.60815;stroke-dashoffset:0;stroke-opacity:1"
       transform="scale(1.3318813,1.3333333)" />
    <path
       id="path67"
       d="m 638.93,519.914 h 45.874 v 68.812 H 638.93 Z"
       style="fill:#fabe4f;fill-opacity:1;fill-rule:nonzero;stroke:#14181d;stroke-width:2.20272;stroke-linecap:butt;stroke-linejoin:round;stroke-miterlimit:10;stroke-dasharray:none;stroke-opacity:1"
       transform="scale(1.3318813,1.3333333)" />
    <text
       id="text67"
       xml:space="preserve"
       transform="matrix(0,-1.3333333,1.3318815,0,895.53698,772.51685)"><tspan
         style="font-variant:normal;font-weight:normal;font-size:27.9618px;font-family:Arial;writing-mode:lr-tb;fill:#14181d;fill-opacity:1;fill-rule:nonzero;stroke:none"
         x="0 20.276983 34.25787"
         y="0"
         id="tspan67">Use</tspan></text>
    <path
       id="path68"
       d="m 711.892,471.855 h 45.874 v 48.059 h -45.874 z"
       style="fill:#ffd48f;fill-opacity:1;fill-rule:nonzero;stroke:#14181d;stroke-width:2.20272;stroke-linecap:butt;stroke-linejoin:round;stroke-miterlimit:10;stroke-dasharray:none;stroke-opacity:1"
       transform="scale(1.3318813,1.3333333)" />
    <text
       id="text68"
       xml:space="preserve"
       transform="matrix(0,-1.3333333,1.3318815,0,991.28555,685.42765)"><tspan
         style="font-variant:normal;font-weight:normal;font-stretch:condensed;font-size:25.1219px;font-family:'Arial Narrow';writing-mode:lr-tb;fill:#14181d;fill-opacity:1;fill-rule:nonzero;stroke:none"
         x="0 14.766578 25.070484"
         y="0"
         id="tspan68">Use</tspan></text>
    <path
       id="path69"
       d="m 589.669,691.289 v 8.516"
       style="fill:none;stroke:#14181d;stroke-width:3.75463;stroke-linecap:round;stroke-linejoin:round;stroke-miterlimit:10;stroke-dasharray:none;stroke-opacity:1"
       transform="scale(1.3318813,1.3333333)" />
    <path
       id="path70"
       d="m 879.989,691.289 v 8.516"
       style="fill:none;stroke:#14181d;stroke-width:3.75463;stroke-linecap:round;stroke-linejoin:round;stroke-miterlimit:10;stroke-dasharray:none;stroke-opacity:1"
       transform="scale(1.3318813,1.3333333)" />
    <path
       id="path71"
       d="m 566.621,588.727 h 45.874 v 102.016 h -45.874 z"
       style="fill:#58ab27;fill-opacity:1;fill-rule:nonzero;stroke:#14181d;stroke-width:2.20272;stroke-linecap:butt;stroke-linejoin:round;stroke-miterlimit:10;stroke-dasharray:none;stroke-opacity:1"
       transform="scale(1.3318813,1.3333333)" />
    <text
       id="text71"
       xml:space="preserve"
       transform="matrix(0,-1.3333333,1.3318815,0,799.21899,897.76232)"><tspan
         style="font-variant:normal;font-weight:normal;font-size:27.9618px;font-family:Arial;writing-mode:lr-tb;fill:#14181d;fill-opacity:1;fill-rule:nonzero;stroke:none"
         x="0 18.650286 28.04566 43.708511 59.427288"
         y="0"
         id="tspan71">Prod.</tspan></text>
    <path
       id="path72"
       d="M 537.309,688.977 H 928.57 v 3.753 H 537.309 Z m 380.953,-6.317 14.027,8.192 -14.027,8.191 c -0.895,0.523 -2.043,0.223 -2.567,-0.676 -0.519,-0.894 -0.218,-2.043 0.676,-2.566 l 11.254,-6.571 v 3.243 l -11.254,-6.571 c -0.894,-0.519 -1.195,-1.672 -0.676,-2.566 0.524,-0.895 1.672,-1.199 2.567,-0.676 z"
       style="fill:#14181d;fill-opacity:1;fill-rule:nonzero;stroke:none"
       transform="scale(1.3333333)" />
    <path
       id="path73"
       d="M 539.184,691.824 V 254.172 h -3.75 v 437.652 z m 6.308,-427.336 -8.183,-14.043 -8.184,14.043 c -0.52,0.899 -0.219,2.047 0.676,2.571 0.894,0.519 2.043,0.218 2.566,-0.676 l 6.563,-11.266 h -3.239 l 6.563,11.266 c 0.523,0.894 1.668,1.195 2.562,0.676 0.899,-0.524 1.2,-1.672 0.676,-2.571 z"
       style="fill:#14181d;fill-opacity:1;fill-rule:nonzero;stroke:none"
       transform="scale(1.3333333)" />
    <text
       id="text73"
       xml:space="preserve"
       transform="matrix(0,-1.3333333,1.3318815,0,699.2378,724.45755)"><tspan
         style="font-variant:normal;font-weight:normal;font-size:32.1124px;font-family:Arial;writing-mode:lr-tb;fill:#14181d;fill-opacity:1;fill-rule:nonzero;stroke:none"
         x="0 21.418686 48.072189 55.206524 71.262695 87.222534 94.356873 112.21623 129.91502"
         y="0"
         id="tspan73">Emissions</tspan></text>
    <path
       id="path74"
       d="m 661.975,691.289 v 8.516"
       style="fill:none;stroke:#14181d;stroke-width:3.75463;stroke-linecap:round;stroke-linejoin:round;stroke-miterlimit:10;stroke-dasharray:none;stroke-opacity:1"
       transform="scale(1.3318813,1.3333333)" />
    <path
       id="path75"
       d="m 734.937,691.289 v 8.516"
       style="fill:none;stroke:#14181d;stroke-width:3.75463;stroke-linecap:round;stroke-linejoin:round;stroke-miterlimit:10;stroke-dasharray:none;stroke-opacity:1"
       transform="scale(1.3318813,1.3333333)" />
    <path
       id="path76"
       d="m 807.465,691.289 v 8.516"
       style="fill:none;stroke:#14181d;stroke-width:3.75463;stroke-linecap:round;stroke-linejoin:round;stroke-miterlimit:10;stroke-dasharray:none;stroke-opacity:1"
       transform="scale(1.3318813,1.3333333)" />
    <path
       id="path77"
       d="m 604.959,141.449 c 0,2.531 -7.336,4.586 -16.385,4.586 -9.045,0 -16.381,-2.055 -16.381,-4.586 0,-2.535 7.336,-4.59 16.381,-4.59 9.049,0 16.385,2.055 16.385,4.59 z"
       style="fill:#7a6fac;fill-opacity:1;fill-rule:evenodd;stroke:#000000;stroke-width:1.10136;stroke-linecap:butt;stroke-linejoin:miter;stroke-miterlimit:8;stroke-dasharray:none;stroke-opacity:1"
       transform="scale(1.3318813,1.3333333)" />
    <path
       id="path78"
       d="m 600.279,152.809 c -0.7,0 -1.17,-0.461 -1.17,-1.149 0,-0.687 0.47,-1.148 1.17,-1.148 0.704,0 1.169,0.461 1.169,1.148 0,0.688 -0.465,1.149 -1.169,1.149 z m -11.705,-4.59 c -9.009,0 -16.381,-2.063 -16.381,-4.586 v 9.176 c 0,2.519 7.372,4.586 16.381,4.586 9.014,0 16.385,-2.067 16.385,-4.586 v -9.176 c 0,2.523 -7.371,4.586 -16.385,4.586 z"
       style="fill:#7a6fac;fill-opacity:1;fill-rule:evenodd;stroke:#000000;stroke-width:1.10136;stroke-linecap:butt;stroke-linejoin:miter;stroke-miterlimit:8;stroke-dasharray:none;stroke-opacity:1"
       transform="scale(1.3318813,1.3333333)" />
    <path
       id="path79"
       d="m 600.279,164.383 c -0.7,0 -1.17,-0.457 -1.17,-1.145 0,-0.687 0.47,-1.148 1.17,-1.148 0.704,0 1.169,0.461 1.169,1.148 0,0.688 -0.465,1.145 -1.169,1.145 z m -11.705,-4.586 c -9.009,0 -16.381,-2.063 -16.381,-4.586 v 9.172 c 0,2.523 7.372,4.59 16.381,4.59 9.014,0 16.385,-2.067 16.385,-4.59 v -9.172 c 0,2.523 -7.371,4.586 -16.385,4.586 z"
       style="fill:#f7a800;fill-opacity:1;fill-rule:evenodd;stroke:#000000;stroke-width:1.10136;stroke-linecap:butt;stroke-linejoin:miter;stroke-miterlimit:8;stroke-dasharray:none;stroke-opacity:1"
       transform="scale(1.3318813,1.3333333)" />
    <path
       id="path80"
       d="m 600.279,175.891 c -0.7,0 -1.17,-0.469 -1.17,-1.164 0,-0.7 0.47,-1.168 1.17,-1.168 0.704,0 1.169,0.468 1.169,1.168 0,0.695 -0.465,1.164 -1.169,1.164 z m -11.705,-4.661 c -9.009,0 -16.381,-2.097 -16.381,-4.66 v 9.321 c 0,2.562 7.372,4.66 16.381,4.66 9.014,0 16.385,-2.098 16.385,-4.66 v -9.321 c 0,2.563 -7.371,4.66 -16.385,4.66 z"
       style="fill:#58ab27;fill-opacity:1;fill-rule:evenodd;stroke:#000000;stroke-width:1.10136;stroke-linecap:butt;stroke-linejoin:miter;stroke-miterlimit:8;stroke-dasharray:none;stroke-opacity:1"
       transform="scale(1.3318813,1.3333333)" />
    <path
       id="path81"
       d="m 678.36,141.449 c 0,2.531 -7.336,4.586 -16.385,4.586 -9.049,0 -16.381,-2.055 -16.381,-4.586 0,-2.535 7.332,-4.59 16.381,-4.59 9.049,0 16.385,2.055 16.385,4.59 z"
       style="fill:#8478be;fill-opacity:1;fill-rule:evenodd;stroke:#000000;stroke-width:1.10136;stroke-linecap:butt;stroke-linejoin:miter;stroke-miterlimit:8;stroke-dasharray:none;stroke-opacity:1"
       transform="scale(1.3318813,1.3333333)" />
    <path
       id="path82"
       d="m 673.679,152.809 c -0.704,0 -1.169,-0.461 -1.169,-1.149 0,-0.687 0.465,-1.148 1.169,-1.148 0.704,0 1.169,0.461 1.169,1.148 0,0.688 -0.465,1.149 -1.169,1.149 z m -11.704,-4.59 c -9.01,0 -16.381,-2.063 -16.381,-4.586 v 9.176 c 0,2.519 7.371,4.586 16.381,4.586 9.013,0 16.385,-2.067 16.385,-4.586 v -9.176 c 0,2.523 -7.372,4.586 -16.385,4.586 z"
       style="fill:#8478be;fill-opacity:1;fill-rule:evenodd;stroke:#000000;stroke-width:1.10136;stroke-linecap:butt;stroke-linejoin:miter;stroke-miterlimit:8;stroke-dasharray:none;stroke-opacity:1"
       transform="scale(1.3318813,1.3333333)" />
    <path
       id="path83"
       d="m 673.679,164.383 c -0.704,0 -1.169,-0.457 -1.169,-1.145 0,-0.687 0.465,-1.148 1.169,-1.148 0.704,0 1.169,0.461 1.169,1.148 0,0.688 -0.465,1.145 -1.169,1.145 z m -11.704,-4.586 c -9.01,0 -16.381,-2.063 -16.381,-4.586 v 9.172 c 0,2.523 7.371,4.59 16.381,4.59 9.013,0 16.385,-2.067 16.385,-4.59 v -9.172 c 0,2.523 -7.372,4.586 -16.385,4.586 z"
       style="fill:#fabe4f;fill-opacity:1;fill-rule:evenodd;stroke:#000000;stroke-width:1.10136;stroke-linecap:butt;stroke-linejoin:miter;stroke-miterlimit:8;stroke-dasharray:none;stroke-opacity:1"
       transform="scale(1.3318813,1.3333333)" />
    <path
       id="path84"
       d="m 673.679,175.891 c -0.704,0 -1.169,-0.469 -1.169,-1.164 0,-0.7 0.465,-1.168 1.169,-1.168 0.704,0 1.169,0.468 1.169,1.168 0,0.695 -0.465,1.164 -1.169,1.164 z m -11.704,-4.661 c -9.01,0 -16.381,-2.097 -16.381,-4.66 v 9.321 c 0,2.562 7.371,4.66 16.381,4.66 9.013,0 16.385,-2.098 16.385,-4.66 v -9.321 c 0,2.563 -7.372,4.66 -16.385,4.66 z"
       style="fill:#88ba5e;fill-opacity:1;fill-rule:evenodd;stroke:#000000;stroke-width:1.10136;stroke-linecap:butt;stroke-linejoin:miter;stroke-miterlimit:8;stroke-dasharray:none;stroke-opacity:1"
       transform="scale(1.3318813,1.3333333)" />
    <path
       id="path85"
       d="m 751.541,141.449 c 0,2.531 -7.285,4.586 -16.276,4.586 -8.986,0 -16.275,-2.055 -16.275,-4.586 0,-2.535 7.289,-4.59 16.275,-4.59 8.991,0 16.276,2.055 16.276,4.59 z"
       style="fill:#938bbb;fill-opacity:1;fill-rule:evenodd;stroke:#000000;stroke-width:1.10136;stroke-linecap:butt;stroke-linejoin:miter;stroke-miterlimit:8;stroke-dasharray:none;stroke-opacity:1"
       transform="scale(1.3318813,1.3333333)" />
    <path
       id="path86"
       d="m 746.891,152.809 c -0.696,0 -1.161,-0.461 -1.161,-1.149 0,-0.687 0.465,-1.148 1.161,-1.148 0.696,0 1.162,0.461 1.162,1.148 0,0.688 -0.466,1.149 -1.162,1.149 z m -11.626,-4.59 c -8.951,0 -16.275,-2.063 -16.275,-4.586 v 9.176 c 0,2.519 7.324,4.586 16.275,4.586 8.952,0 16.276,-2.067 16.276,-4.586 v -9.176 c 0,2.523 -7.324,4.586 -16.276,4.586 z"
       style="fill:#938bbb;fill-opacity:1;fill-rule:evenodd;stroke:#000000;stroke-width:1.10136;stroke-linecap:butt;stroke-linejoin:miter;stroke-miterlimit:8;stroke-dasharray:none;stroke-opacity:1"
       transform="scale(1.3318813,1.3333333)" />
    <path
       id="path87"
       d="m 746.891,164.383 c -0.696,0 -1.161,-0.457 -1.161,-1.145 0,-0.687 0.465,-1.148 1.161,-1.148 0.696,0 1.162,0.461 1.162,1.148 0,0.688 -0.466,1.145 -1.162,1.145 z m -11.626,-4.586 c -8.951,0 -16.275,-2.063 -16.275,-4.586 v 9.172 c 0,2.523 7.324,4.59 16.275,4.59 8.952,0 16.276,-2.067 16.276,-4.59 v -9.172 c 0,2.523 -7.324,4.586 -16.276,4.586 z"
       style="fill:#ffc553;fill-opacity:1;fill-rule:evenodd;stroke:#000000;stroke-width:1.10136;stroke-linecap:butt;stroke-linejoin:miter;stroke-miterlimit:8;stroke-dasharray:none;stroke-opacity:1"
       transform="scale(1.3318813,1.3333333)" />
    <path
       id="path88"
       d="m 746.891,175.891 c -0.696,0 -1.161,-0.469 -1.161,-1.164 0,-0.7 0.465,-1.168 1.161,-1.168 0.696,0 1.162,0.468 1.162,1.168 0,0.695 -0.466,1.164 -1.162,1.164 z m -11.626,-4.661 c -8.951,0 -16.275,-2.097 -16.275,-4.66 v 9.321 c 0,2.562 7.324,4.66 16.275,4.66 8.952,0 16.276,-2.098 16.276,-4.66 v -9.321 c 0,2.563 -7.324,4.66 -16.276,4.66 z"
       style="fill:#8dc05f;fill-opacity:1;fill-rule:evenodd;stroke:#000000;stroke-width:1.10136;stroke-linecap:butt;stroke-linejoin:miter;stroke-miterlimit:8;stroke-dasharray:none;stroke-opacity:1"
       transform="scale(1.3318813,1.3333333)" />
    <path
       id="path89"
       d="m 824.941,141.449 c 0,2.531 -7.336,4.586 -16.385,4.586 -9.049,0 -16.385,-2.055 -16.385,-4.586 0,-2.535 7.336,-4.59 16.385,-4.59 9.049,0 16.385,2.055 16.385,4.59 z"
       style="fill:#9b91c2;fill-opacity:1;fill-rule:evenodd;stroke:#000000;stroke-width:1.10136;stroke-linecap:butt;stroke-linejoin:miter;stroke-miterlimit:8;stroke-dasharray:none;stroke-opacity:1"
       transform="scale(1.3318813,1.3333333)" />
    <path
       id="path90"
       d="m 819.367,152.809 c -0.703,0 -1.168,-0.461 -1.168,-1.149 0,-0.687 0.465,-1.148 1.168,-1.148 0.699,0 1.168,0.461 1.168,1.148 0,0.688 -0.469,1.149 -1.168,1.149 z m -11.691,-4.59 c -9,0 -16.367,-2.063 -16.367,-4.586 v 9.176 c 0,2.519 7.367,4.586 16.367,4.586 9.004,0 16.367,-2.067 16.367,-4.586 v -9.176 c 0,2.523 -7.363,4.586 -16.367,4.586 z"
       style="fill:#9b91c2;fill-opacity:1;fill-rule:evenodd;stroke:none"
       transform="scale(1.3333333)" />
    <path
       id="path91"
       d="m 820.26,152.809 c -0.704,0 -1.169,-0.461 -1.169,-1.149 0,-0.687 0.465,-1.148 1.169,-1.148 0.7,0 1.17,0.461 1.17,1.148 0,0.688 -0.47,1.149 -1.17,1.149 z m -11.704,-4.59 c -9.01,0 -16.385,-2.063 -16.385,-4.586 v 9.176 c 0,2.519 7.375,4.586 16.385,4.586 9.01,0 16.385,-2.067 16.385,-4.586 v -9.176 c 0,2.523 -7.375,4.586 -16.385,4.586 z"
       style="fill:none;stroke:#000000;stroke-width:1.10136;stroke-linecap:butt;stroke-linejoin:miter;stroke-miterlimit:8;stroke-dasharray:none;stroke-opacity:1"
       transform="scale(1.3318813,1.3333333)" />
    <path
       id="path92"
       d="m 819.367,164.383 c -0.703,0 -1.168,-0.457 -1.168,-1.145 0,-0.687 0.465,-1.148 1.168,-1.148 0.699,0 1.168,0.461 1.168,1.148 0,0.688 -0.469,1.145 -1.168,1.145 z m -11.691,-4.586 c -9,0 -16.367,-2.063 -16.367,-4.586 v 9.172 c 0,2.523 7.367,4.59 16.367,4.59 9.004,0 16.367,-2.067 16.367,-4.59 v -9.172 c 0,2.523 -7.363,4.586 -16.367,4.586 z"
       style="fill:#f4cc8b;fill-opacity:1;fill-rule:evenodd;stroke:none"
       transform="scale(1.3333333)" />
    <path
       id="path93"
       d="m 820.26,164.383 c -0.704,0 -1.169,-0.457 -1.169,-1.145 0,-0.687 0.465,-1.148 1.169,-1.148 0.7,0 1.17,0.461 1.17,1.148 0,0.688 -0.47,1.145 -1.17,1.145 z m -11.704,-4.586 c -9.01,0 -16.385,-2.063 -16.385,-4.586 v 9.172 c 0,2.523 7.375,4.59 16.385,4.59 9.01,0 16.385,-2.067 16.385,-4.59 v -9.172 c 0,2.523 -7.375,4.586 -16.385,4.586 z"
       style="fill:none;stroke:#000000;stroke-width:1.10136;stroke-linecap:butt;stroke-linejoin:miter;stroke-miterlimit:8;stroke-dasharray:none;stroke-opacity:1"
       transform="scale(1.3318813,1.3333333)" />
    <path
       id="path94"
       d="m 819.367,175.891 c -0.703,0 -1.168,-0.469 -1.168,-1.164 0,-0.7 0.465,-1.168 1.168,-1.168 0.699,0 1.168,0.468 1.168,1.168 0,0.695 -0.469,1.164 -1.168,1.164 z m -11.691,-4.661 c -9,0 -16.367,-2.097 -16.367,-4.66 v 9.321 c 0,2.562 7.367,4.66 16.367,4.66 9.004,0 16.367,-2.098 16.367,-4.66 v -9.321 c 0,2.563 -7.363,4.66 -16.367,4.66 z"
       style="fill:#a5cb82;fill-opacity:1;fill-rule:evenodd;stroke:none"
       transform="scale(1.3333333)" />
    <path
       id="path95"
       d="m 820.26,175.891 c -0.704,0 -1.169,-0.469 -1.169,-1.164 0,-0.7 0.465,-1.168 1.169,-1.168 0.7,0 1.17,0.468 1.17,1.168 0,0.695 -0.47,1.164 -1.17,1.164 z m -11.704,-4.661 c -9.01,0 -16.385,-2.097 -16.385,-4.66 v 9.321 c 0,2.562 7.375,4.66 16.385,4.66 9.01,0 16.385,-2.098 16.385,-4.66 v -9.321 c 0,2.563 -7.375,4.66 -16.385,4.66 z"
       style="fill:none;stroke:#000000;stroke-width:1.10136;stroke-linecap:butt;stroke-linejoin:miter;stroke-miterlimit:8;stroke-dasharray:none;stroke-opacity:1"
       transform="scale(1.3318813,1.3333333)" />
    <path
       id="path96"
       d="m 898.341,141.449 c 0,2.531 -7.336,4.586 -16.385,4.586 -9.049,0 -16.385,-2.055 -16.385,-4.586 0,-2.535 7.336,-4.59 16.385,-4.59 9.049,0 16.385,2.055 16.385,4.59 z"
       style="fill:#b4a8e1;fill-opacity:1;fill-rule:evenodd;stroke:#000000;stroke-width:1.10136;stroke-linecap:butt;stroke-linejoin:miter;stroke-miterlimit:8;stroke-dasharray:none;stroke-opacity:1"
       transform="scale(1.3318813,1.3333333)" />
    <path
       id="path97"
       d="m 893.661,152.809 c -0.704,0 -1.174,-0.461 -1.174,-1.149 0,-0.687 0.47,-1.148 1.174,-1.148 0.7,0 1.169,0.461 1.169,1.148 0,0.688 -0.469,1.149 -1.169,1.149 z m -11.705,-4.59 c -9.009,0 -16.385,-2.063 -16.385,-4.586 v 9.176 c 0,2.519 7.376,4.586 16.385,4.586 9.01,0 16.385,-2.067 16.385,-4.586 v -9.176 c 0,2.523 -7.375,4.586 -16.385,4.586 z"
       style="fill:#b4a8e1;fill-opacity:1;fill-rule:evenodd;stroke:#000000;stroke-width:1.10136;stroke-linecap:butt;stroke-linejoin:miter;stroke-miterlimit:8;stroke-dasharray:none;stroke-opacity:1"
       transform="scale(1.3318813,1.3333333)" />
    <path
       id="path98"
       d="m 893.661,164.383 c -0.704,0 -1.174,-0.457 -1.174,-1.145 0,-0.687 0.47,-1.148 1.174,-1.148 0.7,0 1.169,0.461 1.169,1.148 0,0.688 -0.469,1.145 -1.169,1.145 z m -11.705,-4.586 c -9.009,0 -16.385,-2.063 -16.385,-4.586 v 9.172 c 0,2.523 7.376,4.59 16.385,4.59 9.01,0 16.385,-2.067 16.385,-4.59 v -9.172 c 0,2.523 -7.375,4.586 -16.385,4.586 z"
       style="fill:#fed48f;fill-opacity:1;fill-rule:evenodd;stroke:#000000;stroke-width:1.10136;stroke-linecap:butt;stroke-linejoin:miter;stroke-miterlimit:8;stroke-dasharray:none;stroke-opacity:1"
       transform="scale(1.3318813,1.3333333)" />
    <path
       id="path99"
       d="m 893.661,175.891 c -0.704,0 -1.174,-0.469 -1.174,-1.164 0,-0.7 0.47,-1.168 1.174,-1.168 0.7,0 1.169,0.468 1.169,1.168 0,0.695 -0.469,1.164 -1.169,1.164 z m -11.705,-4.661 c -9.009,0 -16.385,-2.097 -16.385,-4.66 v 9.321 c 0,2.562 7.376,4.66 16.385,4.66 9.01,0 16.385,-2.098 16.385,-4.66 v -9.321 c 0,2.563 -7.375,4.66 -16.385,4.66 z"
       style="fill:#c4e3a6;fill-opacity:1;fill-rule:evenodd;stroke:#000000;stroke-width:1.10136;stroke-linecap:butt;stroke-linejoin:miter;stroke-miterlimit:8;stroke-dasharray:none;stroke-opacity:1"
       transform="scale(1.3318813,1.3333333)" />
    <text
       id="text99"
       xml:space="preserve"
       transform="matrix(1.3333333,0,0,1.3347867,744.30555,284.05971)"><tspan
         style="font-style:italic;font-variant:normal;font-weight:normal;font-size:27.9313px;font-family:Arial;writing-mode:lr-tb;fill:#14181d;fill-opacity:1;fill-rule:nonzero;stroke:none"
         x="0 15.617867 31.263666 46.881535 73.504341 89.122215 104.74008 120.38588 146.98076 162.59863 178.24443 193.86229 220.48511 236.10297 251.72084 267.36664 293.96152 309.57938 325.22519 340.84305"
         y="0"
         id="tspan99">20252030203520402045</tspan></text>
    <path
       id="path100"
       d="m 856.945,403.918 h 45.874 v 37.57 h -45.874 z"
       style="fill:#bcb5d7;fill-opacity:1;fill-rule:nonzero;stroke:#14181d;stroke-width:2.20272;stroke-linecap:butt;stroke-linejoin:round;stroke-miterlimit:10;stroke-dasharray:none;stroke-opacity:1"
       transform="scale(1.3318813,1.3333333)" />
    <text
       id="text100"
       xml:space="preserve"
       transform="matrix(0,-1.3333333,1.3318815,0,1182.0919,585.52251)"><tspan
         style="font-variant:normal;font-weight:normal;font-stretch:condensed;font-size:20.0975px;font-family:'Arial Narrow';writing-mode:lr-tb;fill:#14181d;fill-opacity:1;fill-rule:nonzero;stroke:none"
         x="0 10.990834 23.816744"
         y="0"
         id="tspan100">EOL</tspan></text>
    <path
       id="path101"
       d="m 588.938,228.82 1.562,350.996 c 0.004,1.039 -0.832,1.883 -1.867,1.887 -1.035,0.004 -1.879,-0.832 -1.883,-1.867 l -1.562,-351 c -0.004,-1.035 0.832,-1.879 1.867,-1.887 1.035,-0.004 1.879,0.832 1.883,1.871 z m 7.824,340.653 -8.121,14.078 -8.246,-14.008 c -0.528,-0.891 -0.231,-2.043 0.664,-2.57 0.89,-0.524 2.043,-0.227 2.566,0.664 l 6.613,11.238 -3.238,0.012 6.512,-11.293 c 0.519,-0.899 1.664,-1.203 2.562,-0.688 0.899,0.52 1.203,1.668 0.688,2.567 z"
       style="fill:#14181d;fill-opacity:1;fill-rule:nonzero;stroke:none"
       transform="scale(1.3333333)" />
    <path
       id="path102"
       d="m 662.914,228.828 v 281.91 c 0,1.035 -0.84,1.875 -1.879,1.875 -1.035,0 -1.875,-0.84 -1.875,-1.875 v -281.91 c 0,-1.039 0.84,-1.879 1.875,-1.879 1.039,0 1.879,0.84 1.879,1.879 z m 6.305,271.59 -8.184,14.047 -8.18,-14.047 c -0.523,-0.895 -0.222,-2.043 0.672,-2.566 0.895,-0.524 2.043,-0.219 2.567,0.675 l 6.562,11.266 h -3.238 l 6.562,-11.266 c 0.524,-0.894 1.672,-1.199 2.567,-0.675 0.894,0.523 1.195,1.671 0.672,2.566 z"
       style="fill:#14181d;fill-opacity:1;fill-rule:nonzero;stroke:none"
       transform="scale(1.3333333)" />
    <path
       id="path103"
       d="M 735.578,228.828 V 461.68 c 0,1.035 -0.84,1.879 -1.875,1.879 -1.035,0 -1.875,-0.844 -1.875,-1.879 V 228.828 c 0,-1.039 0.84,-1.879 1.875,-1.879 1.035,0 1.875,0.84 1.875,1.879 z m 6.309,222.531 -8.184,14.047 -8.183,-14.047 c -0.524,-0.894 -0.219,-2.043 0.675,-2.566 0.895,-0.523 2.043,-0.219 2.563,0.676 l 6.562,11.265 h -3.238 l 6.563,-11.265 c 0.523,-0.895 1.671,-1.199 2.566,-0.676 0.894,0.523 1.195,1.672 0.676,2.566 z"
       style="fill:#14181d;fill-opacity:1;fill-rule:nonzero;stroke:none"
       transform="scale(1.3333333)" />
    <path
       id="path104"
       d="m 808.023,228.828 v 203.957 c 0,1.035 -0.839,1.875 -1.875,1.875 -1.035,0 -1.875,-0.84 -1.875,-1.875 V 228.828 c 0,-1.039 0.84,-1.879 1.875,-1.879 1.036,0 1.875,0.84 1.875,1.879 z m 6.309,193.637 -8.184,14.047 -8.183,-14.047 c -0.52,-0.895 -0.219,-2.043 0.676,-2.567 0.894,-0.523 2.043,-0.218 2.566,0.676 l 6.563,11.266 h -3.243 l 6.567,-11.266 c 0.519,-0.894 1.668,-1.199 2.562,-0.676 0.895,0.524 1.199,1.672 0.676,2.567 z"
       style="fill:#14181d;fill-opacity:1;fill-rule:nonzero;stroke:none"
       transform="scale(1.3333333)" />
    <path
       id="path105"
       d="m 879.816,228.828 v 166.438 c 0,1.039 -0.839,1.879 -1.875,1.879 -1.035,0 -1.875,-0.84 -1.875,-1.879 V 228.828 c 0,-1.039 0.84,-1.879 1.875,-1.879 1.036,0 1.875,0.84 1.875,1.879 z m 6.309,156.121 -8.184,14.043 -8.183,-14.043 c -0.524,-0.894 -0.219,-2.047 0.676,-2.566 0.894,-0.524 2.043,-0.223 2.562,0.672 l 6.566,11.265 h -3.242 l 6.567,-11.265 c 0.519,-0.895 1.668,-1.196 2.562,-0.672 0.895,0.519 1.196,1.672 0.676,2.566 z"
       style="fill:#14181d;fill-opacity:1;fill-rule:nonzero;stroke:none"
       transform="scale(1.3333333)" />
    <text
       id="text105"
       xml:space="preserve"
       transform="matrix(1.3333333,0,0,1.3347867,45.115515,274.44785)"><tspan
         style="font-variant:normal;font-weight:normal;font-size:36.0052px;font-family:Arial;writing-mode:lr-tb;fill:#14181d;fill-opacity:1;fill-rule:nonzero;stroke:none"
         x="0 24.015205 42.017818 60.020432 80.044823 100.06921 120.09361 130.09702 138.09622 158.01259 178.03699 188.04039 198.04379 218.06819 230.05821"
         y="0"
         id="tspan105">Accounting for:</tspan></text>
    <text
       id="text106"
       xml:space="preserve"
       transform="matrix(1.3333333,0,0,1.3347867,45.115515,364.15855)"><tspan
         style="font-variant:normal;font-weight:normal;font-size:45.8248px;font-family:Arial;writing-mode:lr-tb;fill:#01539e;fill-opacity:1;fill-rule:nonzero;stroke:none"
         x="0"
         y="0"
         id="tspan106"></tspan></text>
    <text
       id="text107"
       xml:space="preserve"
       transform="matrix(1.3333333,0,0,1.3347867,104.65749,364.15855)"><tspan
         style="font-variant:normal;font-weight:700;font-size:36.0052px;font-family:Arial;writing-mode:lr-tb;fill:#14181d;fill-opacity:1;fill-rule:nonzero;stroke:none"
         x="0 19.329041 39.353432 71.367844 93.361275 115.3547 129.3665 149.39088 159.3943 169.39771 191.39113 201.39453 221.41893 233.40895 247.42075 257.42416 279.41757 301.41101 313.40103 323.40442 345.39786 367.3913"
         y="0"
         id="tspan107">Temporal distribution </tspan><tspan
         style="font-variant:normal;font-weight:normal;font-size:36.0052px;font-family:Arial;writing-mode:lr-tb;fill:#14181d;fill-opacity:1;fill-rule:nonzero;stroke:none"
         x="0 20.024391 30.027796 40.0312 60.055592 72.045616 92.070007 110.07262 130.09702 148.09962 166.10223 186.01862 204.02122 214.02463 234.04903 254.07341 274.09781"
         y="43.206272"
         id="tspan108">of processes and </tspan><tspan
         style="font-variant:normal;font-weight:normal;font-size:36.0052px;font-family:Arial;writing-mode:lr-tb;fill:#14181d;fill-opacity:1;fill-rule:nonzero;stroke:none"
         x="0 20.024391 50.017025 58.016235 76.018845 94.021461 102.02067 122.04506 142.06946 160.07207 170.07547 182.06549 202.08989 228.09171 238.09511"
         y="86.412544"
         id="tspan109">emissions (LCI)</tspan></text>
    <text
       id="text109"
       xml:space="preserve"
       transform="matrix(1.3333333,0,0,1.3347867,45.115515,569.21157)"><tspan
         style="font-variant:normal;font-weight:normal;font-size:44.952px;font-family:Arial;writing-mode:lr-tb;fill:#01539e;fill-opacity:1;fill-rule:nonzero;stroke:none"
         x="0"
         y="0"
         id="tspan110"></tspan></text>
    <text
       id="text110"
       xml:space="preserve"
       transform="matrix(1.3333333,0,0,1.3347867,104.65749,569.21157)"><tspan
         style="font-variant:normal;font-weight:700;font-size:36.0052px;font-family:Arial;writing-mode:lr-tb;fill:#14181d;fill-opacity:1;fill-rule:nonzero;stroke:none"
         x="0 19.329041 39.353432 71.367844 93.361275 115.3547 129.3665 149.39088 159.3943 169.39771 189.42209 209.44649 231.43991 241.44331 263.43674 275.42676 285.43018 307.42358 329.41702"
         y="0"
         id="tspan111">Temporal evolution </tspan><tspan
         style="font-variant:normal;font-weight:normal;font-size:36.0052px;font-family:Arial;writing-mode:lr-tb;fill:#14181d;fill-opacity:1;fill-rule:nonzero;stroke:none"
         x="339.42044 359.44482 369.44824"
         y="0"
         id="tspan112">of </tspan><tspan
         style="font-variant:normal;font-weight:normal;font-size:36.0052px;font-family:Arial;writing-mode:lr-tb;fill:#14181d;fill-opacity:1;fill-rule:nonzero;stroke:none"
         x="0 10.003406 30.027796 48.030411 68.054802 88.079193 108.10358 116.10279 136.01917 156.04356 164.04277 184.06715 202.06978 212.07318 232.09756 252.12196 272.03833"
         y="43.206272"
         id="tspan113">technologies and </tspan><tspan
         style="font-variant:normal;font-weight:normal;font-size:36.0052px;font-family:Arial;writing-mode:lr-tb;fill:#14181d;fill-opacity:1;fill-rule:nonzero;stroke:none"
         x="0 18.002613 38.027004 58.051395 78.07579 86.074997 104.07761 114.08102 132.08363 152.10802 172.0244 180.02361 200.04799 218.05061 228.05402 240.04404 260.06842 286.07025 296.07364"
         y="86.412544"
         id="tspan114">supply chains (LCI)</tspan></text>
    <text
       id="text114"
       xml:space="preserve"
       transform="matrix(1.3333333,0,0,1.3347867,45.115515,774.26459)"><tspan
         style="font-variant:normal;font-weight:normal;font-size:44.952px;font-family:Arial;writing-mode:lr-tb;fill:#01539e;fill-opacity:1;fill-rule:nonzero;stroke:none"
         x="0"
         y="0"
         id="tspan115"></tspan></text>
    <text
       id="text115"
       xml:space="preserve"
       transform="matrix(1.3333333,0,0,1.3347867,104.65749,774.26459)"><tspan
         style="font-variant:normal;font-weight:700;font-size:36.0052px;font-family:Arial;writing-mode:lr-tb;fill:#14181d;fill-opacity:1;fill-rule:nonzero;stroke:none"
         x="0 26.001822 46.026215 68.019638 88.044029 120.05844 130.06184 150.08624"
         y="0"
         id="tspan116">Dynamic </tspan><tspan
         style="font-variant:normal;font-weight:700;font-size:36.0052px;font-family:Arial;writing-mode:lr-tb;fill:#14181d;fill-opacity:1;fill-rule:nonzero;stroke:none"
         x="0 20.024391 42.017818 62.04221 76.054008 96.0784 116.10279 128.09282 148.1172 162.021 172.0244 190.02701 210.05141 222.04143 232.04483 254.03825"
         y="43.206272"
         id="tspan117">characterization</tspan><tspan
         style="font-variant:normal;font-weight:normal;font-size:36.0052px;font-family:Arial;writing-mode:lr-tb;fill:#14181d;fill-opacity:1;fill-rule:nonzero;stroke:none"
         x="0 11.990022 32.014412 58.016235 68.019638 92.034843"
         y="86.412544"
         id="tspan118">(LCIA)</tspan></text>
    <path
       id="path118"
       d="M -479.131,109.773 V 741.629"
       style="fill:none;stroke:#01539e;stroke-width:4.50556;stroke-linecap:round;stroke-linejoin:round;stroke-miterlimit:10;stroke-dasharray:none;stroke-opacity:1"
       transform="scale(-1.3318813,1.3333333)" />
    <path
       id="path119"
       d="m 1711.414,113.062 c 0,-38.253 31.011,-69.261 69.267,-69.261 h 372.226 c 38.252,0 69.263,31.008 69.263,69.261 v 599.403 c 0,38.254 -31.011,69.262 -69.263,69.262 h -372.226 c -38.256,0 -69.267,-31.008 -69.267,-69.262 z"
       style="fill:#ffffff;fill-opacity:1;fill-rule:evenodd;stroke:#01539e;stroke-width:4.50556;stroke-linecap:butt;stroke-linejoin:round;stroke-miterlimit:10;stroke-dasharray:none;stroke-opacity:1"
       transform="scale(1.3318813,1.3333333)" />
    <path
       id="path120"
       d="m 1856.467,301.137 243.014,195.461"
       style="fill:none;stroke:#14181d;stroke-width:1.50185;stroke-linecap:butt;stroke-linejoin:round;stroke-miterlimit:10;stroke-dasharray:1.50185, 1.50185;stroke-dashoffset:0;stroke-opacity:1"
       transform="scale(1.3318813,1.3333333)" />
    <path
       id="path121"
       d="m 1856.252,357.277 243.214,176.305"
       style="fill:none;stroke:#14181d;stroke-width:1.50185;stroke-linecap:butt;stroke-linejoin:round;stroke-miterlimit:10;stroke-dasharray:1.50185, 1.50185;stroke-dashoffset:0;stroke-opacity:1"
       transform="scale(1.3318813,1.3333333)" />
    <path
       id="path122"
       d="m 1855.376,586.434 242.138,42.718"
       style="fill:none;stroke:#14181d;stroke-width:1.50185;stroke-linecap:butt;stroke-linejoin:round;stroke-miterlimit:10;stroke-dasharray:1.50185, 1.50185;stroke-dashoffset:0;stroke-opacity:1"
       transform="scale(1.3318813,1.3333333)" />
    <path
       id="path123"
       d="m 1832.437,688.23 v 8.516"
       style="fill:none;stroke:#14181d;stroke-width:3.75463;stroke-linecap:round;stroke-linejoin:round;stroke-miterlimit:10;stroke-dasharray:none;stroke-opacity:1"
       transform="scale(1.3318813,1.3333333)" />
    <path
       id="path124"
       d="m 2122.761,688.23 v 8.516"
       style="fill:none;stroke:#14181d;stroke-width:3.75463;stroke-linecap:round;stroke-linejoin:round;stroke-miterlimit:10;stroke-dasharray:none;stroke-opacity:1"
       transform="scale(1.3318813,1.3333333)" />
    <path
       id="path125"
       d="m 1809.392,585.887 h 45.874 v 102.016 h -45.874 z"
       style="fill:#58ab27;fill-opacity:1;fill-rule:nonzero;stroke:#14181d;stroke-width:2.20272;stroke-linecap:butt;stroke-linejoin:round;stroke-miterlimit:10;stroke-dasharray:none;stroke-opacity:1"
       transform="scale(1.3318813,1.3333333)" />
    <text
       id="text125"
       xml:space="preserve"
       transform="matrix(0,-1.3333333,1.3318815,0,2454.4048,893.97592)"><tspan
         style="font-variant:normal;font-weight:normal;font-size:27.9618px;font-family:Arial;writing-mode:lr-tb;fill:#14181d;fill-opacity:1;fill-rule:nonzero;stroke:none"
         x="0 18.650286 28.04566 43.708511 59.259518"
         y="0"
         id="tspan125">Prod.</tspan></text>
    <path
       id="path126"
       d="m 2097.426,629.359 h 45.828 v 58.324 h -45.828 z"
       style="fill:#deebce;fill-opacity:1;fill-rule:nonzero;stroke:none"
       transform="scale(1.3333333)" />
    <path
       id="path127"
       d="m 2099.712,629.359 h 45.874 v 58.324 h -45.874 z"
       style="fill:none;stroke:#14181d;stroke-width:2.20272;stroke-linecap:butt;stroke-linejoin:round;stroke-miterlimit:10;stroke-dasharray:none;stroke-opacity:1"
       transform="scale(1.3318813,1.3333333)" />
    <text
       id="text127"
       xml:space="preserve"
       transform="matrix(0,-1.3333333,1.3318816,0,2839.0259,909.4131)"><tspan
         style="font-variant:normal;font-weight:normal;font-stretch:condensed;font-size:24.0296px;font-family:'Arial Narrow';writing-mode:lr-tb;fill:#14181d;fill-opacity:1;fill-rule:nonzero;stroke:none"
         x="0 13.141214 19.700089 30.658922 41.617756"
         y="0"
         id="tspan127">Prod.</tspan></text>
    <path
       id="path128"
       d="m 2097.426,533.676 h 45.828 v 95.684 h -45.828 z"
       style="fill:#feebc9;fill-opacity:1;fill-rule:nonzero;stroke:none"
       transform="scale(1.3333333)" />
    <path
       id="path129"
       d="m 2099.712,533.676 h 45.874 v 95.684 h -45.874 z"
       style="fill:none;stroke:#14181d;stroke-width:2.20272;stroke-linecap:butt;stroke-linejoin:round;stroke-miterlimit:10;stroke-dasharray:none;stroke-opacity:1"
       transform="scale(1.3318813,1.3333333)" />
    <text
       id="text129"
       xml:space="preserve"
       transform="matrix(0,-1.3333333,1.3318816,0,2839.0259,803.97392)"><tspan
         style="font-variant:normal;font-weight:normal;font-size:24.0296px;font-family:Arial;writing-mode:lr-tb;fill:#14181d;fill-opacity:1;fill-rule:nonzero;stroke:none"
         x="0 17.473591 29.488415"
         y="0"
         id="tspan129">Use</tspan></text>
    <path
       id="path130"
       d="m 2097.426,496.102 h 45.828 v 37.574 h -45.828 z"
       style="fill:#bcb5d7;fill-opacity:1;fill-rule:nonzero;stroke:none"
       transform="scale(1.3333333)" />
    <path
       id="path131"
       d="m 2099.712,496.102 h 45.874 v 37.574 h -45.874 z"
       style="fill:none;stroke:#14181d;stroke-width:2.20272;stroke-linecap:butt;stroke-linejoin:round;stroke-miterlimit:10;stroke-dasharray:none;stroke-opacity:1"
       transform="scale(1.3318813,1.3333333)" />
    <text
       id="text131"
       xml:space="preserve"
       transform="matrix(0,-1.3333333,1.3318815,0,2838.2992,710.47669)"><tspan
         style="font-variant:normal;font-weight:normal;font-stretch:condensed;font-size:22.0636px;font-family:'Arial Narrow';writing-mode:lr-tb;fill:#14181d;fill-opacity:1;fill-rule:nonzero;stroke:none"
         x="0 12.066024 26.036325"
         y="0"
         id="tspan131">EOL</tspan></text>
    <path
       id="path132"
       d="m 1778.727,686.137 h 391.257 v 3.754 h -391.257 z m 380.953,-6.317 14.027,8.192 -14.027,8.191 c -0.895,0.524 -2.043,0.223 -2.567,-0.676 -0.523,-0.894 -0.218,-2.043 0.676,-2.566 l 11.25,-6.57 v 3.242 l -11.25,-6.571 c -0.894,-0.519 -1.199,-1.671 -0.676,-2.566 0.524,-0.894 1.672,-1.199 2.567,-0.676 z"
       style="fill:#14181d;fill-opacity:1;fill-rule:nonzero;stroke:none"
       transform="scale(1.3333333)" />
    <path
       id="path133"
       d="M 1780.602,688.984 V 251.332 h -3.75 v 437.652 z m 6.308,-427.336 -8.183,-14.043 -8.184,14.043 c -0.523,0.899 -0.219,2.047 0.676,2.571 0.894,0.519 2.043,0.219 2.562,-0.676 l 6.567,-11.266 h -3.243 l 6.567,11.266 c 0.519,0.895 1.668,1.195 2.562,0.676 0.895,-0.524 1.2,-1.672 0.676,-2.571 z"
       style="fill:#14181d;fill-opacity:1;fill-rule:nonzero;stroke:none"
       transform="scale(1.3333333)" />
    <text
       id="text133"
       xml:space="preserve"
       transform="matrix(0,-1.3333333,1.3318815,0,2354.4249,720.96243)"><tspan
         style="font-variant:normal;font-weight:normal;font-size:32.1124px;font-family:Arial;writing-mode:lr-tb;fill:#14181d;fill-opacity:1;fill-rule:nonzero;stroke:none"
         x="0 21.418686 48.072189 55.206524 71.262695 87.222534 94.356873 112.21623 129.91502"
         y="0"
         id="tspan133">Emissions</tspan></text>
    <path
       id="path134"
       d="m 1904.746,688.23 v 8.516"
       style="fill:none;stroke:#14181d;stroke-width:3.75463;stroke-linecap:round;stroke-linejoin:round;stroke-miterlimit:10;stroke-dasharray:none;stroke-opacity:1"
       transform="scale(1.3318813,1.3333333)" />
    <path
       id="path135"
       d="m 1977.708,688.23 v 8.516"
       style="fill:none;stroke:#14181d;stroke-width:3.75463;stroke-linecap:round;stroke-linejoin:round;stroke-miterlimit:10;stroke-dasharray:none;stroke-opacity:1"
       transform="scale(1.3318813,1.3333333)" />
    <path
       id="path136"
       d="m 2050.232,688.23 v 8.516"
       style="fill:none;stroke:#14181d;stroke-width:3.75463;stroke-linecap:round;stroke-linejoin:round;stroke-miterlimit:10;stroke-dasharray:none;stroke-opacity:1"
       transform="scale(1.3318813,1.3333333)" />
    <text
       id="text136"
       xml:space="preserve"
       transform="matrix(0.94229535,-0.94332245,0.94229535,0.94332245,2398.8031,1017.7652)"><tspan
         style="font-style:italic;font-variant:normal;font-weight:normal;font-size:27.9465px;font-family:Arial;writing-mode:lr-tb;fill:#14181d;fill-opacity:1;fill-rule:nonzero;stroke:none"
         x="0 15.626378 31.280703 46.907082"
         y="0"
         id="tspan136">2025</tspan><tspan
         style="font-style:italic;font-variant:normal;font-weight:normal;font-size:27.9465px;font-family:Arial;writing-mode:lr-tb;fill:#14181d;fill-opacity:1;fill-rule:nonzero;stroke:none"
         x="51.56102 67.187393 82.841721 98.468102"
         y="51.56102"
         id="tspan137">2030</tspan><tspan
         style="font-style:italic;font-variant:normal;font-weight:normal;font-size:27.9465px;font-family:Arial;writing-mode:lr-tb;fill:#14181d;fill-opacity:1;fill-rule:nonzero;stroke:none"
         x="103.12204 118.74841 134.40274 150.02911"
         y="103.12204"
         id="tspan138">2035</tspan><tspan
         style="font-style:italic;font-variant:normal;font-weight:normal;font-size:27.9465px;font-family:Arial;writing-mode:lr-tb;fill:#14181d;fill-opacity:1;fill-rule:nonzero;stroke:none"
         x="154.68236 170.30873 185.96306 201.58943"
         y="154.68236"
         id="tspan139">2040</tspan><tspan
         style="font-style:italic;font-variant:normal;font-weight:normal;font-size:27.9465px;font-family:Arial;writing-mode:lr-tb;fill:#14181d;fill-opacity:1;fill-rule:nonzero;stroke:none"
         x="206.24344 221.86981 237.52414 253.15051"
         y="206.24342"
         id="tspan140">2045</tspan></text>
    <path
       id="path140"
       d="m 1847.731,138.609 c 0,2.532 -7.336,4.586 -16.385,4.586 -9.049,0 -16.385,-2.054 -16.385,-4.586 0,-2.535 7.336,-4.589 16.385,-4.589 9.049,0 16.385,2.054 16.385,4.589 z"
       style="fill:#7a6fac;fill-opacity:1;fill-rule:evenodd;stroke:#000000;stroke-width:1.10136;stroke-linecap:butt;stroke-linejoin:miter;stroke-miterlimit:8;stroke-dasharray:none;stroke-opacity:1"
       transform="scale(1.3318813,1.3333333)" />
    <path
       id="path141"
       d="m 1841.043,150.184 c -0.703,0 -1.168,-0.457 -1.168,-1.145 0,-0.687 0.465,-1.148 1.168,-1.148 0.699,0 1.168,0.461 1.168,1.148 0,0.688 -0.469,1.145 -1.168,1.145 z m -11.691,-4.586 c -9,0 -16.368,-2.063 -16.368,-4.586 v 9.172 c 0,2.523 7.368,4.589 16.368,4.589 9,0 16.367,-2.066 16.367,-4.589 v -9.172 c 0,2.523 -7.367,4.586 -16.367,4.586 z"
       style="fill:#7a6fac;fill-opacity:1;fill-rule:evenodd;stroke:none"
       transform="scale(1.3333333)" />
    <path
       id="path142"
       d="m 1843.05,150.184 c -0.704,0 -1.173,-0.457 -1.173,-1.145 0,-0.687 0.469,-1.148 1.173,-1.148 0.7,0 1.169,0.461 1.169,1.148 0,0.688 -0.469,1.145 -1.169,1.145 z m -11.704,-4.586 c -9.01,0 -16.385,-2.063 -16.385,-4.586 v 9.172 c 0,2.523 7.375,4.589 16.385,4.589 9.009,0 16.385,-2.066 16.385,-4.589 v -9.172 c 0,2.523 -7.376,4.586 -16.385,4.586 z"
       style="fill:none;stroke:#000000;stroke-width:1.10136;stroke-linecap:butt;stroke-linejoin:miter;stroke-miterlimit:8;stroke-dasharray:none;stroke-opacity:1"
       transform="scale(1.3318813,1.3333333)" />
    <path
       id="path143"
       d="m 1841.043,161.543 c -0.703,0 -1.168,-0.457 -1.168,-1.145 0,-0.687 0.465,-1.148 1.168,-1.148 0.699,0 1.168,0.461 1.168,1.148 0,0.688 -0.469,1.145 -1.168,1.145 z m -11.691,-4.586 c -9,0 -16.368,-2.062 -16.368,-4.586 v 9.172 c 0,2.523 7.368,4.59 16.368,4.59 9,0 16.367,-2.067 16.367,-4.59 v -9.172 c 0,2.524 -7.367,4.586 -16.367,4.586 z"
       style="fill:#f7a800;fill-opacity:1;fill-rule:evenodd;stroke:none"
       transform="scale(1.3333333)" />
    <path
       id="path144"
       d="m 1843.05,161.543 c -0.704,0 -1.173,-0.457 -1.173,-1.145 0,-0.687 0.469,-1.148 1.173,-1.148 0.7,0 1.169,0.461 1.169,1.148 0,0.688 -0.469,1.145 -1.169,1.145 z m -11.704,-4.586 c -9.01,0 -16.385,-2.062 -16.385,-4.586 v 9.172 c 0,2.523 7.375,4.59 16.385,4.59 9.009,0 16.385,-2.067 16.385,-4.59 v -9.172 c 0,2.524 -7.376,4.586 -16.385,4.586 z"
       style="fill:none;stroke:#000000;stroke-width:1.10136;stroke-linecap:butt;stroke-linejoin:miter;stroke-miterlimit:8;stroke-dasharray:none;stroke-opacity:1"
       transform="scale(1.3318813,1.3333333)" />
    <path
       id="path145"
       d="m 1841.043,173.121 c -0.703,0 -1.168,-0.457 -1.168,-1.144 0,-0.688 0.465,-1.149 1.168,-1.149 0.699,0 1.168,0.461 1.168,1.149 0,0.687 -0.469,1.144 -1.168,1.144 z m -11.691,-4.586 c -9,0 -16.368,-2.062 -16.368,-4.586 v 9.172 c 0,2.524 7.368,4.59 16.368,4.59 9,0 16.367,-2.066 16.367,-4.59 v -9.172 c 0,2.524 -7.367,4.586 -16.367,4.586 z"
       style="fill:#58ab27;fill-opacity:1;fill-rule:evenodd;stroke:none"
       transform="scale(1.3333333)" />
    <path
       id="path146"
       d="m 1843.05,173.121 c -0.704,0 -1.173,-0.457 -1.173,-1.144 0,-0.688 0.469,-1.149 1.173,-1.149 0.7,0 1.169,0.461 1.169,1.149 0,0.687 -0.469,1.144 -1.169,1.144 z m -11.704,-4.586 c -9.01,0 -16.385,-2.062 -16.385,-4.586 v 9.172 c 0,2.524 7.375,4.59 16.385,4.59 9.009,0 16.385,-2.066 16.385,-4.59 v -9.172 c 0,2.524 -7.376,4.586 -16.385,4.586 z"
       style="fill:none;stroke:#000000;stroke-width:1.10136;stroke-linecap:butt;stroke-linejoin:miter;stroke-miterlimit:8;stroke-dasharray:none;stroke-opacity:1"
       transform="scale(1.3318813,1.3333333)" />
    <path
       id="path147"
       d="m 1918.383,138.609 c 0,2.532 -7.328,4.586 -16.363,4.586 -9.043,0 -16.368,-2.054 -16.368,-4.586 0,-2.535 7.325,-4.589 16.368,-4.589 9.035,0 16.363,2.054 16.363,4.589 z"
       style="fill:#8478be;fill-opacity:1;fill-rule:evenodd;stroke:none"
       transform="scale(1.3333333)" />
    <path
       id="path148"
       d="m 1920.474,138.609 c 0,2.532 -7.336,4.586 -16.385,4.586 -9.045,0 -16.381,-2.054 -16.381,-4.586 0,-2.535 7.336,-4.589 16.381,-4.589 9.049,0 16.385,2.054 16.385,4.589 z"
       style="fill:none;stroke:#000000;stroke-width:1.10136;stroke-linecap:butt;stroke-linejoin:miter;stroke-miterlimit:8;stroke-dasharray:none;stroke-opacity:1"
       transform="scale(1.3318813,1.3333333)" />
    <path
       id="path149"
       d="m 1913.707,150.184 c -0.699,0 -1.168,-0.457 -1.168,-1.145 0,-0.687 0.469,-1.148 1.168,-1.148 0.703,0 1.168,0.461 1.168,1.148 0,0.688 -0.465,1.145 -1.168,1.145 z m -11.687,-4.586 c -9.004,0 -16.368,-2.063 -16.368,-4.586 v 9.172 c 0,2.523 7.364,4.589 16.368,4.589 9,0 16.363,-2.066 16.363,-4.589 v -9.172 c 0,2.523 -7.363,4.586 -16.363,4.586 z"
       style="fill:#8478be;fill-opacity:1;fill-rule:evenodd;stroke:none"
       transform="scale(1.3333333)" />
    <path
       id="path150"
       d="m 1915.793,150.184 c -0.7,0 -1.169,-0.457 -1.169,-1.145 0,-0.687 0.469,-1.148 1.169,-1.148 0.704,0 1.169,0.461 1.169,1.148 0,0.688 -0.465,1.145 -1.169,1.145 z m -11.704,-4.586 c -9.01,0 -16.381,-2.063 -16.381,-4.586 v 9.172 c 0,2.523 7.371,4.589 16.381,4.589 9.014,0 16.385,-2.066 16.385,-4.589 v -9.172 c 0,2.523 -7.371,4.586 -16.385,4.586 z"
       style="fill:none;stroke:#000000;stroke-width:1.10136;stroke-linecap:butt;stroke-linejoin:miter;stroke-miterlimit:8;stroke-dasharray:none;stroke-opacity:1"
       transform="scale(1.3318813,1.3333333)" />
    <path
       id="path151"
       d="m 1913.707,161.543 c -0.699,0 -1.168,-0.457 -1.168,-1.145 0,-0.687 0.469,-1.148 1.168,-1.148 0.703,0 1.168,0.461 1.168,1.148 0,0.688 -0.465,1.145 -1.168,1.145 z m -11.687,-4.586 c -9.004,0 -16.368,-2.062 -16.368,-4.586 v 9.172 c 0,2.523 7.364,4.59 16.368,4.59 9,0 16.363,-2.067 16.363,-4.59 v -9.172 c 0,2.524 -7.363,4.586 -16.363,4.586 z"
       style="fill:#fabe4f;fill-opacity:1;fill-rule:evenodd;stroke:none"
       transform="scale(1.3333333)" />
    <path
       id="path152"
       d="m 1915.793,161.543 c -0.7,0 -1.169,-0.457 -1.169,-1.145 0,-0.687 0.469,-1.148 1.169,-1.148 0.704,0 1.169,0.461 1.169,1.148 0,0.688 -0.465,1.145 -1.169,1.145 z m -11.704,-4.586 c -9.01,0 -16.381,-2.062 -16.381,-4.586 v 9.172 c 0,2.523 7.371,4.59 16.381,4.59 9.014,0 16.385,-2.067 16.385,-4.59 v -9.172 c 0,2.524 -7.371,4.586 -16.385,4.586 z"
       style="fill:none;stroke:#000000;stroke-width:1.10136;stroke-linecap:butt;stroke-linejoin:miter;stroke-miterlimit:8;stroke-dasharray:none;stroke-opacity:1"
       transform="scale(1.3318813,1.3333333)" />
    <path
       id="path153"
       d="m 1913.707,173.121 c -0.699,0 -1.168,-0.457 -1.168,-1.144 0,-0.688 0.469,-1.149 1.168,-1.149 0.703,0 1.168,0.461 1.168,1.149 0,0.687 -0.465,1.144 -1.168,1.144 z m -11.687,-4.586 c -9.004,0 -16.368,-2.062 -16.368,-4.586 v 9.172 c 0,2.524 7.364,4.59 16.368,4.59 9,0 16.363,-2.066 16.363,-4.59 v -9.172 c 0,2.524 -7.363,4.586 -16.363,4.586 z"
       style="fill:#88ba5e;fill-opacity:1;fill-rule:evenodd;stroke:none"
       transform="scale(1.3333333)" />
    <path
       id="path154"
       d="m 1915.793,173.121 c -0.7,0 -1.169,-0.457 -1.169,-1.144 0,-0.688 0.469,-1.149 1.169,-1.149 0.704,0 1.169,0.461 1.169,1.149 0,0.687 -0.465,1.144 -1.169,1.144 z m -11.704,-4.586 c -9.01,0 -16.381,-2.062 -16.381,-4.586 v 9.172 c 0,2.524 7.371,4.59 16.381,4.59 9.014,0 16.385,-2.066 16.385,-4.59 v -9.172 c 0,2.524 -7.371,4.586 -16.385,4.586 z"
       style="fill:none;stroke:#000000;stroke-width:1.10136;stroke-linecap:butt;stroke-linejoin:miter;stroke-miterlimit:8;stroke-dasharray:none;stroke-opacity:1"
       transform="scale(1.3318813,1.3333333)" />
    <path
       id="path155"
       d="m 1993.217,138.609 c 0,2.532 -7.285,4.586 -16.271,4.586 -8.991,0 -16.276,-2.054 -16.276,-4.586 0,-2.535 7.285,-4.589 16.276,-4.589 8.986,0 16.271,2.054 16.271,4.589 z"
       style="fill:#938bbb;fill-opacity:1;fill-rule:evenodd;stroke:#000000;stroke-width:1.10136;stroke-linecap:butt;stroke-linejoin:miter;stroke-miterlimit:8;stroke-dasharray:none;stroke-opacity:1"
       transform="scale(1.3318813,1.3333333)" />
    <path
       id="path156"
       d="m 1988.568,150.184 c -0.696,0 -1.162,-0.457 -1.162,-1.145 0,-0.687 0.466,-1.148 1.162,-1.148 0.7,0 1.165,0.461 1.165,1.148 0,0.688 -0.465,1.145 -1.165,1.145 z m -11.622,-4.586 c -8.952,0 -16.276,-2.063 -16.276,-4.586 v 9.172 c 0,2.523 7.324,4.589 16.276,4.589 8.951,0 16.271,-2.066 16.271,-4.589 v -9.172 c 0,2.523 -7.32,4.586 -16.271,4.586 z"
       style="fill:#938bbb;fill-opacity:1;fill-rule:evenodd;stroke:#000000;stroke-width:1.10136;stroke-linecap:butt;stroke-linejoin:miter;stroke-miterlimit:8;stroke-dasharray:none;stroke-opacity:1"
       transform="scale(1.3318813,1.3333333)" />
    <path
       id="path157"
       d="m 1988.568,161.543 c -0.696,0 -1.162,-0.457 -1.162,-1.145 0,-0.687 0.466,-1.148 1.162,-1.148 0.7,0 1.165,0.461 1.165,1.148 0,0.688 -0.465,1.145 -1.165,1.145 z m -11.622,-4.586 c -8.952,0 -16.276,-2.062 -16.276,-4.586 v 9.172 c 0,2.523 7.324,4.59 16.276,4.59 8.951,0 16.271,-2.067 16.271,-4.59 v -9.172 c 0,2.524 -7.32,4.586 -16.271,4.586 z"
       style="fill:#ffc553;fill-opacity:1;fill-rule:evenodd;stroke:#000000;stroke-width:1.10136;stroke-linecap:butt;stroke-linejoin:miter;stroke-miterlimit:8;stroke-dasharray:none;stroke-opacity:1"
       transform="scale(1.3318813,1.3333333)" />
    <path
       id="path158"
       d="m 1988.568,173.121 c -0.696,0 -1.162,-0.457 -1.162,-1.144 0,-0.688 0.466,-1.149 1.162,-1.149 0.7,0 1.165,0.461 1.165,1.149 0,0.687 -0.465,1.144 -1.165,1.144 z m -11.622,-4.586 c -8.952,0 -16.276,-2.062 -16.276,-4.586 v 9.172 c 0,2.524 7.324,4.59 16.276,4.59 8.951,0 16.271,-2.066 16.271,-4.59 v -9.172 c 0,2.524 -7.32,4.586 -16.271,4.586 z"
       style="fill:#8dc05f;fill-opacity:1;fill-rule:evenodd;stroke:#000000;stroke-width:1.10136;stroke-linecap:butt;stroke-linejoin:miter;stroke-miterlimit:8;stroke-dasharray:none;stroke-opacity:1"
       transform="scale(1.3318813,1.3333333)" />
    <path
       id="path159"
       d="m 2065.964,138.609 c 0,2.532 -7.289,4.586 -16.275,4.586 -8.99,0 -16.276,-2.054 -16.276,-4.586 0,-2.535 7.286,-4.589 16.276,-4.589 8.986,0 16.275,2.054 16.275,4.589 z"
       style="fill:#9b91c2;fill-opacity:1;fill-rule:evenodd;stroke:#000000;stroke-width:1.10136;stroke-linecap:butt;stroke-linejoin:miter;stroke-miterlimit:8;stroke-dasharray:none;stroke-opacity:1"
       transform="scale(1.3318813,1.3333333)" />
    <path
       id="path160"
       d="m 2061.315,150.184 c -0.7,0 -1.166,-0.457 -1.166,-1.145 0,-0.687 0.466,-1.148 1.166,-1.148 0.696,0 1.161,0.461 1.161,1.148 0,0.688 -0.465,1.145 -1.161,1.145 z m -11.626,-4.586 c -8.951,0 -16.276,-2.063 -16.276,-4.586 v 9.172 c 0,2.523 7.325,4.589 16.276,4.589 8.951,0 16.275,-2.066 16.275,-4.589 v -9.172 c 0,2.523 -7.324,4.586 -16.275,4.586 z"
       style="fill:#9b91c2;fill-opacity:1;fill-rule:evenodd;stroke:#000000;stroke-width:1.10136;stroke-linecap:butt;stroke-linejoin:miter;stroke-miterlimit:8;stroke-dasharray:none;stroke-opacity:1"
       transform="scale(1.3318813,1.3333333)" />
    <path
       id="path161"
       d="m 2061.315,161.543 c -0.7,0 -1.166,-0.457 -1.166,-1.145 0,-0.687 0.466,-1.148 1.166,-1.148 0.696,0 1.161,0.461 1.161,1.148 0,0.688 -0.465,1.145 -1.161,1.145 z m -11.626,-4.586 c -8.951,0 -16.276,-2.062 -16.276,-4.586 v 9.172 c 0,2.523 7.325,4.59 16.276,4.59 8.951,0 16.275,-2.067 16.275,-4.59 v -9.172 c 0,2.524 -7.324,4.586 -16.275,4.586 z"
       style="fill:#f4cc8b;fill-opacity:1;fill-rule:evenodd;stroke:#000000;stroke-width:1.10136;stroke-linecap:butt;stroke-linejoin:miter;stroke-miterlimit:8;stroke-dasharray:none;stroke-opacity:1"
       transform="scale(1.3318813,1.3333333)" />
    <path
       id="path162"
       d="m 2061.315,173.121 c -0.7,0 -1.166,-0.457 -1.166,-1.144 0,-0.688 0.466,-1.149 1.166,-1.149 0.696,0 1.161,0.461 1.161,1.149 0,0.687 -0.465,1.144 -1.161,1.144 z m -11.626,-4.586 c -8.951,0 -16.276,-2.062 -16.276,-4.586 v 9.172 c 0,2.524 7.325,4.59 16.276,4.59 8.951,0 16.275,-2.066 16.275,-4.59 v -9.172 c 0,2.524 -7.324,4.586 -16.275,4.586 z"
       style="fill:#a5cb82;fill-opacity:1;fill-rule:evenodd;stroke:#000000;stroke-width:1.10136;stroke-linecap:butt;stroke-linejoin:miter;stroke-miterlimit:8;stroke-dasharray:none;stroke-opacity:1"
       transform="scale(1.3318813,1.3333333)" />
    <path
       id="path163"
       d="m 2136.379,138.609 c 0,2.532 -7.281,4.586 -16.258,4.586 -8.976,0 -16.258,-2.054 -16.258,-4.586 0,-2.535 7.282,-4.589 16.258,-4.589 8.977,0 16.258,2.054 16.258,4.589 z"
       style="fill:#bdb5d7;fill-opacity:1;fill-rule:evenodd;stroke:none"
       transform="scale(1.3333333)" />
    <path
       id="path164"
       d="m 2138.708,138.609 c 0,2.532 -7.286,4.586 -16.276,4.586 -8.986,0 -16.275,-2.054 -16.275,-4.586 0,-2.535 7.289,-4.589 16.275,-4.589 8.99,0 16.276,2.054 16.276,4.589 z"
       style="fill:none;stroke:#000000;stroke-width:1.10136;stroke-linecap:butt;stroke-linejoin:miter;stroke-miterlimit:8;stroke-dasharray:none;stroke-opacity:1"
       transform="scale(1.3318813,1.3333333)" />
    <path
       id="path165"
       d="m 2131.734,150.184 c -0.699,0 -1.16,-0.457 -1.16,-1.145 0,-0.687 0.461,-1.148 1.16,-1.148 0.696,0 1.161,0.461 1.161,1.148 0,0.688 -0.465,1.145 -1.161,1.145 z m -11.613,-4.586 c -8.941,0 -16.258,-2.063 -16.258,-4.586 v 9.172 c 0,2.523 7.317,4.589 16.258,4.589 8.941,0 16.258,-2.066 16.258,-4.589 v -9.172 c 0,2.523 -7.317,4.586 -16.258,4.586 z"
       style="fill:#bdb5d7;fill-opacity:1;fill-rule:evenodd;stroke:none"
       transform="scale(1.3333333)" />
    <path
       id="path166"
       d="m 2134.058,150.184 c -0.696,0 -1.161,-0.457 -1.161,-1.145 0,-0.687 0.465,-1.148 1.161,-1.148 0.696,0 1.161,0.461 1.161,1.148 0,0.688 -0.465,1.145 -1.161,1.145 z m -11.626,-4.586 c -8.951,0 -16.275,-2.063 -16.275,-4.586 v 9.172 c 0,2.523 7.324,4.589 16.275,4.589 8.951,0 16.276,-2.066 16.276,-4.589 v -9.172 c 0,2.523 -7.325,4.586 -16.276,4.586 z"
       style="fill:none;stroke:#000000;stroke-width:1.10136;stroke-linecap:butt;stroke-linejoin:miter;stroke-miterlimit:8;stroke-dasharray:none;stroke-opacity:1"
       transform="scale(1.3318813,1.3333333)" />
    <path
       id="path167"
       d="m 2131.734,161.543 c -0.699,0 -1.16,-0.457 -1.16,-1.145 0,-0.687 0.461,-1.148 1.16,-1.148 0.696,0 1.161,0.461 1.161,1.148 0,0.688 -0.465,1.145 -1.161,1.145 z m -11.613,-4.586 c -8.941,0 -16.258,-2.062 -16.258,-4.586 v 9.172 c 0,2.523 7.317,4.59 16.258,4.59 8.941,0 16.258,-2.067 16.258,-4.59 v -9.172 c 0,2.524 -7.317,4.586 -16.258,4.586 z"
       style="fill:#ffebc9;fill-opacity:1;fill-rule:evenodd;stroke:none"
       transform="scale(1.3333333)" />
    <path
       id="path168"
       d="m 2134.058,161.543 c -0.696,0 -1.161,-0.457 -1.161,-1.145 0,-0.687 0.465,-1.148 1.161,-1.148 0.696,0 1.161,0.461 1.161,1.148 0,0.688 -0.465,1.145 -1.161,1.145 z m -11.626,-4.586 c -8.951,0 -16.275,-2.062 -16.275,-4.586 v 9.172 c 0,2.523 7.324,4.59 16.275,4.59 8.951,0 16.276,-2.067 16.276,-4.59 v -9.172 c 0,2.524 -7.325,4.586 -16.276,4.586 z"
       style="fill:none;stroke:#000000;stroke-width:1.10136;stroke-linecap:butt;stroke-linejoin:miter;stroke-miterlimit:8;stroke-dasharray:none;stroke-opacity:1"
       transform="scale(1.3318813,1.3333333)" />
    <path
       id="path169"
       d="m 2131.734,173.121 c -0.699,0 -1.16,-0.457 -1.16,-1.144 0,-0.688 0.461,-1.149 1.16,-1.149 0.696,0 1.161,0.461 1.161,1.149 0,0.687 -0.465,1.144 -1.161,1.144 z m -11.613,-4.586 c -8.941,0 -16.258,-2.062 -16.258,-4.586 v 9.172 c 0,2.524 7.317,4.59 16.258,4.59 8.941,0 16.258,-2.066 16.258,-4.59 v -9.172 c 0,2.524 -7.317,4.586 -16.258,4.586 z"
       style="fill:#deebce;fill-opacity:1;fill-rule:evenodd;stroke:none"
       transform="scale(1.3333333)" />
    <path
       id="path170"
       d="m 2134.058,173.121 c -0.696,0 -1.161,-0.457 -1.161,-1.144 0,-0.688 0.465,-1.149 1.161,-1.149 0.696,0 1.161,0.461 1.161,1.149 0,0.687 -0.465,1.144 -1.161,1.144 z m -11.626,-4.586 c -8.951,0 -16.275,-2.062 -16.275,-4.586 v 9.172 c 0,2.524 7.324,4.59 16.275,4.59 8.951,0 16.276,-2.066 16.276,-4.59 v -9.172 c 0,2.524 -7.325,4.586 -16.276,4.586 z"
       style="fill:none;stroke:#000000;stroke-width:1.10136;stroke-linecap:butt;stroke-linejoin:miter;stroke-miterlimit:8;stroke-dasharray:none;stroke-opacity:1"
       transform="scale(1.3318813,1.3333333)" />
    <text
       id="text170"
       xml:space="preserve"
       transform="matrix(1.3333333,0,0,1.3347867,2397.1527,280.27317)"><tspan
         style="font-style:italic;font-variant:normal;font-weight:normal;font-size:27.9313px;font-family:Arial;writing-mode:lr-tb;fill:#14181d;fill-opacity:1;fill-rule:nonzero;stroke:none"
         x="0 15.617867 31.263666 46.881535 73.504341 89.122215 104.74008 120.38588 146.98076 162.59863 178.24443 193.86229 220.48511 236.10297 251.72084 267.36664 293.96152 309.57938 325.22519 340.84305"
         y="0"
         id="tspan170">20252030203520402045</tspan></text>
    <text
       id="text171"
       xml:space="preserve"
       transform="matrix(1.3333333,0,0,1.3347867,2414.0858,160.85314)"><tspan
         style="font-style:italic;font-variant:normal;font-weight:normal;font-size:32.0774px;font-family:Arial;writing-mode:lr-tb;fill:#14181d;fill-opacity:1;fill-rule:nonzero;stroke:none"
         x="0 17.743681 40.908939 49.821064 58.636955 76.380638 94.124313 103.03644 120.74805"
         y="0"
         id="tspan171">LCI data:</tspan></text>
    <path
       id="path171"
       d="m 1868.523,123.426 h 222.793 v 91.312 h -222.793 z"
       style="fill:#ffffff;fill-opacity:0.8196;fill-rule:nonzero;stroke:none"
       transform="scale(1.3333333)" />
    <path
       id="path172"
       d="m 1809.392,355.422 h 45.874 v 230.902 h -45.874 z"
       style="fill:#f6a800;fill-opacity:1;fill-rule:nonzero;stroke:#14181d;stroke-width:2.20272;stroke-linecap:butt;stroke-linejoin:round;stroke-miterlimit:10;stroke-dasharray:none;stroke-opacity:1"
       transform="scale(1.3318813,1.3333333)" />
    <text
       id="text172"
       xml:space="preserve"
       transform="matrix(0,-1.3333333,1.3318815,0,2454.4048,661.25235)"><tspan
         style="font-variant:normal;font-weight:normal;font-size:27.9618px;font-family:Arial;writing-mode:lr-tb;fill:#14181d;fill-opacity:1;fill-rule:nonzero;stroke:none"
         x="0 20.276983 34.25787"
         y="0"
         id="tspan172">Use</tspan></text>
    <path
       id="path173"
       d="m 1809.392,299.496 h 45.874 v 56.359 h -45.874 z"
       style="fill:#7a6fac;fill-opacity:1;fill-rule:nonzero;stroke:#14181d;stroke-width:2.20272;stroke-linecap:butt;stroke-linejoin:round;stroke-miterlimit:10;stroke-dasharray:none;stroke-opacity:1"
       transform="scale(1.3318813,1.3333333)" />
    <text
       id="text173"
       xml:space="preserve"
       transform="matrix(0,-1.3333333,1.3318815,0,2454.4048,474.25801)"><tspan
         style="font-variant:normal;font-weight:normal;font-size:27.9618px;font-family:Arial;writing-mode:lr-tb;fill:#14181d;fill-opacity:1;fill-rule:nonzero;stroke:none"
         x="0 18.650286 40.399849"
         y="0"
         id="tspan173">EOL</tspan></text>
    <text
       id="text174"
       xml:space="preserve"
       transform="matrix(1.3333333,0,0,1.3347867,2454.2543,330.0801)"><tspan
         style="font-style:italic;font-variant:normal;font-weight:700;font-size:27.9313px;font-family:Arial;writing-mode:lr-tb;fill:#14181d;fill-opacity:1;fill-rule:nonzero;stroke:none"
         x="0 20.254904 37.316471 54.489765 70.107635 85.725502 102.87086 112.256 120.01623 137.07779 154.22316 169.84102 177.60124"
         y="0"
         id="tspan174">Conventional </tspan><tspan
         style="font-style:italic;font-variant:normal;font-weight:700;font-size:27.9313px;font-family:Arial;writing-mode:lr-tb;fill:#14181d;fill-opacity:1;fill-rule:nonzero;stroke:none"
         x="0 17.061567 37.372334 56.593781"
         y="33.604877"
         id="tspan175">LCA </tspan><tspan
         style="font-style:italic;font-variant:normal;font-weight:700;font-size:27.9313px;font-family:Arial;writing-mode:lr-tb;fill:#14181d;fill-opacity:1;fill-rule:nonzero;stroke:none"
         x="114.92269 133.55267 144.42244 161.56779 177.18567 194.33102 209.9489 225.5947 234.97983 242.74005 258.38586 274.00372"
         y="68.082581"
         id="tspan176">Prospective </tspan><tspan
         style="font-style:italic;font-variant:normal;font-weight:700;font-size:27.9313px;font-family:Arial;writing-mode:lr-tb;fill:#14181d;fill-opacity:1;fill-rule:nonzero;stroke:none"
         x="114.92269 131.98427 152.29503"
         y="101.68746"
         id="tspan177">LCA</tspan></text>
    <text
       id="text177"
       xml:space="preserve"
       transform="matrix(1.0782833,0.78427227,-0.78341831,1.0794586,2476.6324,519.69582)"><tspan
         style="font-style:italic;font-variant:normal;font-weight:normal;font-size:22.0479px;font-family:Arial;writing-mode:lr-tb;fill:#14181d;fill-opacity:1;fill-rule:nonzero;stroke:none"
         x="0 14.63961 25.663544 37.925514 42.823845 53.847778 58.746105 70.941933 83.203903 89.329514 101.59148 108.93359 121.19556 133.45753 145.71951 156.74344 162.86905 167.76738 180.02934 192.29132 198.41692 209.37471 220.39864 231.42258 237.54817 249.81015"
         y="0"
         id="tspan178">Evolving production system</tspan></text>
    <path
       id="path178"
       d="m 2122.324,227.734 v 254.207 c 0,1.039 -0.84,1.879 -1.875,1.879 -1.035,0 -1.875,-0.84 -1.875,-1.879 V 227.734 c 0,-1.035 0.84,-1.875 1.875,-1.875 1.035,0 1.875,0.84 1.875,1.875 z m 6.309,243.891 -8.184,14.043 -8.183,-14.043 c -0.524,-0.898 -0.219,-2.047 0.675,-2.57 0.895,-0.52 2.043,-0.219 2.563,0.675 l 6.566,11.266 h -3.242 l 6.567,-11.266 c 0.519,-0.894 1.667,-1.195 2.562,-0.675 0.895,0.523 1.195,1.672 0.676,2.57 z"
       style="fill:#000000;fill-opacity:1;fill-rule:nonzero;stroke:none"
       transform="scale(1.3333333)" />
    <path
       id="path179"
       d="M 1745.23,23.461 C 1745.23,10.504 1755.723,0 1768.664,0 h 389.777 c 12.942,0 23.434,10.504 23.434,23.461 V 61.52 c 0,12.953 -10.492,23.457 -23.434,23.457 h -389.777 c -12.941,0 -23.434,-10.504 -23.434,-23.457 z"
       style="fill:#01539e;fill-opacity:1;fill-rule:evenodd;stroke:none"
       transform="scale(1.3333333)" />
    <text
       id="text179"
       xml:space="preserve"
       transform="matrix(1.3333333,0,0,1.3347867,2371.6316,78.424101)"><tspan
         style="font-variant:normal;font-weight:normal;font-size:44.0791px;font-family:Arial;writing-mode:lr-tb;fill:#ffffff;fill-opacity:1;fill-rule:nonzero;stroke:none"
         x="0 21.988424 46.503136 83.22139 107.7361 132.25081 146.9295 171.44421 181.10495 193.35155 217.86626 239.90581 264.42053 274.2135 298.72821 310.97479 320.76776 345.28247"
         y="0"
         id="tspan179">Temporal evolution</tspan></text>
    <path
       id="path180"
       d="m 1829.918,226.645 v 55.882 c 0,1.035 -0.84,1.879 -1.875,1.879 -1.035,0 -1.875,-0.844 -1.875,-1.879 v -55.882 c 0,-1.04 0.84,-1.879 1.875,-1.879 1.035,0 1.875,0.839 1.875,1.879 z m 6.309,45.566 -8.184,14.043 -8.184,-14.043 c -0.523,-0.899 -0.218,-2.047 0.676,-2.57 0.895,-0.52 2.043,-0.219 2.563,0.675 l 6.566,11.266 h -3.242 l 6.566,-11.266 c 0.52,-0.894 1.668,-1.195 2.563,-0.675 0.894,0.523 1.199,1.671 0.676,2.57 z"
       style="fill:#14181d;fill-opacity:1;fill-rule:nonzero;stroke:none"
       transform="scale(1.3333333)" />
  </g>
</svg>
