<svg width="10193" height="3648" xmlns="http://www.w3.org/2000/svg" xmlns:xlink="http://www.w3.org/1999/xlink"><g transform="translate(-330 -4702)"><g><path d="M7689 6591C7689 6475.57 7782.57 6382 7898 6382 8013.43 6382 8107 6475.57 8107 6591 8107 6706.43 8013.43 6800 7898 6800 7782.57 6800 7689 6706.43 7689 6591Z" fill="#3FB0C4" fill-rule="evenodd" fill-opacity="1"/><text fill="#FFFFFF" fill-opacity="1" font-family="Arial,Arial_MSFontService,sans-serif" font-style="normal" font-variant="normal" font-weight="400" font-stretch="normal" font-size="440" text-anchor="start" direction="ltr" writing-mode="lr-tb" unicode-bidi="normal" text-decoration="none" transform="matrix(1 0 0 1 7769.04 6755)">+</text><path d="M4809 6596C4809 6480.57 4902.57 6387 5018 6387 5133.43 6387 5227 6480.57 5227 6596 5227 6711.43 5133.43 6805 5018 6805 4902.57 6805 4809 6711.43 4809 6596Z" fill="#3FB0C4" fill-rule="evenodd" fill-opacity="1"/><text fill="#FFFFFF" fill-opacity="1" font-family="Arial,Arial_MSFontService,sans-serif" font-style="normal" font-variant="normal" font-weight="400" font-stretch="normal" font-size="440" text-anchor="start" direction="ltr" writing-mode="lr-tb" unicode-bidi="normal" text-decoration="none" transform="matrix(1 0 0 1 4889.6 6760)">=</text><path d="M5289.5 5221.56C5289.5 5046.45 5431.45 4904.5 5606.56 4904.5L7310.44 4904.5C7485.55 4904.5 7627.5 5046.45 7627.5 5221.56L7627.5 7965.44C7627.5 8140.55 7485.55 8282.5 7310.44 8282.5L5606.56 8282.5C5431.45 8282.5 5289.5 8140.55 5289.5 7965.44Z" stroke="#3FB0C4" stroke-width="20.625" stroke-linecap="butt" stroke-linejoin="round" stroke-miterlimit="10" stroke-opacity="1" fill="#FFFFFF" fill-rule="evenodd" fill-opacity="1"/><path d="M5451 4811.66C5451 4752.2 5499.2 4704 5558.66 4704L7344.34 4704C7403.8 4704 7452 4752.2 7452 4811.66L7452 4986.34C7452 5045.8 7403.8 5094 7344.34 5094L5558.66 5094C5499.2 5094 5451 5045.8 5451 4986.34Z" fill="#3FB0C4" fill-rule="evenodd" fill-opacity="1"/><text fill="#FFFFFF" fill-opacity="1" font-family="Arial,Arial_MSFontService,sans-serif" font-style="normal" font-variant="normal" font-weight="400" font-stretch="normal" font-size="202" text-anchor="start" direction="ltr" writing-mode="lr-tb" unicode-bidi="normal" text-decoration="none" transform="matrix(1 0 0 1 5520.87 4974)">Temporal distribution</text><path d="M6288 7053 6451.74 7053" stroke="#7F7F7F" stroke-width="10.0833" stroke-linecap="butt" stroke-linejoin="round" stroke-miterlimit="10" stroke-dasharray="40.3333 30.25" stroke-opacity="1" fill="none" fill-rule="evenodd"/><path d="M6618 6700 6781.74 6700" stroke="#7F7F7F" stroke-width="10.0833" stroke-linecap="butt" stroke-linejoin="round" stroke-miterlimit="10" stroke-dasharray="40.3333 30.25" stroke-opacity="1" fill="none" fill-rule="evenodd"/><path d="M6934 6347 7097.74 6347" stroke="#7F7F7F" stroke-width="10.0833" stroke-linecap="butt" stroke-linejoin="round" stroke-miterlimit="10" stroke-dasharray="40.3333 30.25" stroke-opacity="1" fill="none" fill-rule="evenodd"/><path d="M5955 7407 6118.74 7407" stroke="#7F7F7F" stroke-width="10.0833" stroke-linecap="butt" stroke-linejoin="round" stroke-miterlimit="10" stroke-dasharray="40.3333 30.25" stroke-opacity="1" fill="none" fill-rule="evenodd"/><rect x="6073" y="7053" width="210" height="353" stroke="#14181D" stroke-width="10.0833" stroke-linecap="butt" stroke-linejoin="round" stroke-miterlimit="10" stroke-opacity="1" fill="#F6A800" fill-opacity="1"/><text fill="#14181D" fill-opacity="1" font-family="Arial,Arial_MSFontService,sans-serif" font-style="normal" font-variant="normal" font-weight="400" font-stretch="normal" font-size="128" text-anchor="start" direction="ltr" writing-mode="lr-tb" unicode-bidi="normal" text-decoration="none" transform="matrix(6.12323e-17 -1 1 6.12323e-17 6225.91 7344)">Use</text><rect x="6407" y="6700" width="210" height="353" stroke="#14181D" stroke-width="10.0833" stroke-linecap="butt" stroke-linejoin="round" stroke-miterlimit="10" stroke-opacity="1" fill="#F6A800" fill-opacity="1"/><text fill="#14181D" fill-opacity="1" font-family="Arial,Arial_MSFontService,sans-serif" font-style="normal" font-variant="normal" font-weight="400" font-stretch="normal" font-size="128" text-anchor="start" direction="ltr" writing-mode="lr-tb" unicode-bidi="normal" text-decoration="none" transform="matrix(6.12323e-17 -1 1 6.12323e-17 6559.77 6991)">Use</text><rect x="6739" y="6347" width="210" height="353" stroke="#14181D" stroke-width="10.0833" stroke-linecap="butt" stroke-linejoin="round" stroke-miterlimit="10" stroke-opacity="1" fill="#F6A800" fill-opacity="1"/><text fill="#14181D" fill-opacity="1" font-family="Arial,Arial_MSFontService,sans-serif" font-style="normal" font-variant="normal" font-weight="400" font-stretch="normal" font-size="128" text-anchor="start" direction="ltr" writing-mode="lr-tb" unicode-bidi="normal" text-decoration="none" transform="matrix(6.12323e-17 -1 1 6.12323e-17 6891.79 6638)">Use</text><rect x="7071" y="6087" width="210" height="260" stroke="#14181D" stroke-width="10.0833" stroke-linecap="butt" stroke-linejoin="round" stroke-miterlimit="10" stroke-opacity="1" fill="#7A6FAC" fill-opacity="1"/><text fill="#14181D" fill-opacity="1" font-family="Arial,Arial_MSFontService,sans-serif" font-style="normal" font-variant="normal" font-weight="400" font-stretch="normal" font-size="128" text-anchor="start" direction="ltr" writing-mode="lr-tb" unicode-bidi="normal" text-decoration="none" transform="matrix(6.12323e-17 -1 1 6.12323e-17 7223.82 6345)">EOL</text><path d="M5727.03 7332.84C5713.89 7319.83 5717.6 7294.77 5735.33 7276.87L6321.97 6684.49C6339.7 6666.59 6343.42 6641.53 6330.28 6628.52 6343.42 6641.53 6368.44 6637.57 6386.17 6619.67L6972.81 6027.29C6990.54 6009.39 7015.56 6005.43 7028.71 6018.45" stroke="#14181D" stroke-width="17.1875" stroke-linecap="round" stroke-linejoin="round" stroke-miterlimit="10" stroke-opacity="1" fill="none" fill-rule="evenodd"/><path d="M5847.5 7874.5 5847.5 7913.48" stroke="#14181D" stroke-width="17.1875" stroke-linecap="round" stroke-linejoin="round" stroke-miterlimit="10" stroke-opacity="1" fill="none" fill-rule="evenodd"/><path d="M7176.5 7874.5 7176.5 7913.48" stroke="#14181D" stroke-width="17.1875" stroke-linecap="round" stroke-linejoin="round" stroke-miterlimit="10" stroke-opacity="1" fill="none" fill-rule="evenodd"/><rect x="5742" y="7406" width="210" height="467" stroke="#14181D" stroke-width="10.0833" stroke-linecap="butt" stroke-linejoin="round" stroke-miterlimit="10" stroke-opacity="1" fill="#58AB27" fill-opacity="1"/><text fill="#14181D" fill-opacity="1" font-family="Arial,Arial_MSFontService,sans-serif" font-style="normal" font-variant="normal" font-weight="400" font-stretch="normal" font-size="128" text-anchor="start" direction="ltr" writing-mode="lr-tb" unicode-bidi="normal" text-decoration="none" transform="matrix(6.12323e-17 -1 1 6.12323e-17 5894.87 7793)">Prod.</text><path d="M5610.5 7864.91 7403.51 7864.91 7403.51 7882.09 5610.5 7882.09ZM7356.28 7836 7420.56 7873.5 7356.28 7911 7356.28 7911C7352.18 7913.39 7346.91 7912.01 7344.52 7907.91 7342.13 7903.81 7343.52 7898.55 7347.61 7896.16L7399.18 7866.08 7399.18 7880.92 7347.62 7850.85C7343.52 7848.45 7342.13 7843.19 7344.52 7839.09 7346.91 7834.99 7352.18 7833.61 7356.28 7836Z" fill="#14181D" fill-rule="nonzero" fill-opacity="1"/><path d="M8.59375-1.53502e-06 8.59411 2003.43-8.59339 2003.43-8.59375 1.53502e-06ZM37.5016 1956.19 0.000372564 2020.48-37.5009 1956.19C-39.8923 1952.09-38.5076 1946.83-34.4079 1944.44-30.3083 1942.05-25.0462 1943.43-22.6547 1947.53L7.42345 1999.1-7.42274 1999.1 22.6554 1947.53C25.0468 1943.43 30.3089 1942.05 34.4086 1944.44 38.5083 1946.83 39.893 1952.09 37.5016 1956.19Z" fill="#14181D" fill-rule="nonzero" fill-opacity="1" transform="matrix(1 0 0 -1 5610.5 7877.94)"/><text fill="#14181D" fill-opacity="1" font-family="Arial,Arial_MSFontService,sans-serif" font-style="normal" font-variant="normal" font-weight="400" font-stretch="normal" font-size="147" text-anchor="start" direction="ltr" writing-mode="lr-tb" unicode-bidi="normal" text-decoration="none" transform="matrix(-1.83697e-16 -1 1 -1.83697e-16 5551.23 7199)">Emissions</text><path d="M6178.5 7874.5 6178.5 7913.48" stroke="#14181D" stroke-width="17.1875" stroke-linecap="round" stroke-linejoin="round" stroke-miterlimit="10" stroke-opacity="1" fill="none" fill-rule="evenodd"/><path d="M6512.5 7874.5 6512.5 7913.48" stroke="#14181D" stroke-width="17.1875" stroke-linecap="round" stroke-linejoin="round" stroke-miterlimit="10" stroke-opacity="1" fill="none" fill-rule="evenodd"/><path d="M6844.5 7874.5 6844.5 7913.48" stroke="#14181D" stroke-width="17.1875" stroke-linecap="round" stroke-linejoin="round" stroke-miterlimit="10" stroke-opacity="1" fill="none" fill-rule="evenodd"/><text fill="#14181D" fill-opacity="1" font-family="Arial,Arial_MSFontService,sans-serif" font-style="italic" font-variant="normal" font-weight="400" font-stretch="normal" font-size="128" text-anchor="start" direction="ltr" writing-mode="lr-tb" unicode-bidi="normal" text-decoration="none" transform="matrix(0.707107 -0.707107 0.707107 0.707107 5703.76 8218)">2025</text><text fill="#14181D" fill-opacity="1" font-family="Arial,Arial_MSFontService,sans-serif" font-style="italic" font-variant="normal" font-weight="400" font-stretch="normal" font-size="128" text-anchor="start" direction="ltr" writing-mode="lr-tb" unicode-bidi="normal" text-decoration="none" transform="matrix(0.707107 -0.707107 0.707107 0.707107 6037.74 8218)">2030</text><text fill="#14181D" fill-opacity="1" font-family="Arial,Arial_MSFontService,sans-serif" font-style="italic" font-variant="normal" font-weight="400" font-stretch="normal" font-size="128" text-anchor="start" direction="ltr" writing-mode="lr-tb" unicode-bidi="normal" text-decoration="none" transform="matrix(0.707107 -0.707107 0.707107 0.707107 6371.72 8218)">2035</text><text fill="#14181D" fill-opacity="1" font-family="Arial,Arial_MSFontService,sans-serif" font-style="italic" font-variant="normal" font-weight="400" font-stretch="normal" font-size="128" text-anchor="start" direction="ltr" writing-mode="lr-tb" unicode-bidi="normal" text-decoration="none" transform="matrix(0.707107 -0.707107 0.707107 0.707107 6705.69 8218)">2040</text><text fill="#14181D" fill-opacity="1" font-family="Arial,Arial_MSFontService,sans-serif" font-style="italic" font-variant="normal" font-weight="400" font-stretch="normal" font-size="128" text-anchor="start" direction="ltr" writing-mode="lr-tb" unicode-bidi="normal" text-decoration="none" transform="matrix(0.707107 -0.707107 0.707107 0.707107 7039.67 8218)">2045</text><path d="M5917.5 5358.5C5917.5 5370.1 5883.92 5379.5 5842.5 5379.5 5801.08 5379.5 5767.5 5370.1 5767.5 5358.5 5767.5 5346.9 5801.08 5337.5 5842.5 5337.5 5883.92 5337.5 5917.5 5346.9 5917.5 5358.5Z" stroke="#000000" stroke-width="5.04167" stroke-linecap="butt" stroke-linejoin="miter" stroke-miterlimit="8" stroke-opacity="1" fill="#7A6FAC" fill-rule="evenodd" fill-opacity="1"/><path d="M5896.07 5411.5C5892.86 5411.5 5890.71 5409.4 5890.71 5406.25 5890.71 5403.1 5892.86 5401 5896.07 5401 5899.29 5401 5901.43 5403.1 5901.43 5406.25 5901.43 5409.4 5899.29 5411.5 5896.07 5411.5ZM5842.5 5390.5C5801.25 5390.5 5767.5 5381.05 5767.5 5369.5L5767.5 5411.5C5767.5 5423.05 5801.25 5432.5 5842.5 5432.5 5883.75 5432.5 5917.5 5423.05 5917.5 5411.5L5917.5 5369.5C5917.5 5381.05 5883.75 5390.5 5842.5 5390.5Z" stroke="#000000" stroke-width="5.04167" stroke-linecap="butt" stroke-linejoin="miter" stroke-miterlimit="8" stroke-opacity="1" fill="#7A6FAC" fill-rule="evenodd" fill-opacity="1"/><path d="M5896.07 5463.5C5892.86 5463.5 5890.71 5461.4 5890.71 5458.25 5890.71 5455.1 5892.86 5453 5896.07 5453 5899.29 5453 5901.43 5455.1 5901.43 5458.25 5901.43 5461.4 5899.29 5463.5 5896.07 5463.5ZM5842.5 5442.5C5801.25 5442.5 5767.5 5433.05 5767.5 5421.5L5767.5 5463.5C5767.5 5475.05 5801.25 5484.5 5842.5 5484.5 5883.75 5484.5 5917.5 5475.05 5917.5 5463.5L5917.5 5421.5C5917.5 5433.05 5883.75 5442.5 5842.5 5442.5Z" stroke="#000000" stroke-width="5.04167" stroke-linecap="butt" stroke-linejoin="miter" stroke-miterlimit="8" stroke-opacity="1" fill="#F7A800" fill-rule="evenodd" fill-opacity="1"/><path d="M5896.07 5516.5C5892.86 5516.5 5890.71 5514.4 5890.71 5511.25 5890.71 5508.1 5892.86 5506 5896.07 5506 5899.29 5506 5901.43 5508.1 5901.43 5511.25 5901.43 5514.4 5899.29 5516.5 5896.07 5516.5ZM5842.5 5495.5C5801.25 5495.5 5767.5 5486.05 5767.5 5474.5L5767.5 5516.5C5767.5 5528.05 5801.25 5537.5 5842.5 5537.5 5883.75 5537.5 5917.5 5528.05 5917.5 5516.5L5917.5 5474.5C5917.5 5486.05 5883.75 5495.5 5842.5 5495.5Z" stroke="#000000" stroke-width="5.04167" stroke-linecap="butt" stroke-linejoin="miter" stroke-miterlimit="8" stroke-opacity="1" fill="#58AB27" fill-rule="evenodd" fill-opacity="1"/><path d="M6253.5 5358.5C6253.5 5370.1 6219.92 5379.5 6178.5 5379.5 6137.08 5379.5 6103.5 5370.1 6103.5 5358.5 6103.5 5346.9 6137.08 5337.5 6178.5 5337.5 6219.92 5337.5 6253.5 5346.9 6253.5 5358.5Z" stroke="#000000" stroke-width="5.04167" stroke-linecap="butt" stroke-linejoin="miter" stroke-miterlimit="8" stroke-opacity="1" fill="#8478BE" fill-rule="evenodd" fill-opacity="1"/><path d="M6232.07 5411.5C6228.86 5411.5 6226.71 5409.4 6226.71 5406.25 6226.71 5403.1 6228.86 5401 6232.07 5401 6235.29 5401 6237.43 5403.1 6237.43 5406.25 6237.43 5409.4 6235.29 5411.5 6232.07 5411.5ZM6178.5 5390.5C6137.25 5390.5 6103.5 5381.05 6103.5 5369.5L6103.5 5411.5C6103.5 5423.05 6137.25 5432.5 6178.5 5432.5 6219.75 5432.5 6253.5 5423.05 6253.5 5411.5L6253.5 5369.5C6253.5 5381.05 6219.75 5390.5 6178.5 5390.5Z" stroke="#000000" stroke-width="5.04167" stroke-linecap="butt" stroke-linejoin="miter" stroke-miterlimit="8" stroke-opacity="1" fill="#8478BE" fill-rule="evenodd" fill-opacity="1"/><path d="M6232.07 5463.5C6228.86 5463.5 6226.71 5461.4 6226.71 5458.25 6226.71 5455.1 6228.86 5453 6232.07 5453 6235.29 5453 6237.43 5455.1 6237.43 5458.25 6237.43 5461.4 6235.29 5463.5 6232.07 5463.5ZM6178.5 5442.5C6137.25 5442.5 6103.5 5433.05 6103.5 5421.5L6103.5 5463.5C6103.5 5475.05 6137.25 5484.5 6178.5 5484.5 6219.75 5484.5 6253.5 5475.05 6253.5 5463.5L6253.5 5421.5C6253.5 5433.05 6219.75 5442.5 6178.5 5442.5Z" stroke="#000000" stroke-width="5.04167" stroke-linecap="butt" stroke-linejoin="miter" stroke-miterlimit="8" stroke-opacity="1" fill="#FABE4F" fill-rule="evenodd" fill-opacity="1"/><path d="M6232.07 5516.5C6228.86 5516.5 6226.71 5514.4 6226.71 5511.25 6226.71 5508.1 6228.86 5506 6232.07 5506 6235.29 5506 6237.43 5508.1 6237.43 5511.25 6237.43 5514.4 6235.29 5516.5 6232.07 5516.5ZM6178.5 5495.5C6137.25 5495.5 6103.5 5486.05 6103.5 5474.5L6103.5 5516.5C6103.5 5528.05 6137.25 5537.5 6178.5 5537.5 6219.75 5537.5 6253.5 5528.05 6253.5 5516.5L6253.5 5474.5C6253.5 5486.05 6219.75 5495.5 6178.5 5495.5Z" stroke="#000000" stroke-width="5.04167" stroke-linecap="butt" stroke-linejoin="miter" stroke-miterlimit="8" stroke-opacity="1" fill="#88BA5E" fill-rule="evenodd" fill-opacity="1"/><path d="M6588.5 5358.5C6588.5 5370.1 6555.15 5379.5 6514 5379.5 6472.85 5379.5 6439.5 5370.1 6439.5 5358.5 6439.5 5346.9 6472.85 5337.5 6514 5337.5 6555.15 5337.5 6588.5 5346.9 6588.5 5358.5Z" stroke="#000000" stroke-width="5.04167" stroke-linecap="butt" stroke-linejoin="miter" stroke-miterlimit="8" stroke-opacity="1" fill="#938BBB" fill-rule="evenodd" fill-opacity="1"/><path d="M6567.21 5411.5C6564.02 5411.5 6561.89 5409.4 6561.89 5406.25 6561.89 5403.1 6564.02 5401 6567.21 5401 6570.41 5401 6572.54 5403.1 6572.54 5406.25 6572.54 5409.4 6570.41 5411.5 6567.21 5411.5ZM6514 5390.5C6473.03 5390.5 6439.5 5381.05 6439.5 5369.5L6439.5 5411.5C6439.5 5423.05 6473.03 5432.5 6514 5432.5 6554.98 5432.5 6588.5 5423.05 6588.5 5411.5L6588.5 5369.5C6588.5 5381.05 6554.98 5390.5 6514 5390.5Z" stroke="#000000" stroke-width="5.04167" stroke-linecap="butt" stroke-linejoin="miter" stroke-miterlimit="8" stroke-opacity="1" fill="#938BBB" fill-rule="evenodd" fill-opacity="1"/><path d="M6567.21 5463.5C6564.02 5463.5 6561.89 5461.4 6561.89 5458.25 6561.89 5455.1 6564.02 5453 6567.21 5453 6570.41 5453 6572.54 5455.1 6572.54 5458.25 6572.54 5461.4 6570.41 5463.5 6567.21 5463.5ZM6514 5442.5C6473.03 5442.5 6439.5 5433.05 6439.5 5421.5L6439.5 5463.5C6439.5 5475.05 6473.03 5484.5 6514 5484.5 6554.98 5484.5 6588.5 5475.05 6588.5 5463.5L6588.5 5421.5C6588.5 5433.05 6554.98 5442.5 6514 5442.5Z" stroke="#000000" stroke-width="5.04167" stroke-linecap="butt" stroke-linejoin="miter" stroke-miterlimit="8" stroke-opacity="1" fill="#FFC553" fill-rule="evenodd" fill-opacity="1"/><path d="M6567.21 5516.5C6564.02 5516.5 6561.89 5514.4 6561.89 5511.25 6561.89 5508.1 6564.02 5506 6567.21 5506 6570.41 5506 6572.54 5508.1 6572.54 5511.25 6572.54 5514.4 6570.41 5516.5 6567.21 5516.5ZM6514 5495.5C6473.03 5495.5 6439.5 5486.05 6439.5 5474.5L6439.5 5516.5C6439.5 5528.05 6473.03 5537.5 6514 5537.5 6554.98 5537.5 6588.5 5528.05 6588.5 5516.5L6588.5 5474.5C6588.5 5486.05 6554.98 5495.5 6514 5495.5Z" stroke="#000000" stroke-width="5.04167" stroke-linecap="butt" stroke-linejoin="miter" stroke-miterlimit="8" stroke-opacity="1" fill="#8DC05F" fill-rule="evenodd" fill-opacity="1"/><path d="M6924.5 5358.5C6924.5 5370.1 6890.92 5379.5 6849.5 5379.5 6808.08 5379.5 6774.5 5370.1 6774.5 5358.5 6774.5 5346.9 6808.08 5337.5 6849.5 5337.5 6890.92 5337.5 6924.5 5346.9 6924.5 5358.5Z" stroke="#000000" stroke-width="5.04167" stroke-linecap="butt" stroke-linejoin="miter" stroke-miterlimit="8" stroke-opacity="1" fill="#9B91C2" fill-rule="evenodd" fill-opacity="1"/><path d="M6903.07 5411.5C6899.86 5411.5 6897.71 5409.4 6897.71 5406.25 6897.71 5403.1 6899.86 5401 6903.07 5401 6906.29 5401 6908.43 5403.1 6908.43 5406.25 6908.43 5409.4 6906.29 5411.5 6903.07 5411.5ZM6849.5 5390.5C6808.25 5390.5 6774.5 5381.05 6774.5 5369.5L6774.5 5411.5C6774.5 5423.05 6808.25 5432.5 6849.5 5432.5 6890.75 5432.5 6924.5 5423.05 6924.5 5411.5L6924.5 5369.5C6924.5 5381.05 6890.75 5390.5 6849.5 5390.5Z" stroke="#000000" stroke-width="5.04167" stroke-linecap="butt" stroke-linejoin="miter" stroke-miterlimit="8" stroke-opacity="1" fill="#9B91C2" fill-rule="evenodd" fill-opacity="1"/><path d="M6903.07 5463.5C6899.86 5463.5 6897.71 5461.4 6897.71 5458.25 6897.71 5455.1 6899.86 5453 6903.07 5453 6906.29 5453 6908.43 5455.1 6908.43 5458.25 6908.43 5461.4 6906.29 5463.5 6903.07 5463.5ZM6849.5 5442.5C6808.25 5442.5 6774.5 5433.05 6774.5 5421.5L6774.5 5463.5C6774.5 5475.05 6808.25 5484.5 6849.5 5484.5 6890.75 5484.5 6924.5 5475.05 6924.5 5463.5L6924.5 5421.5C6924.5 5433.05 6890.75 5442.5 6849.5 5442.5Z" stroke="#000000" stroke-width="5.04167" stroke-linecap="butt" stroke-linejoin="miter" stroke-miterlimit="8" stroke-opacity="1" fill="#F4CC8B" fill-rule="evenodd" fill-opacity="1"/><path d="M6903.07 5516.5C6899.86 5516.5 6897.71 5514.4 6897.71 5511.25 6897.71 5508.1 6899.86 5506 6903.07 5506 6906.29 5506 6908.43 5508.1 6908.43 5511.25 6908.43 5514.4 6906.29 5516.5 6903.07 5516.5ZM6849.5 5495.5C6808.25 5495.5 6774.5 5486.05 6774.5 5474.5L6774.5 5516.5C6774.5 5528.05 6808.25 5537.5 6849.5 5537.5 6890.75 5537.5 6924.5 5528.05 6924.5 5516.5L6924.5 5474.5C6924.5 5486.05 6890.75 5495.5 6849.5 5495.5Z" stroke="#000000" stroke-width="5.04167" stroke-linecap="butt" stroke-linejoin="miter" stroke-miterlimit="8" stroke-opacity="1" fill="#A5CB82" fill-rule="evenodd" fill-opacity="1"/><path d="M7260.5 5358.5C7260.5 5370.1 7226.92 5379.5 7185.5 5379.5 7144.08 5379.5 7110.5 5370.1 7110.5 5358.5 7110.5 5346.9 7144.08 5337.5 7185.5 5337.5 7226.92 5337.5 7260.5 5346.9 7260.5 5358.5Z" stroke="#000000" stroke-width="5.04167" stroke-linecap="butt" stroke-linejoin="miter" stroke-miterlimit="8" stroke-opacity="1" fill="#B4A8E1" fill-rule="evenodd" fill-opacity="1"/><path d="M7239.07 5411.5C7235.86 5411.5 7233.71 5409.4 7233.71 5406.25 7233.71 5403.1 7235.86 5401 7239.07 5401 7242.29 5401 7244.43 5403.1 7244.43 5406.25 7244.43 5409.4 7242.29 5411.5 7239.07 5411.5ZM7185.5 5390.5C7144.25 5390.5 7110.5 5381.05 7110.5 5369.5L7110.5 5411.5C7110.5 5423.05 7144.25 5432.5 7185.5 5432.5 7226.75 5432.5 7260.5 5423.05 7260.5 5411.5L7260.5 5369.5C7260.5 5381.05 7226.75 5390.5 7185.5 5390.5Z" stroke="#000000" stroke-width="5.04167" stroke-linecap="butt" stroke-linejoin="miter" stroke-miterlimit="8" stroke-opacity="1" fill="#B4A8E1" fill-rule="evenodd" fill-opacity="1"/><path d="M7239.07 5463.5C7235.86 5463.5 7233.71 5461.4 7233.71 5458.25 7233.71 5455.1 7235.86 5453 7239.07 5453 7242.29 5453 7244.43 5455.1 7244.43 5458.25 7244.43 5461.4 7242.29 5463.5 7239.07 5463.5ZM7185.5 5442.5C7144.25 5442.5 7110.5 5433.05 7110.5 5421.5L7110.5 5463.5C7110.5 5475.05 7144.25 5484.5 7185.5 5484.5 7226.75 5484.5 7260.5 5475.05 7260.5 5463.5L7260.5 5421.5C7260.5 5433.05 7226.75 5442.5 7185.5 5442.5Z" stroke="#000000" stroke-width="5.04167" stroke-linecap="butt" stroke-linejoin="miter" stroke-miterlimit="8" stroke-opacity="1" fill="#FED48F" fill-rule="evenodd" fill-opacity="1"/><path d="M7239.07 5516.5C7235.86 5516.5 7233.71 5514.4 7233.71 5511.25 7233.71 5508.1 7235.86 5506 7239.07 5506 7242.29 5506 7244.43 5508.1 7244.43 5511.25 7244.43 5514.4 7242.29 5516.5 7239.07 5516.5ZM7185.5 5495.5C7144.25 5495.5 7110.5 5486.05 7110.5 5474.5L7110.5 5516.5C7110.5 5528.05 7144.25 5537.5 7185.5 5537.5 7226.75 5537.5 7260.5 5528.05 7260.5 5516.5L7260.5 5474.5C7260.5 5486.05 7226.75 5495.5 7185.5 5495.5Z" stroke="#000000" stroke-width="5.04167" stroke-linecap="butt" stroke-linejoin="miter" stroke-miterlimit="8" stroke-opacity="1" fill="#C4E3A6" fill-rule="evenodd" fill-opacity="1"/><text fill="#14181D" fill-opacity="1" font-family="Arial,Arial_MSFontService,sans-serif" font-style="italic" font-variant="normal" font-weight="400" font-stretch="normal" font-size="128" text-anchor="start" direction="ltr" writing-mode="lr-tb" unicode-bidi="normal" text-decoration="none" transform="matrix(1 0 0 1 5706.13 5687)">2025</text><text fill="#14181D" fill-opacity="1" font-family="Arial,Arial_MSFontService,sans-serif" font-style="italic" font-variant="normal" font-weight="400" font-stretch="normal" font-size="128" text-anchor="start" direction="ltr" writing-mode="lr-tb" unicode-bidi="normal" text-decoration="none" transform="matrix(1 0 0 1 6042.91 5687)">2030</text><text fill="#14181D" fill-opacity="1" font-family="Arial,Arial_MSFontService,sans-serif" font-style="italic" font-variant="normal" font-weight="400" font-stretch="normal" font-size="128" text-anchor="start" direction="ltr" writing-mode="lr-tb" unicode-bidi="normal" text-decoration="none" transform="matrix(1 0 0 1 6379.7 5687)">2035</text><text fill="#14181D" fill-opacity="1" font-family="Arial,Arial_MSFontService,sans-serif" font-style="italic" font-variant="normal" font-weight="400" font-stretch="normal" font-size="128" text-anchor="start" direction="ltr" writing-mode="lr-tb" unicode-bidi="normal" text-decoration="none" transform="matrix(1 0 0 1 6716.48 5687)">2040</text><text fill="#14181D" fill-opacity="1" font-family="Arial,Arial_MSFontService,sans-serif" font-style="italic" font-variant="normal" font-weight="400" font-stretch="normal" font-size="128" text-anchor="start" direction="ltr" writing-mode="lr-tb" unicode-bidi="normal" text-decoration="none" transform="matrix(1 0 0 1 7053.27 5687)">2045</text><text fill="#14181D" fill-opacity="1" font-family="Arial,Arial_MSFontService,sans-serif" font-style="italic" font-variant="normal" font-weight="400" font-stretch="normal" font-size="147" text-anchor="start" direction="ltr" writing-mode="lr-tb" unicode-bidi="normal" text-decoration="none" transform="matrix(1 0 0 1 5753.93 5276)">LCI data:</text><rect x="6044" y="5302" width="1407" height="418" fill="#FFFFFF" fill-opacity="0.819608"/><path d="M818.441 263.646 829.3 285.493 839.951 308.178 850.301 331.505 860.345 355.456 870.081 380.013 879.507 405.16 888.618 430.879 897.413 457.152 905.888 483.962 914.04 511.292 921.866 539.123 929.362 567.439 936.525 596.223 943.353 625.455 949.841 655.12 955.987 685.199 961.786 715.675 967.237 746.531 977.068 809.255 985.471 873.342 992.409 938.595 995.324 971.666 997.858 1004.92 1000.01 1038.4 1001.78 1072.08 1003.16 1105.95 1004.16 1139.99 1004.75 1174.18 1004.88 1195.09C1004.9 1199.84 1001.08 1203.71 996.332 1203.73 991.586 1203.76 987.716 1199.94 987.688 1195.19L987.568 1174.48 986.975 1140.49 985.99 1106.65 984.617 1072.99 982.859 1039.51 980.72 1006.23 978.203 973.174 975.317 940.411 968.429 875.576 960.088 811.917 950.311 749.52 944.902 718.888 939.147 688.639 933.05 658.792 926.616 629.364 919.846 600.373 912.747 571.837 905.32 543.775 897.569 516.204 889.5 489.142 881.114 462.607 872.417 436.618 863.412 411.192 854.103 386.347 844.494 362.102 834.589 338.474 824.393 315.481 813.909 293.143 803.05 271.296C800.937 267.046 802.67 261.888 806.92 259.776 811.17 257.663 816.328 259.396 818.441 263.646ZM1045.58 1148.79 996.36 1208.56 946.444 1149.37C943.384 1145.74 943.845 1140.32 947.473 1137.26 951.102 1134.2 956.523 1134.66 959.583 1138.29L1002.85 1189.6 989.648 1189.68 1032.32 1137.86C1035.33 1134.2 1040.75 1133.68 1044.41 1136.69 1048.08 1139.71 1048.6 1145.13 1045.58 1148.79Z" fill="#14181D" fill-rule="nonzero" fill-opacity="1" transform="matrix(-0.790716 0.612183 0.612183 0.790716 6344.06 5039.65)"/><text fill="#14181D" fill-opacity="1" font-family="Arial,Arial_MSFontService,sans-serif" font-style="italic" font-variant="normal" font-weight="700" font-stretch="normal" font-size="128" text-anchor="start" direction="ltr" writing-mode="lr-tb" unicode-bidi="normal" text-decoration="none" transform="matrix(1 0 0 1 6061.43 6068)">‘Dynamic’ </text><text fill="#14181D" fill-opacity="1" font-family="Arial,Arial_MSFontService,sans-serif" font-style="italic" font-variant="normal" font-weight="700" font-stretch="normal" font-size="128" text-anchor="start" direction="ltr" writing-mode="lr-tb" unicode-bidi="normal" text-decoration="none" transform="matrix(1 0 0 1 6096.95 6222)">LCA</text><path d="M344.5 5212.81C344.5 5042.53 482.535 4904.5 652.809 4904.5L4440.19 4904.5C4610.47 4904.5 4748.5 5042.53 4748.5 5212.81L4748.5 7974.19C4748.5 8144.47 4610.47 8282.5 4440.19 8282.5L652.809 8282.5C482.535 8282.5 344.5 8144.47 344.5 7974.19Z" stroke="#3FB0C4" stroke-width="20.625" stroke-linecap="butt" stroke-linejoin="round" stroke-miterlimit="10" stroke-opacity="1" fill="#FFFFFF" fill-rule="evenodd" fill-opacity="1"/><text fill="#14181D" fill-opacity="1" font-family="Arial,Arial_MSFontService,sans-serif" font-style="italic" font-variant="normal" font-weight="400" font-stretch="normal" font-size="128" text-anchor="start" direction="ltr" writing-mode="lr-tb" unicode-bidi="normal" text-decoration="none" transform="matrix(0.707107 -0.707107 0.707107 0.707107 2890.37 8211)">2025</text><text fill="#14181D" fill-opacity="1" font-family="Arial,Arial_MSFontService,sans-serif" font-style="italic" font-variant="normal" font-weight="400" font-stretch="normal" font-size="128" text-anchor="start" direction="ltr" writing-mode="lr-tb" unicode-bidi="normal" text-decoration="none" transform="matrix(0.707107 -0.707107 0.707107 0.707107 3224.35 8211)">2030</text><text fill="#14181D" fill-opacity="1" font-family="Arial,Arial_MSFontService,sans-serif" font-style="italic" font-variant="normal" font-weight="400" font-stretch="normal" font-size="128" text-anchor="start" direction="ltr" writing-mode="lr-tb" unicode-bidi="normal" text-decoration="none" transform="matrix(0.707107 -0.707107 0.707107 0.707107 3558.33 8211)">2035</text><text fill="#14181D" fill-opacity="1" font-family="Arial,Arial_MSFontService,sans-serif" font-style="italic" font-variant="normal" font-weight="400" font-stretch="normal" font-size="128" text-anchor="start" direction="ltr" writing-mode="lr-tb" unicode-bidi="normal" text-decoration="none" transform="matrix(0.707107 -0.707107 0.707107 0.707107 3892.31 8211)">2040</text><text fill="#14181D" fill-opacity="1" font-family="Arial,Arial_MSFontService,sans-serif" font-style="italic" font-variant="normal" font-weight="400" font-stretch="normal" font-size="128" text-anchor="start" direction="ltr" writing-mode="lr-tb" unicode-bidi="normal" text-decoration="none" transform="matrix(0.707107 -0.707107 0.707107 0.707107 4226.28 8211)">2045</text><path d="M1510 4811.66C1510 4752.2 1558.2 4704 1617.66 4704L3402.34 4704C3461.8 4704 3510 4752.2 3510 4811.66L3510 4986.34C3510 5045.8 3461.8 5094 3402.34 5094L1617.66 5094C1558.2 5094 1510 5045.8 1510 4986.34Z" fill="#3FB0C4" fill-rule="evenodd" fill-opacity="1"/><text fill="#FFFFFF" fill-opacity="1" font-family="Arial,Arial_MSFontService,sans-serif" font-style="normal" font-variant="normal" font-weight="400" font-stretch="normal" font-size="202" text-anchor="start" direction="ltr" writing-mode="lr-tb" unicode-bidi="normal" text-decoration="none" transform="matrix(1 0 0 1 1723.72 4974)">Time</text><text fill="#FFFFFF" fill-opacity="1" font-family="Arial,Arial_MSFontService,sans-serif" font-style="normal" font-variant="normal" font-weight="400" font-stretch="normal" font-size="202" text-anchor="start" direction="ltr" writing-mode="lr-tb" unicode-bidi="normal" text-decoration="none" transform="matrix(1 0 0 1 2164.24 4974)">-</text><text fill="#FFFFFF" fill-opacity="1" font-family="Arial,Arial_MSFontService,sans-serif" font-style="normal" font-variant="normal" font-weight="400" font-stretch="normal" font-size="202" text-anchor="start" direction="ltr" writing-mode="lr-tb" unicode-bidi="normal" text-decoration="none" transform="matrix(1 0 0 1 2231.28 4974)">explicit LCA</text><text fill="#14181D" fill-opacity="1" font-family="Arial,Arial_MSFontService,sans-serif" font-style="italic" font-variant="normal" font-weight="400" font-stretch="normal" font-size="147" text-anchor="start" direction="ltr" writing-mode="lr-tb" unicode-bidi="normal" text-decoration="none" transform="matrix(1 0 0 1 2941.79 5269)">LCI data:</text><rect x="3925" y="6725" width="210" height="142" stroke="#14181D" stroke-width="10.0833" stroke-linecap="butt" stroke-linejoin="round" stroke-miterlimit="10" stroke-opacity="1" fill="#FFE5B2" fill-opacity="1"/><text fill="#14181D" fill-opacity="1" font-family="Arial,Arial_MSFontService,sans-serif" font-style="normal" font-variant="normal" font-weight="400" font-stretch="normal" font-size="83" text-anchor="start" direction="ltr" writing-mode="lr-tb" unicode-bidi="normal" text-decoration="none" transform="matrix(6.12323e-17 -1 1 6.12323e-17 4060.9 6859)">Use</text><path d="M4153 6726 4270.2 6726" stroke="#7F7F7F" stroke-width="10.0833" stroke-linecap="butt" stroke-linejoin="round" stroke-miterlimit="10" stroke-dasharray="40.3333 30.25" stroke-opacity="1" fill="none" fill-rule="evenodd"/><path d="M3797 6864 3914.2 6864" stroke="#7F7F7F" stroke-width="10.0833" stroke-linecap="butt" stroke-linejoin="round" stroke-miterlimit="10" stroke-dasharray="40.3333 30.25" stroke-opacity="1" fill="none" fill-rule="evenodd"/><path d="M3461 7085 3624.74 7085" stroke="#7F7F7F" stroke-width="10.0833" stroke-linecap="butt" stroke-linejoin="round" stroke-miterlimit="10" stroke-dasharray="40.3333 30.25" stroke-opacity="1" fill="none" fill-rule="evenodd"/><path d="M3124 7399 3287.74 7399" stroke="#7F7F7F" stroke-width="10.0833" stroke-linecap="butt" stroke-linejoin="round" stroke-miterlimit="10" stroke-dasharray="40.3333 30.25" stroke-opacity="1" fill="none" fill-rule="evenodd"/><rect x="3259" y="7085" width="211" height="314" stroke="#14181D" stroke-width="10.0833" stroke-linecap="butt" stroke-linejoin="round" stroke-miterlimit="10" stroke-opacity="1" fill="#FABE4F" fill-opacity="1"/><text fill="#14181D" fill-opacity="1" font-family="Arial,Arial_MSFontService,sans-serif" font-style="normal" font-variant="normal" font-weight="400" font-stretch="normal" font-size="128" text-anchor="start" direction="ltr" writing-mode="lr-tb" unicode-bidi="normal" text-decoration="none" transform="matrix(6.12323e-17 -1 1 6.12323e-17 3412.52 7356)">Use</text><rect x="3593" y="6864" width="210" height="221" stroke="#14181D" stroke-width="10.0833" stroke-linecap="butt" stroke-linejoin="round" stroke-miterlimit="10" stroke-opacity="1" fill="#FFD48F" fill-opacity="1"/><text fill="#14181D" fill-opacity="1" font-family="Arial Narrow,Arial Narrow_MSFontService,sans-serif" font-style="normal" font-variant="normal" font-weight="400" font-stretch="condensed" font-size="115" text-anchor="start" direction="ltr" writing-mode="lr-tb" unicode-bidi="normal" text-decoration="none" transform="matrix(6.12323e-17 -1 1 6.12323e-17 3741.61 7058)">Use</text><path d="M3033.5 7868.5 3033.5 7907.48" stroke="#14181D" stroke-width="17.1875" stroke-linecap="round" stroke-linejoin="round" stroke-miterlimit="10" stroke-opacity="1" fill="none" fill-rule="evenodd"/><path d="M4362.5 7868.5 4362.5 7907.48" stroke="#14181D" stroke-width="17.1875" stroke-linecap="round" stroke-linejoin="round" stroke-miterlimit="10" stroke-opacity="1" fill="none" fill-rule="evenodd"/><rect x="2929" y="7399" width="209" height="467" stroke="#14181D" stroke-width="10.0833" stroke-linecap="butt" stroke-linejoin="round" stroke-miterlimit="10" stroke-opacity="1" fill="#58AB27" fill-opacity="1"/><text fill="#14181D" fill-opacity="1" font-family="Arial,Arial_MSFontService,sans-serif" font-style="normal" font-variant="normal" font-weight="400" font-stretch="normal" font-size="128" text-anchor="start" direction="ltr" writing-mode="lr-tb" unicode-bidi="normal" text-decoration="none" transform="matrix(6.12323e-17 -1 1 6.12323e-17 3081.48 7786)">Prod</text><text fill="#14181D" fill-opacity="1" font-family="Arial,Arial_MSFontService,sans-serif" font-style="normal" font-variant="normal" font-weight="400" font-stretch="normal" font-size="128" text-anchor="start" direction="ltr" writing-mode="lr-tb" unicode-bidi="normal" text-decoration="none" transform="matrix(6.12323e-17 -1 1 6.12323e-17 3081.48 7515)">.</text><path d="M2797.5 7857.91 4590.51 7857.91 4590.51 7875.09 2797.5 7875.09ZM4543.28 7829 4607.56 7866.5 4543.28 7904 4543.28 7904C4539.18 7906.39 4533.91 7905.01 4531.52 7900.91 4529.13 7896.81 4530.52 7891.55 4534.61 7889.16L4586.18 7859.08 4586.18 7873.92 4534.62 7843.85C4530.52 7841.45 4529.13 7836.19 4531.52 7832.09 4533.91 7827.99 4539.18 7826.61 4543.28 7829Z" fill="#14181D" fill-rule="nonzero" fill-opacity="1"/><path d="M8.59375-1.53502e-06 8.59411 2003.43-8.59339 2003.43-8.59375 1.53502e-06ZM37.5016 1956.19 0.000372564 2020.48-37.5009 1956.19C-39.8923 1952.09-38.5076 1946.83-34.4079 1944.44-30.3083 1942.05-25.0462 1943.43-22.6547 1947.53L7.42345 1999.1-7.42274 1999.1 22.6554 1947.53C25.0468 1943.43 30.3089 1942.05 34.4086 1944.44 38.5083 1946.83 39.893 1952.09 37.5016 1956.19Z" fill="#14181D" fill-rule="nonzero" fill-opacity="1" transform="matrix(1 0 0 -1 2797.5 7870.94)"/><text fill="#14181D" fill-opacity="1" font-family="Arial,Arial_MSFontService,sans-serif" font-style="normal" font-variant="normal" font-weight="400" font-stretch="normal" font-size="147" text-anchor="start" direction="ltr" writing-mode="lr-tb" unicode-bidi="normal" text-decoration="none" transform="matrix(-1.83697e-16 -1 1 -1.83697e-16 2737.84 7192)">Emissions</text><path d="M3365.5 7868.5 3365.5 7907.48" stroke="#14181D" stroke-width="17.1875" stroke-linecap="round" stroke-linejoin="round" stroke-miterlimit="10" stroke-opacity="1" fill="none" fill-rule="evenodd"/><path d="M3698.5 7868.5 3698.5 7907.48" stroke="#14181D" stroke-width="17.1875" stroke-linecap="round" stroke-linejoin="round" stroke-miterlimit="10" stroke-opacity="1" fill="none" fill-rule="evenodd"/><path d="M4030.5 7868.5 4030.5 7907.48" stroke="#14181D" stroke-width="17.1875" stroke-linecap="round" stroke-linejoin="round" stroke-miterlimit="10" stroke-opacity="1" fill="none" fill-rule="evenodd"/><path d="M3104.5 5351.5C3104.5 5363.1 3070.92 5372.5 3029.5 5372.5 2988.08 5372.5 2954.5 5363.1 2954.5 5351.5 2954.5 5339.9 2988.08 5330.5 3029.5 5330.5 3070.92 5330.5 3104.5 5339.9 3104.5 5351.5Z" stroke="#000000" stroke-width="5.04167" stroke-linecap="butt" stroke-linejoin="miter" stroke-miterlimit="8" stroke-opacity="1" fill="#7A6FAC" fill-rule="evenodd" fill-opacity="1"/><path d="M3083.07 5404.5C3079.86 5404.5 3077.71 5402.4 3077.71 5399.25 3077.71 5396.1 3079.86 5394 3083.07 5394 3086.29 5394 3088.43 5396.1 3088.43 5399.25 3088.43 5402.4 3086.29 5404.5 3083.07 5404.5ZM3029.5 5383.5C2988.25 5383.5 2954.5 5374.05 2954.5 5362.5L2954.5 5404.5C2954.5 5416.05 2988.25 5425.5 3029.5 5425.5 3070.75 5425.5 3104.5 5416.05 3104.5 5404.5L3104.5 5362.5C3104.5 5374.05 3070.75 5383.5 3029.5 5383.5Z" stroke="#000000" stroke-width="5.04167" stroke-linecap="butt" stroke-linejoin="miter" stroke-miterlimit="8" stroke-opacity="1" fill="#7A6FAC" fill-rule="evenodd" fill-opacity="1"/><path d="M3083.07 5456.5C3079.86 5456.5 3077.71 5454.4 3077.71 5451.25 3077.71 5448.1 3079.86 5446 3083.07 5446 3086.29 5446 3088.43 5448.1 3088.43 5451.25 3088.43 5454.4 3086.29 5456.5 3083.07 5456.5ZM3029.5 5435.5C2988.25 5435.5 2954.5 5426.05 2954.5 5414.5L2954.5 5456.5C2954.5 5468.05 2988.25 5477.5 3029.5 5477.5 3070.75 5477.5 3104.5 5468.05 3104.5 5456.5L3104.5 5414.5C3104.5 5426.05 3070.75 5435.5 3029.5 5435.5Z" stroke="#000000" stroke-width="5.04167" stroke-linecap="butt" stroke-linejoin="miter" stroke-miterlimit="8" stroke-opacity="1" fill="#F7A800" fill-rule="evenodd" fill-opacity="1"/><path d="M3083.07 5509.5C3079.86 5509.5 3077.71 5507.4 3077.71 5504.25 3077.71 5501.1 3079.86 5499 3083.07 5499 3086.29 5499 3088.43 5501.1 3088.43 5504.25 3088.43 5507.4 3086.29 5509.5 3083.07 5509.5ZM3029.5 5488.5C2988.25 5488.5 2954.5 5479.05 2954.5 5467.5L2954.5 5509.5C2954.5 5521.05 2988.25 5530.5 3029.5 5530.5 3070.75 5530.5 3104.5 5521.05 3104.5 5509.5L3104.5 5467.5C3104.5 5479.05 3070.75 5488.5 3029.5 5488.5Z" stroke="#000000" stroke-width="5.04167" stroke-linecap="butt" stroke-linejoin="miter" stroke-miterlimit="8" stroke-opacity="1" fill="#58AB27" fill-rule="evenodd" fill-opacity="1"/><path d="M3439.5 5351.5C3439.5 5363.1 3406.15 5372.5 3365 5372.5 3323.85 5372.5 3290.5 5363.1 3290.5 5351.5 3290.5 5339.9 3323.85 5330.5 3365 5330.5 3406.15 5330.5 3439.5 5339.9 3439.5 5351.5Z" stroke="#000000" stroke-width="5.04167" stroke-linecap="butt" stroke-linejoin="miter" stroke-miterlimit="8" stroke-opacity="1" fill="#8478BE" fill-rule="evenodd" fill-opacity="1"/><path d="M3418.21 5404.5C3415.02 5404.5 3412.89 5402.4 3412.89 5399.25 3412.89 5396.1 3415.02 5394 3418.21 5394 3421.41 5394 3423.54 5396.1 3423.54 5399.25 3423.54 5402.4 3421.41 5404.5 3418.21 5404.5ZM3365 5383.5C3324.02 5383.5 3290.5 5374.05 3290.5 5362.5L3290.5 5404.5C3290.5 5416.05 3324.02 5425.5 3365 5425.5 3405.98 5425.5 3439.5 5416.05 3439.5 5404.5L3439.5 5362.5C3439.5 5374.05 3405.98 5383.5 3365 5383.5Z" stroke="#000000" stroke-width="5.04167" stroke-linecap="butt" stroke-linejoin="miter" stroke-miterlimit="8" stroke-opacity="1" fill="#8478BE" fill-rule="evenodd" fill-opacity="1"/><path d="M3418.21 5456.5C3415.02 5456.5 3412.89 5454.4 3412.89 5451.25 3412.89 5448.1 3415.02 5446 3418.21 5446 3421.41 5446 3423.54 5448.1 3423.54 5451.25 3423.54 5454.4 3421.41 5456.5 3418.21 5456.5ZM3365 5435.5C3324.02 5435.5 3290.5 5426.05 3290.5 5414.5L3290.5 5456.5C3290.5 5468.05 3324.02 5477.5 3365 5477.5 3405.98 5477.5 3439.5 5468.05 3439.5 5456.5L3439.5 5414.5C3439.5 5426.05 3405.98 5435.5 3365 5435.5Z" stroke="#000000" stroke-width="5.04167" stroke-linecap="butt" stroke-linejoin="miter" stroke-miterlimit="8" stroke-opacity="1" fill="#FABE4F" fill-rule="evenodd" fill-opacity="1"/><path d="M3418.21 5509.5C3415.02 5509.5 3412.89 5507.4 3412.89 5504.25 3412.89 5501.1 3415.02 5499 3418.21 5499 3421.41 5499 3423.54 5501.1 3423.54 5504.25 3423.54 5507.4 3421.41 5509.5 3418.21 5509.5ZM3365 5488.5C3324.02 5488.5 3290.5 5479.05 3290.5 5467.5L3290.5 5509.5C3290.5 5521.05 3324.02 5530.5 3365 5530.5 3405.98 5530.5 3439.5 5521.05 3439.5 5509.5L3439.5 5467.5C3439.5 5479.05 3405.98 5488.5 3365 5488.5Z" stroke="#000000" stroke-width="5.04167" stroke-linecap="butt" stroke-linejoin="miter" stroke-miterlimit="8" stroke-opacity="1" fill="#88BA5E" fill-rule="evenodd" fill-opacity="1"/><path d="M3775.5 5351.5C3775.5 5363.1 3741.92 5372.5 3700.5 5372.5 3659.08 5372.5 3625.5 5363.1 3625.5 5351.5 3625.5 5339.9 3659.08 5330.5 3700.5 5330.5 3741.92 5330.5 3775.5 5339.9 3775.5 5351.5Z" stroke="#000000" stroke-width="5.04167" stroke-linecap="butt" stroke-linejoin="miter" stroke-miterlimit="8" stroke-opacity="1" fill="#938BBB" fill-rule="evenodd" fill-opacity="1"/><path d="M3754.07 5404.5C3750.86 5404.5 3748.71 5402.4 3748.71 5399.25 3748.71 5396.1 3750.86 5394 3754.07 5394 3757.29 5394 3759.43 5396.1 3759.43 5399.25 3759.43 5402.4 3757.29 5404.5 3754.07 5404.5ZM3700.5 5383.5C3659.25 5383.5 3625.5 5374.05 3625.5 5362.5L3625.5 5404.5C3625.5 5416.05 3659.25 5425.5 3700.5 5425.5 3741.75 5425.5 3775.5 5416.05 3775.5 5404.5L3775.5 5362.5C3775.5 5374.05 3741.75 5383.5 3700.5 5383.5Z" stroke="#000000" stroke-width="5.04167" stroke-linecap="butt" stroke-linejoin="miter" stroke-miterlimit="8" stroke-opacity="1" fill="#938BBB" fill-rule="evenodd" fill-opacity="1"/><path d="M3754.07 5456.5C3750.86 5456.5 3748.71 5454.4 3748.71 5451.25 3748.71 5448.1 3750.86 5446 3754.07 5446 3757.29 5446 3759.43 5448.1 3759.43 5451.25 3759.43 5454.4 3757.29 5456.5 3754.07 5456.5ZM3700.5 5435.5C3659.25 5435.5 3625.5 5426.05 3625.5 5414.5L3625.5 5456.5C3625.5 5468.05 3659.25 5477.5 3700.5 5477.5 3741.75 5477.5 3775.5 5468.05 3775.5 5456.5L3775.5 5414.5C3775.5 5426.05 3741.75 5435.5 3700.5 5435.5Z" stroke="#000000" stroke-width="5.04167" stroke-linecap="butt" stroke-linejoin="miter" stroke-miterlimit="8" stroke-opacity="1" fill="#FFC553" fill-rule="evenodd" fill-opacity="1"/><path d="M3754.07 5509.5C3750.86 5509.5 3748.71 5507.4 3748.71 5504.25 3748.71 5501.1 3750.86 5499 3754.07 5499 3757.29 5499 3759.43 5501.1 3759.43 5504.25 3759.43 5507.4 3757.29 5509.5 3754.07 5509.5ZM3700.5 5488.5C3659.25 5488.5 3625.5 5479.05 3625.5 5467.5L3625.5 5509.5C3625.5 5521.05 3659.25 5530.5 3700.5 5530.5 3741.75 5530.5 3775.5 5521.05 3775.5 5509.5L3775.5 5467.5C3775.5 5479.05 3741.75 5488.5 3700.5 5488.5Z" stroke="#000000" stroke-width="5.04167" stroke-linecap="butt" stroke-linejoin="miter" stroke-miterlimit="8" stroke-opacity="1" fill="#8DC05F" fill-rule="evenodd" fill-opacity="1"/><path d="M4110.5 5351.5C4110.5 5363.1 4077.15 5372.5 4036 5372.5 3994.85 5372.5 3961.5 5363.1 3961.5 5351.5 3961.5 5339.9 3994.85 5330.5 4036 5330.5 4077.15 5330.5 4110.5 5339.9 4110.5 5351.5Z" stroke="#000000" stroke-width="5.04167" stroke-linecap="butt" stroke-linejoin="miter" stroke-miterlimit="8" stroke-opacity="1" fill="#9B91C2" fill-rule="evenodd" fill-opacity="1"/><path d="M4089.21 5404.5C4086.02 5404.5 4083.89 5402.4 4083.89 5399.25 4083.89 5396.1 4086.02 5394 4089.21 5394 4092.41 5394 4094.54 5396.1 4094.54 5399.25 4094.54 5402.4 4092.41 5404.5 4089.21 5404.5ZM4036 5383.5C3995.02 5383.5 3961.5 5374.05 3961.5 5362.5L3961.5 5404.5C3961.5 5416.05 3995.02 5425.5 4036 5425.5 4076.98 5425.5 4110.5 5416.05 4110.5 5404.5L4110.5 5362.5C4110.5 5374.05 4076.98 5383.5 4036 5383.5Z" stroke="#000000" stroke-width="5.04167" stroke-linecap="butt" stroke-linejoin="miter" stroke-miterlimit="8" stroke-opacity="1" fill="#9B91C2" fill-rule="evenodd" fill-opacity="1"/><path d="M4089.21 5456.5C4086.02 5456.5 4083.89 5454.4 4083.89 5451.25 4083.89 5448.1 4086.02 5446 4089.21 5446 4092.41 5446 4094.54 5448.1 4094.54 5451.25 4094.54 5454.4 4092.41 5456.5 4089.21 5456.5ZM4036 5435.5C3995.02 5435.5 3961.5 5426.05 3961.5 5414.5L3961.5 5456.5C3961.5 5468.05 3995.02 5477.5 4036 5477.5 4076.98 5477.5 4110.5 5468.05 4110.5 5456.5L4110.5 5414.5C4110.5 5426.05 4076.98 5435.5 4036 5435.5Z" stroke="#000000" stroke-width="5.04167" stroke-linecap="butt" stroke-linejoin="miter" stroke-miterlimit="8" stroke-opacity="1" fill="#F4CC8B" fill-rule="evenodd" fill-opacity="1"/><path d="M4089.21 5509.5C4086.02 5509.5 4083.89 5507.4 4083.89 5504.25 4083.89 5501.1 4086.02 5499 4089.21 5499 4092.41 5499 4094.54 5501.1 4094.54 5504.25 4094.54 5507.4 4092.41 5509.5 4089.21 5509.5ZM4036 5488.5C3995.02 5488.5 3961.5 5479.05 3961.5 5467.5L3961.5 5509.5C3961.5 5521.05 3995.02 5530.5 4036 5530.5 4076.98 5530.5 4110.5 5521.05 4110.5 5509.5L4110.5 5467.5C4110.5 5479.05 4076.98 5488.5 4036 5488.5Z" stroke="#000000" stroke-width="5.04167" stroke-linecap="butt" stroke-linejoin="miter" stroke-miterlimit="8" stroke-opacity="1" fill="#A5CB82" fill-rule="evenodd" fill-opacity="1"/><path d="M4446.5 5351.5C4446.5 5363.1 4412.92 5372.5 4371.5 5372.5 4330.08 5372.5 4296.5 5363.1 4296.5 5351.5 4296.5 5339.9 4330.08 5330.5 4371.5 5330.5 4412.92 5330.5 4446.5 5339.9 4446.5 5351.5Z" stroke="#000000" stroke-width="5.04167" stroke-linecap="butt" stroke-linejoin="miter" stroke-miterlimit="8" stroke-opacity="1" fill="#B4A8E1" fill-rule="evenodd" fill-opacity="1"/><path d="M4425.07 5404.5C4421.86 5404.5 4419.71 5402.4 4419.71 5399.25 4419.71 5396.1 4421.86 5394 4425.07 5394 4428.29 5394 4430.43 5396.1 4430.43 5399.25 4430.43 5402.4 4428.29 5404.5 4425.07 5404.5ZM4371.5 5383.5C4330.25 5383.5 4296.5 5374.05 4296.5 5362.5L4296.5 5404.5C4296.5 5416.05 4330.25 5425.5 4371.5 5425.5 4412.75 5425.5 4446.5 5416.05 4446.5 5404.5L4446.5 5362.5C4446.5 5374.05 4412.75 5383.5 4371.5 5383.5Z" stroke="#000000" stroke-width="5.04167" stroke-linecap="butt" stroke-linejoin="miter" stroke-miterlimit="8" stroke-opacity="1" fill="#B4A8E1" fill-rule="evenodd" fill-opacity="1"/><path d="M4425.07 5456.5C4421.86 5456.5 4419.71 5454.4 4419.71 5451.25 4419.71 5448.1 4421.86 5446 4425.07 5446 4428.29 5446 4430.43 5448.1 4430.43 5451.25 4430.43 5454.4 4428.29 5456.5 4425.07 5456.5ZM4371.5 5435.5C4330.25 5435.5 4296.5 5426.05 4296.5 5414.5L4296.5 5456.5C4296.5 5468.05 4330.25 5477.5 4371.5 5477.5 4412.75 5477.5 4446.5 5468.05 4446.5 5456.5L4446.5 5414.5C4446.5 5426.05 4412.75 5435.5 4371.5 5435.5Z" stroke="#000000" stroke-width="5.04167" stroke-linecap="butt" stroke-linejoin="miter" stroke-miterlimit="8" stroke-opacity="1" fill="#FED48F" fill-rule="evenodd" fill-opacity="1"/><path d="M4425.07 5509.5C4421.86 5509.5 4419.71 5507.4 4419.71 5504.25 4419.71 5501.1 4421.86 5499 4425.07 5499 4428.29 5499 4430.43 5501.1 4430.43 5504.25 4430.43 5507.4 4428.29 5509.5 4425.07 5509.5ZM4371.5 5488.5C4330.25 5488.5 4296.5 5479.05 4296.5 5467.5L4296.5 5509.5C4296.5 5521.05 4330.25 5530.5 4371.5 5530.5 4412.75 5530.5 4446.5 5521.05 4446.5 5509.5L4446.5 5467.5C4446.5 5479.05 4412.75 5488.5 4371.5 5488.5Z" stroke="#000000" stroke-width="5.04167" stroke-linecap="butt" stroke-linejoin="miter" stroke-miterlimit="8" stroke-opacity="1" fill="#C4E3A6" fill-rule="evenodd" fill-opacity="1"/><text fill="#14181D" fill-opacity="1" font-family="Arial,Arial_MSFontService,sans-serif" font-style="italic" font-variant="normal" font-weight="400" font-stretch="normal" font-size="128" text-anchor="start" direction="ltr" writing-mode="lr-tb" unicode-bidi="normal" text-decoration="none" transform="matrix(1 0 0 1 2892.74 5680)">2025</text><text fill="#14181D" fill-opacity="1" font-family="Arial,Arial_MSFontService,sans-serif" font-style="italic" font-variant="normal" font-weight="400" font-stretch="normal" font-size="128" text-anchor="start" direction="ltr" writing-mode="lr-tb" unicode-bidi="normal" text-decoration="none" transform="matrix(1 0 0 1 3229.53 5680)">2030</text><text fill="#14181D" fill-opacity="1" font-family="Arial,Arial_MSFontService,sans-serif" font-style="italic" font-variant="normal" font-weight="400" font-stretch="normal" font-size="128" text-anchor="start" direction="ltr" writing-mode="lr-tb" unicode-bidi="normal" text-decoration="none" transform="matrix(1 0 0 1 3566.31 5680)">2035</text><text fill="#14181D" fill-opacity="1" font-family="Arial,Arial_MSFontService,sans-serif" font-style="italic" font-variant="normal" font-weight="400" font-stretch="normal" font-size="128" text-anchor="start" direction="ltr" writing-mode="lr-tb" unicode-bidi="normal" text-decoration="none" transform="matrix(1 0 0 1 3903.09 5680)">2040</text><text fill="#14181D" fill-opacity="1" font-family="Arial,Arial_MSFontService,sans-serif" font-style="italic" font-variant="normal" font-weight="400" font-stretch="normal" font-size="128" text-anchor="start" direction="ltr" writing-mode="lr-tb" unicode-bidi="normal" text-decoration="none" transform="matrix(1 0 0 1 4239.88 5680)">2045</text><rect x="4257" y="6554" width="210" height="172" stroke="#14181D" stroke-width="10.0833" stroke-linecap="butt" stroke-linejoin="round" stroke-miterlimit="10" stroke-opacity="1" fill="#BCB5D7" fill-opacity="1"/><text fill="#14181D" fill-opacity="1" font-family="Arial Narrow,Arial Narrow_MSFontService,sans-serif" font-style="normal" font-variant="normal" font-weight="400" font-stretch="condensed" font-size="92" text-anchor="start" direction="ltr" writing-mode="lr-tb" unicode-bidi="normal" text-decoration="none" transform="matrix(6.12323e-17 -1 1 6.12323e-17 4397.42 6715)">EOL</text><path d="M3034.09 5751.46 3041.25 7358.22C3041.27 7362.97 3037.44 7366.83 3032.69 7366.85 3027.95 7366.87 3024.08 7363.04 3024.06 7358.3L3024.06 7358.3 3016.91 5751.54C3016.89 5746.79 3020.72 5742.93 3025.46 5742.91 3030.21 5742.89 3034.07 5746.72 3034.09 5751.46ZM3069.94 7310.86 3032.73 7375.31 2994.94 7311.19C2992.53 7307.1 2993.89 7301.84 2997.98 7299.43 3002.07 7297.02 3007.34 7298.38 3009.75 7302.47L3040.06 7353.9 3025.21 7353.96 3055.06 7302.27C3057.43 7298.15 3062.69 7296.75 3066.8 7299.12 3070.91 7301.49 3072.32 7306.75 3069.94 7310.86Z" fill="#14181D" fill-rule="nonzero" fill-opacity="1"/><path d="M3372.09 5751.5 3372.09 7041.99C3372.09 7046.74 3368.25 7050.58 3363.5 7050.58 3358.75 7050.58 3354.91 7046.74 3354.91 7041.99L3354.91 5751.5C3354.91 5746.75 3358.75 5742.91 3363.5 5742.91 3368.25 5742.91 3372.09 5746.75 3372.09 5751.5ZM3401 6994.76 3363.5 7059.05 3326 6994.76C3323.61 6990.66 3324.99 6985.4 3329.09 6983 3333.19 6980.61 3338.45 6982 3340.85 6986.1L3340.85 6986.1 3370.92 7037.66 3356.08 7037.66 3386.16 6986.1C3388.55 6982 3393.81 6980.61 3397.91 6983 3402.01 6985.4 3403.39 6990.66 3401 6994.76Z" fill="#14181D" fill-rule="nonzero" fill-opacity="1"/><path d="M3706.09 5751.5 3706.09 6817.42C3706.09 6822.17 3702.25 6826.01 3697.5 6826.01 3692.75 6826.01 3688.91 6822.17 3688.91 6817.42L3688.91 5751.5C3688.91 5746.75 3692.75 5742.91 3697.5 5742.91 3702.25 5742.91 3706.09 5746.75 3706.09 5751.5ZM3735 6770.19 3697.5 6834.47 3660 6770.19C3657.61 6766.09 3658.99 6760.82 3663.09 6758.43 3667.19 6756.04 3672.45 6757.43 3674.84 6761.53L3674.84 6761.53 3704.92 6813.09 3690.08 6813.09 3720.16 6761.53C3722.55 6757.43 3727.81 6756.04 3731.91 6758.43 3736.01 6760.82 3737.39 6766.09 3735 6770.19Z" fill="#14181D" fill-rule="nonzero" fill-opacity="1"/><path d="M4038.09 5751.5 4038.09 6685.15C4038.09 6689.9 4034.25 6693.74 4029.5 6693.74 4024.75 6693.74 4020.91 6689.9 4020.91 6685.15L4020.91 5751.5C4020.91 5746.75 4024.75 5742.91 4029.5 5742.91 4034.25 5742.91 4038.09 5746.75 4038.09 5751.5ZM4067 6637.92 4029.5 6702.2 3992 6637.92C3989.61 6633.82 3990.99 6628.55 3995.09 6626.16 3999.19 6623.77 4004.45 6625.16 4006.85 6629.26L4006.85 6629.26 4036.92 6680.82 4022.08 6680.82 4052.16 6629.26C4054.55 6625.16 4059.81 6623.77 4063.91 6626.16 4068.01 6628.55 4069.39 6633.82 4067 6637.92Z" fill="#14181D" fill-rule="nonzero" fill-opacity="1"/><path d="M4366.09 5751.5 4366.09 6513.4C4366.09 6518.15 4362.25 6522 4357.5 6522 4352.75 6522 4348.91 6518.15 4348.91 6513.4L4348.91 5751.5C4348.91 5746.75 4352.75 5742.91 4357.5 5742.91 4362.25 5742.91 4366.09 5746.75 4366.09 5751.5ZM4395 6466.17 4357.5 6530.46 4320 6466.17C4317.61 6462.07 4318.99 6456.81 4323.09 6454.42 4327.19 6452.03 4332.45 6453.41 4334.85 6457.51L4334.85 6457.51 4364.92 6509.07 4350.08 6509.07 4380.16 6457.51C4382.55 6453.41 4387.81 6452.03 4391.91 6454.42 4396.01 6456.81 4397.39 6462.07 4395 6466.17Z" fill="#14181D" fill-rule="nonzero" fill-opacity="1"/><text fill="#14181D" fill-opacity="1" font-family="Arial,Arial_MSFontService,sans-serif" font-style="normal" font-variant="normal" font-weight="400" font-stretch="normal" font-size="165" text-anchor="start" direction="ltr" writing-mode="lr-tb" unicode-bidi="normal" text-decoration="none" transform="matrix(1 0 0 1 489.625 5647)">Accounting </text><text fill="#14181D" fill-opacity="1" font-family="Arial,Arial_MSFontService,sans-serif" font-style="normal" font-variant="normal" font-weight="400" font-stretch="normal" font-size="165" text-anchor="start" direction="ltr" writing-mode="lr-tb" unicode-bidi="normal" text-decoration="none" transform="matrix(1 0 0 1 1351.29 5647)">for</text><text fill="#14181D" fill-opacity="1" font-family="Arial,Arial_MSFontService,sans-serif" font-style="normal" font-variant="normal" font-weight="400" font-stretch="normal" font-size="165" text-anchor="start" direction="ltr" writing-mode="lr-tb" unicode-bidi="normal" text-decoration="none" transform="matrix(1 0 0 1 1543.79 5647)">:</text><text fill="#3FB0C4" fill-opacity="1" font-family="Arial,Arial_MSFontService,sans-serif" font-style="normal" font-variant="normal" font-weight="400" font-stretch="normal" font-size="210" text-anchor="start" direction="ltr" writing-mode="lr-tb" unicode-bidi="normal" text-decoration="none" transform="matrix(1 0 0 1 489.625 5955)">•</text><text fill="#14181D" fill-opacity="1" font-family="Arial,Arial_MSFontService,sans-serif" font-style="normal" font-variant="normal" font-weight="700" font-stretch="normal" font-size="165" text-anchor="start" direction="ltr" writing-mode="lr-tb" unicode-bidi="normal" text-decoration="none" transform="matrix(1 0 0 1 694.271 5955)">Temporal distribution </text><text fill="#14181D" fill-opacity="1" font-family="Arial,Arial_MSFontService,sans-serif" font-style="normal" font-variant="normal" font-weight="400" font-stretch="normal" font-size="165" text-anchor="start" direction="ltr" writing-mode="lr-tb" unicode-bidi="normal" text-decoration="none" transform="matrix(1 0 0 1 694.271 6153)">of processes </text><text fill="#14181D" fill-opacity="1" font-family="Arial,Arial_MSFontService,sans-serif" font-style="normal" font-variant="normal" font-weight="400" font-stretch="normal" font-size="165" text-anchor="start" direction="ltr" writing-mode="lr-tb" unicode-bidi="normal" text-decoration="none" transform="matrix(1 0 0 1 1675.1 6153)">and </text><text fill="#14181D" fill-opacity="1" font-family="Arial,Arial_MSFontService,sans-serif" font-style="normal" font-variant="normal" font-weight="400" font-stretch="normal" font-size="165" text-anchor="start" direction="ltr" writing-mode="lr-tb" unicode-bidi="normal" text-decoration="none" transform="matrix(1 0 0 1 694.271 6351)">emissions (LCI)</text><text fill="#3FB0C4" fill-opacity="1" font-family="Arial,Arial_MSFontService,sans-serif" font-style="normal" font-variant="normal" font-weight="400" font-stretch="normal" font-size="206" text-anchor="start" direction="ltr" writing-mode="lr-tb" unicode-bidi="normal" text-decoration="none" transform="matrix(1 0 0 1 489.625 6659)">•</text><text fill="#14181D" fill-opacity="1" font-family="Arial,Arial_MSFontService,sans-serif" font-style="normal" font-variant="normal" font-weight="700" font-stretch="normal" font-size="165" text-anchor="start" direction="ltr" writing-mode="lr-tb" unicode-bidi="normal" text-decoration="none" transform="matrix(1 0 0 1 694.271 6659)">Temporal evolution </text><text fill="#14181D" fill-opacity="1" font-family="Arial,Arial_MSFontService,sans-serif" font-style="normal" font-variant="normal" font-weight="400" font-stretch="normal" font-size="165" text-anchor="start" direction="ltr" writing-mode="lr-tb" unicode-bidi="normal" text-decoration="none" transform="matrix(1 0 0 1 2249.53 6659)">of </text><text fill="#14181D" fill-opacity="1" font-family="Arial,Arial_MSFontService,sans-serif" font-style="normal" font-variant="normal" font-weight="400" font-stretch="normal" font-size="165" text-anchor="start" direction="ltr" writing-mode="lr-tb" unicode-bidi="normal" text-decoration="none" transform="matrix(1 0 0 1 694.271 6857)">technologies and </text><text fill="#14181D" fill-opacity="1" font-family="Arial,Arial_MSFontService,sans-serif" font-style="normal" font-variant="normal" font-weight="400" font-stretch="normal" font-size="165" text-anchor="start" direction="ltr" writing-mode="lr-tb" unicode-bidi="normal" text-decoration="none" transform="matrix(1 0 0 1 694.271 7055)">supply chains (LCI)</text><text fill="#3FB0C4" fill-opacity="1" font-family="Arial,Arial_MSFontService,sans-serif" font-style="normal" font-variant="normal" font-weight="400" font-stretch="normal" font-size="206" text-anchor="start" direction="ltr" writing-mode="lr-tb" unicode-bidi="normal" text-decoration="none" transform="matrix(1 0 0 1 489.625 7363)">•</text><text fill="#14181D" fill-opacity="1" font-family="Arial,Arial_MSFontService,sans-serif" font-style="normal" font-variant="normal" font-weight="700" font-stretch="normal" font-size="165" text-anchor="start" direction="ltr" writing-mode="lr-tb" unicode-bidi="normal" text-decoration="none" transform="matrix(1 0 0 1 694.271 7363)">Dynamic </text><text fill="#14181D" fill-opacity="1" font-family="Arial,Arial_MSFontService,sans-serif" font-style="normal" font-variant="normal" font-weight="700" font-stretch="normal" font-size="165" text-anchor="start" direction="ltr" writing-mode="lr-tb" unicode-bidi="normal" text-decoration="none" transform="matrix(1 0 0 1 694.271 7561)">characterization</text><text fill="#14181D" fill-opacity="1" font-family="Arial,Arial_MSFontService,sans-serif" font-style="normal" font-variant="normal" font-weight="400" font-stretch="normal" font-size="165" text-anchor="start" direction="ltr" writing-mode="lr-tb" unicode-bidi="normal" text-decoration="none" transform="matrix(1 0 0 1 694.271 7759)">(LCIA)</text><path d="M0 0 0.000360892 2892.44" stroke="#3FB0C4" stroke-width="20.625" stroke-linecap="round" stroke-linejoin="round" stroke-miterlimit="10" stroke-opacity="1" fill="none" fill-rule="evenodd" transform="matrix(-1 0 0 1 2528.5 5206.5)"/><path d="M8168.5 5221.71C8168.5 5046.52 8310.52 4904.5 8485.71 4904.5L10190.4 4904.5C10365.6 4904.5 10507.6 5046.52 10507.6 5221.71L10507.6 7965.29C10507.6 8140.48 10365.6 8282.5 10190.4 8282.5L8485.71 8282.5C8310.52 8282.5 8168.5 8140.48 8168.5 7965.29Z" stroke="#3FB0C4" stroke-width="20.625" stroke-linecap="butt" stroke-linejoin="round" stroke-miterlimit="10" stroke-opacity="1" fill="#FFFFFF" fill-rule="evenodd" fill-opacity="1"/><path d="M8832.5 6082.5 9944.94 6977.27" stroke="#14181D" stroke-width="6.875" stroke-linecap="butt" stroke-linejoin="round" stroke-miterlimit="10" stroke-dasharray="6.875 6.875" stroke-opacity="1" fill="none" fill-rule="evenodd"/><path d="M8831.5 6339.5 9944.86 7146.56" stroke="#14181D" stroke-width="6.875" stroke-linecap="butt" stroke-linejoin="round" stroke-miterlimit="10" stroke-dasharray="6.875 6.875" stroke-opacity="1" fill="none" fill-rule="evenodd"/><path d="M8827.5 7389.5 9935.93 7585.06" stroke="#14181D" stroke-width="6.875" stroke-linecap="butt" stroke-linejoin="round" stroke-miterlimit="10" stroke-dasharray="6.875 6.875" stroke-opacity="1" fill="none" fill-rule="evenodd"/><path d="M8722.5 7855.5 8722.5 7894.48" stroke="#14181D" stroke-width="17.1875" stroke-linecap="round" stroke-linejoin="round" stroke-miterlimit="10" stroke-opacity="1" fill="none" fill-rule="evenodd"/><path d="M10051.5 7855.5 10051.5 7894.48" stroke="#14181D" stroke-width="17.1875" stroke-linecap="round" stroke-linejoin="round" stroke-miterlimit="10" stroke-opacity="1" fill="none" fill-rule="evenodd"/><rect x="8618" y="7387" width="209" height="467" stroke="#14181D" stroke-width="10.0833" stroke-linecap="butt" stroke-linejoin="round" stroke-miterlimit="10" stroke-opacity="1" fill="#58AB27" fill-opacity="1"/><text fill="#14181D" fill-opacity="1" font-family="Arial,Arial_MSFontService,sans-serif" font-style="normal" font-variant="normal" font-weight="400" font-stretch="normal" font-size="128" text-anchor="start" direction="ltr" writing-mode="lr-tb" unicode-bidi="normal" text-decoration="none" transform="matrix(6.12323e-17 -1 1 6.12323e-17 8770.35 7774)">Prod</text><text fill="#14181D" fill-opacity="1" font-family="Arial,Arial_MSFontService,sans-serif" font-style="normal" font-variant="normal" font-weight="400" font-stretch="normal" font-size="128" text-anchor="start" direction="ltr" writing-mode="lr-tb" unicode-bidi="normal" text-decoration="none" transform="matrix(6.12323e-17 -1 1 6.12323e-17 8770.35 7502)">.</text><rect x="9946" y="7586" width="210" height="266" stroke="#14181D" stroke-width="10.0833" stroke-linecap="butt" stroke-linejoin="round" stroke-miterlimit="10" stroke-opacity="1" fill="#DEEBCE" fill-opacity="1"/><text fill="#14181D" fill-opacity="1" font-family="Arial Narrow,Arial Narrow_MSFontService,sans-serif" font-style="normal" font-variant="normal" font-weight="400" font-stretch="condensed" font-size="110" text-anchor="start" direction="ltr" writing-mode="lr-tb" unicode-bidi="normal" text-decoration="none" transform="matrix(6.12323e-17 -1 1 6.12323e-17 10092.3 7827)">Prod.</text><rect x="9946" y="7148" width="210" height="438" stroke="#14181D" stroke-width="10.0833" stroke-linecap="butt" stroke-linejoin="round" stroke-miterlimit="10" stroke-opacity="1" fill="#FEEBC9" fill-opacity="1"/><text fill="#14181D" fill-opacity="1" font-family="Arial,Arial_MSFontService,sans-serif" font-style="normal" font-variant="normal" font-weight="400" font-stretch="normal" font-size="110" text-anchor="start" direction="ltr" writing-mode="lr-tb" unicode-bidi="normal" text-decoration="none" transform="matrix(6.12323e-17 -1 1 6.12323e-17 10092.3 7465)">U</text><text fill="#14181D" fill-opacity="1" font-family="Arial,Arial_MSFontService,sans-serif" font-style="normal" font-variant="normal" font-weight="400" font-stretch="normal" font-size="110" text-anchor="start" direction="ltr" writing-mode="lr-tb" unicode-bidi="normal" text-decoration="none" transform="matrix(6.12323e-17 -1 1 6.12323e-17 10092.3 7385)">se</text><rect x="9946" y="6976" width="210" height="172" stroke="#14181D" stroke-width="10.0833" stroke-linecap="butt" stroke-linejoin="round" stroke-miterlimit="10" stroke-opacity="1" fill="#BCB5D7" fill-opacity="1"/><text fill="#14181D" fill-opacity="1" font-family="Arial Narrow,Arial Narrow_MSFontService,sans-serif" font-style="normal" font-variant="normal" font-weight="400" font-stretch="condensed" font-size="101" text-anchor="start" direction="ltr" writing-mode="lr-tb" unicode-bidi="normal" text-decoration="none" transform="matrix(6.12323e-17 -1 1 6.12323e-17 10089.8 7144)">EOL</text><path d="M8486.5 7845.91 10279.5 7845.91 10279.5 7863.09 8486.5 7863.09ZM10232.3 7817 10296.6 7854.5 10232.3 7892 10232.3 7892C10228.2 7894.39 10222.9 7893.01 10220.5 7888.91 10218.1 7884.81 10219.5 7879.55 10223.6 7877.16L10275.2 7847.08 10275.2 7861.92 10223.6 7831.85C10219.5 7829.45 10218.1 7824.19 10220.5 7820.09 10222.9 7815.99 10228.2 7814.61 10232.3 7817Z" fill="#14181D" fill-rule="nonzero" fill-opacity="1"/><path d="M8.59375-1.53502e-06 8.59411 2003.43-8.59339 2003.43-8.59375 1.53502e-06ZM37.5016 1956.19 0.000372564 2020.48-37.5009 1956.19C-39.8923 1952.09-38.5076 1946.83-34.4079 1944.44-30.3083 1942.05-25.0462 1943.43-22.6547 1947.53L7.42345 1999.1-7.42274 1999.1 22.6554 1947.53C25.0468 1943.43 30.3089 1942.05 34.4086 1944.44 38.5083 1946.83 39.893 1952.09 37.5016 1956.19Z" fill="#14181D" fill-rule="nonzero" fill-opacity="1" transform="matrix(1 0 0 -1 8486.5 7858.94)"/><text fill="#14181D" fill-opacity="1" font-family="Arial,Arial_MSFontService,sans-serif" font-style="normal" font-variant="normal" font-weight="400" font-stretch="normal" font-size="147" text-anchor="start" direction="ltr" writing-mode="lr-tb" unicode-bidi="normal" text-decoration="none" transform="matrix(-1.83697e-16 -1 1 -1.83697e-16 8426.72 7179)">Emissions</text><path d="M9053.5 7855.5 9053.5 7894.48" stroke="#14181D" stroke-width="17.1875" stroke-linecap="round" stroke-linejoin="round" stroke-miterlimit="10" stroke-opacity="1" fill="none" fill-rule="evenodd"/><path d="M9387.5 7855.5 9387.5 7894.48" stroke="#14181D" stroke-width="17.1875" stroke-linecap="round" stroke-linejoin="round" stroke-miterlimit="10" stroke-opacity="1" fill="none" fill-rule="evenodd"/><path d="M9719.5 7855.5 9719.5 7894.48" stroke="#14181D" stroke-width="17.1875" stroke-linecap="round" stroke-linejoin="round" stroke-miterlimit="10" stroke-opacity="1" fill="none" fill-rule="evenodd"/><text fill="#14181D" fill-opacity="1" font-family="Arial,Arial_MSFontService,sans-serif" font-style="italic" font-variant="normal" font-weight="400" font-stretch="normal" font-size="128" text-anchor="start" direction="ltr" writing-mode="lr-tb" unicode-bidi="normal" text-decoration="none" transform="matrix(0.707107 -0.707107 0.707107 0.707107 8579.25 8199)">2025</text><text fill="#14181D" fill-opacity="1" font-family="Arial,Arial_MSFontService,sans-serif" font-style="italic" font-variant="normal" font-weight="400" font-stretch="normal" font-size="128" text-anchor="start" direction="ltr" writing-mode="lr-tb" unicode-bidi="normal" text-decoration="none" transform="matrix(0.707107 -0.707107 0.707107 0.707107 8913.23 8199)">2030</text><text fill="#14181D" fill-opacity="1" font-family="Arial,Arial_MSFontService,sans-serif" font-style="italic" font-variant="normal" font-weight="400" font-stretch="normal" font-size="128" text-anchor="start" direction="ltr" writing-mode="lr-tb" unicode-bidi="normal" text-decoration="none" transform="matrix(0.707107 -0.707107 0.707107 0.707107 9247.2 8199)">2035</text><text fill="#14181D" fill-opacity="1" font-family="Arial,Arial_MSFontService,sans-serif" font-style="italic" font-variant="normal" font-weight="400" font-stretch="normal" font-size="128" text-anchor="start" direction="ltr" writing-mode="lr-tb" unicode-bidi="normal" text-decoration="none" transform="matrix(0.707107 -0.707107 0.707107 0.707107 9581.18 8199)">2040</text><text fill="#14181D" fill-opacity="1" font-family="Arial,Arial_MSFontService,sans-serif" font-style="italic" font-variant="normal" font-weight="400" font-stretch="normal" font-size="128" text-anchor="start" direction="ltr" writing-mode="lr-tb" unicode-bidi="normal" text-decoration="none" transform="matrix(0.707107 -0.707107 0.707107 0.707107 9915.16 8199)">2045</text><path d="M8792.5 5339.5C8792.5 5351.1 8759.15 5360.5 8718 5360.5 8676.85 5360.5 8643.5 5351.1 8643.5 5339.5 8643.5 5327.9 8676.85 5318.5 8718 5318.5 8759.15 5318.5 8792.5 5327.9 8792.5 5339.5Z" stroke="#000000" stroke-width="5.04167" stroke-linecap="butt" stroke-linejoin="miter" stroke-miterlimit="8" stroke-opacity="1" fill="#7A6FAC" fill-rule="evenodd" fill-opacity="1"/><path d="M8771.21 5391.5C8768.02 5391.5 8765.89 5389.4 8765.89 5386.25 8765.89 5383.1 8768.02 5381 8771.21 5381 8774.41 5381 8776.54 5383.1 8776.54 5386.25 8776.54 5389.4 8774.41 5391.5 8771.21 5391.5ZM8718 5370.5C8677.03 5370.5 8643.5 5361.05 8643.5 5349.5L8643.5 5391.5C8643.5 5403.05 8677.03 5412.5 8718 5412.5 8758.98 5412.5 8792.5 5403.05 8792.5 5391.5L8792.5 5349.5C8792.5 5361.05 8758.98 5370.5 8718 5370.5Z" stroke="#000000" stroke-width="5.04167" stroke-linecap="butt" stroke-linejoin="miter" stroke-miterlimit="8" stroke-opacity="1" fill="#7A6FAC" fill-rule="evenodd" fill-opacity="1"/><path d="M8771.21 5444.5C8768.02 5444.5 8765.89 5442.4 8765.89 5439.25 8765.89 5436.1 8768.02 5434 8771.21 5434 8774.41 5434 8776.54 5436.1 8776.54 5439.25 8776.54 5442.4 8774.41 5444.5 8771.21 5444.5ZM8718 5423.5C8677.03 5423.5 8643.5 5414.05 8643.5 5402.5L8643.5 5444.5C8643.5 5456.05 8677.03 5465.5 8718 5465.5 8758.98 5465.5 8792.5 5456.05 8792.5 5444.5L8792.5 5402.5C8792.5 5414.05 8758.98 5423.5 8718 5423.5Z" stroke="#000000" stroke-width="5.04167" stroke-linecap="butt" stroke-linejoin="miter" stroke-miterlimit="8" stroke-opacity="1" fill="#F7A800" fill-rule="evenodd" fill-opacity="1"/><path d="M8771.21 5496.5C8768.02 5496.5 8765.89 5494.4 8765.89 5491.25 8765.89 5488.1 8768.02 5486 8771.21 5486 8774.41 5486 8776.54 5488.1 8776.54 5491.25 8776.54 5494.4 8774.41 5496.5 8771.21 5496.5ZM8718 5475.5C8677.03 5475.5 8643.5 5466.05 8643.5 5454.5L8643.5 5496.5C8643.5 5508.05 8677.03 5517.5 8718 5517.5 8758.98 5517.5 8792.5 5508.05 8792.5 5496.5L8792.5 5454.5C8792.5 5466.05 8758.98 5475.5 8718 5475.5Z" stroke="#000000" stroke-width="5.04167" stroke-linecap="butt" stroke-linejoin="miter" stroke-miterlimit="8" stroke-opacity="1" fill="#58AB27" fill-rule="evenodd" fill-opacity="1"/><path d="M9126.5 5339.5C9126.5 5351.1 9092.92 5360.5 9051.5 5360.5 9010.08 5360.5 8976.5 5351.1 8976.5 5339.5 8976.5 5327.9 9010.08 5318.5 9051.5 5318.5 9092.92 5318.5 9126.5 5327.9 9126.5 5339.5Z" stroke="#000000" stroke-width="5.04167" stroke-linecap="butt" stroke-linejoin="miter" stroke-miterlimit="8" stroke-opacity="1" fill="#8478BE" fill-rule="evenodd" fill-opacity="1"/><path d="M9105.07 5391.5C9101.86 5391.5 9099.71 5389.4 9099.71 5386.25 9099.71 5383.1 9101.86 5381 9105.07 5381 9108.29 5381 9110.43 5383.1 9110.43 5386.25 9110.43 5389.4 9108.29 5391.5 9105.07 5391.5ZM9051.5 5370.5C9010.25 5370.5 8976.5 5361.05 8976.5 5349.5L8976.5 5391.5C8976.5 5403.05 9010.25 5412.5 9051.5 5412.5 9092.75 5412.5 9126.5 5403.05 9126.5 5391.5L9126.5 5349.5C9126.5 5361.05 9092.75 5370.5 9051.5 5370.5Z" stroke="#000000" stroke-width="5.04167" stroke-linecap="butt" stroke-linejoin="miter" stroke-miterlimit="8" stroke-opacity="1" fill="#8478BE" fill-rule="evenodd" fill-opacity="1"/><path d="M9105.07 5444.5C9101.86 5444.5 9099.71 5442.4 9099.71 5439.25 9099.71 5436.1 9101.86 5434 9105.07 5434 9108.29 5434 9110.43 5436.1 9110.43 5439.25 9110.43 5442.4 9108.29 5444.5 9105.07 5444.5ZM9051.5 5423.5C9010.25 5423.5 8976.5 5414.05 8976.5 5402.5L8976.5 5444.5C8976.5 5456.05 9010.25 5465.5 9051.5 5465.5 9092.75 5465.5 9126.5 5456.05 9126.5 5444.5L9126.5 5402.5C9126.5 5414.05 9092.75 5423.5 9051.5 5423.5Z" stroke="#000000" stroke-width="5.04167" stroke-linecap="butt" stroke-linejoin="miter" stroke-miterlimit="8" stroke-opacity="1" fill="#FABE4F" fill-rule="evenodd" fill-opacity="1"/><path d="M9105.07 5496.5C9101.86 5496.5 9099.71 5494.4 9099.71 5491.25 9099.71 5488.1 9101.86 5486 9105.07 5486 9108.29 5486 9110.43 5488.1 9110.43 5491.25 9110.43 5494.4 9108.29 5496.5 9105.07 5496.5ZM9051.5 5475.5C9010.25 5475.5 8976.5 5466.05 8976.5 5454.5L8976.5 5496.5C8976.5 5508.05 9010.25 5517.5 9051.5 5517.5 9092.75 5517.5 9126.5 5508.05 9126.5 5496.5L9126.5 5454.5C9126.5 5466.05 9092.75 5475.5 9051.5 5475.5Z" stroke="#000000" stroke-width="5.04167" stroke-linecap="butt" stroke-linejoin="miter" stroke-miterlimit="8" stroke-opacity="1" fill="#88BA5E" fill-rule="evenodd" fill-opacity="1"/><path d="M9459.5 5339.5C9459.5 5351.1 9425.92 5360.5 9384.5 5360.5 9343.08 5360.5 9309.5 5351.1 9309.5 5339.5 9309.5 5327.9 9343.08 5318.5 9384.5 5318.5 9425.92 5318.5 9459.5 5327.9 9459.5 5339.5Z" stroke="#000000" stroke-width="5.04167" stroke-linecap="butt" stroke-linejoin="miter" stroke-miterlimit="8" stroke-opacity="1" fill="#938BBB" fill-rule="evenodd" fill-opacity="1"/><path d="M9438.07 5391.5C9434.86 5391.5 9432.71 5389.4 9432.71 5386.25 9432.71 5383.1 9434.86 5381 9438.07 5381 9441.29 5381 9443.43 5383.1 9443.43 5386.25 9443.43 5389.4 9441.29 5391.5 9438.07 5391.5ZM9384.5 5370.5C9343.25 5370.5 9309.5 5361.05 9309.5 5349.5L9309.5 5391.5C9309.5 5403.05 9343.25 5412.5 9384.5 5412.5 9425.75 5412.5 9459.5 5403.05 9459.5 5391.5L9459.5 5349.5C9459.5 5361.05 9425.75 5370.5 9384.5 5370.5Z" stroke="#000000" stroke-width="5.04167" stroke-linecap="butt" stroke-linejoin="miter" stroke-miterlimit="8" stroke-opacity="1" fill="#938BBB" fill-rule="evenodd" fill-opacity="1"/><path d="M9438.07 5444.5C9434.86 5444.5 9432.71 5442.4 9432.71 5439.25 9432.71 5436.1 9434.86 5434 9438.07 5434 9441.29 5434 9443.43 5436.1 9443.43 5439.25 9443.43 5442.4 9441.29 5444.5 9438.07 5444.5ZM9384.5 5423.5C9343.25 5423.5 9309.5 5414.05 9309.5 5402.5L9309.5 5444.5C9309.5 5456.05 9343.25 5465.5 9384.5 5465.5 9425.75 5465.5 9459.5 5456.05 9459.5 5444.5L9459.5 5402.5C9459.5 5414.05 9425.75 5423.5 9384.5 5423.5Z" stroke="#000000" stroke-width="5.04167" stroke-linecap="butt" stroke-linejoin="miter" stroke-miterlimit="8" stroke-opacity="1" fill="#FFC553" fill-rule="evenodd" fill-opacity="1"/><path d="M9438.07 5496.5C9434.86 5496.5 9432.71 5494.4 9432.71 5491.25 9432.71 5488.1 9434.86 5486 9438.07 5486 9441.29 5486 9443.43 5488.1 9443.43 5491.25 9443.43 5494.4 9441.29 5496.5 9438.07 5496.5ZM9384.5 5475.5C9343.25 5475.5 9309.5 5466.05 9309.5 5454.5L9309.5 5496.5C9309.5 5508.05 9343.25 5517.5 9384.5 5517.5 9425.75 5517.5 9459.5 5508.05 9459.5 5496.5L9459.5 5454.5C9459.5 5466.05 9425.75 5475.5 9384.5 5475.5Z" stroke="#000000" stroke-width="5.04167" stroke-linecap="butt" stroke-linejoin="miter" stroke-miterlimit="8" stroke-opacity="1" fill="#8DC05F" fill-rule="evenodd" fill-opacity="1"/><path d="M9792.5 5339.5C9792.5 5351.1 9758.92 5360.5 9717.5 5360.5 9676.08 5360.5 9642.5 5351.1 9642.5 5339.5 9642.5 5327.9 9676.08 5318.5 9717.5 5318.5 9758.92 5318.5 9792.5 5327.9 9792.5 5339.5Z" stroke="#000000" stroke-width="5.04167" stroke-linecap="butt" stroke-linejoin="miter" stroke-miterlimit="8" stroke-opacity="1" fill="#9B91C2" fill-rule="evenodd" fill-opacity="1"/><path d="M9771.07 5391.5C9767.86 5391.5 9765.71 5389.4 9765.71 5386.25 9765.71 5383.1 9767.86 5381 9771.07 5381 9774.29 5381 9776.43 5383.1 9776.43 5386.25 9776.43 5389.4 9774.29 5391.5 9771.07 5391.5ZM9717.5 5370.5C9676.25 5370.5 9642.5 5361.05 9642.5 5349.5L9642.5 5391.5C9642.5 5403.05 9676.25 5412.5 9717.5 5412.5 9758.75 5412.5 9792.5 5403.05 9792.5 5391.5L9792.5 5349.5C9792.5 5361.05 9758.75 5370.5 9717.5 5370.5Z" stroke="#000000" stroke-width="5.04167" stroke-linecap="butt" stroke-linejoin="miter" stroke-miterlimit="8" stroke-opacity="1" fill="#9B91C2" fill-rule="evenodd" fill-opacity="1"/><path d="M9771.07 5444.5C9767.86 5444.5 9765.71 5442.4 9765.71 5439.25 9765.71 5436.1 9767.86 5434 9771.07 5434 9774.29 5434 9776.43 5436.1 9776.43 5439.25 9776.43 5442.4 9774.29 5444.5 9771.07 5444.5ZM9717.5 5423.5C9676.25 5423.5 9642.5 5414.05 9642.5 5402.5L9642.5 5444.5C9642.5 5456.05 9676.25 5465.5 9717.5 5465.5 9758.75 5465.5 9792.5 5456.05 9792.5 5444.5L9792.5 5402.5C9792.5 5414.05 9758.75 5423.5 9717.5 5423.5Z" stroke="#000000" stroke-width="5.04167" stroke-linecap="butt" stroke-linejoin="miter" stroke-miterlimit="8" stroke-opacity="1" fill="#F4CC8B" fill-rule="evenodd" fill-opacity="1"/><path d="M9771.07 5496.5C9767.86 5496.5 9765.71 5494.4 9765.71 5491.25 9765.71 5488.1 9767.86 5486 9771.07 5486 9774.29 5486 9776.43 5488.1 9776.43 5491.25 9776.43 5494.4 9774.29 5496.5 9771.07 5496.5ZM9717.5 5475.5C9676.25 5475.5 9642.5 5466.05 9642.5 5454.5L9642.5 5496.5C9642.5 5508.05 9676.25 5517.5 9717.5 5517.5 9758.75 5517.5 9792.5 5508.05 9792.5 5496.5L9792.5 5454.5C9792.5 5466.05 9758.75 5475.5 9717.5 5475.5Z" stroke="#000000" stroke-width="5.04167" stroke-linecap="butt" stroke-linejoin="miter" stroke-miterlimit="8" stroke-opacity="1" fill="#A5CB82" fill-rule="evenodd" fill-opacity="1"/><path d="M10125.5 5339.5C10125.5 5351.1 10091.9 5360.5 10050.5 5360.5 10009.1 5360.5 9975.5 5351.1 9975.5 5339.5 9975.5 5327.9 10009.1 5318.5 10050.5 5318.5 10091.9 5318.5 10125.5 5327.9 10125.5 5339.5Z" stroke="#000000" stroke-width="5.04167" stroke-linecap="butt" stroke-linejoin="miter" stroke-miterlimit="8" stroke-opacity="1" fill="#BDB5D7" fill-rule="evenodd" fill-opacity="1"/><path d="M10104.1 5391.5C10100.9 5391.5 10098.7 5389.4 10098.7 5386.25 10098.7 5383.1 10100.9 5381 10104.1 5381 10107.3 5381 10109.4 5383.1 10109.4 5386.25 10109.4 5389.4 10107.3 5391.5 10104.1 5391.5ZM10050.5 5370.5C10009.2 5370.5 9975.5 5361.05 9975.5 5349.5L9975.5 5391.5C9975.5 5403.05 10009.2 5412.5 10050.5 5412.5 10091.8 5412.5 10125.5 5403.05 10125.5 5391.5L10125.5 5349.5C10125.5 5361.05 10091.8 5370.5 10050.5 5370.5Z" stroke="#000000" stroke-width="5.04167" stroke-linecap="butt" stroke-linejoin="miter" stroke-miterlimit="8" stroke-opacity="1" fill="#BDB5D7" fill-rule="evenodd" fill-opacity="1"/><path d="M10104.1 5444.5C10100.9 5444.5 10098.7 5442.4 10098.7 5439.25 10098.7 5436.1 10100.9 5434 10104.1 5434 10107.3 5434 10109.4 5436.1 10109.4 5439.25 10109.4 5442.4 10107.3 5444.5 10104.1 5444.5ZM10050.5 5423.5C10009.2 5423.5 9975.5 5414.05 9975.5 5402.5L9975.5 5444.5C9975.5 5456.05 10009.2 5465.5 10050.5 5465.5 10091.8 5465.5 10125.5 5456.05 10125.5 5444.5L10125.5 5402.5C10125.5 5414.05 10091.8 5423.5 10050.5 5423.5Z" stroke="#000000" stroke-width="5.04167" stroke-linecap="butt" stroke-linejoin="miter" stroke-miterlimit="8" stroke-opacity="1" fill="#FFEBC9" fill-rule="evenodd" fill-opacity="1"/><path d="M10104.1 5496.5C10100.9 5496.5 10098.7 5494.4 10098.7 5491.25 10098.7 5488.1 10100.9 5486 10104.1 5486 10107.3 5486 10109.4 5488.1 10109.4 5491.25 10109.4 5494.4 10107.3 5496.5 10104.1 5496.5ZM10050.5 5475.5C10009.2 5475.5 9975.5 5466.05 9975.5 5454.5L9975.5 5496.5C9975.5 5508.05 10009.2 5517.5 10050.5 5517.5 10091.8 5517.5 10125.5 5508.05 10125.5 5496.5L10125.5 5454.5C10125.5 5466.05 10091.8 5475.5 10050.5 5475.5Z" stroke="#000000" stroke-width="5.04167" stroke-linecap="butt" stroke-linejoin="miter" stroke-miterlimit="8" stroke-opacity="1" fill="#DEEBCE" fill-rule="evenodd" fill-opacity="1"/><text fill="#14181D" fill-opacity="1" font-family="Arial,Arial_MSFontService,sans-serif" font-style="italic" font-variant="normal" font-weight="400" font-stretch="normal" font-size="128" text-anchor="start" direction="ltr" writing-mode="lr-tb" unicode-bidi="normal" text-decoration="none" transform="matrix(1 0 0 1 8573.58 5667)">2025</text><text fill="#14181D" fill-opacity="1" font-family="Arial,Arial_MSFontService,sans-serif" font-style="italic" font-variant="normal" font-weight="400" font-stretch="normal" font-size="128" text-anchor="start" direction="ltr" writing-mode="lr-tb" unicode-bidi="normal" text-decoration="none" transform="matrix(1 0 0 1 8910.36 5667)">2030</text><text fill="#14181D" fill-opacity="1" font-family="Arial,Arial_MSFontService,sans-serif" font-style="italic" font-variant="normal" font-weight="400" font-stretch="normal" font-size="128" text-anchor="start" direction="ltr" writing-mode="lr-tb" unicode-bidi="normal" text-decoration="none" transform="matrix(1 0 0 1 9247.15 5667)">2035</text><text fill="#14181D" fill-opacity="1" font-family="Arial,Arial_MSFontService,sans-serif" font-style="italic" font-variant="normal" font-weight="400" font-stretch="normal" font-size="128" text-anchor="start" direction="ltr" writing-mode="lr-tb" unicode-bidi="normal" text-decoration="none" transform="matrix(1 0 0 1 9583.93 5667)">2040</text><text fill="#14181D" fill-opacity="1" font-family="Arial,Arial_MSFontService,sans-serif" font-style="italic" font-variant="normal" font-weight="400" font-stretch="normal" font-size="128" text-anchor="start" direction="ltr" writing-mode="lr-tb" unicode-bidi="normal" text-decoration="none" transform="matrix(1 0 0 1 9920.71 5667)">2045</text><text fill="#14181D" fill-opacity="1" font-family="Arial,Arial_MSFontService,sans-serif" font-style="italic" font-variant="normal" font-weight="400" font-stretch="normal" font-size="147" text-anchor="start" direction="ltr" writing-mode="lr-tb" unicode-bidi="normal" text-decoration="none" transform="matrix(1 0 0 1 8631.78 5257)">LCI data:</text><rect x="8897" y="5269" width="1021" height="418" fill="#FFFFFF" fill-opacity="0.819608"/><rect x="8618" y="6331" width="209" height="1058" stroke="#14181D" stroke-width="10.0833" stroke-linecap="butt" stroke-linejoin="round" stroke-miterlimit="10" stroke-opacity="1" fill="#F6A800" fill-opacity="1"/><text fill="#14181D" fill-opacity="1" font-family="Arial,Arial_MSFontService,sans-serif" font-style="normal" font-variant="normal" font-weight="400" font-stretch="normal" font-size="128" text-anchor="start" direction="ltr" writing-mode="lr-tb" unicode-bidi="normal" text-decoration="none" transform="matrix(6.12323e-17 -1 1 6.12323e-17 8770.35 6974)">Use</text><rect x="8618" y="6076" width="209" height="257" stroke="#14181D" stroke-width="10.0833" stroke-linecap="butt" stroke-linejoin="round" stroke-miterlimit="10" stroke-opacity="1" fill="#7A6FAC" fill-opacity="1"/><text fill="#14181D" fill-opacity="1" font-family="Arial,Arial_MSFontService,sans-serif" font-style="normal" font-variant="normal" font-weight="400" font-stretch="normal" font-size="128" text-anchor="start" direction="ltr" writing-mode="lr-tb" unicode-bidi="normal" text-decoration="none" transform="matrix(6.12323e-17 -1 1 6.12323e-17 8770.35 6333)">EOL</text><text fill="#14181D" fill-opacity="1" font-family="Arial,Arial_MSFontService,sans-serif" font-style="italic" font-variant="normal" font-weight="700" font-stretch="normal" font-size="128" text-anchor="start" direction="ltr" writing-mode="lr-tb" unicode-bidi="normal" text-decoration="none" transform="matrix(1 0 0 1 8769.83 5838)">Conventional </text><text fill="#14181D" fill-opacity="1" font-family="Arial,Arial_MSFontService,sans-serif" font-style="italic" font-variant="normal" font-weight="700" font-stretch="normal" font-size="128" text-anchor="start" direction="ltr" writing-mode="lr-tb" unicode-bidi="normal" text-decoration="none" transform="matrix(1 0 0 1 8769.83 5992)">LCA </text><text fill="#14181D" fill-opacity="1" font-family="Arial,Arial_MSFontService,sans-serif" font-style="italic" font-variant="normal" font-weight="700" font-stretch="normal" font-size="128" text-anchor="start" direction="ltr" writing-mode="lr-tb" unicode-bidi="normal" text-decoration="none" transform="matrix(1 0 0 1 9296.49 6150)">Prospective </text><text fill="#14181D" fill-opacity="1" font-family="Arial,Arial_MSFontService,sans-serif" font-style="italic" font-variant="normal" font-weight="700" font-stretch="normal" font-size="128" text-anchor="start" direction="ltr" writing-mode="lr-tb" unicode-bidi="normal" text-decoration="none" transform="matrix(1 0 0 1 9296.49 6304)">LCA</text><text fill="#14181D" fill-opacity="1" font-family="Arial,Arial_MSFontService,sans-serif" font-style="italic" font-variant="normal" font-weight="400" font-stretch="normal" font-size="101" text-anchor="start" direction="ltr" writing-mode="lr-tb" unicode-bidi="normal" text-decoration="none" transform="matrix(0.809017 0.587785 -0.587785 0.809017 8846.75 6489)">Evolving production system</text><path d="M10060.1 5747.5 10060.1 6911.17C10060.1 6915.92 10056.2 6919.77 10051.5 6919.77 10046.8 6919.77 10042.9 6915.92 10042.9 6911.17L10042.9 5747.5C10042.9 5742.75 10046.8 5738.91 10051.5 5738.91 10056.2 5738.91 10060.1 5742.75 10060.1 5747.5ZM10089 6863.94 10051.5 6928.23 10014 6863.94C10011.6 6859.84 10013 6854.58 10017.1 6852.19 10021.2 6849.8 10026.5 6851.18 10028.8 6855.28L10028.8 6855.28 10058.9 6906.84 10044.1 6906.84 10074.2 6855.28C10076.5 6851.18 10081.8 6849.8 10085.9 6852.19 10090 6854.58 10091.4 6859.84 10089 6863.94Z" fill="#000000" fill-rule="nonzero" fill-opacity="1"/><path d="M8332 4811.66C8332 4752.2 8380.2 4704 8439.66 4704L10225.3 4704C10284.8 4704 10333 4752.2 10333 4811.66L10333 4986.34C10333 5045.8 10284.8 5094 10225.3 5094L8439.66 5094C8380.2 5094 8332 5045.8 8332 4986.34Z" fill="#3FB0C4" fill-rule="evenodd" fill-opacity="1"/><text fill="#FFFFFF" fill-opacity="1" font-family="Arial,Arial_MSFontService,sans-serif" font-style="normal" font-variant="normal" font-weight="400" font-stretch="normal" font-size="202" text-anchor="start" direction="ltr" writing-mode="lr-tb" unicode-bidi="normal" text-decoration="none" transform="matrix(1 0 0 1 8485.86 4974)">Temporal evolution</text><path d="M8721.09 5742.5 8721.09 5998.32C8721.09 6003.07 8717.25 6006.91 8712.5 6006.91 8707.75 6006.91 8703.91 6003.07 8703.91 5998.32L8703.91 5742.5C8703.91 5737.75 8707.75 5733.91 8712.5 5733.91 8717.25 5733.91 8721.09 5737.75 8721.09 5742.5ZM8750 5951.09 8712.5 6015.37 8675 5951.09C8672.61 5946.99 8673.99 5941.73 8678.09 5939.33 8682.19 5936.94 8687.45 5938.33 8689.85 5942.43L8719.92 5993.99 8705.08 5993.99 8735.16 5942.43C8737.55 5938.33 8742.81 5936.94 8746.91 5939.33 8751.01 5941.72 8752.39 5946.99 8750 5951.09Z" fill="#14181D" fill-rule="nonzero" fill-opacity="1"/></g></g></svg>
