<svg width="10189" height="3648" xmlns="http://www.w3.org/2000/svg" xmlns:xlink="http://www.w3.org/1999/xlink"><g transform="translate(-398 -371)"><g><path d="M7754 2260C7754 2144.57 7847.57 2051 7963 2051 8078.43 2051 8172 2144.57 8172 2260 8172 2375.43 8078.43 2469 7963 2469 7847.57 2469 7754 2375.43 7754 2260Z" fill="#3FB0C4" fill-rule="evenodd" fill-opacity="1"/><text fill="#FFFFFF" fill-opacity="1" font-family="Arial,Arial_MSFontService,sans-serif" font-style="normal" font-variant="normal" font-weight="400" font-stretch="normal" font-size="440" text-anchor="start" direction="ltr" writing-mode="lr-tb" unicode-bidi="normal" text-decoration="none" transform="matrix(1 0 0 1 7834.66 2424)">+</text><path d="M4875 2264C4875 2148.57 4968.57 2055 5084 2055 5199.43 2055 5293 2148.57 5293 2264 5293 2379.43 5199.43 2473 5084 2473 4968.57 2473 4875 2379.43 4875 2264Z" fill="#3FB0C4" fill-rule="evenodd" fill-opacity="1"/><text fill="#FFFFFF" fill-opacity="1" font-family="Arial,Arial_MSFontService,sans-serif" font-style="normal" font-variant="normal" font-weight="400" font-stretch="normal" font-size="440" text-anchor="start" direction="ltr" writing-mode="lr-tb" unicode-bidi="normal" text-decoration="none" transform="matrix(1 0 0 1 4955.22 2428)">=</text><path d="M5354.5 890.712C5354.5 715.521 5496.52 573.5 5671.71 573.5L7376.43 573.5C7551.62 573.5 7693.64 715.521 7693.64 890.712L7693.64 3634.29C7693.64 3809.48 7551.62 3951.5 7376.43 3951.5L5671.71 3951.5C5496.52 3951.5 5354.5 3809.48 5354.5 3634.29Z" stroke="#3FB0C4" stroke-width="20.625" stroke-linecap="butt" stroke-linejoin="round" stroke-miterlimit="10" stroke-opacity="1" fill="#14181E" fill-rule="evenodd" fill-opacity="1"/><path d="M5517 480.388C5517 421.079 5565.08 373 5624.39 373L7410.61 373C7469.92 373 7518 421.079 7518 480.388L7518 654.612C7518 713.921 7469.92 762 7410.61 762L5624.39 762C5565.08 762 5517 713.921 5517 654.612Z" fill="#3FB0C4" fill-rule="evenodd" fill-opacity="1"/><text fill="#FFFFFF" fill-opacity="1" font-family="Arial,Arial_MSFontService,sans-serif" font-style="normal" font-variant="normal" font-weight="400" font-stretch="normal" font-size="202" text-anchor="start" direction="ltr" writing-mode="lr-tb" unicode-bidi="normal" text-decoration="none" transform="matrix(1 0 0 1 5586.49 642)">Temporal distribution</text><path d="M6354 2722 6517.74 2722" stroke="#7F7F7F" stroke-width="10.0833" stroke-linecap="butt" stroke-linejoin="round" stroke-miterlimit="10" stroke-dasharray="40.3333 30.25" stroke-opacity="1" fill="none" fill-rule="evenodd"/><path d="M6684 2369 6847.74 2369" stroke="#7F7F7F" stroke-width="10.0833" stroke-linecap="butt" stroke-linejoin="round" stroke-miterlimit="10" stroke-dasharray="40.3333 30.25" stroke-opacity="1" fill="none" fill-rule="evenodd"/><path d="M6999 2016 7162.74 2016" stroke="#7F7F7F" stroke-width="10.0833" stroke-linecap="butt" stroke-linejoin="round" stroke-miterlimit="10" stroke-dasharray="40.3333 30.25" stroke-opacity="1" fill="none" fill-rule="evenodd"/><path d="M6021 3075 6184.74 3075" stroke="#7F7F7F" stroke-width="10.0833" stroke-linecap="butt" stroke-linejoin="round" stroke-miterlimit="10" stroke-dasharray="40.3333 30.25" stroke-opacity="1" fill="none" fill-rule="evenodd"/><rect x="6139" y="2722" width="209" height="353" stroke="#CED6DD" stroke-width="10.0833" stroke-linecap="butt" stroke-linejoin="round" stroke-miterlimit="10" stroke-opacity="1" fill="#F6A800" fill-opacity="1"/><text fill="#14181D" fill-opacity="1" font-family="Arial,Arial_MSFontService,sans-serif" font-style="normal" font-variant="normal" font-weight="400" font-stretch="normal" font-size="128" text-anchor="start" direction="ltr" writing-mode="lr-tb" unicode-bidi="normal" text-decoration="none" transform="matrix(6.12323e-17 -1 1 6.12323e-17 6291.54 3012)">Use</text><rect x="6473" y="2369" width="209" height="353" stroke="#CED6DD" stroke-width="10.0833" stroke-linecap="butt" stroke-linejoin="round" stroke-miterlimit="10" stroke-opacity="1" fill="#F6A800" fill-opacity="1"/><text fill="#14181D" fill-opacity="1" font-family="Arial,Arial_MSFontService,sans-serif" font-style="normal" font-variant="normal" font-weight="400" font-stretch="normal" font-size="128" text-anchor="start" direction="ltr" writing-mode="lr-tb" unicode-bidi="normal" text-decoration="none" transform="matrix(6.12323e-17 -1 1 6.12323e-17 6625.39 2659)">Use</text><rect x="6805" y="2016" width="209" height="353" stroke="#CED6DD" stroke-width="10.0833" stroke-linecap="butt" stroke-linejoin="round" stroke-miterlimit="10" stroke-opacity="1" fill="#F6A800" fill-opacity="1"/><text fill="#14181D" fill-opacity="1" font-family="Arial,Arial_MSFontService,sans-serif" font-style="normal" font-variant="normal" font-weight="400" font-stretch="normal" font-size="128" text-anchor="start" direction="ltr" writing-mode="lr-tb" unicode-bidi="normal" text-decoration="none" transform="matrix(6.12323e-17 -1 1 6.12323e-17 6957.42 2306)">Use</text><rect x="7137" y="1755" width="209" height="261" stroke="#CED6DD" stroke-width="10.0833" stroke-linecap="butt" stroke-linejoin="round" stroke-miterlimit="10" stroke-opacity="1" fill="#7A6FAC" fill-opacity="1"/><text fill="#14181D" fill-opacity="1" font-family="Arial,Arial_MSFontService,sans-serif" font-style="normal" font-variant="normal" font-weight="400" font-stretch="normal" font-size="128" text-anchor="start" direction="ltr" writing-mode="lr-tb" unicode-bidi="normal" text-decoration="none" transform="matrix(6.12323e-17 -1 1 6.12323e-17 7289.45 2014)">EOL</text><path d="M5792.65 3001.4C5779.51 2988.39 5783.23 2963.33 5800.95 2945.43L6387.6 2353.05C6405.32 2335.15 6409.04 2310.09 6395.9 2297.07 6409.04 2310.09 6434.07 2306.13 6451.79 2288.23L7038.44 1695.85C7056.16 1677.95 7081.19 1673.99 7094.33 1687.01" stroke="#CED6DD" stroke-width="17.1875" stroke-linecap="round" stroke-linejoin="round" stroke-miterlimit="10" stroke-opacity="1" fill="none" fill-rule="evenodd"/><path d="M5912.5 3543.5 5912.5 3582.48" stroke="#CED6DD" stroke-width="17.1875" stroke-linecap="round" stroke-linejoin="round" stroke-miterlimit="10" stroke-opacity="1" fill="none" fill-rule="evenodd"/><path d="M7241.5 3543.5 7241.5 3582.48" stroke="#CED6DD" stroke-width="17.1875" stroke-linecap="round" stroke-linejoin="round" stroke-miterlimit="10" stroke-opacity="1" fill="none" fill-rule="evenodd"/><rect x="5808" y="3075" width="209" height="467" stroke="#CED6DD" stroke-width="10.0833" stroke-linecap="butt" stroke-linejoin="round" stroke-miterlimit="10" stroke-opacity="1" fill="#58AB27" fill-opacity="1"/><text fill="#14181D" fill-opacity="1" font-family="Arial,Arial_MSFontService,sans-serif" font-style="normal" font-variant="normal" font-weight="400" font-stretch="normal" font-size="128" text-anchor="start" direction="ltr" writing-mode="lr-tb" unicode-bidi="normal" text-decoration="none" transform="matrix(6.12323e-17 -1 1 6.12323e-17 5960.49 3462)">Prod.</text><path d="M5676.5 3533.91 7469.51 3533.91 7469.51 3551.09 5676.5 3551.09ZM7422.28 3505 7486.56 3542.5 7422.28 3580 7422.28 3580C7418.18 3582.39 7412.91 3581.01 7410.52 3576.91 7408.13 3572.81 7409.52 3567.55 7413.61 3565.16L7465.18 3535.08 7465.18 3549.92 7413.62 3519.84C7409.52 3517.45 7408.13 3512.19 7410.52 3508.09 7412.91 3503.99 7418.18 3502.61 7422.28 3505Z" fill="#CED6DD" fill-rule="nonzero" fill-opacity="1"/><path d="M8.59375-1.53502e-06 8.59411 2003.43-8.59339 2003.43-8.59375 1.53502e-06ZM37.5016 1956.19 0.000372564 2020.48-37.5009 1956.19C-39.8923 1952.09-38.5076 1946.83-34.4079 1944.44-30.3083 1942.05-25.0462 1943.43-22.6547 1947.53L7.42345 1999.1-7.42274 1999.1 22.6554 1947.53C25.0468 1943.43 30.3089 1942.05 34.4086 1944.44 38.5083 1946.83 39.893 1952.09 37.5016 1956.19Z" fill="#CED6DD" fill-rule="nonzero" fill-opacity="1" transform="matrix(1 0 0 -1 5676.5 3545.94)"/><text fill="#CED6DD" fill-opacity="1" font-family="Arial,Arial_MSFontService,sans-serif" font-style="normal" font-variant="normal" font-weight="400" font-stretch="normal" font-size="147" text-anchor="start" direction="ltr" writing-mode="lr-tb" unicode-bidi="normal" text-decoration="none" transform="matrix(-1.83697e-16 -1 1 -1.83697e-16 5616.86 2867)">Emissions</text><path d="M6244.5 3543.5 6244.5 3582.48" stroke="#CED6DD" stroke-width="17.1875" stroke-linecap="round" stroke-linejoin="round" stroke-miterlimit="10" stroke-opacity="1" fill="none" fill-rule="evenodd"/><path d="M6577.5 3543.5 6577.5 3582.48" stroke="#CED6DD" stroke-width="17.1875" stroke-linecap="round" stroke-linejoin="round" stroke-miterlimit="10" stroke-opacity="1" fill="none" fill-rule="evenodd"/><path d="M6909.5 3543.5 6909.5 3582.48" stroke="#CED6DD" stroke-width="17.1875" stroke-linecap="round" stroke-linejoin="round" stroke-miterlimit="10" stroke-opacity="1" fill="none" fill-rule="evenodd"/><text fill="#CED6DD" fill-opacity="1" font-family="Arial,Arial_MSFontService,sans-serif" font-style="italic" font-variant="normal" font-weight="400" font-stretch="normal" font-size="128" text-anchor="start" direction="ltr" writing-mode="lr-tb" unicode-bidi="normal" text-decoration="none" transform="matrix(0.707107 -0.707107 0.707107 0.707107 5769.39 3887)">2025</text><text fill="#CED6DD" fill-opacity="1" font-family="Arial,Arial_MSFontService,sans-serif" font-style="italic" font-variant="normal" font-weight="400" font-stretch="normal" font-size="128" text-anchor="start" direction="ltr" writing-mode="lr-tb" unicode-bidi="normal" text-decoration="none" transform="matrix(0.707107 -0.707107 0.707107 0.707107 6103.36 3887)">2030</text><text fill="#CED6DD" fill-opacity="1" font-family="Arial,Arial_MSFontService,sans-serif" font-style="italic" font-variant="normal" font-weight="400" font-stretch="normal" font-size="128" text-anchor="start" direction="ltr" writing-mode="lr-tb" unicode-bidi="normal" text-decoration="none" transform="matrix(0.707107 -0.707107 0.707107 0.707107 6437.34 3887)">2035</text><text fill="#CED6DD" fill-opacity="1" font-family="Arial,Arial_MSFontService,sans-serif" font-style="italic" font-variant="normal" font-weight="400" font-stretch="normal" font-size="128" text-anchor="start" direction="ltr" writing-mode="lr-tb" unicode-bidi="normal" text-decoration="none" transform="matrix(0.707107 -0.707107 0.707107 0.707107 6771.32 3887)">2040</text><text fill="#CED6DD" fill-opacity="1" font-family="Arial,Arial_MSFontService,sans-serif" font-style="italic" font-variant="normal" font-weight="400" font-stretch="normal" font-size="128" text-anchor="start" direction="ltr" writing-mode="lr-tb" unicode-bidi="normal" text-decoration="none" transform="matrix(0.707107 -0.707107 0.707107 0.707107 7105.3 3887)">2045</text><path d="M5983.5 1027.5C5983.5 1039.1 5949.92 1048.5 5908.5 1048.5 5867.08 1048.5 5833.5 1039.1 5833.5 1027.5 5833.5 1015.9 5867.08 1006.5 5908.5 1006.5 5949.92 1006.5 5983.5 1015.9 5983.5 1027.5Z" stroke="#000000" stroke-width="5.04167" stroke-linecap="butt" stroke-linejoin="miter" stroke-miterlimit="8" stroke-opacity="1" fill="#7A6FAC" fill-rule="evenodd" fill-opacity="1"/><path d="M5962.07 1079.5C5958.86 1079.5 5956.71 1077.4 5956.71 1074.25 5956.71 1071.1 5958.86 1069 5962.07 1069 5965.29 1069 5967.43 1071.1 5967.43 1074.25 5967.43 1077.4 5965.29 1079.5 5962.07 1079.5ZM5908.5 1058.5C5867.25 1058.5 5833.5 1049.05 5833.5 1037.5L5833.5 1079.5C5833.5 1091.05 5867.25 1100.5 5908.5 1100.5 5949.75 1100.5 5983.5 1091.05 5983.5 1079.5L5983.5 1037.5C5983.5 1049.05 5949.75 1058.5 5908.5 1058.5Z" stroke="#000000" stroke-width="5.04167" stroke-linecap="butt" stroke-linejoin="miter" stroke-miterlimit="8" stroke-opacity="1" fill="#7A6FAC" fill-rule="evenodd" fill-opacity="1"/><path d="M5962.07 1132.5C5958.86 1132.5 5956.71 1130.4 5956.71 1127.25 5956.71 1124.1 5958.86 1122 5962.07 1122 5965.29 1122 5967.43 1124.1 5967.43 1127.25 5967.43 1130.4 5965.29 1132.5 5962.07 1132.5ZM5908.5 1111.5C5867.25 1111.5 5833.5 1102.05 5833.5 1090.5L5833.5 1132.5C5833.5 1144.05 5867.25 1153.5 5908.5 1153.5 5949.75 1153.5 5983.5 1144.05 5983.5 1132.5L5983.5 1090.5C5983.5 1102.05 5949.75 1111.5 5908.5 1111.5Z" stroke="#000000" stroke-width="5.04167" stroke-linecap="butt" stroke-linejoin="miter" stroke-miterlimit="8" stroke-opacity="1" fill="#F7A800" fill-rule="evenodd" fill-opacity="1"/><path d="M5962.07 1184.5C5958.86 1184.5 5956.71 1182.4 5956.71 1179.25 5956.71 1176.1 5958.86 1174 5962.07 1174 5965.29 1174 5967.43 1176.1 5967.43 1179.25 5967.43 1182.4 5965.29 1184.5 5962.07 1184.5ZM5908.5 1163.5C5867.25 1163.5 5833.5 1154.05 5833.5 1142.5L5833.5 1184.5C5833.5 1196.05 5867.25 1205.5 5908.5 1205.5 5949.75 1205.5 5983.5 1196.05 5983.5 1184.5L5983.5 1142.5C5983.5 1154.05 5949.75 1163.5 5908.5 1163.5Z" stroke="#000000" stroke-width="5.04167" stroke-linecap="butt" stroke-linejoin="miter" stroke-miterlimit="8" stroke-opacity="1" fill="#58AB27" fill-rule="evenodd" fill-opacity="1"/><path d="M6318.5 1027.5C6318.5 1039.1 6285.15 1048.5 6244 1048.5 6202.85 1048.5 6169.5 1039.1 6169.5 1027.5 6169.5 1015.9 6202.85 1006.5 6244 1006.5 6285.15 1006.5 6318.5 1015.9 6318.5 1027.5Z" stroke="#000000" stroke-width="5.04167" stroke-linecap="butt" stroke-linejoin="miter" stroke-miterlimit="8" stroke-opacity="1" fill="#8478BE" fill-rule="evenodd" fill-opacity="1"/><path d="M6297.21 1079.5C6294.02 1079.5 6291.89 1077.4 6291.89 1074.25 6291.89 1071.1 6294.02 1069 6297.21 1069 6300.41 1069 6302.54 1071.1 6302.54 1074.25 6302.54 1077.4 6300.41 1079.5 6297.21 1079.5ZM6244 1058.5C6203.02 1058.5 6169.5 1049.05 6169.5 1037.5L6169.5 1079.5C6169.5 1091.05 6203.02 1100.5 6244 1100.5 6284.98 1100.5 6318.5 1091.05 6318.5 1079.5L6318.5 1037.5C6318.5 1049.05 6284.98 1058.5 6244 1058.5Z" stroke="#000000" stroke-width="5.04167" stroke-linecap="butt" stroke-linejoin="miter" stroke-miterlimit="8" stroke-opacity="1" fill="#8478BE" fill-rule="evenodd" fill-opacity="1"/><path d="M6297.21 1132.5C6294.02 1132.5 6291.89 1130.4 6291.89 1127.25 6291.89 1124.1 6294.02 1122 6297.21 1122 6300.41 1122 6302.54 1124.1 6302.54 1127.25 6302.54 1130.4 6300.41 1132.5 6297.21 1132.5ZM6244 1111.5C6203.02 1111.5 6169.5 1102.05 6169.5 1090.5L6169.5 1132.5C6169.5 1144.05 6203.02 1153.5 6244 1153.5 6284.98 1153.5 6318.5 1144.05 6318.5 1132.5L6318.5 1090.5C6318.5 1102.05 6284.98 1111.5 6244 1111.5Z" stroke="#000000" stroke-width="5.04167" stroke-linecap="butt" stroke-linejoin="miter" stroke-miterlimit="8" stroke-opacity="1" fill="#FABE4F" fill-rule="evenodd" fill-opacity="1"/><path d="M6297.21 1184.5C6294.02 1184.5 6291.89 1182.4 6291.89 1179.25 6291.89 1176.1 6294.02 1174 6297.21 1174 6300.41 1174 6302.54 1176.1 6302.54 1179.25 6302.54 1182.4 6300.41 1184.5 6297.21 1184.5ZM6244 1163.5C6203.02 1163.5 6169.5 1154.05 6169.5 1142.5L6169.5 1184.5C6169.5 1196.05 6203.02 1205.5 6244 1205.5 6284.98 1205.5 6318.5 1196.05 6318.5 1184.5L6318.5 1142.5C6318.5 1154.05 6284.98 1163.5 6244 1163.5Z" stroke="#000000" stroke-width="5.04167" stroke-linecap="butt" stroke-linejoin="miter" stroke-miterlimit="8" stroke-opacity="1" fill="#88BA5E" fill-rule="evenodd" fill-opacity="1"/><path d="M6654.5 1027.5C6654.5 1039.1 6620.92 1048.5 6579.5 1048.5 6538.08 1048.5 6504.5 1039.1 6504.5 1027.5 6504.5 1015.9 6538.08 1006.5 6579.5 1006.5 6620.92 1006.5 6654.5 1015.9 6654.5 1027.5Z" stroke="#000000" stroke-width="5.04167" stroke-linecap="butt" stroke-linejoin="miter" stroke-miterlimit="8" stroke-opacity="1" fill="#938BBB" fill-rule="evenodd" fill-opacity="1"/><path d="M6633.07 1079.5C6629.86 1079.5 6627.71 1077.4 6627.71 1074.25 6627.71 1071.1 6629.86 1069 6633.07 1069 6636.29 1069 6638.43 1071.1 6638.43 1074.25 6638.43 1077.4 6636.29 1079.5 6633.07 1079.5ZM6579.5 1058.5C6538.25 1058.5 6504.5 1049.05 6504.5 1037.5L6504.5 1079.5C6504.5 1091.05 6538.25 1100.5 6579.5 1100.5 6620.75 1100.5 6654.5 1091.05 6654.5 1079.5L6654.5 1037.5C6654.5 1049.05 6620.75 1058.5 6579.5 1058.5Z" stroke="#000000" stroke-width="5.04167" stroke-linecap="butt" stroke-linejoin="miter" stroke-miterlimit="8" stroke-opacity="1" fill="#938BBB" fill-rule="evenodd" fill-opacity="1"/><path d="M6633.07 1132.5C6629.86 1132.5 6627.71 1130.4 6627.71 1127.25 6627.71 1124.1 6629.86 1122 6633.07 1122 6636.29 1122 6638.43 1124.1 6638.43 1127.25 6638.43 1130.4 6636.29 1132.5 6633.07 1132.5ZM6579.5 1111.5C6538.25 1111.5 6504.5 1102.05 6504.5 1090.5L6504.5 1132.5C6504.5 1144.05 6538.25 1153.5 6579.5 1153.5 6620.75 1153.5 6654.5 1144.05 6654.5 1132.5L6654.5 1090.5C6654.5 1102.05 6620.75 1111.5 6579.5 1111.5Z" stroke="#000000" stroke-width="5.04167" stroke-linecap="butt" stroke-linejoin="miter" stroke-miterlimit="8" stroke-opacity="1" fill="#FFC553" fill-rule="evenodd" fill-opacity="1"/><path d="M6633.07 1184.5C6629.86 1184.5 6627.71 1182.4 6627.71 1179.25 6627.71 1176.1 6629.86 1174 6633.07 1174 6636.29 1174 6638.43 1176.1 6638.43 1179.25 6638.43 1182.4 6636.29 1184.5 6633.07 1184.5ZM6579.5 1163.5C6538.25 1163.5 6504.5 1154.05 6504.5 1142.5L6504.5 1184.5C6504.5 1196.05 6538.25 1205.5 6579.5 1205.5 6620.75 1205.5 6654.5 1196.05 6654.5 1184.5L6654.5 1142.5C6654.5 1154.05 6620.75 1163.5 6579.5 1163.5Z" stroke="#000000" stroke-width="5.04167" stroke-linecap="butt" stroke-linejoin="miter" stroke-miterlimit="8" stroke-opacity="1" fill="#8DC05F" fill-rule="evenodd" fill-opacity="1"/><path d="M6989.5 1027.5C6989.5 1039.1 6956.15 1048.5 6915 1048.5 6873.85 1048.5 6840.5 1039.1 6840.5 1027.5 6840.5 1015.9 6873.85 1006.5 6915 1006.5 6956.15 1006.5 6989.5 1015.9 6989.5 1027.5Z" stroke="#000000" stroke-width="5.04167" stroke-linecap="butt" stroke-linejoin="miter" stroke-miterlimit="8" stroke-opacity="1" fill="#9B91C2" fill-rule="evenodd" fill-opacity="1"/><path d="M6968.21 1079.5C6965.02 1079.5 6962.89 1077.4 6962.89 1074.25 6962.89 1071.1 6965.02 1069 6968.21 1069 6971.41 1069 6973.54 1071.1 6973.54 1074.25 6973.54 1077.4 6971.41 1079.5 6968.21 1079.5ZM6915 1058.5C6874.02 1058.5 6840.5 1049.05 6840.5 1037.5L6840.5 1079.5C6840.5 1091.05 6874.02 1100.5 6915 1100.5 6955.98 1100.5 6989.5 1091.05 6989.5 1079.5L6989.5 1037.5C6989.5 1049.05 6955.98 1058.5 6915 1058.5Z" stroke="#000000" stroke-width="5.04167" stroke-linecap="butt" stroke-linejoin="miter" stroke-miterlimit="8" stroke-opacity="1" fill="#9B91C2" fill-rule="evenodd" fill-opacity="1"/><path d="M6968.21 1132.5C6965.02 1132.5 6962.89 1130.4 6962.89 1127.25 6962.89 1124.1 6965.02 1122 6968.21 1122 6971.41 1122 6973.54 1124.1 6973.54 1127.25 6973.54 1130.4 6971.41 1132.5 6968.21 1132.5ZM6915 1111.5C6874.02 1111.5 6840.5 1102.05 6840.5 1090.5L6840.5 1132.5C6840.5 1144.05 6874.02 1153.5 6915 1153.5 6955.98 1153.5 6989.5 1144.05 6989.5 1132.5L6989.5 1090.5C6989.5 1102.05 6955.98 1111.5 6915 1111.5Z" stroke="#000000" stroke-width="5.04167" stroke-linecap="butt" stroke-linejoin="miter" stroke-miterlimit="8" stroke-opacity="1" fill="#F4CC8B" fill-rule="evenodd" fill-opacity="1"/><path d="M6968.21 1184.5C6965.02 1184.5 6962.89 1182.4 6962.89 1179.25 6962.89 1176.1 6965.02 1174 6968.21 1174 6971.41 1174 6973.54 1176.1 6973.54 1179.25 6973.54 1182.4 6971.41 1184.5 6968.21 1184.5ZM6915 1163.5C6874.02 1163.5 6840.5 1154.05 6840.5 1142.5L6840.5 1184.5C6840.5 1196.05 6874.02 1205.5 6915 1205.5 6955.98 1205.5 6989.5 1196.05 6989.5 1184.5L6989.5 1142.5C6989.5 1154.05 6955.98 1163.5 6915 1163.5Z" stroke="#000000" stroke-width="5.04167" stroke-linecap="butt" stroke-linejoin="miter" stroke-miterlimit="8" stroke-opacity="1" fill="#A5CB82" fill-rule="evenodd" fill-opacity="1"/><path d="M7325.5 1027.5C7325.5 1039.1 7291.92 1048.5 7250.5 1048.5 7209.08 1048.5 7175.5 1039.1 7175.5 1027.5 7175.5 1015.9 7209.08 1006.5 7250.5 1006.5 7291.92 1006.5 7325.5 1015.9 7325.5 1027.5Z" stroke="#000000" stroke-width="5.04167" stroke-linecap="butt" stroke-linejoin="miter" stroke-miterlimit="8" stroke-opacity="1" fill="#B4A8E1" fill-rule="evenodd" fill-opacity="1"/><path d="M7304.07 1079.5C7300.86 1079.5 7298.71 1077.4 7298.71 1074.25 7298.71 1071.1 7300.86 1069 7304.07 1069 7307.29 1069 7309.43 1071.1 7309.43 1074.25 7309.43 1077.4 7307.29 1079.5 7304.07 1079.5ZM7250.5 1058.5C7209.25 1058.5 7175.5 1049.05 7175.5 1037.5L7175.5 1079.5C7175.5 1091.05 7209.25 1100.5 7250.5 1100.5 7291.75 1100.5 7325.5 1091.05 7325.5 1079.5L7325.5 1037.5C7325.5 1049.05 7291.75 1058.5 7250.5 1058.5Z" stroke="#000000" stroke-width="5.04167" stroke-linecap="butt" stroke-linejoin="miter" stroke-miterlimit="8" stroke-opacity="1" fill="#B4A8E1" fill-rule="evenodd" fill-opacity="1"/><path d="M7304.07 1132.5C7300.86 1132.5 7298.71 1130.4 7298.71 1127.25 7298.71 1124.1 7300.86 1122 7304.07 1122 7307.29 1122 7309.43 1124.1 7309.43 1127.25 7309.43 1130.4 7307.29 1132.5 7304.07 1132.5ZM7250.5 1111.5C7209.25 1111.5 7175.5 1102.05 7175.5 1090.5L7175.5 1132.5C7175.5 1144.05 7209.25 1153.5 7250.5 1153.5 7291.75 1153.5 7325.5 1144.05 7325.5 1132.5L7325.5 1090.5C7325.5 1102.05 7291.75 1111.5 7250.5 1111.5Z" stroke="#000000" stroke-width="5.04167" stroke-linecap="butt" stroke-linejoin="miter" stroke-miterlimit="8" stroke-opacity="1" fill="#FED48F" fill-rule="evenodd" fill-opacity="1"/><path d="M7304.07 1184.5C7300.86 1184.5 7298.71 1182.4 7298.71 1179.25 7298.71 1176.1 7300.86 1174 7304.07 1174 7307.29 1174 7309.43 1176.1 7309.43 1179.25 7309.43 1182.4 7307.29 1184.5 7304.07 1184.5ZM7250.5 1163.5C7209.25 1163.5 7175.5 1154.05 7175.5 1142.5L7175.5 1184.5C7175.5 1196.05 7209.25 1205.5 7250.5 1205.5 7291.75 1205.5 7325.5 1196.05 7325.5 1184.5L7325.5 1142.5C7325.5 1154.05 7291.75 1163.5 7250.5 1163.5Z" stroke="#000000" stroke-width="5.04167" stroke-linecap="butt" stroke-linejoin="miter" stroke-miterlimit="8" stroke-opacity="1" fill="#C4E3A6" fill-rule="evenodd" fill-opacity="1"/><text fill="#CED6DD" fill-opacity="1" font-family="Arial,Arial_MSFontService,sans-serif" font-style="italic" font-variant="normal" font-weight="400" font-stretch="normal" font-size="128" text-anchor="start" direction="ltr" writing-mode="lr-tb" unicode-bidi="normal" text-decoration="none" transform="matrix(1 0 0 1 5771.75 1355)">2025</text><text fill="#CED6DD" fill-opacity="1" font-family="Arial,Arial_MSFontService,sans-serif" font-style="italic" font-variant="normal" font-weight="400" font-stretch="normal" font-size="128" text-anchor="start" direction="ltr" writing-mode="lr-tb" unicode-bidi="normal" text-decoration="none" transform="matrix(1 0 0 1 6108.54 1355)">2030</text><text fill="#CED6DD" fill-opacity="1" font-family="Arial,Arial_MSFontService,sans-serif" font-style="italic" font-variant="normal" font-weight="400" font-stretch="normal" font-size="128" text-anchor="start" direction="ltr" writing-mode="lr-tb" unicode-bidi="normal" text-decoration="none" transform="matrix(1 0 0 1 6445.32 1355)">2035</text><text fill="#CED6DD" fill-opacity="1" font-family="Arial,Arial_MSFontService,sans-serif" font-style="italic" font-variant="normal" font-weight="400" font-stretch="normal" font-size="128" text-anchor="start" direction="ltr" writing-mode="lr-tb" unicode-bidi="normal" text-decoration="none" transform="matrix(1 0 0 1 6782.11 1355)">2040</text><text fill="#CED6DD" fill-opacity="1" font-family="Arial,Arial_MSFontService,sans-serif" font-style="italic" font-variant="normal" font-weight="400" font-stretch="normal" font-size="128" text-anchor="start" direction="ltr" writing-mode="lr-tb" unicode-bidi="normal" text-decoration="none" transform="matrix(1 0 0 1 7118.89 1355)">2045</text><text fill="#CED6DD" fill-opacity="1" font-family="Arial,Arial_MSFontService,sans-serif" font-style="italic" font-variant="normal" font-weight="400" font-stretch="normal" font-size="147" text-anchor="start" direction="ltr" writing-mode="lr-tb" unicode-bidi="normal" text-decoration="none" transform="matrix(1 0 0 1 5819.56 945)">LCI data:</text><path d="M818.441 263.646 829.3 285.493 839.951 308.178 850.301 331.505 860.345 355.456 870.081 380.013 879.507 405.16 888.618 430.879 897.413 457.152 905.888 483.962 914.04 511.292 921.866 539.123 929.362 567.439 936.525 596.223 943.353 625.455 949.841 655.12 955.987 685.199 961.786 715.675 967.237 746.531 977.068 809.255 985.471 873.342 992.409 938.595 995.324 971.666 997.858 1004.92 1000.01 1038.4 1001.78 1072.08 1003.16 1105.95 1004.16 1139.99 1004.75 1174.18 1004.88 1195.09C1004.9 1199.84 1001.08 1203.71 996.332 1203.73 991.586 1203.76 987.716 1199.94 987.688 1195.19L987.568 1174.48 986.975 1140.49 985.99 1106.65 984.617 1072.99 982.859 1039.51 980.72 1006.23 978.203 973.174 975.317 940.411 968.429 875.576 960.088 811.917 950.311 749.52 944.902 718.888 939.147 688.639 933.05 658.792 926.616 629.364 919.846 600.373 912.747 571.837 905.32 543.775 897.569 516.204 889.5 489.142 881.114 462.607 872.417 436.618 863.412 411.192 854.103 386.347 844.494 362.102 834.589 338.474 824.393 315.481 813.909 293.143 803.05 271.296C800.937 267.046 802.67 261.888 806.92 259.776 811.17 257.663 816.328 259.396 818.441 263.646ZM1045.58 1148.79 996.36 1208.56 946.444 1149.37C943.384 1145.74 943.845 1140.32 947.473 1137.26 951.102 1134.2 956.523 1134.66 959.583 1138.29L1002.85 1189.6 989.648 1189.68 1032.32 1137.86C1035.33 1134.2 1040.75 1133.68 1044.41 1136.69 1048.08 1139.71 1048.6 1145.13 1045.58 1148.79Z" fill="#CED6DD" fill-rule="nonzero" fill-opacity="1" transform="matrix(-0.790716 0.612183 0.612183 0.790716 6409.68 708.215)"/><text fill="#CED6DD" fill-opacity="1" font-family="Arial,Arial_MSFontService,sans-serif" font-style="italic" font-variant="normal" font-weight="700" font-stretch="normal" font-size="128" text-anchor="start" direction="ltr" writing-mode="lr-tb" unicode-bidi="normal" text-decoration="none" transform="matrix(1 0 0 1 6127.06 1736)">‘Dynamic’ </text><text fill="#CED6DD" fill-opacity="1" font-family="Arial,Arial_MSFontService,sans-serif" font-style="italic" font-variant="normal" font-weight="700" font-stretch="normal" font-size="128" text-anchor="start" direction="ltr" writing-mode="lr-tb" unicode-bidi="normal" text-decoration="none" transform="matrix(1 0 0 1 6162.58 1890)">LCA</text><path d="M410.5 881.811C410.5 711.536 548.536 573.5 718.811 573.5L4505.19 573.5C4675.46 573.5 4813.5 711.536 4813.5 881.811L4813.5 3643.19C4813.5 3813.46 4675.46 3951.5 4505.19 3951.5L718.811 3951.5C548.536 3951.5 410.5 3813.46 410.5 3643.19Z" stroke="#3FB0C4" stroke-width="20.625" stroke-linecap="butt" stroke-linejoin="round" stroke-miterlimit="10" stroke-opacity="1" fill="#14181E" fill-rule="evenodd" fill-opacity="1"/><text fill="#CED6DD" fill-opacity="1" font-family="Arial,Arial_MSFontService,sans-serif" font-style="italic" font-variant="normal" font-weight="400" font-stretch="normal" font-size="128" text-anchor="start" direction="ltr" writing-mode="lr-tb" unicode-bidi="normal" text-decoration="none" transform="matrix(0.707107 -0.707107 0.707107 0.707107 2956 3880)">2025</text><text fill="#CED6DD" fill-opacity="1" font-family="Arial,Arial_MSFontService,sans-serif" font-style="italic" font-variant="normal" font-weight="400" font-stretch="normal" font-size="128" text-anchor="start" direction="ltr" writing-mode="lr-tb" unicode-bidi="normal" text-decoration="none" transform="matrix(0.707107 -0.707107 0.707107 0.707107 3289.98 3880)">2030</text><text fill="#CED6DD" fill-opacity="1" font-family="Arial,Arial_MSFontService,sans-serif" font-style="italic" font-variant="normal" font-weight="400" font-stretch="normal" font-size="128" text-anchor="start" direction="ltr" writing-mode="lr-tb" unicode-bidi="normal" text-decoration="none" transform="matrix(0.707107 -0.707107 0.707107 0.707107 3623.95 3880)">2035</text><text fill="#CED6DD" fill-opacity="1" font-family="Arial,Arial_MSFontService,sans-serif" font-style="italic" font-variant="normal" font-weight="400" font-stretch="normal" font-size="128" text-anchor="start" direction="ltr" writing-mode="lr-tb" unicode-bidi="normal" text-decoration="none" transform="matrix(0.707107 -0.707107 0.707107 0.707107 3957.93 3880)">2040</text><text fill="#CED6DD" fill-opacity="1" font-family="Arial,Arial_MSFontService,sans-serif" font-style="italic" font-variant="normal" font-weight="400" font-stretch="normal" font-size="128" text-anchor="start" direction="ltr" writing-mode="lr-tb" unicode-bidi="normal" text-decoration="none" transform="matrix(0.707107 -0.707107 0.707107 0.707107 4291.91 3880)">2045</text><path d="M1575 480.388C1575 421.079 1623.08 373 1682.39 373L3468.61 373C3527.92 373 3576 421.079 3576 480.388L3576 654.612C3576 713.921 3527.92 762 3468.61 762L1682.39 762C1623.08 762 1575 713.921 1575 654.612Z" fill="#3FB0C4" fill-rule="evenodd" fill-opacity="1"/><text fill="#FFFFFF" fill-opacity="1" font-family="Arial,Arial_MSFontService,sans-serif" font-style="normal" font-variant="normal" font-weight="400" font-stretch="normal" font-size="202" text-anchor="start" direction="ltr" writing-mode="lr-tb" unicode-bidi="normal" text-decoration="none" transform="matrix(1 0 0 1 1789.34 642)">Time</text><text fill="#FFFFFF" fill-opacity="1" font-family="Arial,Arial_MSFontService,sans-serif" font-style="normal" font-variant="normal" font-weight="400" font-stretch="normal" font-size="202" text-anchor="start" direction="ltr" writing-mode="lr-tb" unicode-bidi="normal" text-decoration="none" transform="matrix(1 0 0 1 2229.87 642)">-</text><text fill="#FFFFFF" fill-opacity="1" font-family="Arial,Arial_MSFontService,sans-serif" font-style="normal" font-variant="normal" font-weight="400" font-stretch="normal" font-size="202" text-anchor="start" direction="ltr" writing-mode="lr-tb" unicode-bidi="normal" text-decoration="none" transform="matrix(1 0 0 1 2296.9 642)">explicit LCA</text><text fill="#CED6DD" fill-opacity="1" font-family="Arial,Arial_MSFontService,sans-serif" font-style="italic" font-variant="normal" font-weight="400" font-stretch="normal" font-size="147" text-anchor="start" direction="ltr" writing-mode="lr-tb" unicode-bidi="normal" text-decoration="none" transform="matrix(1 0 0 1 3007.41 938)">LCI data:</text><rect x="3991" y="2393" width="210" height="143" stroke="#CED6DD" stroke-width="10.0833" stroke-linecap="butt" stroke-linejoin="round" stroke-miterlimit="10" stroke-opacity="1" fill="#FFE5B2" fill-opacity="1"/><text fill="#14181D" fill-opacity="1" font-family="Arial,Arial_MSFontService,sans-serif" font-style="normal" font-variant="normal" font-weight="400" font-stretch="normal" font-size="83" text-anchor="start" direction="ltr" writing-mode="lr-tb" unicode-bidi="normal" text-decoration="none" transform="matrix(6.12323e-17 -1 1 6.12323e-17 4126.52 2528)">Use</text><path d="M4218 2394 4335.2 2394" stroke="#7F7F7F" stroke-width="10.0833" stroke-linecap="butt" stroke-linejoin="round" stroke-miterlimit="10" stroke-dasharray="40.3333 30.25" stroke-opacity="1" fill="none" fill-rule="evenodd"/><path d="M3863 2533 3980.2 2533" stroke="#7F7F7F" stroke-width="10.0833" stroke-linecap="butt" stroke-linejoin="round" stroke-miterlimit="10" stroke-dasharray="40.3333 30.25" stroke-opacity="1" fill="none" fill-rule="evenodd"/><path d="M3526 2753 3689.74 2753" stroke="#7F7F7F" stroke-width="10.0833" stroke-linecap="butt" stroke-linejoin="round" stroke-miterlimit="10" stroke-dasharray="40.3333 30.25" stroke-opacity="1" fill="none" fill-rule="evenodd"/><path d="M3189 3067 3352.74 3067" stroke="#7F7F7F" stroke-width="10.0833" stroke-linecap="butt" stroke-linejoin="round" stroke-miterlimit="10" stroke-dasharray="40.3333 30.25" stroke-opacity="1" fill="none" fill-rule="evenodd"/><rect x="3325" y="2753" width="210" height="315" stroke="#CED6DD" stroke-width="10.0833" stroke-linecap="butt" stroke-linejoin="round" stroke-miterlimit="10" stroke-opacity="1" fill="#FABE4F" fill-opacity="1"/><text fill="#14181D" fill-opacity="1" font-family="Arial,Arial_MSFontService,sans-serif" font-style="normal" font-variant="normal" font-weight="400" font-stretch="normal" font-size="128" text-anchor="start" direction="ltr" writing-mode="lr-tb" unicode-bidi="normal" text-decoration="none" transform="matrix(6.12323e-17 -1 1 6.12323e-17 3478.15 3025)">Use</text><rect x="3659" y="2533" width="210" height="220" stroke="#CED6DD" stroke-width="10.0833" stroke-linecap="butt" stroke-linejoin="round" stroke-miterlimit="10" stroke-opacity="1" fill="#FFD48F" fill-opacity="1"/><text fill="#14181D" fill-opacity="1" font-family="Arial Narrow,Arial Narrow_MSFontService,sans-serif" font-style="normal" font-variant="normal" font-weight="400" font-stretch="condensed" font-size="115" text-anchor="start" direction="ltr" writing-mode="lr-tb" unicode-bidi="normal" text-decoration="none" transform="matrix(6.12323e-17 -1 1 6.12323e-17 3807.24 2726)">Use</text><path d="M3099.5 3537.5 3099.5 3576.48" stroke="#CED6DD" stroke-width="17.1875" stroke-linecap="round" stroke-linejoin="round" stroke-miterlimit="10" stroke-opacity="1" fill="none" fill-rule="evenodd"/><path d="M4428.5 3537.5 4428.5 3576.48" stroke="#CED6DD" stroke-width="17.1875" stroke-linecap="round" stroke-linejoin="round" stroke-miterlimit="10" stroke-opacity="1" fill="none" fill-rule="evenodd"/><rect x="2994" y="3068" width="210" height="467" stroke="#CED6DD" stroke-width="10.0833" stroke-linecap="butt" stroke-linejoin="round" stroke-miterlimit="10" stroke-opacity="1" fill="#58AB27" fill-opacity="1"/><text fill="#14181D" fill-opacity="1" font-family="Arial,Arial_MSFontService,sans-serif" font-style="normal" font-variant="normal" font-weight="400" font-stretch="normal" font-size="128" text-anchor="start" direction="ltr" writing-mode="lr-tb" unicode-bidi="normal" text-decoration="none" transform="matrix(6.12323e-17 -1 1 6.12323e-17 3147.1 3455)">Prod</text><text fill="#14181D" fill-opacity="1" font-family="Arial,Arial_MSFontService,sans-serif" font-style="normal" font-variant="normal" font-weight="400" font-stretch="normal" font-size="128" text-anchor="start" direction="ltr" writing-mode="lr-tb" unicode-bidi="normal" text-decoration="none" transform="matrix(6.12323e-17 -1 1 6.12323e-17 3147.1 3183)">.</text><path d="M2862.5 3526.91 4655.51 3526.91 4655.51 3544.09 2862.5 3544.09ZM4608.28 3498 4672.56 3535.5 4608.28 3573 4608.28 3573C4604.18 3575.39 4598.91 3574.01 4596.52 3569.91 4594.13 3565.81 4595.52 3560.55 4599.61 3558.16L4651.18 3528.08 4651.18 3542.92 4599.62 3512.85C4595.52 3510.45 4594.13 3505.19 4596.52 3501.09 4598.91 3496.99 4604.18 3495.61 4608.28 3498Z" fill="#CED6DD" fill-rule="nonzero" fill-opacity="1"/><path d="M8.59375-1.53502e-06 8.59411 2003.43-8.59339 2003.43-8.59375 1.53502e-06ZM37.5016 1956.19 0.000372564 2020.48-37.5009 1956.19C-39.8923 1952.09-38.5076 1946.83-34.4079 1944.44-30.3083 1942.05-25.0462 1943.43-22.6547 1947.53L7.42345 1999.1-7.42274 1999.1 22.6554 1947.53C25.0468 1943.43 30.3089 1942.05 34.4086 1944.44 38.5083 1946.83 39.893 1952.09 37.5016 1956.19Z" fill="#CED6DD" fill-rule="nonzero" fill-opacity="1" transform="matrix(1 0 0 -1 2862.5 3539.94)"/><text fill="#CED6DD" fill-opacity="1" font-family="Arial,Arial_MSFontService,sans-serif" font-style="normal" font-variant="normal" font-weight="400" font-stretch="normal" font-size="147" text-anchor="start" direction="ltr" writing-mode="lr-tb" unicode-bidi="normal" text-decoration="none" transform="matrix(-1.83697e-16 -1 1 -1.83697e-16 2803.47 2860)">Emissions</text><path d="M3430.5 3537.5 3430.5 3576.48" stroke="#CED6DD" stroke-width="17.1875" stroke-linecap="round" stroke-linejoin="round" stroke-miterlimit="10" stroke-opacity="1" fill="none" fill-rule="evenodd"/><path d="M3764.5 3537.5 3764.5 3576.48" stroke="#CED6DD" stroke-width="17.1875" stroke-linecap="round" stroke-linejoin="round" stroke-miterlimit="10" stroke-opacity="1" fill="none" fill-rule="evenodd"/><path d="M4096.5 3537.5 4096.5 3576.48" stroke="#CED6DD" stroke-width="17.1875" stroke-linecap="round" stroke-linejoin="round" stroke-miterlimit="10" stroke-opacity="1" fill="none" fill-rule="evenodd"/><path d="M3169.5 1020.5C3169.5 1032.1 3135.92 1041.5 3094.5 1041.5 3053.08 1041.5 3019.5 1032.1 3019.5 1020.5 3019.5 1008.9 3053.08 999.5 3094.5 999.5 3135.92 999.5 3169.5 1008.9 3169.5 1020.5Z" stroke="#000000" stroke-width="5.04167" stroke-linecap="butt" stroke-linejoin="miter" stroke-miterlimit="8" stroke-opacity="1" fill="#7A6FAC" fill-rule="evenodd" fill-opacity="1"/><path d="M3148.07 1072.5C3144.86 1072.5 3142.71 1070.4 3142.71 1067.25 3142.71 1064.1 3144.86 1062 3148.07 1062 3151.29 1062 3153.43 1064.1 3153.43 1067.25 3153.43 1070.4 3151.29 1072.5 3148.07 1072.5ZM3094.5 1051.5C3053.25 1051.5 3019.5 1042.05 3019.5 1030.5L3019.5 1072.5C3019.5 1084.05 3053.25 1093.5 3094.5 1093.5 3135.75 1093.5 3169.5 1084.05 3169.5 1072.5L3169.5 1030.5C3169.5 1042.05 3135.75 1051.5 3094.5 1051.5Z" stroke="#000000" stroke-width="5.04167" stroke-linecap="butt" stroke-linejoin="miter" stroke-miterlimit="8" stroke-opacity="1" fill="#7A6FAC" fill-rule="evenodd" fill-opacity="1"/><path d="M3148.07 1125.5C3144.86 1125.5 3142.71 1123.4 3142.71 1120.25 3142.71 1117.1 3144.86 1115 3148.07 1115 3151.29 1115 3153.43 1117.1 3153.43 1120.25 3153.43 1123.4 3151.29 1125.5 3148.07 1125.5ZM3094.5 1104.5C3053.25 1104.5 3019.5 1095.05 3019.5 1083.5L3019.5 1125.5C3019.5 1137.05 3053.25 1146.5 3094.5 1146.5 3135.75 1146.5 3169.5 1137.05 3169.5 1125.5L3169.5 1083.5C3169.5 1095.05 3135.75 1104.5 3094.5 1104.5Z" stroke="#000000" stroke-width="5.04167" stroke-linecap="butt" stroke-linejoin="miter" stroke-miterlimit="8" stroke-opacity="1" fill="#F7A800" fill-rule="evenodd" fill-opacity="1"/><path d="M3148.07 1178.17C3144.86 1178.17 3142.71 1176.03 3142.71 1172.83 3142.71 1169.63 3144.86 1167.5 3148.07 1167.5 3151.29 1167.5 3153.43 1169.63 3153.43 1172.83 3153.43 1176.03 3151.29 1178.17 3148.07 1178.17ZM3094.5 1156.83C3053.25 1156.83 3019.5 1147.23 3019.5 1135.5L3019.5 1178.17C3019.5 1189.9 3053.25 1199.5 3094.5 1199.5 3135.75 1199.5 3169.5 1189.9 3169.5 1178.17L3169.5 1135.5C3169.5 1147.23 3135.75 1156.83 3094.5 1156.83Z" stroke="#000000" stroke-width="5.04167" stroke-linecap="butt" stroke-linejoin="miter" stroke-miterlimit="8" stroke-opacity="1" fill="#58AB27" fill-rule="evenodd" fill-opacity="1"/><path d="M3505.5 1020.5C3505.5 1032.1 3471.92 1041.5 3430.5 1041.5 3389.08 1041.5 3355.5 1032.1 3355.5 1020.5 3355.5 1008.9 3389.08 999.5 3430.5 999.5 3471.92 999.5 3505.5 1008.9 3505.5 1020.5Z" stroke="#000000" stroke-width="5.04167" stroke-linecap="butt" stroke-linejoin="miter" stroke-miterlimit="8" stroke-opacity="1" fill="#8478BE" fill-rule="evenodd" fill-opacity="1"/><path d="M3484.07 1072.5C3480.86 1072.5 3478.71 1070.4 3478.71 1067.25 3478.71 1064.1 3480.86 1062 3484.07 1062 3487.29 1062 3489.43 1064.1 3489.43 1067.25 3489.43 1070.4 3487.29 1072.5 3484.07 1072.5ZM3430.5 1051.5C3389.25 1051.5 3355.5 1042.05 3355.5 1030.5L3355.5 1072.5C3355.5 1084.05 3389.25 1093.5 3430.5 1093.5 3471.75 1093.5 3505.5 1084.05 3505.5 1072.5L3505.5 1030.5C3505.5 1042.05 3471.75 1051.5 3430.5 1051.5Z" stroke="#000000" stroke-width="5.04167" stroke-linecap="butt" stroke-linejoin="miter" stroke-miterlimit="8" stroke-opacity="1" fill="#8478BE" fill-rule="evenodd" fill-opacity="1"/><path d="M3484.07 1125.5C3480.86 1125.5 3478.71 1123.4 3478.71 1120.25 3478.71 1117.1 3480.86 1115 3484.07 1115 3487.29 1115 3489.43 1117.1 3489.43 1120.25 3489.43 1123.4 3487.29 1125.5 3484.07 1125.5ZM3430.5 1104.5C3389.25 1104.5 3355.5 1095.05 3355.5 1083.5L3355.5 1125.5C3355.5 1137.05 3389.25 1146.5 3430.5 1146.5 3471.75 1146.5 3505.5 1137.05 3505.5 1125.5L3505.5 1083.5C3505.5 1095.05 3471.75 1104.5 3430.5 1104.5Z" stroke="#000000" stroke-width="5.04167" stroke-linecap="butt" stroke-linejoin="miter" stroke-miterlimit="8" stroke-opacity="1" fill="#FABE4F" fill-rule="evenodd" fill-opacity="1"/><path d="M3484.07 1178.17C3480.86 1178.17 3478.71 1176.03 3478.71 1172.83 3478.71 1169.63 3480.86 1167.5 3484.07 1167.5 3487.29 1167.5 3489.43 1169.63 3489.43 1172.83 3489.43 1176.03 3487.29 1178.17 3484.07 1178.17ZM3430.5 1156.83C3389.25 1156.83 3355.5 1147.23 3355.5 1135.5L3355.5 1178.17C3355.5 1189.9 3389.25 1199.5 3430.5 1199.5 3471.75 1199.5 3505.5 1189.9 3505.5 1178.17L3505.5 1135.5C3505.5 1147.23 3471.75 1156.83 3430.5 1156.83Z" stroke="#000000" stroke-width="5.04167" stroke-linecap="butt" stroke-linejoin="miter" stroke-miterlimit="8" stroke-opacity="1" fill="#88BA5E" fill-rule="evenodd" fill-opacity="1"/><path d="M3840.5 1020.5C3840.5 1032.1 3807.15 1041.5 3766 1041.5 3724.85 1041.5 3691.5 1032.1 3691.5 1020.5 3691.5 1008.9 3724.85 999.5 3766 999.5 3807.15 999.5 3840.5 1008.9 3840.5 1020.5Z" stroke="#000000" stroke-width="5.04167" stroke-linecap="butt" stroke-linejoin="miter" stroke-miterlimit="8" stroke-opacity="1" fill="#938BBB" fill-rule="evenodd" fill-opacity="1"/><path d="M3819.21 1072.5C3816.02 1072.5 3813.89 1070.4 3813.89 1067.25 3813.89 1064.1 3816.02 1062 3819.21 1062 3822.41 1062 3824.54 1064.1 3824.54 1067.25 3824.54 1070.4 3822.41 1072.5 3819.21 1072.5ZM3766 1051.5C3725.03 1051.5 3691.5 1042.05 3691.5 1030.5L3691.5 1072.5C3691.5 1084.05 3725.03 1093.5 3766 1093.5 3806.98 1093.5 3840.5 1084.05 3840.5 1072.5L3840.5 1030.5C3840.5 1042.05 3806.98 1051.5 3766 1051.5Z" stroke="#000000" stroke-width="5.04167" stroke-linecap="butt" stroke-linejoin="miter" stroke-miterlimit="8" stroke-opacity="1" fill="#938BBB" fill-rule="evenodd" fill-opacity="1"/><path d="M3819.21 1125.5C3816.02 1125.5 3813.89 1123.4 3813.89 1120.25 3813.89 1117.1 3816.02 1115 3819.21 1115 3822.41 1115 3824.54 1117.1 3824.54 1120.25 3824.54 1123.4 3822.41 1125.5 3819.21 1125.5ZM3766 1104.5C3725.03 1104.5 3691.5 1095.05 3691.5 1083.5L3691.5 1125.5C3691.5 1137.05 3725.03 1146.5 3766 1146.5 3806.98 1146.5 3840.5 1137.05 3840.5 1125.5L3840.5 1083.5C3840.5 1095.05 3806.98 1104.5 3766 1104.5Z" stroke="#000000" stroke-width="5.04167" stroke-linecap="butt" stroke-linejoin="miter" stroke-miterlimit="8" stroke-opacity="1" fill="#FFC553" fill-rule="evenodd" fill-opacity="1"/><path d="M3819.21 1178.17C3816.02 1178.17 3813.89 1176.03 3813.89 1172.83 3813.89 1169.63 3816.02 1167.5 3819.21 1167.5 3822.41 1167.5 3824.54 1169.63 3824.54 1172.83 3824.54 1176.03 3822.41 1178.17 3819.21 1178.17ZM3766 1156.83C3725.03 1156.83 3691.5 1147.23 3691.5 1135.5L3691.5 1178.17C3691.5 1189.9 3725.03 1199.5 3766 1199.5 3806.98 1199.5 3840.5 1189.9 3840.5 1178.17L3840.5 1135.5C3840.5 1147.23 3806.98 1156.83 3766 1156.83Z" stroke="#000000" stroke-width="5.04167" stroke-linecap="butt" stroke-linejoin="miter" stroke-miterlimit="8" stroke-opacity="1" fill="#8DC05F" fill-rule="evenodd" fill-opacity="1"/><path d="M4176.5 1020.5C4176.5 1032.1 4142.92 1041.5 4101.5 1041.5 4060.08 1041.5 4026.5 1032.1 4026.5 1020.5 4026.5 1008.9 4060.08 999.5 4101.5 999.5 4142.92 999.5 4176.5 1008.9 4176.5 1020.5Z" stroke="#000000" stroke-width="5.04167" stroke-linecap="butt" stroke-linejoin="miter" stroke-miterlimit="8" stroke-opacity="1" fill="#9B91C2" fill-rule="evenodd" fill-opacity="1"/><path d="M4155.07 1072.5C4151.86 1072.5 4149.71 1070.4 4149.71 1067.25 4149.71 1064.1 4151.86 1062 4155.07 1062 4158.29 1062 4160.43 1064.1 4160.43 1067.25 4160.43 1070.4 4158.29 1072.5 4155.07 1072.5ZM4101.5 1051.5C4060.25 1051.5 4026.5 1042.05 4026.5 1030.5L4026.5 1072.5C4026.5 1084.05 4060.25 1093.5 4101.5 1093.5 4142.75 1093.5 4176.5 1084.05 4176.5 1072.5L4176.5 1030.5C4176.5 1042.05 4142.75 1051.5 4101.5 1051.5Z" stroke="#000000" stroke-width="5.04167" stroke-linecap="butt" stroke-linejoin="miter" stroke-miterlimit="8" stroke-opacity="1" fill="#9B91C2" fill-rule="evenodd" fill-opacity="1"/><path d="M4155.07 1125.5C4151.86 1125.5 4149.71 1123.4 4149.71 1120.25 4149.71 1117.1 4151.86 1115 4155.07 1115 4158.29 1115 4160.43 1117.1 4160.43 1120.25 4160.43 1123.4 4158.29 1125.5 4155.07 1125.5ZM4101.5 1104.5C4060.25 1104.5 4026.5 1095.05 4026.5 1083.5L4026.5 1125.5C4026.5 1137.05 4060.25 1146.5 4101.5 1146.5 4142.75 1146.5 4176.5 1137.05 4176.5 1125.5L4176.5 1083.5C4176.5 1095.05 4142.75 1104.5 4101.5 1104.5Z" stroke="#000000" stroke-width="5.04167" stroke-linecap="butt" stroke-linejoin="miter" stroke-miterlimit="8" stroke-opacity="1" fill="#F4CC8B" fill-rule="evenodd" fill-opacity="1"/><path d="M4155.07 1178.17C4151.86 1178.17 4149.71 1176.03 4149.71 1172.83 4149.71 1169.63 4151.86 1167.5 4155.07 1167.5 4158.29 1167.5 4160.43 1169.63 4160.43 1172.83 4160.43 1176.03 4158.29 1178.17 4155.07 1178.17ZM4101.5 1156.83C4060.25 1156.83 4026.5 1147.23 4026.5 1135.5L4026.5 1178.17C4026.5 1189.9 4060.25 1199.5 4101.5 1199.5 4142.75 1199.5 4176.5 1189.9 4176.5 1178.17L4176.5 1135.5C4176.5 1147.23 4142.75 1156.83 4101.5 1156.83Z" stroke="#000000" stroke-width="5.04167" stroke-linecap="butt" stroke-linejoin="miter" stroke-miterlimit="8" stroke-opacity="1" fill="#A5CB82" fill-rule="evenodd" fill-opacity="1"/><path d="M4512.5 1020.5C4512.5 1032.1 4478.92 1041.5 4437.5 1041.5 4396.08 1041.5 4362.5 1032.1 4362.5 1020.5 4362.5 1008.9 4396.08 999.5 4437.5 999.5 4478.92 999.5 4512.5 1008.9 4512.5 1020.5Z" stroke="#000000" stroke-width="5.04167" stroke-linecap="butt" stroke-linejoin="miter" stroke-miterlimit="8" stroke-opacity="1" fill="#B4A8E1" fill-rule="evenodd" fill-opacity="1"/><path d="M4491.07 1072.5C4487.86 1072.5 4485.71 1070.4 4485.71 1067.25 4485.71 1064.1 4487.86 1062 4491.07 1062 4494.29 1062 4496.43 1064.1 4496.43 1067.25 4496.43 1070.4 4494.29 1072.5 4491.07 1072.5ZM4437.5 1051.5C4396.25 1051.5 4362.5 1042.05 4362.5 1030.5L4362.5 1072.5C4362.5 1084.05 4396.25 1093.5 4437.5 1093.5 4478.75 1093.5 4512.5 1084.05 4512.5 1072.5L4512.5 1030.5C4512.5 1042.05 4478.75 1051.5 4437.5 1051.5Z" stroke="#000000" stroke-width="5.04167" stroke-linecap="butt" stroke-linejoin="miter" stroke-miterlimit="8" stroke-opacity="1" fill="#B4A8E1" fill-rule="evenodd" fill-opacity="1"/><path d="M4491.07 1125.5C4487.86 1125.5 4485.71 1123.4 4485.71 1120.25 4485.71 1117.1 4487.86 1115 4491.07 1115 4494.29 1115 4496.43 1117.1 4496.43 1120.25 4496.43 1123.4 4494.29 1125.5 4491.07 1125.5ZM4437.5 1104.5C4396.25 1104.5 4362.5 1095.05 4362.5 1083.5L4362.5 1125.5C4362.5 1137.05 4396.25 1146.5 4437.5 1146.5 4478.75 1146.5 4512.5 1137.05 4512.5 1125.5L4512.5 1083.5C4512.5 1095.05 4478.75 1104.5 4437.5 1104.5Z" stroke="#000000" stroke-width="5.04167" stroke-linecap="butt" stroke-linejoin="miter" stroke-miterlimit="8" stroke-opacity="1" fill="#FED48F" fill-rule="evenodd" fill-opacity="1"/><path d="M4491.07 1178.17C4487.86 1178.17 4485.71 1176.03 4485.71 1172.83 4485.71 1169.63 4487.86 1167.5 4491.07 1167.5 4494.29 1167.5 4496.43 1169.63 4496.43 1172.83 4496.43 1176.03 4494.29 1178.17 4491.07 1178.17ZM4437.5 1156.83C4396.25 1156.83 4362.5 1147.23 4362.5 1135.5L4362.5 1178.17C4362.5 1189.9 4396.25 1199.5 4437.5 1199.5 4478.75 1199.5 4512.5 1189.9 4512.5 1178.17L4512.5 1135.5C4512.5 1147.23 4478.75 1156.83 4437.5 1156.83Z" stroke="#000000" stroke-width="5.04167" stroke-linecap="butt" stroke-linejoin="miter" stroke-miterlimit="8" stroke-opacity="1" fill="#C4E3A6" fill-rule="evenodd" fill-opacity="1"/><text fill="#CED6DD" fill-opacity="1" font-family="Arial,Arial_MSFontService,sans-serif" font-style="italic" font-variant="normal" font-weight="400" font-stretch="normal" font-size="128" text-anchor="start" direction="ltr" writing-mode="lr-tb" unicode-bidi="normal" text-decoration="none" transform="matrix(1 0 0 1 2958.37 1348)">2025</text><text fill="#CED6DD" fill-opacity="1" font-family="Arial,Arial_MSFontService,sans-serif" font-style="italic" font-variant="normal" font-weight="400" font-stretch="normal" font-size="128" text-anchor="start" direction="ltr" writing-mode="lr-tb" unicode-bidi="normal" text-decoration="none" transform="matrix(1 0 0 1 3295.15 1348)">2030</text><text fill="#CED6DD" fill-opacity="1" font-family="Arial,Arial_MSFontService,sans-serif" font-style="italic" font-variant="normal" font-weight="400" font-stretch="normal" font-size="128" text-anchor="start" direction="ltr" writing-mode="lr-tb" unicode-bidi="normal" text-decoration="none" transform="matrix(1 0 0 1 3631.93 1348)">2035</text><text fill="#CED6DD" fill-opacity="1" font-family="Arial,Arial_MSFontService,sans-serif" font-style="italic" font-variant="normal" font-weight="400" font-stretch="normal" font-size="128" text-anchor="start" direction="ltr" writing-mode="lr-tb" unicode-bidi="normal" text-decoration="none" transform="matrix(1 0 0 1 3968.72 1348)">2040</text><text fill="#CED6DD" fill-opacity="1" font-family="Arial,Arial_MSFontService,sans-serif" font-style="italic" font-variant="normal" font-weight="400" font-stretch="normal" font-size="128" text-anchor="start" direction="ltr" writing-mode="lr-tb" unicode-bidi="normal" text-decoration="none" transform="matrix(1 0 0 1 4305.5 1348)">2045</text><rect x="4323" y="2222" width="210" height="172" stroke="#CED6DD" stroke-width="10.0833" stroke-linecap="butt" stroke-linejoin="round" stroke-miterlimit="10" stroke-opacity="1" fill="#BCB5D7" fill-opacity="1"/><text fill="#14181D" fill-opacity="1" font-family="Arial Narrow,Arial Narrow_MSFontService,sans-serif" font-style="normal" font-variant="normal" font-weight="400" font-stretch="condensed" font-size="92" text-anchor="start" direction="ltr" writing-mode="lr-tb" unicode-bidi="normal" text-decoration="none" transform="matrix(6.12323e-17 -1 1 6.12323e-17 4463.04 2384)">EOL</text><path d="M3099.09 1420.46 3106.25 3027.22C3106.27 3031.97 3102.44 3035.83 3097.69 3035.85 3092.95 3035.87 3089.08 3032.04 3089.06 3027.3L3089.06 3027.3 3081.91 1420.54C3081.89 1415.79 3085.72 1411.93 3090.46 1411.91 3095.21 1411.89 3099.07 1415.72 3099.09 1420.46ZM3134.94 2979.86 3097.73 3044.31 3059.94 2980.19C3057.53 2976.1 3058.89 2970.84 3062.98 2968.43 3067.07 2966.02 3072.34 2967.38 3074.75 2971.47L3105.06 3022.89 3090.21 3022.96 3120.06 2971.27C3122.43 2967.15 3127.69 2965.75 3131.8 2968.12 3135.91 2970.49 3137.32 2975.75 3134.94 2979.86Z" fill="#CED6DD" fill-rule="nonzero" fill-opacity="1"/><path d="M3438.09 1420.5 3438.09 2710.99C3438.09 2715.74 3434.25 2719.58 3429.5 2719.58 3424.75 2719.58 3420.91 2715.74 3420.91 2710.99L3420.91 1420.5C3420.91 1415.75 3424.75 1411.91 3429.5 1411.91 3434.25 1411.91 3438.09 1415.75 3438.09 1420.5ZM3467 2663.76 3429.5 2728.05 3392 2663.76C3389.61 2659.66 3390.99 2654.4 3395.09 2652 3399.19 2649.61 3404.45 2651 3406.85 2655.1L3406.85 2655.1 3436.92 2706.66 3422.08 2706.66 3452.16 2655.1C3454.55 2651 3459.81 2649.61 3463.91 2652 3468.01 2654.4 3469.39 2659.66 3467 2663.76Z" fill="#CED6DD" fill-rule="nonzero" fill-opacity="1"/><path d="M3771.09 1420.5 3771.09 2486.42C3771.09 2491.17 3767.25 2495.01 3762.5 2495.01 3757.75 2495.01 3753.91 2491.17 3753.91 2486.42L3753.91 1420.5C3753.91 1415.75 3757.75 1411.91 3762.5 1411.91 3767.25 1411.91 3771.09 1415.75 3771.09 1420.5ZM3800 2439.19 3762.5 2503.47 3725 2439.19C3722.61 2435.09 3723.99 2429.82 3728.09 2427.43 3732.19 2425.04 3737.45 2426.43 3739.84 2430.53L3739.84 2430.53 3769.92 2482.09 3755.08 2482.09 3785.16 2430.53C3787.55 2426.43 3792.81 2425.04 3796.91 2427.43 3801.01 2429.82 3802.39 2435.09 3800 2439.19Z" fill="#CED6DD" fill-rule="nonzero" fill-opacity="1"/><path d="M4103.09 1420.5 4103.09 2354.15C4103.09 2358.9 4099.25 2362.74 4094.5 2362.74 4089.75 2362.74 4085.91 2358.9 4085.91 2354.15L4085.91 1420.5C4085.91 1415.75 4089.75 1411.91 4094.5 1411.91 4099.25 1411.91 4103.09 1415.75 4103.09 1420.5ZM4132 2306.92 4094.5 2371.2 4057 2306.92C4054.61 2302.82 4055.99 2297.55 4060.09 2295.16 4064.19 2292.77 4069.45 2294.16 4071.85 2298.26L4071.85 2298.26 4101.92 2349.82 4087.08 2349.82 4117.16 2298.26C4119.55 2294.16 4124.81 2292.77 4128.91 2295.16 4133.01 2297.55 4134.39 2302.82 4132 2306.92Z" fill="#CED6DD" fill-rule="nonzero" fill-opacity="1"/><path d="M4432.09 1420.5 4432.09 2182.4C4432.09 2187.15 4428.25 2191 4423.5 2191 4418.75 2191 4414.91 2187.15 4414.91 2182.4L4414.91 1420.5C4414.91 1415.75 4418.75 1411.91 4423.5 1411.91 4428.25 1411.91 4432.09 1415.75 4432.09 1420.5ZM4461 2135.17 4423.5 2199.46 4386 2135.17C4383.61 2131.07 4384.99 2125.81 4389.09 2123.42 4393.19 2121.03 4398.45 2122.41 4400.85 2126.51L4400.85 2126.51 4430.92 2178.07 4416.08 2178.07 4446.16 2126.51C4448.55 2122.41 4453.81 2121.03 4457.91 2123.42 4462.01 2125.81 4463.39 2131.07 4461 2135.17Z" fill="#CED6DD" fill-rule="nonzero" fill-opacity="1"/><text fill="#CED6DD" fill-opacity="1" font-family="Arial,Arial_MSFontService,sans-serif" font-style="normal" font-variant="normal" font-weight="400" font-stretch="normal" font-size="165" text-anchor="start" direction="ltr" writing-mode="lr-tb" unicode-bidi="normal" text-decoration="none" transform="matrix(1 0 0 1 555.25 1316)">Accounting </text><text fill="#CED6DD" fill-opacity="1" font-family="Arial,Arial_MSFontService,sans-serif" font-style="normal" font-variant="normal" font-weight="400" font-stretch="normal" font-size="165" text-anchor="start" direction="ltr" writing-mode="lr-tb" unicode-bidi="normal" text-decoration="none" transform="matrix(1 0 0 1 1416.92 1316)">for</text><text fill="#CED6DD" fill-opacity="1" font-family="Arial,Arial_MSFontService,sans-serif" font-style="normal" font-variant="normal" font-weight="400" font-stretch="normal" font-size="165" text-anchor="start" direction="ltr" writing-mode="lr-tb" unicode-bidi="normal" text-decoration="none" transform="matrix(1 0 0 1 1609.42 1316)">:</text><text fill="#3FB0C4" fill-opacity="1" font-family="Arial,Arial_MSFontService,sans-serif" font-style="normal" font-variant="normal" font-weight="400" font-stretch="normal" font-size="210" text-anchor="start" direction="ltr" writing-mode="lr-tb" unicode-bidi="normal" text-decoration="none" transform="matrix(1 0 0 1 555.25 1624)">•</text><text fill="#CED6DD" fill-opacity="1" font-family="Arial,Arial_MSFontService,sans-serif" font-style="normal" font-variant="normal" font-weight="700" font-stretch="normal" font-size="165" text-anchor="start" direction="ltr" writing-mode="lr-tb" unicode-bidi="normal" text-decoration="none" transform="matrix(1 0 0 1 759.895 1624)">Temporal distribution </text><text fill="#CED6DD" fill-opacity="1" font-family="Arial,Arial_MSFontService,sans-serif" font-style="normal" font-variant="normal" font-weight="400" font-stretch="normal" font-size="165" text-anchor="start" direction="ltr" writing-mode="lr-tb" unicode-bidi="normal" text-decoration="none" transform="matrix(1 0 0 1 759.895 1822)">of processes </text><text fill="#CED6DD" fill-opacity="1" font-family="Arial,Arial_MSFontService,sans-serif" font-style="normal" font-variant="normal" font-weight="400" font-stretch="normal" font-size="165" text-anchor="start" direction="ltr" writing-mode="lr-tb" unicode-bidi="normal" text-decoration="none" transform="matrix(1 0 0 1 1740.73 1822)">and </text><text fill="#CED6DD" fill-opacity="1" font-family="Arial,Arial_MSFontService,sans-serif" font-style="normal" font-variant="normal" font-weight="400" font-stretch="normal" font-size="165" text-anchor="start" direction="ltr" writing-mode="lr-tb" unicode-bidi="normal" text-decoration="none" transform="matrix(1 0 0 1 759.895 2020)">emissions (LCI)</text><text fill="#3FB0C4" fill-opacity="1" font-family="Arial,Arial_MSFontService,sans-serif" font-style="normal" font-variant="normal" font-weight="400" font-stretch="normal" font-size="206" text-anchor="start" direction="ltr" writing-mode="lr-tb" unicode-bidi="normal" text-decoration="none" transform="matrix(1 0 0 1 555.25 2328)">•</text><text fill="#CED6DD" fill-opacity="1" font-family="Arial,Arial_MSFontService,sans-serif" font-style="normal" font-variant="normal" font-weight="700" font-stretch="normal" font-size="165" text-anchor="start" direction="ltr" writing-mode="lr-tb" unicode-bidi="normal" text-decoration="none" transform="matrix(1 0 0 1 759.895 2328)">Temporal evolution </text><text fill="#CED6DD" fill-opacity="1" font-family="Arial,Arial_MSFontService,sans-serif" font-style="normal" font-variant="normal" font-weight="400" font-stretch="normal" font-size="165" text-anchor="start" direction="ltr" writing-mode="lr-tb" unicode-bidi="normal" text-decoration="none" transform="matrix(1 0 0 1 2315.16 2328)">of </text><text fill="#CED6DD" fill-opacity="1" font-family="Arial,Arial_MSFontService,sans-serif" font-style="normal" font-variant="normal" font-weight="400" font-stretch="normal" font-size="165" text-anchor="start" direction="ltr" writing-mode="lr-tb" unicode-bidi="normal" text-decoration="none" transform="matrix(1 0 0 1 759.895 2526)">technologies and </text><text fill="#CED6DD" fill-opacity="1" font-family="Arial,Arial_MSFontService,sans-serif" font-style="normal" font-variant="normal" font-weight="400" font-stretch="normal" font-size="165" text-anchor="start" direction="ltr" writing-mode="lr-tb" unicode-bidi="normal" text-decoration="none" transform="matrix(1 0 0 1 759.895 2724)">supply chains (LCI)</text><text fill="#3FB0C4" fill-opacity="1" font-family="Arial,Arial_MSFontService,sans-serif" font-style="normal" font-variant="normal" font-weight="400" font-stretch="normal" font-size="206" text-anchor="start" direction="ltr" writing-mode="lr-tb" unicode-bidi="normal" text-decoration="none" transform="matrix(1 0 0 1 555.25 3032)">•</text><text fill="#CED6DD" fill-opacity="1" font-family="Arial,Arial_MSFontService,sans-serif" font-style="normal" font-variant="normal" font-weight="700" font-stretch="normal" font-size="165" text-anchor="start" direction="ltr" writing-mode="lr-tb" unicode-bidi="normal" text-decoration="none" transform="matrix(1 0 0 1 759.895 3032)">Dynamic </text><text fill="#CED6DD" fill-opacity="1" font-family="Arial,Arial_MSFontService,sans-serif" font-style="normal" font-variant="normal" font-weight="700" font-stretch="normal" font-size="165" text-anchor="start" direction="ltr" writing-mode="lr-tb" unicode-bidi="normal" text-decoration="none" transform="matrix(1 0 0 1 759.895 3230)">characterization</text><text fill="#CED6DD" fill-opacity="1" font-family="Arial,Arial_MSFontService,sans-serif" font-style="normal" font-variant="normal" font-weight="400" font-stretch="normal" font-size="165" text-anchor="start" direction="ltr" writing-mode="lr-tb" unicode-bidi="normal" text-decoration="none" transform="matrix(1 0 0 1 759.895 3428)">(LCIA)</text><path d="M0 0 0.000360892 2892.44" stroke="#3FB0C4" stroke-width="20.625" stroke-linecap="round" stroke-linejoin="round" stroke-miterlimit="10" stroke-opacity="1" fill="none" fill-rule="evenodd" transform="matrix(-1 0 0 1 2593.5 875.5)"/><path d="M8234.5 890.557C8234.5 715.451 8376.45 573.5 8551.56 573.5L10255.4 573.5C10430.5 573.5 10572.5 715.451 10572.5 890.557L10572.5 3634.44C10572.5 3809.55 10430.5 3951.5 10255.4 3951.5L8551.56 3951.5C8376.45 3951.5 8234.5 3809.55 8234.5 3634.44Z" stroke="#3FB0C4" stroke-width="20.625" stroke-linecap="butt" stroke-linejoin="round" stroke-miterlimit="10" stroke-opacity="1" fill="#14181E" fill-rule="evenodd" fill-opacity="1"/><path d="M8898.5 1751.5 10010.9 2646.27" stroke="#CED6DD" stroke-width="6.875" stroke-linecap="butt" stroke-linejoin="round" stroke-miterlimit="10" stroke-dasharray="6.875 6.875" stroke-opacity="1" fill="none" fill-rule="evenodd"/><path d="M8897.5 2008.5 10010.9 2815.56" stroke="#CED6DD" stroke-width="6.875" stroke-linecap="butt" stroke-linejoin="round" stroke-miterlimit="10" stroke-dasharray="6.875 6.875" stroke-opacity="1" fill="none" fill-rule="evenodd"/><path d="M8893.5 3057.5 10001.9 3253.06" stroke="#CED6DD" stroke-width="6.875" stroke-linecap="butt" stroke-linejoin="round" stroke-miterlimit="10" stroke-dasharray="6.875 6.875" stroke-opacity="1" fill="none" fill-rule="evenodd"/><path d="M8788.5 3523.5 8788.5 3562.48" stroke="#CED6DD" stroke-width="17.1875" stroke-linecap="round" stroke-linejoin="round" stroke-miterlimit="10" stroke-opacity="1" fill="none" fill-rule="evenodd"/><path d="M10117.5 3523.5 10117.5 3562.48" stroke="#CED6DD" stroke-width="17.1875" stroke-linecap="round" stroke-linejoin="round" stroke-miterlimit="10" stroke-opacity="1" fill="none" fill-rule="evenodd"/><rect x="8683" y="3055" width="210" height="467" stroke="#CED6DD" stroke-width="10.0833" stroke-linecap="butt" stroke-linejoin="round" stroke-miterlimit="10" stroke-opacity="1" fill="#58AB27" fill-opacity="1"/><text fill="#14181D" fill-opacity="1" font-family="Arial,Arial_MSFontService,sans-serif" font-style="normal" font-variant="normal" font-weight="400" font-stretch="normal" font-size="128" text-anchor="start" direction="ltr" writing-mode="lr-tb" unicode-bidi="normal" text-decoration="none" transform="matrix(6.12323e-17 -1 1 6.12323e-17 8835.98 3442)">Prod</text><text fill="#14181D" fill-opacity="1" font-family="Arial,Arial_MSFontService,sans-serif" font-style="normal" font-variant="normal" font-weight="400" font-stretch="normal" font-size="128" text-anchor="start" direction="ltr" writing-mode="lr-tb" unicode-bidi="normal" text-decoration="none" transform="matrix(6.12323e-17 -1 1 6.12323e-17 8835.98 3171)">.</text><rect x="10012" y="3254" width="210" height="267" stroke="#CED6DD" stroke-width="10.0833" stroke-linecap="butt" stroke-linejoin="round" stroke-miterlimit="10" stroke-opacity="1" fill="#DEEBCE" fill-opacity="1"/><text fill="#14181D" fill-opacity="1" font-family="Arial Narrow,Arial Narrow_MSFontService,sans-serif" font-style="normal" font-variant="normal" font-weight="400" font-stretch="condensed" font-size="110" text-anchor="start" direction="ltr" writing-mode="lr-tb" unicode-bidi="normal" text-decoration="none" transform="matrix(6.12323e-17 -1 1 6.12323e-17 10157.9 3496)">Prod.</text><rect x="10012" y="2816" width="210" height="438" stroke="#CED6DD" stroke-width="10.0833" stroke-linecap="butt" stroke-linejoin="round" stroke-miterlimit="10" stroke-opacity="1" fill="#FEEBC9" fill-opacity="1"/><text fill="#14181D" fill-opacity="1" font-family="Arial,Arial_MSFontService,sans-serif" font-style="normal" font-variant="normal" font-weight="400" font-stretch="normal" font-size="110" text-anchor="start" direction="ltr" writing-mode="lr-tb" unicode-bidi="normal" text-decoration="none" transform="matrix(6.12323e-17 -1 1 6.12323e-17 10157.9 3133)">U</text><text fill="#14181D" fill-opacity="1" font-family="Arial,Arial_MSFontService,sans-serif" font-style="normal" font-variant="normal" font-weight="400" font-stretch="normal" font-size="110" text-anchor="start" direction="ltr" writing-mode="lr-tb" unicode-bidi="normal" text-decoration="none" transform="matrix(6.12323e-17 -1 1 6.12323e-17 10157.9 3054)">se</text><rect x="10012" y="2644" width="210" height="172" stroke="#CED6DD" stroke-width="10.0833" stroke-linecap="butt" stroke-linejoin="round" stroke-miterlimit="10" stroke-opacity="1" fill="#BCB5D7" fill-opacity="1"/><text fill="#14181D" fill-opacity="1" font-family="Arial Narrow,Arial Narrow_MSFontService,sans-serif" font-style="normal" font-variant="normal" font-weight="400" font-stretch="condensed" font-size="101" text-anchor="start" direction="ltr" writing-mode="lr-tb" unicode-bidi="normal" text-decoration="none" transform="matrix(6.12323e-17 -1 1 6.12323e-17 10155.4 2813)">EOL</text><path d="M8551.5 3513.91 10344.5 3513.91 10344.5 3531.09 8551.5 3531.09ZM10297.3 3485 10361.6 3522.5 10297.3 3560 10297.3 3560C10293.2 3562.39 10287.9 3561.01 10285.5 3556.91 10283.1 3552.81 10284.5 3547.55 10288.6 3545.16L10340.2 3515.08 10340.2 3529.92 10288.6 3499.85C10284.5 3497.45 10283.1 3492.19 10285.5 3488.09 10287.9 3483.99 10293.2 3482.61 10297.3 3485Z" fill="#CED6DD" fill-rule="nonzero" fill-opacity="1"/><path d="M8.59375-1.53502e-06 8.59411 2003.43-8.59339 2003.43-8.59375 1.53502e-06ZM37.5016 1956.19 0.000372564 2020.48-37.5009 1956.19C-39.8923 1952.09-38.5076 1946.83-34.4079 1944.44-30.3083 1942.05-25.0462 1943.43-22.6547 1947.53L7.42345 1999.1-7.42274 1999.1 22.6554 1947.53C25.0468 1943.43 30.3089 1942.05 34.4086 1944.44 38.5083 1946.83 39.893 1952.09 37.5016 1956.19Z" fill="#CED6DD" fill-rule="nonzero" fill-opacity="1" transform="matrix(1 0 0 -1 8551.5 3526.94)"/><text fill="#CED6DD" fill-opacity="1" font-family="Arial,Arial_MSFontService,sans-serif" font-style="normal" font-variant="normal" font-weight="400" font-stretch="normal" font-size="147" text-anchor="start" direction="ltr" writing-mode="lr-tb" unicode-bidi="normal" text-decoration="none" transform="matrix(-1.83697e-16 -1 1 -1.83697e-16 8492.35 2848)">Emissions</text><path d="M9119.5 3523.5 9119.5 3562.48" stroke="#CED6DD" stroke-width="17.1875" stroke-linecap="round" stroke-linejoin="round" stroke-miterlimit="10" stroke-opacity="1" fill="none" fill-rule="evenodd"/><path d="M9453.5 3523.5 9453.5 3562.48" stroke="#CED6DD" stroke-width="17.1875" stroke-linecap="round" stroke-linejoin="round" stroke-miterlimit="10" stroke-opacity="1" fill="none" fill-rule="evenodd"/><path d="M9785.5 3523.5 9785.5 3562.48" stroke="#CED6DD" stroke-width="17.1875" stroke-linecap="round" stroke-linejoin="round" stroke-miterlimit="10" stroke-opacity="1" fill="none" fill-rule="evenodd"/><text fill="#CED6DD" fill-opacity="1" font-family="Arial,Arial_MSFontService,sans-serif" font-style="italic" font-variant="normal" font-weight="400" font-stretch="normal" font-size="128" text-anchor="start" direction="ltr" writing-mode="lr-tb" unicode-bidi="normal" text-decoration="none" transform="matrix(0.707107 -0.707107 0.707107 0.707107 8644.87 3867)">2025</text><text fill="#CED6DD" fill-opacity="1" font-family="Arial,Arial_MSFontService,sans-serif" font-style="italic" font-variant="normal" font-weight="400" font-stretch="normal" font-size="128" text-anchor="start" direction="ltr" writing-mode="lr-tb" unicode-bidi="normal" text-decoration="none" transform="matrix(0.707107 -0.707107 0.707107 0.707107 8978.85 3867)">2030</text><text fill="#CED6DD" fill-opacity="1" font-family="Arial,Arial_MSFontService,sans-serif" font-style="italic" font-variant="normal" font-weight="400" font-stretch="normal" font-size="128" text-anchor="start" direction="ltr" writing-mode="lr-tb" unicode-bidi="normal" text-decoration="none" transform="matrix(0.707107 -0.707107 0.707107 0.707107 9312.83 3867)">2035</text><text fill="#CED6DD" fill-opacity="1" font-family="Arial,Arial_MSFontService,sans-serif" font-style="italic" font-variant="normal" font-weight="400" font-stretch="normal" font-size="128" text-anchor="start" direction="ltr" writing-mode="lr-tb" unicode-bidi="normal" text-decoration="none" transform="matrix(0.707107 -0.707107 0.707107 0.707107 9646.81 3867)">2040</text><text fill="#CED6DD" fill-opacity="1" font-family="Arial,Arial_MSFontService,sans-serif" font-style="italic" font-variant="normal" font-weight="400" font-stretch="normal" font-size="128" text-anchor="start" direction="ltr" writing-mode="lr-tb" unicode-bidi="normal" text-decoration="none" transform="matrix(0.707107 -0.707107 0.707107 0.707107 9980.78 3867)">2045</text><path d="M8858.5 1007.5C8858.5 1019.1 8824.92 1028.5 8783.5 1028.5 8742.08 1028.5 8708.5 1019.1 8708.5 1007.5 8708.5 995.902 8742.08 986.5 8783.5 986.5 8824.92 986.5 8858.5 995.902 8858.5 1007.5Z" stroke="#000000" stroke-width="5.04167" stroke-linecap="butt" stroke-linejoin="miter" stroke-miterlimit="8" stroke-opacity="1" fill="#7A6FAC" fill-rule="evenodd" fill-opacity="1"/><path d="M8837.07 1060.5C8833.86 1060.5 8831.71 1058.4 8831.71 1055.25 8831.71 1052.1 8833.86 1050 8837.07 1050 8840.29 1050 8842.43 1052.1 8842.43 1055.25 8842.43 1058.4 8840.29 1060.5 8837.07 1060.5ZM8783.5 1039.5C8742.25 1039.5 8708.5 1030.05 8708.5 1018.5L8708.5 1060.5C8708.5 1072.05 8742.25 1081.5 8783.5 1081.5 8824.75 1081.5 8858.5 1072.05 8858.5 1060.5L8858.5 1018.5C8858.5 1030.05 8824.75 1039.5 8783.5 1039.5Z" stroke="#000000" stroke-width="5.04167" stroke-linecap="butt" stroke-linejoin="miter" stroke-miterlimit="8" stroke-opacity="1" fill="#7A6FAC" fill-rule="evenodd" fill-opacity="1"/><path d="M8837.07 1112.5C8833.86 1112.5 8831.71 1110.4 8831.71 1107.25 8831.71 1104.1 8833.86 1102 8837.07 1102 8840.29 1102 8842.43 1104.1 8842.43 1107.25 8842.43 1110.4 8840.29 1112.5 8837.07 1112.5ZM8783.5 1091.5C8742.25 1091.5 8708.5 1082.05 8708.5 1070.5L8708.5 1112.5C8708.5 1124.05 8742.25 1133.5 8783.5 1133.5 8824.75 1133.5 8858.5 1124.05 8858.5 1112.5L8858.5 1070.5C8858.5 1082.05 8824.75 1091.5 8783.5 1091.5Z" stroke="#000000" stroke-width="5.04167" stroke-linecap="butt" stroke-linejoin="miter" stroke-miterlimit="8" stroke-opacity="1" fill="#F7A800" fill-rule="evenodd" fill-opacity="1"/><path d="M8837.07 1165.5C8833.86 1165.5 8831.71 1163.4 8831.71 1160.25 8831.71 1157.1 8833.86 1155 8837.07 1155 8840.29 1155 8842.43 1157.1 8842.43 1160.25 8842.43 1163.4 8840.29 1165.5 8837.07 1165.5ZM8783.5 1144.5C8742.25 1144.5 8708.5 1135.05 8708.5 1123.5L8708.5 1165.5C8708.5 1177.05 8742.25 1186.5 8783.5 1186.5 8824.75 1186.5 8858.5 1177.05 8858.5 1165.5L8858.5 1123.5C8858.5 1135.05 8824.75 1144.5 8783.5 1144.5Z" stroke="#000000" stroke-width="5.04167" stroke-linecap="butt" stroke-linejoin="miter" stroke-miterlimit="8" stroke-opacity="1" fill="#58AB27" fill-rule="evenodd" fill-opacity="1"/><path d="M9191.5 1007.5C9191.5 1019.1 9157.92 1028.5 9116.5 1028.5 9075.08 1028.5 9041.5 1019.1 9041.5 1007.5 9041.5 995.902 9075.08 986.5 9116.5 986.5 9157.92 986.5 9191.5 995.902 9191.5 1007.5Z" stroke="#000000" stroke-width="5.04167" stroke-linecap="butt" stroke-linejoin="miter" stroke-miterlimit="8" stroke-opacity="1" fill="#8478BE" fill-rule="evenodd" fill-opacity="1"/><path d="M9170.07 1060.5C9166.86 1060.5 9164.71 1058.4 9164.71 1055.25 9164.71 1052.1 9166.86 1050 9170.07 1050 9173.29 1050 9175.43 1052.1 9175.43 1055.25 9175.43 1058.4 9173.29 1060.5 9170.07 1060.5ZM9116.5 1039.5C9075.25 1039.5 9041.5 1030.05 9041.5 1018.5L9041.5 1060.5C9041.5 1072.05 9075.25 1081.5 9116.5 1081.5 9157.75 1081.5 9191.5 1072.05 9191.5 1060.5L9191.5 1018.5C9191.5 1030.05 9157.75 1039.5 9116.5 1039.5Z" stroke="#000000" stroke-width="5.04167" stroke-linecap="butt" stroke-linejoin="miter" stroke-miterlimit="8" stroke-opacity="1" fill="#8478BE" fill-rule="evenodd" fill-opacity="1"/><path d="M9170.07 1112.5C9166.86 1112.5 9164.71 1110.4 9164.71 1107.25 9164.71 1104.1 9166.86 1102 9170.07 1102 9173.29 1102 9175.43 1104.1 9175.43 1107.25 9175.43 1110.4 9173.29 1112.5 9170.07 1112.5ZM9116.5 1091.5C9075.25 1091.5 9041.5 1082.05 9041.5 1070.5L9041.5 1112.5C9041.5 1124.05 9075.25 1133.5 9116.5 1133.5 9157.75 1133.5 9191.5 1124.05 9191.5 1112.5L9191.5 1070.5C9191.5 1082.05 9157.75 1091.5 9116.5 1091.5Z" stroke="#000000" stroke-width="5.04167" stroke-linecap="butt" stroke-linejoin="miter" stroke-miterlimit="8" stroke-opacity="1" fill="#FABE4F" fill-rule="evenodd" fill-opacity="1"/><path d="M9170.07 1165.5C9166.86 1165.5 9164.71 1163.4 9164.71 1160.25 9164.71 1157.1 9166.86 1155 9170.07 1155 9173.29 1155 9175.43 1157.1 9175.43 1160.25 9175.43 1163.4 9173.29 1165.5 9170.07 1165.5ZM9116.5 1144.5C9075.25 1144.5 9041.5 1135.05 9041.5 1123.5L9041.5 1165.5C9041.5 1177.05 9075.25 1186.5 9116.5 1186.5 9157.75 1186.5 9191.5 1177.05 9191.5 1165.5L9191.5 1123.5C9191.5 1135.05 9157.75 1144.5 9116.5 1144.5Z" stroke="#000000" stroke-width="5.04167" stroke-linecap="butt" stroke-linejoin="miter" stroke-miterlimit="8" stroke-opacity="1" fill="#88BA5E" fill-rule="evenodd" fill-opacity="1"/><path d="M9524.5 1007.5C9524.5 1019.1 9491.15 1028.5 9450 1028.5 9408.85 1028.5 9375.5 1019.1 9375.5 1007.5 9375.5 995.902 9408.85 986.5 9450 986.5 9491.15 986.5 9524.5 995.902 9524.5 1007.5Z" stroke="#000000" stroke-width="5.04167" stroke-linecap="butt" stroke-linejoin="miter" stroke-miterlimit="8" stroke-opacity="1" fill="#938BBB" fill-rule="evenodd" fill-opacity="1"/><path d="M9503.21 1060.5C9500.02 1060.5 9497.89 1058.4 9497.89 1055.25 9497.89 1052.1 9500.02 1050 9503.21 1050 9506.41 1050 9508.54 1052.1 9508.54 1055.25 9508.54 1058.4 9506.41 1060.5 9503.21 1060.5ZM9450 1039.5C9409.03 1039.5 9375.5 1030.05 9375.5 1018.5L9375.5 1060.5C9375.5 1072.05 9409.03 1081.5 9450 1081.5 9490.98 1081.5 9524.5 1072.05 9524.5 1060.5L9524.5 1018.5C9524.5 1030.05 9490.98 1039.5 9450 1039.5Z" stroke="#000000" stroke-width="5.04167" stroke-linecap="butt" stroke-linejoin="miter" stroke-miterlimit="8" stroke-opacity="1" fill="#938BBB" fill-rule="evenodd" fill-opacity="1"/><path d="M9503.21 1112.5C9500.02 1112.5 9497.89 1110.4 9497.89 1107.25 9497.89 1104.1 9500.02 1102 9503.21 1102 9506.41 1102 9508.54 1104.1 9508.54 1107.25 9508.54 1110.4 9506.41 1112.5 9503.21 1112.5ZM9450 1091.5C9409.03 1091.5 9375.5 1082.05 9375.5 1070.5L9375.5 1112.5C9375.5 1124.05 9409.03 1133.5 9450 1133.5 9490.98 1133.5 9524.5 1124.05 9524.5 1112.5L9524.5 1070.5C9524.5 1082.05 9490.98 1091.5 9450 1091.5Z" stroke="#000000" stroke-width="5.04167" stroke-linecap="butt" stroke-linejoin="miter" stroke-miterlimit="8" stroke-opacity="1" fill="#FFC553" fill-rule="evenodd" fill-opacity="1"/><path d="M9503.21 1165.5C9500.02 1165.5 9497.89 1163.4 9497.89 1160.25 9497.89 1157.1 9500.02 1155 9503.21 1155 9506.41 1155 9508.54 1157.1 9508.54 1160.25 9508.54 1163.4 9506.41 1165.5 9503.21 1165.5ZM9450 1144.5C9409.03 1144.5 9375.5 1135.05 9375.5 1123.5L9375.5 1165.5C9375.5 1177.05 9409.03 1186.5 9450 1186.5 9490.98 1186.5 9524.5 1177.05 9524.5 1165.5L9524.5 1123.5C9524.5 1135.05 9490.98 1144.5 9450 1144.5Z" stroke="#000000" stroke-width="5.04167" stroke-linecap="butt" stroke-linejoin="miter" stroke-miterlimit="8" stroke-opacity="1" fill="#8DC05F" fill-rule="evenodd" fill-opacity="1"/><path d="M9857.5 1007.5C9857.5 1019.1 9824.15 1028.5 9783 1028.5 9741.85 1028.5 9708.5 1019.1 9708.5 1007.5 9708.5 995.902 9741.85 986.5 9783 986.5 9824.15 986.5 9857.5 995.902 9857.5 1007.5Z" stroke="#000000" stroke-width="5.04167" stroke-linecap="butt" stroke-linejoin="miter" stroke-miterlimit="8" stroke-opacity="1" fill="#9B91C2" fill-rule="evenodd" fill-opacity="1"/><path d="M9836.21 1060.5C9833.02 1060.5 9830.89 1058.4 9830.89 1055.25 9830.89 1052.1 9833.02 1050 9836.21 1050 9839.41 1050 9841.54 1052.1 9841.54 1055.25 9841.54 1058.4 9839.41 1060.5 9836.21 1060.5ZM9783 1039.5C9742.03 1039.5 9708.5 1030.05 9708.5 1018.5L9708.5 1060.5C9708.5 1072.05 9742.03 1081.5 9783 1081.5 9823.98 1081.5 9857.5 1072.05 9857.5 1060.5L9857.5 1018.5C9857.5 1030.05 9823.98 1039.5 9783 1039.5Z" stroke="#000000" stroke-width="5.04167" stroke-linecap="butt" stroke-linejoin="miter" stroke-miterlimit="8" stroke-opacity="1" fill="#9B91C2" fill-rule="evenodd" fill-opacity="1"/><path d="M9836.21 1112.5C9833.02 1112.5 9830.89 1110.4 9830.89 1107.25 9830.89 1104.1 9833.02 1102 9836.21 1102 9839.41 1102 9841.54 1104.1 9841.54 1107.25 9841.54 1110.4 9839.41 1112.5 9836.21 1112.5ZM9783 1091.5C9742.03 1091.5 9708.5 1082.05 9708.5 1070.5L9708.5 1112.5C9708.5 1124.05 9742.03 1133.5 9783 1133.5 9823.98 1133.5 9857.5 1124.05 9857.5 1112.5L9857.5 1070.5C9857.5 1082.05 9823.98 1091.5 9783 1091.5Z" stroke="#000000" stroke-width="5.04167" stroke-linecap="butt" stroke-linejoin="miter" stroke-miterlimit="8" stroke-opacity="1" fill="#F4CC8B" fill-rule="evenodd" fill-opacity="1"/><path d="M9836.21 1165.5C9833.02 1165.5 9830.89 1163.4 9830.89 1160.25 9830.89 1157.1 9833.02 1155 9836.21 1155 9839.41 1155 9841.54 1157.1 9841.54 1160.25 9841.54 1163.4 9839.41 1165.5 9836.21 1165.5ZM9783 1144.5C9742.03 1144.5 9708.5 1135.05 9708.5 1123.5L9708.5 1165.5C9708.5 1177.05 9742.03 1186.5 9783 1186.5 9823.98 1186.5 9857.5 1177.05 9857.5 1165.5L9857.5 1123.5C9857.5 1135.05 9823.98 1144.5 9783 1144.5Z" stroke="#000000" stroke-width="5.04167" stroke-linecap="butt" stroke-linejoin="miter" stroke-miterlimit="8" stroke-opacity="1" fill="#A5CB82" fill-rule="evenodd" fill-opacity="1"/><path d="M10190.5 1007.5C10190.5 1019.1 10157.1 1028.5 10116 1028.5 10074.9 1028.5 10041.5 1019.1 10041.5 1007.5 10041.5 995.902 10074.9 986.5 10116 986.5 10157.1 986.5 10190.5 995.902 10190.5 1007.5Z" stroke="#000000" stroke-width="5.04167" stroke-linecap="butt" stroke-linejoin="miter" stroke-miterlimit="8" stroke-opacity="1" fill="#BDB5D7" fill-rule="evenodd" fill-opacity="1"/><path d="M10169.2 1060.5C10166 1060.5 10163.9 1058.4 10163.9 1055.25 10163.9 1052.1 10166 1050 10169.2 1050 10172.4 1050 10174.5 1052.1 10174.5 1055.25 10174.5 1058.4 10172.4 1060.5 10169.2 1060.5ZM10116 1039.5C10075 1039.5 10041.5 1030.05 10041.5 1018.5L10041.5 1060.5C10041.5 1072.05 10075 1081.5 10116 1081.5 10157 1081.5 10190.5 1072.05 10190.5 1060.5L10190.5 1018.5C10190.5 1030.05 10157 1039.5 10116 1039.5Z" stroke="#000000" stroke-width="5.04167" stroke-linecap="butt" stroke-linejoin="miter" stroke-miterlimit="8" stroke-opacity="1" fill="#BDB5D7" fill-rule="evenodd" fill-opacity="1"/><path d="M10169.2 1112.5C10166 1112.5 10163.9 1110.4 10163.9 1107.25 10163.9 1104.1 10166 1102 10169.2 1102 10172.4 1102 10174.5 1104.1 10174.5 1107.25 10174.5 1110.4 10172.4 1112.5 10169.2 1112.5ZM10116 1091.5C10075 1091.5 10041.5 1082.05 10041.5 1070.5L10041.5 1112.5C10041.5 1124.05 10075 1133.5 10116 1133.5 10157 1133.5 10190.5 1124.05 10190.5 1112.5L10190.5 1070.5C10190.5 1082.05 10157 1091.5 10116 1091.5Z" stroke="#000000" stroke-width="5.04167" stroke-linecap="butt" stroke-linejoin="miter" stroke-miterlimit="8" stroke-opacity="1" fill="#FFEBC9" fill-rule="evenodd" fill-opacity="1"/><path d="M10169.2 1165.5C10166 1165.5 10163.9 1163.4 10163.9 1160.25 10163.9 1157.1 10166 1155 10169.2 1155 10172.4 1155 10174.5 1157.1 10174.5 1160.25 10174.5 1163.4 10172.4 1165.5 10169.2 1165.5ZM10116 1144.5C10075 1144.5 10041.5 1135.05 10041.5 1123.5L10041.5 1165.5C10041.5 1177.05 10075 1186.5 10116 1186.5 10157 1186.5 10190.5 1177.05 10190.5 1165.5L10190.5 1123.5C10190.5 1135.05 10157 1144.5 10116 1144.5Z" stroke="#000000" stroke-width="5.04167" stroke-linecap="butt" stroke-linejoin="miter" stroke-miterlimit="8" stroke-opacity="1" fill="#DEEBCE" fill-rule="evenodd" fill-opacity="1"/><text fill="#CED6DD" fill-opacity="1" font-family="Arial,Arial_MSFontService,sans-serif" font-style="italic" font-variant="normal" font-weight="400" font-stretch="normal" font-size="128" text-anchor="start" direction="ltr" writing-mode="lr-tb" unicode-bidi="normal" text-decoration="none" transform="matrix(1 0 0 1 8639.2 1336)">2025</text><text fill="#CED6DD" fill-opacity="1" font-family="Arial,Arial_MSFontService,sans-serif" font-style="italic" font-variant="normal" font-weight="400" font-stretch="normal" font-size="128" text-anchor="start" direction="ltr" writing-mode="lr-tb" unicode-bidi="normal" text-decoration="none" transform="matrix(1 0 0 1 8975.99 1336)">2030</text><text fill="#CED6DD" fill-opacity="1" font-family="Arial,Arial_MSFontService,sans-serif" font-style="italic" font-variant="normal" font-weight="400" font-stretch="normal" font-size="128" text-anchor="start" direction="ltr" writing-mode="lr-tb" unicode-bidi="normal" text-decoration="none" transform="matrix(1 0 0 1 9312.77 1336)">2035</text><text fill="#CED6DD" fill-opacity="1" font-family="Arial,Arial_MSFontService,sans-serif" font-style="italic" font-variant="normal" font-weight="400" font-stretch="normal" font-size="128" text-anchor="start" direction="ltr" writing-mode="lr-tb" unicode-bidi="normal" text-decoration="none" transform="matrix(1 0 0 1 9649.56 1336)">2040</text><text fill="#CED6DD" fill-opacity="1" font-family="Arial,Arial_MSFontService,sans-serif" font-style="italic" font-variant="normal" font-weight="400" font-stretch="normal" font-size="128" text-anchor="start" direction="ltr" writing-mode="lr-tb" unicode-bidi="normal" text-decoration="none" transform="matrix(1 0 0 1 9986.34 1336)">2045</text><text fill="#CED6DD" fill-opacity="1" font-family="Arial,Arial_MSFontService,sans-serif" font-style="italic" font-variant="normal" font-weight="400" font-stretch="normal" font-size="147" text-anchor="start" direction="ltr" writing-mode="lr-tb" unicode-bidi="normal" text-decoration="none" transform="matrix(1 0 0 1 8697.4 925)">LCI data:</text><rect x="8683" y="2000" width="210" height="1057" stroke="#CED6DD" stroke-width="10.0833" stroke-linecap="butt" stroke-linejoin="round" stroke-miterlimit="10" stroke-opacity="1" fill="#F6A800" fill-opacity="1"/><text fill="#14181D" fill-opacity="1" font-family="Arial,Arial_MSFontService,sans-serif" font-style="normal" font-variant="normal" font-weight="400" font-stretch="normal" font-size="128" text-anchor="start" direction="ltr" writing-mode="lr-tb" unicode-bidi="normal" text-decoration="none" transform="matrix(6.12323e-17 -1 1 6.12323e-17 8835.98 2643)">Use</text><rect x="8683" y="1744" width="210" height="258" stroke="#CED6DD" stroke-width="10.0833" stroke-linecap="butt" stroke-linejoin="round" stroke-miterlimit="10" stroke-opacity="1" fill="#7A6FAC" fill-opacity="1"/><text fill="#14181D" fill-opacity="1" font-family="Arial,Arial_MSFontService,sans-serif" font-style="normal" font-variant="normal" font-weight="400" font-stretch="normal" font-size="128" text-anchor="start" direction="ltr" writing-mode="lr-tb" unicode-bidi="normal" text-decoration="none" transform="matrix(6.12323e-17 -1 1 6.12323e-17 8835.98 2001)">EOL</text><text fill="#CED6DD" fill-opacity="1" font-family="Arial,Arial_MSFontService,sans-serif" font-style="italic" font-variant="normal" font-weight="700" font-stretch="normal" font-size="128" text-anchor="start" direction="ltr" writing-mode="lr-tb" unicode-bidi="normal" text-decoration="none" transform="matrix(1 0 0 1 8835.46 1507)">Conventional </text><text fill="#CED6DD" fill-opacity="1" font-family="Arial,Arial_MSFontService,sans-serif" font-style="italic" font-variant="normal" font-weight="700" font-stretch="normal" font-size="128" text-anchor="start" direction="ltr" writing-mode="lr-tb" unicode-bidi="normal" text-decoration="none" transform="matrix(1 0 0 1 8835.46 1661)">LCA </text><text fill="#CED6DD" fill-opacity="1" font-family="Arial,Arial_MSFontService,sans-serif" font-style="italic" font-variant="normal" font-weight="700" font-stretch="normal" font-size="128" text-anchor="start" direction="ltr" writing-mode="lr-tb" unicode-bidi="normal" text-decoration="none" transform="matrix(1 0 0 1 9362.11 1818)">Prospective </text><text fill="#CED6DD" fill-opacity="1" font-family="Arial,Arial_MSFontService,sans-serif" font-style="italic" font-variant="normal" font-weight="700" font-stretch="normal" font-size="128" text-anchor="start" direction="ltr" writing-mode="lr-tb" unicode-bidi="normal" text-decoration="none" transform="matrix(1 0 0 1 9362.11 1972)">LCA</text><text fill="#CED6DD" fill-opacity="1" font-family="Arial,Arial_MSFontService,sans-serif" font-style="italic" font-variant="normal" font-weight="400" font-stretch="normal" font-size="101" text-anchor="start" direction="ltr" writing-mode="lr-tb" unicode-bidi="normal" text-decoration="none" transform="matrix(0.809017 0.587785 -0.587785 0.809017 8912.38 2157)">Evolving production system</text><path d="M10126.1 1415.5 10126.1 2579.18C10126.1 2583.92 10122.2 2587.77 10117.5 2587.77 10112.8 2587.77 10108.9 2583.92 10108.9 2579.18L10108.9 1415.5C10108.9 1410.75 10112.8 1406.91 10117.5 1406.91 10122.2 1406.91 10126.1 1410.75 10126.1 1415.5ZM10155 2531.94 10117.5 2596.23 10080 2531.94C10077.6 2527.84 10079 2522.58 10083.1 2520.19 10087.2 2517.8 10092.5 2519.18 10094.8 2523.28L10094.8 2523.28 10124.9 2574.84 10110.1 2574.84 10140.2 2523.28C10142.5 2519.18 10147.8 2517.8 10151.9 2520.19 10156 2522.58 10157.4 2527.84 10155 2531.94Z" fill="#CED6DD" fill-rule="nonzero" fill-opacity="1"/><path d="M8398 480.388C8398 421.079 8446.08 373 8505.39 373L10291.6 373C10350.9 373 10399 421.079 10399 480.388L10399 654.612C10399 713.921 10350.9 762 10291.6 762L8505.39 762C8446.08 762 8398 713.921 8398 654.612Z" fill="#3FB0C4" fill-rule="evenodd" fill-opacity="1"/><text fill="#FFFFFF" fill-opacity="1" font-family="Arial,Arial_MSFontService,sans-serif" font-style="normal" font-variant="normal" font-weight="400" font-stretch="normal" font-size="202" text-anchor="start" direction="ltr" writing-mode="lr-tb" unicode-bidi="normal" text-decoration="none" transform="matrix(1 0 0 1 8551.49 642)">Temporal evolution</text><path d="M8786.09 1410.5 8786.09 1666.32C8786.09 1671.07 8782.25 1674.91 8777.5 1674.91 8772.75 1674.91 8768.91 1671.07 8768.91 1666.32L8768.91 1410.5C8768.91 1405.75 8772.75 1401.91 8777.5 1401.91 8782.25 1401.91 8786.09 1405.75 8786.09 1410.5ZM8815 1619.09 8777.5 1683.37 8740 1619.09C8737.61 1614.99 8738.99 1609.72 8743.09 1607.33 8747.19 1604.94 8752.45 1606.33 8754.85 1610.43L8784.92 1661.99 8770.08 1661.99 8800.16 1610.43C8802.55 1606.33 8807.81 1604.94 8811.91 1607.33 8816.01 1609.72 8817.39 1614.99 8815 1619.09Z" fill="#CED6DD" fill-rule="nonzero" fill-opacity="1"/><rect x="6110" y="970" width="1407" height="418" fill="#14181E" fill-opacity="0.819608"/><rect x="8963" y="938" width="1021" height="418" fill="#14181E" fill-opacity="0.819608"/></g></g></svg>
