<?xml version="1.0" encoding="UTF-8"?>
<svg id="Layer_1" data-name="Layer 1" xmlns="http://www.w3.org/2000/svg" xmlns:xlink="http://www.w3.org/1999/xlink" viewBox="0 0 2430.6 1539.33">
  <defs>
    <style>
      .cls-1, .cls-2, .cls-3, .cls-4, .cls-5, .cls-6, .cls-7, .cls-8, .cls-9, .cls-10, .cls-11, .cls-12, .cls-13, .cls-14, .cls-15, .cls-16, .cls-17, .cls-18, .cls-19, .cls-20 {
        stroke-width: 0px;
      }

      .cls-1, .cls-21, .cls-5 {
        fill: #ced7dd;
      }

      .cls-22 {
        clip-path: url(#clippath);
      }

      .cls-2 {
        fill: #f7a800;
      }

      .cls-3, .cls-23, .cls-24, .cls-25, .cls-26, .cls-27, .cls-28 {
        fill: none;
      }

      .cls-21 {
        font-family: Arial-ItalicMT, Arial;
        font-size: 73px;
        font-style: italic;
        isolation: isolate;
      }

      .cls-4 {
        fill: #4b9224;
      }

      .cls-23 {
        stroke: #3b731f;
        stroke-width: 10.31px;
      }

      .cls-23, .cls-24, .cls-25, .cls-26, .cls-27, .cls-28 {
        stroke-linecap: round;
        stroke-linejoin: round;
      }

      .cls-5 {
        fill-rule: evenodd;
      }

      .cls-6 {
        fill: #bdafee;
      }

      .cls-29 {
        clip-path: url(#clippath-1);
      }

      .cls-30 {
        clip-path: url(#clippath-4);
      }

      .cls-31 {
        clip-path: url(#clippath-3);
      }

      .cls-32 {
        clip-path: url(#clippath-2);
      }

      .cls-33 {
        clip-path: url(#clippath-7);
      }

      .cls-34 {
        clip-path: url(#clippath-8);
      }

      .cls-35 {
        clip-path: url(#clippath-6);
      }

      .cls-36 {
        clip-path: url(#clippath-5);
      }

      .cls-37 {
        clip-path: url(#clippath-9);
      }

      .cls-7 {
        fill: #ffd48f;
      }

      .cls-24, .cls-25 {
        stroke: #4b9224;
      }

      .cls-24, .cls-28 {
        stroke-width: 10.31px;
      }

      .cls-25 {
        stroke-width: 10.31px;
      }

      .cls-8 {
        fill: #14181d;
      }

      .cls-9 {
        fill: #ffe5b2;
      }

      .cls-38 {
        clip-path: url(#clippath-20);
      }

      .cls-39 {
        clip-path: url(#clippath-21);
      }

      .cls-40 {
        clip-path: url(#clippath-24);
      }

      .cls-41 {
        clip-path: url(#clippath-23);
      }

      .cls-42 {
        clip-path: url(#clippath-22);
      }

      .cls-43 {
        clip-path: url(#clippath-25);
      }

      .cls-44 {
        clip-path: url(#clippath-44);
      }

      .cls-45 {
        clip-path: url(#clippath-45);
      }

      .cls-46 {
        clip-path: url(#clippath-40);
      }

      .cls-47 {
        clip-path: url(#clippath-42);
      }

      .cls-48 {
        clip-path: url(#clippath-41);
      }

      .cls-49 {
        clip-path: url(#clippath-47);
      }

      .cls-50 {
        clip-path: url(#clippath-43);
      }

      .cls-51 {
        clip-path: url(#clippath-46);
      }

      .cls-52 {
        clip-path: url(#clippath-48);
      }

      .cls-53 {
        clip-path: url(#clippath-49);
      }

      .cls-54 {
        clip-path: url(#clippath-27);
      }

      .cls-55 {
        clip-path: url(#clippath-28);
      }

      .cls-56 {
        clip-path: url(#clippath-26);
      }

      .cls-57 {
        clip-path: url(#clippath-29);
      }

      .cls-58 {
        clip-path: url(#clippath-34);
      }

      .cls-59 {
        clip-path: url(#clippath-35);
      }

      .cls-60 {
        clip-path: url(#clippath-36);
      }

      .cls-61 {
        clip-path: url(#clippath-37);
      }

      .cls-62 {
        clip-path: url(#clippath-39);
      }

      .cls-63 {
        clip-path: url(#clippath-33);
      }

      .cls-64 {
        clip-path: url(#clippath-32);
      }

      .cls-65 {
        clip-path: url(#clippath-30);
      }

      .cls-66 {
        clip-path: url(#clippath-38);
      }

      .cls-67 {
        clip-path: url(#clippath-31);
      }

      .cls-68 {
        clip-path: url(#clippath-50);
      }

      .cls-69 {
        clip-path: url(#clippath-51);
      }

      .cls-70 {
        clip-path: url(#clippath-14);
      }

      .cls-71 {
        clip-path: url(#clippath-13);
      }

      .cls-72 {
        clip-path: url(#clippath-12);
      }

      .cls-73 {
        clip-path: url(#clippath-10);
      }

      .cls-74 {
        clip-path: url(#clippath-15);
      }

      .cls-75 {
        clip-path: url(#clippath-17);
      }

      .cls-76 {
        clip-path: url(#clippath-16);
      }

      .cls-77 {
        clip-path: url(#clippath-19);
      }

      .cls-78 {
        clip-path: url(#clippath-11);
      }

      .cls-79 {
        clip-path: url(#clippath-18);
      }

      .cls-10 {
        fill: #938bbc;
      }

      .cls-11 {
        fill: #fde3b1;
      }

      .cls-26 {
        stroke: #58ab27;
        stroke-width: 22.92px;
      }

      .cls-12 {
        fill: #8478be;
      }

      .cls-13 {
        fill: #9b91c2;
      }

      .cls-14 {
        fill: #b4a8e2;
      }

      .cls-15 {
        fill: #f9a800;
      }

      .cls-16 {
        fill: #c2b6f9;
      }

      .cls-27 {
        stroke-width: 10.31px;
      }

      .cls-27, .cls-28 {
        stroke: #8dc05d;
      }

      .cls-17 {
        fill: #8dc05e;
      }

      .cls-18 {
        fill: #3b741f;
      }

      .cls-19 {
        fill: #f8a800;
      }

      .cls-20 {
        fill: #58ab27;
      }
    </style>
    <clipPath id="clippath">
      <rect class="cls-3" x="843.6" y="488" width="235" height="350"/>
    </clipPath>
    <clipPath id="clippath-1">
      <rect class="cls-3" x="843.6" y="488" width="235" height="350"/>
    </clipPath>
    <clipPath id="clippath-2">
      <rect class="cls-3" x="1203.6" y="858" width="444" height="654"/>
    </clipPath>
    <clipPath id="clippath-3">
      <rect class="cls-3" x="1203.6" y="858" width="444" height="654"/>
    </clipPath>
    <clipPath id="clippath-4">
      <rect class="cls-3" x="713.6" y="858" width="506" height="654"/>
    </clipPath>
    <clipPath id="clippath-5">
      <rect class="cls-3" x="713.6" y="858" width="506" height="654"/>
    </clipPath>
    <clipPath id="clippath-6">
      <polygon class="cls-3" points="1759.2 1185.97 1922.7 867.68 2063 939.77 1899.4 1258.05 1759.2 1185.97"/>
    </clipPath>
    <clipPath id="clippath-7">
      <polygon class="cls-3" points="1759.2 1185.97 1922.7 867.68 2063 939.76 1899.4 1258.05 1759.2 1185.97"/>
    </clipPath>
    <clipPath id="clippath-8">
      <polygon class="cls-3" points="1668.7 1284.2 1923.9 787.71 2420.4 1042.83 2165.2 1539.33 1668.7 1284.2"/>
    </clipPath>
    <clipPath id="clippath-9">
      <rect class="cls-3" x="2057.99" y="949.85" width="200.22" height="293.33" transform="translate(196.54 2514.97) rotate(-62.81)"/>
    </clipPath>
    <clipPath id="clippath-10">
      <rect class="cls-3" x="2057.99" y="949.85" width="200.22" height="293.33" transform="translate(196.54 2514.97) rotate(-62.81)"/>
    </clipPath>
    <clipPath id="clippath-11">
      <rect class="cls-3" x="1771.31" y="882.72" width="558.18" height="558.21" transform="translate(79.94 2454.59) rotate(-62.81)"/>
    </clipPath>
    <clipPath id="clippath-12">
      <rect class="cls-3" x="1950.21" y="1133.42" width="227.08" height="293.33" transform="translate(-18.12 2530.48) rotate(-62.8)"/>
    </clipPath>
    <clipPath id="clippath-13">
      <rect class="cls-3" x="1950.21" y="1133.42" width="227.08" height="293.33" transform="translate(-18.12 2530.48) rotate(-62.8)"/>
    </clipPath>
    <clipPath id="clippath-14">
      <rect class="cls-3" x="1775.7" y="874.05" width="558.19" height="558.21" transform="translate(90.05 2453.82) rotate(-62.81)"/>
    </clipPath>
    <clipPath id="clippath-15">
      <rect class="cls-3" x="1096.6" y="487" width="207" height="350"/>
    </clipPath>
    <clipPath id="clippath-16">
      <rect class="cls-3" x="1096.6" y="487" width="207" height="350"/>
    </clipPath>
    <clipPath id="clippath-17">
      <rect class="cls-3" x="1322.6" y="487" width="318" height="350"/>
    </clipPath>
    <clipPath id="clippath-18">
      <rect class="cls-3" x="1322.6" y="487" width="318" height="350"/>
    </clipPath>
    <clipPath id="clippath-19">
      <polygon class="cls-3" points="532.1 918.62 677.9 1245.41 533.9 1309.68 388.1 982.9 532.1 918.62"/>
    </clipPath>
    <clipPath id="clippath-20">
      <polygon class="cls-3" points="532.1 918.62 677.9 1245.41 533.9 1309.68 388.1 982.9 532.1 918.62"/>
    </clipPath>
    <clipPath id="clippath-21">
      <rect class="cls-3" x="91.82" y="876.14" width="558.25" height="558.21" transform="translate(-438.62 251.48) rotate(-24.05)"/>
    </clipPath>
    <clipPath id="clippath-22">
      <rect class="cls-3" x="205.47" y="1185.64" width="293.27" height="200.22" transform="translate(-493.44 255.12) rotate(-24.05)"/>
    </clipPath>
    <clipPath id="clippath-23">
      <rect class="cls-3" x="205.47" y="1185.64" width="293.27" height="200.22" transform="translate(-493.44 255.12) rotate(-24.05)"/>
    </clipPath>
    <clipPath id="clippath-24">
      <polygon class="cls-3" points="509.8 792.23 737.2 1301.98 227.5 1529.46 0 1019.72 509.8 792.23"/>
    </clipPath>
    <clipPath id="clippath-25">
      <polygon class="cls-3" points="355.7 933.83 448.2 1141.19 180.3 1260.73 87.8 1053.36 355.7 933.83"/>
    </clipPath>
    <clipPath id="clippath-26">
      <polygon class="cls-3" points="355.7 933.83 448.2 1141.19 180.3 1260.73 87.8 1053.36 355.7 933.83"/>
    </clipPath>
    <clipPath id="clippath-27">
      <rect class="cls-3" x="93.52" y="890.64" width="558.16" height="558.21" transform="translate(-444.38 253.41) rotate(-24.05)"/>
    </clipPath>
    <clipPath id="clippath-28">
      <polygon class="cls-3" points="904.9 419.82 709.8 719.82 577.6 633.83 772.7 333.84 904.9 419.82"/>
    </clipPath>
    <clipPath id="clippath-29">
      <rect class="cls-3" x="562.32" y="447.97" width="357.85" height="157.7" transform="translate(-104.52 861) rotate(-56.96)"/>
    </clipPath>
    <clipPath id="clippath-30">
      <polygon class="cls-3" points="1004.8 331.3 700.5 799.25 232.5 494.93 536.9 26.98 1004.8 331.3"/>
    </clipPath>
    <clipPath id="clippath-31">
      <polygon class="cls-3" points="676.4 464.25 567.2 632.09 321.4 472.18 430.5 304.33 676.4 464.25"/>
    </clipPath>
    <clipPath id="clippath-32">
      <polygon class="cls-3" points="676.4 464.25 567.2 632.09 321.4 472.18 430.5 304.33 676.4 464.25"/>
    </clipPath>
    <clipPath id="clippath-33">
      <polygon class="cls-3" points="998.8 332.4 694.5 800.35 226.6 496.02 530.9 28.08 998.8 332.4"/>
    </clipPath>
    <clipPath id="clippath-34">
      <polygon class="cls-3" points="796.2 279.97 672.4 470.34 426.6 310.42 550.4 120.06 796.2 279.97"/>
    </clipPath>
    <clipPath id="clippath-35">
      <polygon class="cls-3" points="796.2 279.97 672.4 470.34 426.6 310.42 550.4 120.06 796.2 279.97"/>
    </clipPath>
    <clipPath id="clippath-36">
      <polygon class="cls-3" points="993.5 340.56 689.2 808.52 221.3 504.19 525.6 36.24 993.5 340.56"/>
    </clipPath>
    <clipPath id="clippath-37">
      <rect class="cls-3" x="1012.6" y="304" width="360" height="158"/>
    </clipPath>
    <clipPath id="clippath-38">
      <rect class="cls-3" x="1012.6" y="304" width="360" height="158"/>
    </clipPath>
    <clipPath id="clippath-39">
      <rect class="cls-3" x="1008.6" width="201" height="294"/>
    </clipPath>
    <clipPath id="clippath-40">
      <rect class="cls-3" x="1008.6" width="201" height="294"/>
    </clipPath>
    <clipPath id="clippath-41">
      <rect class="cls-3" x="1202.6" width="227" height="294"/>
    </clipPath>
    <clipPath id="clippath-42">
      <rect class="cls-3" x="1202.6" width="227" height="294"/>
    </clipPath>
    <clipPath id="clippath-43">
      <rect class="cls-3" x="1589.42" y="306.83" width="157.65" height="357.85" transform="translate(20.14 1035.99) rotate(-34.7)"/>
    </clipPath>
    <clipPath id="clippath-44">
      <rect class="cls-3" x="1589.42" y="306.83" width="157.65" height="357.85" transform="translate(20.14 1035.99) rotate(-34.7)"/>
    </clipPath>
    <clipPath id="clippath-45">
      <polygon class="cls-3" points="1749.3 803.78 1431.6 344.83 1890.5 27.09 2208.3 486.05 1749.3 803.78"/>
    </clipPath>
    <clipPath id="clippath-46">
      <polygon class="cls-3" points="1750.7 449.49 1636.8 284.87 1877.9 117.91 1991.9 282.53 1750.7 449.49"/>
    </clipPath>
    <clipPath id="clippath-47">
      <polygon class="cls-3" points="1750.7 449.49 1636.8 284.87 1877.9 117.91 1991.9 282.53 1750.7 449.49"/>
    </clipPath>
    <clipPath id="clippath-48">
      <polygon class="cls-3" points="1750.6 797.85 1432.8 338.9 1891.8 21.16 2209.5 480.11 1750.6 797.85"/>
    </clipPath>
    <clipPath id="clippath-49">
      <rect class="cls-3" x="1785.13" y="339.87" width="293.35" height="227.05" transform="translate(85.27 1179.86) rotate(-34.68)"/>
    </clipPath>
    <clipPath id="clippath-50">
      <rect class="cls-3" x="1785.13" y="339.87" width="293.35" height="227.05" transform="translate(85.27 1179.86) rotate(-34.68)"/>
    </clipPath>
    <clipPath id="clippath-51">
      <polygon class="cls-3" points="1745 789.84 1427.3 330.89 1886.2 13.15 2204 472.1 1745 789.84"/>
    </clipPath>
  </defs>
  <g class="cls-22">
    <g class="cls-29">
      <g>
        <path class="cls-19" d="M1572.97,1017.49c.09-48.84-9.46-97.21-28.09-142.37-2.72-6.59-10.28-9.73-16.89-7.02-6.61,2.71-9.76,10.26-7.04,16.85,73.26,178.13-12.1,381.78-190.66,454.86-19.24,7.87-39.14,14.02-59.47,18.36-.17,0-.23,0-.16-.19l51.58-90.97c3.95-5.94,2.32-13.95-3.63-17.89-5.95-3.94-13.98-2.31-17.93,3.63-.35.52-.65,1.06-.92,1.63l-65.57,115.66c-3.52,6.2-1.32,14.08,4.89,17.58,0,0,0,0,0,0l115.72,65.28c6.17,3.59,14.09,1.5,17.69-4.66,3.59-6.15,1.5-14.05-4.67-17.64-.1-.06-.19-.11-.29-.16l-85.14-48.03c-.16-.09-.13-.19,0-.23,169.82-39.78,290.04-190.67,290.57-364.69Z"/>
        <path class="cls-19" d="M1151.46,1362.77c-45.17-6.02-88.71-20.86-128.13-43.67-142.16-82.49-207.74-252.47-157.7-408.75,0-.15.16-.17.23,0l52.97,90.02c3.62,6.14,11.56,8.19,17.71,4.58,6.16-3.62,8.21-11.53,4.59-17.67l-67.42-114.6c-3.62-6.15-11.54-8.2-17.7-4.6,0,0,0,0,0,0l-114.65,67.1c-6.16,3.61-8.22,11.52-4.61,17.66,3.62,6.15,11.55,8.2,17.71,4.59l84.52-49.49c.15-.09.23,0,.18.14-60.43,197.85,51.36,407.12,249.69,467.4,19.35,5.88,39.14,10.19,59.18,12.89.58.08,1.16.12,1.75.12,7.14.04,12.96-5.71,13-12.84.03-6.52-4.82-12.04-11.3-12.86v-.03Z"/>
        <path class="cls-19" d="M1456.62,783.57c.12.12.08.22-.09.22l-104.01.52c-7.14.02-12.92,5.81-12.9,12.94.02,7.13,5.82,12.89,12.97,12.87l133.23-.66c7.14,0,12.93-5.78,12.93-12.9l-.7-132.68c.28-6.85-5.07-12.63-11.93-12.9-.33-.01-.67-.01-1,0-7.14,0-12.94,5.78-12.94,12.9v.06l.49,98.21c0,.18-.09.22-.22.09-119.39-127.04-310.62-155.6-462.07-69.02-42.44,24.35-79.66,56.79-109.53,95.49-4.33,5.67-3.24,13.76,2.44,18.09,5.64,4.29,13.69,3.25,18.05-2.33,27.81-36.01,62.47-66.21,101.98-88.86,142.55-81.47,322.7-53.21,433.31,67.96Z"/>
      </g>
    </g>
  </g>
  <g class="cls-32">
    <g class="cls-31">
      <g>
        <path class="cls-14" d="M1581.17,1027.25c.09-48.91-9.43-97.37-28-142.6-2.71-6.6-10.25-9.75-16.84-7.03-6.59,2.72-9.73,10.28-7.02,16.88,73.03,178.42-12.07,382.4-190.06,455.6-19.18,7.89-39.02,14.04-59.29,18.39-.17,0-.23,0-.15-.19l51.42-91.12c3.93-5.95,2.31-13.97-3.62-17.91-5.93-3.94-13.94-2.32-17.87,3.63-.34.52-.65,1.06-.92,1.63l-65.36,115.85c-3.51,6.21-1.32,14.1,4.88,17.61,0,0,0,0,0,0l115.35,65.38c6.15,3.6,14.05,1.5,17.63-4.66,3.58-6.17,1.5-14.08-4.66-17.67-.09-.06-.19-.11-.29-.17l-84.87-48.1c-.15-.09-.13-.19,0-.23,169.28-39.85,289.12-190.98,289.65-365.28Z"/>
        <path class="cls-14" d="M1160.99,1373.09c-45.03-6.03-88.43-20.89-127.73-43.74-141.71-82.62-207.09-252.88-157.2-409.42,0-.15.15-.17.23,0l52.8,90.16c3.61,6.15,11.52,8.2,17.66,4.58,6.14-3.62,8.18-11.55,4.57-17.7l-67.21-114.79c-3.6-6.16-11.5-8.22-17.65-4.6,0,0,0,0,0,0l-114.29,67.21c-6.14,3.61-8.2,11.54-4.59,17.69,3.61,6.16,11.51,8.22,17.65,4.6l84.25-49.57c.15-.09.23,0,.18.14-60.24,198.18,51.2,407.78,248.91,468.17,19.29,5.89,39.01,10.21,58.99,12.91.58.08,1.16.12,1.74.12,7.12.04,12.92-5.72,12.96-12.86.03-6.53-4.8-12.06-11.27-12.89v-.03Z"/>
        <path class="cls-14" d="M1465.19,792.94c.12.12.08.22-.09.22l-103.68.52c-7.12.02-12.88,5.82-12.86,12.96.02,7.14,5.8,12.91,12.93,12.89l132.81-.66c7.12,0,12.89-5.79,12.89-12.92l-.7-132.89c.27-6.86-5.05-12.65-11.89-12.92-.33-.01-.67-.01-1,0-7.12,0-12.89,5.79-12.89,12.92v.07l.49,98.37c0,.18-.09.22-.22.09-119.01-127.25-309.65-155.86-460.62-69.13-42.31,24.39-79.41,56.89-109.19,95.64-4.32,5.68-3.23,13.79,2.43,18.12,5.62,4.3,13.65,3.26,17.99-2.33,27.73-36.07,62.27-66.31,101.66-89,142.1-81.6,321.68-53.3,431.94,68.08Z"/>
      </g>
    </g>
  </g>
  <g class="cls-30">
    <g class="cls-36">
      <g>
        <path class="cls-20" d="M1603.79,1027.25c.09-48.91-9.45-97.37-28.08-142.6-2.72-6.6-10.28-9.75-16.89-7.03-6.61,2.72-9.75,10.28-7.03,16.88,73.24,178.42-12.1,382.4-190.61,455.6-19.23,7.89-39.13,14.04-59.46,18.39-.17,0-.23,0-.16-.19l51.57-91.12c3.94-5.95,2.32-13.97-3.63-17.91-5.95-3.95-13.98-2.32-17.92,3.63-.35.52-.65,1.06-.92,1.63l-65.55,115.85c-3.51,6.21-1.32,14.1,4.89,17.61,0,0,0,0,0,0l115.68,65.38c6.17,3.6,14.09,1.51,17.68-4.66,3.59-6.17,1.5-14.08-4.67-17.67-.1-.06-.19-.12-.29-.17l-85.11-48.1c-.16-.09-.13-.19,0-.23,169.77-39.85,289.96-190.98,290.49-365.28Z"/>
        <path class="cls-20" d="M1182.4,1373.09c-45.16-6.03-88.69-20.89-128.1-43.74-142.12-82.62-207.68-252.88-157.66-409.42,0-.15.16-.17.23,0l52.95,90.16c3.62,6.15,11.55,8.21,17.71,4.58,6.16-3.62,8.21-11.55,4.58-17.7l-67.4-114.79c-3.62-6.16-11.54-8.22-17.7-4.6,0,0,0,0,0,0l-114.62,67.21c-6.16,3.61-8.22,11.54-4.6,17.7,3.62,6.16,11.54,8.22,17.7,4.6l84.49-49.57c.16-.09.23,0,.18.14-60.41,198.18,51.35,407.78,249.62,468.17,19.34,5.89,39.13,10.21,59.16,12.91.58.08,1.16.12,1.75.12,7.14.04,12.96-5.72,12.99-12.86.03-6.53-4.82-12.06-11.3-12.89v-.03Z"/>
        <path class="cls-20" d="M1487.47,792.94c.12.12.08.22-.09.22l-103.98.52c-7.14.02-12.92,5.82-12.9,12.96.02,7.14,5.82,12.91,12.96,12.89l133.19-.66c7.14,0,12.93-5.79,12.93-12.93l-.7-132.89c.28-6.86-5.06-12.65-11.93-12.92-.34-.01-.67-.01-1,0-7.14,0-12.93,5.79-12.93,12.92v.07l.49,98.37c0,.18-.09.22-.22.09-119.35-127.25-310.54-155.86-461.94-69.14-42.43,24.39-79.64,56.89-109.5,95.64-4.33,5.68-3.24,13.79,2.44,18.12,5.64,4.3,13.69,3.26,18.04-2.33,27.81-36.07,62.45-66.31,101.95-89,142.51-81.6,322.6-53.3,433.18,68.08Z"/>
      </g>
    </g>
  </g>
  <g>
    <path class="cls-1" d="M1186.8,1103.56c0,16.57-13.4,30-30,30s-30-13.43-30-30,13.4-29.99,30-29.99,30,13.43,30,29.99Z"/>
    <path class="cls-1" d="M1371.4,1103.56c0,16.57-13.4,30-30,30s-30-13.43-30-30,13.4-29.99,30-29.99,30,13.43,30,29.99Z"/>
    <path class="cls-1" d="M1381,1025.11h-32.3c-4.1.1-8-1.59-10.8-4.61l-48.8-48.78c-5.7-6.45-13.6-10.47-22.1-11.21h-113.8c-8.5.82-16.4,4.82-22.1,11.21l-48.1,48.78c-3,2.96-4.6,7-4.6,11.21v25.71h-23.1c-3.8.02-6.9-3.06-6.9-6.88v-79.92c11.2-3.97,18.6-14.68,18.4-26.58v-15.83h-9.2v-18.46c0-2.55-2.1-4.61-4.6-4.61s-4.6,2.06-4.6,4.61v18.46h-13.9v-18.46c0-2.55-2-4.61-4.6-4.61s-4.6,2.06-4.6,4.61v18.46h-9.2v15.83c-.2,11.9,7.2,22.61,18.4,26.58v79.87c0,11.46,9.3,20.74,20.8,20.77h23.1c0,17.12,13.9,30.98,31,31.01h3.9c-.1-23.5,18.9-42.61,42.4-42.68.1,0,.2,0,.3,0,23.9.43,42.9,20.07,42.7,43.97h100.8c-.1-23.81,18.9-43.31,42.7-43.74,23.5-.08,42.6,18.91,42.7,42.4v.28h19.4c8.6-.02,15.5-6.95,15.5-15.5v-23.08c.1-21.38-17.2-38.75-38.6-38.81h-.2ZM1200.6,1025.11h-100.1l41.9-42.13c3.4-2.8,7.7-4.23,12.1-4.01h46.1v46.14ZM1214.5,1025.11v-46.14h52.8c4.1-.32,8,1.14,10.9,4.01l41.9,42.13h-105.6Z"/>
  </g>
  <g>
    <path class="cls-1" d="M2102.72,1097.62h-30.1v-8.91c0-6.95-5.49-12.47-12.4-12.47h-21.25c-6.91,0-12.4,5.52-12.4,12.47v8.91h-30.1c-3.9,0-7.08,3.21-7.08,7.13v7.12h120.42v-7.12c0-3.92-3.19-7.13-7.08-7.13ZM2037.2,1088.72c0-1.07.71-1.78,1.77-1.78h21.25c1.06,0,1.77.71,1.77,1.78v8.91h-24.79v-8.91Z"/>
    <path class="cls-1" d="M2000.02,1211.62c0,3.92,3.19,7.12,7.08,7.12h85c3.9,0,7.08-3.21,7.08-7.12v-92.62h-99.17v92.62ZM2072.62,1129.69h10.62v78.37h-10.62v-78.37ZM2044.29,1129.69h10.62v78.37h-10.62v-78.37ZM2015.95,1129.69h10.62v78.37h-10.62v-78.37Z"/>
  </g>
  <g class="cls-35">
    <g class="cls-33">
      <g class="cls-34">
        <g>
          <path class="cls-9" d="M2121.18,1003.38c-19.56-10.09-40.91-16.24-62.83-18.09-3.2-.27-6.01,2.11-6.28,5.31-.27,3.2,2.11,6.01,5.31,6.28,86.44,7.4,150.53,83.47,143.13,169.91-.8,9.31-2.42,18.54-4.86,27.56-.03.07-.05.09-.11.02l-25.86-39.36c-1.57-2.8-5.11-3.8-7.91-2.23-2.8,1.57-3.8,5.11-2.23,7.91.14.25.29.48.46.7l32.88,50.04c1.76,2.68,5.37,3.43,8.05,1.66,0,0,0,0,0,0l49.94-32.82c2.71-1.73,3.5-5.33,1.77-8.03s-5.32-3.5-8.03-1.77c-.04.03-.08.05-.13.08l-36.74,24.15c-.07.04-.1.01-.09-.05,18.94-76.09-16.83-155.24-86.46-191.29Z"/>
          <path class="cls-9" d="M2172.97,1243.03c-11.69,16.82-26.59,31.17-43.83,42.24-62.27,39.85-143.87,31.07-196.23-21.13-.06-.03-.04-.1.05-.09l46.96-2.64c3.21-.18,5.66-2.93,5.47-6.14-.18-3.21-2.93-5.66-6.14-5.47l-59.78,3.35c-3.21.18-5.66,2.92-5.48,6.13h0s3.34,59.66,3.34,59.66c.18,3.21,2.93,5.66,6.13,5.48,3.21-.18,5.66-2.93,5.48-6.13l-2.47-43.98c0-.08.05-.09.09-.04,66.88,64.91,173.72,63.31,238.63-3.57,6.33-6.52,12.13-13.55,17.33-21.01.15-.21.28-.44.41-.67,1.48-2.85.37-6.36-2.48-7.84-2.61-1.36-5.82-.55-7.48,1.87h-.01Z"/>
          <path class="cls-9" d="M2003.53,1001.73c.07-.02.1.01.07.08l-21.16,41.69c-1.46,2.86-.33,6.36,2.53,7.82,2.86,1.46,6.36.33,7.82-2.53l27.11-53.4c1.47-2.86.34-6.36-2.51-7.83l-53.32-27.05c-2.69-1.52-6.1-.58-7.62,2.11-.07.13-.14.26-.21.4-1.47,2.86-.34,6.36,2.51,7.83h.03s39.46,20.04,39.46,20.04c.07.04.07.08,0,.11-75.45,21.57-126.19,92.15-122.6,170.54,1.04,21.98,6.4,43.55,15.77,63.46,1.38,2.9,4.85,4.13,7.75,2.75,2.88-1.37,4.12-4.8,2.77-7.7-8.72-18.54-13.7-38.61-14.66-59.07-3.37-73.78,44.97-139.98,116.27-159.25Z"/>
        </g>
      </g>
    </g>
  </g>
  <g class="cls-37">
    <g class="cls-73">
      <g class="cls-78">
        <g>
          <path class="cls-16" d="M2127,1001.69c-19.5-10.09-40.9-16.24-62.8-18.09-3.2-.27-6,2.11-6.3,5.31-.2,3.2,2.1,6.01,5.3,6.28,86.5,7.4,150.6,83.47,143.2,169.91-.8,9.32-2.5,18.54-4.9,27.56,0,.07,0,.1-.1.03l-25.9-39.36c-1.5-2.81-5.1-3.8-7.9-2.23-2.8,1.57-3.8,5.11-2.2,7.91.1.25.3.48.5.7l32.8,50.04c1.8,2.68,5.4,3.43,8.1,1.66h0l49.9-32.82c2.7-1.73,3.5-5.33,1.8-8.03-1.7-2.71-5.3-3.5-8-1.77-.1.03-.1.05-.2.08l-36.7,24.15c-.1.04-.1,0-.1-.05,19-76.09-16.8-155.23-86.5-191.28Z"/>
          <path class="cls-16" d="M2178.8,1241.33c-11.7,16.82-26.6,31.17-43.8,42.24-62.3,39.85-143.9,31.06-196.2-21.13-.1-.03-.1-.1,0-.09l47-2.64c3.2-.19,5.6-2.94,5.5-6.14-.2-3.21-3-5.66-6.2-5.48l-59.8,3.36c-3.2.18-5.6,2.92-5.4,6.13h0l3.3,59.66c.2,3.21,2.9,5.66,6.1,5.48,3.2-.18,5.7-2.93,5.5-6.13l-2.5-43.99c0-.08.1-.09.1-.04,66.9,64.91,173.8,63.31,238.7-3.57,6.3-6.53,12.1-13.55,17.3-21.01.1-.21.3-.44.4-.67,1.5-2.85.4-6.36-2.5-7.84-2.6-1.36-5.8-.56-7.5,1.87h0Z"/>
          <path class="cls-16" d="M2009.4,1000.03c.1-.02.1.02.1.08l-21.2,41.7c-1.5,2.86-.3,6.36,2.5,7.82,2.9,1.46,6.4.33,7.9-2.53l27.1-53.41c1.4-2.86.3-6.36-2.6-7.83l-53.3-27.04c-2.7-1.53-6.1-.58-7.6,2.11-.1.13-.1.26-.2.4-1.5,2.86-.3,6.36,2.5,7.83h0s39.5,20.04,39.5,20.04c.1.04.1.08,0,.11-75.5,21.57-126.2,92.15-122.6,170.53,1,21.99,6.4,43.55,15.8,63.46,1.3,2.9,4.8,4.13,7.7,2.75,2.9-1.37,4.1-4.8,2.8-7.69-8.7-18.54-13.7-38.61-14.7-59.08-3.3-73.77,45-139.98,116.3-159.25Z"/>
        </g>
      </g>
    </g>
  </g>
  <g class="cls-72">
    <g class="cls-71">
      <g class="cls-70">
        <g>
          <path class="cls-17" d="M2131.48,993.02c-19.55-10.09-40.9-16.24-62.83-18.09-3.2-.27-6.01,2.11-6.29,5.31-.27,3.2,2.11,6.01,5.31,6.28,86.44,7.4,150.53,83.47,143.13,169.91-.8,9.31-2.42,18.54-4.86,27.56-.03.07-.05.09-.11.02l-25.86-39.36c-1.57-2.8-5.11-3.8-7.91-2.23-2.8,1.57-3.8,5.11-2.23,7.91.14.25.29.48.46.7l32.88,50.04c1.76,2.68,5.37,3.43,8.05,1.66,0,0,0,0,0,0l49.94-32.82c2.71-1.73,3.5-5.33,1.77-8.03-1.73-2.71-5.32-3.5-8.03-1.77-.04.03-.08.05-.13.08l-36.74,24.15c-.07.04-.1.01-.09-.05,18.95-76.09-16.83-155.23-86.46-191.29Z"/>
          <path class="cls-17" d="M2183.27,1232.66c-11.69,16.82-26.59,31.17-43.83,42.24-62.27,39.85-143.87,31.07-196.23-21.13-.06-.03-.03-.1.05-.09l46.96-2.64c3.21-.18,5.66-2.93,5.47-6.14-.18-3.21-2.93-5.66-6.14-5.47l-59.78,3.35c-3.21.18-5.66,2.92-5.48,6.13,0,0,0,0,0,0l3.34,59.66c.18,3.21,2.93,5.66,6.13,5.48,3.21-.18,5.66-2.93,5.48-6.13l-2.47-43.98c0-.08.05-.09.09-.04,66.88,64.91,173.72,63.31,238.63-3.57,6.33-6.52,12.12-13.55,17.32-21.01.15-.22.29-.44.41-.67,1.48-2.85.37-6.36-2.48-7.84-2.61-1.36-5.82-.55-7.48,1.87h-.01Z"/>
          <path class="cls-17" d="M2013.82,991.37c.07-.02.1.01.07.08l-21.16,41.69c-1.46,2.86-.33,6.36,2.53,7.82,2.86,1.46,6.36.33,7.82-2.53l27.11-53.41c1.47-2.86.34-6.36-2.51-7.83l-53.32-27.05c-2.69-1.52-6.1-.58-7.62,2.11-.07.13-.14.26-.21.4-1.47,2.86-.34,6.36,2.51,7.83h.03s39.46,20.04,39.46,20.04c.07.04.07.08,0,.11-75.44,21.57-126.19,92.15-122.6,170.54,1.04,21.98,6.4,43.55,15.77,63.46,1.38,2.9,4.85,4.13,7.75,2.75,2.88-1.37,4.12-4.8,2.77-7.7-8.72-18.54-13.7-38.61-14.66-59.07-3.37-73.77,44.97-139.98,116.26-159.25Z"/>
        </g>
      </g>
    </g>
  </g>
  <g class="cls-74">
    <g class="cls-76">
      <g>
        <path class="cls-7" d="M1574.79,1016.49c.09-48.84-9.49-97.21-28.17-142.37-2.73-6.59-10.31-9.73-16.94-7.02-6.63,2.71-9.78,10.26-7.06,16.85,73.44,178.13-12.14,381.78-191.15,454.86-19.29,7.87-39.24,14.02-59.63,18.36-.17,0-.23,0-.16-.19l51.72-90.97c3.96-5.94,2.33-13.95-3.64-17.89-5.97-3.94-14.02-2.31-17.97,3.63-.35.52-.65,1.06-.92,1.63l-65.74,115.66c-3.52,6.2-1.33,14.08,4.91,17.58,0,0,0,0,0,0l116.01,65.28c6.19,3.59,14.13,1.5,17.73-4.66,3.6-6.15,1.51-14.05-4.68-17.64-.1-.06-.19-.11-.29-.16l-85.36-48.03c-.16-.09-.13-.19,0-.23,170.25-39.78,290.78-190.67,291.32-364.69Z"/>
        <path class="cls-7" d="M1152.19,1361.77c-45.29-6.02-88.94-20.86-128.46-43.67-142.53-82.49-208.28-252.47-158.11-408.75,0-.15.16-.17.23,0l53.1,90.02c3.63,6.14,11.59,8.19,17.76,4.58,6.17-3.62,8.23-11.53,4.6-17.67l-67.59-114.6c-3.63-6.15-11.57-8.2-17.75-4.6,0,0,0,0,0,0l-114.95,67.1c-6.18,3.61-8.24,11.52-4.62,17.66,3.63,6.15,11.58,8.2,17.75,4.59l84.73-49.49c.15-.09.23,0,.18.14-60.58,197.85,51.49,407.12,250.34,467.4,19.4,5.88,39.24,10.19,59.33,12.89.58.08,1.17.12,1.75.12,7.16.04,13-5.71,13.03-12.84.03-6.52-4.83-12.04-11.33-12.86v-.03Z"/>
        <path class="cls-7" d="M1458.14,782.57c.12.12.08.22-.09.22l-104.28.52c-7.16.02-12.95,5.81-12.94,12.94.02,7.13,5.84,12.89,13,12.87l133.57-.66c7.16,0,12.97-5.78,12.97-12.9l-.7-132.68c.28-6.85-5.08-12.63-11.96-12.9-.34-.01-.67-.01-1.01,0-7.16,0-12.97,5.78-12.97,12.9v.06l.49,98.21c0,.18-.09.22-.22.09-119.69-127.04-311.42-155.6-463.26-69.02-42.55,24.35-79.86,56.79-109.81,95.49-4.34,5.67-3.25,13.76,2.45,18.09,5.65,4.29,13.73,3.25,18.1-2.33,27.89-36.01,62.63-66.21,102.24-88.86,142.92-81.47,323.53-53.21,434.42,67.96Z"/>
      </g>
    </g>
  </g>
  <g class="cls-75">
    <g class="cls-79">
      <g>
        <path class="cls-9" d="M1573.89,1016.49c.09-48.84-9.47-97.21-28.13-142.37-2.72-6.59-10.3-9.73-16.91-7.02-6.62,2.71-9.77,10.26-7.04,16.85,73.34,178.13-12.12,381.78-190.87,454.86-19.26,7.87-39.18,14.02-59.54,18.36-.17,0-.23,0-.16-.19l51.64-90.97c3.95-5.94,2.32-13.95-3.64-17.89-5.96-3.94-14-2.31-17.95,3.63-.35.52-.65,1.06-.92,1.63l-65.64,115.66c-3.52,6.2-1.33,14.08,4.9,17.58,0,0,0,0,0,0l115.84,65.28c6.18,3.59,14.11,1.5,17.71-4.66,3.6-6.15,1.51-14.05-4.67-17.64-.1-.06-.19-.11-.29-.16l-85.23-48.03c-.16-.09-.13-.19,0-.23,170-39.78,290.36-190.67,290.89-364.69Z"/>
        <path class="cls-9" d="M1151.92,1361.77c-45.22-6.02-88.81-20.86-128.27-43.67-142.32-82.49-207.97-252.47-157.88-408.75,0-.15.16-.17.23,0l53.03,90.02c3.63,6.14,11.57,8.19,17.73,4.58,6.17-3.62,8.22-11.53,4.59-17.67l-67.49-114.6c-3.62-6.15-11.55-8.2-17.72-4.6,0,0,0,0,0,0l-114.78,67.1c-6.17,3.61-8.23,11.52-4.61,17.66,3.62,6.15,11.56,8.2,17.73,4.59l84.61-49.49c.15-.09.23,0,.18.14-60.5,197.85,51.42,407.12,249.97,467.4,19.37,5.88,39.18,10.19,59.24,12.89.58.08,1.17.12,1.75.12,7.15.04,12.98-5.71,13.01-12.84.03-6.52-4.82-12.04-11.31-12.86v-.03Z"/>
        <path class="cls-9" d="M1457.41,782.57c.12.12.08.22-.09.22l-104.12.52c-7.15.02-12.93,5.81-12.92,12.94.02,7.13,5.83,12.89,12.98,12.87l133.38-.66c7.15,0,12.95-5.78,12.95-12.9l-.7-132.68c.28-6.85-5.07-12.63-11.94-12.9-.34-.01-.67-.01-1,0-7.15,0-12.95,5.78-12.95,12.9v.06l.49,98.21c0,.18-.09.22-.22.09-119.52-127.04-310.96-155.6-462.58-69.02-42.49,24.35-79.75,56.79-109.65,95.49-4.34,5.67-3.24,13.76,2.44,18.09,5.65,4.29,13.7,3.25,18.07-2.33,27.84-36.01,62.53-66.21,102.09-88.86,142.71-81.47,323.05-53.21,433.78,67.96Z"/>
      </g>
    </g>
  </g>
  <path class="cls-9" d="M1848.2,1106.25l-241.4-23.5c-2.5-.24-4.4-2.48-4.1-5,.2-2.52,2.4-4.36,5-4.12l241.4,23.49c2.5.25,4.4,2.49,4.1,5.01-.2,2.52-2.5,4.36-5,4.12ZM1629.1,1106.88l-29-29.38,34.1-23.24c2.1-1.43,5-.89,6.4,1.21,1.4,2.09.9,4.94-1.2,6.36l-29.6,20.15.7-7.01,25.1,25.47c1.8,1.81,1.8,4.71,0,6.49-1.8,1.77-4.7,1.76-6.5-.05Z"/>
  <text class="cls-21" transform="translate(1657.2 1062) rotate(5.86)"><tspan x="0" y="0">2045</tspan></text>
  <text class="cls-21" transform="translate(1001.4 209) rotate(-61.1)"><tspan x="0" y="0">2040</tspan></text>
  <text class="cls-21" transform="translate(1306.6 50) rotate(49.35)"><tspan x="0" y="0">2015</tspan></text>
  <text class="cls-21" transform="translate(1720.2 219)"><tspan x="0" y="0">2055</tspan></text>
  <text class="cls-21" transform="translate(1987.8 588) rotate(-63.69)"><tspan x="0" y="0">2035</tspan></text>
  <text class="cls-21" transform="translate(1966.9 1390)"><tspan x="0" y="0">2035</tspan></text>
  <text class="cls-21" transform="translate(2143.3 965) rotate(49.41)"><tspan x="0" y="0">2060</tspan></text>
  <g class="cls-77">
    <g class="cls-38">
      <g class="cls-39">
        <g>
          <path class="cls-2" d="M447.85,1315.28c20.11-8.93,38.27-21.74,53.44-37.68,2.21-2.33,2.12-6.01-.21-8.22-2.33-2.21-6.01-2.12-8.22.21-59.88,62.78-159.32,65.14-222.1,5.26-6.76-6.45-12.94-13.49-18.45-21.04-.03-.07-.04-.1.05-.1l46.88,4.47c3.17.53,6.16-1.61,6.69-4.78.53-3.17-1.61-6.16-4.78-6.69-.28-.05-.56-.07-.84-.08l-59.6-5.68c-3.2-.3-6.04,2.04-6.34,5.24,0,0,0,0,0,0l-5.66,59.49c-.34,3.19,1.96,6.06,5.16,6.41s6.06-1.96,6.4-5.16c0-.05.01-.1.01-.15l4.17-43.77c0-.08.06-.09.1-.04,47.48,62.4,131.6,84.05,203.3,52.31Z"/>
          <path class="cls-2" d="M228.55,1205.66c-5.8-19.65-7.67-40.25-5.5-60.62,7.9-73.51,65.83-131.64,139.31-139.8.06-.03.1.03.04.1l-27.34,38.27c-1.86,2.62-1.25,6.25,1.36,8.11,2.62,1.86,6.25,1.25,8.11-1.36l34.81-48.72c1.87-2.61,1.26-6.24-1.35-8.11h0s-48.62-34.75-48.62-34.75c-2.61-1.87-6.25-1.26-8.11,1.35-1.87,2.61-1.26,6.25,1.35,8.11l35.85,25.61c.07.05.04.1-.03.1-92.49,11.53-158.12,95.85-146.59,188.34,1.12,9.02,2.98,17.94,5.54,26.66.07.25.17.5.27.74,1.29,2.94,4.73,4.27,7.66,2.98,2.69-1.18,4.07-4.19,3.22-7h.01Z"/>
          <path class="cls-2" d="M522.8,1224.56c-.03.07-.08.07-.11,0l-19.27-42.6c-1.32-2.93-4.76-4.24-7.69-2.92-2.93,1.32-4.24,4.76-2.92,7.69l24.68,54.57c1.31,2.93,4.75,4.25,7.68,2.94l54.47-24.65c2.87-1.14,4.27-4.4,3.12-7.27-.06-.14-.12-.28-.18-.41-1.31-2.93-4.75-4.25-7.68-2.94h-.03s-40.32,18.25-40.32,18.25c-.07.03-.11,0-.08-.07,30.41-72.34,7.13-156.09-56.25-202.36-17.79-12.95-37.96-22.27-59.36-27.43-3.13-.74-6.26,1.2-7,4.32-.73,3.1,1.17,6.22,4.27,6.98,19.91,4.81,38.69,13.49,55.25,25.55,59.64,43.56,81.01,122.7,51.42,190.36Z"/>
        </g>
      </g>
    </g>
  </g>
  <g class="cls-42">
    <g class="cls-41">
      <g class="cls-40">
        <g>
          <path class="cls-12" d="M445.5,1320.88c20.1-8.93,38.3-21.73,53.4-37.68,2.3-2.32,2.2-6.01-.2-8.22-2.3-2.21-6-2.12-8.2.21-59.9,62.78-159.3,65.14-222.1,5.26-6.8-6.45-12.9-13.5-18.4-21.04-.1-.07-.1-.1,0-.1l46.9,4.47c3.2.53,6.2-1.61,6.7-4.78s-1.6-6.16-4.8-6.69c-.3-.05-.5-.08-.8-.08l-59.6-5.68c-3.2-.3-6.1,2.04-6.4,5.24h0l-5.6,59.49c-.4,3.2,1.9,6.06,5.1,6.41,3.2.34,6.1-1.97,6.4-5.16v-.15l4.2-43.77c0-.08.1-.09.1-.04,47.5,62.41,131.6,84.05,203.3,52.31Z"/>
          <path class="cls-12" d="M226.2,1211.26c-5.8-19.65-7.7-40.25-5.5-60.62,7.9-73.51,65.8-131.64,139.3-139.8.1-.03.1.03.1.09l-27.4,38.28c-1.9,2.61-1.2,6.25,1.4,8.11,2.6,1.86,6.2,1.25,8.1-1.36l34.8-48.72c1.9-2.62,1.3-6.25-1.4-8.11h0s-48.6-34.75-48.6-34.75c-2.6-1.87-6.2-1.26-8.1,1.35-1.9,2.62-1.2,6.25,1.4,8.12l35.8,25.6c.1.05.1.1,0,.1-92.5,11.53-158.1,95.85-146.6,188.34,1.1,9.02,3,17.93,5.5,26.66.1.25.2.5.3.74,1.3,2.93,4.7,4.27,7.7,2.97,2.7-1.18,4-4.19,3.2-7Z"/>
          <path class="cls-12" d="M520.4,1230.16q0,.07-.1,0l-19.2-42.6c-1.3-2.93-4.8-4.23-7.7-2.92-2.9,1.32-4.3,4.76-2.9,7.69l24.6,54.57c1.4,2.93,4.8,4.25,7.7,2.94l54.5-24.65c2.9-1.15,4.3-4.4,3.1-7.27,0-.14-.1-.28-.2-.41-1.3-2.93-4.7-4.25-7.6-2.94-.1,0-.1.01-.1.01l-40.3,18.24c-.1.03-.1,0-.1-.08,30.4-72.33,7.1-156.08-56.2-202.35-17.8-12.95-38-22.28-59.4-27.43-3.1-.74-6.2,1.2-7,4.32-.7,3.1,1.2,6.22,4.3,6.98,19.9,4.81,38.7,13.49,55.2,25.55,59.7,43.55,81,122.69,51.4,190.35Z"/>
        </g>
      </g>
    </g>
  </g>
  <g class="cls-43">
    <g class="cls-56">
      <g class="cls-54">
        <g>
          <path class="cls-4" d="M449.45,1329.78c20.11-8.93,38.27-21.73,53.44-37.68,2.21-2.33,2.12-6.01-.21-8.22-2.33-2.21-6.01-2.12-8.22.21-59.88,62.78-159.32,65.14-222.1,5.26-6.76-6.45-12.94-13.49-18.45-21.04-.03-.07-.04-.1.05-.1l46.88,4.47c3.17.53,6.16-1.61,6.69-4.78.53-3.17-1.61-6.16-4.78-6.69-.28-.05-.56-.07-.84-.08l-59.6-5.68c-3.2-.3-6.04,2.04-6.34,5.24,0,0,0,0,0,0l-5.66,59.49c-.34,3.19,1.96,6.06,5.16,6.4,3.19.34,6.06-1.96,6.4-5.16,0-.05.01-.1.01-.15l4.17-43.77c0-.08.06-.09.1-.04,47.48,62.4,131.59,84.05,203.3,52.31Z"/>
          <path class="cls-4" d="M230.15,1220.15c-5.8-19.65-7.67-40.25-5.51-60.62,7.9-73.51,65.83-131.64,139.31-139.8.06-.03.1.03.04.1l-27.34,38.27c-1.86,2.62-1.25,6.25,1.36,8.11,2.62,1.86,6.25,1.25,8.11-1.36l34.81-48.72c1.87-2.61,1.26-6.24-1.35-8.11,0,0,0,0,0,0l-48.62-34.74c-2.61-1.87-6.25-1.26-8.11,1.35-1.87,2.61-1.26,6.25,1.35,8.11l35.85,25.61c.07.05.04.1-.03.1-92.49,11.53-158.12,95.85-146.59,188.33,1.12,9.02,2.98,17.94,5.54,26.66.07.25.16.5.27.74,1.29,2.94,4.73,4.27,7.66,2.98,2.69-1.18,4.07-4.19,3.22-7h.01Z"/>
          <path class="cls-4" d="M524.39,1239.06c-.03.07-.08.07-.11,0l-19.27-42.6c-1.32-2.93-4.76-4.24-7.69-2.92-2.93,1.32-4.24,4.76-2.92,7.69l24.68,54.57c1.31,2.93,4.75,4.25,7.68,2.94l54.47-24.65c2.87-1.14,4.27-4.4,3.12-7.27-.06-.14-.12-.28-.18-.41-1.31-2.93-4.75-4.25-7.68-2.94h-.03s-40.32,18.25-40.32,18.25c-.07.03-.11,0-.08-.07,30.4-72.34,7.13-156.09-56.25-202.36-17.79-12.95-37.96-22.27-59.36-27.43-3.13-.74-6.26,1.2-7,4.32-.73,3.1,1.17,6.22,4.27,6.98,19.91,4.81,38.69,13.49,55.25,25.55,59.64,43.56,81.01,122.7,51.41,190.36Z"/>
        </g>
      </g>
    </g>
  </g>
  <g>
    <path class="cls-1" d="M486,1136.3c-.14-2.02-1.61-3.69-3.59-4.1l-23.79-4.86c-1.48-.31-3.01.15-4.08,1.23l-4.81,4.8-31.95-31.95c-.39,6.55-3.92,12.5-9.48,15.98l28.7,28.7-4.64,4.64c-1.05,1.05-1.52,2.56-1.24,4.03l4.6,24.04c.38,2.01,2.08,3.51,4.12,3.64l23.86,1.59c.1,0,.2.01.3.01,2.49.08,4.57-1.87,4.65-4.35.08-2.49-1.87-4.57-4.35-4.65l-20.4-1.35-3.5-18.28,18.78-18.78,18.06,3.68,1.36,20.44c.17,2.48,2.31,4.36,4.79,4.19,2.48-.17,4.36-2.31,4.19-4.79l-1.6-23.86Z"/>
    <path class="cls-1" d="M377.22,1167.62c0-7.23-2.07-14.31-5.96-20.41l-15.88,18.97c-8.21,9.85-22.86,11.17-32.7,2.95-9.85-8.21-11.17-22.86-2.96-32.7.89-1.07,1.88-2.06,2.95-2.95l.58-.49c-13.56,6.19-22.27,19.73-22.27,34.64v42.88h76.23v-42.88Z"/>
    <path class="cls-1" d="M377.35,1100.25c0-1.37.14-2.74.41-4.08l-50.76,42.47c-6.97,5.84-7.89,16.23-2.05,23.2,5.84,6.97,16.23,7.89,23.2,2.05.74-.62,1.43-1.31,2.05-2.05l37.02-44.24c-6.11-3.65-9.86-10.24-9.87-17.36ZM343.43,1151.79c-1.76,1.76-4.61,1.76-6.36,0-1.76-1.76-1.76-4.61,0-6.36,1.76-1.76,4.61-1.76,6.36,0,0,0,0,0,0,0,1.76,1.76,1.76,4.61,0,6.36Z"/>
    <path class="cls-1" d="M377.35,1219.5h-76.5c-4.97,0-9,4.03-9,9v9h94.5v-9c0-4.97-4.03-9-9-9Z"/>
    <path class="cls-1" d="M397.6,1086.75c-7.46,0-13.5,6.04-13.5,13.5s6.04,13.5,13.5,13.5,13.5-6.04,13.5-13.5-6.04-13.5-13.5-13.5ZM397.6,1103.62c-1.86,0-3.38-1.51-3.38-3.38s1.51-3.38,3.38-3.38,3.38,1.51,3.38,3.38-1.51,3.38-3.38,3.38Z"/>
  </g>
  <path class="cls-19" d="M561.65,1094.43l259.68-31.52c2.51-.31,4.3-2.59,4-5.1-.3-2.51-2.59-4.3-5.1-4l-259.68,31.52c-2.51.31-4.3,2.59-4,5.1.31,2.51,2.59,4.3,5.1,4ZM799.57,1087.56l28.31-30.07-34.68-22.42c-2.13-1.37-4.96-.77-6.34,1.36-1.38,2.13-.77,4.96,1.36,6.34l30.06,19.44-.85-6.99-24.54,26.06h0c-1.74,1.84-1.65,4.74.2,6.48,1.84,1.74,4.74,1.65,6.48-.2Z"/>
  <text class="cls-21" transform="translate(586.9 1065) rotate(-6.93)"><tspan x="0" y="0">2025</tspan></text>
  <text class="cls-21" transform="translate(285 1403)"><tspan x="0" y="0">2030</tspan></text>
  <text class="cls-21" transform="translate(181.5 1147) rotate(-58.78)"><tspan x="0" y="0">2015</tspan></text>
  <path class="cls-24" d="M205.6,1231.16l40.68-14.16"/>
  <path class="cls-26" d="M1192.1,1434.32v-90.82"/>
  <g class="cls-55">
    <g class="cls-57">
      <g class="cls-65">
        <g>
          <path class="cls-15" d="M526.09,564.61c18.43,12.03,39.04,20.32,60.67,24.39,3.16.59,6.2-1.48,6.79-4.64.59-3.16-1.48-6.2-4.64-6.79-85.24-16.15-141.25-98.35-125.1-183.6,1.74-9.18,4.3-18.19,7.64-26.92.04-.06.06-.09.11-.01l21.72,41.79c1.28,2.95,4.7,4.3,7.65,3.02,2.95-1.28,4.3-4.7,3.02-7.65-.11-.26-.24-.51-.39-.75l-27.62-53.12c-1.48-2.85-4.99-3.96-7.84-2.48,0,0,0,0,0,0l-53.02,27.57c-2.87,1.45-4.02,4.94-2.58,7.81s4.94,4.02,7.81,2.57c.04-.02.09-.05.13-.07l39.01-20.28c.07-.04.11,0,.09.06-26.59,73.77.95,156.14,66.55,199.09Z"/>
          <path class="cls-15" d="M498.96,320.94c13.35-15.54,29.62-28.31,47.9-37.56,66-33.31,146.28-16.26,193.06,40.99.06.04.03.1-.06.09l-46.99-2.15c-3.21-.14-5.93,2.34-6.07,5.55-.14,3.21,2.34,5.93,5.55,6.07l59.81,2.75c3.21.15,5.93-2.33,6.07-5.54h0s2.75-59.69,2.75-59.69c.15-3.21-2.34-5.93-5.54-6.08-3.21-.15-5.93,2.34-6.08,5.54l-2.02,44.01c0,.08-.06.09-.1.03-59.93-71.38-166.38-80.66-237.76-20.73-6.96,5.85-13.44,12.24-19.37,19.13-.17.2-.33.41-.47.63-1.76,2.68-1.02,6.29,1.67,8.05,2.45,1.61,5.73,1.14,7.63-1.1h.01Z"/>
          <path class="cls-15" d="M642.97,578.24c-.07.01-.1-.02-.06-.09l25.3-39.32c1.74-2.7.97-6.3-1.72-8.04-2.7-1.74-6.3-.97-8.04,1.72l-32.4,50.37c-1.75,2.69-.99,6.29,1.7,8.04l50.29,32.33c2.52,1.79,6.01,1.19,7.8-1.33.09-.12.17-.25.25-.38,1.75-2.69.99-6.29-1.71-8.04l-.02-.02-37.22-23.94c-.07-.04-.06-.09.02-.11,77.25-13.78,134.91-78.83,139.32-157.18,1.2-21.97-1.93-43.97-9.23-64.74-1.08-3.03-4.41-4.6-7.43-3.52-3,1.07-4.58,4.36-3.54,7.37,6.79,19.33,9.7,39.81,8.57,60.26-4.16,73.73-58.98,134.68-131.87,146.6Z"/>
        </g>
      </g>
    </g>
  </g>
  <g class="cls-67">
    <g class="cls-64">
      <g class="cls-63">
        <g>
          <path class="cls-10" d="M520.1,565.71c18.5,12.03,39.1,20.32,60.7,24.39,3.2.59,6.2-1.49,6.8-4.64.6-3.16-1.5-6.2-4.6-6.8-85.3-16.15-141.3-98.35-125.1-183.59,1.7-9.18,4.2-18.19,7.6-26.92,0-.07,0-.09.1,0l21.7,41.79c1.3,2.94,4.7,4.3,7.7,3.02,2.9-1.28,4.3-4.7,3-7.65-.1-.26-.2-.5-.4-.74l-27.6-53.12c-1.5-2.85-5-3.96-7.9-2.48h0l-53,27.57c-2.8,1.45-4,4.94-2.6,7.81,1.5,2.87,5,4.02,7.9,2.58,0-.03,0-.05.1-.07l39-20.29c.1-.03.1,0,.1.06-26.6,73.77.9,156.14,66.5,199.09Z"/>
          <path class="cls-10" d="M493,322.04c13.4-15.54,29.6-28.3,47.9-37.56,66-33.3,146.3-16.26,193.1,40.99,0,.04,0,.1-.1.09l-47-2.15c-3.2-.15-5.9,2.34-6.1,5.55-.1,3.21,2.4,5.92,5.6,6.07l59.8,2.74c3.2.15,5.9-2.33,6.1-5.54h0l2.7-59.69c.2-3.21-2.3-5.93-5.5-6.08-3.2-.14-5.9,2.34-6.1,5.55l-2,44.01c0,.08-.1.08-.1.03-59.9-71.38-166.4-80.66-237.8-20.73-6.9,5.85-13.4,12.24-19.3,19.13-.2.2-.4.41-.5.63-1.8,2.69-1,6.29,1.7,8.06,2.4,1.61,5.7,1.14,7.6-1.1Z"/>
          <path class="cls-10" d="M637,579.33c-.1.02-.1-.02,0-.09l25.2-39.32c1.8-2.7,1-6.3-1.7-8.04-2.7-1.74-6.3-.97-8,1.72l-32.4,50.37c-1.8,2.7-1,6.3,1.7,8.05l50.3,32.33c2.5,1.79,6,1.19,7.8-1.33.1-.12.1-.25.2-.38,1.8-2.69,1-6.29-1.7-8.04v-.02l-37.2-23.94c-.1-.04-.1-.09,0-.1,77.2-13.78,134.9-78.83,139.3-157.18,1.2-21.97-1.9-43.97-9.2-64.73-1.1-3.03-4.4-4.6-7.5-3.53-3,1.08-4.5,4.37-3.5,7.38,6.8,19.33,9.7,39.8,8.6,60.26-4.2,73.73-59,134.68-131.9,146.59Z"/>
        </g>
      </g>
    </g>
  </g>
  <g class="cls-58">
    <g class="cls-59">
      <g class="cls-60">
        <g>
          <path class="cls-18" d="M514.79,573.87c18.43,12.03,39.04,20.32,60.66,24.39,3.16.59,6.2-1.48,6.79-4.64.59-3.16-1.49-6.2-4.64-6.79-85.24-16.15-141.25-98.35-125.1-183.59,1.74-9.18,4.3-18.19,7.64-26.92.04-.06.06-.09.11-.01l21.72,41.79c1.28,2.95,4.7,4.3,7.65,3.02,2.95-1.28,4.3-4.7,3.02-7.65-.11-.26-.24-.51-.39-.75l-27.62-53.12c-1.48-2.85-4.99-3.96-7.84-2.48,0,0,0,0,0,0l-53.02,27.57c-2.87,1.45-4.02,4.94-2.57,7.81,1.45,2.87,4.94,4.02,7.81,2.57.04-.02.09-.04.13-.07l39.01-20.28c.07-.04.11,0,.09.06-26.59,73.77.94,156.14,66.55,199.09Z"/>
          <path class="cls-18" d="M487.66,330.21c13.34-15.54,29.62-28.31,47.9-37.56,66-33.31,146.28-16.26,193.06,40.99.06.04.02.1-.06.09l-46.99-2.15c-3.21-.14-5.93,2.34-6.07,5.55-.14,3.21,2.34,5.93,5.55,6.07l59.81,2.75c3.21.15,5.93-2.33,6.07-5.54,0,0,0,0,0,0l2.75-59.69c.15-3.21-2.34-5.93-5.54-6.08-3.21-.15-5.93,2.34-6.08,5.54l-2.02,44.01c0,.08-.06.09-.1.03-59.93-71.38-166.38-80.66-237.76-20.73-6.96,5.85-13.44,12.24-19.37,19.13-.17.2-.33.41-.47.63-1.76,2.68-1.02,6.29,1.67,8.05,2.46,1.61,5.73,1.14,7.63-1.1h.01Z"/>
          <path class="cls-18" d="M631.67,587.49c-.07.02-.1-.02-.06-.09l25.3-39.32c1.74-2.7.97-6.3-1.72-8.04-2.7-1.74-6.3-.97-8.04,1.73l-32.4,50.37c-1.75,2.69-.99,6.29,1.7,8.04l50.29,32.33c2.52,1.79,6.01,1.19,7.8-1.33.09-.12.17-.25.25-.38,1.75-2.69.99-6.29-1.7-8.04l-.02-.02-37.22-23.94c-.07-.04-.06-.09.02-.11,77.25-13.78,134.91-78.83,139.32-157.17,1.2-21.97-1.93-43.97-9.23-64.74-1.08-3.03-4.41-4.6-7.43-3.52-3,1.07-4.58,4.36-3.54,7.37,6.79,19.33,9.7,39.81,8.57,60.26-4.16,73.73-58.98,134.68-131.87,146.59Z"/>
        </g>
      </g>
    </g>
  </g>
  <g>
    <path class="cls-1" d="M682.8,495.94c-6.3-14.58-18.5-47.92-13.5-79.72.2-1.56-.9-3-2.4-3.22-.2-.02-.3-.03-.4-.03h-23c-1.8,35.42,12.5,70.68,18.2,82.97h-6.3c-7.2-16.4-22.4-56.84-16.3-95.25.3-1.55-.8-3.02-2.3-3.29-.2-.03-.3-.05-.5-.05h-57c-1.6,0-2.9,1.28-2.8,2.86v.48c6.1,38.41-9.1,78.85-16.3,95.25h-6.3c5.7-12.29,20-47.56,18.2-82.97h-23.2c-1.6,0-2.9,1.27-2.9,2.84v.41c5,31.8-7.2,65.14-13.5,79.72h-11.1v7.58h174.4v-7.58h-13Z"/>
    <path class="cls-1" d="M614.1,385.6c1.4-2.31,4.4-3.05,6.8-1.64l1.4.85c7.7,4.7,17.7,2.25,22.4-5.46h0c1.4-2.32,4.5-3.05,6.8-1.64,8.9,5.71,20.8,3.08,26.5-5.86,5.3-9.18,2.2-20.93-7-26.25-6.2-3.87-14.1-3.95-20.4-.22-.9-.94-2-1.76-3.1-2.45-7.3-4.7-17.1-2.54-21.8,4.81-1.8,3-2.5,6.54-2,10.01-5.4.69-10.3,3.81-13.1,8.48l-3.5,5.7c-.2-.03-.5-.08-.8-.08-5,0-9.1,4.06-9.1,9.07s4.1,9.08,9.1,9.08c2,0,4-.68,5.5-1.91.8-.52,1.5-1.22,2-2.04l.3-.45Z"/>
  </g>
  <path class="cls-8" d="M596.4,491.88l9.6-32.38h-14.9l7.4-39.17h22l-9.3,28.67h14.9l-29.7,42.88Z"/>
  <path class="cls-19" d="M755.4,546.55l215.3,127.07c2.2,1.29,2.9,4.1,1.6,6.28-1.3,2.18-4.1,2.9-6.2,1.61l-215.3-127.06c-2.2-1.29-2.9-4.1-1.6-6.28,1.2-2.18,4-2.9,6.2-1.62ZM960.7,642.31l13.9,38.9-40.8,6.64c-2.5.4-4.9-1.29-5.3-3.79-.4-2.5,1.3-4.85,3.8-5.26l35.4-5.76-3.6,6.07-12.1-33.72c-.8-2.38.4-5,2.8-5.85,2.4-.85,5,.39,5.9,2.77Z"/>
  <text class="cls-21" transform="translate(792.7 548) rotate(30.21)"><tspan x="0" y="0">2030</tspan></text>
  <text class="cls-21" transform="translate(354.3 500) rotate(51.02)"><tspan x="0" y="0">2035</tspan></text>
  <text class="cls-21" transform="translate(524.9 245)"><tspan x="0" y="0">1995</tspan></text>
  <path class="cls-23" d="M463.8,317.54l36.61,22.7"/>
  <g class="cls-61">
    <g class="cls-66">
      <g>
        <path class="cls-7" d="M1043.53,222.97c-.04,22.05,4.25,43.88,12.63,64.27,1.22,2.98,4.63,4.4,7.6,3.17,2.97-1.23,4.39-4.63,3.16-7.61-32.95-80.41,5.44-172.34,85.74-205.34,8.65-3.55,17.6-6.33,26.75-8.29.08,0,.1,0,.07.09l-23.2,41.07c-1.77,2.68-1.04,6.3,1.63,8.07,2.68,1.78,6.29,1.05,8.06-1.64.16-.23.29-.48.41-.73l29.49-52.21c1.58-2.8.6-6.35-2.2-7.94,0,0,0,0,0,0l-52.04-29.47c-2.78-1.62-6.34-.68-7.95,2.1-1.62,2.78-.68,6.35,2.1,7.96.04.03.09.05.13.07l38.29,21.68c.07.04.06.09,0,.1-76.37,17.96-130.44,86.07-130.67,164.63Z"/>
        <path class="cls-7" d="M1233.09,67.1c20.32,2.72,39.9,9.42,57.63,19.71,63.93,37.24,93.43,113.97,70.92,184.52,0,.07-.07.08-.1,0l-23.82-40.64c-1.63-2.77-5.2-3.7-7.97-2.07-2.77,1.63-3.69,5.2-2.06,7.98l30.32,51.73c1.63,2.77,5.19,3.7,7.96,2.07,0,0,0,0,0,0l51.56-30.29c2.77-1.63,3.7-5.2,2.07-7.97-1.63-2.77-5.19-3.7-7.96-2.07l-38.01,22.34c-.07.04-.11,0-.08-.06,27.18-89.32-23.1-183.78-112.29-211-8.7-2.65-17.6-4.6-26.61-5.82-.26-.04-.52-.05-.79-.05-3.21-.02-5.83,2.58-5.85,5.8-.01,2.94,2.17,5.44,5.08,5.81h0Z"/>
        <path class="cls-7" d="M1095.85,328.57c-.05-.05-.03-.1.04-.1l46.77-.23c3.21,0,5.81-2.62,5.8-5.84,0-3.22-2.62-5.82-5.83-5.81l-59.92.3c-3.21,0-5.82,2.61-5.82,5.83l.31,59.89c-.12,3.09,2.28,5.7,5.37,5.83.15,0,.3,0,.45,0,3.21,0,5.82-2.61,5.82-5.83v-.03l-.22-44.34c0-.08.04-.1.1-.04,53.69,57.35,139.7,70.24,207.81,31.16,19.09-10.99,35.82-25.64,49.26-43.11,1.95-2.56,1.46-6.21-1.1-8.16-2.54-1.94-6.16-1.47-8.12,1.05-12.51,16.26-28.09,29.89-45.86,40.11-64.11,36.78-145.12,24.02-194.87-30.68Z"/>
      </g>
    </g>
  </g>
  <g class="cls-62">
    <g class="cls-46">
      <g>
        <path class="cls-13" d="M1039.53,218.4c-.04,21.98,4.25,43.76,12.61,64.08,1.22,2.97,4.62,4.38,7.59,3.16,2.97-1.22,4.38-4.62,3.16-7.59-32.89-80.18,5.44-171.85,85.61-204.74,8.64-3.54,17.58-6.31,26.7-8.27.08,0,.1,0,.07.09l-23.16,40.95c-1.77,2.67-1.04,6.28,1.63,8.05,2.67,1.77,6.28,1.04,8.05-1.63.15-.23.29-.48.41-.73l29.44-52.06c1.58-2.79.6-6.34-2.2-7.92,0,0,0,0,0,0l-51.96-29.38c-2.77-1.61-6.33-.68-7.94,2.1-1.61,2.77-.68,6.33,2.1,7.94.04.03.09.05.13.07l38.23,21.62c.07.04.06.09,0,.1-76.25,17.91-130.24,85.83-130.47,164.15Z"/>
        <path class="cls-13" d="M1228.8,62.98c20.28,2.71,39.83,9.39,57.54,19.66,63.84,37.13,93.28,113.64,70.81,183.99,0,.07-.07.08-.1,0l-23.78-40.52c-1.63-2.77-5.19-3.69-7.96-2.06-2.76,1.63-3.69,5.19-2.06,7.95l30.27,51.58c1.62,2.77,5.18,3.69,7.95,2.07,0,0,0,0,0,0l51.48-30.2c2.77-1.62,3.69-5.19,2.07-7.95-1.62-2.77-5.19-3.69-7.95-2.07l-37.95,22.28c-.07.04-.1,0-.08-.06,27.13-89.06-23.06-183.25-112.12-210.39-8.69-2.65-17.57-4.59-26.57-5.8-.26-.04-.52-.05-.78-.05-3.21-.02-5.82,2.57-5.84,5.78-.01,2.94,2.16,5.42,5.08,5.79h0Z"/>
        <path class="cls-13" d="M1091.77,323.69c-.05-.05-.03-.1.04-.1l46.7-.23c3.21,0,5.8-2.62,5.79-5.82,0-3.21-2.62-5.8-5.82-5.79l-59.82.3c-3.21,0-5.81,2.6-5.81,5.81l.31,59.72c-.12,3.08,2.27,5.68,5.36,5.81.15,0,.3,0,.45,0,3.21,0,5.81-2.6,5.81-5.81v-.03l-.22-44.21c0-.08.04-.1.1-.04,53.61,57.18,139.48,70.04,207.48,31.07,19.06-10.96,35.77-25.56,49.18-42.98,1.95-2.55,1.46-6.2-1.1-8.14-2.53-1.93-6.15-1.46-8.1,1.05-12.49,16.21-28.05,29.8-45.79,40-64.01,36.67-144.9,23.95-194.57-30.59Z"/>
      </g>
    </g>
  </g>
  <g class="cls-48">
    <g class="cls-47">
      <g>
        <path class="cls-4" d="M1029.88,218.4c-.04,21.98,4.25,43.76,12.63,64.08,1.22,2.97,4.62,4.38,7.59,3.16,2.97-1.22,4.39-4.62,3.16-7.58-32.92-80.18,5.44-171.85,85.68-204.74,8.64-3.54,17.59-6.31,26.73-8.27.08,0,.11,0,.07.09l-23.18,40.95c-1.77,2.67-1.04,6.28,1.63,8.05,2.68,1.77,6.28,1.04,8.06-1.63.16-.23.29-.48.41-.73l29.46-52.06c1.58-2.79.6-6.34-2.2-7.92,0,0,0,0,0,0l-52-29.38c-2.77-1.61-6.33-.68-7.95,2.1-1.62,2.77-.68,6.33,2.1,7.94.04.03.09.05.13.07l38.26,21.62c.07.04.06.09,0,.11-76.31,17.91-130.34,85.82-130.58,164.15Z"/>
        <path class="cls-4" d="M1219.3,62.98c20.3,2.71,39.86,9.39,57.58,19.66,63.88,37.13,93.35,113.64,70.87,183.99,0,.07-.07.07-.11,0l-23.8-40.52c-1.63-2.77-5.19-3.69-7.96-2.06-2.77,1.63-3.69,5.19-2.06,7.95l30.3,51.58c1.63,2.77,5.19,3.69,7.95,2.07h0s51.52-30.2,51.52-30.2c2.77-1.62,3.7-5.18,2.07-7.95-1.63-2.77-5.19-3.69-7.96-2.07l-37.98,22.28c-.07.04-.11,0-.08-.06,27.16-89.06-23.08-183.25-112.21-210.39-8.69-2.65-17.59-4.59-26.59-5.8-.26-.04-.52-.05-.78-.05-3.21-.02-5.83,2.57-5.84,5.78-.02,2.94,2.17,5.42,5.08,5.79h0Z"/>
        <path class="cls-4" d="M1082.16,323.69c-.05-.05-.04-.1.04-.1l46.74-.23c3.21,0,5.81-2.62,5.8-5.82,0-3.21-2.62-5.8-5.83-5.79l-59.87.3c-3.21,0-5.81,2.6-5.81,5.81l.31,59.72c-.12,3.08,2.28,5.68,5.36,5.81.15,0,.3,0,.45,0,3.21,0,5.81-2.6,5.81-5.81v-.03l-.22-44.21c0-.08.04-.1.1-.04,53.65,57.18,139.59,70.04,207.64,31.07,19.07-10.96,35.8-25.56,49.22-42.98,1.95-2.55,1.46-6.2-1.1-8.14-2.53-1.93-6.15-1.46-8.11,1.05-12.5,16.21-28.07,29.8-45.83,40-64.06,36.67-145.01,23.95-194.72-30.59Z"/>
      </g>
    </g>
  </g>
  <g>
    <path class="cls-1" d="M1208.5,277.75c-4.2-9.61-12.1-31.59-8.9-52.56.2-1.03-.6-1.98-1.6-2.12-.1-.02-.2-.02-.3-.02h-15.1c-1.2,23.35,8.3,46.6,12,54.7h-4.1c-4.8-10.81-14.8-37.48-10.8-62.8.2-1.02-.5-1.99-1.5-2.17-.1-.02-.2-.03-.3-.03h-37.6c-1.1,0-1.9.84-1.9,1.88v.32c4.1,25.32-6,51.99-10.7,62.8h-4.1c3.7-8.1,13.1-31.35,11.9-54.7h-15.3c-1-.01-1.9.83-1.9,1.87,0,.09,0,.18.1.27,3.2,20.97-4.8,42.95-9,52.56h-7.3v5h115v-5h-8.6Z"/>
    <path class="cls-1" d="M1163.2,205c1-1.53,3-2.01,4.5-1.08l.9.56c5.1,3.1,11.7,1.48,14.8-3.6h0c.9-1.53,2.9-2.01,4.5-1.09,5.9,3.77,13.7,2.04,17.5-3.85,3.5-6.06,1.4-13.8-4.6-17.32-4.2-2.54-9.3-2.6-13.5-.14-.6-.62-1.3-1.16-2-1.62-4.9-3.09-11.3-1.67-14.4,3.17-1.2,1.98-1.7,4.32-1.4,6.61-3.5.45-6.7,2.51-8.6,5.59l-2.3,3.76c-.1-.02-.3-.06-.5-.06-3.3,0-6,2.68-6,5.99s2.7,5.98,6,5.98c1.3,0,2.6-.44,3.6-1.26.6-.34,1-.8,1.3-1.34l.2-.3Z"/>
  </g>
  <path class="cls-8" d="M1152.1,274.99l6.3-21.2h-9.8l4.9-25.64h14.4l-6.1,18.77h9.8l-19.5,28.07Z"/>
  <path class="cls-5" d="M1258.6,184l-10,7.24-4.2,85.31h-7.8v7.45h39v-7.45h-7.9l-6-91.91-3.1-.64Z"/>
  <path class="cls-5" d="M1245.2,160.74l.9,1.26c.5-.83,1.1-1.58,1.9-2.24,3.6-3.28,9-3.74,13.2-1.13l.4-1.63-14.3-42.63c-.6-1.78-2.5-2.77-4.3-2.21-1.6.48-2.6,2.01-2.4,3.62l4.6,44.96Z"/>
  <path class="cls-5" d="M1307.6,181.46l-40.1-18.46-2,.22c2.3,5.28.2,11.5-4.9,14.08l1.9,1.57,43,9.04c1.8.42,3.6-.73,4-2.56.4-1.61-.4-3.25-1.9-3.89Z"/>
  <path class="cls-5" d="M1254.6,178.53c-5.6-.32-10-4.92-10-10.53l-2.1.7-29,32.73c-1.3,1.36-1.2,3.46.2,4.7,1.2,1.07,2.9,1.16,4.2.22l35.8-25.8.9-2.02Z"/>
  <path class="cls-5" d="M1251.4,163.42c-2.2,2.04-2.4,5.52-.4,7.77,2.1,2.25,5.5,2.43,7.8.39,2.2-2.04,2.4-5.52.4-7.77-2.1-2.25-5.5-2.43-7.8-.39h0Z"/>
  <path class="cls-7" d="M1214.7,403.5v213.31c0,2.53-2.1,4.58-4.6,4.58s-4.6-2.05-4.6-4.58v-213.31c0-2.53,2.1-4.58,4.6-4.58s4.6,2.05,4.6,4.58ZM1236.5,592.24l-26.4,31.73-26.4-31.73c-1.7-1.94-1.4-4.83.5-6.45,2-1.62,4.9-1.36,6.5.58l22.9,27.5h-7l22.9-27.5c1.6-1.94,4.5-2.2,6.5-.58,1.9,1.62,2.2,4.51.5,6.45Z"/>
  <text class="cls-21" transform="translate(1191.4 576) rotate(-90)"><tspan x="0" y="0">2035</tspan></text>
  <path class="cls-25" d="M1219,36l-2.86,42.98"/>
  <g class="cls-50">
    <g class="cls-44">
      <g class="cls-45">
        <g>
          <path class="cls-9" d="M1714.78,272.36c-18.12,12.49-33.59,28.43-45.56,46.9-1.75,2.7-.98,6.3,1.72,8.04,2.7,1.75,6.3.98,8.04-1.72,47.25-72.76,144.54-93.45,217.31-46.2,7.84,5.09,15.21,10.87,22.02,17.27.04.06.06.09-.03.11l-46.9,4.27c-3.21.07-5.76,2.72-5.7,5.93.06,3.21,2.72,5.76,5.93,5.7.28,0,.56-.03.84-.08l59.63-5.43c3.2-.29,5.55-3.12,5.26-6.32,0,0,0,0,0,0l-5.42-59.51c-.25-3.2-3.05-5.59-6.25-5.34s-5.59,3.05-5.34,6.25c0,.05,0,.1.01.15l3.99,43.79c0,.08-.04.1-.09.06-58.19-52.56-144.86-58.29-209.46-13.85Z"/>
          <path class="cls-9" d="M1950.56,339.58c9.33,18.24,14.97,38.14,16.61,58.56,5.82,73.7-40.38,141.54-111.09,163.13-.06.04-.1-.01-.06-.09l19.8-42.67c1.35-2.92.08-6.37-2.84-7.72-2.92-1.35-6.37-.08-7.72,2.84l-25.21,54.31c-1.35,2.91-.09,6.37,2.83,7.72h0s54.2,25.17,54.2,25.17c2.91,1.35,6.37.08,7.72-2.83,1.35-2.91.08-6.37-2.83-7.72l-39.96-18.54c-.07-.03-.06-.09,0-.1,88.77-28.41,137.69-123.41,109.27-212.17-2.77-8.66-6.24-17.08-10.37-25.18-.12-.23-.25-.46-.4-.68-1.81-2.65-5.43-3.33-8.08-1.51-2.42,1.66-3.23,4.87-1.87,7.48h0Z"/>
          <path class="cls-9" d="M1657.89,375.36c.01-.07.06-.09.1-.02l26.81,38.31c1.83,2.64,5.46,3.29,8.09,1.45,2.64-1.83,3.29-5.46,1.45-8.09l-34.33-49.07c-1.83-2.64-5.45-3.3-8.09-1.47l-48.98,34.29c-2.61,1.66-3.38,5.11-1.73,7.72.08.13.17.25.26.37,1.83,2.64,5.45,3.3,8.09,1.47l.02-.02,36.26-25.37c.07-.05.1-.02.09.06-16.52,76.71,21.83,154.72,92.66,188.49,19.88,9.44,41.42,14.87,63.4,15.99,3.21.15,5.93-2.33,6.08-5.54.15-3.19-2.3-5.89-5.48-6.07-20.46-1.04-40.51-6.11-59.01-14.9-66.66-31.79-102.29-105.62-85.7-177.58Z"/>
        </g>
      </g>
    </g>
  </g>
  <g class="cls-51">
    <g class="cls-49">
      <g class="cls-52">
        <g>
          <path class="cls-6" d="M1716,266.43c-18.1,12.49-33.5,28.43-45.5,46.9-1.8,2.7-1,6.3,1.7,8.04,2.7,1.75,6.3.98,8.1-1.72,47.2-72.76,144.5-93.45,217.3-46.2,7.8,5.09,15.2,10.87,22,17.27,0,.06,0,.09-.1.11l-46.9,4.27c-3.2.06-5.7,2.72-5.7,5.93.1,3.21,2.8,5.76,6,5.69.3,0,.5-.03.8-.07l59.6-5.44c3.2-.29,5.6-3.12,5.3-6.31h0s-5.4-59.52-5.4-59.52c-.3-3.2-3.1-5.59-6.3-5.34s-5.6,3.05-5.3,6.25v.15l4,43.78c0,.08,0,.1-.1.06-58.2-52.56-144.8-58.29-209.5-13.85Z"/>
          <path class="cls-6" d="M1951.8,333.65c9.3,18.24,15,38.14,16.6,58.56,5.8,73.7-40.3,141.54-111.1,163.13,0,.04-.1,0,0-.08l19.8-42.67c1.3-2.92.1-6.37-2.9-7.72-2.9-1.35-6.3-.08-7.7,2.84l-25.2,54.31c-1.3,2.91-.1,6.37,2.8,7.72h0l54.2,25.17c3,1.35,6.4.08,7.8-2.83,1.3-2.92.1-6.37-2.9-7.73l-39.9-18.54c-.1-.03-.1-.09,0-.1,88.7-28.42,137.7-123.41,109.3-212.17-2.8-8.66-6.3-17.08-10.4-25.18-.1-.24-.3-.46-.4-.68-1.8-2.65-5.4-3.32-8.1-1.51-2.4,1.66-3.2,4.87-1.9,7.48Z"/>
          <path class="cls-6" d="M1659.2,369.43c0-.07,0-.08.1-.02l26.8,38.31c1.8,2.63,5.4,3.28,8.1,1.45,2.6-1.84,3.2-5.46,1.4-8.1l-34.3-49.07c-1.9-2.64-5.5-3.3-8.1-1.47l-49,34.29c-2.6,1.65-3.4,5.11-1.7,7.72.1.13.1.25.2.37,1.9,2.64,5.5,3.3,8.1,1.47v-.02l36.3-25.37c.1-.04.1-.02.1.06-16.5,76.71,21.8,154.72,92.7,188.48,19.8,9.45,41.4,14.88,63.4,15.99,3.2.15,5.9-2.33,6-5.54.2-3.18-2.3-5.89-5.4-6.07-20.5-1.04-40.6-6.11-59.1-14.9-66.6-31.79-102.2-105.62-85.6-177.58Z"/>
        </g>
      </g>
    </g>
  </g>
  <g class="cls-53">
    <g class="cls-68">
      <g class="cls-69">
        <g>
          <path class="cls-17" d="M1710.48,258.42c-18.11,12.49-33.59,28.43-45.56,46.9-1.75,2.7-.98,6.3,1.72,8.04,2.7,1.75,6.3.97,8.04-1.72,47.25-72.76,144.54-93.45,217.31-46.2,7.84,5.09,15.21,10.87,22.02,17.27.04.06.06.09-.03.11l-46.9,4.27c-3.21.06-5.76,2.72-5.7,5.93.07,3.21,2.72,5.76,5.93,5.7.28,0,.56-.03.84-.08l59.63-5.43c3.2-.29,5.55-3.12,5.26-6.32,0,0,0,0,0,0l-5.42-59.51c-.25-3.2-3.05-5.59-6.25-5.34-3.2.25-5.59,3.05-5.34,6.25,0,.05,0,.1.01.15l3.99,43.79c0,.08-.04.1-.09.06-58.19-52.56-144.86-58.29-209.46-13.85Z"/>
          <path class="cls-17" d="M1946.26,325.65c9.33,18.24,14.97,38.14,16.61,58.56,5.81,73.7-40.38,141.54-111.09,163.13-.06.04-.1-.01-.06-.09l19.8-42.67c1.35-2.92.08-6.37-2.84-7.72-2.92-1.35-6.37-.08-7.72,2.84l-25.21,54.31c-1.35,2.91-.09,6.37,2.83,7.72,0,0,0,0,0,0l54.2,25.17c2.91,1.35,6.37.08,7.72-2.83,1.35-2.91.08-6.37-2.83-7.72l-39.96-18.54c-.07-.03-.06-.09,0-.1,88.77-28.41,137.69-123.41,109.27-212.17-2.77-8.66-6.24-17.08-10.37-25.18-.12-.23-.25-.46-.4-.68-1.82-2.65-5.43-3.32-8.08-1.51-2.42,1.66-3.23,4.87-1.87,7.48h0Z"/>
          <path class="cls-17" d="M1653.59,361.42c.01-.07.06-.09.1-.02l26.81,38.31c1.83,2.64,5.46,3.29,8.09,1.45,2.63-1.84,3.29-5.46,1.45-8.09l-34.33-49.07c-1.83-2.64-5.45-3.3-8.09-1.47l-48.98,34.29c-2.61,1.65-3.38,5.11-1.73,7.72.08.13.17.25.26.37,1.83,2.64,5.45,3.3,8.09,1.47l.02-.02,36.26-25.37c.07-.05.1-.02.09.06-16.52,76.71,21.83,154.72,92.66,188.49,19.88,9.44,41.42,14.87,63.4,15.99,3.21.15,5.93-2.33,6.08-5.54.15-3.18-2.3-5.89-5.48-6.07-20.46-1.04-40.51-6.11-59.01-14.9-66.66-31.79-102.29-105.62-85.69-177.58Z"/>
        </g>
      </g>
    </g>
  </g>
  <g>
    <path class="cls-1" d="M1772.9,395.85l-11.1,8.05-4.7,94.91h-8.7v8.29h43.5v-8.29h-8.8l-6.7-102.25-3.5-.71Z"/>
    <path class="cls-1" d="M1758,370.06l1,1.39c.5-.91,1.2-1.74,2-2.47,4-3.62,9.9-4.13,14.5-1.25l.4-1.79-15.6-46.98c-.6-1.97-2.7-3.06-4.7-2.45-1.7.54-2.8,2.22-2.6,4l5,49.55Z"/>
    <path class="cls-1" d="M1827.2,393.13l-44.9-20.23-2.2.25c2.6,5.78.2,12.6-5.5,15.43l2.1,1.71,48.2,9.91c2.1.46,4.1-.8,4.5-2.8.4-1.77-.5-3.56-2.2-4.27Z"/>
    <path class="cls-1" d="M1768.3,389.93c-6.2-.35-11.2-5.51-11.2-11.79l-2.3.78-32.5,36.66c-1.4,1.52-1.3,3.88.2,5.27,1.3,1.2,3.3,1.3,4.7.24l40.2-28.9.9-2.26Z"/>
    <path class="cls-1" d="M1765.2,373.59c-2.4,2.16-2.6,5.85-.4,8.24,2.1,2.38,5.8,2.57,8.2.41,2.4-2.16,2.6-5.84.4-8.23-2.1-2.39-5.8-2.57-8.2-.42h0Z"/>
    <path class="cls-1" d="M1847.7,373.43l-3.9,88.06h-6.3v6.22h31.1v-6.22h-6.3l-3.3-76.75-11.3-11.31Z"/>
    <path class="cls-1" d="M1807.9,371.76l38.3-1.55,2.3-1.47c-3.8-2.56-4.7-7.68-2.2-11.42.1-.09.1-.17.2-.26,0-.02.1-.04.1-.07l-2.8-.72-36.8,9.79c-1.5.44-2.4,2.04-2,3.58.4,1.28,1.6,2.15,2.9,2.12Z"/>
    <path class="cls-1" d="M1852,353.78c.4-.06.8-.09,1.2-.09,3.4.03,6.4,2.07,7.6,5.18l2.2-2.01,9.9-37.05c.4-1.55-.5-3.13-2.1-3.52-1.2-.33-2.6.26-3.2,1.42l-18,34.19.1,2.6c.7-.34,1.5-.59,2.3-.72Z"/>
    <path class="cls-1" d="M1884.5,396.41l-20.4-32.29-2.7-1.39c-.3,3.81-3.2,6.89-7,7.45-.4.06-.8.09-1.2.09-.3-.01-.7-.04-1-.09l.9,2.81,27,27.01c1.1,1.1,3,1.03,4.1-.14.8-.94,1-2.35.3-3.45Z"/>
    <path class="cls-1" d="M1853.8,366.08c2.3-.34,3.8-2.46,3.5-4.72-.3-2.26-2.5-3.82-4.7-3.48-2.3.35-3.8,2.46-3.5,4.72.3,2.27,2.5,3.82,4.7,3.48h0Z"/>
  </g>
  <path class="cls-11" d="M1645.79,508.54l-226.84,132.48c-2.19,1.28-2.92,4.08-1.65,6.27,1.28,2.18,4.08,2.92,6.27,1.65l226.84-132.48c2.19-1.28,2.92-4.08,1.65-6.27-1.28-2.19-4.08-2.92-6.27-1.65ZM1429.14,609.76l-14.06,38.83,40.73,6.83c2.5.42,4.86-1.26,5.28-3.76.42-2.5-1.27-4.86-3.76-5.28l-35.3-5.92,3.55,6.08,12.19-33.66c.86-2.38-.37-5.01-2.75-5.87-2.38-.86-5.01.37-5.87,2.75Z"/>
  <text class="cls-21" transform="translate(1462.9 595) rotate(-30.85)"><tspan x="0" y="0">2040</tspan></text>
  <path class="cls-28" d="M1930.6,326.16l40.68-14.16"/>
  <path class="cls-27" d="M2175.5,1220.14l32.11,28.71"/>
</svg>