<?xml version="1.0" encoding="UTF-8"?>
<svg id="Layer_1" data-name="Layer 1" xmlns="http://www.w3.org/2000/svg" xmlns:xlink="http://www.w3.org/1999/xlink" viewBox="0 0 2430.6 1538.3">
  <defs>
    <style>
      .cls-1 {
        stroke-width: 1.25px;
      }

      .cls-1, .cls-2, .cls-3, .cls-4, .cls-5, .cls-6, .cls-7, .cls-8 {
        fill: #14181d;
      }

      .cls-1, .cls-2, .cls-4, .cls-5, .cls-6, .cls-8 {
        stroke: #14181d;
      }

      .cls-9 {
        clip-path: url(#clippath);
      }

      .cls-10 {
        fill: #f7a800;
      }

      .cls-10, .cls-11, .cls-12, .cls-13, .cls-3, .cls-14, .cls-15, .cls-16, .cls-17, .cls-18, .cls-19, .cls-20, .cls-21, .cls-22, .cls-23, .cls-24, .cls-25, .cls-26, .cls-27 {
        stroke-width: 0px;
      }

      .cls-11, .cls-28, .cls-29, .cls-30, .cls-31, .cls-32, .cls-33 {
        fill: none;
      }

      .cls-2 {
        stroke-width: 2.07px;
      }

      .cls-12 {
        fill: #4b9224;
      }

      .cls-28 {
        stroke: #3b731f;
        stroke-width: 10.31px;
      }

      .cls-28, .cls-29, .cls-30, .cls-31, .cls-32, .cls-33 {
        stroke-linecap: round;
        stroke-linejoin: round;
      }

      .cls-13 {
        fill: #bdafee;
      }

      .cls-34 {
        clip-path: url(#clippath-1);
      }

      .cls-35 {
        clip-path: url(#clippath-4);
      }

      .cls-36 {
        clip-path: url(#clippath-3);
      }

      .cls-37 {
        clip-path: url(#clippath-2);
      }

      .cls-38 {
        clip-path: url(#clippath-7);
      }

      .cls-39 {
        clip-path: url(#clippath-8);
      }

      .cls-40 {
        clip-path: url(#clippath-6);
      }

      .cls-41 {
        clip-path: url(#clippath-5);
      }

      .cls-42 {
        clip-path: url(#clippath-9);
      }

      .cls-3 {
        fill-rule: evenodd;
      }

      .cls-14 {
        fill: #ffd48f;
      }

      .cls-29, .cls-30 {
        stroke: #4b9224;
      }

      .cls-29, .cls-33 {
        stroke-width: 10.31px;
      }

      .cls-30 {
        stroke-width: 10.31px;
      }

      .cls-15 {
        fill: #ffe5b2;
      }

      .cls-43 {
        clip-path: url(#clippath-20);
      }

      .cls-44 {
        clip-path: url(#clippath-21);
      }

      .cls-45 {
        clip-path: url(#clippath-24);
      }

      .cls-46 {
        clip-path: url(#clippath-23);
      }

      .cls-47 {
        clip-path: url(#clippath-22);
      }

      .cls-48 {
        clip-path: url(#clippath-25);
      }

      .cls-49 {
        clip-path: url(#clippath-44);
      }

      .cls-50 {
        clip-path: url(#clippath-45);
      }

      .cls-51 {
        clip-path: url(#clippath-40);
      }

      .cls-52 {
        clip-path: url(#clippath-42);
      }

      .cls-53 {
        clip-path: url(#clippath-41);
      }

      .cls-54 {
        clip-path: url(#clippath-47);
      }

      .cls-55 {
        clip-path: url(#clippath-43);
      }

      .cls-56 {
        clip-path: url(#clippath-46);
      }

      .cls-57 {
        clip-path: url(#clippath-48);
      }

      .cls-58 {
        clip-path: url(#clippath-49);
      }

      .cls-59 {
        clip-path: url(#clippath-27);
      }

      .cls-60 {
        clip-path: url(#clippath-28);
      }

      .cls-61 {
        clip-path: url(#clippath-26);
      }

      .cls-62 {
        clip-path: url(#clippath-29);
      }

      .cls-63 {
        clip-path: url(#clippath-34);
      }

      .cls-64 {
        clip-path: url(#clippath-35);
      }

      .cls-65 {
        clip-path: url(#clippath-36);
      }

      .cls-66 {
        clip-path: url(#clippath-37);
      }

      .cls-67 {
        clip-path: url(#clippath-39);
      }

      .cls-68 {
        clip-path: url(#clippath-33);
      }

      .cls-69 {
        clip-path: url(#clippath-32);
      }

      .cls-70 {
        clip-path: url(#clippath-30);
      }

      .cls-71 {
        clip-path: url(#clippath-38);
      }

      .cls-72 {
        clip-path: url(#clippath-31);
      }

      .cls-73 {
        clip-path: url(#clippath-50);
      }

      .cls-74 {
        clip-path: url(#clippath-51);
      }

      .cls-75 {
        clip-path: url(#clippath-14);
      }

      .cls-76 {
        clip-path: url(#clippath-13);
      }

      .cls-77 {
        clip-path: url(#clippath-12);
      }

      .cls-78 {
        clip-path: url(#clippath-10);
      }

      .cls-79 {
        clip-path: url(#clippath-15);
      }

      .cls-80 {
        clip-path: url(#clippath-17);
      }

      .cls-81 {
        clip-path: url(#clippath-16);
      }

      .cls-82 {
        clip-path: url(#clippath-19);
      }

      .cls-83 {
        clip-path: url(#clippath-11);
      }

      .cls-84 {
        clip-path: url(#clippath-18);
      }

      .cls-16 {
        fill: #938bbc;
      }

      .cls-4 {
        stroke-width: 2.24px;
      }

      .cls-17 {
        fill: #fde3b1;
      }

      .cls-31 {
        stroke: #58ab27;
        stroke-width: 22.92px;
      }

      .cls-18 {
        fill: #8478be;
      }

      .cls-19 {
        fill: #9b91c2;
      }

      .cls-20 {
        fill: #b4a8e2;
      }

      .cls-21 {
        fill: #f9a800;
      }

      .cls-22 {
        fill: #c2b6f9;
      }

      .cls-32 {
        stroke-width: 10.31px;
      }

      .cls-32, .cls-33 {
        stroke: #8dc05d;
      }

      .cls-23 {
        fill: #8dc05e;
      }

      .cls-5 {
        stroke-width: 1.9px;
      }

      .cls-6 {
        stroke-width: 4.61px;
      }

      .cls-24 {
        fill: #fff;
      }

      .cls-25 {
        fill: #3b741f;
      }

      .cls-26 {
        fill: #f8a800;
      }

      .cls-7 {
        font-family: Arial-ItalicMT, Arial;
        font-size: 73px;
        font-style: italic;
        isolation: isolate;
      }

      .cls-8 {
        stroke-width: 1.77px;
      }

      .cls-27 {
        fill: #58ab27;
      }
    </style>
    <clipPath id="clippath">
      <rect class="cls-11" x="843.3" y="486" width="235" height="352"/>
    </clipPath>
    <clipPath id="clippath-1">
      <rect class="cls-11" x="843.3" y="486" width="235" height="352"/>
    </clipPath>
    <clipPath id="clippath-2">
      <rect class="cls-11" x="1202.3" y="858" width="447" height="653"/>
    </clipPath>
    <clipPath id="clippath-3">
      <rect class="cls-11" x="1202.3" y="858" width="447" height="653"/>
    </clipPath>
    <clipPath id="clippath-4">
      <rect class="cls-11" x="714.3" y="858" width="506" height="653"/>
    </clipPath>
    <clipPath id="clippath-5">
      <rect class="cls-11" x="714.3" y="858" width="506" height="653"/>
    </clipPath>
    <clipPath id="clippath-6">
      <rect class="cls-11" x="1732.11" y="982.97" width="357.87" height="157.73" transform="translate(93.03 2276.09) rotate(-62.8)"/>
    </clipPath>
    <clipPath id="clippath-7">
      <rect class="cls-11" x="1732.11" y="982.97" width="357.87" height="157.73" transform="translate(93.03 2276.09) rotate(-62.8)"/>
    </clipPath>
    <clipPath id="clippath-8">
      <polygon class="cls-11" points="1668.7 1283.17 1923.9 786.68 2420.3 1041.8 2165.2 1538.3 1668.7 1283.17"/>
    </clipPath>
    <clipPath id="clippath-9">
      <rect class="cls-11" x="2057.99" y="948.82" width="200.22" height="293.33" transform="translate(197.46 2514.42) rotate(-62.81)"/>
    </clipPath>
    <clipPath id="clippath-10">
      <rect class="cls-11" x="2057.99" y="948.82" width="200.22" height="293.33" transform="translate(197.46 2514.42) rotate(-62.81)"/>
    </clipPath>
    <clipPath id="clippath-11">
      <polygon class="cls-11" points="1674.6 1281.47 1929.7 784.99 2426.2 1040.11 2171 1536.6 1674.6 1281.47"/>
    </clipPath>
    <clipPath id="clippath-12">
      <rect class="cls-11" x="1950.21" y="1132.39" width="227.08" height="293.33" transform="translate(-17.21 2529.91) rotate(-62.8)"/>
    </clipPath>
    <clipPath id="clippath-13">
      <rect class="cls-11" x="1950.21" y="1132.39" width="227.08" height="293.33" transform="translate(-17.21 2529.91) rotate(-62.8)"/>
    </clipPath>
    <clipPath id="clippath-14">
      <rect class="cls-11" x="1775.7" y="873.02" width="558.19" height="558.21" transform="translate(90.96 2453.26) rotate(-62.81)"/>
    </clipPath>
    <clipPath id="clippath-15">
      <rect class="cls-11" x="1097.3" y="486" width="205" height="351"/>
    </clipPath>
    <clipPath id="clippath-16">
      <rect class="cls-11" x="1097.3" y="486" width="205" height="351"/>
    </clipPath>
    <clipPath id="clippath-17">
      <rect class="cls-11" x="1321.3" y="486" width="319" height="351"/>
    </clipPath>
    <clipPath id="clippath-18">
      <rect class="cls-11" x="1321.3" y="486" width="319" height="351"/>
    </clipPath>
    <clipPath id="clippath-19">
      <polygon class="cls-11" points="532.1 917.59 677.9 1244.38 533.9 1308.65 388.1 981.87 532.1 917.59"/>
    </clipPath>
    <clipPath id="clippath-20">
      <polygon class="cls-11" points="532.1 917.59 677.9 1244.38 533.9 1308.65 388.1 981.87 532.1 917.59"/>
    </clipPath>
    <clipPath id="clippath-21">
      <rect class="cls-11" x="91.82" y="875.11" width="558.25" height="558.21" transform="translate(-438.2 251.39) rotate(-24.05)"/>
    </clipPath>
    <clipPath id="clippath-22">
      <rect class="cls-11" x="205.47" y="1184.61" width="293.27" height="200.22" transform="translate(-493.01 255.03) rotate(-24.05)"/>
    </clipPath>
    <clipPath id="clippath-23">
      <rect class="cls-11" x="205.47" y="1184.61" width="293.27" height="200.22" transform="translate(-493.01 255.03) rotate(-24.05)"/>
    </clipPath>
    <clipPath id="clippath-24">
      <polygon class="cls-11" points="509.7 791.2 737.2 1300.95 227.5 1528.43 0 1018.69 509.7 791.2"/>
    </clipPath>
    <clipPath id="clippath-25">
      <polygon class="cls-11" points="355.6 932.8 448.2 1140.16 180.3 1259.7 87.8 1052.33 355.6 932.8"/>
    </clipPath>
    <clipPath id="clippath-26">
      <polygon class="cls-11" points="355.6 932.8 448.2 1140.16 180.3 1259.7 87.8 1052.33 355.6 932.8"/>
    </clipPath>
    <clipPath id="clippath-27">
      <polygon class="cls-11" points="513.7 800.1 741.2 1309.84 231.5 1537.33 4 1027.58 513.7 800.1"/>
    </clipPath>
    <clipPath id="clippath-28">
      <polygon class="cls-11" points="904.9 418.79 709.8 718.78 577.6 632.8 772.6 332.81 904.9 418.79"/>
    </clipPath>
    <clipPath id="clippath-29">
      <polygon class="cls-11" points="904.9 418.79 709.8 718.78 577.6 632.8 772.6 332.81 904.9 418.79"/>
    </clipPath>
    <clipPath id="clippath-30">
      <polygon class="cls-11" points="1004.8 330.27 700.5 798.22 232.5 493.9 536.9 25.95 1004.8 330.27"/>
    </clipPath>
    <clipPath id="clippath-31">
      <polygon class="cls-11" points="676.4 463.22 567.2 631.06 321.3 471.15 430.5 303.3 676.4 463.22"/>
    </clipPath>
    <clipPath id="clippath-32">
      <polygon class="cls-11" points="676.4 463.22 567.2 631.06 321.3 471.15 430.5 303.3 676.4 463.22"/>
    </clipPath>
    <clipPath id="clippath-33">
      <polygon class="cls-11" points="998.8 331.37 694.5 799.32 226.6 494.99 530.9 27.05 998.8 331.37"/>
    </clipPath>
    <clipPath id="clippath-34">
      <polygon class="cls-11" points="796.2 278.94 672.4 469.31 426.5 309.39 550.3 119.03 796.2 278.94"/>
    </clipPath>
    <clipPath id="clippath-35">
      <polygon class="cls-11" points="796.2 278.94 672.4 469.31 426.5 309.39 550.3 119.03 796.2 278.94"/>
    </clipPath>
    <clipPath id="clippath-36">
      <polygon class="cls-11" points="993.5 339.53 689.2 807.49 221.3 503.16 525.6 35.21 993.5 339.53"/>
    </clipPath>
    <clipPath id="clippath-37">
      <rect class="cls-11" x="1012.3" y="302" width="360" height="160"/>
    </clipPath>
    <clipPath id="clippath-38">
      <rect class="cls-11" x="1012.3" y="302" width="360" height="160"/>
    </clipPath>
    <clipPath id="clippath-39">
      <rect class="cls-11" x="1009.3" width="201" height="293"/>
    </clipPath>
    <clipPath id="clippath-40">
      <rect class="cls-11" x="1009.3" width="201" height="293"/>
    </clipPath>
    <clipPath id="clippath-41">
      <rect class="cls-11" x="1201.3" width="229" height="293"/>
    </clipPath>
    <clipPath id="clippath-42">
      <rect class="cls-11" x="1201.3" width="229" height="293"/>
    </clipPath>
    <clipPath id="clippath-43">
      <rect class="cls-11" x="1589.42" y="305.8" width="157.65" height="357.85" transform="translate(20.73 1035.81) rotate(-34.7)"/>
    </clipPath>
    <clipPath id="clippath-44">
      <rect class="cls-11" x="1589.42" y="305.8" width="157.65" height="357.85" transform="translate(20.73 1035.81) rotate(-34.7)"/>
    </clipPath>
    <clipPath id="clippath-45">
      <polygon class="cls-11" points="1749.3 802.75 1431.6 343.8 1890.5 26.06 2208.3 485.02 1749.3 802.75"/>
    </clipPath>
    <clipPath id="clippath-46">
      <polygon class="cls-11" points="1750.7 448.46 1636.8 283.84 1877.9 116.88 1991.9 281.5 1750.7 448.46"/>
    </clipPath>
    <clipPath id="clippath-47">
      <polygon class="cls-11" points="1750.7 448.46 1636.8 283.84 1877.9 116.88 1991.9 281.5 1750.7 448.46"/>
    </clipPath>
    <clipPath id="clippath-48">
      <polygon class="cls-11" points="1750.6 796.82 1432.8 337.87 1891.8 20.13 2209.5 479.08 1750.6 796.82"/>
    </clipPath>
    <clipPath id="clippath-49">
      <polygon class="cls-11" points="1875.8 629.19 1746.6 442.49 1987.7 275.53 2117 462.23 1875.8 629.19"/>
    </clipPath>
    <clipPath id="clippath-50">
      <polygon class="cls-11" points="1875.8 629.19 1746.6 442.49 1987.7 275.53 2117 462.23 1875.8 629.19"/>
    </clipPath>
    <clipPath id="clippath-51">
      <polygon class="cls-11" points="1745 788.81 1427.3 329.86 1886.2 12.12 2204 471.07 1745 788.81"/>
    </clipPath>
  </defs>
  <g class="cls-9">
    <g class="cls-34">
      <g>
        <path class="cls-26" d="M1572.67,1017c.08-48.97-9.46-97.49-28.1-142.77-2.72-6.61-10.28-9.76-16.89-7.04-6.61,2.72-9.76,10.29-7.04,16.9,73.26,178.64-12.1,382.87-190.66,456.16-19.24,7.9-39.14,14.06-59.47,18.41-.17,0-.23,0-.16-.19l51.58-91.23c3.95-5.96,2.32-13.99-3.63-17.94-5.95-3.95-13.98-2.32-17.93,3.64-.35.52-.65,1.06-.92,1.63l-65.57,115.99c-3.52,6.22-1.33,14.12,4.89,17.63,0,0,0,0,0,0l115.71,65.46c6.17,3.6,14.09,1.51,17.69-4.67,3.6-6.17,1.51-14.1-4.67-17.69-.1-.06-.19-.11-.29-.17l-85.14-48.16c-.15-.09-.13-.19,0-.23,169.82-39.9,290.04-191.22,290.57-365.73Z"/>
        <path class="cls-26" d="M1151.16,1363.26c-45.17-6.04-88.71-20.92-128.13-43.79-142.16-82.73-207.74-253.19-157.7-409.92,0-.16.15-.17.23,0l52.97,90.27c3.63,6.16,11.56,8.21,17.71,4.59,6.16-3.63,8.21-11.56,4.59-17.72l-67.42-114.93c-3.62-6.16-11.54-8.23-17.7-4.61,0,0,0,0,0,0l-114.65,67.29c-6.16,3.62-8.22,11.55-4.6,17.72,3.62,6.16,11.55,8.23,17.71,4.61l84.52-49.63c.15-.09.23,0,.18.14-60.43,198.42,51.36,408.28,249.69,468.74,19.35,5.9,39.14,10.22,59.18,12.93.58.08,1.16.12,1.75.12,7.14.04,12.96-5.73,13-12.88.03-6.54-4.82-12.08-11.3-12.9v-.03Z"/>
        <path class="cls-26" d="M1456.32,782.41c.12.12.08.22-.09.22l-104.01.52c-7.14.02-12.92,5.83-12.9,12.97.02,7.15,5.82,12.93,12.97,12.91l133.23-.66c7.14,0,12.93-5.79,12.93-12.94l-.7-133.06c.28-6.87-5.07-12.66-11.93-12.94-.34-.01-.67-.01-1,0-7.14,0-12.93,5.79-12.93,12.94v.07l.49,98.49c0,.18-.09.22-.22.09-119.38-127.4-310.62-156.05-462.07-69.22-42.44,24.42-79.66,56.96-109.53,95.76-4.33,5.68-3.24,13.8,2.44,18.14,5.64,4.3,13.69,3.26,18.05-2.34,27.81-36.11,62.47-66.39,101.98-89.11,142.55-81.7,322.69-53.37,433.3,68.16Z"/>
      </g>
    </g>
  </g>
  <g class="cls-37">
    <g class="cls-36">
      <g>
        <path class="cls-20" d="M1581.65,1026.25c.09-48.91-9.45-97.37-28.07-142.6-2.72-6.6-10.28-9.75-16.88-7.03-6.6,2.72-9.75,10.28-7.03,16.88,73.19,178.42-12.09,382.4-190.49,455.61-19.22,7.89-39.1,14.04-59.42,18.39-.17,0-.23,0-.16-.19l51.54-91.12c3.94-5.95,2.32-13.97-3.63-17.91-5.95-3.94-13.97-2.32-17.91,3.63-.34.52-.65,1.06-.92,1.63l-65.51,115.85c-3.51,6.21-1.32,14.1,4.89,17.61,0,0,0,0,0,0l115.61,65.39c6.17,3.59,14.08,1.51,17.67-4.66,3.59-6.17,1.5-14.08-4.67-17.67-.1-.06-.19-.11-.29-.17l-85.06-48.1c-.15-.09-.13-.19,0-.23,169.66-39.85,289.77-190.98,290.3-365.29Z"/>
        <path class="cls-20" d="M1160.53,1372.1c-45.13-6.03-88.63-20.89-128.02-43.74-142.03-82.62-207.55-252.88-157.56-409.43,0-.16.15-.17.23,0l52.92,90.16c3.62,6.15,11.55,8.2,17.7,4.58,6.15-3.62,8.2-11.55,4.58-17.7l-67.36-114.79c-3.61-6.16-11.53-8.22-17.69-4.6,0,0,0,0,0,0l-114.55,67.21c-6.15,3.62-8.21,11.54-4.6,17.69,3.61,6.16,11.54,8.22,17.69,4.6l84.44-49.57c.15-.09.23,0,.18.14-60.37,198.18,51.32,407.79,249.47,468.17,19.33,5.89,39.1,10.21,59.12,12.91.58.08,1.16.12,1.74.12,7.14.04,12.95-5.72,12.98-12.86.03-6.53-4.81-12.06-11.29-12.89v-.03Z"/>
        <path class="cls-20" d="M1465.41,791.95c.12.12.08.22-.09.22l-103.91.52c-7.14.02-12.91,5.82-12.89,12.96.02,7.14,5.82,12.91,12.95,12.89l133.11-.66c7.14,0,12.92-5.79,12.92-12.92l-.7-132.89c.28-6.86-5.06-12.65-11.92-12.92-.33-.01-.67-.01-1,0-7.14,0-12.92,5.79-12.92,12.92v.07l.49,98.37c0,.18-.09.22-.22.09-119.28-127.25-310.34-155.86-461.65-69.14-42.4,24.39-79.59,56.89-109.43,95.65-4.33,5.67-3.24,13.79,2.44,18.12,5.64,4.3,13.68,3.26,18.03-2.33,27.79-36.07,62.41-66.31,101.89-89,142.42-81.6,322.4-53.3,432.91,68.08Z"/>
      </g>
    </g>
  </g>
  <g class="cls-35">
    <g class="cls-41">
      <g>
        <path class="cls-27" d="M1603.49,1026.25c.09-48.91-9.45-97.37-28.08-142.6-2.72-6.6-10.28-9.75-16.89-7.03-6.61,2.72-9.75,10.28-7.03,16.88,73.24,178.42-12.1,382.4-190.61,455.6-19.23,7.89-39.13,14.04-59.46,18.39-.17,0-.23,0-.16-.19l51.57-91.12c3.94-5.95,2.32-13.97-3.63-17.91-5.95-3.95-13.98-2.32-17.92,3.63-.35.52-.65,1.06-.92,1.63l-65.55,115.85c-3.51,6.21-1.32,14.1,4.89,17.61,0,0,0,0,0,0l115.68,65.38c6.17,3.6,14.09,1.51,17.68-4.66,3.59-6.17,1.5-14.08-4.67-17.67-.1-.06-.19-.12-.29-.17l-85.11-48.1c-.16-.09-.13-.19,0-.23,169.77-39.85,289.96-190.98,290.49-365.28Z"/>
        <path class="cls-27" d="M1182.1,1372.09c-45.16-6.03-88.69-20.89-128.1-43.74-142.12-82.62-207.68-252.88-157.66-409.42,0-.15.16-.17.23,0l52.95,90.16c3.62,6.15,11.55,8.21,17.71,4.58,6.16-3.62,8.21-11.55,4.58-17.7l-67.4-114.79c-3.62-6.16-11.54-8.22-17.7-4.6,0,0,0,0,0,0l-114.62,67.21c-6.16,3.61-8.22,11.54-4.6,17.7,3.62,6.16,11.54,8.22,17.7,4.6l84.49-49.57c.16-.09.23,0,.18.14-60.41,198.18,51.35,407.78,249.62,468.17,19.34,5.89,39.13,10.21,59.16,12.91.58.08,1.16.12,1.75.12,7.14.04,12.96-5.72,12.99-12.86.03-6.53-4.82-12.06-11.3-12.89v-.03Z"/>
        <path class="cls-27" d="M1487.17,791.94c.12.12.08.22-.09.22l-103.98.52c-7.14.02-12.92,5.82-12.9,12.96.02,7.14,5.82,12.91,12.96,12.89l133.19-.66c7.14,0,12.93-5.79,12.93-12.93l-.7-132.89c.28-6.86-5.06-12.65-11.93-12.92-.34-.01-.67-.01-1,0-7.14,0-12.93,5.79-12.93,12.92v.07l.49,98.37c0,.18-.09.22-.22.09-119.35-127.25-310.54-155.86-461.94-69.14-42.43,24.39-79.64,56.89-109.5,95.64-4.33,5.68-3.24,13.79,2.44,18.12,5.64,4.3,13.69,3.26,18.04-2.33,27.81-36.07,62.45-66.31,101.95-89,142.51-81.6,322.6-53.3,433.18,68.08Z"/>
      </g>
    </g>
  </g>
  <g>
    <path class="cls-6" d="M1186.93,1102.56c0,16.57-13.46,29.99-30.06,29.99s-30.06-13.43-30.06-29.99,13.46-29.99,30.06-29.99,30.06,13.43,30.06,29.99Z"/>
    <path class="cls-6" d="M1371.93,1102.56c0,16.57-13.46,29.99-30.06,29.99s-30.06-13.43-30.06-29.99,13.46-29.99,30.06-29.99,30.06,13.43,30.06,29.99Z"/>
    <path class="cls-6" d="M1381.59,1024.12h-32.38c-4.12.09-8.08-1.59-10.87-4.62l-48.93-48.78c-5.65-6.46-13.59-10.48-22.15-11.21h-113.96c-8.54.82-16.45,4.82-22.15,11.21l-48.24,48.78c-3,2.96-4.67,7-4.63,11.21v25.7h-23.13c-3.83.02-6.96-3.05-6.98-6.88v-79.93c11.25-3.97,18.7-14.67,18.5-26.58v-15.83h-9.25v-18.46c0-2.55-2.07-4.61-4.63-4.61s-4.63,2.07-4.63,4.61v18.46h-13.87v-18.46c0-2.55-2.07-4.61-4.63-4.61s-4.63,2.07-4.63,4.61v18.46h-9.25v15.83c-.2,11.91,7.25,22.61,18.5,26.58v79.88c.03,11.46,9.33,20.74,20.81,20.77h23.13c.05,17.12,13.96,30.98,31.13,31.01h3.89c-.08-23.5,18.95-42.61,42.5-42.68.09,0,.19,0,.28,0,23.95.43,43.06,20.08,42.78,43.98h101.1c-.16-23.81,18.92-43.32,42.78-43.75,23.55-.08,42.7,18.91,42.78,42.41,0,.09,0,.18,0,.28h19.47c8.57-.02,15.51-6.95,15.54-15.51v-23.07c.05-21.38-17.28-38.76-38.71-38.81h-.19ZM1200.8,1024.12h-100.41l42.04-42.13c3.39-2.8,7.72-4.23,12.12-4.01h46.25v46.15ZM1214.67,1024.12v-46.15h52.96c4.05-.32,8.04,1.15,10.92,4.01l41.99,42.13h-105.87Z"/>
  </g>
  <g>
    <path class="cls-8" d="M2102.42,1096.62h-30.1v-8.91c0-6.95-5.49-12.47-12.4-12.47h-21.25c-6.91,0-12.4,5.52-12.4,12.47v8.91h-30.1c-3.9,0-7.08,3.21-7.08,7.13v7.12h120.42v-7.12c0-3.92-3.19-7.13-7.08-7.13ZM2036.9,1087.72c0-1.07.71-1.78,1.77-1.78h21.25c1.06,0,1.77.71,1.77,1.78v8.91h-24.79v-8.91Z"/>
    <path class="cls-8" d="M1999.72,1210.62c0,3.92,3.19,7.12,7.08,7.12h85c3.9,0,7.08-3.21,7.08-7.12v-92.62h-99.17v92.62ZM2072.32,1128.69h10.62v78.37h-10.62v-78.37ZM2043.99,1128.69h10.62v78.37h-10.62v-78.37ZM2015.65,1128.69h10.62v78.37h-10.62v-78.37Z"/>
  </g>
  <g class="cls-40">
    <g class="cls-38">
      <g class="cls-39">
        <g>
          <path class="cls-15" d="M2121.19,1002.35c-19.56-10.09-40.91-16.24-62.83-18.09-3.2-.27-6.01,2.11-6.28,5.31-.27,3.2,2.11,6.01,5.31,6.28,86.44,7.4,150.53,83.47,143.13,169.91-.8,9.31-2.42,18.54-4.86,27.56-.03.07-.05.09-.11.02l-25.86-39.36c-1.57-2.8-5.11-3.8-7.91-2.23-2.8,1.57-3.8,5.11-2.23,7.91.14.25.29.48.46.7l32.88,50.04c1.76,2.68,5.37,3.43,8.05,1.66,0,0,0,0,0,0l49.94-32.82c2.71-1.73,3.5-5.33,1.77-8.03s-5.32-3.5-8.03-1.77c-.04.03-.08.05-.13.08l-36.74,24.15c-.07.04-.1.01-.09-.05,18.94-76.09-16.83-155.24-86.46-191.29Z"/>
          <path class="cls-15" d="M2172.97,1242c-11.69,16.82-26.59,31.17-43.83,42.24-62.27,39.85-143.87,31.07-196.23-21.13-.06-.03-.04-.1.05-.09l46.96-2.64c3.21-.18,5.66-2.93,5.47-6.14-.18-3.21-2.93-5.66-6.14-5.47l-59.78,3.35c-3.21.18-5.66,2.92-5.48,6.13h0s3.34,59.66,3.34,59.66c.18,3.21,2.93,5.66,6.13,5.48,3.21-.18,5.66-2.93,5.48-6.13l-2.47-43.98c0-.08.05-.09.09-.04,66.88,64.91,173.72,63.31,238.63-3.57,6.33-6.52,12.13-13.55,17.33-21.01.15-.21.28-.44.41-.67,1.48-2.85.37-6.36-2.48-7.84-2.61-1.36-5.82-.55-7.48,1.87h-.01Z"/>
          <path class="cls-15" d="M2003.53,1000.7c.07-.02.1.01.07.08l-21.16,41.69c-1.46,2.86-.33,6.36,2.53,7.82,2.86,1.46,6.36.33,7.82-2.53l27.11-53.4c1.47-2.86.34-6.36-2.51-7.83l-53.32-27.05c-2.69-1.52-6.1-.58-7.62,2.11-.07.13-.14.26-.21.4-1.47,2.86-.34,6.36,2.51,7.83h.03s39.46,20.04,39.46,20.04c.07.04.07.08,0,.11-75.45,21.57-126.19,92.15-122.6,170.54,1.04,21.98,6.4,43.55,15.77,63.46,1.38,2.9,4.85,4.13,7.75,2.75,2.88-1.37,4.12-4.8,2.77-7.7-8.72-18.54-13.7-38.61-14.66-59.07-3.37-73.78,44.97-139.98,116.27-159.25Z"/>
        </g>
      </g>
    </g>
  </g>
  <g class="cls-42">
    <g class="cls-78">
      <g class="cls-83">
        <g>
          <path class="cls-22" d="M2127,1000.66c-19.5-10.09-40.9-16.24-62.8-18.09-3.2-.27-6,2.11-6.3,5.31-.3,3.2,2.1,6.01,5.3,6.28,86.5,7.4,150.6,83.47,143.2,169.91-.8,9.32-2.5,18.54-4.9,27.56,0,.07,0,.1-.1.03l-25.9-39.36c-1.5-2.8-5.1-3.8-7.9-2.23-2.8,1.57-3.8,5.11-2.2,7.91.1.25.3.48.4.7l32.9,50.04c1.8,2.68,5.4,3.43,8.1,1.66h0l49.9-32.82c2.7-1.73,3.5-5.33,1.8-8.03-1.7-2.71-5.3-3.5-8-1.77-.1.03-.1.05-.2.08l-36.7,24.15c-.1.04-.1.01-.1-.05,18.9-76.09-16.8-155.23-86.5-191.28Z"/>
          <path class="cls-22" d="M2178.8,1240.3c-11.7,16.82-26.6,31.17-43.8,42.24-62.3,39.85-143.9,31.06-196.2-21.13-.1-.03-.1-.1,0-.09l47-2.64c3.2-.19,5.6-2.94,5.4-6.14-.1-3.21-2.9-5.66-6.1-5.48l-59.8,3.36c-3.2.18-5.6,2.92-5.5,6.13h0l3.4,59.66c.2,3.21,2.9,5.66,6.1,5.48s5.7-2.93,5.5-6.13l-2.5-43.99c0-.08.1-.09.1-.04,66.9,64.91,173.7,63.31,238.7-3.57,6.3-6.53,12.1-13.55,17.3-21.01.1-.21.3-.44.4-.67,1.5-2.85.4-6.36-2.5-7.84-2.6-1.36-5.8-.56-7.5,1.87h0Z"/>
          <path class="cls-22" d="M2009.4,999s.1.02,0,.08l-21.1,41.7c-1.5,2.86-.3,6.36,2.5,7.82,2.9,1.46,6.4.33,7.8-2.53l27.2-53.41c1.4-2.86.3-6.36-2.6-7.83l-53.3-27.04c-2.7-1.53-6.1-.58-7.6,2.11-.1.13-.1.26-.2.4-1.5,2.86-.4,6.36,2.5,7.83h0s39.5,20.04,39.5,20.04c.1.04.1.08,0,.11-75.5,21.57-126.2,92.15-122.6,170.53,1,21.99,6.4,43.55,15.8,63.46,1.3,2.9,4.8,4.13,7.7,2.75,2.9-1.37,4.1-4.8,2.8-7.69-8.7-18.54-13.7-38.61-14.7-59.08-3.4-73.77,45-139.98,116.3-159.25Z"/>
        </g>
      </g>
    </g>
  </g>
  <g class="cls-77">
    <g class="cls-76">
      <g class="cls-75">
        <g>
          <path class="cls-23" d="M2131.48,991.99c-19.55-10.09-40.9-16.24-62.83-18.09-3.2-.27-6.01,2.11-6.29,5.31-.27,3.2,2.11,6.01,5.31,6.28,86.44,7.4,150.53,83.47,143.13,169.91-.8,9.31-2.42,18.54-4.86,27.56-.03.07-.05.09-.11.02l-25.86-39.36c-1.57-2.8-5.11-3.8-7.91-2.23-2.8,1.57-3.8,5.11-2.23,7.91.14.25.29.48.46.7l32.88,50.04c1.76,2.68,5.37,3.43,8.05,1.66,0,0,0,0,0,0l49.94-32.82c2.71-1.73,3.5-5.33,1.77-8.03-1.73-2.71-5.32-3.5-8.03-1.77-.04.03-.08.05-.13.08l-36.74,24.15c-.07.04-.1.01-.09-.05,18.95-76.09-16.83-155.23-86.46-191.29Z"/>
          <path class="cls-23" d="M2183.27,1231.63c-11.69,16.82-26.59,31.17-43.83,42.24-62.27,39.85-143.87,31.07-196.23-21.13-.06-.03-.03-.1.05-.09l46.96-2.64c3.21-.18,5.66-2.93,5.47-6.14-.18-3.21-2.93-5.66-6.14-5.47l-59.78,3.35c-3.21.18-5.66,2.92-5.48,6.13,0,0,0,0,0,0l3.34,59.66c.18,3.21,2.93,5.66,6.13,5.48,3.21-.18,5.66-2.93,5.48-6.13l-2.47-43.98c0-.08.05-.09.09-.04,66.88,64.91,173.72,63.31,238.63-3.57,6.33-6.52,12.12-13.55,17.32-21.01.15-.22.29-.44.41-.67,1.48-2.85.37-6.36-2.48-7.84-2.61-1.36-5.82-.55-7.48,1.87h-.01Z"/>
          <path class="cls-23" d="M2013.82,990.34c.07-.02.1.01.07.08l-21.16,41.69c-1.46,2.86-.33,6.36,2.53,7.82,2.86,1.46,6.36.33,7.82-2.53l27.11-53.41c1.47-2.86.34-6.36-2.51-7.83l-53.32-27.05c-2.69-1.52-6.1-.58-7.62,2.11-.07.13-.14.26-.21.4-1.47,2.86-.34,6.36,2.51,7.83h.03s39.46,20.04,39.46,20.04c.07.04.07.08,0,.11-75.44,21.57-126.19,92.15-122.6,170.54,1.04,21.98,6.4,43.55,15.77,63.46,1.38,2.9,4.85,4.13,7.75,2.75,2.88-1.37,4.12-4.8,2.77-7.7-8.72-18.54-13.7-38.61-14.66-59.07-3.37-73.77,44.97-139.98,116.26-159.25Z"/>
        </g>
      </g>
    </g>
  </g>
  <g class="cls-79">
    <g class="cls-81">
      <g>
        <path class="cls-14" d="M1573.24,1015.49c.09-48.84-9.44-97.21-28.03-142.37-2.72-6.59-10.26-9.73-16.85-7.02-6.59,2.71-9.74,10.26-7.02,16.85,73.09,178.13-12.08,381.78-190.22,454.86-19.19,7.87-39.05,14.02-59.34,18.36-.17,0-.23,0-.15-.19l51.47-90.97c3.94-5.94,2.31-13.95-3.63-17.89-5.94-3.94-13.95-2.31-17.89,3.63-.35.52-.65,1.06-.92,1.63l-65.42,115.66c-3.51,6.2-1.32,14.08,4.88,17.58,0,0,0,0,0,0l115.45,65.28c6.16,3.59,14.06,1.5,17.65-4.66,3.59-6.15,1.5-14.05-4.66-17.64-.1-.06-.19-.11-.29-.16l-84.94-48.03c-.15-.09-.13-.19,0-.23,169.43-39.78,289.37-190.67,289.9-364.69Z"/>
        <path class="cls-14" d="M1152.7,1360.77c-45.07-6.02-88.51-20.86-127.84-43.67-141.83-82.49-207.26-252.47-157.34-408.75,0-.15.16-.17.23,0l52.85,90.02c3.62,6.14,11.53,8.19,17.67,4.58,6.14-3.62,8.19-11.53,4.58-17.67l-67.26-114.6c-3.61-6.15-11.52-8.2-17.66-4.6,0,0,0,0,0,0l-114.39,67.1c-6.15,3.61-8.2,11.52-4.59,17.66,3.61,6.15,11.52,8.2,17.67,4.59l84.32-49.49c.15-.09.23,0,.18.14-60.29,197.85,51.24,407.12,249.12,467.4,19.3,5.88,39.05,10.19,59.04,12.89.58.08,1.16.12,1.74.12,7.13.04,12.93-5.71,12.97-12.84.03-6.52-4.81-12.04-11.28-12.86v-.03Z"/>
        <path class="cls-14" d="M1457.16,781.57c.12.12.08.22-.09.22l-103.77.52c-7.13.02-12.89,5.81-12.87,12.94.02,7.13,5.81,12.89,12.94,12.87l132.92-.66c7.13,0,12.9-5.78,12.9-12.9l-.7-132.68c.28-6.85-5.05-12.63-11.9-12.9-.33-.01-.67-.01-1,0-7.13,0-12.91,5.78-12.91,12.9v.06l.49,98.21c0,.18-.09.22-.22.09-119.11-127.04-309.91-155.6-461.01-69.02-42.34,24.35-79.48,56.79-109.28,95.49-4.32,5.67-3.23,13.76,2.43,18.09,5.63,4.29,13.66,3.25,18.01-2.33,27.75-36.01,62.32-66.21,101.74-88.86,142.22-81.47,321.96-53.21,432.31,67.96Z"/>
      </g>
    </g>
  </g>
  <g class="cls-80">
    <g class="cls-84">
      <g>
        <path class="cls-15" d="M1573.59,1015.49c.09-48.84-9.47-97.21-28.13-142.37-2.72-6.59-10.3-9.73-16.91-7.02-6.62,2.71-9.77,10.26-7.04,16.85,73.34,178.13-12.12,381.78-190.87,454.86-19.26,7.87-39.18,14.02-59.54,18.36-.17,0-.23,0-.16-.19l51.64-90.97c3.95-5.94,2.32-13.95-3.64-17.89-5.96-3.94-14-2.31-17.95,3.63-.35.52-.65,1.06-.92,1.63l-65.64,115.66c-3.52,6.2-1.33,14.08,4.9,17.58,0,0,0,0,0,0l115.84,65.28c6.18,3.59,14.11,1.5,17.71-4.66,3.6-6.15,1.51-14.05-4.67-17.64-.1-.06-.19-.11-.29-.16l-85.23-48.03c-.16-.09-.13-.19,0-.23,170-39.78,290.36-190.67,290.89-364.69Z"/>
        <path class="cls-15" d="M1151.62,1360.77c-45.22-6.02-88.81-20.86-128.27-43.67-142.32-82.49-207.97-252.47-157.88-408.75,0-.15.16-.17.23,0l53.03,90.02c3.63,6.14,11.57,8.19,17.73,4.58,6.17-3.62,8.22-11.53,4.59-17.67l-67.49-114.6c-3.62-6.15-11.55-8.2-17.72-4.6,0,0,0,0,0,0l-114.78,67.1c-6.17,3.61-8.23,11.52-4.61,17.66,3.62,6.15,11.56,8.2,17.73,4.59l84.61-49.49c.15-.09.23,0,.18.14-60.5,197.85,51.42,407.12,249.97,467.4,19.37,5.88,39.18,10.19,59.24,12.89.58.08,1.17.12,1.75.12,7.15.04,12.98-5.71,13.01-12.84.03-6.52-4.82-12.04-11.31-12.86v-.03Z"/>
        <path class="cls-15" d="M1457.11,781.57c.12.12.08.22-.09.22l-104.12.52c-7.15.02-12.93,5.81-12.92,12.94.02,7.13,5.83,12.89,12.98,12.87l133.38-.66c7.15,0,12.95-5.78,12.95-12.9l-.7-132.68c.28-6.85-5.07-12.63-11.94-12.9-.34-.01-.67-.01-1,0-7.15,0-12.95,5.78-12.95,12.9v.06l.49,98.21c0,.18-.09.22-.22.09-119.52-127.04-310.96-155.6-462.58-69.02-42.49,24.35-79.75,56.79-109.65,95.49-4.34,5.67-3.24,13.76,2.44,18.09,5.65,4.29,13.7,3.25,18.07-2.33,27.84-36.01,62.53-66.21,102.09-88.86,142.71-81.47,323.05-53.21,433.78,67.96Z"/>
      </g>
    </g>
  </g>
  <path class="cls-15" d="M1847.9,1105.25l-241.4-23.5c-2.5-.24-4.4-2.48-4.1-5,.2-2.52,2.4-4.36,5-4.12l241.4,23.49c2.5.25,4.4,2.49,4.1,5.01-.2,2.52-2.5,4.36-5,4.12ZM1628.8,1105.88l-29-29.38,34.1-23.24c2.1-1.43,5-.89,6.4,1.21,1.4,2.09.9,4.94-1.2,6.36l-29.6,20.15.7-7.01,25.1,25.47c1.8,1.81,1.8,4.71,0,6.49-1.8,1.77-4.7,1.76-6.5-.05Z"/>
  <text class="cls-7" transform="translate(1657.2 1061) rotate(5.86)"><tspan x="0" y="0">2045</tspan></text>
  <text class="cls-7" transform="translate(1001.4 208) rotate(-61.1)"><tspan x="0" y="0">2040</tspan></text>
  <text class="cls-7" transform="translate(1306.5 49) rotate(49.35)"><tspan x="0" y="0">2015</tspan></text>
  <text class="cls-7" transform="translate(1720.2 218)"><tspan x="0" y="0">2055</tspan></text>
  <text class="cls-7" transform="translate(1987.8 587) rotate(-63.69)"><tspan x="0" y="0">2035</tspan></text>
  <text class="cls-7" transform="translate(1966.9 1388)"><tspan x="0" y="0">2035</tspan></text>
  <text class="cls-7" transform="translate(2143.3 964) rotate(49.41)"><tspan x="0" y="0">2060</tspan></text>
  <g class="cls-82">
    <g class="cls-43">
      <g class="cls-44">
        <g>
          <path class="cls-10" d="M447.85,1314.25c20.11-8.93,38.27-21.74,53.44-37.68,2.21-2.33,2.12-6.01-.21-8.22-2.33-2.21-6.01-2.12-8.22.21-59.88,62.78-159.32,65.14-222.1,5.26-6.76-6.45-12.94-13.49-18.45-21.04-.03-.07-.04-.1.05-.1l46.88,4.47c3.17.53,6.16-1.61,6.69-4.78.53-3.17-1.61-6.16-4.78-6.69-.28-.05-.56-.07-.84-.08l-59.6-5.68c-3.2-.3-6.04,2.04-6.34,5.24,0,0,0,0,0,0l-5.66,59.49c-.34,3.19,1.96,6.06,5.16,6.41s6.06-1.96,6.4-5.16c0-.05.01-.1.01-.15l4.17-43.77c0-.08.06-.09.1-.04,47.48,62.4,131.6,84.05,203.3,52.31Z"/>
          <path class="cls-10" d="M228.55,1204.63c-5.8-19.65-7.67-40.25-5.5-60.62,7.9-73.51,65.83-131.64,139.31-139.8.06-.03.1.03.04.1l-27.34,38.27c-1.86,2.62-1.25,6.25,1.36,8.11,2.62,1.86,6.25,1.25,8.11-1.36l34.81-48.72c1.87-2.61,1.26-6.24-1.35-8.11h0s-48.62-34.75-48.62-34.75c-2.61-1.87-6.25-1.26-8.11,1.35-1.87,2.61-1.26,6.25,1.35,8.11l35.85,25.61c.07.05.04.1-.03.1-92.49,11.53-158.12,95.85-146.59,188.34,1.12,9.02,2.98,17.94,5.54,26.66.07.25.17.5.27.74,1.29,2.94,4.73,4.27,7.66,2.98,2.69-1.18,4.07-4.19,3.22-7h.01Z"/>
          <path class="cls-10" d="M522.8,1223.53c-.03.07-.08.07-.11,0l-19.27-42.6c-1.32-2.93-4.76-4.24-7.69-2.92-2.93,1.32-4.24,4.76-2.92,7.69l24.68,54.57c1.31,2.93,4.75,4.25,7.68,2.94l54.47-24.65c2.87-1.14,4.27-4.4,3.12-7.27-.06-.14-.12-.28-.18-.41-1.31-2.93-4.75-4.25-7.68-2.94h-.03s-40.32,18.25-40.32,18.25c-.07.03-.11,0-.08-.07,30.41-72.34,7.13-156.09-56.25-202.36-17.79-12.95-37.96-22.27-59.36-27.43-3.13-.74-6.26,1.2-7,4.32-.73,3.1,1.17,6.22,4.27,6.98,19.91,4.81,38.69,13.49,55.25,25.55,59.64,43.56,81.01,122.7,51.42,190.36Z"/>
        </g>
      </g>
    </g>
  </g>
  <g class="cls-47">
    <g class="cls-46">
      <g class="cls-45">
        <g>
          <path class="cls-18" d="M445.5,1319.85c20.1-8.93,38.3-21.74,53.4-37.68,2.2-2.33,2.2-6.01-.2-8.22-2.3-2.22-6-2.12-8.2.21-59.9,62.78-159.3,65.13-222.1,5.26-6.8-6.45-12.9-13.5-18.4-21.04-.1-.07-.1-.1,0-.1l46.9,4.47c3.2.52,6.2-1.61,6.7-4.78.5-3.17-1.6-6.16-4.8-6.69-.3-.05-.6-.08-.8-.08l-59.6-5.68c-3.2-.3-6.1,2.04-6.4,5.24h0l-5.6,59.49c-.4,3.2,1.9,6.06,5.1,6.41,3.2.34,6.1-1.97,6.4-5.16v-.15l4.2-43.77c0-.08.1-.09.1-.04,47.5,62.4,131.6,84.05,203.3,52.31Z"/>
          <path class="cls-18" d="M226.2,1210.23c-5.8-19.65-7.7-40.25-5.5-60.62,7.9-73.51,65.8-131.64,139.3-139.8.1-.03.1.03,0,.09l-27.3,38.28c-1.9,2.61-1.2,6.25,1.4,8.11,2.6,1.86,6.2,1.25,8.1-1.36l34.8-48.72c1.9-2.62,1.2-6.25-1.4-8.11h0s-48.6-34.75-48.6-34.75c-2.6-1.87-6.2-1.26-8.1,1.35-1.9,2.62-1.3,6.25,1.4,8.12l35.8,25.6c.1.05,0,.1,0,.1-92.5,11.53-158.1,95.85-146.6,188.34,1.1,9.02,3,17.93,5.5,26.66.1.25.2.5.3.73,1.3,2.94,4.7,4.28,7.7,2.98,2.7-1.18,4-4.19,3.2-7Z"/>
          <path class="cls-18" d="M520.4,1229.13q0,.07-.1,0l-19.2-42.6c-1.4-2.93-4.8-4.23-7.7-2.92-3,1.32-4.3,4.76-2.9,7.69l24.6,54.57c1.3,2.93,4.8,4.25,7.7,2.94l54.5-24.65c2.9-1.15,4.2-4.4,3.1-7.27-.1-.14-.1-.28-.2-.41-1.3-2.93-4.7-4.25-7.7-2.94h0s-40.3,18.25-40.3,18.25c-.1.03-.1,0-.1-.08,30.4-72.33,7.1-156.08-56.2-202.35-17.8-12.96-38-22.28-59.4-27.43-3.1-.74-6.2,1.19-7,4.32-.7,3.1,1.2,6.22,4.3,6.98,19.9,4.81,38.7,13.49,55.2,25.55,59.7,43.55,81,122.69,51.4,190.35Z"/>
        </g>
      </g>
    </g>
  </g>
  <g class="cls-48">
    <g class="cls-61">
      <g class="cls-59">
        <g>
          <path class="cls-12" d="M449.45,1328.75c20.11-8.93,38.27-21.73,53.44-37.68,2.21-2.33,2.12-6.01-.21-8.22-2.33-2.21-6.01-2.12-8.22.21-59.88,62.78-159.32,65.14-222.1,5.26-6.76-6.45-12.94-13.49-18.45-21.04-.03-.07-.04-.1.05-.1l46.88,4.47c3.17.53,6.16-1.61,6.69-4.78.53-3.17-1.61-6.16-4.78-6.69-.28-.05-.56-.07-.84-.08l-59.6-5.68c-3.2-.3-6.04,2.04-6.34,5.24,0,0,0,0,0,0l-5.66,59.49c-.34,3.19,1.96,6.06,5.16,6.4,3.19.34,6.06-1.96,6.4-5.16,0-.05.01-.1.01-.15l4.17-43.77c0-.08.06-.09.1-.04,47.48,62.4,131.59,84.05,203.3,52.31Z"/>
          <path class="cls-12" d="M230.15,1219.12c-5.8-19.65-7.67-40.25-5.51-60.62,7.9-73.51,65.83-131.64,139.31-139.8.06-.03.1.03.04.1l-27.34,38.27c-1.86,2.62-1.25,6.25,1.36,8.11,2.62,1.86,6.25,1.25,8.11-1.36l34.81-48.72c1.87-2.61,1.26-6.24-1.35-8.11,0,0,0,0,0,0l-48.62-34.74c-2.61-1.87-6.25-1.26-8.11,1.35-1.87,2.61-1.26,6.25,1.35,8.11l35.85,25.61c.07.05.04.1-.03.1-92.49,11.53-158.12,95.85-146.59,188.33,1.12,9.02,2.98,17.94,5.54,26.66.07.25.16.5.27.74,1.29,2.94,4.73,4.27,7.66,2.98,2.69-1.18,4.07-4.19,3.22-7h.01Z"/>
          <path class="cls-12" d="M524.4,1238.03c-.03.07-.08.07-.11,0l-19.27-42.6c-1.32-2.93-4.76-4.24-7.69-2.92-2.93,1.32-4.24,4.76-2.92,7.69l24.68,54.57c1.31,2.93,4.75,4.25,7.68,2.94l54.47-24.65c2.87-1.14,4.27-4.4,3.12-7.27-.06-.14-.12-.28-.18-.41-1.31-2.93-4.75-4.25-7.68-2.94h-.03s-40.32,18.25-40.32,18.25c-.07.03-.11,0-.08-.07,30.4-72.34,7.13-156.09-56.25-202.36-17.79-12.95-37.96-22.27-59.36-27.43-3.13-.74-6.26,1.2-7,4.32-.73,3.1,1.17,6.22,4.27,6.98,19.91,4.81,38.69,13.49,55.25,25.55,59.64,43.56,81.01,122.7,51.41,190.36Z"/>
        </g>
      </g>
    </g>
  </g>
  <g>
    <path class="cls-4" d="M485.75,1134.91c-.14-2.01-1.6-3.68-3.57-4.08l-23.68-4.84c-1.47-.31-3,.15-4.06,1.22l-4.78,4.78-31.8-31.8c-.38,6.52-3.9,12.44-9.44,15.9l28.57,28.57-4.62,4.62c-1.05,1.05-1.51,2.55-1.23,4.01l4.58,23.93c.38,2,2.07,3.49,4.1,3.63l23.75,1.58c.1,0,.2.01.3.01,2.47.08,4.54-1.86,4.63-4.33.08-2.47-1.86-4.54-4.33-4.62l-20.3-1.34-3.48-18.2,18.69-18.69,17.97,3.66,1.36,20.34c.16,2.47,2.3,4.34,4.77,4.17,2.47-.16,4.34-2.3,4.18-4.77l-1.6-23.75Z"/>
    <path class="cls-4" d="M377.47,1166.09c0-7.2-2.06-14.25-5.93-20.32l-15.8,18.88c-8.18,9.8-22.75,11.12-32.55,2.94-9.8-8.18-11.12-22.75-2.94-32.55.89-1.07,1.87-2.05,2.94-2.94l.58-.49c-13.5,6.16-22.17,19.63-22.17,34.48v42.68h75.88v-42.68Z"/>
    <path class="cls-4" d="M377.6,1099.03c0-1.36.14-2.72.41-4.06l-50.53,42.28c-6.94,5.81-7.85,16.15-2.04,23.09,5.81,6.94,16.15,7.85,23.09,2.04.74-.62,1.42-1.3,2.04-2.04l36.85-44.04c-6.08-3.63-9.82-10.19-9.83-17.28ZM343.84,1150.33c-1.75,1.75-4.59,1.75-6.33,0-1.75-1.75-1.75-4.58,0-6.33,1.75-1.75,4.59-1.75,6.33,0,0,0,0,0,0,0,1.75,1.75,1.75,4.58,0,6.33Z"/>
    <path class="cls-4" d="M377.6,1217.73h-76.15c-4.95,0-8.96,4.01-8.96,8.96v8.96h94.06v-8.96c0-4.95-4.01-8.96-8.96-8.96Z"/>
    <path class="cls-4" d="M397.76,1085.59c-7.42,0-13.44,6.02-13.44,13.44s6.02,13.44,13.44,13.44,13.44-6.02,13.44-13.44-6.02-13.44-13.44-13.44ZM397.76,1102.39c-1.86,0-3.36-1.5-3.36-3.36s1.5-3.36,3.36-3.36,3.36,1.5,3.36,3.36-1.5,3.36-3.36,3.36Z"/>
  </g>
  <path class="cls-26" d="M561.35,1092.43l259.68-31.52c2.51-.31,4.3-2.59,4-5.1-.3-2.51-2.59-4.3-5.1-4l-259.68,31.52c-2.51.31-4.3,2.59-4,5.1.31,2.51,2.59,4.3,5.1,4ZM799.27,1085.56l28.31-30.07-34.68-22.42c-2.13-1.37-4.96-.77-6.34,1.36-1.38,2.13-.77,4.96,1.36,6.34l30.06,19.44-.85-6.99-24.54,26.06h0c-1.74,1.84-1.65,4.74.2,6.48,1.84,1.74,4.74,1.65,6.48-.2Z"/>
  <text class="cls-7" transform="translate(586.9 1064) rotate(-6.93)"><tspan x="0" y="0">2025</tspan></text>
  <text class="cls-7" transform="translate(285 1402)"><tspan x="0" y="0">2030</tspan></text>
  <text class="cls-7" transform="translate(181.5 1146) rotate(-58.78)"><tspan x="0" y="0">2015</tspan></text>
  <path class="cls-29" d="M205.3,1230.16l40.68-14.16"/>
  <path class="cls-31" d="M1191.8,1433.32v-90.82"/>
  <g class="cls-60">
    <g class="cls-62">
      <g class="cls-70">
        <g>
          <path class="cls-21" d="M526.09,563.58c18.43,12.03,39.04,20.32,60.67,24.39,3.16.59,6.2-1.48,6.79-4.64.59-3.16-1.48-6.2-4.64-6.79-85.24-16.15-141.25-98.35-125.1-183.6,1.74-9.18,4.3-18.19,7.64-26.92.04-.06.06-.09.11-.01l21.72,41.79c1.28,2.95,4.7,4.3,7.65,3.02,2.95-1.28,4.3-4.7,3.02-7.65-.11-.26-.24-.51-.39-.75l-27.62-53.12c-1.48-2.85-4.99-3.96-7.84-2.48,0,0,0,0,0,0l-53.02,27.57c-2.87,1.45-4.02,4.94-2.58,7.81s4.94,4.02,7.81,2.57c.04-.02.09-.05.13-.07l39.01-20.28c.07-.04.11,0,.09.06-26.59,73.77.95,156.14,66.55,199.09Z"/>
          <path class="cls-21" d="M498.96,319.91c13.35-15.54,29.62-28.31,47.9-37.56,66-33.31,146.28-16.26,193.06,40.99.06.04.03.1-.06.09l-46.99-2.15c-3.21-.14-5.93,2.34-6.07,5.55-.14,3.21,2.34,5.93,5.55,6.07l59.81,2.75c3.21.15,5.93-2.33,6.07-5.54h0s2.75-59.69,2.75-59.69c.15-3.21-2.34-5.93-5.54-6.08-3.21-.15-5.93,2.34-6.08,5.54l-2.02,44.01c0,.08-.06.09-.1.03-59.93-71.38-166.38-80.66-237.76-20.73-6.96,5.85-13.44,12.24-19.37,19.13-.17.2-.33.41-.47.63-1.76,2.68-1.02,6.29,1.67,8.05,2.45,1.61,5.73,1.14,7.63-1.1h.01Z"/>
          <path class="cls-21" d="M642.97,577.21c-.07.01-.1-.02-.06-.09l25.3-39.32c1.74-2.7.97-6.3-1.72-8.04-2.7-1.74-6.3-.97-8.04,1.72l-32.4,50.37c-1.75,2.69-.99,6.29,1.7,8.04l50.29,32.33c2.52,1.79,6.01,1.19,7.8-1.33.09-.12.17-.25.25-.38,1.75-2.69.99-6.29-1.71-8.04l-.02-.02-37.22-23.94c-.07-.04-.06-.09.02-.11,77.25-13.78,134.91-78.83,139.32-157.18,1.2-21.97-1.93-43.97-9.23-64.74-1.08-3.03-4.41-4.6-7.43-3.52-3,1.07-4.58,4.36-3.54,7.37,6.79,19.33,9.7,39.81,8.57,60.26-4.16,73.73-58.98,134.68-131.87,146.6Z"/>
        </g>
      </g>
    </g>
  </g>
  <g class="cls-72">
    <g class="cls-69">
      <g class="cls-68">
        <g>
          <path class="cls-16" d="M520.1,564.68c18.5,12.03,39.1,20.32,60.7,24.39,3.1.59,6.2-1.49,6.8-4.64.6-3.16-1.5-6.2-4.7-6.8-85.2-16.15-141.2-98.35-125.1-183.59,1.8-9.18,4.3-18.19,7.7-26.92,0-.07,0-.09.1-.01l21.7,41.79c1.3,2.94,4.7,4.3,7.7,3.02,2.9-1.28,4.3-4.7,3-7.65-.1-.26-.3-.5-.4-.74l-27.6-53.12c-1.5-2.85-5-3.96-7.9-2.48h0l-53,27.57c-2.9,1.45-4,4.94-2.6,7.81,1.5,2.87,5,4.02,7.8,2.58.1-.03.1-.05.2-.07l39-20.29c.1-.03.1,0,.1.06-26.6,73.77.9,156.14,66.5,199.09Z"/>
          <path class="cls-16" d="M493,321.01c13.3-15.54,29.6-28.3,47.9-37.56,66-33.3,146.3-16.26,193.1,40.99,0,.04,0,.1-.1.09l-47-2.15c-3.2-.15-5.9,2.34-6.1,5.55-.1,3.21,2.4,5.92,5.6,6.07l59.8,2.74c3.2.15,5.9-2.33,6.1-5.54h0l2.7-59.69c.2-3.21-2.3-5.93-5.5-6.08-3.2-.14-5.9,2.34-6.1,5.55l-2,44.01c0,.08-.1.08-.1.03-59.9-71.38-166.4-80.66-237.8-20.73-6.9,5.85-13.4,12.24-19.3,19.13-.2.2-.4.41-.5.63-1.8,2.69-1,6.29,1.7,8.06,2.4,1.61,5.7,1.14,7.6-1.1Z"/>
          <path class="cls-16" d="M637,578.3c-.1.02-.1-.02-.1-.09l25.3-39.32c1.8-2.7,1-6.3-1.7-8.04s-6.3-.97-8,1.72l-32.4,50.37c-1.8,2.7-1,6.3,1.7,8.05l50.3,32.33c2.5,1.79,6,1.19,7.8-1.33.1-.12.1-.25.2-.38,1.8-2.69,1-6.29-1.7-8.04v-.02l-37.2-23.94c-.1-.04-.1-.09,0-.1,77.2-13.78,134.9-78.83,139.3-157.18,1.2-21.97-1.9-43.97-9.2-64.73-1.1-3.03-4.4-4.6-7.5-3.53-3,1.08-4.5,4.37-3.5,7.38,6.8,19.33,9.7,39.8,8.6,60.26-4.2,73.73-59,134.68-131.9,146.59Z"/>
        </g>
      </g>
    </g>
  </g>
  <g class="cls-63">
    <g class="cls-64">
      <g class="cls-65">
        <g>
          <path class="cls-25" d="M514.79,572.84c18.43,12.03,39.04,20.32,60.66,24.39,3.16.59,6.2-1.48,6.79-4.64.59-3.16-1.49-6.2-4.64-6.79-85.24-16.15-141.25-98.35-125.1-183.59,1.74-9.18,4.3-18.19,7.64-26.92.04-.06.06-.09.11-.01l21.72,41.79c1.28,2.95,4.7,4.3,7.65,3.02,2.95-1.28,4.3-4.7,3.02-7.65-.11-.26-.24-.51-.39-.75l-27.62-53.12c-1.48-2.85-4.99-3.96-7.84-2.48,0,0,0,0,0,0l-53.02,27.57c-2.87,1.45-4.02,4.94-2.57,7.81,1.45,2.87,4.94,4.02,7.81,2.57.04-.02.09-.04.13-.07l39.01-20.28c.07-.04.11,0,.09.06-26.59,73.77.94,156.14,66.55,199.09Z"/>
          <path class="cls-25" d="M487.66,329.18c13.34-15.54,29.62-28.31,47.9-37.56,66-33.31,146.28-16.26,193.06,40.99.06.04.02.1-.06.09l-46.99-2.15c-3.21-.14-5.93,2.34-6.07,5.55-.14,3.21,2.34,5.93,5.55,6.07l59.81,2.75c3.21.15,5.93-2.33,6.07-5.54,0,0,0,0,0,0l2.75-59.69c.15-3.21-2.34-5.93-5.54-6.08-3.21-.15-5.93,2.34-6.08,5.54l-2.02,44.01c0,.08-.06.09-.1.03-59.93-71.38-166.38-80.66-237.76-20.73-6.96,5.85-13.44,12.24-19.37,19.13-.17.2-.33.41-.47.63-1.76,2.68-1.02,6.29,1.67,8.05,2.46,1.61,5.73,1.14,7.63-1.1h.01Z"/>
          <path class="cls-25" d="M631.67,586.46c-.07.02-.1-.02-.06-.09l25.3-39.32c1.74-2.7.97-6.3-1.72-8.04-2.7-1.74-6.3-.97-8.04,1.73l-32.4,50.37c-1.75,2.69-.99,6.29,1.7,8.04l50.29,32.33c2.52,1.79,6.01,1.19,7.8-1.33.09-.12.17-.25.25-.38,1.75-2.69.99-6.29-1.7-8.04l-.02-.02-37.22-23.94c-.07-.04-.06-.09.02-.11,77.25-13.78,134.91-78.83,139.32-157.17,1.2-21.97-1.93-43.97-9.23-64.74-1.08-3.03-4.41-4.6-7.43-3.52-3,1.07-4.58,4.36-3.54,7.37,6.79,19.33,9.7,39.81,8.57,60.26-4.16,73.73-58.98,134.68-131.87,146.59Z"/>
        </g>
      </g>
    </g>
  </g>
  <g>
    <path class="cls-5" d="M682.48,494.94c-6.32-14.58-18.44-47.92-13.5-79.72.22-1.55-.86-3-2.41-3.22-.14-.02-.28-.03-.42-.03h-22.93c-1.86,35.42,12.51,70.68,18.13,82.96h-6.23c-7.24-16.4-22.46-56.84-16.32-95.25.27-1.55-.77-3.02-2.32-3.29-.16-.03-.32-.04-.48-.04h-57.02c-1.57,0-2.84,1.28-2.84,2.85,0,.16.01.32.04.48,6.14,38.41-9.08,78.85-16.32,95.25h-6.23c5.62-12.29,19.98-47.55,18.13-82.96h-23.21c-1.57,0-2.85,1.26-2.85,2.83,0,.14,0,.28.03.41,4.93,31.8-7.19,65.14-13.5,79.72h-11.14v7.58h174.42v-7.58h-13.02Z"/>
    <path class="cls-5" d="M613.82,384.6c1.41-2.31,4.43-3.05,6.74-1.64l1.4.85c7.71,4.69,17.77,2.25,22.47-5.47,0,0,0,0,0,0,1.41-2.31,4.43-3.05,6.74-1.64,8.95,5.71,20.83,3.09,26.54-5.85,5.31-9.18,2.19-20.93-6.98-26.25-6.23-3.87-14.1-3.95-20.41-.22-.93-.94-1.97-1.76-3.1-2.45-7.36-4.69-17.12-2.54-21.83,4.81-1.82,3-2.53,6.54-2,10.01-5.42.69-10.24,3.81-13.08,8.48l-3.47,5.7c-.27-.02-.54-.08-.82-.08-5.01,0-9.08,4.06-9.08,9.08s4.06,9.08,9.08,9.08c2,0,3.94-.68,5.52-1.91.81-.52,1.49-1.22,2-2.04l.29-.45Z"/>
  </g>
  <path class="cls-24" d="M596.05,489.95l9.62-31.99h-14.87l7.37-38.7h22.01l-9.26,28.32h14.87l-29.75,42.36Z"/>
  <path class="cls-26" d="M755.1,545.55l215.3,127.07c2.2,1.29,2.9,4.1,1.6,6.28-1.3,2.18-4.1,2.9-6.2,1.61l-215.3-127.06c-2.2-1.29-2.9-4.1-1.6-6.28,1.2-2.18,4-2.9,6.2-1.62ZM960.4,641.31l13.9,38.89-40.8,6.65c-2.5.4-4.9-1.29-5.3-3.79-.4-2.5,1.3-4.85,3.8-5.26l35.4-5.76-3.6,6.07-12.1-33.72c-.8-2.38.4-5,2.8-5.85,2.4-.86,5,.39,5.9,2.77Z"/>
  <text class="cls-7" transform="translate(792.7 547) rotate(30.21)"><tspan x="0" y="0">2030</tspan></text>
  <text class="cls-7" transform="translate(354.3 499) rotate(51.02)"><tspan x="0" y="0">2035</tspan></text>
  <text class="cls-7" transform="translate(524.8 244)"><tspan x="0" y="0">1995</tspan></text>
  <path class="cls-28" d="M463.8,316.51l36.61,22.7"/>
  <g class="cls-66">
    <g class="cls-71">
      <g>
        <path class="cls-14" d="M1043.23,221.97c-.04,22.05,4.25,43.88,12.63,64.27,1.22,2.98,4.63,4.4,7.6,3.17,2.97-1.23,4.39-4.63,3.16-7.61-32.95-80.41,5.44-172.34,85.74-205.34,8.65-3.55,17.6-6.33,26.75-8.29.08,0,.1,0,.07.09l-23.2,41.07c-1.77,2.68-1.04,6.3,1.63,8.07,2.68,1.78,6.29,1.05,8.06-1.64.16-.23.29-.48.41-.73l29.49-52.21c1.58-2.8.6-6.35-2.2-7.94,0,0,0,0,0,0l-52.04-29.47c-2.78-1.62-6.34-.68-7.95,2.1-1.62,2.78-.68,6.35,2.1,7.96.04.03.09.05.13.07l38.29,21.68c.07.04.06.09,0,.1-76.37,17.96-130.44,86.07-130.67,164.63Z"/>
        <path class="cls-14" d="M1232.79,66.1c20.32,2.72,39.9,9.42,57.63,19.71,63.93,37.24,93.43,113.97,70.92,184.52,0,.07-.07.08-.1,0l-23.82-40.64c-1.63-2.77-5.2-3.7-7.97-2.07-2.77,1.63-3.69,5.2-2.06,7.98l30.32,51.73c1.63,2.77,5.19,3.7,7.96,2.07,0,0,0,0,0,0l51.56-30.29c2.77-1.63,3.7-5.2,2.07-7.97-1.63-2.77-5.19-3.7-7.96-2.07l-38.01,22.34c-.07.04-.11,0-.08-.06,27.18-89.32-23.1-183.78-112.29-211-8.7-2.65-17.6-4.6-26.61-5.82-.26-.04-.52-.05-.79-.05-3.21-.02-5.83,2.58-5.85,5.8-.01,2.94,2.17,5.44,5.08,5.81h0Z"/>
        <path class="cls-14" d="M1095.55,327.57c-.05-.05-.03-.1.04-.1l46.77-.23c3.21,0,5.81-2.62,5.8-5.84,0-3.22-2.62-5.82-5.83-5.81l-59.92.3c-3.21,0-5.82,2.61-5.82,5.83l.31,59.89c-.12,3.09,2.28,5.7,5.37,5.83.15,0,.3,0,.45,0,3.21,0,5.82-2.61,5.82-5.83v-.03l-.22-44.34c0-.08.04-.1.1-.04,53.69,57.35,139.7,70.24,207.81,31.16,19.09-10.99,35.82-25.64,49.26-43.11,1.95-2.56,1.46-6.21-1.1-8.16-2.54-1.94-6.16-1.47-8.12,1.05-12.51,16.26-28.09,29.89-45.86,40.11-64.11,36.78-145.12,24.02-194.87-30.68Z"/>
      </g>
    </g>
  </g>
  <g class="cls-67">
    <g class="cls-51">
      <g>
        <path class="cls-19" d="M1039.23,217.4c-.04,21.98,4.25,43.76,12.61,64.08,1.22,2.97,4.62,4.38,7.59,3.16,2.97-1.22,4.38-4.62,3.16-7.59-32.89-80.18,5.44-171.85,85.61-204.74,8.64-3.54,17.58-6.31,26.7-8.27.08,0,.1,0,.07.09l-23.16,40.95c-1.77,2.67-1.04,6.28,1.63,8.05,2.67,1.77,6.28,1.04,8.05-1.63.15-.23.29-.48.41-.73l29.44-52.06c1.58-2.79.6-6.34-2.2-7.92,0,0,0,0,0,0l-51.96-29.38c-2.77-1.61-6.33-.68-7.94,2.1-1.61,2.77-.68,6.33,2.1,7.94.04.03.09.05.13.07l38.23,21.62c.07.04.06.09,0,.1-76.25,17.91-130.24,85.83-130.47,164.15Z"/>
        <path class="cls-19" d="M1228.5,61.98c20.28,2.71,39.83,9.39,57.54,19.66,63.84,37.13,93.28,113.64,70.81,183.99,0,.07-.07.08-.1,0l-23.78-40.52c-1.63-2.77-5.19-3.69-7.96-2.06-2.76,1.63-3.69,5.19-2.06,7.95l30.27,51.58c1.62,2.77,5.18,3.69,7.95,2.07,0,0,0,0,0,0l51.48-30.2c2.77-1.62,3.69-5.19,2.07-7.95-1.62-2.77-5.19-3.69-7.95-2.07l-37.95,22.28c-.07.04-.1,0-.08-.06,27.13-89.06-23.06-183.25-112.12-210.39-8.69-2.65-17.57-4.59-26.57-5.8-.26-.04-.52-.05-.78-.05-3.21-.02-5.82,2.57-5.84,5.78-.01,2.94,2.16,5.42,5.08,5.79h0Z"/>
        <path class="cls-19" d="M1091.47,322.69c-.05-.05-.03-.1.04-.1l46.7-.23c3.21,0,5.8-2.62,5.79-5.82,0-3.21-2.62-5.8-5.82-5.79l-59.82.3c-3.21,0-5.81,2.6-5.81,5.81l.31,59.72c-.12,3.08,2.27,5.68,5.36,5.81.15,0,.3,0,.45,0,3.21,0,5.81-2.6,5.81-5.81v-.03l-.22-44.21c0-.08.04-.1.1-.04,53.61,57.18,139.48,70.04,207.48,31.07,19.06-10.96,35.77-25.56,49.18-42.98,1.95-2.55,1.46-6.2-1.1-8.14-2.53-1.93-6.15-1.46-8.1,1.05-12.49,16.21-28.05,29.8-45.79,40-64.01,36.67-144.9,23.95-194.57-30.59Z"/>
      </g>
    </g>
  </g>
  <g class="cls-53">
    <g class="cls-52">
      <g>
        <path class="cls-12" d="M1029.58,217.4c-.04,21.98,4.25,43.76,12.63,64.08,1.22,2.97,4.62,4.38,7.59,3.16,2.97-1.22,4.39-4.62,3.16-7.58-32.92-80.18,5.44-171.85,85.68-204.74,8.64-3.54,17.59-6.31,26.73-8.27.08,0,.11,0,.07.09l-23.18,40.95c-1.77,2.67-1.04,6.28,1.63,8.05,2.68,1.77,6.28,1.04,8.06-1.63.16-.23.29-.48.41-.73l29.46-52.06c1.58-2.79.6-6.34-2.2-7.92,0,0,0,0,0,0l-52-29.38c-2.77-1.61-6.33-.68-7.95,2.1-1.62,2.77-.68,6.33,2.1,7.94.04.03.09.05.13.07l38.26,21.62c.07.04.06.09,0,.11-76.31,17.91-130.34,85.82-130.58,164.15Z"/>
        <path class="cls-12" d="M1219,61.98c20.3,2.71,39.86,9.39,57.58,19.66,63.88,37.13,93.35,113.64,70.87,183.99,0,.07-.07.07-.11,0l-23.8-40.52c-1.63-2.77-5.19-3.69-7.96-2.06-2.77,1.63-3.69,5.19-2.06,7.95l30.3,51.58c1.63,2.77,5.19,3.69,7.95,2.07h0s51.52-30.2,51.52-30.2c2.77-1.62,3.7-5.18,2.07-7.95-1.63-2.77-5.19-3.69-7.96-2.07l-37.98,22.28c-.07.04-.11,0-.08-.06,27.16-89.06-23.08-183.25-112.21-210.39-8.69-2.65-17.59-4.59-26.59-5.8-.26-.04-.52-.05-.78-.05-3.21-.02-5.83,2.57-5.84,5.78-.02,2.94,2.17,5.42,5.08,5.79h0Z"/>
        <path class="cls-12" d="M1081.86,322.69c-.05-.05-.04-.1.04-.1l46.74-.23c3.21,0,5.81-2.62,5.8-5.82,0-3.21-2.62-5.8-5.83-5.79l-59.87.3c-3.21,0-5.81,2.6-5.81,5.81l.31,59.72c-.12,3.08,2.28,5.68,5.36,5.81.15,0,.3,0,.45,0,3.21,0,5.81-2.6,5.81-5.81v-.03l-.22-44.21c0-.08.04-.1.1-.04,53.65,57.18,139.59,70.04,207.64,31.07,19.07-10.96,35.8-25.56,49.22-42.98,1.95-2.55,1.46-6.2-1.1-8.14-2.53-1.93-6.15-1.46-8.11,1.05-12.5,16.21-28.07,29.8-45.83,40-64.06,36.67-145.01,23.95-194.72-30.59Z"/>
      </g>
    </g>
  </g>
  <g>
    <path class="cls-1" d="M1208.2,276.75c-4.2-9.61-12.1-31.59-8.9-52.56.2-1.03-.6-1.98-1.6-2.12-.1-.02-.2-.02-.3-.02h-15.1c-1.2,23.35,8.3,46.6,12,54.7h-4.1c-4.8-10.81-14.8-37.48-10.8-62.8.2-1.02-.5-1.99-1.5-2.17-.1-.02-.2-.03-.3-.03h-37.6c-1.1,0-1.9.84-1.9,1.88v.32c4.1,25.32-6,51.99-10.7,62.8h-4.1c3.7-8.1,13.1-31.35,11.9-54.7h-15.3c-1-.01-1.9.83-1.9,1.87,0,.09,0,.18.1.27,3.2,20.97-4.8,42.95-9,52.56h-7.3v5h115v-5h-8.6Z"/>
    <path class="cls-1" d="M1162.9,204c1-1.53,3-2.01,4.5-1.08l.9.56c5.1,3.1,11.7,1.48,14.8-3.6h0c.9-1.53,2.9-2.01,4.5-1.08,5.9,3.76,13.7,2.03,17.5-3.86,3.5-6.06,1.4-13.8-4.6-17.31-4.2-2.55-9.3-2.61-13.5-.15-.6-.62-1.3-1.16-2-1.62-4.9-3.09-11.3-1.67-14.4,3.18-1.2,1.97-1.7,4.31-1.4,6.6-3.5.45-6.7,2.51-8.6,5.59l-2.3,3.76c-.1-.02-.3-.06-.5-.06-3.3,0-6,2.68-6,5.99s2.7,5.98,6,5.98c1.3,0,2.6-.44,3.6-1.26.6-.34,1-.8,1.3-1.34l.2-.3Z"/>
  </g>
  <path class="cls-24" d="M1151.8,273.99l6.3-21.2h-9.8l4.9-25.64h14.4l-6.1,18.77h9.8l-19.5,28.07Z"/>
  <path class="cls-3" d="M1258.3,183l-10,7.24-4.2,85.31h-7.8v7.45h39v-7.45h-7.9l-6-91.91-3.1-.64Z"/>
  <path class="cls-3" d="M1245.7,159.74l.8,1.26c.5-.83,1.1-1.58,1.8-2.24,3.5-3.28,8.7-3.74,12.6-1.13l.4-1.63-13.6-42.63c-.6-1.78-2.4-2.77-4.1-2.21-1.5.48-2.5,2.01-2.3,3.62l4.4,44.96Z"/>
  <path class="cls-3" d="M1307.3,180.46l-40.1-18.46-2,.23c2.3,5.27.2,11.49-4.9,14.07l1.9,1.57,43,9.04c1.8.42,3.6-.73,4-2.56.4-1.61-.4-3.25-1.9-3.89Z"/>
  <path class="cls-3" d="M1254.3,177.53c-5.6-.32-10-4.92-10-10.53l-2.1.7-29,32.73c-1.3,1.36-1.2,3.46.2,4.7,1.2,1.07,2.9,1.16,4.2.22l35.8-25.8.9-2.02Z"/>
  <path class="cls-3" d="M1251.9,162.42c-2,2.04-2.2,5.52-.3,7.77,1.8,2.25,5,2.43,7.1.39,2-2.04,2.2-5.51.3-7.77-1.8-2.25-5-2.43-7.1-.39h0Z"/>
  <path class="cls-14" d="M1214.4,402.5v213.31c0,2.53-2.1,4.58-4.6,4.58s-4.6-2.05-4.6-4.58v-213.31c0-2.53,2.1-4.58,4.6-4.58s4.6,2.05,4.6,4.58ZM1236.2,591.24l-26.4,31.73-26.4-31.73c-1.7-1.94-1.4-4.83.5-6.45,2-1.62,4.9-1.36,6.5.58l22.9,27.5h-7l22.9-27.5c1.6-1.94,4.5-2.2,6.5-.58,1.9,1.62,2.2,4.51.5,6.45Z"/>
  <text class="cls-7" transform="translate(1191.4 575) rotate(-90)"><tspan x="0" y="0">2035</tspan></text>
  <path class="cls-30" d="M1219,34.97l-2.86,42.98"/>
  <g class="cls-55">
    <g class="cls-49">
      <g class="cls-50">
        <g>
          <path class="cls-15" d="M1714.78,271.33c-18.12,12.49-33.59,28.43-45.56,46.9-1.75,2.7-.98,6.3,1.72,8.04,2.7,1.75,6.3.98,8.04-1.72,47.25-72.76,144.54-93.45,217.31-46.2,7.84,5.09,15.21,10.87,22.02,17.27.04.06.06.09-.03.11l-46.9,4.27c-3.21.07-5.76,2.72-5.7,5.93.06,3.21,2.72,5.76,5.93,5.7.28,0,.56-.03.84-.08l59.63-5.43c3.2-.29,5.55-3.12,5.26-6.32,0,0,0,0,0,0l-5.42-59.51c-.25-3.2-3.05-5.59-6.25-5.34s-5.59,3.05-5.34,6.25c0,.05,0,.1.01.15l3.99,43.79c0,.08-.04.1-.09.06-58.19-52.56-144.86-58.29-209.46-13.85Z"/>
          <path class="cls-15" d="M1950.56,338.55c9.33,18.24,14.97,38.14,16.61,58.56,5.82,73.7-40.38,141.54-111.09,163.13-.06.04-.1-.01-.06-.09l19.8-42.67c1.35-2.92.08-6.37-2.84-7.72-2.92-1.35-6.37-.08-7.72,2.84l-25.21,54.31c-1.35,2.91-.09,6.37,2.83,7.72h0s54.2,25.17,54.2,25.17c2.91,1.35,6.37.08,7.72-2.83,1.35-2.91.08-6.37-2.83-7.72l-39.96-18.54c-.07-.03-.06-.09,0-.1,88.77-28.41,137.69-123.41,109.27-212.17-2.77-8.66-6.24-17.08-10.37-25.18-.12-.23-.25-.46-.4-.68-1.81-2.65-5.43-3.33-8.08-1.51-2.42,1.66-3.23,4.87-1.87,7.48h0Z"/>
          <path class="cls-15" d="M1657.89,374.33c.01-.07.06-.09.1-.02l26.81,38.31c1.83,2.64,5.46,3.29,8.09,1.45,2.64-1.83,3.29-5.46,1.45-8.09l-34.33-49.07c-1.83-2.64-5.45-3.3-8.09-1.47l-48.98,34.29c-2.61,1.66-3.38,5.11-1.73,7.72.08.13.17.25.26.37,1.83,2.64,5.45,3.3,8.09,1.47l.02-.02,36.26-25.37c.07-.05.1-.02.09.06-16.52,76.71,21.83,154.72,92.66,188.49,19.88,9.44,41.42,14.87,63.4,15.99,3.21.15,5.93-2.33,6.08-5.54.15-3.19-2.3-5.89-5.48-6.07-20.46-1.04-40.51-6.11-59.01-14.9-66.66-31.79-102.29-105.62-85.7-177.58Z"/>
        </g>
      </g>
    </g>
  </g>
  <g class="cls-56">
    <g class="cls-54">
      <g class="cls-57">
        <g>
          <path class="cls-13" d="M1716,265.4c-18.1,12.49-33.6,28.43-45.5,46.9-1.8,2.7-1,6.3,1.7,8.04,2.7,1.75,6.3.98,8-1.72,47.3-72.76,144.6-93.45,217.4-46.2,7.8,5.09,15.2,10.87,22,17.27,0,.06,0,.09-.1.11l-46.9,4.27c-3.2.06-5.7,2.72-5.7,5.93.1,3.21,2.8,5.76,6,5.69.3,0,.5-.03.8-.07l59.6-5.44c3.2-.29,5.6-3.12,5.3-6.32h0l-5.4-59.51c-.3-3.2-3.1-5.59-6.3-5.34-3.2.25-5.6,3.05-5.3,6.25v.15l4,43.78c0,.08-.1.1-.1.06-58.2-52.56-144.9-58.29-209.5-13.85Z"/>
          <path class="cls-13" d="M1951.8,332.62c9.3,18.24,15,38.14,16.6,58.56,5.8,73.7-40.4,141.54-111.1,163.13,0,.04-.1-.01,0-.09l19.8-42.66c1.3-2.92.1-6.37-2.9-7.72-2.9-1.35-6.3-.08-7.7,2.84l-25.2,54.31c-1.3,2.91-.1,6.37,2.8,7.72h0l54.2,25.17c2.9,1.35,6.4.08,7.8-2.83,1.3-2.92,0-6.38-2.9-7.73l-39.9-18.54c-.1-.03-.1-.09,0-.1,88.7-28.42,137.7-123.41,109.2-212.18-2.7-8.65-6.2-17.07-10.3-25.17-.1-.24-.3-.46-.4-.68-1.8-2.65-5.5-3.32-8.1-1.51-2.4,1.66-3.2,4.87-1.9,7.48Z"/>
          <path class="cls-13" d="M1659.1,368.4c.1-.07.1-.09.1-.02l26.9,38.31c1.8,2.63,5.4,3.28,8,1.45,2.7-1.84,3.3-5.46,1.5-8.1l-34.3-49.07c-1.9-2.64-5.5-3.3-8.1-1.47l-49,34.29c-2.6,1.65-3.4,5.11-1.7,7.72,0,.13.1.25.2.37,1.9,2.64,5.5,3.3,8.1,1.47v-.02l36.3-25.37c.1-.04.1-.02.1.06-16.5,76.71,21.8,154.72,92.7,188.48,19.8,9.44,41.4,14.88,63.4,15.99,3.2.15,5.9-2.33,6-5.54.2-3.18-2.3-5.89-5.4-6.07-20.5-1.04-40.6-6.11-59.1-14.9-66.6-31.79-102.2-105.62-85.7-177.58Z"/>
        </g>
      </g>
    </g>
  </g>
  <g class="cls-58">
    <g class="cls-73">
      <g class="cls-74">
        <g>
          <path class="cls-23" d="M1710.48,257.39c-18.11,12.49-33.59,28.43-45.56,46.9-1.75,2.7-.98,6.3,1.72,8.04,2.7,1.75,6.3.97,8.04-1.72,47.25-72.76,144.54-93.45,217.31-46.2,7.84,5.09,15.21,10.87,22.02,17.27.04.06.06.09-.03.11l-46.9,4.27c-3.21.06-5.76,2.72-5.7,5.93.07,3.21,2.72,5.76,5.93,5.7.28,0,.56-.03.84-.08l59.63-5.43c3.2-.29,5.55-3.12,5.26-6.32,0,0,0,0,0,0l-5.42-59.51c-.25-3.2-3.05-5.59-6.25-5.34-3.2.25-5.59,3.05-5.34,6.25,0,.05,0,.1.01.15l3.99,43.79c0,.08-.04.1-.09.06-58.19-52.56-144.86-58.29-209.46-13.85Z"/>
          <path class="cls-23" d="M1946.26,324.62c9.33,18.24,14.97,38.14,16.61,58.56,5.81,73.7-40.38,141.54-111.09,163.13-.06.04-.1-.01-.06-.09l19.8-42.67c1.35-2.92.08-6.37-2.84-7.72-2.92-1.35-6.37-.08-7.72,2.84l-25.21,54.31c-1.35,2.91-.09,6.37,2.83,7.72,0,0,0,0,0,0l54.2,25.17c2.91,1.35,6.37.08,7.72-2.83,1.35-2.91.08-6.37-2.83-7.72l-39.96-18.54c-.07-.03-.06-.09,0-.1,88.77-28.41,137.69-123.41,109.27-212.17-2.77-8.66-6.24-17.08-10.37-25.18-.12-.23-.25-.46-.4-.68-1.82-2.65-5.43-3.32-8.08-1.51-2.42,1.66-3.23,4.87-1.87,7.48h0Z"/>
          <path class="cls-23" d="M1653.59,360.39c.01-.07.06-.09.1-.02l26.81,38.31c1.83,2.64,5.46,3.29,8.09,1.45,2.63-1.84,3.29-5.46,1.45-8.09l-34.33-49.07c-1.83-2.64-5.45-3.3-8.09-1.47l-48.98,34.29c-2.61,1.65-3.38,5.11-1.73,7.72.08.13.17.25.26.37,1.83,2.64,5.45,3.3,8.09,1.47l.02-.02,36.26-25.37c.07-.05.1-.02.09.06-16.52,76.71,21.83,154.72,92.66,188.49,19.88,9.44,41.42,14.87,63.4,15.99,3.21.15,5.93-2.33,6.08-5.54.15-3.18-2.3-5.89-5.48-6.07-20.46-1.04-40.51-6.11-59.01-14.9-66.66-31.79-102.29-105.62-85.69-177.58Z"/>
        </g>
      </g>
    </g>
  </g>
  <g>
    <path class="cls-2" d="M1772.96,394.85l-11.21,8.05-4.69,94.91h-8.74v8.29h43.75v-8.29h-8.88l-6.74-102.25-3.48-.71Z"/>
    <path class="cls-2" d="M1757.99,369.06l.97,1.38c.56-.91,1.25-1.74,2.04-2.47,4.01-3.61,9.96-4.12,14.54-1.24l.42-1.8-15.69-46.98c-.62-1.97-2.72-3.06-4.7-2.44-1.72.54-2.81,2.22-2.6,4l5.02,49.55Z"/>
    <path class="cls-2" d="M1827.56,392.13l-45.15-20.23-2.24.25c2.65,5.78.21,12.6-5.5,15.42l2.15,1.72,48.44,9.91c2.02.46,4.03-.8,4.49-2.81.4-1.76-.52-3.56-2.19-4.26Z"/>
    <path class="cls-2" d="M1768.37,388.93c-6.3-.35-11.25-5.51-11.3-11.79l-2.29.78-32.72,36.66c-1.39,1.52-1.28,3.88.25,5.27,1.32,1.2,3.31,1.3,4.75.24l40.33-28.9.98-2.26Z"/>
    <path class="cls-2" d="M1765.19,372.59c-2.4,2.16-2.58,5.84-.42,8.23,2.17,2.39,5.87,2.57,8.27.41,2.4-2.16,2.58-5.84.42-8.23-2.17-2.39-5.87-2.57-8.27-.42,0,0,0,0,0,0Z"/>
    <path class="cls-2" d="M1848.12,372.43l-3.88,88.07h-6.34v6.22h31.25v-6.22h-6.34l-3.35-76.76-11.34-11.31Z"/>
    <path class="cls-2" d="M1808.13,370.76l38.5-1.55,2.26-1.47c-3.76-2.56-4.72-7.68-2.14-11.42.06-.09.12-.17.18-.26.02-.02.05-.05.07-.07l-2.82-.72-36.91,9.79c-1.55.44-2.45,2.04-2.02,3.58.36,1.28,1.55,2.15,2.88,2.11Z"/>
    <path class="cls-2" d="M1852.4,352.78c.41-.06.83-.09,1.25-.09,3.38.02,6.41,2.07,7.69,5.18l2.12-2.01,10.03-37.05c.4-1.55-.55-3.13-2.11-3.53-1.29-.33-2.64.26-3.28,1.43l-18.04,34.19.07,2.6c.72-.35,1.48-.59,2.26-.72Z"/>
    <path class="cls-2" d="M1885.16,395.4l-20.52-32.28-2.71-1.39c-.32,3.8-3.23,6.89-7.03,7.45-.41.06-.83.09-1.25.09-.33-.01-.66-.04-.99-.09l.91,2.81,27.08,27.01c1.18,1.09,3.02,1.03,4.12-.14.88-.94,1.04-2.35.38-3.46Z"/>
    <path class="cls-2" d="M1854.28,365.08c2.28-.34,3.84-2.46,3.5-4.72-.34-2.26-2.47-3.82-4.74-3.48-2.28.34-3.84,2.46-3.5,4.72.34,2.26,2.47,3.82,4.74,3.48h0Z"/>
  </g>
  <path class="cls-17" d="M1646.49,507.54l-226.84,132.48c-2.19,1.28-2.92,4.08-1.65,6.27,1.28,2.18,4.08,2.92,6.27,1.65l226.84-132.48c2.19-1.28,2.92-4.08,1.65-6.27-1.28-2.19-4.08-2.92-6.27-1.65ZM1429.84,608.76l-14.06,38.83,40.73,6.83c2.5.42,4.86-1.26,5.28-3.76.42-2.5-1.27-4.86-3.76-5.28l-35.3-5.92,3.55,6.08,12.19-33.66c.86-2.38-.37-5.01-2.75-5.87-2.38-.86-5.01.37-5.87,2.75Z"/>
  <text class="cls-7" transform="translate(1462.8 594) rotate(-30.85)"><tspan x="0" y="0">2040</tspan></text>
  <path class="cls-33" d="M1930.3,325.16l40.68-14.16"/>
  <path class="cls-32" d="M2175.4,1219.11l32.11,28.71"/>
</svg>
