<svg width="3048" height="1165" xmlns="http://www.w3.org/2000/svg" xmlns:xlink="http://www.w3.org/1999/xlink" xml:space="preserve" overflow="hidden"><g transform="translate(3295 -10110)"><g><path d="M-3287.5 10277.8C-3287.5 10190.4-3216.62 10119.5-3129.17 10119.5L-414.826 10119.5C-327.385 10119.5-256.5 10190.4-256.5 10277.8L-256.5 11087.2C-256.5 11174.6-327.385 11245.5-414.826 11245.5L-3129.17 11245.5C-3216.62 11245.5-3287.5 11174.6-3287.5 11087.2Z" stroke="#002426" stroke-width="9.16667" stroke-linecap="butt" stroke-linejoin="round" stroke-miterlimit="10" stroke-opacity="1" fill="#CED6DD" fill-rule="evenodd" fill-opacity="1"/><rect x="-2969" y="10800" width="88" height="73" stroke="#000000" stroke-width="10.0833" stroke-linecap="butt" stroke-linejoin="round" stroke-miterlimit="10" stroke-opacity="1" fill="#58AB27" fill-opacity="1"/><path d="M-3108 10869-400.658 10869C-397.873 10869-395.616 10871.2-395.616 10874-395.616 10876.8-397.873 10879-400.658 10879L-3108 10879C-3110.78 10879-3113.04 10876.8-3113.04 10874-3113.04 10871.2-3110.78 10869-3108 10869ZM-428.428 10852-390.712 10874-428.428 10896C-430.833 10897.4-433.92 10896.6-435.323 10894.2-436.726 10891.8-435.914 10888.7-433.508 10887.3L-403.258 10869.6-403.258 10878.4-433.508 10860.7C-435.914 10859.3-436.726 10856.2-435.323 10853.8-433.92 10851.4-430.833 10850.6-428.428 10852Z" fill="#000000" fill-rule="nonzero" fill-opacity="1"/><rect x="-2383" y="10758" width="88" height="115" stroke="#000000" stroke-width="10.0833" stroke-linecap="butt" stroke-linejoin="round" stroke-miterlimit="10" stroke-opacity="1" fill="#F6A800" fill-opacity="1"/><rect x="-623" y="10758" width="78.0001" height="115" stroke="#000000" stroke-width="10.0833" stroke-linecap="butt" stroke-linejoin="round" stroke-miterlimit="10" stroke-opacity="1" fill="#7A6FAC" fill-opacity="1"/><rect x="-2852" y="10694" width="88" height="179" stroke="#000000" stroke-width="10.0833" stroke-linecap="butt" stroke-linejoin="round" stroke-miterlimit="10" stroke-opacity="1" fill="#58AB27" fill-opacity="1"/><rect x="-2735" y="10585" width="89" height="288" stroke="#000000" stroke-width="10.0833" stroke-linecap="butt" stroke-linejoin="round" stroke-miterlimit="10" stroke-opacity="1" fill="#58AB27" fill-opacity="1"/><rect x="-2265" y="10758" width="88" height="115" stroke="#000000" stroke-width="10.0833" stroke-linecap="butt" stroke-linejoin="round" stroke-miterlimit="10" stroke-opacity="1" fill="#F6A800" fill-opacity="1"/><rect x="-2148" y="10758" width="88" height="115" stroke="#000000" stroke-width="10.0833" stroke-linecap="butt" stroke-linejoin="round" stroke-miterlimit="10" stroke-opacity="1" fill="#F6A800" fill-opacity="1"/><rect x="-2031" y="10758" width="88" height="115" stroke="#000000" stroke-width="10.0833" stroke-linecap="butt" stroke-linejoin="round" stroke-miterlimit="10" stroke-opacity="1" fill="#F6A800" fill-opacity="1"/><rect x="-1914" y="10758" width="89" height="115" stroke="#000000" stroke-width="10.0833" stroke-linecap="butt" stroke-linejoin="round" stroke-miterlimit="10" stroke-opacity="1" fill="#F6A800" fill-opacity="1"/><rect x="-1796" y="10758" width="88" height="115" stroke="#000000" stroke-width="10.0833" stroke-linecap="butt" stroke-linejoin="round" stroke-miterlimit="10" stroke-opacity="1" fill="#F6A800" fill-opacity="1"/><rect x="-1679" y="10758" width="88" height="115" stroke="#000000" stroke-width="10.0833" stroke-linecap="butt" stroke-linejoin="round" stroke-miterlimit="10" stroke-opacity="1" fill="#F6A800" fill-opacity="1"/><rect x="-1562" y="10758" width="88" height="115" stroke="#000000" stroke-width="10.0833" stroke-linecap="butt" stroke-linejoin="round" stroke-miterlimit="10" stroke-opacity="1" fill="#F6A800" fill-opacity="1"/><rect x="-1444" y="10758" width="88" height="115" stroke="#000000" stroke-width="10.0833" stroke-linecap="butt" stroke-linejoin="round" stroke-miterlimit="10" stroke-opacity="1" fill="#F6A800" fill-opacity="1"/><rect x="-1327" y="10758" width="88" height="115" stroke="#000000" stroke-width="10.0833" stroke-linecap="butt" stroke-linejoin="round" stroke-miterlimit="10" stroke-opacity="1" fill="#F6A800" fill-opacity="1"/><rect x="-1210" y="10758" width="88" height="115" stroke="#000000" stroke-width="10.0833" stroke-linecap="butt" stroke-linejoin="round" stroke-miterlimit="10" stroke-opacity="1" fill="#F6A800" fill-opacity="1"/><rect x="-1093" y="10758" width="89.0001" height="115" stroke="#000000" stroke-width="10.0833" stroke-linecap="butt" stroke-linejoin="round" stroke-miterlimit="10" stroke-opacity="1" fill="#F6A800" fill-opacity="1"/><rect x="-975" y="10758" width="88" height="115" stroke="#000000" stroke-width="10.0833" stroke-linecap="butt" stroke-linejoin="round" stroke-miterlimit="10" stroke-opacity="1" fill="#F6A800" fill-opacity="1"/><rect x="-858" y="10758" width="88" height="115" stroke="#000000" stroke-width="10.0833" stroke-linecap="butt" stroke-linejoin="round" stroke-miterlimit="10" stroke-opacity="1" fill="#F6A800" fill-opacity="1"/><rect x="-741" y="10758" width="88" height="115" stroke="#000000" stroke-width="10.0833" stroke-linecap="butt" stroke-linejoin="round" stroke-miterlimit="10" stroke-opacity="1" fill="#F6A800" fill-opacity="1"/><path d="M-696.5 10875.5-696.5 10914.5" stroke="#000000" stroke-width="11.3436" stroke-linecap="round" stroke-linejoin="round" stroke-miterlimit="10" stroke-opacity="1" fill="none" fill-rule="evenodd"/><text fill="#000000" fill-opacity="1" font-family="Arial,Arial_MSFontService,sans-serif" font-style="italic" font-variant="normal" font-weight="400" font-stretch="normal" font-size="101" text-anchor="start" direction="ltr" writing-mode="lr-tb" unicode-bidi="normal" text-decoration="none" transform="matrix(0.707107 -0.707107 0.707107 0.707107 -815.524 11169)">2040</text><path d="M-1869.5 10875.5-1869.5 10914.5" stroke="#000000" stroke-width="11.3436" stroke-linecap="round" stroke-linejoin="round" stroke-miterlimit="10" stroke-opacity="1" fill="none" fill-rule="evenodd"/><text fill="#000000" fill-opacity="1" font-family="Arial,Arial_MSFontService,sans-serif" font-style="italic" font-variant="normal" font-weight="400" font-stretch="normal" font-size="101" text-anchor="start" direction="ltr" writing-mode="lr-tb" unicode-bidi="normal" text-decoration="none" transform="matrix(0.707107 -0.707107 0.707107 0.707107 -1989.45 11169)">2030</text><path d="M-3028.5 10875.5-3028.5 10914.5" stroke="#000000" stroke-width="11.3436" stroke-linecap="round" stroke-linejoin="round" stroke-miterlimit="10" stroke-opacity="1" fill="none" fill-rule="evenodd"/><text fill="#000000" fill-opacity="1" font-family="Arial,Arial_MSFontService,sans-serif" font-style="italic" font-variant="normal" font-weight="400" font-stretch="normal" font-size="101" text-anchor="start" direction="ltr" writing-mode="lr-tb" unicode-bidi="normal" text-decoration="none" transform="matrix(0.707107 -0.707107 0.707107 0.707107 -3149.23 11169)">2020</text><rect x="-1039" y="10232" width="89.0001" height="90" stroke="#000000" stroke-width="10.0833" stroke-linecap="butt" stroke-linejoin="round" stroke-miterlimit="10" stroke-opacity="1" fill="#58AB27" fill-opacity="1"/><rect x="-1039" y="10374" width="89.0001" height="89" stroke="#000000" stroke-width="10.0833" stroke-linecap="butt" stroke-linejoin="round" stroke-miterlimit="10" stroke-opacity="1" fill="#F6A800" fill-opacity="1"/><rect x="-1039" y="10515" width="89.0001" height="89" stroke="#000000" stroke-width="10.0833" stroke-linecap="butt" stroke-linejoin="round" stroke-miterlimit="10" stroke-opacity="1" fill="#7A6FAC" fill-opacity="1"/><text fill="#000000" fill-opacity="1" font-family="Arial,Arial_MSFontService,sans-serif" font-style="normal" font-variant="normal" font-weight="400" font-stretch="normal" font-size="83" text-anchor="start" direction="ltr" writing-mode="lr-tb" unicode-bidi="normal" text-decoration="none" transform="matrix(1 0 0 1 -877.774 10311)">Construction</text><text fill="#000000" fill-opacity="1" font-family="Arial,Arial_MSFontService,sans-serif" font-style="normal" font-variant="normal" font-weight="400" font-stretch="normal" font-size="83" text-anchor="start" direction="ltr" writing-mode="lr-tb" unicode-bidi="normal" text-decoration="none" transform="matrix(1 0 0 1 -877.774 10452)">Electricity</text><text fill="#000000" fill-opacity="1" font-family="Arial,Arial_MSFontService,sans-serif" font-style="normal" font-variant="normal" font-weight="400" font-stretch="normal" font-size="83" text-anchor="start" direction="ltr" writing-mode="lr-tb" unicode-bidi="normal" text-decoration="none" transform="matrix(1 0 0 1 -877.774 10593)">End of Life</text><rect x="-2617" y="10758" width="88" height="115" stroke="#000000" stroke-width="10.0833" stroke-linecap="butt" stroke-linejoin="round" stroke-miterlimit="10" stroke-opacity="1" fill="#F6A800" fill-opacity="1"/><rect x="-2500" y="10758" width="88" height="115" stroke="#000000" stroke-width="10.0833" stroke-linecap="butt" stroke-linejoin="round" stroke-miterlimit="10" stroke-opacity="1" fill="#F6A800" fill-opacity="1"/></g></g></svg>