<svg xmlns="http://www.w3.org/2000/svg" viewBox="0 0 3437 2654"><g transform="translate(-14130 -12544)"><g><path d="M15230.9 12882 15230.9 13115.5C15230.9 13119.3 15227.8 13122.3 15224 13122.3 15220.2 13122.3 15217.1 13119.3 15217.1 13115.5L15217.1 12882C15217.1 12878.2 15220.2 12875.1 15224 12875.1 15227.8 12875.1 15230.9 12878.2 15230.9 12882ZM15263.7 13078.6 15224 13126.2 15184.3 13078.6C15181.9 13075.7 15182.3 13071.4 15185.2 13068.9 15188.1 13066.5 15192.5 13066.9 15194.9 13069.8L15229.3 13111.1 15218.7 13111.1 15253.1 13069.8C15255.5 13066.9 15259.9 13066.5 15262.8 13068.9 15265.7 13071.4 15266.1 13075.7 15263.7 13078.6Z" fill="#000000" fill-rule="nonzero" fill-opacity="1"/><path d="M15230.9 13459 15230.9 13683.5C15230.9 13687.3 15227.8 13690.3 15224 13690.3 15220.2 13690.3 15217.1 13687.3 15217.1 13683.5L15217.1 13459C15217.1 13455.2 15220.2 13452.1 15224 13452.1 15227.8 13452.1 15230.9 13455.2 15230.9 13459ZM15263.7 13646.6 15224 13694.2 15184.3 13646.6 15184.3 13646.6C15181.9 13643.7 15182.3 13639.4 15185.2 13636.9 15188.1 13634.5 15192.5 13634.9 15194.9 13637.8L15194.9 13637.8 15229.3 13679.1 15218.7 13679.1 15253.1 13637.8C15255.5 13634.9 15259.9 13634.5 15262.8 13636.9 15265.7 13639.4 15266.1 13643.7 15263.7 13646.6Z" fill="#000000" fill-rule="nonzero" fill-opacity="1"/><path d="M6.87498-0.0165114 7.41618 225.328 7.41618 225.328C7.4253 229.125 4.35466 232.211 0.557715 232.22-3.23923 232.229-6.32466 229.158-6.33378 225.361L-6.87498 0.0165114C-6.8841-3.78044-3.81346-6.86586-0.0165114-6.87498 3.78044-6.8841 6.86586-3.81346 6.87498-0.0165114ZM40.1091 188.401 0.566997 236.084-39.2037 188.591C-41.6415 185.68-41.2578 181.344-38.3467 178.907-35.4356 176.469-31.0996 176.853-28.6618 179.764L5.81214 220.931-4.75087 220.956 29.525 179.624C31.9487 176.701 36.2829 176.297 39.2056 178.72 42.1283 181.144 42.5329 185.478 40.1091 188.401Z" fill="#000000" fill-rule="nonzero" fill-opacity="1" transform="matrix(-1 0 0 1 15224.6 14595)"/><path d="M15230.9 14027 15230.9 14251.2C15230.9 14255 15227.8 14258.1 15224 14258.1 15220.2 14258.1 15217.1 14255 15217.1 14251.2L15217.1 14027C15217.1 14023.2 15220.2 14020.1 15224 14020.1 15227.8 14020.1 15230.9 14023.2 15230.9 14027ZM15263.7 14214.4 15224 14261.9 15184.3 14214.4 15184.3 14214.4C15181.9 14211.4 15182.3 14207.1 15185.2 14204.7 15188.1 14202.2 15192.5 14202.6 15194.9 14205.6L15194.9 14205.6 15229.3 14246.8 15218.7 14246.8 15253.1 14205.6C15255.5 14202.6 15259.9 14202.2 15262.8 14204.7 15265.7 14207.1 15266.1 14211.4 15263.7 14214.4Z" fill="#000000" fill-rule="nonzero" fill-opacity="1"/><path d="M0 0 0.205709 1411.2" stroke="#000000" stroke-width="13.75" stroke-linecap="round" stroke-linejoin="round" stroke-miterlimit="10" stroke-opacity="1" fill="none" fill-rule="evenodd" transform="matrix(-1 0 0 1 16179.2 12877)"/><path d="M15660.7 14374.1 16083 14374.6C16086.8 14374.6 16089.8 14377.7 16089.8 14381.5 16089.8 14385.3 16086.8 14388.4 16083 14388.4L15660.7 14387.9C15656.9 14387.9 15653.8 14384.8 15653.8 14381 15653.9 14377.2 15656.9 14374.1 15660.7 14374.1ZM15697.5 14420.7 15650 14381 15697.6 14341.4C15700.5 14339 15704.9 14339.4 15707.3 14342.3 15709.7 14345.2 15709.3 14349.5 15706.4 14352L15665.1 14386.3 15665.1 14375.7 15706.3 14410.2C15709.3 14412.6 15709.6 14416.9 15707.2 14419.8 15704.8 14422.8 15700.4 14423.1 15697.5 14420.7Z" fill="#000000" fill-rule="nonzero" fill-opacity="1"/><path d="M15661.7 13286.1 16084.6 13286.1 16084.6 13299.9 15661.7 13299.9ZM15698.6 13332.7 15651 13293 15698.6 13253.3C15701.5 13250.9 15705.8 13251.3 15708.3 13254.2 15710.7 13257.1 15710.3 13261.5 15707.4 13263.9L15666.1 13298.3 15666.1 13287.7 15707.4 13322.1C15710.3 13324.5 15710.7 13328.9 15708.3 13331.8 15705.8 13334.7 15701.5 13335.1 15698.6 13332.7Z" fill="#000000" fill-rule="nonzero" fill-opacity="1"/><path d="M16179 13196.5C16179 13249.8 16136 13293 16083 13293" stroke="#000000" stroke-width="13.75" stroke-linecap="round" stroke-linejoin="round" stroke-miterlimit="10" stroke-opacity="1" fill="none" fill-rule="evenodd"/><path d="M16179 14285.5C16179 14338.8 16136 14382 16083 14382" stroke="#000000" stroke-width="13.75" stroke-linecap="round" stroke-linejoin="round" stroke-miterlimit="10" stroke-opacity="1" fill="none" fill-rule="evenodd"/><path d="M15660.7 14468.1 17043.2 14468.1C17047 14468.1 17050.1 14471.2 17050.1 14475 17050.1 14478.8 17047 14481.9 17043.2 14481.9L15660.7 14481.9C15656.9 14481.9 15653.8 14478.8 15653.8 14475 15653.8 14471.2 15656.9 14468.1 15660.7 14468.1ZM15697.6 14514.7 15650 14475 15697.6 14435.3C15700.5 14432.9 15704.8 14433.3 15707.3 14436.2 15709.7 14439.1 15709.3 14443.5 15706.4 14445.9L15665.1 14480.3 15665.1 14469.7 15706.4 14504.1C15709.3 14506.5 15709.7 14510.9 15707.3 14513.8 15704.8 14516.7 15700.5 14517.1 15697.6 14514.7Z" fill="#000000" fill-rule="nonzero" fill-opacity="1"/><path d="M17139 14379C17139 14432 17096 14475 17043 14475" stroke="#000000" stroke-width="13.75" stroke-linecap="butt" stroke-linejoin="round" stroke-miterlimit="10" stroke-opacity="1" fill="none" fill-rule="evenodd"/><path d="M17137 12874 17139.6 14380.9" stroke="#000000" stroke-width="13.75" stroke-linecap="round" stroke-linejoin="round" stroke-miterlimit="10" stroke-opacity="1" fill="none" fill-rule="evenodd"/><path d="M14797 12604.5C14797 12573.8 14821.8 12549 14852.5 12549L15595.5 12549C15626.2 12549 15651 12573.8 15651 12604.5L15651 12826.5C15651 12857.2 15626.2 12882 15595.5 12882L14852.5 12882C14821.8 12882 14797 12857.2 14797 12826.5Z" fill="#BFBFBF" fill-rule="evenodd" fill-opacity="1"/><text fill="#000000" fill-opacity="1" font-family="Arial,Arial_MSFontService,sans-serif" font-style="normal" font-variant="normal" font-weight="400" font-stretch="normal" font-size="110" text-anchor="start" direction="ltr" writing-mode="lr-tb" unicode-bidi="normal" text-decoration="none" transform="matrix(1 0 0 1 15009.7 12690)">temporal</text><text fill="#000000" fill-opacity="1" font-family="Arial,Arial_MSFontService,sans-serif" font-style="normal" font-variant="normal" font-weight="400" font-stretch="normal" font-size="110" text-anchor="start" direction="ltr" writing-mode="lr-tb" unicode-bidi="normal" text-decoration="none" transform="matrix(1 0 0 1 14951.6 12822)">information</text><path d="M14797 13181.5C14797 13150.8 14821.8 13126 14852.5 13126L15595.5 13126C15626.2 13126 15651 13150.8 15651 13181.5L15651 13403.5C15651 13434.2 15626.2 13459 15595.5 13459L14852.5 13459C14821.8 13459 14797 13434.2 14797 13403.5Z" fill="#3FB0C4" fill-rule="evenodd" fill-opacity="1"/><text fill="#000000" fill-opacity="1" font-family="Arial,Arial_MSFontService,sans-serif" font-style="normal" font-variant="normal" font-weight="400" font-stretch="normal" font-size="110" text-anchor="start" direction="ltr" writing-mode="lr-tb" unicode-bidi="normal" text-decoration="none" transform="matrix(1 0 0 1 14908.6 13268)">temporalized </text><text fill="#000000" fill-opacity="1" font-family="Arial,Arial_MSFontService,sans-serif" font-style="normal" font-variant="normal" font-weight="400" font-stretch="normal" font-size="110" text-anchor="start" direction="ltr" writing-mode="lr-tb" unicode-bidi="normal" text-decoration="none" transform="matrix(1 0 0 1 14884.5 13400)">system model</text><path d="M14797 14886.5C14797 14855.8 14821.8 14831 14852.5 14831L15595.5 14831C15626.2 14831 15651 14855.8 15651 14886.5L15651 15108.5C15651 15139.2 15626.2 15164 15595.5 15164L14852.5 15164C14821.8 15164 14797 15139.2 14797 15108.5Z" fill="#3FB0C4" fill-rule="evenodd" fill-opacity="1"/><text fill="#000000" fill-opacity="1" font-family="Arial,Arial_MSFontService,sans-serif" font-style="normal" font-variant="normal" font-weight="400" font-stretch="normal" font-size="110" text-anchor="start" direction="ltr" writing-mode="lr-tb" unicode-bidi="normal" text-decoration="none" transform="matrix(1 0 0 1 14877.9 14973)">environmental </text><text fill="#000000" fill-opacity="1" font-family="Arial,Arial_MSFontService,sans-serif" font-style="normal" font-variant="normal" font-weight="400" font-stretch="normal" font-size="110" text-anchor="start" direction="ltr" writing-mode="lr-tb" unicode-bidi="normal" text-decoration="none" transform="matrix(1 0 0 1 15034.3 15105)">impacts</text><path d="M14797 13749.5C14797 13718.8 14821.8 13694 14852.5 13694L15595.5 13694C15626.2 13694 15651 13718.8 15651 13749.5L15651 13971.5C15651 14002.2 15626.2 14027 15595.5 14027L14852.5 14027C14821.8 14027 14797 14002.2 14797 13971.5Z" fill="#3FB0C4" fill-rule="evenodd" fill-opacity="1"/><text fill="#000000" fill-opacity="1" font-family="Arial,Arial_MSFontService,sans-serif" font-style="normal" font-variant="normal" font-weight="400" font-stretch="normal" font-size="110" text-anchor="start" direction="ltr" writing-mode="lr-tb" unicode-bidi="normal" text-decoration="none" transform="matrix(1 0 0 1 15031.2 13836)">process </text><text fill="#000000" fill-opacity="1" font-family="Arial,Arial_MSFontService,sans-serif" font-style="normal" font-variant="normal" font-weight="400" font-stretch="normal" font-size="110" text-anchor="start" direction="ltr" writing-mode="lr-tb" unicode-bidi="normal" text-decoration="none" transform="matrix(1 0 0 1 15034.1 13968)">timeline</text><path d="M14797 14317.5C14797 14286.8 14821.8 14262 14852.5 14262L15596.5 14262C15627.2 14262 15652 14286.8 15652 14317.5L15652 14539.5C15652 14570.2 15627.2 14595 15596.5 14595L14852.5 14595C14821.8 14595 14797 14570.2 14797 14539.5Z" fill="#3FB0C4" fill-rule="evenodd" fill-opacity="1"/><text fill="#000000" fill-opacity="1" font-family="Arial,Arial_MSFontService,sans-serif" font-style="normal" font-variant="normal" font-weight="400" font-stretch="normal" font-size="110" text-anchor="start" direction="ltr" writing-mode="lr-tb" unicode-bidi="normal" text-decoration="none" transform="matrix(1 0 0 1 14933.8 14404)">time</text><text fill="#000000" fill-opacity="1" font-family="Arial,Arial_MSFontService,sans-serif" font-style="normal" font-variant="normal" font-weight="400" font-stretch="normal" font-size="110" text-anchor="start" direction="ltr" writing-mode="lr-tb" unicode-bidi="normal" text-decoration="none" transform="matrix(1 0 0 1 15141.8 14404)">-</text><text fill="#000000" fill-opacity="1" font-family="Arial,Arial_MSFontService,sans-serif" font-style="normal" font-variant="normal" font-weight="400" font-stretch="normal" font-size="110" text-anchor="start" direction="ltr" writing-mode="lr-tb" unicode-bidi="normal" text-decoration="none" transform="matrix(1 0 0 1 15178.4 14404)">explicit</text><text fill="#000000" fill-opacity="1" font-family="Arial,Arial_MSFontService,sans-serif" font-style="normal" font-variant="normal" font-weight="400" font-stretch="normal" font-size="110" text-anchor="start" direction="ltr" writing-mode="lr-tb" unicode-bidi="normal" text-decoration="none" transform="matrix(1 0 0 1 15001.1 14536)">inventory</text><path d="M15753 12604.5C15753 12573.8 15777.8 12549 15808.5 12549L16552.5 12549C16583.2 12549 16608 12573.8 16608 12604.5L16608 12826.5C16608 12857.2 16583.2 12882 16552.5 12882L15808.5 12882C15777.8 12882 15753 12857.2 15753 12826.5Z" fill="#BFBFBF" fill-rule="evenodd" fill-opacity="1"/><text fill="#000000" fill-opacity="1" font-family="Arial,Arial_MSFontService,sans-serif" font-style="normal" font-variant="normal" font-weight="400" font-stretch="normal" font-size="110" text-anchor="start" direction="ltr" writing-mode="lr-tb" unicode-bidi="normal" text-decoration="none" transform="matrix(1 0 0 1 15862.8 12690)">static system </text><text fill="#000000" fill-opacity="1" font-family="Arial,Arial_MSFontService,sans-serif" font-style="normal" font-variant="normal" font-weight="400" font-stretch="normal" font-size="110" text-anchor="start" direction="ltr" writing-mode="lr-tb" unicode-bidi="normal" text-decoration="none" transform="matrix(1 0 0 1 16030.4 12822)">model</text><path d="M16710 12604.5C16710 12573.8 16734.8 12549 16765.5 12549L17508.5 12549C17539.2 12549 17564 12573.8 17564 12604.5L17564 12826.5C17564 12857.2 17539.2 12882 17508.5 12882L16765.5 12882C16734.8 12882 16710 12857.2 16710 12826.5Z" fill="#BFBFBF" fill-rule="evenodd" fill-opacity="1"/><text fill="#000000" fill-opacity="1" font-family="Arial,Arial_MSFontService,sans-serif" font-style="normal" font-variant="normal" font-weight="400" font-stretch="normal" font-size="110" text-anchor="start" direction="ltr" writing-mode="lr-tb" unicode-bidi="normal" text-decoration="none" transform="matrix(1 0 0 1 16855.4 12690)">prospective </text><text fill="#000000" fill-opacity="1" font-family="Arial,Arial_MSFontService,sans-serif" font-style="normal" font-variant="normal" font-weight="400" font-stretch="normal" font-size="110" text-anchor="start" direction="ltr" writing-mode="lr-tb" unicode-bidi="normal" text-decoration="none" transform="matrix(1 0 0 1 16882.9 12822)">databases</text><text fill="#000000" fill-opacity="1" font-family="Courier New,Courier New_MSFontService,sans-serif" font-style="normal" font-variant="normal" font-weight="400" font-stretch="normal" font-size="83" text-anchor="start" direction="ltr" writing-mode="lr-tb" unicode-bidi="normal" text-decoration="none" transform="matrix(1 0 0 1 15262.4 13598)">build_timeline()</text><text fill="#000000" fill-opacity="1" font-family="Courier New,Courier New_MSFontService,sans-serif" font-style="normal" font-variant="normal" font-weight="400" font-stretch="normal" font-size="83" text-anchor="start" direction="ltr" writing-mode="lr-tb" unicode-bidi="normal" text-decoration="none" transform="matrix(1 0 0 1 15262 14166)">lci()</text><text fill="#000000" fill-opacity="1" font-family="Courier New,Courier New_MSFontService,sans-serif" font-style="normal" font-variant="normal" font-weight="400" font-stretch="normal" font-size="83" text-anchor="start" direction="ltr" writing-mode="lr-tb" unicode-bidi="normal" text-decoration="none" transform="matrix(1 0 0 1 15264.1 14733)">dynamic_lcia</text><text fill="#000000" fill-opacity="1" font-family="Courier New,Courier New_MSFontService,sans-serif" font-style="normal" font-variant="normal" font-weight="400" font-stretch="normal" font-size="83" text-anchor="start" direction="ltr" writing-mode="lr-tb" unicode-bidi="normal" text-decoration="none" transform="matrix(1 0 0 1 15855.3 14733)">()</text><text fill="#000000" fill-opacity="1" font-family="Arial,Arial_MSFontService,sans-serif" font-style="normal" font-variant="normal" font-weight="400" font-stretch="normal" font-size="147" text-anchor="start" direction="ltr" writing-mode="lr-tb" unicode-bidi="normal" text-decoration="none" transform="matrix(1 0 0 1 14222.9 13347)">Step 1</text><text fill="#000000" fill-opacity="1" font-family="Arial,Arial_MSFontService,sans-serif" font-style="normal" font-variant="normal" font-weight="400" font-stretch="normal" font-size="147" text-anchor="start" direction="ltr" writing-mode="lr-tb" unicode-bidi="normal" text-decoration="none" transform="matrix(1 0 0 1 14225.8 13915)">Step 2</text><text fill="#000000" fill-opacity="1" font-family="Arial,Arial_MSFontService,sans-serif" font-style="normal" font-variant="normal" font-weight="400" font-stretch="normal" font-size="147" text-anchor="start" direction="ltr" writing-mode="lr-tb" unicode-bidi="normal" text-decoration="none" transform="matrix(1 0 0 1 14222.9 14483)">Step 3</text><text fill="#000000" fill-opacity="1" font-family="Arial,Arial_MSFontService,sans-serif" font-style="normal" font-variant="normal" font-weight="400" font-stretch="normal" font-size="147" text-anchor="start" direction="ltr" writing-mode="lr-tb" unicode-bidi="normal" text-decoration="none" transform="matrix(1 0 0 1 14225.8 15052)">Step 4</text></g></g></svg>
