<?xml version="1.0" encoding="UTF-8" standalone="no"?>
<svg
   width="3500.9365"
   height="2605"
   version="1.1"
   id="svg30"
   xmlns="http://www.w3.org/2000/svg"
   xmlns:svg="http://www.w3.org/2000/svg"><defs
     id="defs30" /><g
     transform="translate(-3128.0635,-5688)"
     id="g30"><g
       id="g29"><path
         d="m 4379.88,6021 v 223.89 c 0,3.8 -3.08,6.88 -6.88,6.88 -3.8,0 -6.87,-3.08 -6.87,-6.88 L 4366.12,6021 c 0,-3.8 3.08,-6.88 6.88,-6.88 3.8,0 6.88,3.08 6.88,6.88 z m 32.78,187.04 -39.66,47.59 -39.66,-47.59 v 0 c -2.43,-2.91 -2.03,-7.25 0.88,-9.68 2.92,-2.43 7.26,-2.04 9.69,0.88 v 0 l 34.37,41.25 h -10.56 l 34.37,-41.25 c 2.43,-2.92 6.77,-3.31 9.69,-0.88 2.91,2.43 3.31,6.77 0.88,9.68 z"
         fill="#000000"
         fill-rule="nonzero"
         fill-opacity="1"
         id="path1" /><path
         d="m 4379.88,6588 v 224.46 c 0,3.79 -3.08,6.87 -6.88,6.87 -3.8,0 -6.87,-3.08 -6.87,-6.87 L 4366.12,6588 c 0,-3.8 3.08,-6.88 6.88,-6.88 3.8,0 6.88,3.08 6.88,6.88 z m 32.78,187.61 -39.66,47.59 -39.66,-47.59 v 0 c -2.43,-2.92 -2.03,-7.25 0.88,-9.68 2.92,-2.44 7.26,-2.04 9.69,0.88 v 0 l 34.37,41.25 h -10.56 l 34.37,-41.25 c 2.43,-2.92 6.77,-3.32 9.69,-0.88 2.91,2.43 3.31,6.76 0.88,9.68 z"
         fill="#000000"
         fill-rule="nonzero"
         fill-opacity="1"
         id="path2" /><text
         fill="#000000"
         fill-opacity="1"
         font-family="Consolas, Consolas_MSFontService, sans-serif"
         font-style="normal"
         font-variant="normal"
         font-weight="400"
         font-stretch="normal"
         font-size="83px"
         text-anchor="start"
         direction="ltr"
         writing-mode="lr-tb"
         unicode-bidi="normal"
         text-decoration="none"
         transform="translate(4451.37,7821)"
         id="text2"
         style="text-decoration:none;text-decoration-line:none">s</text><text
         fill="#000000"
         fill-opacity="1"
         font-family="Consolas, Consolas_MSFontService, sans-serif"
         font-style="normal"
         font-variant="normal"
         font-weight="400"
         font-stretch="normal"
         font-size="83px"
         text-anchor="start"
         direction="ltr"
         writing-mode="lr-tb"
         unicode-bidi="normal"
         text-decoration="none"
         transform="translate(4496.63,7821)"
         id="text3"
         style="text-decoration:none;text-decoration-line:none">tatic_lcia() </text><text
         fill="#000000"
         fill-opacity="1"
         font-family="Arial, Arial_MSFontService, sans-serif"
         font-style="normal"
         font-variant="normal"
         font-weight="400"
         font-stretch="normal"
         font-size="83px"
         text-anchor="start"
         direction="ltr"
         writing-mode="lr-tb"
         unicode-bidi="normal"
         text-decoration="none"
         transform="translate(5085.02,7821)"
         id="text4"
         style="text-decoration:none;text-decoration-line:none">or</text><text
         fill="#000000"
         fill-opacity="1"
         font-family="Consolas, Consolas_MSFontService, sans-serif"
         font-style="normal"
         font-variant="normal"
         font-weight="400"
         font-stretch="normal"
         font-size="83px"
         text-anchor="start"
         direction="ltr"
         writing-mode="lr-tb"
         unicode-bidi="normal"
         text-decoration="none"
         transform="translate(4451.37,7920)"
         id="text5"
         style="text-decoration:none;text-decoration-line:none">dynamic_lcia()</text><path
         d="m 4379.88,7156 v 224.46 c 0,3.79 -3.08,6.87 -6.88,6.87 -3.8,0 -6.87,-3.08 -6.87,-6.87 L 4366.12,7156 c 0,-3.8 3.08,-6.88 6.88,-6.88 3.8,0 6.88,3.08 6.88,6.88 z m 32.78,187.61 -39.66,47.59 -39.66,-47.59 v 0 c -2.43,-2.92 -2.03,-7.25 0.88,-9.68 2.92,-2.43 7.26,-2.04 9.69,0.88 v 0 l 34.37,41.25 h -10.56 l 34.37,-41.25 c 2.43,-2.92 6.77,-3.31 9.69,-0.88 2.91,2.43 3.31,6.76 0.88,9.68 z"
         fill="#000000"
         fill-rule="nonzero"
         fill-opacity="1"
         id="path5" /><path
         d="m 4379.88,7725 v 224.46 c 0,3.79 -3.08,6.87 -6.88,6.87 -3.8,0 -6.87,-3.08 -6.87,-6.87 L 4366.12,7725 c 0,-3.8 3.08,-6.88 6.88,-6.88 3.8,0 6.88,3.08 6.88,6.88 z m 32.78,187.61 -39.66,47.59 -39.66,-47.59 v 0 c -2.43,-2.92 -2.03,-7.25 0.88,-9.68 2.92,-2.43 7.26,-2.04 9.69,0.88 v 0 l 34.37,41.25 h -10.56 l 34.37,-41.25 c 2.43,-2.92 6.77,-3.31 9.69,-0.88 2.91,2.43 3.31,6.76 0.88,9.68 z"
         fill="#000000"
         fill-rule="nonzero"
         fill-opacity="1"
         id="path6" /><path
         d="m 3698,5743.5 c 0,-30.65 24.85,-55.5 55.5,-55.5 h 1239 c 30.65,0 55.5,24.85 55.5,55.5 v 222 c 0,30.65 -24.85,55.5 -55.5,55.5 h -1239 c -30.65,0 -55.5,-24.85 -55.5,-55.5 z"
         fill="#d9d9d9"
         fill-rule="evenodd"
         fill-opacity="1"
         id="path7" /><text
         fill="#000000"
         fill-opacity="1"
         font-family="Arial, Arial_MSFontService, sans-serif"
         font-style="normal"
         font-variant="normal"
         font-weight="400"
         font-stretch="normal"
         font-size="110px"
         text-anchor="start"
         direction="ltr"
         writing-mode="lr-tb"
         unicode-bidi="normal"
         text-decoration="none"
         transform="translate(3834.59,5895)"
         id="text7"
         style="text-decoration:none;text-decoration-line:none">product system model</text><path
         d="m 3698,6310.5 c 0,-30.65 24.85,-55.5 55.5,-55.5 h 1239 c 30.65,0 55.5,24.85 55.5,55.5 v 222 c 0,30.65 -24.85,55.5 -55.5,55.5 h -1239 c -30.65,0 -55.5,-24.85 -55.5,-55.5 z"
         fill="#3fb0c4"
         fill-rule="evenodd"
         fill-opacity="1"
         id="path8" /><text
         fill="#000000"
         fill-opacity="1"
         font-family="Arial, Arial_MSFontService, sans-serif"
         font-style="normal"
         font-variant="normal"
         font-weight="400"
         font-stretch="normal"
         font-size="110px"
         text-anchor="start"
         direction="ltr"
         writing-mode="lr-tb"
         unicode-bidi="normal"
         text-decoration="none"
         transform="translate(3858.65,6397)"
         id="text8"
         style="text-decoration:none;text-decoration-line:none">temporalized product </text><text
         fill="#000000"
         fill-opacity="1"
         font-family="Arial, Arial_MSFontService, sans-serif"
         font-style="normal"
         font-variant="normal"
         font-weight="400"
         font-stretch="normal"
         font-size="110px"
         text-anchor="start"
         direction="ltr"
         writing-mode="lr-tb"
         unicode-bidi="normal"
         text-decoration="none"
         transform="translate(4033.39,6529)"
         id="text9"
         style="text-decoration:none;text-decoration-line:none">system model</text><path
         d="m 3698,7447.5 c 0,-30.65 24.85,-55.5 55.5,-55.5 h 1239 c 30.65,0 55.5,24.85 55.5,55.5 v 222 c 0,30.65 -24.85,55.5 -55.5,55.5 h -1239 c -30.65,0 -55.5,-24.85 -55.5,-55.5 z"
         fill="#3fb0c4"
         fill-rule="evenodd"
         fill-opacity="1"
         id="path9" /><text
         fill="#000000"
         fill-opacity="1"
         font-family="Arial, Arial_MSFontService, sans-serif"
         font-style="normal"
         font-variant="normal"
         font-weight="400"
         font-stretch="normal"
         font-size="110px"
         text-anchor="start"
         direction="ltr"
         writing-mode="lr-tb"
         unicode-bidi="normal"
         text-decoration="none"
         transform="translate(3843.47,7599)"
         id="text10"
         style="text-decoration:none;text-decoration-line:none">time</text><text
         fill="#000000"
         fill-opacity="1"
         font-family="Arial, Arial_MSFontService, sans-serif"
         font-style="normal"
         font-variant="normal"
         font-weight="400"
         font-stretch="normal"
         font-size="110px"
         text-anchor="start"
         direction="ltr"
         writing-mode="lr-tb"
         unicode-bidi="normal"
         text-decoration="none"
         transform="translate(4051.44,7599)"
         id="text11"
         style="text-decoration:none;text-decoration-line:none">-</text><text
         fill="#000000"
         fill-opacity="1"
         font-family="Arial, Arial_MSFontService, sans-serif"
         font-style="normal"
         font-variant="normal"
         font-weight="400"
         font-stretch="normal"
         font-size="110px"
         text-anchor="start"
         direction="ltr"
         writing-mode="lr-tb"
         unicode-bidi="normal"
         text-decoration="none"
         transform="translate(4088.1,7599)"
         id="text12"
         style="text-decoration:none;text-decoration-line:none">explicit inventory</text><path
         d="m 3698,6878.5 c 0,-30.65 24.85,-55.5 55.5,-55.5 h 1239 c 30.65,0 55.5,24.85 55.5,55.5 v 222 c 0,30.65 -24.85,55.5 -55.5,55.5 h -1239 c -30.65,0 -55.5,-24.85 -55.5,-55.5 z"
         fill="#3fb0c4"
         fill-rule="evenodd"
         fill-opacity="1"
         id="path12" /><text
         fill="#000000"
         fill-opacity="1"
         font-family="Arial, Arial_MSFontService, sans-serif"
         font-style="normal"
         font-variant="normal"
         font-weight="400"
         font-stretch="normal"
         font-size="110px"
         text-anchor="start"
         direction="ltr"
         writing-mode="lr-tb"
         unicode-bidi="normal"
         text-decoration="none"
         transform="translate(3788.18,6965)"
         id="text13"
         style="text-decoration:none;text-decoration-line:none">timeline of technosphere </text><text
         fill="#000000"
         fill-opacity="1"
         font-family="Arial, Arial_MSFontService, sans-serif"
         font-style="normal"
         font-variant="normal"
         font-weight="400"
         font-stretch="normal"
         font-size="110px"
         text-anchor="start"
         direction="ltr"
         writing-mode="lr-tb"
         unicode-bidi="normal"
         text-decoration="none"
         transform="translate(4106.43,7097)"
         id="text14"
         style="text-decoration:none;text-decoration-line:none">exchanges</text><path
         d="m 3698,8015.5 c 0,-30.65 24.85,-55.5 55.5,-55.5 h 1239 c 30.65,0 55.5,24.85 55.5,55.5 v 222 c 0,30.65 -24.85,55.5 -55.5,55.5 h -1239 c -30.65,0 -55.5,-24.85 -55.5,-55.5 z"
         fill="#3fb0c4"
         fill-rule="evenodd"
         fill-opacity="1"
         id="path14" /><text
         fill="#000000"
         fill-opacity="1"
         font-family="Arial, Arial_MSFontService, sans-serif"
         font-style="normal"
         font-variant="normal"
         font-weight="400"
         font-stretch="normal"
         font-size="110px"
         text-anchor="start"
         direction="ltr"
         writing-mode="lr-tb"
         unicode-bidi="normal"
         text-decoration="none"
         transform="translate(4045.42,8101)"
         id="text15"
         style="text-decoration:none;text-decoration-line:none">(time</text><text
         fill="#000000"
         fill-opacity="1"
         font-family="Arial, Arial_MSFontService, sans-serif"
         font-style="normal"
         font-variant="normal"
         font-weight="400"
         font-stretch="normal"
         font-size="110px"
         text-anchor="start"
         direction="ltr"
         writing-mode="lr-tb"
         unicode-bidi="normal"
         text-decoration="none"
         transform="translate(4290.06,8101)"
         id="text16"
         style="text-decoration:none;text-decoration-line:none">-</text><text
         fill="#000000"
         fill-opacity="1"
         font-family="Arial, Arial_MSFontService, sans-serif"
         font-style="normal"
         font-variant="normal"
         font-weight="400"
         font-stretch="normal"
         font-size="110px"
         text-anchor="start"
         direction="ltr"
         writing-mode="lr-tb"
         unicode-bidi="normal"
         text-decoration="none"
         transform="translate(4326.72,8101)"
         id="text17"
         style="text-decoration:none;text-decoration-line:none">explicit) </text><text
         fill="#000000"
         fill-opacity="1"
         font-family="Arial, Arial_MSFontService, sans-serif"
         font-style="normal"
         font-variant="normal"
         font-weight="400"
         font-stretch="normal"
         font-size="110px"
         text-anchor="start"
         direction="ltr"
         writing-mode="lr-tb"
         unicode-bidi="normal"
         text-decoration="none"
         transform="translate(3821.98,8233)"
         id="text18"
         style="text-decoration:none;text-decoration-line:none">environmental impacts</text><text
         fill="#000000"
         fill-opacity="1"
         font-family="Consolas, Consolas_MSFontService, sans-serif"
         font-style="normal"
         font-variant="normal"
         font-weight="400"
         font-stretch="normal"
         font-size="83px"
         text-anchor="start"
         direction="ltr"
         writing-mode="lr-tb"
         unicode-bidi="normal"
         text-decoration="none"
         transform="translate(4451.37,6732)"
         id="text19"
         style="text-decoration:none;text-decoration-line:none">build_timeline()</text><text
         fill="#000000"
         fill-opacity="1"
         font-family="Consolas, Consolas_MSFontService, sans-serif"
         font-style="normal"
         font-variant="normal"
         font-weight="400"
         font-stretch="normal"
         font-size="83px"
         text-anchor="start"
         direction="ltr"
         writing-mode="lr-tb"
         unicode-bidi="normal"
         text-decoration="none"
         transform="translate(4451.37,7304)"
         id="text20"
         style="text-decoration:none;text-decoration-line:none">lci()</text><path
         d="M 1.07206e-5,-6.875 220.711,-6.87466 c 3.797,1e-5 6.875,3.07806 6.875,6.875014889 C 227.586,3.79731 224.508,6.87535 220.711,6.87534 L -1.07206e-5,6.875 C -3.79697,6.87499 -6.87501,3.79695 -6.875,-1.07206e-5 -6.87499,-3.79697 -3.79695,-6.87501 1.07206e-5,-6.875 Z M 183.862,-39.6562 231.45,3.61666e-4 183.862,39.6568 c -2.917,2.4308 -7.252,2.0366 -9.683,-0.8803 -2.43,-2.9169 -2.036,-7.252 0.881,-9.6827 L 216.31,-5.28118 V 5.28186 L 175.06,-29.0932 c -2.917,-2.4308 -3.311,-6.7659 -0.88,-9.6828 2.43,-2.9169 6.765,-3.311 9.682,-0.8802 z"
         fill="#000000"
         fill-rule="nonzero"
         fill-opacity="1"
         transform="matrix(-1,0,0,1,5279.44,6422)"
         id="path20" /><path
         d="M 0.0572247,-6.87476 220.768,-5.03759 v 0 c 3.797,0.03161 6.85,3.13516 6.818,6.93199 -0.032,3.79683 -3.135,6.84914 -6.932,6.81754 L -0.0572247,6.87476 C -3.85405,6.84316 -6.90637,3.7396 -6.87476,-0.0572247 -6.84316,-3.85405 -3.7396,-6.90637 0.0572247,-6.87476 Z M 184.194,-38.1247 231.45,1.92656 183.533,41.1856 c -2.937,2.4064 -7.268,1.9762 -9.675,-0.9608 -2.406,-2.937 -1.976,-7.2687 0.961,-9.6751 L 216.354,-3.4808 216.266,7.08188 175.303,-27.6353 c -2.896,-2.4549 -3.254,-6.7932 -0.799,-9.6898 2.455,-2.8965 6.793,-3.2545 9.69,-0.7996 z"
         fill="#000000"
         fill-rule="nonzero"
         fill-opacity="1"
         transform="matrix(-1,0,0,1,5279.44,7556)"
         id="path21" /><text
         fill="#000000"
         fill-opacity="1"
         font-family="Arial, Arial_MSFontService, sans-serif"
         font-style="normal"
         font-variant="normal"
         font-weight="400"
         font-stretch="normal"
         font-size="147px"
         text-anchor="start"
         direction="ltr"
         writing-mode="lr-tb"
         unicode-bidi="normal"
         text-decoration="none"
         transform="translate(3121.46,6476)"
         id="text21"
         style="text-decoration:none;text-decoration-line:none">Step 1</text><text
         fill="#000000"
         fill-opacity="1"
         font-family="Arial, Arial_MSFontService, sans-serif"
         font-style="normal"
         font-variant="normal"
         font-weight="400"
         font-stretch="normal"
         font-size="147px"
         text-anchor="start"
         direction="ltr"
         writing-mode="lr-tb"
         unicode-bidi="normal"
         text-decoration="none"
         transform="translate(3121.46,7044)"
         id="text22"
         style="text-decoration:none;text-decoration-line:none">Step 2</text><text
         fill="#000000"
         fill-opacity="1"
         font-family="Arial, Arial_MSFontService, sans-serif"
         font-style="normal"
         font-variant="normal"
         font-weight="400"
         font-stretch="normal"
         font-size="147px"
         text-anchor="start"
         direction="ltr"
         writing-mode="lr-tb"
         unicode-bidi="normal"
         text-decoration="none"
         transform="translate(3121.46,7612)"
         id="text23"
         style="text-decoration:none;text-decoration-line:none">Step 3</text><text
         fill="#000000"
         fill-opacity="1"
         font-family="Arial, Arial_MSFontService, sans-serif"
         font-style="normal"
         font-variant="normal"
         font-weight="400"
         font-stretch="normal"
         font-size="147px"
         text-anchor="start"
         direction="ltr"
         writing-mode="lr-tb"
         unicode-bidi="normal"
         text-decoration="none"
         transform="translate(3121.46,8180)"
         id="text24"
         style="text-decoration:none;text-decoration-line:none">Step 4</text><path
         d="m 5279,6310.5 c 0,-30.65 24.85,-55.5 55.5,-55.5 h 1239 c 30.65,0 55.5,24.85 55.5,55.5 v 222 c 0,30.65 -24.85,55.5 -55.5,55.5 h -1239 c -30.65,0 -55.5,-24.85 -55.5,-55.5 z"
         fill="#d9d9d9"
         fill-rule="evenodd"
         fill-opacity="1"
         id="path24" /><text
         fill="#000000"
         fill-opacity="1"
         font-family="Arial, Arial_MSFontService, sans-serif"
         font-style="normal"
         font-variant="normal"
         font-weight="400"
         font-stretch="normal"
         font-size="110px"
         text-anchor="start"
         direction="ltr"
         writing-mode="lr-tb"
         unicode-bidi="normal"
         text-decoration="none"
         transform="translate(5430.79,6463)"
         id="text25"
         style="text-decoration:none;text-decoration-line:none">temporal distributions</text><path
         d="m 5279,7445.5 c 0,-30.65 24.85,-55.5 55.5,-55.5 h 1239 c 30.65,0 55.5,24.85 55.5,55.5 v 222 c 0,30.65 -24.85,55.5 -55.5,55.5 h -1239 c -30.65,0 -55.5,-24.85 -55.5,-55.5 z"
         fill="#d9d9d9"
         fill-rule="evenodd"
         fill-opacity="1"
         id="path25" /><text
         fill="#000000"
         fill-opacity="1"
         font-family="Arial, Arial_MSFontService, sans-serif"
         font-style="normal"
         font-variant="normal"
         font-weight="400"
         font-stretch="normal"
         font-size="110px"
         text-anchor="start"
         direction="ltr"
         writing-mode="lr-tb"
         unicode-bidi="normal"
         text-decoration="none"
         transform="translate(5648.2,7531)"
         id="text26"
         style="text-decoration:none;text-decoration-line:none">time</text><text
         fill="#000000"
         fill-opacity="1"
         font-family="Arial, Arial_MSFontService, sans-serif"
         font-style="normal"
         font-variant="normal"
         font-weight="400"
         font-stretch="normal"
         font-size="110px"
         text-anchor="start"
         direction="ltr"
         writing-mode="lr-tb"
         unicode-bidi="normal"
         text-decoration="none"
         transform="translate(5856.17,7531)"
         id="text27"
         style="text-decoration:none;text-decoration-line:none">-</text><text
         fill="#000000"
         fill-opacity="1"
         font-family="Arial, Arial_MSFontService, sans-serif"
         font-style="normal"
         font-variant="normal"
         font-weight="400"
         font-stretch="normal"
         font-size="110px"
         text-anchor="start"
         direction="ltr"
         writing-mode="lr-tb"
         unicode-bidi="normal"
         text-decoration="none"
         transform="translate(5892.83,7531)"
         id="text28"
         style="text-decoration:none;text-decoration-line:none">specific </text><text
         fill="#000000"
         fill-opacity="1"
         font-family="Arial, Arial_MSFontService, sans-serif"
         font-style="normal"
         font-variant="normal"
         font-weight="400"
         font-stretch="normal"
         font-size="110px"
         text-anchor="start"
         direction="ltr"
         writing-mode="lr-tb"
         unicode-bidi="normal"
         text-decoration="none"
         transform="translate(5396.99,7663)"
         id="text29"
         style="text-decoration:none;text-decoration-line:none">background databases</text></g></g></svg>
