<svg width="2475" height="568" xmlns="http://www.w3.org/2000/svg" xmlns:xlink="http://www.w3.org/1999/xlink" xml:space="preserve" overflow="hidden"><g transform="translate(-165 -747)"><g><path d="M307.142 976C263.07 964.165 237.47 934.842 227.821 889.641 222.717 865.752 222.654 841.613 223.261 817.271 223.853 817.178 224.397 816.881 224.74 817.053 251.46 830.152 278.274 843.143 301.928 861.849 308.9 867.36 314.954 874.121 321.366 880.382 323.186 882.146 323.638 883.942 321.942 886.518 310.908 903.193 306.8 921.883 307.266 941.916 307.5 952.08 307.453 962.26 307.484 972.44 307.484 973.58 307.266 974.72 307.126 976Z" fill="#316733" fill-rule="evenodd" fill-opacity="1"/><path d="M447.387 1261.98C434.415 1256.54 421.381 1251.2 408.457 1245.6 391.397 1238.21 374.587 1230.3 360.347 1218 356.619 1214.79 353.329 1211.08 349.647 1207.8 347.438 1205.82 347.642 1204.2 349.13 1201.87 355.537 1191.79 360.566 1180.97 362.102 1169.09 363.292 1159.84 363.026 1150.39 363.198 1141.01 363.355 1132.97 363.23 1124.92 363.23 1116 367.741 1117.7 371.674 1119.14 375.559 1120.63 418.17 1136.95 441.183 1168.44 446.196 1213.31 447.966 1229.13 448.107 1245.12 449 1261.03 448.467 1261.36 447.935 1261.67 447.387 1262Z" fill="#316733" fill-rule="evenodd" fill-opacity="1"/><path d="M363.268 976.984C363.72 967.483 360.961 958.965 366.93 950.542 382.699 928.287 397.829 905.533 413.084 882.872 414.861 880.247 418.928 877.09 415.001 873.793 411.059 870.495 409.469 875.699 407.506 877.793 391.737 894.609 377.728 912.909 365.356 932.57 364.919 933.257 364.421 933.898 363.065 935.805 363.938 915.895 357.066 899.891 347 884.748 353.794 875.012 361.943 866.776 371.293 859.883 392.703 844.146 416.201 832.191 439.559 820.001 441.958 818.751 444.452 817.641 447.895 816 447.895 822.236 447.802 827.44 447.911 832.628 448.332 852.351 447.365 871.886 442.955 891.202 433.746 931.476 410.872 959.012 373.24 973.124 370.217 974.265 367.21 975.469 363.268 977Z" fill="#74B944" fill-rule="evenodd" fill-opacity="1"/><path d="M307.74 1116C307.74 1122.5 308.006 1128.23 307.599 1133.92 307.458 1136 306.002 1138.14 304.717 1139.95 289.575 1161.33 274.37 1182.65 259.166 1204 258.883 1204.4 258.429 1204.76 258.336 1205.21 257.928 1207.22 257.615 1209.26 257.271 1211.29 259.181 1210.47 261.702 1210.15 262.924 1208.74 276.547 1192.82 289.982 1176.73 303.465 1160.68 304.483 1159.47 305.516 1158.25 306.957 1156.54 307.63 1162.71 307.286 1168.47 309.024 1173.49 312.265 1182.84 316.337 1191.95 320.847 1200.78 322.569 1204.12 322.444 1205.75 319.923 1208.22 308.335 1219.6 295.228 1228.85 280.603 1235.8 261.702 1244.79 242.535 1253.21 223.197 1262 223.197 1247.41 222.68 1234.05 223.322 1220.74 224.215 1202.05 229.445 1184.4 238.402 1167.88 250.694 1145.16 269.892 1130.6 293.553 1121.29 298.078 1119.5 302.65 1117.89 307.724 1116Z" fill="#316733" fill-rule="evenodd" fill-opacity="1"/><path d="M335.613 750C384.225 750 432.836 750 481.447 750 497.391 750 504.529 757.106 504.576 773.095 504.653 804.199 505.51 835.335 504.544 866.408 503.079 913.236 485 952.989 451.382 985.714 434.955 1001.7 415.349 1012.24 394.979 1021.8 391.145 1023.61 387.264 1025.45 383.726 1027.79 373.704 1034.38 373.455 1045.82 383.477 1052.46 389.305 1056.32 395.742 1059.33 402.117 1062.29 434.753 1077.44 461.263 1099.64 480.044 1130.67 496.408 1157.71 504.716 1187.05 504.56 1218.79 504.435 1242.17 504.591 1265.53 504.591 1288.9 504.591 1303.08 496.783 1311 482.834 1311 385.939 1311 289.06 1311 192.165 1311 190.357 1311 188.565 1311 186.757 1310.97 175.426 1310.78 166.683 1302.46 166.62 1291.08 166.465 1264.09 165.124 1236.99 166.948 1210.13 171 1150.51 197.448 1103.57 249.489 1072.78 259.182 1067.04 269.625 1062.62 279.615 1057.41 283.371 1055.46 287.205 1053.39 290.353 1050.63 297.414 1044.48 297.336 1035.52 289.87 1029.89 285.241 1026.4 279.755 1023.94 274.394 1021.59 254.944 1013.06 236.459 1002.95 221.107 988.004 191.698 959.378 173.4 924.845 168.615 883.767 166.932 869.291 166.839 854.58 166.636 839.978 166.325 817.273 166.527 794.553 166.511 771.848 166.511 757.823 174.07 750.016 187.832 750.016 237.098 749.985 286.363 750.016 335.629 750.016ZM335.396 1212.17C336.159 1212.79 336.673 1213.18 337.141 1213.64 359.366 1234.66 384.988 1250.58 411.717 1265.09 430.124 1275.1 449.497 1275.14 469.867 1273.83 469.867 1271.9 469.867 1270.14 469.867 1268.38 469.851 1251.75 470.038 1235.14 469.711 1218.51 469.555 1210.83 469.009 1203.05 467.622 1195.51 460.095 1154.9 438.088 1124.11 403.364 1102.57 392.719 1095.97 381.092 1090.96 369.979 1085.09 351.822 1075.49 342.58 1060.67 343.11 1039.66 343.593 1020.92 351.027 1006.78 367.953 998.196 374.655 994.783 381.341 991.324 388.105 988.036 411.125 976.847 429.859 960.562 444.743 939.743 462.245 915.246 469.835 887.679 469.851 857.774 469.867 836.051 469.82 814.328 469.804 792.605 469.804 790.844 469.804 789.083 469.804 787.042L201.906 787.042C201.828 788.366 201.704 789.332 201.704 790.298 201.672 814.157 201.532 838.015 201.688 861.873 201.735 868.761 202.124 875.726 203.169 882.521 209.668 924.253 232.313 955.498 266.555 978.576 277.62 986.041 289.995 991.573 301.855 997.791 309.04 1001.56 315.571 1005.91 320.418 1012.7 331.608 1028.44 331.125 1057.18 316.054 1073.23 307.903 1081.89 297.57 1086.68 287.299 1091.66 271.448 1099.35 256.471 1108.1 243.815 1120.68 218.068 1146.25 202.685 1176.55 201.797 1213.34 201.329 1232.74 201.688 1252.17 201.704 1271.59 201.704 1272.35 201.984 1273.1 202.218 1274.32 208.779 1274.32 215.169 1273.96 221.481 1274.39 234.667 1275.31 246.948 1272.12 258.154 1265.62 273.989 1256.44 289.699 1246.94 304.817 1236.62 315.461 1229.36 325.047 1220.54 335.411 1212.19Z" fill="#222832" fill-rule="evenodd" fill-opacity="1"/><path d="M335.842 861C316.221 840.655 294.154 825.532 269 812L401.001 812C377.156 825.844 353.951 839.408 335.842 861Z" fill="#222832" fill-rule="evenodd" fill-opacity="1"/><path d="M335.304 1010C332 1004.43 328.365 998.517 324.998 992.451 323.928 990.531 323.046 988.21 323.046 986.074 323.015 966.977 322.842 947.864 323.456 928.782 323.802 917.716 327.484 907.425 334.926 898 340.575 904.577 344.036 911.836 345.925 919.713 347.136 924.742 347.718 930.035 347.797 935.204 348.064 951.686 348.017 968.184 347.939 984.666 347.939 986.817 347.325 989.185 346.286 991.073 342.715 997.619 338.813 1004.01 335.32 1010Z" fill="#222832" fill-rule="evenodd" fill-opacity="1"/><path d="M335.422 1183C328.545 1174.06 323.815 1164.69 323.627 1153.64 323.266 1134.14 323.031 1114.64 323 1095.13 323 1084.47 330.519 1078.66 339.635 1081.89 344.82 1083.73 348 1087.66 348 1092.96 348 1114.25 348.031 1135.55 347.107 1156.81 346.684 1166.51 342.157 1175.23 335.422 1183Z" fill="#222832" fill-rule="evenodd" fill-opacity="1"/><path d="M927 1069.15C927 1089.36 924.141 1106.85 918.438 1121.57 912.735 1136.3 904.782 1148.53 894.61 1158.28 884.422 1168.03 872.407 1175.25 858.547 1179.95 844.688 1184.66 829.594 1187 813.266 1187 796.938 1187 782.313 1185.81 768.531 1183.42 754.734 1181.03 741.563 1177.83 729 1173.78L729 877 781.86 877 781.86 948.918 779.688 992.244C787.625 981.995 796.906 973.761 807.532 967.542 818.141 961.34 830.891 958.23 845.766 958.23 858.766 958.23 870.313 960.824 880.422 966.027 890.532 971.23 899.016 978.635 905.876 988.229 912.735 997.838 917.969 1009.46 921.579 1023.1 925.188 1036.74 927 1052.1 927 1069.13ZM871.532 1071.32C871.532 1059.19 870.672 1048.87 868.938 1040.34 867.203 1031.82 864.719 1024.81 861.469 1019.32 858.219 1013.84 854.25 1009.82 849.547 1007.29 844.86 1004.76 839.469 1003.49 833.407 1003.49 824.453 1003.49 815.891 1007.1 807.735 1014.32 799.578 1021.54 790.938 1031.37 781.844 1043.79L781.844 1139.97C786.031 1141.56 791.188 1142.86 797.328 1143.88 803.469 1144.89 809.703 1145.39 816.063 1145.39 824.438 1145.39 832.063 1143.66 838.922 1140.19 845.781 1136.72 851.625 1131.82 856.469 1125.46 861.313 1119.1 865.032 1111.35 867.625 1102.18 870.219 1093 871.532 1082.72 871.532 1071.3Z" fill="#222832" fill-rule="evenodd" fill-opacity="1"/><path d="M1153.04 1182.98 1094.34 1182.98 1070.95 1113.26 1063.8 1089.01 1056.64 1113.91 1034.11 1182.98 975.199 1182.98 944 963 994.259 963 1010.07 1087.29 1013.76 1121.28 1022.63 1090.76 1044.72 1023.86 1085.01 1023.86 1108.62 1090.33 1118.81 1121.72 1122.91 1086.87 1136.13 963.015 1184 963.015 1153.02 1183Z" fill="#222832" fill-rule="evenodd" fill-opacity="1"/><path d="M1192 1241 1192 1199 1435 1199 1435 1241 1192 1241Z" fill="#222832" fill-rule="evenodd" fill-opacity="1"/><path d="M1640 1180.86C1630.51 1183.02 1620.95 1184.76 1611.32 1186.05 1601.69 1187.34 1592.56 1188 1583.92 1188 1569.55 1188 1557.14 1186.49 1546.72 1183.46 1536.29 1180.43 1527.66 1175.82 1520.83 1169.62 1514 1163.43 1508.96 1155.54 1505.73 1145.94 1502.49 1136.35 1500.88 1124.93 1500.88 1111.66L1500.88 1004.38 1442 1004.38 1442 963.291 1500.88 963.291 1500.88 907.055 1554.79 893 1554.79 963.291 1639.98 963.291 1639.98 1004.38 1554.79 1004.38 1554.79 1107.77C1554.79 1120.31 1557.67 1129.8 1563.42 1136.21 1569.18 1142.62 1578.81 1145.84 1592.32 1145.84 1600.96 1145.84 1609.36 1145.12 1617.55 1143.67 1625.75 1142.23 1633.22 1140.56 1639.98 1138.69L1639.98 1180.87Z" fill="#222832" fill-rule="evenodd" fill-opacity="1"/><path d="M1773.6 1004.05 1711.56 1004.05 1711.56 962.891 1827.66 962.891 1827.66 1141.84 1891 1141.84 1891 1183 1704 1183 1704 1141.84 1773.62 1141.84 1773.62 1004.06ZM1831.98 902.656C1831.98 907.422 1831.13 911.906 1829.39 916.094 1827.66 920.281 1825.25 923.937 1822.16 927.031 1819.07 930.125 1815.42 932.594 1811.24 934.391 1807.07 936.203 1802.53 937.094 1797.63 937.094 1792.74 937.094 1788.15 936.188 1783.91 934.391 1779.65 932.594 1775.99 930.125 1772.89 927.031 1769.78 923.922 1767.37 920.281 1765.65 916.094 1763.92 911.906 1763.06 907.422 1763.06 902.656 1763.06 897.89 1763.92 893.422 1765.65 889.219 1767.38 885.031 1769.8 881.344 1772.89 878.172 1775.99 875 1779.65 872.5 1783.91 870.703 1788.17 868.906 1792.74 868 1797.63 868 1802.53 868 1807.07 868.906 1811.24 870.703 1815.42 872.516 1819.06 875 1822.16 878.172 1825.26 881.344 1827.68 885.031 1829.39 889.219 1831.13 893.406 1831.98 897.89 1831.98 902.656Z" fill="#222832" fill-rule="evenodd" fill-opacity="1"/><path d="M2100.39 1183 2100.39 1033.41C2100.39 1027.94 2100.25 1023.14 2099.96 1019.04 2099.66 1014.94 2099.1 1011.51 2098.23 1008.76 2097.37 1006.04 2096.11 1003.98 2094.44 1002.61 2092.78 1001.23 2090.51 1000.55 2087.62 1000.55 2083.14 1000.55 2078.76 1003.57 2074.43 1009.62 2070.1 1015.67 2065.19 1025.98 2059.72 1040.54L2059.72 1182.98 2014.52 1182.98 2014.52 1033.4C2014.52 1027.92 2014.38 1023.12 2014.08 1019.02 2013.78 1014.92 2013.22 1011.49 2012.35 1008.75 2011.49 1006.02 2010.18 1003.96 2008.45 1002.59 2006.72 1001.22 2004.41 1000.53 2001.52 1000.53 1997.78 1000.53 1993.6 1003.56 1988.98 1009.61 1984.37 1015.65 1979.25 1025.96 1973.64 1040.52L1973.64 1182.97 1928 1182.97 1928 963.35 1967.15 963.35 1968.01 995.341C1971.17 988.855 1974.35 983.305 1977.52 978.69 1980.69 974.076 1984.07 970.303 1987.69 967.341 1991.29 964.394 1995.15 962.259 1999.26 960.965 2003.38 959.671 2008.03 959.016 2013.21 959.016 2025.47 959.016 2034.79 962.227 2041.22 968.635 2047.63 975.042 2051.28 983.944 2052.14 995.325 2055.6 988.84 2059.02 983.289 2062.42 978.675 2065.8 974.06 2069.34 970.287 2073.01 967.325 2076.69 964.379 2080.65 962.243 2084.91 960.949 2089.16 959.655 2093.87 959 2099.07 959 2115.07 959 2126.89 964.581 2134.54 975.76 2142.18 986.922 2146 1003.46 2146 1025.37L2146 1182.95 2100.36 1182.95Z" fill="#222832" fill-rule="evenodd" fill-opacity="1"/><path d="M2380 1055.98C2380 1059.59 2379.89 1064.29 2379.67 1070.06 2379.46 1075.85 2379.13 1081.25 2378.71 1086.32L2234.53 1086.32C2234.53 1096 2236.01 1104.53 2238.95 1111.9 2241.9 1119.26 2246.08 1125.45 2251.47 1130.42 2256.85 1135.39 2263.35 1139.21 2270.9 1141.8 2278.45 1144.4 2286.84 1145.71 2296.04 1145.71 2306.68 1145.71 2318.08 1144.88 2330.25 1143.23 2342.41 1141.57 2355.03 1138.86 2368.12 1135.1L2368.12 1177.15C2362.5 1178.75 2356.4 1180.18 2349.77 1181.48 2343.15 1182.78 2336.38 1183.94 2329.49 1184.95 2322.58 1185.97 2315.6 1186.72 2308.55 1187.23 2301.5 1187.73 2294.67 1188 2288.05 1188 2271.36 1188 2256.39 1185.61 2243.16 1180.84 2229.91 1176.07 2218.7 1169.02 2209.49 1159.7 2200.27 1150.39 2193.22 1138.86 2188.33 1125.14 2183.44 1111.41 2181 1095.51 2181 1077.46 2181 1059.4 2183.44 1043.25 2188.33 1028.57 2193.22 1013.91 2200.13 1001.34 2209.05 990.846 2217.97 980.372 2228.8 972.273 2241.54 966.567 2254.27 960.861 2268.48 958 2284.16 958 2299.83 958 2313.44 960.423 2325.38 965.254 2337.32 970.1 2347.31 976.854 2355.37 985.515 2363.44 994.192 2369.54 1004.53 2373.73 1016.52 2377.9 1028.51 2379.98 1041.65 2379.98 1055.96ZM2326.47 1048.39C2326.61 1039.72 2325.53 1032.17 2323.23 1025.74 2320.93 1019.31 2317.8 1014 2313.84 1009.81 2309.89 1005.62 2305.28 1002.51 2300.04 1000.49 2294.79 998.475 2289.14 997.459 2283.1 997.459 2269.85 997.459 2259 1001.9 2250.5 1010.79 2242.02 1019.67 2236.98 1032.21 2235.39 1048.41L2326.47 1048.41Z" fill="#222832" fill-rule="evenodd" fill-opacity="1"/><path d="M2573.44 1183 2523.24 1108.94 2472.82 1183 2409 1183 2491.44 1072.13 2413.34 963 2477.6 963 2526.93 1035.32 2575.61 963 2634.9 963 2559.17 1071.7 2639 1183 2573.44 1183Z" fill="#222832" fill-rule="evenodd" fill-opacity="1"/></g></g></svg>