<svg width="2479" height="568" xmlns="http://www.w3.org/2000/svg" xmlns:xlink="http://www.w3.org/1999/xlink" xml:space="preserve" overflow="hidden"><g transform="translate(-669 -747)"><g><path d="M813.142 976C769.07 964.165 743.47 934.842 733.821 889.641 728.717 865.752 728.654 841.613 729.261 817.271 729.853 817.178 730.397 816.881 730.74 817.053 757.46 830.152 784.274 843.143 807.928 861.849 814.9 867.36 820.954 874.121 827.366 880.382 829.186 882.146 829.638 883.942 827.942 886.518 816.908 903.193 812.8 921.883 813.266 941.916 813.5 952.08 813.453 962.26 813.484 972.44 813.484 973.58 813.266 974.72 813.126 976Z" fill="#74B944" fill-rule="evenodd" fill-opacity="1"/><path d="M953.403 1261.98C940.56 1256.54 927.655 1251.2 914.858 1245.6 897.967 1238.21 881.324 1230.3 867.225 1218 863.533 1214.79 860.276 1211.08 856.631 1207.8 854.444 1205.82 854.646 1204.2 856.119 1201.87 862.463 1191.79 867.442 1180.97 868.962 1169.09 870.141 1159.84 869.877 1150.39 870.048 1141.01 870.203 1132.97 870.079 1124.92 870.079 1116 874.546 1117.7 878.439 1119.14 882.286 1120.63 924.475 1136.95 947.26 1168.44 952.224 1213.31 953.977 1229.13 954.116 1245.12 955 1261.03 954.473 1261.36 953.945 1261.67 953.403 1262Z" fill="#74B944" fill-rule="evenodd" fill-opacity="1"/><path d="M869.268 976.984C869.72 967.483 866.961 958.965 872.929 950.542 888.699 928.287 903.829 905.533 919.084 882.872 920.861 880.247 924.928 877.09 921.001 873.793 917.059 870.495 915.469 875.699 913.506 877.793 897.737 894.609 883.728 912.909 871.356 932.57 870.919 933.257 870.421 933.898 869.065 935.805 869.938 915.895 863.066 899.891 853 884.748 859.794 875.012 867.943 866.776 877.293 859.883 898.703 844.146 922.201 832.191 945.558 820.001 947.958 818.751 950.451 817.641 953.895 816 953.895 822.236 953.802 827.44 953.911 832.628 954.332 852.351 953.365 871.886 948.955 891.202 939.746 931.476 916.872 959.012 879.24 973.124 876.217 974.265 873.21 975.469 869.268 977Z" fill="#316733" fill-rule="evenodd" fill-opacity="1"/><path d="M813.884 1116C813.884 1122.5 814.147 1128.23 813.744 1133.92 813.605 1136 812.163 1138.14 810.892 1139.95 795.903 1161.33 780.851 1182.65 765.8 1204 765.521 1204.4 765.072 1204.76 764.979 1205.21 764.576 1207.22 764.266 1209.26 763.925 1211.29 765.816 1210.47 768.311 1210.15 769.52 1208.74 783.006 1192.82 796.306 1176.73 809.652 1160.68 810.66 1159.47 811.683 1158.25 813.109 1156.54 813.775 1162.71 813.434 1168.47 815.155 1173.49 818.364 1182.84 822.394 1191.95 826.858 1200.78 828.563 1204.12 828.439 1205.75 825.943 1208.22 814.473 1219.6 801.499 1228.85 787.021 1235.8 768.311 1244.79 749.338 1253.21 730.195 1262 730.195 1247.41 729.683 1234.05 730.319 1220.74 731.202 1202.05 736.38 1184.4 745.246 1167.88 757.414 1145.16 776.418 1130.6 799.84 1121.29 804.32 1119.5 808.846 1117.89 813.868 1116Z" fill="#74B944" fill-rule="evenodd" fill-opacity="1"/><path d="M841.614 750C890.225 750 938.836 750 987.447 750 1003.39 750 1010.53 757.106 1010.58 773.095 1010.65 804.199 1011.51 835.335 1010.54 866.408 1009.08 913.236 991 952.989 957.382 985.714 940.955 1001.7 921.349 1012.24 900.979 1021.8 897.145 1023.61 893.264 1025.45 889.726 1027.79 879.704 1034.38 879.455 1045.82 889.477 1052.46 895.305 1056.32 901.742 1059.33 908.117 1062.29 940.753 1077.44 967.263 1099.64 986.044 1130.67 1002.41 1157.71 1010.72 1187.05 1010.56 1218.79 1010.44 1242.17 1010.59 1265.53 1010.59 1288.9 1010.59 1303.08 1002.78 1311 988.834 1311 891.939 1311 795.06 1311 698.165 1311 696.357 1311 694.565 1311 692.757 1310.97 681.426 1310.78 672.683 1302.46 672.621 1291.08 672.465 1264.09 671.124 1236.99 672.948 1210.13 677 1150.51 703.448 1103.57 755.489 1072.78 765.182 1067.04 775.625 1062.62 785.615 1057.41 789.371 1055.46 793.205 1053.39 796.353 1050.63 803.414 1044.48 803.336 1035.52 795.87 1029.89 791.241 1026.4 785.755 1023.94 780.394 1021.59 760.944 1013.06 742.459 1002.95 727.107 988.004 697.698 959.378 679.4 924.845 674.615 883.767 672.932 869.291 672.839 854.58 672.636 839.978 672.325 817.273 672.527 794.553 672.512 771.848 672.512 757.823 680.07 750.016 693.832 750.016 743.098 749.985 792.363 750.016 841.629 750.016ZM841.396 1212.17C842.159 1212.79 842.673 1213.18 843.141 1213.64 865.366 1234.66 890.988 1250.58 917.717 1265.09 936.124 1275.1 955.497 1275.14 975.867 1273.83 975.867 1271.9 975.867 1270.14 975.867 1268.38 975.851 1251.75 976.038 1235.14 975.711 1218.51 975.555 1210.83 975.009 1203.05 973.622 1195.51 966.095 1154.9 944.088 1124.11 909.364 1102.57 898.719 1095.97 887.092 1090.96 875.979 1085.09 857.822 1075.49 848.58 1060.67 849.11 1039.66 849.593 1020.92 857.028 1006.78 873.954 998.196 880.655 994.783 887.341 991.324 894.105 988.036 917.125 976.847 935.859 960.562 950.743 939.743 968.245 915.246 975.835 887.679 975.851 857.774 975.867 836.051 975.82 814.328 975.804 792.605 975.804 790.844 975.804 789.083 975.804 787.042L707.906 787.042C707.828 788.366 707.704 789.332 707.704 790.298 707.672 814.157 707.532 838.015 707.688 861.873 707.735 868.761 708.124 875.726 709.169 882.521 715.668 924.253 738.313 955.498 772.555 978.576 783.62 986.041 795.995 991.573 807.855 997.791 815.04 1001.56 821.571 1005.91 826.418 1012.7 837.608 1028.44 837.125 1057.18 822.054 1073.23 813.903 1081.89 803.57 1086.68 793.299 1091.66 777.448 1099.35 762.471 1108.1 749.815 1120.68 724.068 1146.25 708.685 1176.55 707.797 1213.34 707.329 1232.74 707.688 1252.17 707.704 1271.59 707.704 1272.35 707.984 1273.1 708.218 1274.32 714.779 1274.32 721.169 1273.96 727.481 1274.39 740.667 1275.31 752.948 1272.12 764.154 1265.62 779.989 1256.44 795.699 1246.94 810.817 1236.62 821.461 1229.36 831.047 1220.54 841.411 1212.19Z" fill="#FFFFFF" fill-rule="evenodd" fill-opacity="1"/><path d="M841.842 861C822.221 840.655 800.154 825.532 775 812L907.001 812C883.156 825.844 859.951 839.408 841.842 861Z" fill="#FFFFFF" fill-rule="evenodd" fill-opacity="1"/><path d="M841.811 1010C838.64 1004.43 835.15 998.517 831.918 992.451 830.891 990.531 830.045 988.21 830.045 986.074 830.015 966.977 829.848 947.864 830.437 928.782 830.77 917.716 834.304 907.425 841.449 898 846.872 904.577 850.195 911.836 852.008 919.713 853.171 924.742 853.729 930.035 853.805 935.204 854.062 951.686 854.017 968.184 853.941 984.666 853.941 986.817 853.352 989.185 852.355 991.073 848.926 997.619 845.18 1004.01 841.827 1010Z" fill="#FFFFFF" fill-rule="evenodd" fill-opacity="1"/><path d="M841.422 1183C834.545 1174.06 829.815 1164.69 829.627 1153.64 829.266 1134.14 829.031 1114.64 829 1095.13 829 1084.47 836.519 1078.66 845.635 1081.89 850.82 1083.73 854 1087.66 854 1092.96 854 1114.25 854.031 1135.55 853.107 1156.81 852.684 1166.51 848.157 1175.23 841.422 1183Z" fill="#FFFFFF" fill-rule="evenodd" fill-opacity="1"/><path d="M1433 1069.15C1433 1089.36 1430.16 1106.85 1424.48 1121.57 1418.81 1136.3 1410.89 1148.53 1400.77 1158.28 1390.64 1168.03 1378.68 1175.25 1364.89 1179.95 1351.1 1184.66 1336.09 1187 1319.84 1187 1303.59 1187 1289.04 1185.81 1275.33 1183.42 1261.6 1181.03 1248.5 1177.83 1236 1173.78L1236 877 1288.59 877 1288.59 948.918 1286.43 992.244C1294.33 981.995 1303.56 973.761 1314.14 967.542 1324.69 961.34 1337.38 958.23 1352.18 958.23 1365.11 958.23 1376.6 960.824 1386.66 966.027 1396.72 971.23 1405.16 978.635 1411.98 988.229 1418.81 997.838 1424.01 1009.46 1427.61 1023.1 1431.2 1036.74 1433 1052.1 1433 1069.13ZM1377.81 1071.32C1377.81 1059.19 1376.96 1048.87 1375.23 1040.34 1373.51 1031.82 1371.03 1024.81 1367.8 1019.32 1364.57 1013.84 1360.62 1009.82 1355.94 1007.29 1351.27 1004.76 1345.91 1003.49 1339.88 1003.49 1330.97 1003.49 1322.45 1007.1 1314.34 1014.32 1306.22 1021.54 1297.62 1031.37 1288.58 1043.79L1288.58 1139.97C1292.74 1141.56 1297.87 1142.86 1303.98 1143.88 1310.09 1144.89 1316.3 1145.39 1322.62 1145.39 1330.96 1145.39 1338.54 1143.66 1345.37 1140.19 1352.19 1136.72 1358.01 1131.82 1362.83 1125.46 1367.64 1119.1 1371.34 1111.35 1373.93 1102.18 1376.51 1093 1377.81 1082.72 1377.81 1071.3Z" fill="#FFFFFF" fill-rule="evenodd" fill-opacity="1"/><path d="M1659.16 1182.98 1600.71 1182.98 1577.42 1113.26 1570.3 1089.01 1563.17 1113.91 1540.74 1182.98 1482.07 1182.98 1451 963 1501.05 963 1516.79 1087.29 1520.47 1121.28 1529.3 1090.76 1551.3 1023.86 1591.43 1023.86 1614.93 1090.33 1625.08 1121.72 1629.17 1086.87 1642.33 963.015 1690 963.015 1659.15 1183Z" fill="#FFFFFF" fill-rule="evenodd" fill-opacity="1"/><path d="M1698 1241 1698 1199 1942 1199 1942 1241 1698 1241Z" fill="#FFFFFF" fill-rule="evenodd" fill-opacity="1"/><path d="M2147 1180.86C2137.46 1183.02 2127.85 1184.76 2118.17 1186.05 2108.49 1187.34 2099.32 1188 2090.64 1188 2076.2 1188 2063.72 1186.49 2053.25 1183.46 2042.77 1180.43 2034.09 1175.82 2027.23 1169.62 2020.37 1163.43 2015.3 1155.54 2012.05 1145.94 2008.8 1136.35 2007.17 1124.93 2007.17 1111.66L2007.17 1004.38 1948 1004.38 1948 963.291 2007.17 963.291 2007.17 907.055 2061.36 893 2061.36 963.291 2146.98 963.291 2146.98 1004.38 2061.36 1004.38 2061.36 1107.77C2061.36 1120.31 2064.25 1129.8 2070.04 1136.21 2075.82 1142.62 2085.5 1145.84 2099.08 1145.84 2107.76 1145.84 2116.2 1145.12 2124.44 1143.67 2132.68 1142.23 2140.18 1140.56 2146.98 1138.69L2146.98 1180.87Z" fill="#FFFFFF" fill-rule="evenodd" fill-opacity="1"/><path d="M2279.6 1004.05 2217.56 1004.05 2217.56 962.891 2333.66 962.891 2333.66 1141.84 2397 1141.84 2397 1183 2210 1183 2210 1141.84 2279.62 1141.84 2279.62 1004.06ZM2337.98 902.656C2337.98 907.422 2337.13 911.906 2335.39 916.094 2333.66 920.281 2331.25 923.937 2328.16 927.031 2325.07 930.125 2321.42 932.594 2317.24 934.391 2313.07 936.203 2308.53 937.094 2303.63 937.094 2298.74 937.094 2294.15 936.188 2289.91 934.391 2285.65 932.594 2281.99 930.125 2278.89 927.031 2275.78 923.922 2273.37 920.281 2271.65 916.094 2269.92 911.906 2269.06 907.422 2269.06 902.656 2269.06 897.89 2269.92 893.422 2271.65 889.219 2273.38 885.031 2275.8 881.344 2278.89 878.172 2281.99 875 2285.65 872.5 2289.91 870.703 2294.17 868.906 2298.74 868 2303.63 868 2308.53 868 2313.07 868.906 2317.24 870.703 2321.42 872.516 2325.06 875 2328.16 878.172 2331.26 881.344 2333.68 885.031 2335.39 889.219 2337.13 893.406 2337.98 897.89 2337.98 902.656Z" fill="#FFFFFF" fill-rule="evenodd" fill-opacity="1"/><path d="M2607.39 1183 2607.39 1033.41C2607.39 1027.94 2607.25 1023.14 2606.96 1019.04 2606.66 1014.94 2606.1 1011.51 2605.23 1008.76 2604.37 1006.04 2603.11 1003.98 2601.44 1002.61 2599.78 1001.23 2597.51 1000.55 2594.62 1000.55 2590.14 1000.55 2585.76 1003.57 2581.43 1009.62 2577.11 1015.67 2572.19 1025.98 2566.72 1040.54L2566.72 1182.98 2521.52 1182.98 2521.52 1033.4C2521.52 1027.92 2521.38 1023.12 2521.08 1019.02 2520.78 1014.92 2520.22 1011.49 2519.35 1008.75 2518.49 1006.02 2517.18 1003.96 2515.45 1002.59 2513.72 1001.22 2511.41 1000.53 2508.52 1000.53 2504.78 1000.53 2500.6 1003.56 2495.98 1009.61 2491.37 1015.65 2486.25 1025.96 2480.64 1040.52L2480.64 1182.97 2435 1182.97 2435 963.35 2474.15 963.35 2475.01 995.341C2478.17 988.855 2481.35 983.305 2484.52 978.69 2487.69 974.076 2491.07 970.303 2494.69 967.341 2498.29 964.394 2502.15 962.259 2506.26 960.965 2510.38 959.671 2515.03 959.016 2520.21 959.016 2532.47 959.016 2541.79 962.227 2548.22 968.635 2554.63 975.042 2558.28 983.944 2559.14 995.325 2562.6 988.84 2566.02 983.289 2569.42 978.675 2572.8 974.06 2576.34 970.287 2580.01 967.325 2583.69 964.379 2587.65 962.243 2591.91 960.949 2596.16 959.655 2600.88 959 2606.07 959 2622.07 959 2633.89 964.581 2641.54 975.76 2649.18 986.922 2653 1003.46 2653 1025.37L2653 1182.95 2607.36 1182.95Z" fill="#FFFFFF" fill-rule="evenodd" fill-opacity="1"/><path d="M2887 1055.98C2887 1059.59 2886.89 1064.29 2886.67 1070.06 2886.45 1075.85 2886.12 1081.25 2885.7 1086.32L2740.8 1086.32C2740.8 1096 2742.29 1104.53 2745.24 1111.9 2748.2 1119.26 2752.41 1125.45 2757.82 1130.42 2763.25 1135.41 2769.76 1139.21 2777.35 1141.8 2784.94 1144.4 2793.37 1145.71 2802.61 1145.71 2813.31 1145.71 2824.77 1144.88 2837 1143.23 2849.22 1141.57 2861.91 1138.86 2875.06 1135.1L2875.06 1177.15C2869.42 1178.75 2863.28 1180.18 2856.62 1181.48 2849.97 1182.78 2843.16 1183.94 2836.23 1184.95 2829.29 1185.97 2822.28 1186.72 2815.19 1187.23 2808.1 1187.73 2801.24 1188 2794.59 1188 2777.82 1188 2762.77 1185.61 2749.47 1180.84 2736.16 1176.07 2724.89 1169.02 2715.63 1159.7 2706.37 1150.39 2699.28 1138.86 2694.37 1125.14 2689.46 1111.41 2687 1095.51 2687 1077.46 2687 1059.4 2689.46 1043.25 2694.37 1028.57 2699.28 1013.91 2706.23 1001.34 2715.19 990.846 2724.16 980.372 2735.04 972.273 2747.84 966.567 2760.64 960.861 2774.92 958 2790.68 958 2806.43 958 2820.1 960.423 2832.1 965.254 2844.1 970.1 2854.15 976.854 2862.25 985.515 2870.35 994.192 2876.49 1004.53 2880.7 1016.52 2884.89 1028.51 2886.98 1041.65 2886.98 1055.96ZM2833.2 1048.39C2833.34 1039.72 2832.26 1032.17 2829.94 1025.74 2827.63 1019.31 2824.48 1014 2820.51 1009.81 2816.54 1005.62 2811.91 1002.51 2806.63 1000.49 2801.36 998.475 2795.68 997.459 2789.61 997.459 2776.3 997.459 2765.4 1001.9 2756.85 1010.79 2748.33 1019.67 2743.26 1032.21 2741.66 1048.41L2833.2 1048.41Z" fill="#FFFFFF" fill-rule="evenodd" fill-opacity="1"/><path d="M3079.73 1183 3029.75 1108.94 2979.55 1183 2916 1183 2998.08 1072.13 2920.32 963 2984.3 963 3033.41 1035.32 3081.89 963 3140.91 963 3065.51 1071.7 3145 1183 3079.73 1183Z" fill="#FFFFFF" fill-rule="evenodd" fill-opacity="1"/></g></g></svg>
