<?xml version="1.0" encoding="UTF-8"?>
<svg id="Layer_2" data-name="Layer 2" xmlns="http://www.w3.org/2000/svg" viewBox="0 0 820.53 176.47">
  <defs>
    <style>
      .cls-1 {
        fill: #316733;
      }

      .cls-1, .cls-2, .cls-3 {
        stroke-width: 0px;
      }

      .cls-2 {
        fill: #fff;
      }

      .cls-3 {
        fill: #74b944;
      }
    </style>
  </defs>
  <g id="Layer_1-2" data-name="Layer 1">
    <g>
      <path class="cls-3" d="M44.2,71.06c-14.1-3.75-22.29-13.05-25.38-27.38-1.63-7.57-1.65-15.23-1.46-22.94.19-.03.36-.12.47-.07,8.55,4.15,17.13,8.27,24.69,14.2,2.23,1.75,4.17,3.89,6.22,5.87.58.56.73,1.13.18,1.94-3.53,5.29-4.84,11.21-4.69,17.56.08,3.22.06,6.45.07,9.68,0,.36-.07.72-.11,1.13Z"/>
      <path class="cls-3" d="M89.02,161.85c-4.12-1.73-8.27-3.42-12.37-5.2-5.42-2.35-10.76-4.86-15.29-8.76-1.18-1.02-2.23-2.2-3.4-3.24-.7-.63-.64-1.15-.17-1.88,2.04-3.2,3.64-6.63,4.12-10.4.38-2.94.29-5.94.35-8.91.05-2.55.01-5.1.01-7.94,1.44.54,2.68,1,3.92,1.47,13.54,5.18,20.85,15.17,22.44,29.4.56,5.02.61,10.09.89,15.14-.17.1-.34.2-.51.3Z"/>
      <path class="cls-1" d="M62.23,71.29c.14-3.01-.74-5.71,1.17-8.37,5.04-7.05,9.87-14.26,14.74-21.43.57-.83,1.87-1.83.61-2.88-1.26-1.05-1.77.6-2.39,1.27-5.04,5.33-9.52,11.12-13.47,17.35-.14.22-.3.42-.73,1.02.28-6.31-1.91-11.37-5.13-16.17,2.17-3.08,4.77-5.69,7.76-7.87,6.84-4.99,14.35-8.77,21.81-12.63.77-.4,1.56-.75,2.66-1.27,0,1.98-.03,3.62,0,5.26.14,6.25-.17,12.43-1.59,18.55-2.94,12.76-10.25,21.48-22.28,25.95-.97.36-1.92.74-3.19,1.23Z"/>
      <path class="cls-3" d="M44.42,115.36c0,2.08.08,3.91-.04,5.72-.05.66-.51,1.35-.91,1.93-4.81,6.83-9.65,13.63-14.48,20.45-.09.13-.24.24-.26.38-.13.64-.23,1.29-.34,1.94.61-.26,1.41-.36,1.8-.81,4.33-5.08,8.6-10.22,12.89-15.34.32-.39.65-.78,1.11-1.32.21,1.97.1,3.8.66,5.41,1.03,2.98,2.33,5.9,3.76,8.71.55,1.07.51,1.59-.29,2.37-3.68,3.63-7.85,6.59-12.5,8.81-6.01,2.87-12.1,5.56-18.25,8.37,0-4.66-.16-8.92.04-13.17.29-5.97,1.95-11.6,4.79-16.88,3.91-7.25,10.01-11.9,17.54-14.87,1.44-.57,2.89-1.09,4.5-1.69Z"/>
      <g>
        <path class="cls-2" d="M7.06,176.47c-.43,0-.85,0-1.28,0-3.22-.05-5.57-2.35-5.58-5.46-.01-2.34-.06-4.68-.1-7.02-.11-6.12-.22-12.45.2-18.63,1.3-19.14,10.03-33.58,25.94-42.94,1.9-1.12,3.94-2.1,5.91-3.05,1.23-.59,2.46-1.18,3.67-1.81,1.29-.67,2.54-1.35,3.6-2.27,1.32-1.14,2.01-2.6,1.96-4.1-.05-1.47-.82-2.83-2.16-3.83-1.51-1.13-3.21-1.91-5.12-2.74-7.45-3.25-12.62-6.48-16.77-10.49C7.84,64.92,2.29,53.95.83,41.53c-.5-4.26-.56-8.66-.62-12.92v-.9c-.08-5.14-.07-10.37-.06-15.43v-6.2C.16,2.11,2.22,0,6.11,0h93.79c4.62,0,6.51,1.87,6.52,6.47,0,2.94.04,5.89.07,8.83.07,6.82.14,13.86-.08,20.78-.45,14.45-6.08,27-16.72,37.3-5.25,5.08-11.65,8.44-17.78,11.3-1.17.55-2.49,1.17-3.7,1.96-1.8,1.18-2.83,2.89-2.83,4.69,0,1.77,1,3.44,2.75,4.59,1.96,1.29,4.14,2.3,6.07,3.19,10.61,4.89,18.86,12.09,24.52,21.39,5.16,8.48,7.75,17.75,7.7,27.54-.02,4.75-.01,9.5,0,14.24,0,2.68.01,5.35.01,8.03,0,4.03-2.11,6.16-6.09,6.16H7.06ZM14.57,166.5c.75,0,1.49.02,2.23.07.5.03.99.05,1.48.05,3.72,0,7.33-.99,10.73-2.95,6.15-3.55,10.77-6.4,14.96-9.24,2.38-1.61,4.63-3.5,6.81-5.32.82-.68,1.63-1.37,2.47-2.04,7.72,7.26,16.45,12.39,23.98,16.46,3.93,2.12,8.23,3.07,13.93,3.07,1.47,0,3.05-.06,5.11-.19l.81-.05v-7.1c.02-3.7.02-7.53-.05-11.3-.05-2.85-.28-5.28-.68-7.45-2.41-12.9-9.45-23.02-20.92-30.1-2.24-1.38-4.64-2.56-6.96-3.7-1.26-.62-2.52-1.24-3.75-1.89-5.62-2.96-8.28-7.42-8.12-13.64.15-5.9,2.59-9.96,7.46-12.42l1.57-.79c1.61-.82,3.23-1.64,4.86-2.42,7.32-3.54,13.51-8.79,18.42-15.62,5.42-7.55,8.18-16.48,8.18-26.54,0-4.83,0-9.66,0-14.49v-8.84H9.8l-.08,1.2c-.02.26-.04.48-.04.7v5.81c-.03,5.65-.04,11.29,0,16.94.02,2.51.17,4.7.49,6.68,2,12.81,8.94,23.27,20.62,31.09,2.64,1.77,5.53,3.21,8.32,4.61,1.02.51,2.03,1.02,3.04,1.54,1.91.99,4.07,2.3,5.62,4.48,3.21,4.49,3.33,13.2-1.32,18.13-2.38,2.52-5.35,3.95-8.49,5.46l-.44.21c-4.21,2.03-9.61,4.92-14.12,9.38-8.92,8.81-13.4,18.64-13.68,30.03-.11,4.36-.08,8.79-.05,13.08.01,1.82.02,3.63.02,5.45,0,.26.05.48.11.71l.07.32.14.7h.71c.67,0,1.32-.01,1.98-.02.63-.01,1.27-.02,1.89-.02Z"/>
        <path class="cls-2" d="M53.34,33.18c-4.97-4.99-10.74-9.31-17.95-13.42h35.59c-6.27,3.67-12.55,7.65-17.64,13.42Z"/>
        <path class="cls-2" d="M53.27,81.99c-1.04-1.78-2.2-3.67-3.26-5.62-.34-.61-.62-1.36-.62-2.04-.01-6.11-.06-12.22.13-18.32.11-3.54,1.28-6.83,3.63-9.84,1.79,2.1,2.88,4.43,3.48,6.94.38,1.61.57,3.3.59,4.96.08,5.27.07,10.55.04,15.82,0,.69-.19,1.45-.52,2.05-1.13,2.09-2.36,4.14-3.47,6.05Z"/>
        <path class="cls-2" d="M53.13,80.05c-.78-1.32-1.6-2.69-2.36-4.09-.33-.6-.51-1.18-.51-1.63v-2.78c-.02-5.09-.04-10.35.13-15.52.1-3.05,1.03-5.88,2.79-8.45,1.24,1.69,2.1,3.57,2.61,5.72.35,1.48.54,3.09.57,4.77.08,5.32.07,10.74.04,15.8,0,.55-.16,1.17-.42,1.64-.83,1.53-1.71,3.03-2.55,4.47l-.16.28-.14-.23Z"/>
        <path class="cls-2" d="M53.26,135.44c-1.94-2.76-2.87-5.31-2.92-7.96-.13-6.94-.19-13.03-.2-18.62,0-1.21.35-2.24,1-2.88.49-.49,1.14-.75,1.87-.75.41,0,.83.08,1.27.23,1.34.48,2.08,1.44,2.08,2.71v.95c0,6.35,0,12.91-.28,19.35-.1,2.34-1.05,4.68-2.81,6.97Z"/>
      </g>
    </g>
    <g>
      <path class="cls-2" d="M221.81,131.23c-2.92.66-5.87,1.2-8.83,1.59-2.97.4-5.78.6-8.43.6-4.43,0-8.25-.46-11.46-1.39-3.21-.93-5.87-2.35-7.97-4.25-2.1-1.9-3.65-4.33-4.65-7.27-1-2.94-1.49-6.45-1.49-10.53v-32.94h-18.13v-12.62h18.13v-17.27l16.6-4.32v21.58h26.23v12.62h-26.23v31.74c0,3.85.89,6.76,2.66,8.73,1.77,1.97,4.74,2.96,8.9,2.96,2.66,0,5.25-.22,7.77-.66,2.52-.44,4.82-.95,6.91-1.53v12.95Z"/>
      <path class="cls-2" d="M262.72,77.05h-19.06v-12.62h35.66v54.85h19.46v12.62h-57.44v-12.62h21.38v-42.23ZM280.65,45.97c0,1.46-.27,2.83-.8,4.12-.53,1.28-1.27,2.4-2.22,3.35-.95.95-2.07,1.71-3.35,2.26-1.28.55-2.68.83-4.18.83s-2.91-.28-4.22-.83c-1.31-.55-2.44-1.31-3.39-2.26-.95-.95-1.69-2.07-2.22-3.35-.53-1.28-.8-2.66-.8-4.12s.27-2.83.8-4.12c.53-1.28,1.27-2.41,2.22-3.39.95-.97,2.08-1.74,3.39-2.29,1.31-.55,2.71-.83,4.22-.83s2.9.28,4.18.83c1.28.55,2.4,1.32,3.35,2.29.95.97,1.69,2.1,2.22,3.39.53,1.28.8,2.66.8,4.12Z"/>
      <path class="cls-2" d="M363.32,131.9v-45.95c0-1.68-.04-3.15-.13-4.42-.09-1.26-.27-2.31-.53-3.15-.27-.84-.65-1.47-1.16-1.89-.51-.42-1.21-.63-2.09-.63-1.37,0-2.72.93-4.05,2.79s-2.83,5.03-4.52,9.5v43.76h-13.88v-45.95c0-1.68-.04-3.15-.13-4.42-.09-1.26-.27-2.31-.53-3.15-.27-.84-.66-1.47-1.2-1.89-.53-.42-1.24-.63-2.12-.63-1.15,0-2.44.93-3.85,2.79-1.42,1.86-2.99,5.03-4.71,9.5v43.76h-14.01v-67.47h12.02l.27,9.83c.97-1.99,1.95-3.7,2.92-5.11.97-1.42,2.01-2.58,3.12-3.49,1.11-.91,2.29-1.56,3.55-1.96s2.69-.6,4.28-.6c3.76,0,6.63.99,8.6,2.96,1.97,1.97,3.09,4.7,3.35,8.2,1.06-1.99,2.11-3.7,3.15-5.11,1.04-1.42,2.12-2.58,3.25-3.49,1.13-.91,2.35-1.56,3.65-1.96,1.31-.4,2.76-.6,4.35-.6,4.91,0,8.54,1.72,10.89,5.15,2.35,3.43,3.52,8.51,3.52,15.24v48.41h-14.01Z"/>
      <path class="cls-2" d="M449.25,92.98c0,1.11-.03,2.55-.1,4.32-.07,1.77-.17,3.43-.3,4.98h-44.36c0,2.97.45,5.58,1.36,7.84.91,2.26,2.19,4.15,3.85,5.68s3.65,2.69,5.98,3.49,4.9,1.2,7.74,1.2c3.28,0,6.78-.25,10.53-.76,3.74-.51,7.63-1.34,11.65-2.49v12.88c-1.73.49-3.61.93-5.64,1.33-2.04.4-4.12.75-6.24,1.06-2.12.31-4.27.54-6.44.7-2.17.15-4.27.23-6.31.23-5.14,0-9.74-.73-13.81-2.19-4.07-1.46-7.53-3.62-10.36-6.47-2.83-2.86-5-6.39-6.51-10.59-1.51-4.21-2.26-9.08-2.26-14.61s.75-10.48,2.26-14.97c1.5-4.49,3.63-8.34,6.38-11.55,2.74-3.21,6.08-5.69,9.99-7.44,3.92-1.75,8.29-2.62,13.12-2.62s9.01.74,12.68,2.22c3.67,1.48,6.75,3.55,9.23,6.21,2.48,2.66,4.36,5.82,5.64,9.5,1.28,3.67,1.93,7.7,1.93,12.09ZM432.78,90.66c.04-2.66-.29-4.97-1-6.94-.71-1.97-1.67-3.6-2.89-4.88-1.22-1.28-2.63-2.24-4.25-2.86-1.62-.62-3.35-.93-5.21-.93-4.07,0-7.42,1.36-10.03,4.08-2.61,2.72-4.16,6.56-4.65,11.52h28.02Z"/>
      <path class="cls-2" d="M508.69,131.9l-15.41-22.71-15.47,22.71h-19.59l25.3-34-23.97-33.47h19.72l15.14,22.18,14.94-22.18h18.2l-23.24,33.34,24.5,34.13h-20.12Z"/>
      <path class="cls-2" d="M530.8,153.12v-12.82h74.77v12.82h-74.77Z"/>
      <path class="cls-2" d="M636.58,50.68h-19.06v-12.62h35.66v81.21h19.46v12.62h-57.44v-12.62h21.38V50.68Z"/>
      <path class="cls-2" d="M744.16,129.31c-3.19,1.28-6.49,2.24-9.89,2.86-3.41.62-6.97.93-10.69.93-5.36,0-10.16-.73-14.41-2.19s-7.86-3.63-10.82-6.51c-2.97-2.88-5.24-6.44-6.81-10.69-1.57-4.25-2.36-9.16-2.36-14.74s.85-10.29,2.56-14.68c1.7-4.38,4.11-8.12,7.21-11.22,3.1-3.1,6.83-5.49,11.19-7.17,4.36-1.68,9.22-2.52,14.58-2.52,4.38,0,8.07.23,11.06.7s5.68,1.05,8.07,1.76v15.74c-2.75-1.37-5.72-2.43-8.93-3.19-3.21-.75-6.25-1.13-9.13-1.13s-5.71.51-8.1,1.53c-2.39,1.02-4.41,2.44-6.04,4.25-1.64,1.82-2.89,4.02-3.75,6.61s-1.29,5.43-1.29,8.53.46,6.13,1.39,8.7c.93,2.57,2.25,4.75,3.95,6.54,1.7,1.79,3.75,3.17,6.14,4.12,2.39.95,5.05,1.43,7.97,1.43,1.42,0,2.91-.1,4.48-.3,1.57-.2,3.14-.49,4.71-.86,1.57-.38,3.12-.81,4.65-1.29,1.53-.49,2.96-1.02,4.28-1.59v14.41Z"/>
      <path class="cls-2" d="M806.65,131.9l-.4-8.83c-1.42,1.51-2.9,2.89-4.45,4.15-1.55,1.26-3.25,2.36-5.11,3.29s-3.88,1.65-6.08,2.16c-2.19.51-4.59.76-7.21.76-3.45,0-6.49-.51-9.1-1.53-2.61-1.02-4.8-2.43-6.57-4.25-1.77-1.81-3.11-4.01-4.02-6.57-.91-2.57-1.36-5.4-1.36-8.5s.67-6.13,2.03-8.83c1.35-2.7,3.41-5.02,6.18-6.97,2.77-1.95,6.22-3.47,10.36-4.58,4.14-1.11,9-1.66,14.58-1.66h8.83v-4.05c0-1.73-.24-3.29-.73-4.68-.49-1.39-1.27-2.58-2.36-3.55-1.08-.97-2.49-1.73-4.22-2.26s-3.85-.8-6.38-.8c-3.98,0-7.91.45-11.79,1.36-3.87.91-7.63,2.18-11.26,3.82v-12.95c3.23-1.28,6.96-2.35,11.19-3.19,4.23-.84,8.62-1.26,13.18-1.26,5,0,9.3.48,12.88,1.43,3.59.95,6.54,2.38,8.87,4.28,2.32,1.9,4.04,4.28,5.15,7.14,1.11,2.86,1.66,6.19,1.66,9.99v46.09h-13.88ZM804.33,102.08h-9.89c-2.75,0-5.07.27-6.97.8-1.9.53-3.45,1.26-4.65,2.19s-2.07,2-2.62,3.22c-.55,1.22-.83,2.51-.83,3.88,0,2.75.88,4.84,2.66,6.28,1.77,1.44,4.18,2.16,7.24,2.16,2.26,0,4.6-.82,7.04-2.46,2.43-1.64,5.11-3.98,8.04-7.04v-9.03Z"/>
    </g>
  </g>
</svg>